<svg xmlns="http://www.w3.org/2000/svg" width="464" height="192" viewBox="0 0 464 192" xml:space="preserve">
  <rect width="464" height="192" fill="#FFFFFF" />
  <g data-component-id="p">
  <rect x="16" y="24" width="424" height="144" fill="#F3F3F3" stroke="none" stroke-width="1" stroke-miterlimit="10" />
  <text font-family="Ubuntu Sans">
    <tspan x="24" y="48.92" font-size="18" font-weight="700" fill="#000000">Panel heading</tspan>
  </text>
  </g>
  <g data-component-id="c1">
  <rect x="24" y="96" width="192" height="64" fill="#FFFFFF" stroke="#000000" stroke-width="1" stroke-miterlimit="10" />
  <text font-family="Ubuntu Sans">
    <tspan x="32" y="120.92" font-size="18" font-weight="400" fill="#000000">Child One</tspan>
  </text>
  <g class="dg-icon" transform="translate(160 104)">
<path d="M24.8232 33.0488H16.5879V31.9512H24.8232V33.0488Z" fill="#000000" />

<path d="M31.4111 28.1074H16.5879V27.0098H31.4111V28.1074Z" fill="#000000" />

<path d="M31.4111 23.166H16.5879V22.0684H31.4111V23.166Z" fill="#000000" />

<path fill-rule="evenodd" clip-rule="evenodd" d="M27.8809 4.5C28.0318 4.5 28.1766 4.56217 28.2803 4.67188L37.8496 14.7949C37.9459 14.8968 37.9999 15.0317 38 15.1719V42.9512L37.9893 43.0615C37.9454 43.2761 37.7761 43.4454 37.5615 43.4893L37.4512 43.5H10.5488C10.2835 43.4999 10.0619 43.3117 10.0107 43.0615L10 42.9512V5.04883C10.0001 4.74576 10.2458 4.5001 10.5488 4.5H27.8809ZM11.0977 42.4023H36.9023V16.0293H28.1172C27.511 16.029 27.0195 15.5369 27.0195 14.9307V5.59766H11.0977V42.4023ZM28.1172 14.9307H36.4668L28.1172 6.09766V14.9307Z" fill="#000000" />

  </g>
  </g>
  <g data-component-id="c2">
  <rect x="224" y="96" width="192" height="64" fill="#000000" stroke="#000000" stroke-width="1" stroke-miterlimit="10" />
  <text font-family="Ubuntu Sans">
    <tspan x="232" y="120.92" font-size="18" font-weight="400" fill="#FFFFFF">Child Two</tspan>
  </text>
  </g>
</svg>
