<svg xmlns="http://www.w3.org/2000/svg" width="1216" height="4488" viewBox="0 0 1216 4488" xml:space="preserve">
  <rect width="1216" height="4488" fill="#FFFFFF" />
  <g data-component-id="__root__">
  <rect x="0" y="0" width="1216" height="4488" fill="transparent" stroke="none" stroke-width="1" stroke-miterlimit="10" pointer-events="none" />
  </g>
  <g data-component-id="__col_0__">
  <rect x="24" y="24" width="224" height="4440" fill="transparent" stroke="none" stroke-width="1" stroke-miterlimit="10" pointer-events="none" />
  </g>
  <g data-component-id="title">
  <rect x="24" y="24" width="208" height="720" fill="transparent" stroke="#000000" stroke-width="1" stroke-miterlimit="10" />
  <text font-family="Ubuntu Sans">
    <tspan x="32" y="48.92" font-size="18" font-weight="700" fill="#000000">AWS</tspan>
    <tspan x="32" y="72.92" font-size="18" font-weight="700" fill="#000000">Organisations</tspan>
    <tspan x="32" y="96.92" font-size="18" font-weight="400" fill="#000000">High Level</tspan>
    <tspan x="32" y="120.92" font-size="18" font-weight="400" fill="#000000">Design</tspan>
  </text>
  <g class="dg-icon" transform="translate(176 32)">
<path fill-rule="evenodd" clip-rule="evenodd" d="M27.1855 10C32.1958 10 36.2166 13.9999 36.2168 18.9229L36.2109 19.1426C36.1874 19.6524 36.0941 20.1474 36.0928 20.1543C41.0412 20.2158 45 24.1541 45 29.0771L44.9883 29.5361C44.7475 34.2463 40.8223 38 35.9688 38H12.0312L11.5645 37.9883C6.9281 37.7568 3.24476 34.0945 3.01172 29.5361L3 29.0771C3.00003 24.9541 5.78376 21.3518 9.86621 20.4287V18.9844C9.86638 15.9076 12.4024 13.4463 15.4951 13.4463L15.749 13.4521C17.0168 13.5096 18.2202 13.996 19.2061 14.8613C20.7525 11.9076 23.8454 10 27.1855 10ZM27.1855 11C24.2244 11 21.4689 12.6948 20.0918 15.3252L19.502 16.4521L18.5469 15.6133C17.674 14.8471 16.608 14.4464 15.4951 14.4463C12.9354 14.4463 10.8664 16.479 10.8662 18.9844V21.2275L10.0869 21.4033C6.47196 22.2207 4.00003 25.4093 4 29.0771C4.00012 33.4385 7.56395 37 12.0312 37H35.9688C40.4361 37 43.9999 33.4385 44 29.0771C44 24.7135 40.4931 21.2082 36.0801 21.1533L34.8877 21.1387L35.1104 19.9668V19.9648C35.1109 19.9617 35.1119 19.9557 35.1133 19.9482C35.116 19.9332 35.121 19.91 35.126 19.8799C35.1361 19.8188 35.1493 19.7305 35.1631 19.626C35.1914 19.4107 35.2168 19.151 35.2168 18.9229C35.2166 14.5615 31.6528 11 27.1855 11Z" fill="#000000" />

  </g>
  </g>
  <g data-component-id="modernisation">
  <rect x="24" y="768" width="208" height="720" fill="#F3F3F3" stroke="none" stroke-width="1" stroke-miterlimit="10" />
  <g class="dg-icon" transform="translate(176 776)">
<path fill-rule="evenodd" clip-rule="evenodd" d="M27.1855 10C32.1958 10 36.2166 13.9999 36.2168 18.9229L36.2109 19.1426C36.1874 19.6524 36.0941 20.1474 36.0928 20.1543C41.0412 20.2158 45 24.1541 45 29.0771L44.9883 29.5361C44.7475 34.2463 40.8223 38 35.9688 38H12.0312L11.5645 37.9883C6.9281 37.7568 3.24476 34.0945 3.01172 29.5361L3 29.0771C3.00003 24.9541 5.78376 21.3518 9.86621 20.4287V18.9844C9.86638 15.9076 12.4024 13.4463 15.4951 13.4463L15.749 13.4521C17.0168 13.5096 18.2202 13.996 19.2061 14.8613C20.7525 11.9076 23.8454 10 27.1855 10ZM27.1855 11C24.2244 11 21.4689 12.6948 20.0918 15.3252L19.502 16.4521L18.5469 15.6133C17.674 14.8471 16.608 14.4464 15.4951 14.4463C12.9354 14.4463 10.8664 16.479 10.8662 18.9844V21.2275L10.0869 21.4033C6.47196 22.2207 4.00003 25.4093 4 29.0771C4.00012 33.4385 7.56395 37 12.0312 37H35.9688C40.4361 37 43.9999 33.4385 44 29.0771C44 24.7135 40.4931 21.2082 36.0801 21.1533L34.8877 21.1387L35.1104 19.9668V19.9648C35.1109 19.9617 35.1119 19.9557 35.1133 19.9482C35.116 19.9332 35.121 19.91 35.126 19.8799C35.1361 19.8188 35.1493 19.7305 35.1631 19.626C35.1914 19.4107 35.2168 19.151 35.2168 18.9229C35.2166 14.5615 31.6528 11 27.1855 11Z" fill="#000000" />

  </g>
  </g>
  <rect x="32" y="776" width="192" height="64" fill="transparent" stroke="#000000" stroke-width="1" stroke-miterlimit="10" />
  <text font-family="Ubuntu Sans">
    <tspan x="40" y="800.92" font-size="18" font-weight="400" fill="#000000">LZ</tspan>
  </text>
  <g data-component-id="vpn_note">
  <rect x="24" y="1512" width="208" height="720" fill="transparent" stroke="none" stroke-width="1" stroke-miterlimit="10" pointer-events="none" />
  </g>
  <g data-component-id="vpc_accounts">
  <rect x="24" y="2256" width="224" height="720" fill="transparent" stroke="#000000" stroke-width="1" stroke-miterlimit="10" stroke-dasharray="8 8" />
  <g class="dg-icon" transform="translate(192 2264)">
<path d="M37.0498 28.6875L37.376 29.6797L37.377 29.6836C37.4998 30.0609 37.7539 30.3765 38.0869 30.5723C38.4195 30.7676 38.8102 30.8314 39.1846 30.7539L40.1992 30.5449L40.9111 30.3984L41.2705 31.0303L42.3691 32.9629L42.7207 33.5811L42.252 34.1162L41.5654 34.8994L41.5645 34.8984C41.3077 35.1925 41.165 35.5752 41.165 35.9727C41.1651 36.3696 41.3082 36.751 41.5645 37.0449L42.252 37.8291L42.7207 38.3643L42.3691 38.9824L41.2705 40.915L40.9111 41.5469L40.1992 41.3994L39.1855 41.1914L39.1846 41.1904C38.8102 41.113 38.4196 41.1776 38.0869 41.373C37.7538 41.5689 37.4997 41.8843 37.377 42.2617L37.374 42.2695L37.0479 43.2451L36.8193 43.9277H33.166L32.9463 43.2246L32.6416 42.2441L32.5889 42.1055C32.4535 41.7898 32.2229 41.5268 31.9316 41.3555C31.5989 41.1599 31.2075 41.0963 30.833 41.1738L29.8193 41.3828L29.1133 41.5283L28.752 40.9053L27.6357 38.9814L27.2754 38.3604L27.749 37.8203L28.4355 37.0371L28.4375 37.0342C28.6975 36.7394 28.8437 36.3553 28.8438 35.9551C28.8438 35.5548 28.6975 35.1708 28.4375 34.876L28.4355 34.873L27.749 34.0898L27.2783 33.5527L27.6338 32.9326L28.7324 31.0176L29.0928 30.3896L29.8018 30.5361L30.8154 30.7451C31.1898 30.8225 31.5815 30.7588 31.9141 30.5635C32.247 30.3677 32.5012 30.0521 32.624 29.6748L32.626 29.6689L32.9521 28.6855L33.1797 28H36.8232L37.0498 28.6875ZM33.5752 29.9834L33.4912 30.207C33.2728 30.7164 32.8983 31.144 32.4209 31.4248L32.2119 31.5352C31.7147 31.7687 31.1542 31.8366 30.6133 31.7246L29.5996 31.5156L28.501 33.4307L29.1875 34.2139C29.6098 34.6926 29.8438 35.3128 29.8438 35.9551L29.833 36.1943C29.7826 36.7498 29.557 37.2774 29.1875 37.6963L28.501 38.4795L29.6172 40.4033L30.6299 40.1943C31.2479 40.0663 31.8917 40.1726 32.4375 40.4932C32.9834 40.8141 33.3952 41.3279 33.5928 41.9355L33.9014 42.9277H36.0996L36.4258 41.9521C36.6234 41.3447 37.0343 40.8316 37.5801 40.5107C38.126 40.19 38.7695 40.0839 39.3877 40.2119L40.4014 40.4209L41.5 38.4883L40.8135 37.7051C40.4482 37.2873 40.2257 36.7628 40.1758 36.2109L40.165 35.9727C40.165 35.3344 40.3959 34.7179 40.8135 34.2402L41.5 33.457L40.4014 31.5244L39.3877 31.7334C38.7695 31.8614 38.1259 31.7543 37.5801 31.4336C37.1026 31.1529 36.7282 30.7252 36.5098 30.2158L36.4258 29.9922L36.0996 29H33.9014L33.5752 29.9834ZM35.001 33.4639C36.3814 33.4642 37.501 34.5834 37.501 35.9639C37.5008 37.3442 36.3813 38.4635 35.001 38.4639C33.6203 38.4639 32.5011 37.3445 32.501 35.9639C32.501 34.5832 33.6203 33.4639 35.001 33.4639ZM35.001 34.4639C34.1725 34.4639 33.501 35.1354 33.501 35.9639C33.5011 36.7922 34.1726 37.4639 35.001 37.4639C35.829 37.4635 36.5008 36.792 36.501 35.9639C36.501 35.1357 35.8291 34.4642 35.001 34.4639Z" fill="#000000" />

<path d="M26.8809 3C27.0318 3 27.1766 3.06217 27.2803 3.17188L36.8496 13.2949C36.9459 13.3968 36.9999 13.5317 37 13.6719V26H36V14.3828H27.1172C26.538 14.3826 26.0684 13.9122 26.0684 13.333V4H10V41H26.4951L27.0225 41.9072L27.0215 41.9082L27.0752 42H9.54883C9.28354 41.9999 9.06185 41.8117 9.01074 41.5615L9 41.4512V3.54883C9.0001 3.24576 9.24576 3.0001 9.54883 3H26.8809ZM23.8232 29.9316H15.5879V28.9316H23.8232V29.9316ZM30.4111 24.9902H15.5879V23.9902H30.4111V24.9902ZM30.4111 20.0488H15.5879V19.0488H30.4111V20.0488ZM27.0684 13.333C27.0684 13.3599 27.0903 13.3826 27.1172 13.3828H35.5566L27.0684 4.40234V13.333Z" fill="#000000" />

  </g>
  </g>
  <g data-component-id="vpc_prod">
  <rect x="32" y="2264" width="208" height="152" fill="#F3F3F3" stroke="none" stroke-width="1" stroke-miterlimit="10" />
  </g>
  <rect x="40" y="2272" width="192" height="64" fill="transparent" stroke="#000000" stroke-width="1" stroke-miterlimit="10" />
  <text font-family="Ubuntu Sans">
    <tspan x="48" y="2296.92" font-size="18" font-weight="400" fill="#000000">VPC per</tspan>
    <tspan x="48" y="2320.92" font-size="18" font-weight="400" fill="#000000">business unit</tspan>
  </text>
  <rect x="40" y="2344" width="192" height="64" fill="transparent" stroke="#000000" stroke-width="1" stroke-miterlimit="10" />
  <text font-family="Ubuntu Sans">
    <tspan x="48" y="2368.92" font-size="18" font-weight="400" fill="#000000">IGW</tspan>
  </text>
  <g class="dg-icon" transform="translate(176 2352)">
<path fill-rule="evenodd" clip-rule="evenodd" d="M24 5.5C32.2317 5.5 39.206 10.8768 41.6064 18.3096C41.6652 18.3914 41.7001 18.4913 41.7002 18.5996L41.6992 18.6045C42.219 20.3116 42.5 22.1229 42.5 24C42.5 25.8764 42.2186 27.687 41.6992 29.3936L41.7002 29.3994C41.7002 29.5074 41.6647 29.6067 41.6064 29.6885C39.2065 37.1221 32.2323 42.5 24 42.5C15.7671 42.5 8.79112 37.1219 6.3916 29.6875C6.33416 29.6061 6.2998 29.5066 6.2998 29.3994V29.3936C5.78046 27.687 5.5 25.8763 5.5 24C5.5 22.123 5.78012 20.3115 6.2998 18.6045V18.5996C6.29989 18.4923 6.334 18.3929 6.3916 18.3115C8.79139 10.8776 15.7675 5.5 24 5.5ZM7.52051 29.8994C9.75709 36.1464 15.4438 40.7496 22.2852 41.415L21.9658 41.1934C18.0206 38.4486 15.2318 34.4289 13.9971 29.8994H7.52051ZM34.0029 29.8994C32.7683 34.4287 29.9802 38.4486 26.0352 41.1934L25.7148 41.415C32.5562 40.7496 38.2429 36.1464 40.4795 29.8994H34.0029ZM24.5 41.043L25.4648 40.3721C29.1381 37.8162 31.7553 34.0971 32.9639 29.8994H24.5V41.043ZM15.0361 29.8994C16.2447 34.0973 18.8626 37.8162 22.5361 40.3721L23.5 41.042V29.8994H15.0361ZM34.0264 19.0996C34.4799 20.8722 34.7168 22.7111 34.7168 24.5781C34.7168 26.0465 34.5562 27.4941 34.249 28.8994H40.8037C41.2563 27.3447 41.5 25.7008 41.5 24C41.5 22.2988 41.2564 20.6546 40.8037 19.0996H34.0264ZM24.5 28.8994H33.2227C33.546 27.4967 33.7168 26.0485 33.7168 24.5781C33.7168 22.7083 33.4667 20.8682 32.9912 19.0996H24.5V28.8994ZM15.0088 19.0996C14.5334 20.8683 14.2842 22.7083 14.2842 24.5781C14.2842 26.0485 14.454 27.4967 14.7773 28.8994H23.5V19.0996H15.0088ZM7.19629 19.0996C6.74357 20.6546 6.5 22.2988 6.5 24C6.5 25.7008 6.74374 27.3447 7.19629 28.8994H13.751C13.4438 27.4941 13.2842 26.0465 13.2842 24.5781C13.2842 22.7111 13.5202 20.8722 13.9736 19.0996H7.19629ZM26.5117 7.38867C29.9742 10.1896 32.4672 13.9349 33.7441 18.0996H40.4795C38.2184 11.7851 32.4318 7.14919 25.4912 6.56348L26.5117 7.38867ZM24.5 18.0996H32.6963C31.4515 14.2407 29.1073 10.7744 25.8828 8.16602L24.5 7.04688V18.0996ZM22.1172 8.16602C18.8927 10.7744 16.5483 14.2406 15.3037 18.0996H23.5V7.04688L22.1172 8.16602ZM22.5078 6.56348C15.5676 7.14954 9.78154 11.7854 7.52051 18.0996H14.2559C15.5325 13.9348 18.0258 10.1896 21.4883 7.38867L22.5078 6.56348Z" fill="#000000" />

  </g>
  <g data-component-id="vpc_preprod">
  <rect x="32" y="2424" width="208" height="80" fill="#F3F3F3" stroke="none" stroke-width="1" stroke-miterlimit="10" />
  </g>
  <rect x="40" y="2432" width="192" height="64" fill="transparent" stroke="#000000" stroke-width="1" stroke-miterlimit="10" />
  <text font-family="Ubuntu Sans">
    <tspan x="48" y="2456.92" font-size="18" font-weight="400" fill="#000000">VPC per</tspan>
    <tspan x="48" y="2480.92" font-size="18" font-weight="400" fill="#000000">business unit</tspan>
  </text>
  <g data-component-id="vpc_test">
  <rect x="32" y="2512" width="208" height="80" fill="#F3F3F3" stroke="none" stroke-width="1" stroke-miterlimit="10" />
  </g>
  <rect x="40" y="2520" width="192" height="64" fill="transparent" stroke="#000000" stroke-width="1" stroke-miterlimit="10" />
  <text font-family="Ubuntu Sans">
    <tspan x="48" y="2544.92" font-size="18" font-weight="400" fill="#000000">VPC per</tspan>
    <tspan x="48" y="2568.92" font-size="18" font-weight="400" fill="#000000">business unit</tspan>
  </text>
  <g data-component-id="vpc_dev">
  <rect x="32" y="2600" width="208" height="80" fill="#F3F3F3" stroke="none" stroke-width="1" stroke-miterlimit="10" />
  </g>
  <rect x="40" y="2608" width="192" height="64" fill="transparent" stroke="#000000" stroke-width="1" stroke-miterlimit="10" />
  <text font-family="Ubuntu Sans">
    <tspan x="48" y="2632.92" font-size="18" font-weight="400" fill="#000000">VPC per</tspan>
    <tspan x="48" y="2656.92" font-size="18" font-weight="400" fill="#000000">business unit</tspan>
  </text>
  <g data-component-id="vpc_sandbox">
  <rect x="32" y="2688" width="208" height="80" fill="#F3F3F3" stroke="none" stroke-width="1" stroke-miterlimit="10" />
  </g>
  <rect x="40" y="2696" width="192" height="64" fill="transparent" stroke="#000000" stroke-width="1" stroke-miterlimit="10" />
  <text font-family="Ubuntu Sans">
    <tspan x="48" y="2720.92" font-size="18" font-weight="400" fill="#000000">VPC per</tspan>
    <tspan x="48" y="2744.92" font-size="18" font-weight="400" fill="#000000">business unit</tspan>
  </text>
  <g data-component-id="ous_wrapper">
  <rect x="24" y="3000" width="224" height="720" fill="transparent" stroke="none" stroke-width="1" stroke-miterlimit="10" pointer-events="none" />
  </g>
  <g data-component-id="ou_maatdb">
  <rect x="32" y="3008" width="208" height="152" fill="#F3F3F3" stroke="none" stroke-width="1" stroke-miterlimit="10" />
  <g class="dg-icon" transform="translate(184 3016)">
<path d="M37.0498 28.6875L37.376 29.6797L37.377 29.6836C37.4998 30.0609 37.7539 30.3765 38.0869 30.5723C38.4195 30.7676 38.8102 30.8314 39.1846 30.7539L40.1992 30.5449L40.9111 30.3984L41.2705 31.0303L42.3691 32.9629L42.7207 33.5811L42.252 34.1162L41.5654 34.8994L41.5645 34.8984C41.3077 35.1925 41.165 35.5752 41.165 35.9727C41.1651 36.3696 41.3082 36.751 41.5645 37.0449L42.252 37.8291L42.7207 38.3643L42.3691 38.9824L41.2705 40.915L40.9111 41.5469L40.1992 41.3994L39.1855 41.1914L39.1846 41.1904C38.8102 41.113 38.4196 41.1776 38.0869 41.373C37.7538 41.5689 37.4997 41.8843 37.377 42.2617L37.374 42.2695L37.0479 43.2451L36.8193 43.9277H33.166L32.9463 43.2246L32.6416 42.2441L32.5889 42.1055C32.4535 41.7898 32.2229 41.5268 31.9316 41.3555C31.5989 41.1599 31.2075 41.0963 30.833 41.1738L29.8193 41.3828L29.1133 41.5283L28.752 40.9053L27.6357 38.9814L27.2754 38.3604L27.749 37.8203L28.4355 37.0371L28.4375 37.0342C28.6975 36.7394 28.8437 36.3553 28.8438 35.9551C28.8438 35.5548 28.6975 35.1708 28.4375 34.876L28.4355 34.873L27.749 34.0898L27.2783 33.5527L27.6338 32.9326L28.7324 31.0176L29.0928 30.3896L29.8018 30.5361L30.8154 30.7451C31.1898 30.8225 31.5815 30.7588 31.9141 30.5635C32.247 30.3677 32.5012 30.0521 32.624 29.6748L32.626 29.6689L32.9521 28.6855L33.1797 28H36.8232L37.0498 28.6875ZM33.5752 29.9834L33.4912 30.207C33.2728 30.7164 32.8983 31.144 32.4209 31.4248L32.2119 31.5352C31.7147 31.7687 31.1542 31.8366 30.6133 31.7246L29.5996 31.5156L28.501 33.4307L29.1875 34.2139C29.6098 34.6926 29.8438 35.3128 29.8438 35.9551L29.833 36.1943C29.7826 36.7498 29.557 37.2774 29.1875 37.6963L28.501 38.4795L29.6172 40.4033L30.6299 40.1943C31.2479 40.0663 31.8917 40.1726 32.4375 40.4932C32.9834 40.8141 33.3952 41.3279 33.5928 41.9355L33.9014 42.9277H36.0996L36.4258 41.9521C36.6234 41.3447 37.0343 40.8316 37.5801 40.5107C38.126 40.19 38.7695 40.0839 39.3877 40.2119L40.4014 40.4209L41.5 38.4883L40.8135 37.7051C40.4482 37.2873 40.2257 36.7628 40.1758 36.2109L40.165 35.9727C40.165 35.3344 40.3959 34.7179 40.8135 34.2402L41.5 33.457L40.4014 31.5244L39.3877 31.7334C38.7695 31.8614 38.1259 31.7543 37.5801 31.4336C37.1026 31.1529 36.7282 30.7252 36.5098 30.2158L36.4258 29.9922L36.0996 29H33.9014L33.5752 29.9834ZM35.001 33.4639C36.3814 33.4642 37.501 34.5834 37.501 35.9639C37.5008 37.3442 36.3813 38.4635 35.001 38.4639C33.6203 38.4639 32.5011 37.3445 32.501 35.9639C32.501 34.5832 33.6203 33.4639 35.001 33.4639ZM35.001 34.4639C34.1725 34.4639 33.501 35.1354 33.501 35.9639C33.5011 36.7922 34.1726 37.4639 35.001 37.4639C35.829 37.4635 36.5008 36.792 36.501 35.9639C36.501 35.1357 35.8291 34.4642 35.001 34.4639Z" fill="#000000" />

<path d="M26.8809 3C27.0318 3 27.1766 3.06217 27.2803 3.17188L36.8496 13.2949C36.9459 13.3968 36.9999 13.5317 37 13.6719V26H36V14.3828H27.1172C26.538 14.3826 26.0684 13.9122 26.0684 13.333V4H10V41H26.4951L27.0225 41.9072L27.0215 41.9082L27.0752 42H9.54883C9.28354 41.9999 9.06185 41.8117 9.01074 41.5615L9 41.4512V3.54883C9.0001 3.24576 9.24576 3.0001 9.54883 3H26.8809ZM23.8232 29.9316H15.5879V28.9316H23.8232V29.9316ZM30.4111 24.9902H15.5879V23.9902H30.4111V24.9902ZM30.4111 20.0488H15.5879V19.0488H30.4111V20.0488ZM27.0684 13.333C27.0684 13.3599 27.0903 13.3826 27.1172 13.3828H35.5566L27.0684 4.40234V13.333Z" fill="#000000" />

  </g>
  </g>
  <rect x="40" y="3016" width="192" height="64" fill="transparent" stroke="#000000" stroke-width="1" stroke-miterlimit="10" />
  <text font-family="Ubuntu Sans">
    <tspan x="48" y="3040.92" font-size="18" font-weight="400" fill="#000000">production</tspan>
  </text>
  <rect x="40" y="3088" width="192" height="64" fill="transparent" stroke="#000000" stroke-width="1" stroke-miterlimit="10" />
  <text font-family="Ubuntu Sans">
    <tspan x="48" y="3112.92" font-size="18" font-weight="400" fill="#000000">development</tspan>
  </text>
  <g data-component-id="ou_nomis">
  <rect x="32" y="3168" width="208" height="224" fill="#F3F3F3" stroke="none" stroke-width="1" stroke-miterlimit="10" />
  <g class="dg-icon" transform="translate(184 3176)">
<path d="M37.0498 28.6875L37.376 29.6797L37.377 29.6836C37.4998 30.0609 37.7539 30.3765 38.0869 30.5723C38.4195 30.7676 38.8102 30.8314 39.1846 30.7539L40.1992 30.5449L40.9111 30.3984L41.2705 31.0303L42.3691 32.9629L42.7207 33.5811L42.252 34.1162L41.5654 34.8994L41.5645 34.8984C41.3077 35.1925 41.165 35.5752 41.165 35.9727C41.1651 36.3696 41.3082 36.751 41.5645 37.0449L42.252 37.8291L42.7207 38.3643L42.3691 38.9824L41.2705 40.915L40.9111 41.5469L40.1992 41.3994L39.1855 41.1914L39.1846 41.1904C38.8102 41.113 38.4196 41.1776 38.0869 41.373C37.7538 41.5689 37.4997 41.8843 37.377 42.2617L37.374 42.2695L37.0479 43.2451L36.8193 43.9277H33.166L32.9463 43.2246L32.6416 42.2441L32.5889 42.1055C32.4535 41.7898 32.2229 41.5268 31.9316 41.3555C31.5989 41.1599 31.2075 41.0963 30.833 41.1738L29.8193 41.3828L29.1133 41.5283L28.752 40.9053L27.6357 38.9814L27.2754 38.3604L27.749 37.8203L28.4355 37.0371L28.4375 37.0342C28.6975 36.7394 28.8437 36.3553 28.8438 35.9551C28.8438 35.5548 28.6975 35.1708 28.4375 34.876L28.4355 34.873L27.749 34.0898L27.2783 33.5527L27.6338 32.9326L28.7324 31.0176L29.0928 30.3896L29.8018 30.5361L30.8154 30.7451C31.1898 30.8225 31.5815 30.7588 31.9141 30.5635C32.247 30.3677 32.5012 30.0521 32.624 29.6748L32.626 29.6689L32.9521 28.6855L33.1797 28H36.8232L37.0498 28.6875ZM33.5752 29.9834L33.4912 30.207C33.2728 30.7164 32.8983 31.144 32.4209 31.4248L32.2119 31.5352C31.7147 31.7687 31.1542 31.8366 30.6133 31.7246L29.5996 31.5156L28.501 33.4307L29.1875 34.2139C29.6098 34.6926 29.8438 35.3128 29.8438 35.9551L29.833 36.1943C29.7826 36.7498 29.557 37.2774 29.1875 37.6963L28.501 38.4795L29.6172 40.4033L30.6299 40.1943C31.2479 40.0663 31.8917 40.1726 32.4375 40.4932C32.9834 40.8141 33.3952 41.3279 33.5928 41.9355L33.9014 42.9277H36.0996L36.4258 41.9521C36.6234 41.3447 37.0343 40.8316 37.5801 40.5107C38.126 40.19 38.7695 40.0839 39.3877 40.2119L40.4014 40.4209L41.5 38.4883L40.8135 37.7051C40.4482 37.2873 40.2257 36.7628 40.1758 36.2109L40.165 35.9727C40.165 35.3344 40.3959 34.7179 40.8135 34.2402L41.5 33.457L40.4014 31.5244L39.3877 31.7334C38.7695 31.8614 38.1259 31.7543 37.5801 31.4336C37.1026 31.1529 36.7282 30.7252 36.5098 30.2158L36.4258 29.9922L36.0996 29H33.9014L33.5752 29.9834ZM35.001 33.4639C36.3814 33.4642 37.501 34.5834 37.501 35.9639C37.5008 37.3442 36.3813 38.4635 35.001 38.4639C33.6203 38.4639 32.5011 37.3445 32.501 35.9639C32.501 34.5832 33.6203 33.4639 35.001 33.4639ZM35.001 34.4639C34.1725 34.4639 33.501 35.1354 33.501 35.9639C33.5011 36.7922 34.1726 37.4639 35.001 37.4639C35.829 37.4635 36.5008 36.792 36.501 35.9639C36.501 35.1357 35.8291 34.4642 35.001 34.4639Z" fill="#000000" />

<path d="M26.8809 3C27.0318 3 27.1766 3.06217 27.2803 3.17188L36.8496 13.2949C36.9459 13.3968 36.9999 13.5317 37 13.6719V26H36V14.3828H27.1172C26.538 14.3826 26.0684 13.9122 26.0684 13.333V4H10V41H26.4951L27.0225 41.9072L27.0215 41.9082L27.0752 42H9.54883C9.28354 41.9999 9.06185 41.8117 9.01074 41.5615L9 41.4512V3.54883C9.0001 3.24576 9.24576 3.0001 9.54883 3H26.8809ZM23.8232 29.9316H15.5879V28.9316H23.8232V29.9316ZM30.4111 24.9902H15.5879V23.9902H30.4111V24.9902ZM30.4111 20.0488H15.5879V19.0488H30.4111V20.0488ZM27.0684 13.333C27.0684 13.3599 27.0903 13.3826 27.1172 13.3828H35.5566L27.0684 4.40234V13.333Z" fill="#000000" />

  </g>
  </g>
  <rect x="40" y="3176" width="192" height="64" fill="transparent" stroke="#000000" stroke-width="1" stroke-miterlimit="10" />
  <text font-family="Ubuntu Sans">
    <tspan x="48" y="3200.92" font-size="18" font-weight="400" fill="#000000">production</tspan>
  </text>
  <rect x="40" y="3248" width="192" height="64" fill="transparent" stroke="#000000" stroke-width="1" stroke-miterlimit="10" />
  <text font-family="Ubuntu Sans">
    <tspan x="48" y="3272.92" font-size="18" font-weight="400" fill="#000000">preproduction</tspan>
  </text>
  <rect x="40" y="3320" width="192" height="64" fill="transparent" stroke="#000000" stroke-width="1" stroke-miterlimit="10" />
  <text font-family="Ubuntu Sans">
    <tspan x="48" y="3344.92" font-size="18" font-weight="400" fill="#000000">test</tspan>
  </text>
  <g data-component-id="ou_oasys">
  <rect x="32" y="3400" width="208" height="152" fill="#F3F3F3" stroke="none" stroke-width="1" stroke-miterlimit="10" />
  <g class="dg-icon" transform="translate(184 3408)">
<path d="M37.0498 28.6875L37.376 29.6797L37.377 29.6836C37.4998 30.0609 37.7539 30.3765 38.0869 30.5723C38.4195 30.7676 38.8102 30.8314 39.1846 30.7539L40.1992 30.5449L40.9111 30.3984L41.2705 31.0303L42.3691 32.9629L42.7207 33.5811L42.252 34.1162L41.5654 34.8994L41.5645 34.8984C41.3077 35.1925 41.165 35.5752 41.165 35.9727C41.1651 36.3696 41.3082 36.751 41.5645 37.0449L42.252 37.8291L42.7207 38.3643L42.3691 38.9824L41.2705 40.915L40.9111 41.5469L40.1992 41.3994L39.1855 41.1914L39.1846 41.1904C38.8102 41.113 38.4196 41.1776 38.0869 41.373C37.7538 41.5689 37.4997 41.8843 37.377 42.2617L37.374 42.2695L37.0479 43.2451L36.8193 43.9277H33.166L32.9463 43.2246L32.6416 42.2441L32.5889 42.1055C32.4535 41.7898 32.2229 41.5268 31.9316 41.3555C31.5989 41.1599 31.2075 41.0963 30.833 41.1738L29.8193 41.3828L29.1133 41.5283L28.752 40.9053L27.6357 38.9814L27.2754 38.3604L27.749 37.8203L28.4355 37.0371L28.4375 37.0342C28.6975 36.7394 28.8437 36.3553 28.8438 35.9551C28.8438 35.5548 28.6975 35.1708 28.4375 34.876L28.4355 34.873L27.749 34.0898L27.2783 33.5527L27.6338 32.9326L28.7324 31.0176L29.0928 30.3896L29.8018 30.5361L30.8154 30.7451C31.1898 30.8225 31.5815 30.7588 31.9141 30.5635C32.247 30.3677 32.5012 30.0521 32.624 29.6748L32.626 29.6689L32.9521 28.6855L33.1797 28H36.8232L37.0498 28.6875ZM33.5752 29.9834L33.4912 30.207C33.2728 30.7164 32.8983 31.144 32.4209 31.4248L32.2119 31.5352C31.7147 31.7687 31.1542 31.8366 30.6133 31.7246L29.5996 31.5156L28.501 33.4307L29.1875 34.2139C29.6098 34.6926 29.8438 35.3128 29.8438 35.9551L29.833 36.1943C29.7826 36.7498 29.557 37.2774 29.1875 37.6963L28.501 38.4795L29.6172 40.4033L30.6299 40.1943C31.2479 40.0663 31.8917 40.1726 32.4375 40.4932C32.9834 40.8141 33.3952 41.3279 33.5928 41.9355L33.9014 42.9277H36.0996L36.4258 41.9521C36.6234 41.3447 37.0343 40.8316 37.5801 40.5107C38.126 40.19 38.7695 40.0839 39.3877 40.2119L40.4014 40.4209L41.5 38.4883L40.8135 37.7051C40.4482 37.2873 40.2257 36.7628 40.1758 36.2109L40.165 35.9727C40.165 35.3344 40.3959 34.7179 40.8135 34.2402L41.5 33.457L40.4014 31.5244L39.3877 31.7334C38.7695 31.8614 38.1259 31.7543 37.5801 31.4336C37.1026 31.1529 36.7282 30.7252 36.5098 30.2158L36.4258 29.9922L36.0996 29H33.9014L33.5752 29.9834ZM35.001 33.4639C36.3814 33.4642 37.501 34.5834 37.501 35.9639C37.5008 37.3442 36.3813 38.4635 35.001 38.4639C33.6203 38.4639 32.5011 37.3445 32.501 35.9639C32.501 34.5832 33.6203 33.4639 35.001 33.4639ZM35.001 34.4639C34.1725 34.4639 33.501 35.1354 33.501 35.9639C33.5011 36.7922 34.1726 37.4639 35.001 37.4639C35.829 37.4635 36.5008 36.792 36.501 35.9639C36.501 35.1357 35.8291 34.4642 35.001 34.4639Z" fill="#000000" />

<path d="M26.8809 3C27.0318 3 27.1766 3.06217 27.2803 3.17188L36.8496 13.2949C36.9459 13.3968 36.9999 13.5317 37 13.6719V26H36V14.3828H27.1172C26.538 14.3826 26.0684 13.9122 26.0684 13.333V4H10V41H26.4951L27.0225 41.9072L27.0215 41.9082L27.0752 42H9.54883C9.28354 41.9999 9.06185 41.8117 9.01074 41.5615L9 41.4512V3.54883C9.0001 3.24576 9.24576 3.0001 9.54883 3H26.8809ZM23.8232 29.9316H15.5879V28.9316H23.8232V29.9316ZM30.4111 24.9902H15.5879V23.9902H30.4111V24.9902ZM30.4111 20.0488H15.5879V19.0488H30.4111V20.0488ZM27.0684 13.333C27.0684 13.3599 27.0903 13.3826 27.1172 13.3828H35.5566L27.0684 4.40234V13.333Z" fill="#000000" />

  </g>
  </g>
  <rect x="40" y="3408" width="192" height="64" fill="transparent" stroke="#000000" stroke-width="1" stroke-miterlimit="10" />
  <text font-family="Ubuntu Sans">
    <tspan x="48" y="3432.92" font-size="18" font-weight="400" fill="#000000">production</tspan>
  </text>
  <rect x="40" y="3480" width="192" height="64" fill="transparent" stroke="#000000" stroke-width="1" stroke-miterlimit="10" />
  <text font-family="Ubuntu Sans">
    <tspan x="48" y="3504.92" font-size="18" font-weight="400" fill="#000000">test</tspan>
  </text>
  <g data-component-id="ou_ccr">
  <rect x="32" y="3560" width="208" height="152" fill="#F3F3F3" stroke="none" stroke-width="1" stroke-miterlimit="10" />
  <g class="dg-icon" transform="translate(184 3568)">
<path d="M37.0498 28.6875L37.376 29.6797L37.377 29.6836C37.4998 30.0609 37.7539 30.3765 38.0869 30.5723C38.4195 30.7676 38.8102 30.8314 39.1846 30.7539L40.1992 30.5449L40.9111 30.3984L41.2705 31.0303L42.3691 32.9629L42.7207 33.5811L42.252 34.1162L41.5654 34.8994L41.5645 34.8984C41.3077 35.1925 41.165 35.5752 41.165 35.9727C41.1651 36.3696 41.3082 36.751 41.5645 37.0449L42.252 37.8291L42.7207 38.3643L42.3691 38.9824L41.2705 40.915L40.9111 41.5469L40.1992 41.3994L39.1855 41.1914L39.1846 41.1904C38.8102 41.113 38.4196 41.1776 38.0869 41.373C37.7538 41.5689 37.4997 41.8843 37.377 42.2617L37.374 42.2695L37.0479 43.2451L36.8193 43.9277H33.166L32.9463 43.2246L32.6416 42.2441L32.5889 42.1055C32.4535 41.7898 32.2229 41.5268 31.9316 41.3555C31.5989 41.1599 31.2075 41.0963 30.833 41.1738L29.8193 41.3828L29.1133 41.5283L28.752 40.9053L27.6357 38.9814L27.2754 38.3604L27.749 37.8203L28.4355 37.0371L28.4375 37.0342C28.6975 36.7394 28.8437 36.3553 28.8438 35.9551C28.8438 35.5548 28.6975 35.1708 28.4375 34.876L28.4355 34.873L27.749 34.0898L27.2783 33.5527L27.6338 32.9326L28.7324 31.0176L29.0928 30.3896L29.8018 30.5361L30.8154 30.7451C31.1898 30.8225 31.5815 30.7588 31.9141 30.5635C32.247 30.3677 32.5012 30.0521 32.624 29.6748L32.626 29.6689L32.9521 28.6855L33.1797 28H36.8232L37.0498 28.6875ZM33.5752 29.9834L33.4912 30.207C33.2728 30.7164 32.8983 31.144 32.4209 31.4248L32.2119 31.5352C31.7147 31.7687 31.1542 31.8366 30.6133 31.7246L29.5996 31.5156L28.501 33.4307L29.1875 34.2139C29.6098 34.6926 29.8438 35.3128 29.8438 35.9551L29.833 36.1943C29.7826 36.7498 29.557 37.2774 29.1875 37.6963L28.501 38.4795L29.6172 40.4033L30.6299 40.1943C31.2479 40.0663 31.8917 40.1726 32.4375 40.4932C32.9834 40.8141 33.3952 41.3279 33.5928 41.9355L33.9014 42.9277H36.0996L36.4258 41.9521C36.6234 41.3447 37.0343 40.8316 37.5801 40.5107C38.126 40.19 38.7695 40.0839 39.3877 40.2119L40.4014 40.4209L41.5 38.4883L40.8135 37.7051C40.4482 37.2873 40.2257 36.7628 40.1758 36.2109L40.165 35.9727C40.165 35.3344 40.3959 34.7179 40.8135 34.2402L41.5 33.457L40.4014 31.5244L39.3877 31.7334C38.7695 31.8614 38.1259 31.7543 37.5801 31.4336C37.1026 31.1529 36.7282 30.7252 36.5098 30.2158L36.4258 29.9922L36.0996 29H33.9014L33.5752 29.9834ZM35.001 33.4639C36.3814 33.4642 37.501 34.5834 37.501 35.9639C37.5008 37.3442 36.3813 38.4635 35.001 38.4639C33.6203 38.4639 32.5011 37.3445 32.501 35.9639C32.501 34.5832 33.6203 33.4639 35.001 33.4639ZM35.001 34.4639C34.1725 34.4639 33.501 35.1354 33.501 35.9639C33.5011 36.7922 34.1726 37.4639 35.001 37.4639C35.829 37.4635 36.5008 36.792 36.501 35.9639C36.501 35.1357 35.8291 34.4642 35.001 34.4639Z" fill="#000000" />

<path d="M26.8809 3C27.0318 3 27.1766 3.06217 27.2803 3.17188L36.8496 13.2949C36.9459 13.3968 36.9999 13.5317 37 13.6719V26H36V14.3828H27.1172C26.538 14.3826 26.0684 13.9122 26.0684 13.333V4H10V41H26.4951L27.0225 41.9072L27.0215 41.9082L27.0752 42H9.54883C9.28354 41.9999 9.06185 41.8117 9.01074 41.5615L9 41.4512V3.54883C9.0001 3.24576 9.24576 3.0001 9.54883 3H26.8809ZM23.8232 29.9316H15.5879V28.9316H23.8232V29.9316ZM30.4111 24.9902H15.5879V23.9902H30.4111V24.9902ZM30.4111 20.0488H15.5879V19.0488H30.4111V20.0488ZM27.0684 13.333C27.0684 13.3599 27.0903 13.3826 27.1172 13.3828H35.5566L27.0684 4.40234V13.333Z" fill="#000000" />

  </g>
  </g>
  <rect x="40" y="3568" width="192" height="64" fill="transparent" stroke="#000000" stroke-width="1" stroke-miterlimit="10" />
  <text font-family="Ubuntu Sans">
    <tspan x="48" y="3592.92" font-size="18" font-weight="400" fill="#000000">production</tspan>
  </text>
  <rect x="40" y="3640" width="192" height="64" fill="transparent" stroke="#000000" stroke-width="1" stroke-miterlimit="10" />
  <text font-family="Ubuntu Sans">
    <tspan x="48" y="3664.92" font-size="18" font-weight="400" fill="#000000">development</tspan>
  </text>
  <g data-component-id="__ann_2268206474576__">
  <rect x="24" y="3744" width="208" height="720" fill="transparent" stroke="none" stroke-width="1" stroke-miterlimit="10" pointer-events="none" />
  </g>
  <g data-component-id="__col_1__">
  <rect x="272" y="24" width="224" height="680" fill="transparent" stroke="none" stroke-width="1" stroke-miterlimit="10" pointer-events="none" />
  </g>
  <g data-component-id="core">
  <rect x="272" y="24" width="224" height="328" fill="#F3F3F3" stroke="none" stroke-width="1" stroke-miterlimit="10" />
  <g class="dg-icon" transform="translate(440 32)">
<path fill-rule="evenodd" clip-rule="evenodd" d="M27.1855 10C32.1958 10 36.2166 13.9999 36.2168 18.9229L36.2109 19.1426C36.1874 19.6524 36.0941 20.1474 36.0928 20.1543C41.0412 20.2158 45 24.1541 45 29.0771L44.9883 29.5361C44.7475 34.2463 40.8223 38 35.9688 38H12.0312L11.5645 37.9883C6.9281 37.7568 3.24476 34.0945 3.01172 29.5361L3 29.0771C3.00003 24.9541 5.78376 21.3518 9.86621 20.4287V18.9844C9.86638 15.9076 12.4024 13.4463 15.4951 13.4463L15.749 13.4521C17.0168 13.5096 18.2202 13.996 19.2061 14.8613C20.7525 11.9076 23.8454 10 27.1855 10ZM27.1855 11C24.2244 11 21.4689 12.6948 20.0918 15.3252L19.502 16.4521L18.5469 15.6133C17.674 14.8471 16.608 14.4464 15.4951 14.4463C12.9354 14.4463 10.8664 16.479 10.8662 18.9844V21.2275L10.0869 21.4033C6.47196 22.2207 4.00003 25.4093 4 29.0771C4.00012 33.4385 7.56395 37 12.0312 37H35.9688C40.4361 37 43.9999 33.4385 44 29.0771C44 24.7135 40.4931 21.2082 36.0801 21.1533L34.8877 21.1387L35.1104 19.9668V19.9648C35.1109 19.9617 35.1119 19.9557 35.1133 19.9482C35.116 19.9332 35.121 19.91 35.126 19.8799C35.1361 19.8188 35.1493 19.7305 35.1631 19.626C35.1914 19.4107 35.2168 19.151 35.2168 18.9229C35.2166 14.5615 31.6528 11 27.1855 11Z" fill="#000000" />

  </g>
  </g>
  <g data-component-id="logging">
  <rect x="280" y="32" width="208" height="152" fill="#F3F3F3" stroke="none" stroke-width="1" stroke-miterlimit="10" />
  <g class="dg-icon" transform="translate(432 40)">
<path d="M24.8232 33.0488H16.5879V31.9512H24.8232V33.0488Z" fill="#000000" />

<path d="M31.4111 28.1074H16.5879V27.0098H31.4111V28.1074Z" fill="#000000" />

<path d="M31.4111 23.166H16.5879V22.0684H31.4111V23.166Z" fill="#000000" />

<path fill-rule="evenodd" clip-rule="evenodd" d="M27.8809 4.5C28.0318 4.5 28.1766 4.56217 28.2803 4.67188L37.8496 14.7949C37.9459 14.8968 37.9999 15.0317 38 15.1719V42.9512L37.9893 43.0615C37.9454 43.2761 37.7761 43.4454 37.5615 43.4893L37.4512 43.5H10.5488C10.2835 43.4999 10.0619 43.3117 10.0107 43.0615L10 42.9512V5.04883C10.0001 4.74576 10.2458 4.5001 10.5488 4.5H27.8809ZM11.0977 42.4023H36.9023V16.0293H28.1172C27.511 16.029 27.0195 15.5369 27.0195 14.9307V5.59766H11.0977V42.4023ZM28.1172 14.9307H36.4668L28.1172 6.09766V14.9307Z" fill="#000000" />

  </g>
  </g>
  <rect x="288" y="40" width="192" height="64" fill="transparent" stroke="#000000" stroke-width="1" stroke-miterlimit="10" />
  <text font-family="Ubuntu Sans">
    <tspan x="296" y="64.92" font-size="18" font-weight="400" fill="#000000">Subnets: public,</tspan>
    <tspan x="296" y="88.92" font-size="18" font-weight="400" fill="#000000">non-live, live-data</tspan>
  </text>
  <rect x="288" y="112" width="192" height="64" fill="transparent" stroke="#000000" stroke-width="1" stroke-miterlimit="10" />
  <text font-family="Ubuntu Sans">
    <tspan x="296" y="136.92" font-size="18" font-weight="400" fill="#000000">TGW</tspan>
  </text>
  <g data-component-id="network_svc">
  <rect x="280" y="192" width="208" height="152" fill="#F3F3F3" stroke="none" stroke-width="1" stroke-miterlimit="10" />
  <g class="dg-icon" transform="translate(432 200)">
<path d="M17.125 36C17.6773 36 18.125 36.4477 18.125 37C18.125 37.5523 17.6773 38 17.125 38C16.5727 38 16.125 37.5523 16.125 37C16.125 36.4477 16.5727 36 17.125 36Z" fill="#000000" />

<path d="M37.125 36C37.6773 36 38.125 36.4477 38.125 37C38.125 37.5523 37.6773 38 37.125 38C36.5727 38 36.125 37.5523 36.125 37C36.125 36.4477 36.5727 36 37.125 36Z" fill="#000000" />

<path d="M24.5 26.5H34.5C35.6046 26.5 36.5 27.3954 36.5 28.5V30.5996H35.5V28.5C35.5 27.9477 35.0523 27.5 34.5 27.5H13.5C12.9477 27.5 12.5 27.9477 12.5 28.5V30.5996H11.5V28.5C11.5 27.3954 12.3954 26.5 13.5 26.5H23.5V23.5H24.5V26.5Z" fill="#000000" />

<path fill-rule="evenodd" clip-rule="evenodd" d="M20.5 32C21.3284 32 22 32.6716 22 33.5V40.5C22 41.3284 21.3284 42 20.5 42H7.5C6.72334 42 6.08461 41.4097 6.00781 40.6533L6 40.5V33.5C6 32.6716 6.67157 32 7.5 32H20.5ZM7.5 33C7.22386 33 7 33.2239 7 33.5V40.5C7 40.7761 7.22386 41 7.5 41H20.5C20.7761 41 21 40.7761 21 40.5V33.5C21 33.2239 20.7761 33 20.5 33H7.5Z" fill="#000000" />

<path fill-rule="evenodd" clip-rule="evenodd" d="M40.5 32C41.3284 32 42 32.6716 42 33.5V40.5C42 41.3284 41.3284 42 40.5 42H27.5C26.7233 42 26.0846 41.4097 26.0078 40.6533L26 40.5V33.5C26 32.6716 26.6716 32 27.5 32H40.5ZM27.5 33C27.2239 33 27 33.2239 27 33.5V40.5C27 40.7761 27.2239 41 27.5 41H40.5C40.7761 41 41 40.7761 41 40.5V33.5C41 33.2239 40.7761 33 40.5 33H27.5Z" fill="#000000" />

<path fill-rule="evenodd" clip-rule="evenodd" d="M37.6533 6.00781C38.4097 6.08461 39 6.72334 39 7.5V20.5C39 21.2767 38.4097 21.9154 37.6533 21.9922L37.5 22H10.5C9.67157 22 9 21.3284 9 20.5V7.5C9 6.67157 9.67157 6 10.5 6H37.5L37.6533 6.00781ZM10.5 7C10.2239 7 10 7.22386 10 7.5V20.5C10 20.7761 10.2239 21 10.5 21H37.5C37.7761 21 38 20.7761 38 20.5V7.5C38 7.22386 37.7761 7 37.5 7H10.5Z" fill="#000000" />

  </g>
  </g>
  <rect x="288" y="200" width="192" height="64" fill="transparent" stroke="#000000" stroke-width="1" stroke-miterlimit="10" />
  <text font-family="Ubuntu Sans">
    <tspan x="296" y="224.92" font-size="18" font-weight="400" fill="#000000">VPC</tspan>
  </text>
  <g class="dg-icon" transform="translate(424 208)">
<path d="M20.0322 40C20.0118 40.1638 20 40.3306 20 40.5C20 40.6694 20.0118 40.8362 20.0322 41H9V40H20.0322Z" fill="#000000" />

<path d="M39 40V41H27.9678C27.9882 40.8362 28 40.6694 28 40.5C28 40.3306 27.9882 40.1638 27.9678 40H39Z" fill="#000000" />

<path d="M24.5 36.5312C24.3362 36.5108 24.1693 36.5 24 36.5C23.8307 36.5 23.6638 36.5108 23.5 36.5312V32H24.5V36.5312Z" fill="#000000" />

<path fill-rule="evenodd" clip-rule="evenodd" d="M24 38C25.3807 38 26.5 39.1193 26.5 40.5C26.5 41.8807 25.3807 43 24 43C22.6193 43 21.5 41.8807 21.5 40.5C21.5 39.1193 22.6193 38 24 38ZM24 39C23.1716 39 22.5 39.6716 22.5 40.5C22.5 41.3284 23.1716 42 24 42C24.8284 42 25.5 41.3284 25.5 40.5C25.5 39.6716 24.8284 39 24 39Z" fill="#000000" />

<path fill-rule="evenodd" clip-rule="evenodd" d="M24 5.5C30.0019 5.5 35.088 9.41707 36.8438 14.834C36.8885 14.9047 36.9156 14.9865 36.9199 15.0752C37.2967 16.3172 37.5 17.6349 37.5 19C37.5 20.3651 37.2967 21.6828 36.9199 22.9248C36.9155 23.0132 36.8883 23.0945 36.8438 23.165C35.0882 28.5824 30.0022 32.5 24 32.5C17.9976 32.5 12.9107 28.5826 11.1553 23.165C11.1115 23.0954 11.0849 23.0148 11.0801 22.9277C10.7027 21.6849 10.5 20.3661 10.5 19C10.5 17.6336 10.7026 16.3144 11.0801 15.0713C11.085 14.9843 11.1114 14.9035 11.1553 14.834C12.911 9.41693 17.998 5.5 24 5.5ZM12.2988 23.3994C13.8797 27.6019 17.657 30.7276 22.2334 31.375C19.5017 29.4002 17.5593 26.576 16.6689 23.3994H12.2988ZM31.3311 23.3994C30.4406 26.5762 28.4977 29.4001 25.7656 31.375C30.3425 30.7279 34.1202 27.6022 35.7012 23.3994H31.3311ZM17.7109 23.3994C18.5969 26.3285 20.4466 28.9195 23.0215 30.7109L23.499 31.043V23.3994H17.7109ZM24.499 31.043L24.9775 30.7109C27.5525 28.9195 29.4021 26.3286 30.2881 23.3994H24.499V31.043ZM31.418 15.5996C31.7202 16.8376 31.8779 18.1184 31.8779 19.418C31.8779 20.4298 31.7727 21.4278 31.5723 22.3994H36.0312C36.3361 21.3185 36.5 20.1784 36.5 19C36.5 17.8213 36.3362 16.6808 36.0312 15.5996H31.418ZM24.499 22.3994H30.5508C30.766 21.4303 30.8779 20.4314 30.8779 19.418C30.8779 18.1159 30.7102 16.8338 30.3877 15.5996H24.499V22.3994ZM17.6133 15.5996C17.2908 16.8339 17.1211 18.1159 17.1211 19.418C17.1211 20.4314 17.234 21.4303 17.4492 22.3994H23.499V15.5996H17.6133ZM11.9688 15.5996C11.6638 16.6808 11.5 17.8213 11.5 19C11.5 20.1784 11.664 21.3185 11.9688 22.3994H16.4277C16.2273 21.4278 16.1211 20.4298 16.1211 19.418C16.1211 18.1183 16.2799 16.8376 16.582 15.5996H11.9688ZM25.9004 6.89453C28.3956 8.91296 30.2005 11.6047 31.1396 14.5996H35.7012C34.0927 10.3245 30.2108 7.16335 25.5273 6.59277L25.9004 6.89453ZM24.499 14.5996H30.0879C29.1827 11.9111 27.5283 9.49843 25.2715 7.67285L24.499 7.04688V14.5996ZM22.7266 7.67285C20.4701 9.49843 18.816 11.9112 17.9111 14.5996H23.499V7.04688L22.7266 7.67285ZM22.4697 6.59277C17.7876 7.16429 13.907 10.3253 12.2988 14.5996H16.8594C17.7982 11.6048 19.6026 8.91297 22.0977 6.89453L22.4697 6.59277Z" fill="#000000" />

  </g>
  <rect x="288" y="272" width="192" height="64" fill="transparent" stroke="#000000" stroke-width="1" stroke-miterlimit="10" />
  <text font-family="Ubuntu Sans">
    <tspan x="296" y="296.92" font-size="18" font-weight="400" fill="#000000">NAT gateway</tspan>
  </text>
  <g class="dg-icon" transform="translate(424 280)">
<path fill-rule="evenodd" clip-rule="evenodd" d="M38 28C39.3807 28 40.5 29.1193 40.5 30.5C40.5 31.8807 39.3807 33 38 33C36.6193 33 35.5 31.8807 35.5 30.5C35.5 29.1193 36.6193 28 38 28ZM38 29C37.1716 29 36.5 29.6716 36.5 30.5C36.5 31.3284 37.1716 32 38 32C38.8284 32 39.5 31.3284 39.5 30.5C39.5 29.6716 38.8284 29 38 29Z" fill="#000000" />

<path fill-rule="evenodd" clip-rule="evenodd" d="M24 28C25.3807 28 26.5 29.1193 26.5 30.5C26.5 31.8807 25.3807 33 24 33C22.6193 33 21.5 31.8807 21.5 30.5C21.5 29.1193 22.6193 28 24 28ZM24 29C23.1716 29 22.5 29.6716 22.5 30.5C22.5 31.3284 23.1716 32 24 32C24.8284 32 25.5 31.3284 25.5 30.5C25.5 29.6716 24.8284 29 24 29Z" fill="#000000" />

<path fill-rule="evenodd" clip-rule="evenodd" d="M31 28C32.3807 28 33.5 29.1193 33.5 30.5C33.5 31.8807 32.3807 33 31 33C29.6193 33 28.5 31.8807 28.5 30.5C28.5 29.1193 29.6193 28 31 28ZM31 29C30.1716 29 29.5 29.6716 29.5 30.5C29.5 31.3284 30.1716 32 31 32C31.8284 32 32.5 31.3284 32.5 30.5C32.5 29.6716 31.8284 29 31 29Z" fill="#000000" />

<path fill-rule="evenodd" clip-rule="evenodd" d="M9.5 11.5H17.5V3H18.5V11.5H26.5V3H27.5V11.5H43.5C44.6046 11.5 45.5 12.3954 45.5 13.5V36C45.5 37.1046 44.6046 38 43.5 38H39.5V46.5H38.5V38H18.5V46.5H17.5V38H14V46.5H13V38H9.5V46.5H8.5V38H4.5C3.39543 38 2.5 37.1046 2.5 36V13.5C2.5 12.3954 3.39543 11.5 4.5 11.5H8.5V3H9.5V11.5ZM4.5 12.5C3.94772 12.5 3.5 12.9477 3.5 13.5V36C3.5 36.5523 3.94772 37 4.5 37H43.5C44.0523 37 44.5 36.5523 44.5 36V13.5C44.5 12.9477 44.0523 12.5 43.5 12.5H4.5Z" fill="#000000" />

  </g>
  <g data-component-id="ca">
  <rect x="272" y="376" width="208" height="328" fill="transparent" stroke="#000000" stroke-width="1" stroke-miterlimit="10" />
  <text font-family="Ubuntu Sans">
    <tspan x="280" y="400.92" font-size="18" font-weight="400" fill="#000000">Certificate</tspan>
    <tspan x="280" y="424.92" font-size="18" font-weight="400" fill="#000000">Authority</tspan>
  </text>
  <g class="dg-icon" transform="translate(424 384)">
<path d="M7.5 39.5C7.5 40.0523 7.94772 40.5 8.5 40.5H15V41.5H8.5C7.39543 41.5 6.5 40.6046 6.5 39.5V33H7.5V39.5Z" fill="#000000" />

<path d="M41.5 39.5C41.5 40.6046 40.6046 41.5 39.5 41.5H33V40.5H39.5C40.0523 40.5 40.5 40.0523 40.5 39.5V33H41.5V39.5Z" fill="#000000" />

<path d="M15 7.5H8.5C7.94772 7.5 7.5 7.94772 7.5 8.5V15H6.5V8.5C6.5 7.39543 7.39543 6.5 8.5 6.5H15V7.5Z" fill="#000000" />

<path d="M39.5 6.5C40.6046 6.5 41.5 7.39543 41.5 8.5V15H40.5V8.5C40.5 7.94772 40.0523 7.5 39.5 7.5H33V6.5H39.5Z" fill="#000000" />

<path fill-rule="evenodd" clip-rule="evenodd" d="M15.7568 17.9023C18.3497 17.9023 20.4818 19.8755 20.7324 22.4023H37.1045V28.6416H36.1045V23.4023H32.4678V28.6416H31.4678V23.4023H20.7314C20.4804 25.9288 18.3493 27.9023 15.7568 27.9023C13.0817 27.9023 10.8976 25.801 10.7637 23.1592L10.7568 22.9023C10.7568 20.1409 12.9954 17.9024 15.7568 17.9023ZM15.7568 18.9023C13.5477 18.9024 11.7568 20.6932 11.7568 22.9023C11.7571 25.1113 13.5479 26.9023 15.7568 26.9023C17.9658 26.9023 19.7566 25.1113 19.7568 22.9023C19.7568 20.6932 17.966 18.9023 15.7568 18.9023Z" fill="#000000" />

  </g>
  </g>
  <g data-component-id="__col_2__">
  <rect x="520" y="24" width="208" height="64" fill="transparent" stroke="none" stroke-width="1" stroke-miterlimit="10" pointer-events="none" />
  </g>
  <g data-component-id="tgw">
  <rect x="520" y="24" width="208" height="64" fill="transparent" stroke="#000000" stroke-width="1" stroke-miterlimit="10" />
  <text font-family="Ubuntu Sans">
    <tspan x="528" y="48.92" font-size="18" font-weight="400" fill="#000000">Transit Gateway</tspan>
    <tspan x="528" y="72.92" font-size="18" font-weight="400" fill="#000000">live/non-live RT</tspan>
  </text>
  <g class="dg-icon" transform="translate(672 32)">
<path fill-rule="evenodd" clip-rule="evenodd" d="M38 28C39.3807 28 40.5 29.1193 40.5 30.5C40.5 31.8807 39.3807 33 38 33C36.6193 33 35.5 31.8807 35.5 30.5C35.5 29.1193 36.6193 28 38 28ZM38 29C37.1716 29 36.5 29.6716 36.5 30.5C36.5 31.3284 37.1716 32 38 32C38.8284 32 39.5 31.3284 39.5 30.5C39.5 29.6716 38.8284 29 38 29Z" fill="#000000" />

<path fill-rule="evenodd" clip-rule="evenodd" d="M24 28C25.3807 28 26.5 29.1193 26.5 30.5C26.5 31.8807 25.3807 33 24 33C22.6193 33 21.5 31.8807 21.5 30.5C21.5 29.1193 22.6193 28 24 28ZM24 29C23.1716 29 22.5 29.6716 22.5 30.5C22.5 31.3284 23.1716 32 24 32C24.8284 32 25.5 31.3284 25.5 30.5C25.5 29.6716 24.8284 29 24 29Z" fill="#000000" />

<path fill-rule="evenodd" clip-rule="evenodd" d="M31 28C32.3807 28 33.5 29.1193 33.5 30.5C33.5 31.8807 32.3807 33 31 33C29.6193 33 28.5 31.8807 28.5 30.5C28.5 29.1193 29.6193 28 31 28ZM31 29C30.1716 29 29.5 29.6716 29.5 30.5C29.5 31.3284 30.1716 32 31 32C31.8284 32 32.5 31.3284 32.5 30.5C32.5 29.6716 31.8284 29 31 29Z" fill="#000000" />

<path fill-rule="evenodd" clip-rule="evenodd" d="M9.5 11.5H17.5V3H18.5V11.5H26.5V3H27.5V11.5H43.5C44.6046 11.5 45.5 12.3954 45.5 13.5V36C45.5 37.1046 44.6046 38 43.5 38H39.5V46.5H38.5V38H18.5V46.5H17.5V38H14V46.5H13V38H9.5V46.5H8.5V38H4.5C3.39543 38 2.5 37.1046 2.5 36V13.5C2.5 12.3954 3.39543 11.5 4.5 11.5H8.5V3H9.5V11.5ZM4.5 12.5C3.94772 12.5 3.5 12.9477 3.5 13.5V36C3.5 36.5523 3.94772 37 4.5 37H43.5C44.0523 37 44.5 36.5523 44.5 36V13.5C44.5 12.9477 44.0523 12.5 43.5 12.5H4.5Z" fill="#000000" />

  </g>
  </g>
  <g data-component-id="__col_3__">
  <rect x="752" y="24" width="208" height="328" fill="transparent" stroke="none" stroke-width="1" stroke-miterlimit="10" pointer-events="none" />
  </g>
  <g data-component-id="security">
  <rect x="752" y="24" width="208" height="152" fill="#F3F3F3" stroke="none" stroke-width="1" stroke-miterlimit="10" />
  <g class="dg-icon" transform="translate(904 32)">
<path fill-rule="evenodd" clip-rule="evenodd" d="M40 9.7002V23.29L39.9951 23.7402C39.9038 28.3767 38.3973 32.605 35.4756 36.4248L35.1904 36.79C32.2197 40.524 28.4898 42.9275 24 44C19.5115 42.9263 15.7815 40.5222 12.8096 36.7881L12.5244 36.4229C9.60145 32.603 8.09407 28.3755 8.00391 23.7402L8 23.29V9.7002L24 4L40 9.7002ZM9 10.4043V23.29C8.99873 27.8749 10.43 32.0409 13.3184 35.8154C16.1513 39.5174 19.705 41.8884 24 42.9688C28.2964 41.8896 31.8501 39.5193 34.6816 35.8174C37.5687 32.0428 39 27.8764 39 23.29V10.4043L24 5.06152L9 10.4043Z" fill="#000000" />

<path d="M32.334 15.7502L32.7363 16.0461L21.3604 31.5305L15.3018 25.093L16.0312 24.4075L21.2646 29.97L31.9307 15.4543L32.334 15.7502Z" fill="#000000" />

  </g>
  </g>
  <rect x="760" y="32" width="192" height="64" fill="transparent" stroke="#000000" stroke-width="1" stroke-miterlimit="10" />
  <text font-family="Ubuntu Sans">
    <tspan x="768" y="56.92" font-size="18" font-weight="400" fill="#000000">Subnets: public,</tspan>
    <tspan x="768" y="80.92" font-size="18" font-weight="400" fill="#000000">non-live, live-data</tspan>
  </text>
  <rect x="760" y="104" width="192" height="64" fill="transparent" stroke="#000000" stroke-width="1" stroke-miterlimit="10" />
  <text font-family="Ubuntu Sans">
    <tspan x="768" y="128.92" font-size="18" font-weight="400" fill="#000000">TGW</tspan>
  </text>
  <g data-component-id="__ann_2268206467408__">
  <rect x="752" y="200" width="208" height="152" fill="transparent" stroke="none" stroke-width="1" stroke-miterlimit="10" pointer-events="none" />
  </g>
  <g data-component-id="__col_4__">
  <rect x="984" y="24" width="208" height="328" fill="transparent" stroke="none" stroke-width="1" stroke-miterlimit="10" pointer-events="none" />
  </g>
  <g data-component-id="shared_svc">
  <rect x="984" y="24" width="208" height="152" fill="#F3F3F3" stroke="none" stroke-width="1" stroke-miterlimit="10" />
  <g class="dg-icon" transform="translate(1136 32)">
<path fill-rule="evenodd" clip-rule="evenodd" d="M37.8057 26.2093C38.8848 25.1407 40.5981 25.0631 41.7695 26.0296C43.0983 27.126 43.215 29.1232 42.0137 30.3616C39.8714 32.5697 37.2736 35.2183 36.4365 35.9358C34.5768 37.5298 32.9118 38.7545 31.0693 39.5755C29.2187 40.4 27.2146 40.806 24.6875 40.806C19.7185 40.8057 16.3141 38.2885 14.6396 36.6771H11.833V39.7776H5.5V25.553H11.833V25.556H18.417C19.9334 25.556 21.1399 25.8224 22.1289 26.3235C23.0375 26.7841 23.7343 27.4299 24.3125 28.1946H30.7783C32.1357 28.1947 33.2698 29.1365 33.5713 30.4017L37.8057 26.2093ZM41.1338 26.8001C40.3584 26.1604 39.2241 26.2121 38.5098 26.9192L33.5469 31.8333C33.212 33.0498 32.1012 33.9446 30.7783 33.9446H24.0605V32.9446H30.7783C31.8137 32.9445 32.6532 32.105 32.6533 31.0696C32.6533 30.0342 31.8137 29.1947 30.7783 29.1946H23.8027L23.6523 28.9837C23.116 28.2271 22.492 27.6294 21.6768 27.2161C20.8592 26.8018 19.8158 26.556 18.417 26.556H11.833V35.6771H15.0469L15.1934 35.8216C16.7124 37.3257 19.9338 39.8057 24.6875 39.806C27.0981 39.806 28.9596 39.42 30.6621 38.6614C32.3727 37.8992 33.9507 36.7484 35.7852 35.1761C36.5773 34.4971 39.1321 31.8956 41.2959 29.6653C42.0888 28.848 42.0142 27.5266 41.1338 26.8001ZM6.5 38.7776H10.833V26.553H6.5V38.7776Z" fill="#000000" />

<path fill-rule="evenodd" clip-rule="evenodd" d="M25.5166 5.83398C28.1739 5.83398 30.3173 7.95794 30.3174 10.583C30.3174 10.6244 30.3134 10.6662 30.3115 10.707C32.6759 11.0003 34.4998 12.9791 34.5 15.418C34.4998 18.0429 32.3564 20.167 29.6992 20.167H18.3008C15.6437 20.1669 13.5002 18.0428 13.5 15.418C13.5001 13.3605 14.8068 11.5389 16.7695 10.917V10.6123C16.7696 8.86152 18.2111 7.47474 19.9502 7.47461C20.5264 7.47466 21.0821 7.63116 21.5723 7.92578C22.4558 6.64083 23.9307 5.83418 25.5166 5.83398ZM25.5166 6.83398C24.1158 6.83421 22.8118 7.63617 22.1602 8.88086C22.089 9.01651 21.9592 9.11259 21.8086 9.14062C21.658 9.16852 21.5028 9.12545 21.3877 9.02441C20.9763 8.66331 20.4742 8.47467 19.9502 8.47461C18.7441 8.47474 17.7696 9.43294 17.7695 10.6123V11.2998C17.7693 11.5332 17.6076 11.7355 17.3799 11.7871C15.6699 12.1739 14.5001 13.6824 14.5 15.418C14.5002 17.4812 16.1866 19.1669 18.3008 19.167H29.6992C31.8135 19.167 33.4998 17.4813 33.5 15.418C33.4998 13.3535 31.8406 11.6949 29.752 11.6689C29.6043 11.667 29.4646 11.5996 29.3711 11.4854C29.2778 11.3711 29.2402 11.2211 29.2676 11.0762C29.2678 11.0748 29.268 11.0707 29.2686 11.0674C29.2698 11.0604 29.2721 11.0492 29.2744 11.0352C29.2792 11.0064 29.2855 10.9642 29.292 10.915C29.3054 10.8131 29.3174 10.6901 29.3174 10.583C29.3173 8.51952 27.631 6.83398 25.5166 6.83398Z" fill="#000000" />

  </g>
  </g>
  <rect x="992" y="32" width="192" height="64" fill="transparent" stroke="#000000" stroke-width="1" stroke-miterlimit="10" />
  <text font-family="Ubuntu Sans">
    <tspan x="1000" y="56.92" font-size="18" font-weight="400" fill="#000000">Subnets: public,</tspan>
    <tspan x="1000" y="80.92" font-size="18" font-weight="400" fill="#000000">non-live, live-data</tspan>
  </text>
  <rect x="992" y="104" width="192" height="64" fill="transparent" stroke="#000000" stroke-width="1" stroke-miterlimit="10" />
  <text font-family="Ubuntu Sans">
    <tspan x="1000" y="128.92" font-size="18" font-weight="400" fill="#000000">TGW</tspan>
  </text>
  <g data-component-id="customer_gw">
  <rect x="984" y="200" width="208" height="152" fill="transparent" stroke="#000000" stroke-width="1" stroke-miterlimit="10" />
  <text font-family="Ubuntu Sans">
    <tspan x="992" y="224.92" font-size="18" font-weight="400" fill="#000000">Customer</tspan>
    <tspan x="992" y="248.92" font-size="18" font-weight="400" fill="#000000">Gateway</tspan>
  </text>
  <g class="dg-icon" transform="translate(1136 208)">
<path fill-rule="evenodd" clip-rule="evenodd" d="M38 28C39.3807 28 40.5 29.1193 40.5 30.5C40.5 31.8807 39.3807 33 38 33C36.6193 33 35.5 31.8807 35.5 30.5C35.5 29.1193 36.6193 28 38 28ZM38 29C37.1716 29 36.5 29.6716 36.5 30.5C36.5 31.3284 37.1716 32 38 32C38.8284 32 39.5 31.3284 39.5 30.5C39.5 29.6716 38.8284 29 38 29Z" fill="#000000" />

<path fill-rule="evenodd" clip-rule="evenodd" d="M24 28C25.3807 28 26.5 29.1193 26.5 30.5C26.5 31.8807 25.3807 33 24 33C22.6193 33 21.5 31.8807 21.5 30.5C21.5 29.1193 22.6193 28 24 28ZM24 29C23.1716 29 22.5 29.6716 22.5 30.5C22.5 31.3284 23.1716 32 24 32C24.8284 32 25.5 31.3284 25.5 30.5C25.5 29.6716 24.8284 29 24 29Z" fill="#000000" />

<path fill-rule="evenodd" clip-rule="evenodd" d="M31 28C32.3807 28 33.5 29.1193 33.5 30.5C33.5 31.8807 32.3807 33 31 33C29.6193 33 28.5 31.8807 28.5 30.5C28.5 29.1193 29.6193 28 31 28ZM31 29C30.1716 29 29.5 29.6716 29.5 30.5C29.5 31.3284 30.1716 32 31 32C31.8284 32 32.5 31.3284 32.5 30.5C32.5 29.6716 31.8284 29 31 29Z" fill="#000000" />

<path fill-rule="evenodd" clip-rule="evenodd" d="M9.5 11.5H17.5V3H18.5V11.5H26.5V3H27.5V11.5H43.5C44.6046 11.5 45.5 12.3954 45.5 13.5V36C45.5 37.1046 44.6046 38 43.5 38H39.5V46.5H38.5V38H18.5V46.5H17.5V38H14V46.5H13V38H9.5V46.5H8.5V38H4.5C3.39543 38 2.5 37.1046 2.5 36V13.5C2.5 12.3954 3.39543 11.5 4.5 11.5H8.5V3H9.5V11.5ZM4.5 12.5C3.94772 12.5 3.5 12.9477 3.5 13.5V36C3.5 36.5523 3.94772 37 4.5 37H43.5C44.0523 37 44.5 36.5523 44.5 36V13.5C44.5 12.9477 44.0523 12.5 43.5 12.5H4.5Z" fill="#000000" />

  </g>
  </g>
  <g data-component-id="modernisation.bottom-&gt;tgw.top">
  <line x1="128" y1="1488" x2="128" y2="756" fill="none" stroke="#E95420" stroke-width="1" stroke-miterlimit="10" />
  <line x1="128" y1="756" x2="624" y2="756" fill="none" stroke="#E95420" stroke-width="1" stroke-miterlimit="10" />
  <line x1="624" y1="756" x2="624" y2="34.8408" fill="none" stroke="#E95420" stroke-width="1" stroke-miterlimit="10" />
  <polygon points="621.0947,34.8408 624,24 626.9053,34.8408" fill="#E95420" />
  </g>
  <g data-component-id="core.bottom-&gt;tgw.top">
  <line x1="384" y1="352" x2="384" y2="188" fill="none" stroke="#E95420" stroke-width="1" stroke-miterlimit="10" />
  <line x1="384" y1="188" x2="624" y2="188" fill="none" stroke="#E95420" stroke-width="1" stroke-miterlimit="10" />
  <line x1="624" y1="188" x2="624" y2="34.8408" fill="none" stroke="#E95420" stroke-width="1" stroke-miterlimit="10" />
  <polygon points="621.0947,34.8408 624,24 626.9053,34.8408" fill="#E95420" />
  </g>
  <g data-component-id="security.bottom-&gt;tgw.top">
  <line x1="856" y1="176" x2="856" y2="100" fill="none" stroke="#E95420" stroke-width="1" stroke-miterlimit="10" />
  <line x1="856" y1="100" x2="624" y2="100" fill="none" stroke="#E95420" stroke-width="1" stroke-miterlimit="10" />
  <line x1="624" y1="100" x2="624" y2="34.8408" fill="none" stroke="#E95420" stroke-width="1" stroke-miterlimit="10" />
  <polygon points="621.0947,34.8408 624,24 626.9053,34.8408" fill="#E95420" />
  </g>
  <g data-component-id="shared_svc.bottom-&gt;tgw.top">
  <line x1="1088" y1="176" x2="1088" y2="100" fill="none" stroke="#E95420" stroke-width="1" stroke-miterlimit="10" />
  <line x1="1088" y1="100" x2="624" y2="100" fill="none" stroke="#E95420" stroke-width="1" stroke-miterlimit="10" />
  <line x1="624" y1="100" x2="624" y2="34.8408" fill="none" stroke="#E95420" stroke-width="1" stroke-miterlimit="10" />
  <polygon points="621.0947,34.8408 624,24 626.9053,34.8408" fill="#E95420" />
  </g>
  <g data-component-id="tgw.left-&gt;ca.right">
  <line x1="520" y1="56" x2="500" y2="56" fill="none" stroke="#E95420" stroke-width="1" stroke-miterlimit="10" />
  <line x1="500" y1="56" x2="500" y2="540" fill="none" stroke="#E95420" stroke-width="1" stroke-miterlimit="10" />
  <line x1="500" y1="540" x2="490.8408" y2="540" fill="none" stroke="#E95420" stroke-width="1" stroke-miterlimit="10" />
  <polygon points="490.8408,537.0947 480,540 490.8408,542.9053" fill="#E95420" />
  </g>
  <g data-component-id="tgw.right-&gt;customer_gw.left">
  <line x1="728" y1="56" x2="984" y2="56" fill="none" stroke="#E95420" stroke-width="1" stroke-miterlimit="10" />
  <line x1="984" y1="56" x2="984" y2="265.1592" fill="none" stroke="#E95420" stroke-width="1" stroke-miterlimit="10" />
  <polygon points="981.0947,265.1592 984,276 986.9053,265.1592" fill="#E95420" />
  </g>
  <g data-component-id="tgw.bottom-&gt;vpc_accounts.top">
  <line x1="624" y1="88" x2="624" y2="2256" fill="none" stroke="#E95420" stroke-width="1" stroke-miterlimit="10" />
  <line x1="624" y1="2256" x2="146.8408" y2="2256" fill="none" stroke="#E95420" stroke-width="1" stroke-miterlimit="10" />
  <polygon points="146.8408,2253.0947 136,2256 146.8408,2258.9053" fill="#E95420" />
  </g>
  <g data-component-id="vpc_prod.bottom-&gt;ou_maatdb.top">
  <line x1="136" y1="2416" x2="136" y2="2997.1592" fill="none" stroke="#E95420" stroke-width="1" stroke-miterlimit="10" />
  <polygon points="133.0947,2997.1592 136,3008 138.9053,2997.1592" fill="#E95420" />
  </g>
  <g data-component-id="vpc_preprod.bottom-&gt;ou_nomis.top">
  <line x1="136" y1="2504" x2="136" y2="3157.1592" fill="none" stroke="#E95420" stroke-width="1" stroke-miterlimit="10" />
  <polygon points="133.0947,3157.1592 136,3168 138.9053,3157.1592" fill="#E95420" />
  </g>
  <g data-component-id="vpc_test.bottom-&gt;ou_oasys.top">
  <line x1="136" y1="2592" x2="136" y2="3389.1592" fill="none" stroke="#E95420" stroke-width="1" stroke-miterlimit="10" />
  <polygon points="133.0947,3389.1592 136,3400 138.9053,3389.1592" fill="#E95420" />
  </g>
  <g data-component-id="vpc_dev.bottom-&gt;ou_ccr.top">
  <line x1="136" y1="2680" x2="136" y2="3549.1592" fill="none" stroke="#E95420" stroke-width="1" stroke-miterlimit="10" />
  <polygon points="133.0947,3549.1592 136,3560 138.9053,3549.1592" fill="#E95420" />
  </g>
</svg>
