<svg xmlns="http://www.w3.org/2000/svg" width="1040" height="320" viewBox="0 0 1040 320" xml:space="preserve">
  <rect width="1040" height="320" fill="#FFFFFF" />
  <g data-component-id="cloud">
  <rect x="0" y="0" width="608" height="96" fill="#FFFFFF" stroke="#000000" stroke-width="1" stroke-miterlimit="10" />
  <text font-family="Ubuntu Sans">
    <tspan x="8" y="24.92" font-size="18" font-weight="400" fill="#000000">Cloud</tspan>
  </text>
  <g class="dg-icon" transform="translate(552 8)">
<path fill-rule="evenodd" clip-rule="evenodd" d="M27.1855 10C32.1958 10 36.2166 13.9999 36.2168 18.9229L36.2109 19.1426C36.1874 19.6524 36.0941 20.1474 36.0928 20.1543C41.0412 20.2158 45 24.1541 45 29.0771L44.9883 29.5361C44.7475 34.2463 40.8223 38 35.9688 38H12.0312L11.5645 37.9883C6.9281 37.7568 3.24476 34.0945 3.01172 29.5361L3 29.0771C3.00003 24.9541 5.78376 21.3518 9.86621 20.4287V18.9844C9.86638 15.9076 12.4024 13.4463 15.4951 13.4463L15.749 13.4521C17.0168 13.5096 18.2202 13.996 19.2061 14.8613C20.7525 11.9076 23.8454 10 27.1855 10ZM27.1855 11C24.2244 11 21.4689 12.6948 20.0918 15.3252L19.502 16.4521L18.5469 15.6133C17.674 14.8471 16.608 14.4464 15.4951 14.4463C12.9354 14.4463 10.8664 16.479 10.8662 18.9844V21.2275L10.0869 21.4033C6.47196 22.2207 4.00003 25.4093 4 29.0771C4.00012 33.4385 7.56395 37 12.0312 37H35.9688C40.4361 37 43.9999 33.4385 44 29.0771C44 24.7135 40.4931 21.2082 36.0801 21.1533L34.8877 21.1387L35.1104 19.9668V19.9648C35.1109 19.9617 35.1119 19.9557 35.1133 19.9482C35.116 19.9332 35.121 19.91 35.126 19.8799C35.1361 19.8188 35.1493 19.7305 35.1631 19.626C35.1914 19.4107 35.2168 19.151 35.2168 18.9229C35.2166 14.5615 31.6528 11 27.1855 11Z" fill="#000000" />

  </g>
  </g>
  <g data-component-id="services">
  <rect x="0" y="120" width="608" height="144" fill="#FFFFFF" stroke="#000000" stroke-width="1" stroke-miterlimit="10" stroke-dasharray="8 8" />
  <text font-family="Ubuntu Sans">
    <tspan x="8" y="144.92" font-size="18" font-weight="700" fill="#000000">Managed services</tspan>
  </text>
  </g>
  <rect x="8" y="192" width="192" height="64" fill="#F3F3F3" stroke="#000000" stroke-width="1" stroke-miterlimit="10" />
  <text font-family="Ubuntu Sans">
    <tspan x="16" y="216.92" font-size="18" font-weight="400" fill="#000000">Database</tspan>
  </text>
  <g class="dg-icon" transform="translate(144 200)">
<path fill-rule="evenodd" clip-rule="evenodd" d="M35.9878 11.6991C36.3041 11.8759 36.5 12.2098 36.5 12.5721V25.3693C36.5 25.7316 36.3041 26.0655 35.9878 26.2423L24 32.9414L12.0122 26.2423C11.6959 26.0655 11.5 25.7316 11.5 25.3693V12.5721C11.5 12.2098 11.6959 11.8759 12.0122 11.6991L23.5122 5.27261C23.8153 5.1032 24.1847 5.1032 24.4878 5.27261L35.9878 11.6991ZM12.5 25.3682L23.5 31.5146V19.3613L12.5 13.166V25.3682ZM24.5 19.3613V31.5146L35.5 25.3682V13.167L24.5 19.3613ZM12.9922 12.2969L24 18.4941L35.0068 12.2969L24 6.14551L12.9922 12.2969Z" fill="#000000" />

<path d="M20.0322 40C20.0118 40.1638 20 40.3306 20 40.5C20 40.6694 20.0118 40.8362 20.0322 41H9V40H20.0322Z" fill="#000000" />

<path d="M39 40V41H27.9678C27.9882 40.8362 28 40.6694 28 40.5C28 40.3306 27.9882 40.1638 27.9678 40H39Z" fill="#000000" />

<path d="M24.5 36.5312C24.3362 36.5108 24.1693 36.5 24 36.5C23.8307 36.5 23.6638 36.5108 23.5 36.5312V32H24.5V36.5312Z" fill="#000000" />

<path fill-rule="evenodd" clip-rule="evenodd" d="M24 38C25.3807 38 26.5 39.1193 26.5 40.5C26.5 41.8807 25.3807 43 24 43C22.6193 43 21.5 41.8807 21.5 40.5C21.5 39.1193 22.6193 38 24 38ZM24 39C23.1716 39 22.5 39.6716 22.5 40.5C22.5 41.3284 23.1716 42 24 42C24.8284 42 25.5 41.3284 25.5 40.5C25.5 39.6716 24.8284 39 24 39Z" fill="#000000" />

  </g>
  <rect x="208" y="192" width="192" height="64" fill="#F3F3F3" stroke="#000000" stroke-width="1" stroke-miterlimit="10" />
  <text font-family="Ubuntu Sans">
    <tspan x="216" y="216.92" font-size="18" font-weight="400" fill="#000000">Storage</tspan>
  </text>
  <g class="dg-icon" transform="translate(344 200)">
<path fill-rule="evenodd" clip-rule="evenodd" d="M37.7432 27.6875C37.9017 27.7757 37.9999 27.9436 38 28.125C38 28.1394 37.9973 28.1538 37.9961 28.168C37.9968 28.1786 38 28.1894 38 28.2002V36.3789C37.9998 36.5859 37.8738 36.764 37.6943 36.8398L24.2432 44.3125C24.0922 44.3964 23.9078 44.3964 23.7568 44.3125L10.3057 36.8398C10.1262 36.764 10.0002 36.5859 10 36.3789V28.2002C10 28.1894 10.0023 28.1786 10.0029 28.168C10.0017 28.1538 10 28.1393 10 28.125C10.0001 27.9436 10.0983 27.7757 10.2568 27.6875L15.3496 24.8574L16.3799 25.4297L11.5293 28.124L24 35.0518L36.4697 28.124L31.6191 25.4297L32.6494 24.8574L37.7432 27.6875ZM11 36.0801L23.5 43.0234V35.918L11 28.9736V36.0801ZM24.5 35.918V43.0234L37 36.0801V28.9736L24.5 35.918Z" fill="#000000" />

<path fill-rule="evenodd" clip-rule="evenodd" d="M23.8154 3.66011C23.9537 3.60523 24.1112 3.61416 24.2432 3.68746L37.7432 11.1875C37.9018 11.2756 37.9999 11.4435 38 11.625C38 11.6394 37.9973 11.6537 37.9961 11.6679C37.9968 11.6786 38 11.6893 38 11.7002V19.7998C38 20.001 37.8803 20.1726 37.709 20.2519L37.7432 20.3125L24.2432 27.8125C24.0922 27.8964 23.9078 27.8964 23.7568 27.8125L10.2568 20.3125L10.29 20.2519C10.1192 20.1724 10 20.0006 10 19.7998V11.7002C10 11.6893 10.0022 11.6786 10.0029 11.6679C10.0017 11.6538 10 11.6393 10 11.625C10.0001 11.4435 10.0982 11.2756 10.2568 11.1875L23.7568 3.68746L23.8154 3.66011ZM11 19.58L23.5 26.5234V19.5C23.5 19.474 23.503 19.4487 23.5068 19.4238L11 12.4746V19.58ZM24.4922 19.4238C24.496 19.4487 24.5 19.474 24.5 19.5V26.5234L37 19.58V12.4746L24.4922 19.4238ZM11.5303 11.625L24 18.5517L36.4688 11.625L24 4.69722L11.5303 11.625Z" fill="#000000" />

  </g>
  <rect x="408" y="192" width="192" height="64" fill="#F3F3F3" stroke="#000000" stroke-width="1" stroke-miterlimit="10" />
  <text font-family="Ubuntu Sans">
    <tspan x="416" y="216.92" font-size="18" font-weight="400" fill="#000000">Network</tspan>
  </text>
  <g class="dg-icon" transform="translate(544 200)">
<path d="M20.0322 40C20.0118 40.1638 20 40.3306 20 40.5C20 40.6694 20.0118 40.8362 20.0322 41H9V40H20.0322Z" fill="#000000" />

<path d="M39 40V41H27.9678C27.9882 40.8362 28 40.6694 28 40.5C28 40.3306 27.9882 40.1638 27.9678 40H39Z" fill="#000000" />

<path d="M24.5 36.5312C24.3362 36.5108 24.1693 36.5 24 36.5C23.8307 36.5 23.6638 36.5108 23.5 36.5312V32H24.5V36.5312Z" fill="#000000" />

<path fill-rule="evenodd" clip-rule="evenodd" d="M24 38C25.3807 38 26.5 39.1193 26.5 40.5C26.5 41.8807 25.3807 43 24 43C22.6193 43 21.5 41.8807 21.5 40.5C21.5 39.1193 22.6193 38 24 38ZM24 39C23.1716 39 22.5 39.6716 22.5 40.5C22.5 41.3284 23.1716 42 24 42C24.8284 42 25.5 41.3284 25.5 40.5C25.5 39.6716 24.8284 39 24 39Z" fill="#000000" />

<path fill-rule="evenodd" clip-rule="evenodd" d="M24 5.5C30.0019 5.5 35.088 9.41707 36.8438 14.834C36.8885 14.9047 36.9156 14.9865 36.9199 15.0752C37.2967 16.3172 37.5 17.6349 37.5 19C37.5 20.3651 37.2967 21.6828 36.9199 22.9248C36.9155 23.0132 36.8883 23.0945 36.8438 23.165C35.0882 28.5824 30.0022 32.5 24 32.5C17.9976 32.5 12.9107 28.5826 11.1553 23.165C11.1115 23.0954 11.0849 23.0148 11.0801 22.9277C10.7027 21.6849 10.5 20.3661 10.5 19C10.5 17.6336 10.7026 16.3144 11.0801 15.0713C11.085 14.9843 11.1114 14.9035 11.1553 14.834C12.911 9.41693 17.998 5.5 24 5.5ZM12.2988 23.3994C13.8797 27.6019 17.657 30.7276 22.2334 31.375C19.5017 29.4002 17.5593 26.576 16.6689 23.3994H12.2988ZM31.3311 23.3994C30.4406 26.5762 28.4977 29.4001 25.7656 31.375C30.3425 30.7279 34.1202 27.6022 35.7012 23.3994H31.3311ZM17.7109 23.3994C18.5969 26.3285 20.4466 28.9195 23.0215 30.7109L23.499 31.043V23.3994H17.7109ZM24.499 31.043L24.9775 30.7109C27.5525 28.9195 29.4021 26.3286 30.2881 23.3994H24.499V31.043ZM31.418 15.5996C31.7202 16.8376 31.8779 18.1184 31.8779 19.418C31.8779 20.4298 31.7727 21.4278 31.5723 22.3994H36.0312C36.3361 21.3185 36.5 20.1784 36.5 19C36.5 17.8213 36.3362 16.6808 36.0312 15.5996H31.418ZM24.499 22.3994H30.5508C30.766 21.4303 30.8779 20.4314 30.8779 19.418C30.8779 18.1159 30.7102 16.8338 30.3877 15.5996H24.499V22.3994ZM17.6133 15.5996C17.2908 16.8339 17.1211 18.1159 17.1211 19.418C17.1211 20.4314 17.234 21.4303 17.4492 22.3994H23.499V15.5996H17.6133ZM11.9688 15.5996C11.6638 16.6808 11.5 17.8213 11.5 19C11.5 20.1784 11.664 21.3185 11.9688 22.3994H16.4277C16.2273 21.4278 16.1211 20.4298 16.1211 19.418C16.1211 18.1183 16.2799 16.8376 16.582 15.5996H11.9688ZM25.9004 6.89453C28.3956 8.91296 30.2005 11.6047 31.1396 14.5996H35.7012C34.0927 10.3245 30.2108 7.16335 25.5273 6.59277L25.9004 6.89453ZM24.499 14.5996H30.0879C29.1827 11.9111 27.5283 9.49843 25.2715 7.67285L24.499 7.04688V14.5996ZM22.7266 7.67285C20.4701 9.49843 18.816 11.9112 17.9111 14.5996H23.499V7.04688L22.7266 7.67285ZM22.4697 6.59277C17.7876 7.16429 13.907 10.3253 12.2988 14.5996H16.8594C17.7982 11.6048 19.6026 8.91297 22.0977 6.89453L22.4697 6.59277Z" fill="#000000" />

  </g>
  <g data-component-id="lockman">
  <rect x="0" y="288" width="608" height="96" fill="#FFFFFF" stroke="#000000" stroke-width="1" stroke-miterlimit="10" />
  <text font-family="Ubuntu Sans">
    <tspan x="8" y="312.92" font-size="18" font-weight="400" fill="#000000">Lock</tspan>
    <tspan x="8" y="336.92" font-size="18" font-weight="400" fill="#000000">manager</tspan>
  </text>
  <g class="dg-icon" transform="translate(552 296)">
<path d="M24 28.5C24.8284 28.5 25.5 29.1716 25.5 30C25.5 30.5907 25.1574 31.0991 24.6611 31.3438L25.5 36H22.5L23.3379 31.3438C22.8421 31.099 22.5 30.5904 22.5 30C22.5 29.1716 23.1716 28.5 24 28.5Z" fill="#000000" />

<path fill-rule="evenodd" clip-rule="evenodd" d="M24 4C28.9706 4 33 8.02944 33 13V20H37.5L37.6533 20.0078C38.4097 20.0846 39 20.7233 39 21.5V42.5C39 43.2767 38.4097 43.9154 37.6533 43.9922L37.5 44H10.5C9.67157 44 9 43.3284 9 42.5V21.5C9 20.6716 9.67157 20 10.5 20H15V13L15.0117 12.5371C15.2526 7.78166 19.1847 4 24 4ZM10.5 21C10.2239 21 10 21.2239 10 21.5V42.5C10 42.7761 10.2239 43 10.5 43H37.5C37.7761 43 38 42.7761 38 42.5V21.5C38 21.2239 37.7761 21 37.5 21H10.5ZM24 5C19.5817 5 16 8.58172 16 13V20H32V13C32 8.58172 28.4183 5 24 5Z" fill="#000000" />

  </g>
  </g>
  <g data-component-id="container">
  <rect x="632" y="0" width="192" height="152" fill="#FFFFFF" stroke="#000000" stroke-width="1" stroke-miterlimit="10" />
  <text font-family="Ubuntu Sans">
    <tspan x="640" y="24.92" font-size="18" font-weight="400" fill="#000000">Container</tspan>
  </text>
  <g class="dg-icon" transform="translate(768 8)">
<path fill-rule="evenodd" clip-rule="evenodd" d="M23.5156 4.62495C23.8168 4.45833 24.1832 4.45836 24.4844 4.62495L41.4844 14.0341C41.8024 14.2103 41.9999 14.5456 42 14.9091V33.6552C41.9998 34.0186 41.8022 34.3531 41.4844 34.5292L24.4844 43.9384C24.1831 44.1051 23.8169 44.1052 23.5156 43.9384L6.51562 34.5292C6.19782 34.3531 6.00015 34.0186 6 33.6552V14.9091C6.00008 14.5455 6.19752 14.2103 6.51562 14.0341L23.5156 4.62495ZM7 33.6552L23.5 42.7861V24.7158L7 15.5126V33.6552ZM24.5 24.7158V42.7861L41 33.6552V15.5136L24.5 24.7158ZM7.48535 14.6396L24 23.8486L40.5137 14.6396L24 5.49995L7.48535 14.6396Z" fill="#000000" />

  </g>
  </g>
  <g data-component-id="monitor">
  <rect x="632" y="176" width="192" height="152" fill="#F3F3F3" stroke="#000000" stroke-width="1" stroke-miterlimit="10" />
  <text font-family="Ubuntu Sans">
    <tspan x="640" y="200.92" font-size="18" font-weight="400" fill="#000000">Monitoring</tspan>
    <tspan x="640" y="224.92" font-size="18" font-weight="400" fill="#000000">dashboard</tspan>
  </text>
  <g class="dg-icon" transform="translate(768 184)">
<path d="M34.5 23.5C35.6046 23.5 36.5 24.3954 36.5 25.5V39H35.5V25.5C35.5 24.9477 35.0523 24.5 34.5 24.5H13.5C12.9477 24.5 12.5 24.9477 12.5 25.5V39H11.5V25.5C11.5 24.3954 12.3954 23.5 13.5 23.5H34.5Z" fill="#000000" />

<path fill-rule="evenodd" clip-rule="evenodd" d="M40.5 6C41.3284 6 42 6.67157 42 7.5V40.5C42 41.3284 41.3284 42 40.5 42H7.5C6.67157 42 6 41.3284 6 40.5V13.9141C6.00004 13.682 6.08071 13.4582 6.22656 13.2803L6.29297 13.207L13.207 6.29297C13.3945 6.10547 13.6489 6.00004 13.9141 6H40.5ZM7 13.9141V40.5C7 40.7761 7.22386 41 7.5 41H40.5C40.7761 41 41 40.7761 41 40.5V7.5C41 7.22386 40.7761 7 40.5 7H36.5V15H35.5V7H30.5V15H29.5V7H24.5V15H23.5V7H18.5V15H17.5V7H13.9141L7 13.9141Z" fill="#000000" />

  </g>
  </g>
  <g data-component-id="server">
  <rect x="848" y="0" width="192" height="320" fill="#FFFFFF" stroke="#000000" stroke-width="1" stroke-miterlimit="10" />
  <text font-family="Ubuntu Sans">
    <tspan x="856" y="24.92" font-size="18" font-weight="400" fill="#000000">Server</tspan>
  </text>
  <g class="dg-icon" transform="translate(984 8)">
<path d="M39.5 30C40.6046 30 41.5 30.8954 41.5 32V37C41.5 38.1046 40.6046 39 39.5 39H24.5V40.4277C25.5716 40.6573 26.375 41.6099 26.375 42.75C26.375 44.0617 25.3117 45.125 24 45.125C22.6883 45.125 21.625 44.0617 21.625 42.75C21.625 41.6099 22.4284 40.6574 23.5 40.4277V39H8.5C7.39543 39 6.5 38.1046 6.5 37V32C6.5 30.8954 7.39543 30 8.5 30H39.5ZM24 41.375C23.2406 41.375 22.625 41.9906 22.625 42.75C22.625 43.5094 23.2406 44.125 24 44.125C24.7594 44.125 25.375 43.5094 25.375 42.75C25.375 41.9906 24.7594 41.375 24 41.375ZM8.5 31C7.94772 31 7.5 31.4477 7.5 32V37L7.50488 37.1025C7.55278 37.573 7.92703 37.9472 8.39746 37.9951L8.5 38H39.5L39.6025 37.9951C40.1067 37.9438 40.5 37.5177 40.5 37V32C40.5 31.4477 40.0523 31 39.5 31H8.5ZM12 33.501C12.5523 33.501 13 33.9487 13 34.501C13 35.0533 12.5523 35.501 12 35.501C11.4477 35.501 11 35.0533 11 34.501C11 33.9487 11.4477 33.501 12 33.501ZM39.5 19C40.6046 19 41.5 19.8954 41.5 21V26C41.5 27.1046 40.6046 28 39.5 28H8.5C7.39543 28 6.5 27.1046 6.5 26V21C6.5 19.8954 7.39543 19 8.5 19H39.5ZM8.5 20C7.94772 20 7.5 20.4477 7.5 21V26L7.50488 26.1025C7.55278 26.573 7.92703 26.9472 8.39746 26.9951L8.5 27H39.5L39.6025 26.9951C40.1067 26.9438 40.5 26.5177 40.5 26V21C40.5 20.4477 40.0523 20 39.5 20H8.5ZM12 22.501C12.5523 22.501 13 22.9487 13 23.501C13 24.0533 12.5523 24.501 12 24.501C11.4477 24.501 11 24.0533 11 23.501C11 22.9487 11.4477 22.501 12 22.501ZM39.5 8C40.6046 8 41.5 8.89543 41.5 10V15C41.5 16.1046 40.6046 17 39.5 17H8.5C7.39543 17 6.5 16.1046 6.5 15V10C6.5 8.89543 7.39543 8 8.5 8H39.5ZM8.5 9C7.94772 9 7.5 9.44772 7.5 10V15L7.50488 15.1025C7.55278 15.573 7.92703 15.9472 8.39746 15.9951L8.5 16H39.5L39.6025 15.9951C40.1067 15.9438 40.5 15.5177 40.5 15V10C40.5 9.44772 40.0523 9 39.5 9H8.5ZM12 11.501C12.5523 11.501 13 11.9487 13 12.501C13 13.0533 12.5523 13.501 12 13.501C11.4477 13.501 11 13.0533 11 12.501C11 11.9487 11.4477 11.501 12 11.501Z" fill="#000000" />

<circle cx="16" cy="12.501" r="1" fill="#000000" />

<circle cx="16" cy="23.501" r="1" fill="#000000" />

<circle cx="16" cy="34.501" r="1" fill="#000000" />

  </g>
  </g>
  <g data-component-id="cloud-&gt;services">
  <line x1="608" y1="48" x2="608" y2="48" fill="none" stroke="#E95420" stroke-width="1" stroke-miterlimit="10" />
  <line x1="608" y1="48" x2="608" y2="181.1592" fill="none" stroke="#E95420" stroke-width="1" stroke-miterlimit="10" />
  <polygon points="605.0947,181.1592 608,192 610.9053,181.1592" fill="#E95420" />
  </g>
  <g data-component-id="container-&gt;services">
  <line x1="824" y1="76" x2="608" y2="76" fill="none" stroke="#E95420" stroke-width="1" stroke-miterlimit="10" />
  <line x1="608" y1="76" x2="608" y2="181.1592" fill="none" stroke="#E95420" stroke-width="1" stroke-miterlimit="10" />
  <polygon points="605.0947,181.1592 608,192 610.9053,181.1592" fill="#E95420" />
  </g>
  <g data-component-id="server-&gt;services">
  <line x1="1040" y1="160" x2="608" y2="160" fill="none" stroke="#E95420" stroke-width="1" stroke-miterlimit="10" />
  <line x1="608" y1="160" x2="608" y2="181.1592" fill="none" stroke="#E95420" stroke-width="1" stroke-miterlimit="10" />
  <polygon points="605.0947,181.1592 608,192 610.9053,181.1592" fill="#E95420" />
  </g>
  <g data-component-id="services-&gt;lockman">
  <line x1="608" y1="192" x2="608" y2="192" fill="none" stroke="#E95420" stroke-width="1" stroke-miterlimit="10" />
  <line x1="608" y1="192" x2="608" y2="325.1592" fill="none" stroke="#E95420" stroke-width="1" stroke-miterlimit="10" />
  <polygon points="605.0947,325.1592 608,336 610.9053,325.1592" fill="#E95420" />
  </g>
  <g data-component-id="services-&gt;monitor">
  <line x1="608" y1="192" x2="824" y2="192" fill="none" stroke="#E95420" stroke-width="1" stroke-miterlimit="10" />
  <line x1="824" y1="192" x2="824" y2="241.1592" fill="none" stroke="#E95420" stroke-width="1" stroke-miterlimit="10" />
  <polygon points="821.0947,241.1592 824,252 826.9053,241.1592" fill="#E95420" />
  </g>
</svg>
