<svg xmlns="http://www.w3.org/2000/svg" width="1624" height="344" viewBox="0 0 1624 344" xml:space="preserve">
  <rect width="1624" height="344" fill="#FFFFFF" />
  <g data-component-id="title">
  <rect x="0" y="0" width="616" height="64" fill="#FFFFFF" stroke="#000000" stroke-width="1" stroke-miterlimit="10" />
  <text font-family="Ubuntu Sans">
    <tspan x="8" y="24.92" font-size="18" font-weight="700" fill="#000000">Inference snaps</tspan>
  </text>
  <g class="dg-icon" transform="translate(560 8)">
<path d="M33.1848 19.803L24.4993 24.6477V34.5657L24.0002 34.8518L23.4993 34.5647V24.6477L14.8147 19.804L15.2102 18.8792L23.9993 23.7805L32.7874 18.8792L33.1848 19.803Z" fill="#000000" />

<path fill-rule="evenodd" clip-rule="evenodd" d="M41.4845 13.9658C41.8027 14.1419 42.0002 14.477 42.0002 14.8407V33.5866C42.0002 33.9503 41.8027 34.2853 41.4845 34.4615L24.4845 43.8709C24.1832 44.0377 23.8173 44.0377 23.516 43.8709L6.51598 34.4615C6.19774 34.2853 6.00024 33.9503 6.00024 33.5866V14.8407C6.00024 14.477 6.19776 14.1419 6.51602 13.9658L23.516 4.5573C23.8173 4.39055 24.1832 4.39055 24.4845 4.5573L41.4845 13.9658ZM7.47388 14.5657L14.1897 18.3108C13.9578 18.4437 13.8147 18.6905 13.8147 18.9578V19.2463L6.99048 15.4397V33.592L23.4993 42.7297V35.717L23.5032 35.72C23.8107 35.8958 24.189 35.896 24.4963 35.72L24.4993 35.718V42.7307L41.01 33.592V15.4397L34.1848 19.2454V18.96C34.1848 18.6914 34.041 18.4433 33.8079 18.3098L40.5237 14.5647L24.0002 5.42017L7.47388 14.5657Z" fill="#000000" />

<path fill-rule="evenodd" clip-rule="evenodd" d="M32.682 18.8188C32.9935 18.9968 33.1858 19.3281 33.1858 19.687V29.0234C33.1858 29.3823 32.9935 29.7136 32.6819 29.8917L24.4973 34.5684C24.1899 34.744 23.8125 34.744 23.5051 34.5684L15.3187 29.8917C15.007 29.7136 14.8147 29.3823 14.8147 29.0234V19.687C14.8147 19.3282 15.007 18.9968 15.3186 18.8188L23.5051 14.1412C23.8125 13.9655 24.1899 13.9655 24.4974 14.1412L32.682 18.8188ZM15.8157 29.0227L23.5002 33.4133V24.6477L15.8157 20.3616V29.0227ZM24.5002 24.6477V33.4133L32.1858 29.0227V20.3616L24.5002 24.6477ZM16.2307 19.4495L23.9993 23.7815L31.7688 19.4485L24.0002 15.009L16.2307 19.4495Z" fill="#000000" />

  </g>
  </g>
  <g data-component-id="frame">
  <rect x="0" y="88" width="1624" height="168" fill="#FFFFFF" stroke="#000000" stroke-width="1" stroke-miterlimit="10" stroke-dasharray="8 8" />
  </g>
  <rect x="8" y="96" width="600" height="64" fill="#FFFFFF" stroke="#000000" stroke-width="1" stroke-miterlimit="10" />
  <text font-family="Ubuntu Sans">
    <tspan x="16" y="120.92" font-size="18" font-weight="700" fill="#000000">Inference snap</tspan>
  </text>
  <g class="dg-icon" transform="translate(552 104)">
<path d="M33.0005 9.0566L41.4847 13.7516C41.803 13.9278 42.0005 14.2628 42.0005 14.6266V33.3725C42.0005 33.7362 41.803 34.0713 41.4848 34.2474L24.4848 43.6568C24.1834 43.8236 23.8175 43.8236 23.5162 43.6568L6.51622 34.2474C6.19799 34.0713 6.00049 33.7362 6.00049 33.3725V14.6266C6.00049 14.2628 6.19802 13.9278 6.5163 13.7516L15.0005 9.0566L23.5162 4.34317C23.8175 4.1764 24.1834 4.1764 24.4848 4.34317L33.0005 9.0566ZM24.4995 24.4336V42.505L32.5161 38.0684L41.0005 33.3721V15.2304L24.4995 24.4336ZM7.00049 33.3721L15.4849 38.0684L23.4995 42.504V24.4336L15.5249 19.9853V25.583L14.5288 25.0274V19.4297L7.00049 15.2314V33.3721ZM15.9204 19.0605L23.9995 23.5664L40.5151 14.3574L32.5161 9.9316L32.4038 9.8691L15.9204 19.0605ZM15.4849 9.9316L7.48486 14.3574L14.8989 18.4912L31.3774 9.30171L24.0005 5.21772L15.4849 9.9316Z" fill="#000000" />

  </g>
  <g data-component-id="pad">
  <rect x="8" y="168" width="1608" height="80" fill="#F3F3F3" stroke="#000000" stroke-width="1" stroke-miterlimit="10" />
  </g>
  <rect x="16" y="176" width="192" height="64" fill="#FFFFFF" stroke="#000000" stroke-width="1" stroke-miterlimit="10" />
  <text font-family="Ubuntu Sans">
    <tspan x="24" y="200.92" font-size="18" font-weight="400" fill="#000000">Model</tspan>
  </text>
  <g class="dg-icon" transform="translate(152 184)">
<path d="M20.0322 40C20.0118 40.1638 20 40.3306 20 40.5C20 40.6694 20.0118 40.8362 20.0322 41H9V40H20.0322Z" fill="#000000" />

<path d="M39 40V41H27.9678C27.9882 40.8362 28 40.6694 28 40.5C28 40.3306 27.9882 40.1638 27.9678 40H39Z" fill="#000000" />

<path d="M24.5 36.5312C24.3362 36.5108 24.1693 36.5 24 36.5C23.8307 36.5 23.6638 36.5108 23.5 36.5312V32H24.5V36.5312Z" fill="#000000" />

<path fill-rule="evenodd" clip-rule="evenodd" d="M24 38C25.3807 38 26.5 39.1193 26.5 40.5C26.5 41.8807 25.3807 43 24 43C22.6193 43 21.5 41.8807 21.5 40.5C21.5 39.1193 22.6193 38 24 38ZM24 39C23.1716 39 22.5 39.6716 22.5 40.5C22.5 41.3284 23.1716 42 24 42C24.8284 42 25.5 41.3284 25.5 40.5C25.5 39.6716 24.8284 39 24 39Z" fill="#000000" />

<path fill-rule="evenodd" clip-rule="evenodd" d="M24 5.5C30.0019 5.5 35.088 9.41707 36.8438 14.834C36.8885 14.9047 36.9156 14.9865 36.9199 15.0752C37.2967 16.3172 37.5 17.6349 37.5 19C37.5 20.3651 37.2967 21.6828 36.9199 22.9248C36.9155 23.0132 36.8883 23.0945 36.8438 23.165C35.0882 28.5824 30.0022 32.5 24 32.5C17.9976 32.5 12.9107 28.5826 11.1553 23.165C11.1115 23.0954 11.0849 23.0148 11.0801 22.9277C10.7027 21.6849 10.5 20.3661 10.5 19C10.5 17.6336 10.7026 16.3144 11.0801 15.0713C11.085 14.9843 11.1114 14.9035 11.1553 14.834C12.911 9.41693 17.998 5.5 24 5.5ZM12.2988 23.3994C13.8797 27.6019 17.657 30.7276 22.2334 31.375C19.5017 29.4002 17.5593 26.576 16.6689 23.3994H12.2988ZM31.3311 23.3994C30.4406 26.5762 28.4977 29.4001 25.7656 31.375C30.3425 30.7279 34.1202 27.6022 35.7012 23.3994H31.3311ZM17.7109 23.3994C18.5969 26.3285 20.4466 28.9195 23.0215 30.7109L23.499 31.043V23.3994H17.7109ZM24.499 31.043L24.9775 30.7109C27.5525 28.9195 29.4021 26.3286 30.2881 23.3994H24.499V31.043ZM31.418 15.5996C31.7202 16.8376 31.8779 18.1184 31.8779 19.418C31.8779 20.4298 31.7727 21.4278 31.5723 22.3994H36.0312C36.3361 21.3185 36.5 20.1784 36.5 19C36.5 17.8213 36.3362 16.6808 36.0312 15.5996H31.418ZM24.499 22.3994H30.5508C30.766 21.4303 30.8779 20.4314 30.8779 19.418C30.8779 18.1159 30.7102 16.8338 30.3877 15.5996H24.499V22.3994ZM17.6133 15.5996C17.2908 16.8339 17.1211 18.1159 17.1211 19.418C17.1211 20.4314 17.234 21.4303 17.4492 22.3994H23.499V15.5996H17.6133ZM11.9688 15.5996C11.6638 16.6808 11.5 17.8213 11.5 19C11.5 20.1784 11.664 21.3185 11.9688 22.3994H16.4277C16.2273 21.4278 16.1211 20.4298 16.1211 19.418C16.1211 18.1183 16.2799 16.8376 16.582 15.5996H11.9688ZM25.9004 6.89453C28.3956 8.91296 30.2005 11.6047 31.1396 14.5996H35.7012C34.0927 10.3245 30.2108 7.16335 25.5273 6.59277L25.9004 6.89453ZM24.499 14.5996H30.0879C29.1827 11.9111 27.5283 9.49843 25.2715 7.67285L24.499 7.04688V14.5996ZM22.7266 7.67285C20.4701 9.49843 18.816 11.9112 17.9111 14.5996H23.499V7.04688L22.7266 7.67285ZM22.4697 6.59277C17.7876 7.16429 13.907 10.3253 12.2988 14.5996H16.8594C17.7982 11.6048 19.6026 8.91297 22.0977 6.89453L22.4697 6.59277Z" fill="#000000" />

  </g>
  <rect x="216" y="176" width="192" height="64" fill="#FFFFFF" stroke="#000000" stroke-width="1" stroke-miterlimit="10" />
  <text font-family="Ubuntu Sans">
    <tspan x="224" y="200.92" font-size="18" font-weight="400" fill="#000000">Workload</tspan>
    <tspan x="224" y="224.92" font-size="18" font-weight="400" fill="#000000">identity</tspan>
  </text>
  <g class="dg-icon" transform="translate(352 184)">
<path fill-rule="evenodd" clip-rule="evenodd" d="M24 25.5C32.2846 25.5 39 29.7 39 34.875V40.5C39 41.0523 38.5523 41.5 38 41.5H10C9.44772 41.5 9 41.0523 9 40.5V34.875C9 29.7 15.7154 25.5 24 25.5ZM24 26.5C20.0155 26.5 16.4557 27.5121 13.9238 29.0947C11.3777 30.6864 10 32.7568 10 34.875V40.5H38V34.875C38 32.7568 36.6223 30.6864 34.0762 29.0947C31.5443 27.5121 27.9845 26.5 24 26.5Z" fill="#000000" />

<path fill-rule="evenodd" clip-rule="evenodd" d="M24 6.5C28.4182 6.50009 32 10.0818 32 14.5C32 18.9182 28.4182 22.4999 24 22.5C19.5817 22.5 16 18.9183 16 14.5C16 10.0817 19.5817 6.5 24 6.5ZM24 7.5C20.134 7.5 17 10.634 17 14.5C17 18.366 20.134 21.5 24 21.5C27.8659 21.4999 31 18.3659 31 14.5C31 10.6341 27.8659 7.50009 24 7.5Z" fill="#000000" />

  </g>
  <rect x="416" y="176" width="192" height="64" fill="#FFFFFF" stroke="#000000" stroke-width="1" stroke-miterlimit="10" />
  <text font-family="Ubuntu Sans">
    <tspan x="424" y="200.92" font-size="18" font-weight="400" fill="#000000">Runtime</tspan>
  </text>
  <g class="dg-icon" transform="translate(552 184)">
<path d="M12.13 33.15H2.85001V32.64C2.97001 28 4.56001 23.63 7.44001 20L7.79001 19.56L14.4 26.17L14.17 26.51C12.94 28.33 12.24 30.46 12.15 32.66L12.13 33.14V33.15ZM3.88001 32.15H11.18C11.34 30.07 12.01 28.07 13.12 26.3L7.88001 21.06C5.45001 24.29 4.07001 28.1 3.88001 32.14V32.15ZM15.14 25.25L8.57001 18.68L8.92001 18.33C12.54 14.64 17.37 12.41 22.51 12.06L23.04 12.02V21.32L22.6 21.37C19.91 21.68 17.38 22.93 15.49 24.89L15.14 25.25ZM9.98001 18.68L15.13 23.84C17.03 22.03 19.46 20.84 22.04 20.44V13.1C17.5 13.54 13.26 15.5 9.97001 18.68H9.98001ZM32.5 24.88L32.15 24.55C30.12 22.63 27.47 21.48 24.69 21.32L24.22 21.29V12L24.74 12.02C29.98 12.2 34.94 14.31 38.71 17.96L39.08 18.31L32.51 24.88H32.5ZM25.22 20.35C27.9 20.6 30.45 21.7 32.48 23.49L37.64 18.33C34.22 15.18 29.85 13.32 25.22 13.04V20.35Z" fill="#000000" />

<path d="M31.53 27.31L30.82 26.6L25.33 32.09C24.94 31.85 24.49 31.7 24 31.7C22.62 31.7 21.5 32.82 21.5 34.2C21.5 35.58 22.62 36.7 24 36.7C25.38 36.7 26.5 35.58 26.5 34.2C26.5 33.67 26.33 33.18 26.05 32.78L31.53 27.3V27.31ZM24 35.71C23.17 35.71 22.5 35.04 22.5 34.21C22.5 33.38 23.17 32.71 24 32.71C24.83 32.71 25.5 33.38 25.5 34.21C25.5 35.04 24.83 35.71 24 35.71Z" fill="#000000" />

<path d="M45.15 33.15H35.87L35.85 32.67C35.76 30.29 34.96 28.02 33.54 26.11L33.28 25.76L39.87 19.17L40.22 19.59C43.28 23.24 45.02 27.88 45.14 32.64V33.15H45.15ZM36.82 32.15H44.12C43.92 27.92 42.43 23.97 39.8 20.65L34.59 25.86C35.88 27.73 36.64 29.89 36.82 32.15Z" fill="#000000" />

  </g>
  <rect x="616" y="176" width="192" height="64" fill="#FFFFFF" stroke="#000000" stroke-width="1" stroke-miterlimit="10" />
  <text font-family="Ubuntu Sans">
    <tspan x="624" y="200.92" font-size="18" font-weight="400" fill="#000000">Heterogeneous</tspan>
    <tspan x="624" y="224.92" font-size="18" font-weight="400" fill="#000000">hardware</tspan>
  </text>
  <g class="dg-icon" transform="translate(752 184)">
<path fill-rule="evenodd" clip-rule="evenodd" d="M40.6533 6.00684C41.4096 6.08363 41.9999 6.72247 42 7.49902V40.499L41.9922 40.6523C41.9205 41.3583 41.3593 41.9195 40.6533 41.9912L40.5 41.999H7.5C6.72334 41.999 6.08461 41.4087 6.00781 40.6523L6 40.499V7.49902C6.00013 6.67071 6.67165 5.99902 7.5 5.99902H40.5L40.6533 6.00684ZM7.5 6.99902C7.25837 6.99902 7.05638 7.17059 7.00977 7.39844L7 7.49902V40.499C7 40.7752 7.22386 40.999 7.5 40.999H28V29.0908L18.5 19.2383V27.2998H17.5V6.99902H7.5ZM18.5 17.7979L28.8604 28.542L29 28.6875V40.999H40.5C40.7761 40.999 41 40.7752 41 40.499V7.49902C40.9999 7.25742 40.8285 7.0553 40.6006 7.00879L40.5 6.99902H27.2002V15.208L29.1729 17.417L28.7998 17.75L28.4277 18.083L26.3271 15.7334L26.2002 15.5908V6.99902H18.5V17.7979Z" fill="#000000" />

<path fill-rule="evenodd" clip-rule="evenodd" d="M18 29C19.3807 29 20.5 30.1193 20.5 31.5C20.5 32.8807 19.3807 34 18 34C16.6193 34 15.5 32.8807 15.5 31.5C15.5 30.1193 16.6193 29 18 29ZM18 30C17.1716 30 16.5 30.6716 16.5 31.5C16.5 32.3284 17.1716 33 18 33C18.8284 33 19.5 32.3284 19.5 31.5C19.5 30.6716 18.8284 30 18 30Z" fill="#000000" />

<path fill-rule="evenodd" clip-rule="evenodd" d="M31.7998 18.5C33.1805 18.5 34.2998 19.6193 34.2998 21C34.2998 22.3807 33.1805 23.5 31.7998 23.5C30.4191 23.4999 29.2998 22.3807 29.2998 21C29.2998 19.6193 30.4192 18.5001 31.7998 18.5ZM31.7998 19.5C30.9714 19.5001 30.2998 20.1716 30.2998 21C30.2998 21.8284 30.9714 22.4999 31.7998 22.5C32.6282 22.5 33.2998 21.8284 33.2998 21C33.2998 20.1716 32.6282 19.5 31.7998 19.5Z" fill="#000000" />

  </g>
  <rect x="816" y="176" width="192" height="64" fill="#FFFFFF" stroke="#000000" stroke-width="1" stroke-miterlimit="10" />
  <text font-family="Ubuntu Sans">
    <tspan x="824" y="200.92" font-size="18" font-weight="400" fill="#000000">Dependencies</tspan>
  </text>
  <g class="dg-icon" transform="translate(952 184)">
<path fill-rule="evenodd" clip-rule="evenodd" d="M12.789 7.83005C14.4743 7.08293 16.3386 6.83255 18.1611 7.10934C19.9836 7.38622 21.6898 8.17868 23.0771 9.39255C24.4644 10.6065 25.4758 12.1923 25.9922 13.9619C26.4804 15.6354 26.5049 17.4076 26.0693 19.0918L40.5361 33.5595C40.8331 33.8618 40.9999 34.2686 41 34.6924C40.9999 35.1161 40.8331 35.5229 40.5361 35.8252L35.8252 40.5361C35.5229 40.8331 35.1161 40.9999 34.6924 41C34.2686 40.9999 33.8618 40.8331 33.5595 40.5361L19.0918 26.0693C17.4076 26.5049 15.6354 26.4804 13.9619 25.9922C12.1923 25.4758 10.6065 24.4644 9.39255 23.0771C8.17868 21.6898 7.38622 19.9836 7.10934 18.1611C6.83255 16.3386 7.08293 14.4743 7.83005 12.789L8.12399 12.1259L13.8877 17.8466L17.8466 13.8877L12.1259 8.12399L12.789 7.83005ZM18.0107 8.0986C16.6207 7.88751 15.204 8.0185 13.8818 8.47458L19.2588 13.8906L13.8906 19.2588L8.47458 13.8818C8.0185 15.204 7.88751 16.6207 8.0986 18.0107C8.34684 19.6447 9.05717 21.1741 10.1455 22.4179C11.2339 23.6618 12.6555 24.5692 14.2422 25.0322C15.8287 25.495 17.5151 25.4945 19.1015 25.0312L19.3857 24.9482L19.5947 25.1582L34.2636 39.8261C34.3785 39.9374 34.5323 39.9999 34.6924 40C34.8538 39.9999 35.0088 39.9364 35.124 39.8232L39.8232 35.124C39.9364 35.0088 39.9999 34.8538 40 34.6924C39.9999 34.5323 39.9374 34.3785 39.8261 34.2636L25.1582 19.5947L24.9482 19.3857L25.0312 19.1015C25.4945 17.5151 25.495 15.8287 25.0322 14.2422C24.5692 12.6555 23.6618 11.2339 22.4179 10.1455C21.1741 9.05717 19.6447 8.34684 18.0107 8.0986Z" fill="#000000" />

<path d="M35.5 34.5C35.5 35.0523 35.0523 35.5 34.5 35.5C33.9477 35.5 33.5 35.0523 33.5 34.5C33.5 33.9477 33.9477 33.5 34.5 33.5C35.0523 33.5 35.5 33.9477 35.5 34.5Z" fill="#000000" />

  </g>
  <rect x="1016" y="176" width="192" height="64" fill="#FFFFFF" stroke="#000000" stroke-width="1" stroke-miterlimit="10" />
  <text font-family="Ubuntu Sans">
    <tspan x="1024" y="200.92" font-size="18" font-weight="400" fill="#000000">Reproducibility</tspan>
  </text>
  <g class="dg-icon" transform="translate(1152 184)">
<path d="M28.94 20.4401H16V36.4401H32V26.4101L33 25.0501V36.5401C32.95 37.0101 32.57 37.3801 32.1 37.4301H32H16C15.48 37.4301 15.06 37.0401 15 36.5301V36.4301V20.4301C15 19.8801 15.45 19.4301 16 19.4301H29.67L28.94 20.4301V20.4401Z" fill="#000000" />

<path d="M34.9 18.23L24.98 31.73C24.89 31.85 24.76 31.92 24.61 31.93C24.46 31.93 24.32 31.88 24.22 31.77L19.14 26.37L19.5 26.03L19.86 25.69L24.53 30.65L34.09 17.63L34.9 18.22V18.23Z" fill="#000000" />

<path d="M24 7.31006C24.56 7.31006 25 6.87006 25 6.31006C25 5.75006 24.56 5.31006 24 5.31006C23.44 5.31006 23 5.75006 23 6.31006C23 6.87006 23.44 7.31006 24 7.31006Z" fill="#000000" />

<path d="M37.65 7.14H30.06C29.68 4.8 27.67 3 25.23 3H22.77C20.33 3 18.32 4.8 17.94 7.14H10.5C9.67 7.14 9 7.81 9 8.64V43.44C9 44.27 9.67 44.94 10.5 44.94H37.65C38.41 44.86 39 44.22 39 43.44V8.64C39 7.86 38.41 7.22 37.65 7.15V7.14ZM18.86 8.51V7.92C18.86 5.76 20.62 4.01 22.77 4.01H25.23C27.39 4.01 29.14 5.77 29.14 7.92V8.51L29.47 8.63C31.03 9.18 31.96 10.43 31.96 11.97V13.67C31.96 13.87 31.8 14.02 31.61 14.02H16.39C16.19 14.02 16.04 13.86 16.04 13.67V11.97C16.04 10.43 16.97 9.18 18.53 8.63L18.86 8.51ZM38 43.44C38 43.72 37.78 43.94 37.5 43.94H10.5C10.22 43.94 10 43.72 10 43.44V8.64C10 8.36 10.22 8.14 10.5 8.14H17.23C15.86 8.97 15.04 10.36 15.04 11.97V13.67C15.04 14.42 15.65 15.02 16.39 15.02H31.61C32.36 15.02 32.96 14.41 32.96 13.67V11.97C32.96 10.36 32.14 8.97 30.77 8.14H37.5C37.78 8.14 38 8.36 38 8.64V43.44Z" fill="#000000" />

  </g>
  <rect x="1216" y="176" width="192" height="64" fill="#FFFFFF" stroke="#000000" stroke-width="1" stroke-miterlimit="10" />
  <text font-family="Ubuntu Sans">
    <tspan x="1224" y="200.92" font-size="18" font-weight="400" fill="#000000">Hardware</tspan>
    <tspan x="1224" y="224.92" font-size="18" font-weight="400" fill="#000000">config</tspan>
  </text>
  <g class="dg-icon" transform="translate(1352 184)">
<path fill-rule="evenodd" clip-rule="evenodd" d="M33.5 45H32.5V39H24.5V45H23.5V39H15.5V45H14.5V39H10.5C9.72334 39 9.08461 38.4097 9.00781 37.6533L9 37.5V33.5H3V32.5H9V24.5H3V23.5H9V15.5H3V14.5H9V10.5C9 9.67157 9.67157 9 10.5 9H14.5V3H15.5V9H23.5V3H24.5V9H32.5V3H33.5V9H37.5L37.6533 9.00781C38.4097 9.08461 39 9.72334 39 10.5V14.5H45V15.5H39V23.5H45V24.5H39V32.5H45V33.5H39V37.5L38.9922 37.6533C38.9205 38.3593 38.3593 38.9205 37.6533 38.9922L37.5 39H33.5V45ZM10.5 10C10.2239 10 10 10.2239 10 10.5V37.5C10 37.7761 10.2239 38 10.5 38H37.5C37.7761 38 38 37.7761 38 37.5V10.5C38 10.2239 37.7761 10 37.5 10H10.5Z" fill="#000000" />

<path fill-rule="evenodd" clip-rule="evenodd" d="M30 30H18V18H30V30ZM19 29H29V19H19V29Z" fill="#000000" />

  </g>
  <rect x="1416" y="176" width="192" height="64" fill="#FFFFFF" stroke="#000000" stroke-width="1" stroke-miterlimit="10" />
  <text font-family="Ubuntu Sans">
    <tspan x="1424" y="200.92" font-size="18" font-weight="400" fill="#000000">Operational</tspan>
    <tspan x="1424" y="224.92" font-size="18" font-weight="400" fill="#000000">observability</tspan>
  </text>
  <g class="dg-icon" transform="translate(1552 184)">
<path d="M7.5 40.5H42V41.5H6.5V6H7.5V40.5Z" fill="#000000" />

<path d="M12.5 37H11.5V20H12.5V37Z" fill="#000000" />

<path d="M18 24.8408C18.313 25.1559 18.6475 25.4493 19 25.7207V37H18V24.8408Z" fill="#000000" />

<path d="M25.5 37H24.5V29H25.5V37Z" fill="#000000" />

<path d="M32 30.5117V37H31V29.5117L32 30.5117Z" fill="#000000" />

<path d="M38.5 37H37.5V34.2695C37.8406 34.2423 38.1776 34.1656 38.5 34.0391V37Z" fill="#000000" />

<path d="M40.8535 9.14648L40.1465 9.85352L38.5 8.20703V26.9463L37.5 25.9463V8.20703L35.8535 9.85352L35.1465 9.14648L38 6.29297L40.8535 9.14648Z" fill="#000000" />

<path fill-rule="evenodd" clip-rule="evenodd" d="M25 9.5C29.6944 9.5 33.5 13.3056 33.5 18C33.5 20.2893 32.5929 22.3653 31.1211 23.8936L32.8311 25.6035C33.3976 25.3033 34.1165 25.3923 34.5938 25.8691L38.3633 29.6387C38.9488 30.2244 38.9489 31.174 38.3633 31.7598L38.2803 31.8428L38.166 31.9453C37.5769 32.4258 36.7084 32.3918 36.1592 31.8428L32.3896 28.0742C31.9124 27.597 31.8236 26.8773 32.124 26.3105L30.3867 24.5732C28.9202 25.7765 27.045 26.5 25 26.5C20.3056 26.5 16.5 22.6944 16.5 18C16.5 13.3056 20.3056 9.5 25 9.5ZM33.8867 26.5771C33.6915 26.3819 33.375 26.3819 33.1797 26.5771L33.0967 26.6592C32.9016 26.8543 32.9018 27.1709 33.0967 27.3662L36.8662 31.1357C37.0615 31.3308 37.378 31.3309 37.5732 31.1357L37.6562 31.0527C37.8513 30.8575 37.8513 30.5409 37.6562 30.3457L33.8867 26.5771ZM25 10.5C20.8579 10.5 17.5 13.8579 17.5 18C17.5 22.1421 20.8579 25.5 25 25.5C29.1421 25.5 32.5 22.1421 32.5 18C32.5 13.8579 29.1421 10.5 25 10.5Z" fill="#000000" />

<path d="M29.001 15.1094L24.0918 21.501L21 18.5957L21.6865 17.8672L23.9717 20.0146L28.208 14.5L29.001 15.1094Z" fill="#000000" />

  </g>
  <g data-component-id="hw_cpu">
  <rect x="0" y="280" width="192" height="64" fill="#FFFFFF" stroke="#000000" stroke-width="1" stroke-miterlimit="10" />
  <text font-family="Ubuntu Sans">
    <tspan x="8" y="304.92" font-size="18" font-weight="400" fill="#000000">CPU</tspan>
  </text>
  <g class="dg-icon" transform="translate(136 288)">
<path fill-rule="evenodd" clip-rule="evenodd" d="M33.5 45H32.5V39H24.5V45H23.5V39H15.5V45H14.5V39H10.5C9.72334 39 9.08461 38.4097 9.00781 37.6533L9 37.5V33.5H3V32.5H9V24.5H3V23.5H9V15.5H3V14.5H9V10.5C9 9.67157 9.67157 9 10.5 9H14.5V3H15.5V9H23.5V3H24.5V9H32.5V3H33.5V9H37.5L37.6533 9.00781C38.4097 9.08461 39 9.72334 39 10.5V14.5H45V15.5H39V23.5H45V24.5H39V32.5H45V33.5H39V37.5L38.9922 37.6533C38.9205 38.3593 38.3593 38.9205 37.6533 38.9922L37.5 39H33.5V45ZM10.5 10C10.2239 10 10 10.2239 10 10.5V37.5C10 37.7761 10.2239 38 10.5 38H37.5C37.7761 38 38 37.7761 38 37.5V10.5C38 10.2239 37.7761 10 37.5 10H10.5Z" fill="#000000" />

<path fill-rule="evenodd" clip-rule="evenodd" d="M30 30H18V18H30V30ZM19 29H29V19H19V29Z" fill="#000000" />

  </g>
  </g>
  <g data-component-id="hw_gpu">
  <rect x="200" y="280" width="192" height="64" fill="#F3F3F3" stroke="#000000" stroke-width="1" stroke-miterlimit="10" />
  <text font-family="Ubuntu Sans">
    <tspan x="208" y="304.92" font-size="18" font-weight="400" fill="#000000">GPU</tspan>
  </text>
  <g class="dg-icon" transform="translate(336 288)">
<path fill-rule="evenodd" clip-rule="evenodd" d="M38.5 42H37.5V36H31.5V42H30.5V36H24.5V42H23.5V36H17.5V42H16.5V36H10.5V42H9.5V36H4.5L4.34668 35.9922C3.59028 35.9154 3 35.2767 3 34.5V13.5C3 12.6716 3.67157 12 4.5 12H9.5V6H10.5V12H16.5V6H17.5V12H23.5V6H24.5V12H30.5V6H31.5V12H37.5V6H38.5V12H43.5C44.3284 12 45 12.6716 45 13.5V34.5C45 35.2767 44.4097 35.9154 43.6533 35.9922L43.5 36H38.5V42ZM4.5 13C4.22386 13 4 13.2239 4 13.5V34.5C4 34.7761 4.22386 35 4.5 35H43.5C43.7761 35 44 34.7761 44 34.5V13.5C44 13.2239 43.7761 13 43.5 13H4.5Z" fill="#000000" />

<path fill-rule="evenodd" clip-rule="evenodd" d="M15 30H9V18H15V30ZM10 29H14V19H10V29Z" fill="#000000" />

<path fill-rule="evenodd" clip-rule="evenodd" d="M23 30H17V18H23V30ZM18 29H22V19H18V29Z" fill="#000000" />

<path fill-rule="evenodd" clip-rule="evenodd" d="M31 30H25V18H31V30ZM26 29H30V19H26V29Z" fill="#000000" />

<path fill-rule="evenodd" clip-rule="evenodd" d="M39 30H33V18H39V30ZM34 29H38V19H34V29Z" fill="#000000" />

  </g>
  </g>
  <g data-component-id="hw_npu">
  <rect x="400" y="280" width="192" height="64" fill="#FFFFFF" stroke="#000000" stroke-width="1" stroke-miterlimit="10" />
  <text font-family="Ubuntu Sans">
    <tspan x="408" y="304.92" font-size="18" font-weight="400" fill="#000000">NPU</tspan>
  </text>
  <g class="dg-icon" transform="translate(536 288)">
<path fill-rule="evenodd" clip-rule="evenodd" d="M40.6533 6.00781C41.4097 6.08461 42 6.72334 42 7.5V40.5L41.9922 40.6533C41.9205 41.3593 41.3593 41.9205 40.6533 41.9922L40.5 42H7.5C6.72334 42 6.08461 41.4097 6.00781 40.6533L6 40.5V7.5C6 6.67157 6.67157 6 7.5 6H40.5L40.6533 6.00781ZM7.5 7C7.25829 7 7.05629 7.17145 7.00977 7.39941L7 7.5V40.5C7 40.7761 7.22386 41 7.5 41H40.5C40.7761 41 41 40.7761 41 40.5V7.5C41 7.25829 40.8286 7.05629 40.6006 7.00977L40.5 7H7.5Z" fill="#000000" />

<path fill-rule="evenodd" clip-rule="evenodd" d="M19.9248 15.5996H23.7256V11.4004H24.7256V15.5996H28.5254V11.4004H29.5254V15.5996H32.4004V18.7002H36.8252V19.7002H32.4004V23.5H36.8252V24.5H32.4004V28.2998H36.8252V29.2998H32.4004V32.3994H29.5254V36.5996H28.5254V32.3994H24.7256V36.5996H23.7256V32.3994H19.9248V36.5996H18.9248V32.3994H15.6006V29.2998H11.625V28.2998H15.6006V24.5H11.625V23.5H15.6006V19.7002H11.625V18.7002H15.6006V15.5996H18.9248V11.4004H19.9248V15.5996ZM16.6006 31.3994H31.4004V16.5996H16.6006V31.3994Z" fill="#000000" />

  </g>
  </g>
  <g data-component-id="frame.bottom-&gt;hw_cpu.top">
  <line x1="812" y1="256" x2="812" y2="268" fill="none" stroke="#E95420" stroke-width="1" stroke-miterlimit="10" />
  <line x1="812" y1="268" x2="96" y2="268" fill="none" stroke="#E95420" stroke-width="1" stroke-miterlimit="10" />
  <line x1="96" y1="268" x2="96" y2="269.1592" fill="none" stroke="#E95420" stroke-width="1" stroke-miterlimit="10" />
  <polygon points="93.0947,269.1592 96,280 98.9053,269.1592" fill="#E95420" />
  </g>
  <g data-component-id="frame.bottom-&gt;hw_gpu.top">
  <line x1="812" y1="256" x2="812" y2="268" fill="none" stroke="#E95420" stroke-width="1" stroke-miterlimit="10" />
  <line x1="812" y1="268" x2="296" y2="268" fill="none" stroke="#E95420" stroke-width="1" stroke-miterlimit="10" />
  <line x1="296" y1="268" x2="296" y2="269.1592" fill="none" stroke="#E95420" stroke-width="1" stroke-miterlimit="10" />
  <polygon points="293.0947,269.1592 296,280 298.9053,269.1592" fill="#E95420" />
  </g>
  <g data-component-id="frame.bottom-&gt;hw_npu.top">
  <line x1="812" y1="256" x2="812" y2="268" fill="none" stroke="#E95420" stroke-width="1" stroke-miterlimit="10" />
  <line x1="812" y1="268" x2="496" y2="268" fill="none" stroke="#E95420" stroke-width="1" stroke-miterlimit="10" />
  <line x1="496" y1="268" x2="496" y2="269.1592" fill="none" stroke="#E95420" stroke-width="1" stroke-miterlimit="10" />
  <polygon points="493.0947,269.1592 496,280 498.9053,269.1592" fill="#E95420" />
  </g>
</svg>
