<svg xmlns="http://www.w3.org/2000/svg" width="1256" height="408" viewBox="0 0 1256 408" xml:space="preserve">
  <rect width="1256" height="408" fill="#FFFFFF" />
  <g data-component-id="spec_typo">
  <rect x="0" y="0" width="192" height="120" fill="#F3F3F3" stroke="#000000" stroke-width="1" stroke-miterlimit="10" />
  <text font-family="Ubuntu Sans">
    <tspan x="8" y="24.92" font-size="18" font-weight="400" fill="#000000">Typography</tspan>
    <tspan x="8" y="48.92" font-size="18" font-weight="400" fill="#000000">spec</tspan>
  </text>
  <g class="dg-icon" transform="translate(136 8)">
<path d="M27 29H19.5V28H27V29Z" fill="#000000" />

<path d="M33 24.5H19.5V23.5H33V24.5Z" fill="#000000" />

<path d="M33 20H19.5V19H33V20Z" fill="#000000" />

<path d="M12 10.25H10.25V43.75H33.25V40.5H34.25V43.75C34.25 44.3023 33.8023 44.75 33.25 44.75H10.25C9.69772 44.75 9.25 44.3023 9.25 43.75V10.25C9.25 9.69772 9.69772 9.25 10.25 9.25H12V10.25Z" fill="#000000" />

<path fill-rule="evenodd" clip-rule="evenodd" d="M29.7842 3C29.9217 3 30.054 3.05634 30.1484 3.15625L38.8633 12.376C38.951 12.4688 39 12.592 39 12.7197V38.5C39 38.7761 38.7761 39 38.5 39H14C13.7239 39 13.5 38.7761 13.5 38.5V3.5C13.5 3.25829 13.6714 3.05629 13.8994 3.00977L14 3H29.7842ZM14.5 38H38V13H30C29.4477 13 29 12.5523 29 12V4H14.5V38ZM30 12H37.1328L30 4.45605V12Z" fill="#000000" />

  </g>
  </g>
  <g data-component-id="spec_spacing">
  <rect x="0" y="144" width="192" height="120" fill="#F3F3F3" stroke="#000000" stroke-width="1" stroke-miterlimit="10" />
  <text font-family="Ubuntu Sans">
    <tspan x="8" y="168.92" font-size="18" font-weight="400" fill="#000000">Spacing</tspan>
    <tspan x="8" y="192.92" font-size="18" font-weight="400" fill="#000000">spec</tspan>
  </text>
  <g class="dg-icon" transform="translate(136 152)">
<path d="M27 29H19.5V28H27V29Z" fill="#000000" />

<path d="M33 24.5H19.5V23.5H33V24.5Z" fill="#000000" />

<path d="M33 20H19.5V19H33V20Z" fill="#000000" />

<path d="M12 10.25H10.25V43.75H33.25V40.5H34.25V43.75C34.25 44.3023 33.8023 44.75 33.25 44.75H10.25C9.69772 44.75 9.25 44.3023 9.25 43.75V10.25C9.25 9.69772 9.69772 9.25 10.25 9.25H12V10.25Z" fill="#000000" />

<path fill-rule="evenodd" clip-rule="evenodd" d="M29.7842 3C29.9217 3 30.054 3.05634 30.1484 3.15625L38.8633 12.376C38.951 12.4688 39 12.592 39 12.7197V38.5C39 38.7761 38.7761 39 38.5 39H14C13.7239 39 13.5 38.7761 13.5 38.5V3.5C13.5 3.25829 13.6714 3.05629 13.8994 3.00977L14 3H29.7842ZM14.5 38H38V13H30C29.4477 13 29 12.5523 29 12V4H14.5V38ZM30 12H37.1328L30 4.45605V12Z" fill="#000000" />

  </g>
  </g>
  <g data-component-id="spec_grid">
  <rect x="0" y="288" width="192" height="120" fill="#F3F3F3" stroke="#000000" stroke-width="1" stroke-miterlimit="10" />
  <text font-family="Ubuntu Sans">
    <tspan x="8" y="312.92" font-size="18" font-weight="400" fill="#000000">Grid</tspan>
    <tspan x="8" y="336.92" font-size="18" font-weight="400" fill="#000000">spec</tspan>
  </text>
  <g class="dg-icon" transform="translate(136 296)">
<path d="M27 29H19.5V28H27V29Z" fill="#000000" />

<path d="M33 24.5H19.5V23.5H33V24.5Z" fill="#000000" />

<path d="M33 20H19.5V19H33V20Z" fill="#000000" />

<path d="M12 10.25H10.25V43.75H33.25V40.5H34.25V43.75C34.25 44.3023 33.8023 44.75 33.25 44.75H10.25C9.69772 44.75 9.25 44.3023 9.25 43.75V10.25C9.25 9.69772 9.69772 9.25 10.25 9.25H12V10.25Z" fill="#000000" />

<path fill-rule="evenodd" clip-rule="evenodd" d="M29.7842 3C29.9217 3 30.054 3.05634 30.1484 3.15625L38.8633 12.376C38.951 12.4688 39 12.592 39 12.7197V38.5C39 38.7761 38.7761 39 38.5 39H14C13.7239 39 13.5 38.7761 13.5 38.5V3.5C13.5 3.25829 13.6714 3.05629 13.8994 3.00977L14 3H29.7842ZM14.5 38H38V13H30C29.4477 13 29 12.5523 29 12V4H14.5V38ZM30 12H37.1328L30 4.45605V12Z" fill="#000000" />

  </g>
  </g>
  <g data-component-id="input_dg">
  <rect x="216" y="0" width="608" height="88" fill="#FFFFFF" stroke="#000000" stroke-width="1" stroke-miterlimit="10" />
  <text font-family="Ubuntu Sans">
    <tspan x="224" y="24.92" font-size="18" font-weight="400" fill="#000000">Rough</tspan>
    <tspan x="224" y="48.92" font-size="18" font-weight="400" fill="#000000">diagram</tspan>
  </text>
  <g class="dg-icon" transform="translate(768 8)">
<path d="M31.833 6.25C35.2388 6.25 38 9.01124 38 12.417V12.5127H37V12.417C37 9.56352 34.6865 7.25 31.833 7.25C28.9797 7.25018 26.667 9.56363 26.667 12.417V35.25C26.667 38.8397 23.7567 41.7498 20.167 41.75H19.5C15.9101 41.75 13 38.8399 13 35.25V32.4609H14V35.25C14 38.2876 16.4624 40.75 19.5 40.75H20.167C23.2044 40.7498 25.667 38.2875 25.667 35.25V12.417C25.667 9.01134 28.4274 6.25018 31.833 6.25Z" fill="#000000" />

<path d="M14 25.5H13V21H14V25.5Z" fill="#000000" />

<path fill-rule="evenodd" clip-rule="evenodd" d="M13.5 6C17.6421 6 21 9.35786 21 13.5V22.5C21 26.6421 17.6421 30 13.5 30C9.35786 30 6 26.6421 6 22.5V13.5C6 9.35786 9.35786 6 13.5 6ZM13.5 7C9.91015 7 7 9.91015 7 13.5V22.5C7 26.0899 9.91015 29 13.5 29C17.0899 29 20 26.0899 20 22.5V13.5C20 9.91015 17.0899 7 13.5 7Z" fill="#000000" />

<path fill-rule="evenodd" clip-rule="evenodd" d="M40.5 21V40C40.5 41.1046 39.6046 42 38.5 42H36.5C35.4644 42 34.613 41.2128 34.5107 40.2041L34.5 40V21L37.5 15L40.5 21ZM35.5 38.5V40C35.5 40.5523 35.9477 41 36.5 41H38.5C39.0523 41 39.5 40.5523 39.5 40V38.5H35.5ZM35.5 37.5H39.5V21.5H35.5V37.5ZM35.8682 20.5H39.1318L37.5 17.2363L35.8682 20.5Z" fill="#000000" />

  </g>
  </g>
  <g data-component-id="engine">
  <rect x="216" y="112" width="608" height="144" fill="#FFFFFF" stroke="#000000" stroke-width="1" stroke-miterlimit="10" />
  <text font-family="Ubuntu Sans">
    <tspan x="224" y="136.92" font-size="18" font-weight="700" fill="#000000">Design-language engine</tspan>
  </text>
  </g>
  <g data-component-id="eng_dg">
  <rect x="224" y="184" width="192" height="64" fill="#F3F3F3" stroke="#000000" stroke-width="1" stroke-miterlimit="10" />
  <text font-family="Ubuntu Sans">
    <tspan x="232" y="208.92" font-size="18" font-weight="400" fill="#000000">Diagram</tspan>
    <tspan x="232" y="232.92" font-size="18" font-weight="400" fill="#000000">generator</tspan>
  </text>
  <g class="dg-icon" transform="translate(360 192)">
<path fill-rule="evenodd" clip-rule="evenodd" d="M26.8809 3C27.0318 3 27.1766 3.06217 27.2803 3.17188L36.8496 13.2949C36.9459 13.3968 36.9999 13.5317 37 13.6719V34.5H36V14.4805H27.1172C26.5381 14.4802 26.0685 14.0107 26.0684 13.4316V4H10V41H19.4873L21.2305 42H9.54883C9.28354 41.9999 9.06185 41.8117 9.01074 41.5615L9 41.4512V3.54883C9.0001 3.24576 9.24576 3.0001 9.54883 3H26.8809ZM27.0684 13.4316C27.0685 13.4584 27.0904 13.4802 27.1172 13.4805H35.6494L27.0684 4.40234V13.4316Z" fill="#000000" />

<path fill-rule="evenodd" clip-rule="evenodd" d="M18.8992 38.9336C18.5644 38.7414 18.5644 38.2586 18.8992 38.0664L22.3846 36.0664C22.4603 36.023 22.5463 36 22.6336 36L37.9998 36C39.1044 36 39.9998 36.8954 39.9998 38V39C39.9998 40.1046 39.1044 41 37.9998 41L22.6336 41C22.5464 41 22.4603 40.977 22.3846 40.9336L18.8992 38.9336ZM36.9998 40H37.9998C38.5521 40 38.9998 39.5523 38.9998 39V38C38.9998 37.4477 38.5521 37 37.9998 37H36.9998V40ZM35.9998 40V37L22.9998 37L22.9998 40L35.9998 40ZM21.9998 39.5605L21.9998 37.4395L20.1522 38.5L21.9998 39.5605Z" fill="#000000" />

<path d="M17.2119 38C17.1708 38.1621 17.1498 38.3285 17.1494 38.4951L17.1396 38.5L17.1494 38.5059C17.1499 38.6722 17.1719 38.8381 17.2129 39H12V38H17.2119Z" fill="#000000" />

<path d="M20 36H12V35H20V36Z" fill="#000000" />

<path d="M24 33H12V32H24V33Z" fill="#000000" />

<path fill-rule="evenodd" clip-rule="evenodd" d="M23.001 19.4639C24.3814 19.4642 25.501 20.5834 25.501 21.9639C25.5008 23.3442 24.3813 24.4635 23.001 24.4639C21.6203 24.4639 20.5011 23.3445 20.501 21.9639C20.501 20.5832 21.6203 19.4639 23.001 19.4639ZM23.001 20.4639C22.1725 20.4639 21.501 21.1354 21.501 21.9639C21.5011 22.7922 22.1726 23.4639 23.001 23.4639C23.829 23.4635 24.5008 22.792 24.501 21.9639C24.501 21.1357 23.8291 20.4642 23.001 20.4639Z" fill="#000000" />

<path fill-rule="evenodd" clip-rule="evenodd" d="M25.376 15.6797L25.377 15.6836C25.4998 16.0609 25.7539 16.3765 26.0869 16.5723C26.4195 16.7676 26.8102 16.8314 27.1846 16.7539L28.9111 16.3984L30.7207 19.5811L29.5654 20.8994L29.5645 20.8984C29.3077 21.1925 29.165 21.5752 29.165 21.9727C29.1651 22.3696 29.3082 22.751 29.5645 23.0449L30.7207 24.3643L28.9111 27.5469L28.1992 27.3994L27.1855 27.1914L27.1846 27.1904C26.8102 27.113 26.4196 27.1776 26.0869 27.373C25.7538 27.5689 25.4997 27.8843 25.377 28.2617L25.374 28.2695L24.8193 29.9277H21.166L20.9463 29.2246L20.6416 28.2441L20.5889 28.1055C20.4535 27.7898 20.2229 27.5268 19.9316 27.3555C19.5989 27.1599 19.2075 27.0963 18.833 27.1738L17.1133 27.5283L15.2754 24.3604L16.4355 23.0371L16.4375 23.0342C16.6975 22.7394 16.8437 22.3553 16.8438 21.9551C16.8438 21.5548 16.6975 21.1708 16.4375 20.876L16.4355 20.873L15.2783 19.5527L17.0928 16.3896L18.8154 16.7451C19.1898 16.8225 19.5815 16.7588 19.9141 16.5635C20.247 16.3677 20.5012 16.0521 20.624 15.6748L20.626 15.6689L21.1797 14H24.8232L25.376 15.6797ZM21.5752 15.9834L21.4912 16.207C21.2728 16.7164 20.8983 17.144 20.4209 17.4248L20.2119 17.5352C19.7147 17.7687 19.1542 17.8366 18.6133 17.7246L17.5996 17.5156L16.501 19.4307L17.1875 20.2139C17.6098 20.6926 17.8438 21.3128 17.8438 21.9551L17.833 22.1943C17.7826 22.7498 17.557 23.2774 17.1875 23.6963L16.501 24.4795L17.6172 26.4033L18.6299 26.1943C19.2479 26.0663 19.8917 26.1726 20.4375 26.4932C20.9834 26.8141 21.3952 27.3279 21.5928 27.9355L21.9014 28.9277H24.0996L24.4258 27.9521C24.6234 27.3447 25.0343 26.8316 25.5801 26.5107C26.126 26.19 26.7695 26.0839 27.3877 26.2119L28.4014 26.4209L29.5 24.4883L28.8135 23.7051C28.4482 23.2873 28.2257 22.7628 28.1758 22.2109L28.165 21.9727C28.165 21.3344 28.3959 20.7179 28.8135 20.2402L29.5 19.457L28.4014 17.5244L27.3877 17.7334C26.7695 17.8614 26.1259 17.7543 25.5801 17.4336C25.1026 17.1529 24.7282 16.7252 24.5098 16.2158L24.4258 15.9922L24.0996 15H21.9014L21.5752 15.9834Z" fill="#000000" />

  </g>
  </g>
  <g data-component-id="eng_a4">
  <rect x="424" y="184" width="192" height="64" fill="#F3F3F3" stroke="#000000" stroke-width="1" stroke-miterlimit="10" />
  <text font-family="Ubuntu Sans">
    <tspan x="432" y="208.92" font-size="18" font-weight="400" fill="#000000">A4</tspan>
    <tspan x="432" y="232.92" font-size="18" font-weight="400" fill="#000000">generator</tspan>
  </text>
  <g class="dg-icon" transform="translate(560 192)">
<path d="M37.0498 28.6875L37.376 29.6797L37.377 29.6836C37.4998 30.0609 37.7539 30.3765 38.0869 30.5723C38.4195 30.7676 38.8102 30.8314 39.1846 30.7539L40.1992 30.5449L40.9111 30.3984L41.2705 31.0303L42.3691 32.9629L42.7207 33.5811L42.252 34.1162L41.5654 34.8994L41.5645 34.8984C41.3077 35.1925 41.165 35.5752 41.165 35.9727C41.1651 36.3696 41.3082 36.751 41.5645 37.0449L42.252 37.8291L42.7207 38.3643L42.3691 38.9824L41.2705 40.915L40.9111 41.5469L40.1992 41.3994L39.1855 41.1914L39.1846 41.1904C38.8102 41.113 38.4196 41.1776 38.0869 41.373C37.7538 41.5689 37.4997 41.8843 37.377 42.2617L37.374 42.2695L37.0479 43.2451L36.8193 43.9277H33.166L32.9463 43.2246L32.6416 42.2441L32.5889 42.1055C32.4535 41.7898 32.2229 41.5268 31.9316 41.3555C31.5989 41.1599 31.2075 41.0963 30.833 41.1738L29.8193 41.3828L29.1133 41.5283L28.752 40.9053L27.6357 38.9814L27.2754 38.3604L27.749 37.8203L28.4355 37.0371L28.4375 37.0342C28.6975 36.7394 28.8437 36.3553 28.8438 35.9551C28.8438 35.5548 28.6975 35.1708 28.4375 34.876L28.4355 34.873L27.749 34.0898L27.2783 33.5527L27.6338 32.9326L28.7324 31.0176L29.0928 30.3896L29.8018 30.5361L30.8154 30.7451C31.1898 30.8225 31.5815 30.7588 31.9141 30.5635C32.247 30.3677 32.5012 30.0521 32.624 29.6748L32.626 29.6689L32.9521 28.6855L33.1797 28H36.8232L37.0498 28.6875ZM33.5752 29.9834L33.4912 30.207C33.2728 30.7164 32.8983 31.144 32.4209 31.4248L32.2119 31.5352C31.7147 31.7687 31.1542 31.8366 30.6133 31.7246L29.5996 31.5156L28.501 33.4307L29.1875 34.2139C29.6098 34.6926 29.8438 35.3128 29.8438 35.9551L29.833 36.1943C29.7826 36.7498 29.557 37.2774 29.1875 37.6963L28.501 38.4795L29.6172 40.4033L30.6299 40.1943C31.2479 40.0663 31.8917 40.1726 32.4375 40.4932C32.9834 40.8141 33.3952 41.3279 33.5928 41.9355L33.9014 42.9277H36.0996L36.4258 41.9521C36.6234 41.3447 37.0343 40.8316 37.5801 40.5107C38.126 40.19 38.7695 40.0839 39.3877 40.2119L40.4014 40.4209L41.5 38.4883L40.8135 37.7051C40.4482 37.2873 40.2257 36.7628 40.1758 36.2109L40.165 35.9727C40.165 35.3344 40.3959 34.7179 40.8135 34.2402L41.5 33.457L40.4014 31.5244L39.3877 31.7334C38.7695 31.8614 38.1259 31.7543 37.5801 31.4336C37.1026 31.1529 36.7282 30.7252 36.5098 30.2158L36.4258 29.9922L36.0996 29H33.9014L33.5752 29.9834ZM35.001 33.4639C36.3814 33.4642 37.501 34.5834 37.501 35.9639C37.5008 37.3442 36.3813 38.4635 35.001 38.4639C33.6203 38.4639 32.5011 37.3445 32.501 35.9639C32.501 34.5832 33.6203 33.4639 35.001 33.4639ZM35.001 34.4639C34.1725 34.4639 33.501 35.1354 33.501 35.9639C33.5011 36.7922 34.1726 37.4639 35.001 37.4639C35.829 37.4635 36.5008 36.792 36.501 35.9639C36.501 35.1357 35.8291 34.4642 35.001 34.4639Z" fill="#000000" />

<path d="M26.8809 3C27.0318 3 27.1766 3.06217 27.2803 3.17188L36.8496 13.2949C36.9459 13.3968 36.9999 13.5317 37 13.6719V26H36V14.3828H27.1172C26.538 14.3826 26.0684 13.9122 26.0684 13.333V4H10V41H26.4951L27.0225 41.9072L27.0215 41.9082L27.0752 42H9.54883C9.28354 41.9999 9.06185 41.8117 9.01074 41.5615L9 41.4512V3.54883C9.0001 3.24576 9.24576 3.0001 9.54883 3H26.8809ZM23.8232 29.9316H15.5879V28.9316H23.8232V29.9316ZM30.4111 24.9902H15.5879V23.9902H30.4111V24.9902ZM30.4111 20.0488H15.5879V19.0488H30.4111V20.0488ZM27.0684 13.333C27.0684 13.3599 27.0903 13.3826 27.1172 13.3828H35.5566L27.0684 4.40234V13.333Z" fill="#000000" />

  </g>
  </g>
  <g data-component-id="eng_blo">
  <rect x="624" y="184" width="192" height="64" fill="#F3F3F3" stroke="#000000" stroke-width="1" stroke-miterlimit="10" />
  <text font-family="Ubuntu Sans">
    <tspan x="632" y="208.92" font-size="18" font-weight="400" fill="#000000">Brand layout</tspan>
    <tspan x="632" y="232.92" font-size="18" font-weight="400" fill="#000000">ops</tspan>
  </text>
  <g class="dg-icon" transform="translate(760 192)">
<path d="M39.5 26.5557C39.4999 32.5189 34.9609 37.4213 29.1494 37.998L30.7979 39.6465L30.0908 40.3535L27.293 37.5557L30.0908 34.7578L30.7979 35.4648L29.2881 36.9736C34.4792 36.3384 38.4999 31.9184 38.5 26.5557H39.5Z" fill="#000000" />

<path d="M20.707 10.4443L17.9092 13.2422L17.2021 12.5352L18.7109 11.0254C13.5203 11.661 9.50006 16.0819 9.5 21.4443H8.5C8.50006 15.4814 13.0385 10.5781 18.8496 10.001L17.2021 8.35352L17.9092 7.64648L20.707 10.4443Z" fill="#000000" />

<path fill-rule="evenodd" clip-rule="evenodd" d="M32.7578 5.42287C32.9084 5.33962 33.0916 5.33957 33.2422 5.42287L41.7422 10.1279C41.9009 10.216 41.9998 10.383 42 10.5645V19.9375C42 20.1193 41.9011 20.2869 41.7422 20.375L33.2422 25.0791C33.0915 25.1625 32.9085 25.1625 32.7578 25.0791L24.2578 20.375C24.0988 20.2869 24 20.1193 24 19.9375V10.5645C24.0002 10.3829 24.099 10.2159 24.2578 10.1279L32.7578 5.42287ZM25 19.6426L32.5 23.793V20.2842L28.6592 18.0899C28.5036 18.0009 28.4073 17.8355 28.4072 17.6563V13.332L25 11.4326V19.6426ZM37.5918 13.333V17.6563C37.5917 17.8356 37.4955 18.0009 37.3398 18.0899L33.5 20.2842V23.793L41 19.6426V11.4326L37.5918 13.333ZM29.4072 17.3653L32.5 19.1328V15.6153L29.4072 13.8897V17.3653ZM33.5 15.6153V19.1319L36.5918 17.3653V13.8906L33.5 15.6153ZM31.1992 12.2539L29.877 13.0069L32.999 14.7481L36.1201 13.0078L32.999 11.2246L31.1992 12.2539ZM25.5127 10.5742L28.8574 12.4395L32.752 10.2149C32.9056 10.1272 33.0945 10.1272 33.248 10.2149L37.1396 12.4395L40.4863 10.5742L33 6.43166L25.5127 10.5742Z" fill="#000000" />

<path fill-rule="evenodd" clip-rule="evenodd" d="M16.9414 25.5C19.4914 25.5002 21.5262 27.5886 21.5264 30.1426C21.5264 30.1801 21.523 30.2178 21.5215 30.2549C23.778 30.5521 25.5 32.4912 25.5 34.8574C25.4999 37.4114 23.465 39.4998 20.915 39.5H10.085C7.53499 39.4997 5.50013 37.4114 5.5 34.8574C5.5 32.8595 6.73411 31.078 8.60645 30.4629V30.1719C8.60645 28.4698 9.9745 27.0997 11.6523 27.0996C12.1965 27.0996 12.7195 27.2503 13.1826 27.5293C14.0258 26.2849 15.4282 25.5 16.9414 25.5ZM16.9414 26.5C15.6267 26.5 14.3944 27.2728 13.7764 28.4844L13.4805 29.0645L12.9971 28.6289C12.6101 28.2802 12.1402 28.0996 11.6523 28.0996C10.532 28.0997 9.60645 29.0168 9.60645 30.1719V31.2393L9.21875 31.3291C7.61249 31.702 6.5 33.1614 6.5 34.8574C6.50013 36.8743 8.10238 38.4997 10.085 38.5H20.915C22.8976 38.4998 24.4999 36.8743 24.5 34.8574C24.5 32.8393 22.9228 31.2389 20.9639 31.2139L20.3711 31.207L20.4785 30.623L20.4795 30.6221C20.4795 30.6221 20.4799 30.6183 20.4805 30.6152C20.4817 30.6083 20.4831 30.597 20.4854 30.583C20.4899 30.5549 20.4968 30.514 20.5029 30.4658C20.5157 30.3664 20.5264 30.247 20.5264 30.1426C20.5262 28.1256 18.924 26.5002 16.9414 26.5Z" fill="#000000" />

  </g>
  </g>
  <g data-component-id="editor">
  <rect x="216" y="280" width="608" height="88" fill="#FFFFFF" stroke="#000000" stroke-width="1" stroke-miterlimit="10" />
  <text font-family="Ubuntu Sans">
    <tspan x="224" y="304.92" font-size="18" font-weight="400" fill="#000000">Constrained</tspan>
    <tspan x="224" y="328.92" font-size="18" font-weight="400" fill="#000000">editor</tspan>
  </text>
  <g class="dg-icon" transform="translate(768 288)">
<path fill-rule="evenodd" clip-rule="evenodd" d="M46.5 36.75C46.5 38.3551 45.2394 39.6658 43.6543 39.7461L43.5 39.75H4.5L4.3457 39.7461C2.81166 39.6684 1.58163 38.4383 1.50391 36.9043L1.5 36.75V35.25H46.5V36.75ZM2.5 36.75C2.5 37.8546 3.39543 38.75 4.5 38.75H43.5C44.6046 38.75 45.5 37.8546 45.5 36.75V36.25H2.5V36.75Z" fill="#000000" />

<path d="M41.25 8.5C42.3546 8.5 43.25 9.39543 43.25 10.5V33.75H42.25V10.5C42.25 9.94772 41.8023 9.5 41.25 9.5H6.75C6.19772 9.5 5.75 9.94772 5.75 10.5V33.75H4.75V10.5C4.75 9.39543 5.64543 8.5 6.75 8.5H41.25Z" fill="#000000" />

<path d="M26.7246 15.9082L22.2246 29.4082L21.2754 29.0918L25.7754 15.5918L26.7246 15.9082Z" fill="#000000" />

<path d="M19.8203 19.1338L15.7803 22.5L19.8203 25.8662L19.1797 26.6338L14.2188 22.5L19.1797 18.3662L19.8203 19.1338Z" fill="#000000" />

<path d="M33.7812 22.5L28.8203 26.6338L28.1797 25.8662L32.2197 22.5L28.1797 19.1338L28.8203 18.3662L33.7812 22.5Z" fill="#000000" />

  </g>
  </g>
  <g data-component-id="out_svg">
  <rect x="216" y="392" width="608" height="88" fill="#F3F3F3" stroke="#000000" stroke-width="1" stroke-miterlimit="10" />
  <text font-family="Ubuntu Sans">
    <tspan x="224" y="416.92" font-size="18" font-weight="400" fill="#000000">SVG</tspan>
  </text>
  <g class="dg-icon" transform="translate(768 400)">
<path d="M31.833 6.25C35.2388 6.25 38 9.01124 38 12.417V12.5127H37V12.417C37 9.56352 34.6865 7.25 31.833 7.25C28.9797 7.25018 26.667 9.56363 26.667 12.417V35.25C26.667 38.8397 23.7567 41.7498 20.167 41.75H19.5C15.9101 41.75 13 38.8399 13 35.25V32.4609H14V35.25C14 38.2876 16.4624 40.75 19.5 40.75H20.167C23.2044 40.7498 25.667 38.2875 25.667 35.25V12.417C25.667 9.01134 28.4274 6.25018 31.833 6.25Z" fill="#000000" />

<path d="M14 25.5H13V21H14V25.5Z" fill="#000000" />

<path fill-rule="evenodd" clip-rule="evenodd" d="M13.5 6C17.6421 6 21 9.35786 21 13.5V22.5C21 26.6421 17.6421 30 13.5 30C9.35786 30 6 26.6421 6 22.5V13.5C6 9.35786 9.35786 6 13.5 6ZM13.5 7C9.91015 7 7 9.91015 7 13.5V22.5C7 26.0899 9.91015 29 13.5 29C17.0899 29 20 26.0899 20 22.5V13.5C20 9.91015 17.0899 7 13.5 7Z" fill="#000000" />

<path fill-rule="evenodd" clip-rule="evenodd" d="M40.5 21V40C40.5 41.1046 39.6046 42 38.5 42H36.5C35.4644 42 34.613 41.2128 34.5107 40.2041L34.5 40V21L37.5 15L40.5 21ZM35.5 38.5V40C35.5 40.5523 35.9477 41 36.5 41H38.5C39.0523 41 39.5 40.5523 39.5 40V38.5H35.5ZM35.5 37.5H39.5V21.5H35.5V37.5ZM35.8682 20.5H39.1318L37.5 17.2363L35.8682 20.5Z" fill="#000000" />

  </g>
  </g>
  <g data-component-id="input_a4">
  <rect x="848" y="0" width="192" height="192" fill="#FFFFFF" stroke="#000000" stroke-width="1" stroke-miterlimit="10" />
  <text font-family="Ubuntu Sans">
    <tspan x="856" y="24.92" font-size="18" font-weight="400" fill="#000000">Copydoc</tspan>
  </text>
  <g class="dg-icon" transform="translate(984 8)">
<path d="M24.8232 33.0488H16.5879V31.9512H24.8232V33.0488Z" fill="#000000" />

<path d="M31.4111 28.1074H16.5879V27.0098H31.4111V28.1074Z" fill="#000000" />

<path d="M31.4111 23.166H16.5879V22.0684H31.4111V23.166Z" fill="#000000" />

<path fill-rule="evenodd" clip-rule="evenodd" d="M27.8809 4.5C28.0318 4.5 28.1766 4.56217 28.2803 4.67188L37.8496 14.7949C37.9459 14.8968 37.9999 15.0317 38 15.1719V42.9512L37.9893 43.0615C37.9454 43.2761 37.7761 43.4454 37.5615 43.4893L37.4512 43.5H10.5488C10.2835 43.4999 10.0619 43.3117 10.0107 43.0615L10 42.9512V5.04883C10.0001 4.74576 10.2458 4.5001 10.5488 4.5H27.8809ZM11.0977 42.4023H36.9023V16.0293H28.1172C27.511 16.029 27.0195 15.5369 27.0195 14.9307V5.59766H11.0977V42.4023ZM28.1172 14.9307H36.4668L28.1172 6.09766V14.9307Z" fill="#000000" />

  </g>
  </g>
  <g data-component-id="out_pdf">
  <rect x="848" y="216" width="192" height="192" fill="#F3F3F3" stroke="#000000" stroke-width="1" stroke-miterlimit="10" />
  <text font-family="Ubuntu Sans">
    <tspan x="856" y="240.92" font-size="18" font-weight="400" fill="#000000">PDF</tspan>
  </text>
  <g class="dg-icon" transform="translate(984 224)">
<path d="M24.8232 33.0488H16.5879V31.9512H24.8232V33.0488Z" fill="#000000" />

<path d="M31.4111 28.1074H16.5879V27.0098H31.4111V28.1074Z" fill="#000000" />

<path d="M31.4111 23.166H16.5879V22.0684H31.4111V23.166Z" fill="#000000" />

<path fill-rule="evenodd" clip-rule="evenodd" d="M27.8809 4.5C28.0318 4.5 28.1766 4.56217 28.2803 4.67188L37.8496 14.7949C37.9459 14.8968 37.9999 15.0317 38 15.1719V42.9512L37.9893 43.0615C37.9454 43.2761 37.7761 43.4454 37.5615 43.4893L37.4512 43.5H10.5488C10.2835 43.4999 10.0619 43.3117 10.0107 43.0615L10 42.9512V5.04883C10.0001 4.74576 10.2458 4.5001 10.5488 4.5H27.8809ZM11.0977 42.4023H36.9023V16.0293H28.1172C27.511 16.029 27.0195 15.5369 27.0195 14.9307V5.59766H11.0977V42.4023ZM28.1172 14.9307H36.4668L28.1172 6.09766V14.9307Z" fill="#000000" />

  </g>
  </g>
  <g data-component-id="input_blo">
  <rect x="1064" y="0" width="192" height="192" fill="#FFFFFF" stroke="#000000" stroke-width="1" stroke-miterlimit="10" />
  <text font-family="Ubuntu Sans">
    <tspan x="1072" y="24.92" font-size="18" font-weight="400" fill="#000000">Marketing</tspan>
    <tspan x="1072" y="48.92" font-size="18" font-weight="400" fill="#000000">brief</tspan>
  </text>
  <g class="dg-icon" transform="translate(1200 8)">
<path fill-rule="evenodd" clip-rule="evenodd" d="M45 28.5L40.1553 31.4102L45.6299 36.8848L41.3848 41.1299L35.9102 35.6553L33 40.5L27 22.5L45 28.5ZM33.2607 38.1221L35.7119 34.043L41.3848 39.7158L44.2158 36.8848L38.543 31.2119L42.6221 28.7607L28.5801 24.0801L33.2607 38.1221Z" fill="#000000" />

<path d="M36.9541 6.26074C37.9628 6.363 38.75 7.21435 38.75 8.25V24H37.75V8.25C37.75 7.73232 37.3567 7.30621 36.8525 7.25488L36.75 7.25H8.25C7.69772 7.25 7.25 7.69772 7.25 8.25V27.75C7.25 28.3023 7.69772 28.75 8.25 28.75H13.25V34.793L19.293 28.75H27V29.75H19.707L12.25 37.207V29.75H8.25C7.14543 29.75 6.25 28.8546 6.25 27.75V8.25C6.25 7.14543 7.14543 6.25 8.25 6.25H36.75L36.9541 6.26074Z" fill="#000000" />

  </g>
  </g>
  <g data-component-id="out_mp4">
  <rect x="1064" y="216" width="192" height="192" fill="#F3F3F3" stroke="#000000" stroke-width="1" stroke-miterlimit="10" />
  <text font-family="Ubuntu Sans">
    <tspan x="1072" y="240.92" font-size="18" font-weight="400" fill="#000000">MP4 / PNG</tspan>
  </text>
  <g class="dg-icon" transform="translate(1200 224)">
<path fill-rule="evenodd" clip-rule="evenodd" d="M40.6533 6.00781C41.4097 6.08461 42 6.72334 42 7.5V40.5L41.9922 40.6533C41.9205 41.3593 41.3593 41.9205 40.6533 41.9922L40.5 42H7.5C6.72334 42 6.08461 41.4097 6.00781 40.6533L6 40.5V7.5C6 6.67157 6.67157 6 7.5 6H40.5L40.6533 6.00781ZM7 40.5C7 40.7761 7.22386 41 7.5 41H40.5C40.7761 41 41 40.7761 41 40.5V16H7V40.5ZM7.5 7C7.22386 7 7 7.22386 7 7.5V15H16.7119L21.3301 7H7.5ZM27.3652 15H41V7.5C41 7.22386 40.7761 7 40.5 7H31.9844L27.3652 15ZM17.8652 15H26.2119L30.8301 7H22.4844L17.8652 15Z" fill="#000000" />

<path fill-rule="evenodd" clip-rule="evenodd" d="M18.752 20.5653C18.9077 20.4764 19.0994 20.4781 19.2539 20.5692L30.2539 27.0692C30.4061 27.1591 30.5 27.3231 30.5 27.4999C30.5 27.6767 30.4061 27.8406 30.2539 27.9305L19.2539 34.4305C19.0994 34.5216 18.9077 34.5233 18.752 34.4344C18.5961 34.3454 18.5 34.1793 18.5 33.9999V20.9999C18.5 20.8204 18.5961 20.6542 18.752 20.5653ZM19.5 33.1229L29.0166 27.4999L19.5 21.8758V33.1229Z" fill="#000000" />

  </g>
  </g>
  <g data-component-id="input_dg.bottom-&gt;engine.top">
  <line x1="520" y1="88" x2="520" y2="100" fill="none" stroke="#E95420" stroke-width="1" stroke-miterlimit="10" />
  <line x1="520" y1="100" x2="520" y2="100" fill="none" stroke="#E95420" stroke-width="1" stroke-miterlimit="10" />
  <line x1="520" y1="100" x2="520" y2="101.1592" fill="none" stroke="#E95420" stroke-width="1" stroke-miterlimit="10" />
  <polygon points="517.0947,101.1592 520,112 522.9053,101.1592" fill="#E95420" />
  </g>
  <g data-component-id="input_a4.bottom-&gt;engine.top">
  <line x1="944" y1="192" x2="944" y2="152" fill="none" stroke="#E95420" stroke-width="1" stroke-miterlimit="10" />
  <line x1="944" y1="152" x2="520" y2="152" fill="none" stroke="#E95420" stroke-width="1" stroke-miterlimit="10" />
  <line x1="520" y1="152" x2="520" y2="122.8408" fill="none" stroke="#E95420" stroke-width="1" stroke-miterlimit="10" />
  <polygon points="517.0947,122.8408 520,112 522.9053,122.8408" fill="#E95420" />
  </g>
  <g data-component-id="input_blo.bottom-&gt;engine.top">
  <line x1="1160" y1="192" x2="1160" y2="152" fill="none" stroke="#E95420" stroke-width="1" stroke-miterlimit="10" />
  <line x1="1160" y1="152" x2="520" y2="152" fill="none" stroke="#E95420" stroke-width="1" stroke-miterlimit="10" />
  <line x1="520" y1="152" x2="520" y2="122.8408" fill="none" stroke="#E95420" stroke-width="1" stroke-miterlimit="10" />
  <polygon points="517.0947,122.8408 520,112 522.9053,122.8408" fill="#E95420" />
  </g>
  <g data-component-id="spec_typo.right-&gt;engine.left">
  <line x1="192" y1="60" x2="204" y2="60" fill="none" stroke="#E95420" stroke-width="1" stroke-miterlimit="10" />
  <line x1="204" y1="60" x2="204" y2="184" fill="none" stroke="#E95420" stroke-width="1" stroke-miterlimit="10" />
  <line x1="204" y1="184" x2="205.1592" y2="184" fill="none" stroke="#E95420" stroke-width="1" stroke-miterlimit="10" />
  <polygon points="205.1592,181.0947 216,184 205.1592,186.9053" fill="#E95420" />
  </g>
  <g data-component-id="spec_spacing.right-&gt;engine.left">
  <line x1="192" y1="204" x2="204" y2="204" fill="none" stroke="#E95420" stroke-width="1" stroke-miterlimit="10" />
  <line x1="204" y1="204" x2="204" y2="184" fill="none" stroke="#E95420" stroke-width="1" stroke-miterlimit="10" />
  <line x1="204" y1="184" x2="205.1592" y2="184" fill="none" stroke="#E95420" stroke-width="1" stroke-miterlimit="10" />
  <polygon points="205.1592,181.0947 216,184 205.1592,186.9053" fill="#E95420" />
  </g>
  <g data-component-id="spec_grid.right-&gt;engine.left">
  <line x1="192" y1="348" x2="204" y2="348" fill="none" stroke="#E95420" stroke-width="1" stroke-miterlimit="10" />
  <line x1="204" y1="348" x2="204" y2="184" fill="none" stroke="#E95420" stroke-width="1" stroke-miterlimit="10" />
  <line x1="204" y1="184" x2="205.1592" y2="184" fill="none" stroke="#E95420" stroke-width="1" stroke-miterlimit="10" />
  <polygon points="205.1592,181.0947 216,184 205.1592,186.9053" fill="#E95420" />
  </g>
  <g data-component-id="engine.bottom-&gt;editor.top">
  <line x1="520" y1="256" x2="520" y2="268" fill="none" stroke="#E95420" stroke-width="1" stroke-miterlimit="10" />
  <line x1="520" y1="268" x2="520" y2="268" fill="none" stroke="#E95420" stroke-width="1" stroke-miterlimit="10" />
  <line x1="520" y1="268" x2="520" y2="269.1592" fill="none" stroke="#E95420" stroke-width="1" stroke-miterlimit="10" />
  <polygon points="517.0947,269.1592 520,280 522.9053,269.1592" fill="#E95420" />
  </g>
  <g data-component-id="editor.bottom-&gt;out_svg.top">
  <line x1="520" y1="368" x2="520" y2="380" fill="none" stroke="#E95420" stroke-width="1" stroke-miterlimit="10" />
  <line x1="520" y1="380" x2="520" y2="380" fill="none" stroke="#E95420" stroke-width="1" stroke-miterlimit="10" />
  <line x1="520" y1="380" x2="520" y2="381.1592" fill="none" stroke="#E95420" stroke-width="1" stroke-miterlimit="10" />
  <polygon points="517.0947,381.1592 520,392 522.9053,381.1592" fill="#E95420" />
  </g>
  <g data-component-id="editor.bottom-&gt;out_pdf.top">
  <line x1="520" y1="368" x2="520" y2="292" fill="none" stroke="#E95420" stroke-width="1" stroke-miterlimit="10" />
  <line x1="520" y1="292" x2="944" y2="292" fill="none" stroke="#E95420" stroke-width="1" stroke-miterlimit="10" />
  <line x1="944" y1="292" x2="944" y2="226.8408" fill="none" stroke="#E95420" stroke-width="1" stroke-miterlimit="10" />
  <polygon points="941.0947,226.8408 944,216 946.9053,226.8408" fill="#E95420" />
  </g>
  <g data-component-id="editor.bottom-&gt;out_mp4.top">
  <line x1="520" y1="368" x2="520" y2="292" fill="none" stroke="#E95420" stroke-width="1" stroke-miterlimit="10" />
  <line x1="520" y1="292" x2="1160" y2="292" fill="none" stroke="#E95420" stroke-width="1" stroke-miterlimit="10" />
  <line x1="1160" y1="292" x2="1160" y2="226.8408" fill="none" stroke="#E95420" stroke-width="1" stroke-miterlimit="10" />
  <polygon points="1157.0947,226.8408 1160,216 1162.9053,226.8408" fill="#E95420" />
  </g>
</svg>
