<svg xmlns="http://www.w3.org/2000/svg" width="640" height="624" viewBox="0 0 640 624" xml:space="preserve">
  <rect width="640" height="624" fill="#FFFFFF" />
  <g data-component-id="guidelines">
  <rect x="0" y="0" width="208" height="624" fill="#F3F3F3" stroke="none" stroke-width="1" stroke-miterlimit="10" />
  <text font-family="Ubuntu Sans">
    <tspan x="8" y="24.92" font-size="18" font-weight="700" fill="#000000">1. Guidelines</tspan>
  </text>
  </g>
  <g data-component-id="typo">
  <rect x="8" y="72" width="192" height="64" fill="#FFFFFF" stroke="#000000" stroke-width="1" stroke-miterlimit="10" />
  <text font-family="Ubuntu Sans">
    <tspan x="16" y="96.92" font-size="18" font-weight="400" fill="#000000">Typography</tspan>
  </text>
  <g class="dg-icon" transform="translate(144 80)">
<path d="M24.8232 33.0488H16.5879V31.9512H24.8232V33.0488Z" fill="#000000" />

<path d="M31.4111 28.1074H16.5879V27.0098H31.4111V28.1074Z" fill="#000000" />

<path d="M31.4111 23.166H16.5879V22.0684H31.4111V23.166Z" fill="#000000" />

<path fill-rule="evenodd" clip-rule="evenodd" d="M27.8809 4.5C28.0318 4.5 28.1766 4.56217 28.2803 4.67188L37.8496 14.7949C37.9459 14.8968 37.9999 15.0317 38 15.1719V42.9512L37.9893 43.0615C37.9454 43.2761 37.7761 43.4454 37.5615 43.4893L37.4512 43.5H10.5488C10.2835 43.4999 10.0619 43.3117 10.0107 43.0615L10 42.9512V5.04883C10.0001 4.74576 10.2458 4.5001 10.5488 4.5H27.8809ZM11.0977 42.4023H36.9023V16.0293H28.1172C27.511 16.029 27.0195 15.5369 27.0195 14.9307V5.59766H11.0977V42.4023ZM28.1172 14.9307H36.4668L28.1172 6.09766V14.9307Z" fill="#000000" />

  </g>
  </g>
  <g data-component-id="spacing_guide">
  <rect x="8" y="144" width="192" height="64" fill="#FFFFFF" stroke="#000000" stroke-width="1" stroke-miterlimit="10" />
  <text font-family="Ubuntu Sans">
    <tspan x="16" y="168.92" font-size="18" font-weight="400" fill="#000000">Spacing</tspan>
  </text>
  <g class="dg-icon" transform="translate(144 152)">
<path d="M24.8232 33.0488H16.5879V31.9512H24.8232V33.0488Z" fill="#000000" />

<path d="M31.4111 28.1074H16.5879V27.0098H31.4111V28.1074Z" fill="#000000" />

<path d="M31.4111 23.166H16.5879V22.0684H31.4111V23.166Z" fill="#000000" />

<path fill-rule="evenodd" clip-rule="evenodd" d="M27.8809 4.5C28.0318 4.5 28.1766 4.56217 28.2803 4.67188L37.8496 14.7949C37.9459 14.8968 37.9999 15.0317 38 15.1719V42.9512L37.9893 43.0615C37.9454 43.2761 37.7761 43.4454 37.5615 43.4893L37.4512 43.5H10.5488C10.2835 43.4999 10.0619 43.3117 10.0107 43.0615L10 42.9512V5.04883C10.0001 4.74576 10.2458 4.5001 10.5488 4.5H27.8809ZM11.0977 42.4023H36.9023V16.0293H28.1172C27.511 16.029 27.0195 15.5369 27.0195 14.9307V5.59766H11.0977V42.4023ZM28.1172 14.9307H36.4668L28.1172 6.09766V14.9307Z" fill="#000000" />

  </g>
  </g>
  <g data-component-id="layout_guide">
  <rect x="8" y="216" width="192" height="64" fill="#FFFFFF" stroke="#000000" stroke-width="1" stroke-miterlimit="10" />
  <text font-family="Ubuntu Sans">
    <tspan x="16" y="240.92" font-size="18" font-weight="400" fill="#000000">Layout</tspan>
  </text>
  <g class="dg-icon" transform="translate(144 224)">
<path d="M24.8232 33.0488H16.5879V31.9512H24.8232V33.0488Z" fill="#000000" />

<path d="M31.4111 28.1074H16.5879V27.0098H31.4111V28.1074Z" fill="#000000" />

<path d="M31.4111 23.166H16.5879V22.0684H31.4111V23.166Z" fill="#000000" />

<path fill-rule="evenodd" clip-rule="evenodd" d="M27.8809 4.5C28.0318 4.5 28.1766 4.56217 28.2803 4.67188L37.8496 14.7949C37.9459 14.8968 37.9999 15.0317 38 15.1719V42.9512L37.9893 43.0615C37.9454 43.2761 37.7761 43.4454 37.5615 43.4893L37.4512 43.5H10.5488C10.2835 43.4999 10.0619 43.3117 10.0107 43.0615L10 42.9512V5.04883C10.0001 4.74576 10.2458 4.5001 10.5488 4.5H27.8809ZM11.0977 42.4023H36.9023V16.0293H28.1172C27.511 16.029 27.0195 15.5369 27.0195 14.9307V5.59766H11.0977V42.4023ZM28.1172 14.9307H36.4668L28.1172 6.09766V14.9307Z" fill="#000000" />

  </g>
  </g>
  <g data-component-id="input_panel">
  <rect x="232" y="0" width="408" height="192" fill="#F3F3F3" stroke="none" stroke-width="1" stroke-miterlimit="10" />
  <text font-family="Ubuntu Sans">
    <tspan x="240" y="24.92" font-size="18" font-weight="700" fill="#000000">2. Input</tspan>
  </text>
  </g>
  <g data-component-id="brief">
  <rect x="240" y="72" width="192" height="112" fill="#FFFFFF" stroke="#000000" stroke-width="1" stroke-miterlimit="10" />
  <text font-family="Ubuntu Sans">
    <tspan x="248" y="96.92" font-size="18" font-weight="400" fill="#000000">Marketing</tspan>
    <tspan x="248" y="120.92" font-size="18" font-weight="400" fill="#000000">brief</tspan>
  </text>
  <g class="dg-icon" transform="translate(376 80)">
<path fill-rule="evenodd" clip-rule="evenodd" d="M45 28.5L40.1553 31.4102L45.6299 36.8848L41.3848 41.1299L35.9102 35.6553L33 40.5L27 22.5L45 28.5ZM33.2607 38.1221L35.7119 34.043L41.3848 39.7158L44.2158 36.8848L38.543 31.2119L42.6221 28.7607L28.5801 24.0801L33.2607 38.1221Z" fill="#000000" />

<path d="M36.9541 6.26074C37.9628 6.363 38.75 7.21435 38.75 8.25V24H37.75V8.25C37.75 7.73232 37.3567 7.30621 36.8525 7.25488L36.75 7.25H8.25C7.69772 7.25 7.25 7.69772 7.25 8.25V27.75C7.25 28.3023 7.69772 28.75 8.25 28.75H13.25V34.793L19.293 28.75H27V29.75H19.707L12.25 37.207V29.75H8.25C7.14543 29.75 6.25 28.8546 6.25 27.75V8.25C6.25 7.14543 7.14543 6.25 8.25 6.25H36.75L36.9541 6.26074Z" fill="#000000" />

  </g>
  </g>
  <g data-component-id="formats">
  <rect x="440" y="72" width="192" height="112" fill="#FFFFFF" stroke="#000000" stroke-width="1" stroke-miterlimit="10" />
  <text font-family="Ubuntu Sans">
    <tspan x="448" y="96.92" font-size="18" font-weight="400" fill="#000000">Format</tspan>
    <tspan x="448" y="120.92" font-size="18" font-weight="400" fill="#000000">requirements</tspan>
  </text>
  <g class="dg-icon" transform="translate(576 80)">
<path d="M27 29H19.5V28H27V29Z" fill="#000000" />

<path d="M33 24.5H19.5V23.5H33V24.5Z" fill="#000000" />

<path d="M33 20H19.5V19H33V20Z" fill="#000000" />

<path d="M12 10.25H10.25V43.75H33.25V40.5H34.25V43.75C34.25 44.3023 33.8023 44.75 33.25 44.75H10.25C9.69772 44.75 9.25 44.3023 9.25 43.75V10.25C9.25 9.69772 9.69772 9.25 10.25 9.25H12V10.25Z" fill="#000000" />

<path fill-rule="evenodd" clip-rule="evenodd" d="M29.7842 3C29.9217 3 30.054 3.05634 30.1484 3.15625L38.8633 12.376C38.951 12.4688 39 12.592 39 12.7197V38.5C39 38.7761 38.7761 39 38.5 39H14C13.7239 39 13.5 38.7761 13.5 38.5V3.5C13.5 3.25829 13.6714 3.05629 13.8994 3.00977L14 3H29.7842ZM14.5 38H38V13H30C29.4477 13 29 12.5523 29 12V4H14.5V38ZM30 12H37.1328L30 4.45605V12Z" fill="#000000" />

  </g>
  </g>
  <g data-component-id="engine">
  <rect x="232" y="216" width="408" height="288" fill="#F3F3F3" stroke="none" stroke-width="1" stroke-miterlimit="10" />
  <text font-family="Ubuntu Sans">
    <tspan x="240" y="240.92" font-size="18" font-weight="700" fill="#000000">3. Engine</tspan>
  </text>
  </g>
  <g data-component-id="layout_engine">
  <rect x="240" y="288" width="392" height="64" fill="#FFFFFF" stroke="#000000" stroke-width="1" stroke-miterlimit="10" />
  <text font-family="Ubuntu Sans">
    <tspan x="248" y="312.92" font-size="18" font-weight="400" fill="#000000">Layout engine</tspan>
  </text>
  <g class="dg-icon" transform="translate(576 296)">
<path d="M39.5 26.5557C39.4999 32.5189 34.9609 37.4213 29.1494 37.998L30.7979 39.6465L30.0908 40.3535L27.293 37.5557L30.0908 34.7578L30.7979 35.4648L29.2881 36.9736C34.4792 36.3384 38.4999 31.9184 38.5 26.5557H39.5Z" fill="#000000" />

<path d="M20.707 10.4443L17.9092 13.2422L17.2021 12.5352L18.7109 11.0254C13.5203 11.661 9.50006 16.0819 9.5 21.4443H8.5C8.50006 15.4814 13.0385 10.5781 18.8496 10.001L17.2021 8.35352L17.9092 7.64648L20.707 10.4443Z" fill="#000000" />

<path fill-rule="evenodd" clip-rule="evenodd" d="M32.7578 5.42287C32.9084 5.33962 33.0916 5.33957 33.2422 5.42287L41.7422 10.1279C41.9009 10.216 41.9998 10.383 42 10.5645V19.9375C42 20.1193 41.9011 20.2869 41.7422 20.375L33.2422 25.0791C33.0915 25.1625 32.9085 25.1625 32.7578 25.0791L24.2578 20.375C24.0988 20.2869 24 20.1193 24 19.9375V10.5645C24.0002 10.3829 24.099 10.2159 24.2578 10.1279L32.7578 5.42287ZM25 19.6426L32.5 23.793V20.2842L28.6592 18.0899C28.5036 18.0009 28.4073 17.8355 28.4072 17.6563V13.332L25 11.4326V19.6426ZM37.5918 13.333V17.6563C37.5917 17.8356 37.4955 18.0009 37.3398 18.0899L33.5 20.2842V23.793L41 19.6426V11.4326L37.5918 13.333ZM29.4072 17.3653L32.5 19.1328V15.6153L29.4072 13.8897V17.3653ZM33.5 15.6153V19.1319L36.5918 17.3653V13.8906L33.5 15.6153ZM31.1992 12.2539L29.877 13.0069L32.999 14.7481L36.1201 13.0078L32.999 11.2246L31.1992 12.2539ZM25.5127 10.5742L28.8574 12.4395L32.752 10.2149C32.9056 10.1272 33.0945 10.1272 33.248 10.2149L37.1396 12.4395L40.4863 10.5742L33 6.43166L25.5127 10.5742Z" fill="#000000" />

<path fill-rule="evenodd" clip-rule="evenodd" d="M16.9414 25.5C19.4914 25.5002 21.5262 27.5886 21.5264 30.1426C21.5264 30.1801 21.523 30.2178 21.5215 30.2549C23.778 30.5521 25.5 32.4912 25.5 34.8574C25.4999 37.4114 23.465 39.4998 20.915 39.5H10.085C7.53499 39.4997 5.50013 37.4114 5.5 34.8574C5.5 32.8595 6.73411 31.078 8.60645 30.4629V30.1719C8.60645 28.4698 9.9745 27.0997 11.6523 27.0996C12.1965 27.0996 12.7195 27.2503 13.1826 27.5293C14.0258 26.2849 15.4282 25.5 16.9414 25.5ZM16.9414 26.5C15.6267 26.5 14.3944 27.2728 13.7764 28.4844L13.4805 29.0645L12.9971 28.6289C12.6101 28.2802 12.1402 28.0996 11.6523 28.0996C10.532 28.0997 9.60645 29.0168 9.60645 30.1719V31.2393L9.21875 31.3291C7.61249 31.702 6.5 33.1614 6.5 34.8574C6.50013 36.8743 8.10238 38.4997 10.085 38.5H20.915C22.8976 38.4998 24.4999 36.8743 24.5 34.8574C24.5 32.8393 22.9228 31.2389 20.9639 31.2139L20.3711 31.207L20.4785 30.623L20.4795 30.6221C20.4795 30.6221 20.4799 30.6183 20.4805 30.6152C20.4817 30.6083 20.4831 30.597 20.4854 30.583C20.4899 30.5549 20.4968 30.514 20.5029 30.4658C20.5157 30.3664 20.5264 30.247 20.5264 30.1426C20.5262 28.1256 18.924 26.5002 16.9414 26.5Z" fill="#000000" />

  </g>
  </g>
  <g data-component-id="anim_system">
  <rect x="240" y="360" width="392" height="64" fill="#FFFFFF" stroke="#000000" stroke-width="1" stroke-miterlimit="10" />
  <text font-family="Ubuntu Sans">
    <tspan x="248" y="384.92" font-size="18" font-weight="400" fill="#000000">Animation</tspan>
    <tspan x="248" y="408.92" font-size="18" font-weight="400" fill="#000000">system</tspan>
  </text>
  <g class="dg-icon" transform="translate(576 368)">
<path fill-rule="evenodd" clip-rule="evenodd" d="M40.6533 6.00781C41.4097 6.08461 42 6.72334 42 7.5V40.5L41.9922 40.6533C41.9205 41.3593 41.3593 41.9205 40.6533 41.9922L40.5 42H7.5C6.72334 42 6.08461 41.4097 6.00781 40.6533L6 40.5V7.5C6 6.67157 6.67157 6 7.5 6H40.5L40.6533 6.00781ZM7 40.5C7 40.7761 7.22386 41 7.5 41H40.5C40.7761 41 41 40.7761 41 40.5V16H7V40.5ZM7.5 7C7.22386 7 7 7.22386 7 7.5V15H16.7119L21.3301 7H7.5ZM27.3652 15H41V7.5C41 7.22386 40.7761 7 40.5 7H31.9844L27.3652 15ZM17.8652 15H26.2119L30.8301 7H22.4844L17.8652 15Z" fill="#000000" />

<path fill-rule="evenodd" clip-rule="evenodd" d="M18.752 20.5653C18.9077 20.4764 19.0994 20.4781 19.2539 20.5692L30.2539 27.0692C30.4061 27.1591 30.5 27.3231 30.5 27.4999C30.5 27.6767 30.4061 27.8406 30.2539 27.9305L19.2539 34.4305C19.0994 34.5216 18.9077 34.5233 18.752 34.4344C18.5961 34.3454 18.5 34.1793 18.5 33.9999V20.9999C18.5 20.8204 18.5961 20.6542 18.752 20.5653ZM19.5 33.1229L29.0166 27.4999L19.5 21.8758V33.1229Z" fill="#000000" />

  </g>
  </g>
  <g data-component-id="editor_box">
  <rect x="240" y="432" width="392" height="64" fill="#FFFFFF" stroke="#000000" stroke-width="1" stroke-miterlimit="10" />
  <text font-family="Ubuntu Sans">
    <tspan x="248" y="456.92" font-size="18" font-weight="400" fill="#000000">Constrained</tspan>
    <tspan x="248" y="480.92" font-size="18" font-weight="400" fill="#000000">editor</tspan>
  </text>
  <g class="dg-icon" transform="translate(576 440)">
<path d="M42 17.4746H6V16.5254H42V17.4746Z" fill="#000000" />

<path d="M42 13.5H18V12.5H42V13.5Z" fill="#000000" />

<path fill-rule="evenodd" clip-rule="evenodd" d="M44.6006 9.00977C44.8286 9.05629 45 9.25829 45 9.5V38.5C45 38.7417 44.8286 38.9437 44.6006 38.9902L44.5 39H3.5C3.25829 39 3.05629 38.8286 3.00977 38.6006L3 38.5V9.5C3 9.22386 3.22386 9 3.5 9H44.5L44.6006 9.00977ZM4 38H44V10H4V38Z" fill="#000000" />

<path d="M7.75 12C8.30228 12 8.75 12.4477 8.75 13C8.75 13.5523 8.30228 14 7.75 14C7.19772 14 6.75 13.5523 6.75 13C6.75 12.4477 7.19772 12 7.75 12Z" fill="#000000" />

<path d="M12.25 12C12.8023 12 13.25 12.4477 13.25 13C13.25 13.5523 12.8023 14 12.25 14C11.6977 14 11.25 13.5523 11.25 13C11.25 12.4477 11.6977 12 12.25 12Z" fill="#000000" />

<path d="M26.7246 20.1582L22.2246 33.6582L21.2754 33.3418L25.7754 19.8418L26.7246 20.1582Z" fill="#000000" />

<path d="M18.3203 23.3838L14.2803 26.75L18.3203 30.1162L17.6797 30.8838L12.7188 26.75L17.6797 22.6162L18.3203 23.3838Z" fill="#000000" />

<path d="M35.2812 26.75L30.3203 30.8838L29.6797 30.1162L33.7197 26.75L29.6797 23.3838L30.3203 22.6162L35.2812 26.75Z" fill="#000000" />

  </g>
  </g>
  <g data-component-id="export_panel">
  <rect x="232" y="528" width="408" height="192" fill="#F3F3F3" stroke="none" stroke-width="1" stroke-miterlimit="10" />
  <text font-family="Ubuntu Sans">
    <tspan x="240" y="552.92" font-size="18" font-weight="700" fill="#000000">4. Export</tspan>
  </text>
  </g>
  <g data-component-id="output_png">
  <rect x="240" y="600" width="192" height="112" fill="#000000" stroke="#000000" stroke-width="1" stroke-miterlimit="10" />
  <text font-family="Ubuntu Sans">
    <tspan x="248" y="624.92" font-size="18" font-weight="400" fill="#FFFFFF">PNG</tspan>
  </text>
  <g class="dg-icon" transform="translate(376 608)">
<path fill-rule="evenodd" clip-rule="evenodd" d="M40.6533 6.00781C41.4097 6.08461 42 6.72334 42 7.5V40.5L41.9922 40.6533C41.9205 41.3593 41.3593 41.9205 40.6533 41.9922L40.5 42H7.5C6.72334 42 6.08461 41.4097 6.00781 40.6533L6 40.5V7.5C6 6.67157 6.67157 6 7.5 6H40.5L40.6533 6.00781ZM23.1533 30.5537C22.958 30.7488 22.6415 30.7489 22.4463 30.5537L16.7998 24.9072L7 34.707V40.5C7 40.7761 7.22386 41 7.5 41H40.5C40.7761 41 41 40.7761 41 40.5V22.707L36 17.707L23.1533 30.5537ZM7.5 7C7.22386 7 7 7.22386 7 7.5V33.293L16.4463 23.8467L16.5244 23.7822C16.7185 23.6539 16.9824 23.6758 17.1533 23.8467L22.7998 29.4932L35.6465 16.6465L35.7246 16.582C35.9187 16.4539 36.1827 16.4756 36.3535 16.6465L41 21.293V7.5C41 7.22386 40.7761 7 40.5 7H7.5Z" fill="#FFFFFF" />

<path fill-rule="evenodd" clip-rule="evenodd" d="M18 12C20.2091 12 22 13.7909 22 16C22 18.2091 20.2091 20 18 20C15.7909 20 14 18.2091 14 16C14 13.7909 15.7909 12 18 12ZM18 13C16.3431 13 15 14.3431 15 16C15 17.6569 16.3431 19 18 19C19.6569 19 21 17.6569 21 16C21 14.3431 19.6569 13 18 13Z" fill="#FFFFFF" />

  </g>
  </g>
  <g data-component-id="output_mp4">
  <rect x="440" y="600" width="192" height="112" fill="#000000" stroke="#000000" stroke-width="1" stroke-miterlimit="10" />
  <text font-family="Ubuntu Sans">
    <tspan x="448" y="624.92" font-size="18" font-weight="400" fill="#FFFFFF">MP4</tspan>
  </text>
  <g class="dg-icon" transform="translate(576 608)">
<path fill-rule="evenodd" clip-rule="evenodd" d="M40.6533 6.00781C41.4097 6.08461 42 6.72334 42 7.5V40.5L41.9922 40.6533C41.9205 41.3593 41.3593 41.9205 40.6533 41.9922L40.5 42H7.5C6.72334 42 6.08461 41.4097 6.00781 40.6533L6 40.5V7.5C6 6.67157 6.67157 6 7.5 6H40.5L40.6533 6.00781ZM7 40.5C7 40.7761 7.22386 41 7.5 41H40.5C40.7761 41 41 40.7761 41 40.5V16H7V40.5ZM7.5 7C7.22386 7 7 7.22386 7 7.5V15H16.7119L21.3301 7H7.5ZM27.3652 15H41V7.5C41 7.22386 40.7761 7 40.5 7H31.9844L27.3652 15ZM17.8652 15H26.2119L30.8301 7H22.4844L17.8652 15Z" fill="#FFFFFF" />

<path fill-rule="evenodd" clip-rule="evenodd" d="M18.752 20.5653C18.9077 20.4764 19.0994 20.4781 19.2539 20.5692L30.2539 27.0692C30.4061 27.1591 30.5 27.3231 30.5 27.4999C30.5 27.6767 30.4061 27.8406 30.2539 27.9305L19.2539 34.4305C19.0994 34.5216 18.9077 34.5233 18.752 34.4344C18.5961 34.3454 18.5 34.1793 18.5 33.9999V20.9999C18.5 20.8204 18.5961 20.6542 18.752 20.5653ZM19.5 33.1229L29.0166 27.4999L19.5 21.8758V33.1229Z" fill="#FFFFFF" />

  </g>
  </g>
  <g data-component-id="input_panel.bottom-&gt;engine.top">
  <line x1="436" y1="192" x2="436" y2="204" fill="none" stroke="#E95420" stroke-width="1" stroke-miterlimit="10" />
  <line x1="436" y1="204" x2="436" y2="204" fill="none" stroke="#E95420" stroke-width="1" stroke-miterlimit="10" />
  <line x1="436" y1="204" x2="436" y2="205.1592" fill="none" stroke="#E95420" stroke-width="1" stroke-miterlimit="10" />
  <polygon points="433.0947,205.1592 436,216 438.9053,205.1592" fill="#E95420" />
  </g>
  <g data-component-id="guidelines.right-&gt;engine.left">
  <line x1="208" y1="312" x2="220" y2="312" fill="none" stroke="#E95420" stroke-width="1" stroke-miterlimit="10" />
  <line x1="220" y1="312" x2="220" y2="360" fill="none" stroke="#E95420" stroke-width="1" stroke-miterlimit="10" />
  <line x1="220" y1="360" x2="221.1592" y2="360" fill="none" stroke="#E95420" stroke-width="1" stroke-miterlimit="10" />
  <polygon points="221.1592,357.0947 232,360 221.1592,362.9053" fill="#E95420" />
  </g>
  <g data-component-id="engine.bottom-&gt;export_panel.top">
  <line x1="436" y1="504" x2="436" y2="516" fill="none" stroke="#E95420" stroke-width="1" stroke-miterlimit="10" />
  <line x1="436" y1="516" x2="436" y2="516" fill="none" stroke="#E95420" stroke-width="1" stroke-miterlimit="10" />
  <line x1="436" y1="516" x2="436" y2="517.1592" fill="none" stroke="#E95420" stroke-width="1" stroke-miterlimit="10" />
  <polygon points="433.0947,517.1592 436,528 438.9053,517.1592" fill="#E95420" />
  </g>
</svg>
