<?xml version="1.0" encoding="UTF-8"?>
<svg id="Layer_1" xmlns="http://www.w3.org/2000/svg" version="1.1" viewBox="0 0 1520 336">
  <!-- Generator: Adobe Illustrator 30.4.0, SVG Export Plug-In . SVG Version: 2.1.4 Build 226)  -->
  <defs>
    <style>
      .st0 {
        fill: #e95420;
      }

      .st1, .st2 {
        fill: #fff;
      }

      .st2, .st3 {
        stroke: #000;
      }

      .st2, .st3, .st4 {
        stroke-miterlimit: 10;
      }

      .st5 {
        isolation: isolate;
      }

      .st6 {
        fill-rule: evenodd;
      }

      .st3, .st7 {
        fill: #f3f3f3;
      }

      .st4 {
        fill: none;
        stroke: #e95420;
      }
    </style>
  </defs>
  <rect class="st1" y="0" width="1520" height="336"/>
  <g data-component-id="custom_files">
    <rect class="st2" x="16" y="24" width="368" height="288"/>
    <g class="st5">
      <path d="M31,49.17c-1.24,0-2.3-.25-3.2-.76-.9-.5-1.59-1.24-2.08-2.21-.49-.97-.73-2.14-.73-3.54,0-1.03.16-1.95.48-2.76.32-.81.76-1.49,1.31-2.05.56-.56,1.21-.98,1.95-1.27s1.54-.43,2.38-.43c.67,0,1.26.06,1.76.18s.92.25,1.24.39c.32.14.56.26.7.35l-.65,1.76c-.35-.19-.77-.37-1.26-.52-.49-.16-1.07-.23-1.73-.23-.77,0-1.45.17-2.04.51-.59.34-1.06.85-1.4,1.53-.34.68-.5,1.52-.5,2.53,0,.9.14,1.69.42,2.38.28.69.71,1.23,1.3,1.63s1.32.59,2.22.59c.82,0,1.48-.08,1.98-.23.5-.16.91-.31,1.21-.47l.59,1.76c-.31.18-.81.37-1.49.56-.68.19-1.51.29-2.47.29Z"/>
      <path d="M40.42,49.12c-1.01,0-1.8-.18-2.38-.55-.58-.37-.98-.88-1.22-1.53-.24-.65-.36-1.41-.36-2.28v-5.24h2.07v4.9c0,.71.06,1.28.19,1.7s.34.74.65.93c.31.19.71.29,1.21.29.34,0,.65-.02.95-.05.3-.04.52-.07.67-.09v-7.67h2.05v9.07c-.41.12-.94.24-1.61.35-.67.11-1.41.17-2.22.17Z"/>
      <path d="M49.38,49.15c-.82,0-1.48-.07-1.99-.21s-.86-.25-1.05-.35l.4-1.71c.31.12.69.24,1.13.37s.95.19,1.53.19,1-.07,1.3-.22c.3-.14.45-.41.45-.79,0-.23-.07-.42-.2-.58-.13-.16-.33-.3-.6-.44s-.63-.29-1.09-.46c-.5-.22-.96-.44-1.37-.67-.41-.23-.73-.52-.97-.87-.24-.35-.36-.82-.36-1.39s.14-1.05.42-1.46c.28-.41.68-.72,1.21-.95s1.15-.33,1.88-.33c.59,0,1.12.05,1.61.15.49.1.85.21,1.11.31l-.4,1.66c-.24-.1-.54-.19-.89-.29s-.8-.14-1.34-.14c-.47,0-.84.08-1.12.23-.28.16-.42.4-.42.74,0,.23.05.42.16.57.11.15.29.29.55.42.26.13.6.28,1.02.43.66.25,1.2.51,1.62.76.42.26.73.57.95.93.21.36.31.82.31,1.37,0,.59-.15,1.09-.45,1.49-.3.41-.74.71-1.3.92-.57.2-1.26.31-2.08.31Z"/>
      <path d="M58.69,49.14c-.89,0-1.58-.16-2.09-.47s-.86-.76-1.06-1.35c-.2-.59-.31-1.29-.31-2.11v-8.21l2.07-.34v2.86h3.42v1.71h-3.42v4c0,.52.06.93.17,1.24.11.31.29.54.54.67.25.14.56.21.94.21s.71-.04,1.02-.12.57-.17.78-.26l.34,1.64c-.26.12-.6.24-1,.35-.4.11-.87.17-1.41.17Z"/>
      <path d="M66.64,49.15c-.88,0-1.65-.21-2.33-.62-.68-.41-1.21-.99-1.58-1.73-.38-.74-.57-1.6-.57-2.6s.19-1.84.58-2.57c.38-.73.92-1.3,1.6-1.72s1.46-.62,2.32-.62,1.65.2,2.32.61c.67.41,1.2.98,1.58,1.72.38.74.58,1.6.58,2.58s-.19,1.86-.57,2.6c-.38.74-.9,1.31-1.57,1.73s-1.46.62-2.37.62ZM66.66,47.35c.49,0,.91-.13,1.26-.39.35-.26.62-.62.81-1.1.19-.47.29-1.03.29-1.67s-.1-1.19-.29-1.66c-.19-.47-.46-.83-.81-1.09-.35-.26-.77-.39-1.26-.39s-.92.13-1.28.39-.63.62-.82,1.09c-.19.47-.28,1.03-.28,1.67s.09,1.19.28,1.66c.19.47.46.83.82,1.09.36.26.79.39,1.28.39Z"/>
      <path d="M73.39,48.92v-9.07c.43-.12.97-.24,1.62-.35.65-.11,1.36-.17,2.12-.17.65,0,1.19.08,1.61.25.43.17.77.4,1.03.68.19-.14.44-.29.73-.43.29-.14.63-.26,1-.36.37-.1.76-.14,1.15-.14.98,0,1.74.18,2.26.55s.88.87,1.06,1.51c.19.64.28,1.39.28,2.24v5.29h-2.05v-4.93c0-.68-.05-1.24-.15-1.66-.1-.42-.29-.73-.55-.94-.26-.2-.63-.31-1.1-.31-.26,0-.51.03-.75.1-.23.07-.44.15-.62.24-.18.1-.32.18-.43.25.1.28.16.58.2.93.04.34.05.71.05,1.09v5.22h-2.05v-4.93c0-.68-.05-1.24-.15-1.66s-.29-.73-.55-.94c-.26-.2-.64-.31-1.13-.31-.22,0-.42,0-.62.03-.2.02-.37.04-.51.06-.14.02-.27.05-.38.07v7.67h-2.07Z"/>
      <path d="M91.95,48.92c.64-1.76,1.22-3.37,1.76-4.81.54-1.44,1.07-2.78,1.59-4.03s1.07-2.46,1.65-3.64h2.02c.42.89.83,1.79,1.23,2.71.4.92.8,1.88,1.2,2.88s.81,2.07,1.23,3.19c.43,1.13.87,2.36,1.34,3.69h-2.32c-.17-.5-.34-1-.52-1.5-.18-.5-.35-.99-.52-1.49h-5.36c-.17.49-.35.99-.53,1.49s-.36,1-.51,1.5h-2.25ZM95.78,44.19h4.27c-.2-.58-.4-1.12-.6-1.65-.2-.52-.39-1.01-.58-1.48-.19-.46-.36-.89-.52-1.3-.16-.4-.31-.76-.44-1.07-.13.31-.28.67-.43,1.07-.16.4-.33.83-.51,1.3-.19.46-.38.95-.58,1.48-.2.52-.4,1.07-.6,1.65Z"/>
      <path d="M105.52,48.92v-9.07c.42-.12.96-.24,1.63-.35s1.41-.17,2.22-.17c1.03,0,1.83.18,2.4.54.57.36.97.86,1.21,1.51s.35,1.4.35,2.25v5.29h-2.07v-4.93c0-.71-.06-1.27-.19-1.69s-.34-.73-.63-.92c-.29-.19-.71-.29-1.25-.29-.34,0-.65.02-.94.06-.29.04-.51.07-.66.1v7.67h-2.07Z"/>
      <path d="M120.28,49.15c-.98,0-1.83-.2-2.55-.59-.71-.4-1.27-.96-1.66-1.69-.39-.73-.58-1.6-.58-2.61s.17-1.86.5-2.6c.34-.74.82-1.31,1.45-1.72.63-.41,1.39-.61,2.28-.61.47,0,.88.06,1.24.17s.67.24.92.39v-4.59l2.07-.34v13.66c-.28.1-.61.18-1.01.26s-.82.14-1.27.2c-.45.05-.92.08-1.4.08ZM120.3,47.35c.37,0,.69-.01.96-.04.27-.03.48-.06.62-.1v-5.54c-.18-.14-.44-.28-.78-.4-.34-.12-.71-.18-1.09-.18-.43,0-.8.07-1.1.22-.3.14-.55.35-.74.63-.19.28-.33.6-.42.98-.09.38-.14.8-.14,1.27,0,.65.11,1.21.32,1.69.22.48.52.85.93,1.1s.88.38,1.43.38Z"/>
      <path d="M126.69,48.92v-8.93c.41-.16.91-.31,1.52-.45.61-.14,1.3-.22,2.08-.22.23,0,.47.01.74.04.26.03.52.07.76.12s.44.1.59.16l-.38,1.73c-.18-.06-.43-.12-.74-.18-.31-.06-.67-.09-1.08-.09-.31,0-.6.02-.86.07-.26.05-.45.09-.56.13v7.61h-2.07Z"/>
      <path d="M137.81,49.15c-.88,0-1.65-.21-2.33-.62-.68-.41-1.21-.99-1.58-1.73-.38-.74-.57-1.6-.57-2.6s.19-1.84.58-2.57c.38-.73.92-1.3,1.6-1.72s1.46-.62,2.32-.62,1.65.2,2.32.61c.67.41,1.2.98,1.58,1.72.38.74.58,1.6.58,2.58s-.19,1.86-.57,2.6c-.38.74-.9,1.31-1.57,1.73s-1.46.62-2.37.62ZM137.83,47.35c.49,0,.91-.13,1.26-.39.35-.26.62-.62.81-1.1.19-.47.29-1.03.29-1.67s-.1-1.19-.29-1.66c-.19-.47-.46-.83-.81-1.09-.35-.26-.77-.39-1.26-.39s-.92.13-1.28.39-.63.62-.82,1.09c-.19.47-.28,1.03-.28,1.67s.09,1.19.28,1.66c.19.47.46.83.82,1.09.36.26.79.39,1.28.39Z"/>
      <path d="M145.61,37.67c-.36,0-.67-.12-.92-.35-.25-.23-.38-.56-.38-.96s.13-.71.38-.94c.25-.23.56-.35.92-.35s.67.12.92.35c.25.23.38.55.38.94s-.13.73-.38.96c-.25.23-.56.35-.92.35ZM144.56,48.92v-9.4h2.07v9.4h-2.07Z"/>
      <path d="M153.69,49.15c-.98,0-1.83-.2-2.55-.59-.71-.4-1.27-.96-1.66-1.69-.39-.73-.58-1.6-.58-2.61s.17-1.86.5-2.6c.34-.74.82-1.31,1.45-1.72.63-.41,1.39-.61,2.28-.61.47,0,.88.06,1.24.17s.67.24.92.39v-4.59l2.07-.34v13.66c-.28.1-.61.18-1.01.26s-.82.14-1.27.2c-.45.05-.92.08-1.4.08ZM153.71,47.35c.37,0,.69-.01.96-.04.27-.03.48-.06.62-.1v-5.54c-.18-.14-.44-.28-.78-.4-.34-.12-.71-.18-1.09-.18-.43,0-.8.07-1.1.22-.3.14-.55.35-.74.63-.19.28-.33.6-.42.98-.09.38-.14.8-.14,1.27,0,.65.11,1.21.32,1.69.22.48.52.85.93,1.1s.88.38,1.43.38Z"/>
      <path d="M164.33,48.92v-10.12c0-1.21.32-2.16.96-2.83.64-.68,1.6-1.02,2.87-1.02.5,0,.92.04,1.24.13.32.08.58.16.76.23l-.38,1.66c-.16-.07-.36-.13-.6-.18-.25-.05-.53-.07-.84-.07-.72,0-1.22.19-1.51.56-.29.37-.43.89-.43,1.57v.68h3.49v1.71h-3.49v7.69h-2.07ZM172.59,37.67c-.36,0-.67-.12-.93-.35-.26-.23-.39-.56-.39-.96s.13-.71.39-.94c.26-.23.57-.35.93-.35s.65.12.91.35c.26.23.39.55.39.94s-.13.73-.39.96c-.26.23-.56.35-.91.35ZM171.56,48.92v-9.4h2.07v9.4h-2.07Z"/>
      <path d="M179.57,49.1c-.82-.02-1.46-.15-1.93-.37-.47-.22-.8-.55-.99-.97s-.29-.96-.29-1.59v-10.87l2.07-.34v10.87c0,.53.1.91.29,1.13.19.23.57.37,1.13.43l-.29,1.71Z"/>
      <path d="M185.94,49.15c-1.12,0-2.03-.21-2.74-.64-.71-.43-1.23-1.01-1.58-1.75s-.51-1.58-.51-2.5c0-1.1.21-2.02.63-2.76.42-.74.96-1.29,1.62-1.66s1.36-.55,2.11-.55c.84,0,1.57.17,2.18.52.61.35,1.09.87,1.42,1.58s.5,1.58.5,2.64c0,.12,0,.26-.02.41-.01.15-.02.29-.04.42h-6.28c.06.78.33,1.39.82,1.84.49.44,1.19.67,2.11.67.55,0,1.04-.05,1.48-.15.43-.1.77-.21,1.01-.32l.31,1.69c-.24.12-.64.25-1.2.38-.56.13-1.17.2-1.83.2ZM183.26,43.34h4.28c-.01-.44-.09-.84-.24-1.19-.15-.35-.38-.62-.67-.83-.3-.2-.68-.31-1.13-.31s-.86.11-1.17.33c-.31.22-.56.51-.73.86-.17.35-.29.73-.33,1.12Z"/>
      <path d="M194.22,49.15c-.82,0-1.48-.07-1.99-.21s-.86-.25-1.05-.35l.4-1.71c.31.12.69.24,1.13.37s.95.19,1.53.19,1-.07,1.3-.22c.3-.14.45-.41.45-.79,0-.23-.07-.42-.2-.58-.13-.16-.33-.3-.6-.44s-.63-.29-1.09-.46c-.5-.22-.96-.44-1.37-.67-.41-.23-.73-.52-.97-.87-.24-.35-.36-.82-.36-1.39s.14-1.05.42-1.46c.28-.41.68-.72,1.21-.95s1.15-.33,1.88-.33c.59,0,1.12.05,1.61.15.49.1.85.21,1.11.31l-.4,1.66c-.24-.1-.54-.19-.89-.29s-.8-.14-1.34-.14c-.47,0-.84.08-1.12.23-.28.16-.42.4-.42.74,0,.23.05.42.16.57.11.15.29.29.55.42.26.13.6.28,1.02.43.66.25,1.2.51,1.62.76.42.26.73.57.95.93.21.36.31.82.31,1.37,0,.59-.15,1.09-.45,1.49-.3.41-.74.71-1.3.92-.57.2-1.26.31-2.08.31Z"/>
    </g>
  </g>
  <g data-component-id="partitions">
    <rect class="st7" x="24" y="96" width="352" height="64"/>
    <g class="st5">
      <path d="M33.6,120.92v-12.24c.46-.12.98-.21,1.57-.26.59-.05,1.14-.08,1.65-.08,1.76,0,3.09.34,3.97,1.02.88.68,1.32,1.64,1.32,2.89,0,.95-.22,1.71-.66,2.29-.44.58-1.07.99-1.89,1.25s-1.81.39-2.96.39h-1.6v4.75h-1.4ZM35.01,114.96h1.48c.85,0,1.59-.08,2.21-.22.62-.15,1.11-.42,1.45-.82.34-.4.51-.96.51-1.69s-.18-1.25-.54-1.64c-.36-.38-.83-.65-1.4-.81-.58-.16-1.19-.23-1.84-.23-.42,0-.78.02-1.09.04-.31.03-.57.06-.78.08v5.29Z"/>
      <path d="M46.94,121.12c-.67,0-1.27-.1-1.8-.29-.53-.19-.94-.5-1.24-.94-.3-.43-.45-1-.45-1.71s.17-1.24.5-1.67c.34-.43.8-.73,1.4-.93.59-.19,1.26-.29,2.01-.29.34,0,.69.03,1.06.09.37.06.61.11.7.16v-.54c0-.41-.05-.8-.15-1.18s-.31-.69-.62-.93c-.31-.24-.79-.36-1.42-.36s-1.16.05-1.51.14c-.35.1-.61.17-.77.23l-.18-1.15c.22-.1.55-.19.99-.27.44-.08.97-.13,1.57-.13.85,0,1.53.15,2.02.45.5.3.86.71,1.08,1.23.22.52.33,1.12.33,1.79v5.85c-.25.06-.7.14-1.35.25-.65.11-1.37.16-2.16.16ZM47.14,119.97c.42,0,.8-.01,1.13-.04s.62-.07.85-.12v-3.13c-.12-.06-.32-.12-.61-.18-.29-.06-.66-.09-1.12-.09-.38,0-.77.04-1.17.13s-.73.25-1,.5-.41.63-.41,1.13c0,.67.21,1.14.63,1.4.42.26.98.4,1.69.4Z"/>
      <path d="M53.37,120.92v-8.89c.31-.13.74-.27,1.29-.41s1.2-.21,1.97-.21c.25,0,.5.01.75.04.25.03.47.07.67.11.2.04.34.08.44.12l-.27,1.15c-.11-.05-.31-.1-.61-.15-.3-.05-.68-.08-1.15-.08s-.83.03-1.13.1c-.3.07-.5.12-.59.17v8.05h-1.35Z"/>
      <path d="M63.23,121.12c-.79,0-1.42-.14-1.87-.41-.46-.28-.78-.69-.96-1.24-.19-.55-.28-1.24-.28-2.07v-8.5l1.35-.23v2.93h3.65v1.13h-3.65v4.77c0,.66.07,1.16.23,1.51.15.35.37.58.65.71.28.13.61.19,1,.19.46,0,.84-.05,1.14-.16.31-.11.55-.2.73-.29l.29,1.1c-.18.11-.48.23-.89.36s-.87.2-1.38.2Z"/>
      <path d="M67.95,109.36c-.26,0-.49-.09-.67-.27s-.28-.42-.28-.72.09-.52.28-.7.41-.27.67-.27.49.09.68.27c.19.18.28.41.28.7s-.09.54-.28.72c-.19.18-.41.27-.68.27ZM67.26,120.92v-9.32h1.35v9.32h-1.35Z"/>
      <path d="M74.68,121.12c-.79,0-1.42-.14-1.87-.41-.46-.28-.78-.69-.96-1.24-.19-.55-.28-1.24-.28-2.07v-8.5l1.35-.23v2.93h3.65v1.13h-3.65v4.77c0,.66.07,1.16.23,1.51.15.35.37.58.65.71.28.13.61.19,1,.19.46,0,.84-.05,1.14-.16.31-.11.55-.2.73-.29l.29,1.1c-.18.11-.48.23-.89.36s-.87.2-1.38.2Z"/>
      <path d="M79.39,109.36c-.26,0-.49-.09-.67-.27s-.28-.42-.28-.72.09-.52.28-.7.41-.27.67-.27.49.09.68.27c.19.18.28.41.28.7s-.09.54-.28.72c-.19.18-.41.27-.68.27ZM78.71,120.92v-9.32h1.35v9.32h-1.35Z"/>
      <path d="M86.83,121.14c-.83,0-1.57-.2-2.21-.6-.65-.4-1.16-.97-1.52-1.7-.37-.73-.55-1.59-.55-2.57s.18-1.84.55-2.56c.37-.73.87-1.29,1.52-1.7s1.39-.61,2.21-.61,1.58.2,2.23.61c.65.41,1.15.97,1.52,1.7.37.73.55,1.58.55,2.56s-.18,1.84-.55,2.57c-.37.73-.87,1.3-1.51,1.7-.64.4-1.39.6-2.24.6ZM86.83,119.93c.6,0,1.12-.15,1.55-.45.43-.3.76-.73,1-1.28.23-.55.35-1.2.35-1.94s-.12-1.39-.35-1.94c-.23-.55-.57-.98-1-1.28-.43-.3-.95-.45-1.55-.45s-1.1.15-1.53.45-.77.73-1,1.28c-.23.55-.35,1.2-.35,1.94s.12,1.39.35,1.94.57.98,1,1.28c.43.3.94.45,1.53.45Z"/>
      <path d="M93.61,120.92v-9c.37-.1.86-.2,1.46-.32.6-.12,1.32-.18,2.16-.18.97,0,1.73.18,2.27.54s.92.86,1.14,1.5c.22.64.33,1.39.33,2.24v5.22h-1.35v-4.84c0-.85-.08-1.53-.23-2.03-.16-.5-.42-.87-.79-1.1-.37-.23-.89-.34-1.55-.34-.5,0-.95.03-1.33.09-.38.06-.64.11-.76.14v8.08h-1.35Z"/>
      <path d="M105.89,121.14c-.8,0-1.43-.07-1.88-.21-.45-.14-.75-.24-.91-.31l.32-1.19c.13.05.4.15.81.31.41.16.96.23,1.66.23s1.19-.1,1.6-.31c.41-.2.61-.56.61-1.06,0-.32-.07-.58-.22-.78-.14-.2-.38-.38-.69-.55-.32-.17-.75-.36-1.31-.58-.47-.19-.9-.4-1.3-.61s-.72-.49-.96-.83c-.25-.34-.37-.77-.37-1.3s.13-.97.4-1.35c.26-.38.64-.68,1.12-.9.49-.22,1.06-.32,1.74-.32.62,0,1.15.05,1.58.16.43.11.74.2.92.29l-.31,1.17c-.16-.08-.41-.18-.76-.3-.35-.11-.84-.17-1.48-.17-.5,0-.94.1-1.31.31-.37.21-.56.54-.56,1,0,.32.08.58.23.78s.39.38.7.53.7.32,1.15.5c.52.2.98.42,1.4.64.41.22.75.51,1,.86.25.35.38.81.38,1.39s-.14,1.04-.43,1.43c-.29.39-.7.68-1.23.87-.53.19-1.17.29-1.92.29Z"/>
    </g>
  </g>
  <g data-component-id="system_image">
    <rect class="st2" x="24" y="168" width="352" height="64"/>
    <g class="st5">
      <path d="M32.18,192.92c.65-1.74,1.24-3.32,1.78-4.75s1.07-2.77,1.59-4.02c.52-1.25,1.08-2.49,1.67-3.7h1.26c.43.91.85,1.83,1.25,2.76.4.93.8,1.89,1.2,2.89s.81,2.06,1.23,3.18c.43,1.12.88,2.34,1.36,3.64h-1.53c-.22-.6-.43-1.17-.63-1.72s-.4-1.08-.58-1.61h-5.94c-.19.53-.39,1.07-.59,1.61s-.41,1.12-.61,1.72h-1.46ZM35.26,188.4h5.11c-.23-.6-.45-1.18-.67-1.75-.22-.56-.43-1.11-.64-1.64-.21-.53-.42-1.04-.63-1.54-.21-.5-.42-.99-.64-1.47-.2.48-.41.97-.62,1.47-.21.5-.42,1.01-.63,1.54-.21.53-.42,1.07-.64,1.64-.22.56-.43,1.15-.65,1.75Z"/>
      <path d="M45.21,192.92v-9c.37-.1.86-.2,1.46-.32.6-.12,1.32-.18,2.16-.18.97,0,1.73.18,2.27.54s.92.86,1.14,1.5c.22.64.33,1.39.33,2.24v5.22h-1.35v-4.84c0-.85-.08-1.53-.23-2.03-.16-.5-.42-.87-.79-1.1-.37-.23-.89-.34-1.55-.34-.5,0-.95.03-1.33.09-.38.06-.64.11-.76.14v8.08h-1.35Z"/>
      <path d="M59.56,193.14c-.91,0-1.72-.2-2.41-.58-.7-.39-1.24-.95-1.62-1.67-.38-.73-.58-1.59-.58-2.6s.16-1.81.49-2.54c.33-.73.81-1.31,1.44-1.72.63-.41,1.39-.62,2.28-.62.58,0,1.08.08,1.52.24.44.16.77.32.98.48v-4.93l1.33-.23v13.68c-.23.07-.51.15-.85.22-.34.08-.72.14-1.14.2-.43.05-.91.08-1.45.08ZM59.58,191.93c.53,0,.96-.03,1.3-.08.34-.05.6-.1.78-.15v-6.32c-.2-.17-.52-.34-.94-.51-.42-.17-.89-.26-1.42-.26s-1,.09-1.38.28c-.38.19-.68.45-.92.78-.23.34-.4.73-.5,1.17-.1.44-.15.92-.15,1.42,0,.78.14,1.44.4,1.99.27.55.65.96,1.13,1.25s1.05.43,1.68.43Z"/>
      <path d="M66.02,192.92v-8.89c.31-.13.74-.27,1.29-.41s1.2-.21,1.97-.21c.25,0,.5.01.75.04.25.03.47.07.67.11.2.04.34.08.44.12l-.27,1.15c-.11-.05-.31-.1-.61-.15-.3-.05-.68-.08-1.15-.08s-.83.03-1.13.1c-.3.07-.5.12-.59.17v8.05h-1.35Z"/>
      <path d="M76.57,193.14c-.83,0-1.57-.2-2.21-.6-.65-.4-1.16-.97-1.52-1.7-.37-.73-.55-1.59-.55-2.57s.18-1.84.55-2.56c.37-.73.87-1.29,1.52-1.7s1.39-.61,2.21-.61,1.58.2,2.23.61c.65.41,1.15.97,1.52,1.7.37.73.55,1.58.55,2.56s-.18,1.84-.55,2.57c-.37.73-.87,1.3-1.51,1.7-.64.4-1.39.6-2.24.6ZM76.57,191.93c.6,0,1.12-.15,1.55-.45.43-.3.76-.73,1-1.28.23-.55.35-1.2.35-1.94s-.12-1.39-.35-1.94c-.23-.55-.57-.98-1-1.28-.43-.3-.95-.45-1.55-.45s-1.1.15-1.53.45-.77.73-1,1.28c-.23.55-.35,1.2-.35,1.94s.12,1.39.35,1.94.57.98,1,1.28c.43.3.94.45,1.53.45Z"/>
      <path d="M84.04,181.36c-.26,0-.49-.09-.67-.27s-.28-.42-.28-.72.09-.52.28-.7.41-.27.67-.27.49.09.68.27c.19.18.28.41.28.7s-.09.54-.28.72c-.19.18-.41.27-.68.27ZM83.35,192.92v-9.32h1.35v9.32h-1.35Z"/>
      <path d="M91.8,193.14c-.91,0-1.72-.2-2.41-.58-.7-.39-1.24-.95-1.62-1.67-.38-.73-.58-1.59-.58-2.6s.16-1.81.49-2.54c.33-.73.81-1.31,1.44-1.72.63-.41,1.39-.62,2.28-.62.58,0,1.08.08,1.52.24.44.16.77.32.98.48v-4.93l1.33-.23v13.68c-.23.07-.51.15-.85.22-.34.08-.72.14-1.14.2-.43.05-.91.08-1.45.08ZM91.81,191.93c.53,0,.96-.03,1.3-.08.34-.05.6-.1.78-.15v-6.32c-.2-.17-.52-.34-.94-.51-.42-.17-.89-.26-1.42-.26s-1,.09-1.38.28c-.38.19-.68.45-.92.78-.23.34-.4.73-.5,1.17-.1.44-.15.92-.15,1.42,0,.78.14,1.44.4,1.99.27.55.65.96,1.13,1.25s1.05.43,1.68.43Z"/>
      <path d="M104.38,193.14c-.8,0-1.43-.07-1.88-.21-.45-.14-.75-.24-.91-.31l.32-1.19c.13.05.4.15.81.31.41.16.96.23,1.66.23s1.19-.1,1.6-.31c.41-.2.61-.56.61-1.06,0-.32-.07-.58-.22-.78-.14-.2-.38-.38-.69-.55-.32-.17-.75-.36-1.31-.58-.47-.19-.9-.4-1.3-.61s-.72-.49-.96-.83c-.25-.34-.37-.77-.37-1.3s.13-.97.4-1.35c.26-.38.64-.68,1.12-.9.49-.22,1.06-.32,1.74-.32.62,0,1.15.05,1.58.16.43.11.74.2.92.29l-.31,1.17c-.16-.08-.41-.18-.76-.3-.35-.11-.84-.17-1.48-.17-.5,0-.94.1-1.31.31-.37.21-.56.54-.56,1,0,.32.08.58.23.78s.39.38.7.53.7.32,1.15.5c.52.2.98.42,1.4.64.41.22.75.51,1,.86.25.35.38.81.38,1.39s-.14,1.04-.43,1.43c-.29.39-.7.68-1.23.87-.53.19-1.17.29-1.92.29Z"/>
      <path d="M110.07,196.3c-.3,0-.58-.04-.85-.11-.26-.07-.44-.13-.52-.18l.27-1.1c.07.04.22.09.45.15.23.07.46.1.68.1.44,0,.82-.07,1.13-.2.31-.13.59-.35.83-.67.24-.31.46-.73.67-1.26-.52-.95-1-1.95-1.47-3.01s-.89-2.13-1.27-3.22c-.38-1.09-.71-2.17-.97-3.22h1.42c.13.56.3,1.17.49,1.82.2.65.42,1.32.67,2.02.25.7.52,1.4.82,2.12.3.71.62,1.42.95,2.12.34-.95.63-1.85.88-2.69s.49-1.7.7-2.57c.22-.87.44-1.8.67-2.8h1.35c-.26,1.15-.56,2.29-.87,3.42s-.65,2.21-1.01,3.25c-.35,1.04-.73,2.02-1.12,2.94-.3.72-.62,1.31-.95,1.76s-.73.79-1.2,1.01c-.46.22-1.05.32-1.75.32Z"/>
      <path d="M120.86,193.14c-.8,0-1.43-.07-1.88-.21-.45-.14-.75-.24-.91-.31l.32-1.19c.13.05.4.15.81.31.41.16.96.23,1.66.23s1.19-.1,1.6-.31c.41-.2.61-.56.61-1.06,0-.32-.07-.58-.22-.78-.14-.2-.38-.38-.69-.55-.32-.17-.75-.36-1.31-.58-.47-.19-.9-.4-1.3-.61s-.72-.49-.96-.83c-.25-.34-.37-.77-.37-1.3s.13-.97.4-1.35c.26-.38.64-.68,1.12-.9.49-.22,1.06-.32,1.74-.32.62,0,1.15.05,1.58.16.43.11.74.2.92.29l-.31,1.17c-.16-.08-.41-.18-.76-.3-.35-.11-.84-.17-1.48-.17-.5,0-.94.1-1.31.31-.37.21-.56.54-.56,1,0,.32.08.58.23.78s.39.38.7.53.7.32,1.15.5c.52.2.98.42,1.4.64.41.22.75.51,1,.86.25.35.38.81.38,1.39s-.14,1.04-.43,1.43c-.29.39-.7.68-1.23.87-.53.19-1.17.29-1.92.29Z"/>
      <path d="M129.72,193.12c-.79,0-1.42-.14-1.87-.41-.46-.28-.78-.69-.96-1.24-.19-.55-.28-1.24-.28-2.07v-8.5l1.35-.23v2.93h3.65v1.13h-3.65v4.77c0,.66.07,1.16.23,1.51.15.35.37.58.65.71.28.13.61.19,1,.19.46,0,.84-.05,1.14-.16.31-.11.55-.2.73-.29l.29,1.1c-.18.11-.48.23-.89.36s-.87.2-1.38.2Z"/>
      <path d="M137.8,193.12c-1.09,0-1.98-.21-2.66-.63s-1.18-1-1.49-1.73c-.32-.73-.48-1.57-.48-2.5,0-1.09.2-2,.59-2.72s.91-1.26,1.54-1.62,1.29-.54,1.99-.54c.78,0,1.45.17,2.02.5.57.33,1.01.83,1.32,1.51.31.68.47,1.54.47,2.58,0,.08,0,.18,0,.3,0,.11-.02.22-.03.32h-6.5c.05,1.06.33,1.88.85,2.46s1.33.87,2.44.87c.61,0,1.11-.06,1.5-.17s.67-.21.84-.3l.23,1.13c-.17.1-.5.21-.98.34-.49.13-1.04.2-1.67.2ZM134.62,187.48h5.13c-.01-.61-.11-1.14-.31-1.58-.19-.44-.46-.77-.82-1.01-.35-.23-.79-.35-1.31-.35s-.99.14-1.39.41c-.4.28-.71.64-.93,1.08-.22.44-.35.92-.39,1.44Z"/>
      <path d="M143.65,192.92v-9c.37-.1.85-.2,1.42-.32.58-.12,1.29-.18,2.14-.18.6,0,1.11.08,1.54.25.43.17.77.42,1.03.76.11-.08.3-.21.58-.37.28-.16.63-.31,1.05-.44s.91-.2,1.45-.2c.96,0,1.68.18,2.17.55s.81.87.98,1.51c.17.64.25,1.38.25,2.22v5.22h-1.35v-4.84c0-.79-.05-1.44-.16-1.95-.11-.51-.32-.89-.63-1.14-.31-.25-.77-.38-1.39-.38-.44,0-.83.05-1.16.15-.33.1-.6.22-.81.35-.21.13-.36.23-.46.31.11.3.19.64.24,1.03.05.38.08.79.08,1.21v5.27h-1.35v-4.84c0-.79-.05-1.44-.16-1.95s-.32-.89-.64-1.14c-.32-.25-.8-.38-1.43-.38-.35,0-.66.02-.94.04-.28.03-.52.06-.7.1s-.32.07-.41.09v8.08h-1.35Z"/>
      <path d="M163.99,181.36c-.26,0-.49-.09-.67-.27s-.28-.42-.28-.72.09-.52.28-.7.41-.27.67-.27.49.09.68.27c.19.18.28.41.28.7s-.09.54-.28.72c-.19.18-.41.27-.68.27ZM163.31,192.92v-9.32h1.35v9.32h-1.35Z"/>
      <path d="M167.68,192.92v-9c.37-.1.85-.2,1.42-.32.58-.12,1.29-.18,2.14-.18.6,0,1.11.08,1.54.25.43.17.77.42,1.03.76.11-.08.3-.21.58-.37.28-.16.63-.31,1.05-.44s.91-.2,1.45-.2c.96,0,1.68.18,2.17.55s.81.87.98,1.51c.17.64.25,1.38.25,2.22v5.22h-1.35v-4.84c0-.79-.05-1.44-.16-1.95-.11-.51-.32-.89-.63-1.14-.31-.25-.77-.38-1.39-.38-.44,0-.83.05-1.16.15-.33.1-.6.22-.81.35-.21.13-.36.23-.46.31.11.3.19.64.24,1.03.05.38.08.79.08,1.21v5.27h-1.35v-4.84c0-.79-.05-1.44-.16-1.95s-.32-.89-.64-1.14c-.32-.25-.8-.38-1.43-.38-.35,0-.66.02-.94.04-.28.03-.52.06-.7.1s-.32.07-.41.09v8.08h-1.35Z"/>
      <path d="M186.04,193.12c-.67,0-1.27-.1-1.8-.29-.53-.19-.94-.5-1.24-.94-.3-.43-.45-1-.45-1.71s.17-1.24.5-1.67c.34-.43.8-.73,1.4-.93.59-.19,1.26-.29,2.01-.29.34,0,.69.03,1.06.09.37.06.61.11.7.16v-.54c0-.41-.05-.8-.15-1.18s-.31-.69-.62-.93c-.31-.24-.79-.36-1.42-.36s-1.16.05-1.51.14c-.35.1-.61.17-.77.23l-.18-1.15c.22-.1.55-.19.99-.27.44-.08.97-.13,1.57-.13.85,0,1.53.15,2.02.45.5.3.86.71,1.08,1.23.22.52.33,1.12.33,1.79v5.85c-.25.06-.7.14-1.35.25-.65.11-1.37.16-2.16.16ZM186.24,191.97c.42,0,.8-.01,1.13-.04s.62-.07.85-.12v-3.13c-.12-.06-.32-.12-.61-.18-.29-.06-.66-.09-1.12-.09-.38,0-.77.04-1.17.13s-.73.25-1,.5-.41.63-.41,1.13c0,.67.21,1.14.63,1.4.42.26.98.4,1.69.4Z"/>
      <path d="M195.4,196.3c-.59,0-1.13-.05-1.64-.14-.5-.1-.94-.2-1.3-.32l.27-1.19c.3.12.7.23,1.19.33.49.1,1,.15,1.51.15.72,0,1.3-.09,1.75-.27.44-.18.77-.47.98-.86.21-.4.31-.92.31-1.57v-.59c-.17.12-.46.27-.86.44-.41.17-.93.26-1.57.26-.73,0-1.41-.15-2.04-.46-.63-.31-1.13-.79-1.51-1.45s-.57-1.52-.57-2.59c0-.89.18-1.68.53-2.38s.86-1.25,1.53-1.65c.67-.4,1.46-.6,2.38-.6.84,0,1.53.06,2.08.17.55.11.99.22,1.34.33v8.44c0,1.4-.36,2.41-1.09,3.02s-1.83.92-3.3.92ZM196.1,191.35c.49,0,.95-.07,1.38-.22.43-.14.75-.31.98-.5v-5.8c-.19-.06-.44-.11-.76-.16s-.75-.07-1.31-.07c-.65,0-1.2.14-1.66.43s-.8.69-1.04,1.21c-.24.52-.36,1.12-.36,1.81,0,.59.08,1.09.23,1.51s.37.76.63,1.03c.26.26.56.46.89.58s.67.18,1.02.18Z"/>
      <path d="M206.9,193.12c-1.09,0-1.98-.21-2.66-.63s-1.18-1-1.49-1.73c-.32-.73-.48-1.57-.48-2.5,0-1.09.2-2,.59-2.72s.91-1.26,1.54-1.62,1.29-.54,1.99-.54c.78,0,1.45.17,2.02.5.57.33,1.01.83,1.32,1.51.31.68.47,1.54.47,2.58,0,.08,0,.18,0,.3,0,.11-.02.22-.03.32h-6.5c.05,1.06.33,1.88.85,2.46s1.33.87,2.44.87c.61,0,1.11-.06,1.5-.17s.67-.21.84-.3l.23,1.13c-.17.1-.5.21-.98.34-.49.13-1.04.2-1.67.2ZM203.72,187.48h5.13c-.01-.61-.11-1.14-.31-1.58-.19-.44-.46-.77-.82-1.01-.35-.23-.79-.35-1.31-.35s-.99.14-1.39.41c-.4.28-.71.64-.93,1.08-.22.44-.35.92-.39,1.44Z"/>
    </g>
  </g>
  <g data-component-id="kernel">
    <rect class="st3" x="24" y="240" width="352" height="64"/>
    <g class="st5">
      <path d="M33.6,264.92v-12.47h1.4v5.69c.44-.41.93-.87,1.47-1.39.53-.52,1.07-1.04,1.6-1.57.53-.53,1.03-1.03,1.48-1.51.46-.48.83-.89,1.13-1.22h1.67c-.35.38-.77.83-1.25,1.32-.49.5-1,1.02-1.54,1.57s-1.07,1.07-1.6,1.58c-.53.51-1.01.97-1.46,1.38.53.34,1.09.77,1.7,1.3.61.53,1.2,1.1,1.79,1.73s1.12,1.25,1.61,1.87c.49.62.87,1.2,1.16,1.73h-1.6c-.38-.6-.82-1.19-1.31-1.78-.49-.59-1.01-1.15-1.57-1.69-.55-.54-1.11-1.03-1.67-1.48-.56-.44-1.1-.82-1.63-1.12v6.07h-1.4Z"/>
      <path d="M48.33,265.12c-1.09,0-1.98-.21-2.66-.63s-1.18-1-1.49-1.73c-.32-.73-.48-1.57-.48-2.5,0-1.09.2-2,.59-2.72s.91-1.26,1.54-1.62,1.29-.54,1.99-.54c.78,0,1.45.17,2.02.5.57.33,1.01.83,1.32,1.51.31.68.47,1.54.47,2.58,0,.08,0,.18,0,.3,0,.11-.02.22-.03.32h-6.5c.05,1.06.33,1.88.85,2.46s1.33.87,2.44.87c.61,0,1.11-.06,1.5-.17s.67-.21.84-.3l.23,1.13c-.17.1-.5.21-.98.34-.49.13-1.04.2-1.67.2ZM45.14,259.48h5.13c-.01-.61-.11-1.14-.31-1.58-.19-.44-.46-.77-.82-1.01-.35-.23-.79-.35-1.31-.35s-.99.14-1.39.41c-.4.28-.71.64-.93,1.08-.22.44-.35.92-.39,1.44Z"/>
      <path d="M54.18,264.92v-8.89c.31-.13.74-.27,1.29-.41s1.2-.21,1.97-.21c.25,0,.5.01.75.04.25.03.47.07.67.11.2.04.34.08.44.12l-.27,1.15c-.11-.05-.31-.1-.61-.15-.3-.05-.68-.08-1.15-.08s-.83.03-1.13.1c-.3.07-.5.12-.59.17v8.05h-1.35Z"/>
      <path d="M61,264.92v-9c.37-.1.86-.2,1.46-.32.6-.12,1.32-.18,2.16-.18.97,0,1.73.18,2.27.54s.92.86,1.14,1.5c.22.64.33,1.39.33,2.24v5.22h-1.35v-4.84c0-.85-.08-1.53-.23-2.03-.16-.5-.42-.87-.79-1.1-.37-.23-.89-.34-1.55-.34-.5,0-.95.03-1.33.09-.38.06-.64.11-.76.14v8.08h-1.35Z"/>
      <path d="M75.36,265.12c-1.09,0-1.98-.21-2.66-.63s-1.18-1-1.49-1.73c-.32-.73-.48-1.57-.48-2.5,0-1.09.2-2,.59-2.72s.91-1.26,1.54-1.62,1.29-.54,1.99-.54c.78,0,1.45.17,2.02.5.57.33,1.01.83,1.32,1.51.31.68.47,1.54.47,2.58,0,.08,0,.18,0,.3,0,.11-.02.22-.03.32h-6.5c.05,1.06.33,1.88.85,2.46s1.33.87,2.44.87c.61,0,1.11-.06,1.5-.17s.67-.21.84-.3l.23,1.13c-.17.1-.5.21-.98.34-.49.13-1.04.2-1.67.2ZM72.18,259.48h5.13c-.01-.61-.11-1.14-.31-1.58-.19-.44-.46-.77-.82-1.01-.35-.23-.79-.35-1.31-.35s-.99.14-1.39.41c-.4.28-.71.64-.93,1.08-.22.44-.35.92-.39,1.44Z"/>
      <path d="M83.73,265.08c-.58-.02-1.05-.12-1.43-.29s-.66-.43-.84-.78c-.18-.35-.27-.83-.27-1.43v-11.39l1.35-.23v11.54c0,.58.1.95.31,1.12.21.17.57.29,1.07.36l-.2,1.12Z"/>
    </g>
  </g>
  <g data-component-id="host_tools">
    <rect class="st2" x="400" y="24" width="368" height="288"/>
    <g class="st5">
      <path d="M409.51,48.92v-12.47h2.16v5.04h5.56v-5.04h2.16v12.47h-2.16v-5.58h-5.56v5.58h-2.16Z"/>
      <path d="M426.27,49.15c-.88,0-1.65-.21-2.33-.62-.68-.41-1.21-.99-1.58-1.73-.38-.74-.57-1.6-.57-2.6s.19-1.84.58-2.57c.38-.73.92-1.3,1.6-1.72s1.46-.62,2.32-.62,1.65.2,2.32.61c.67.41,1.2.98,1.58,1.72.38.74.58,1.6.58,2.58s-.19,1.86-.57,2.6c-.38.74-.9,1.31-1.57,1.73s-1.46.62-2.37.62ZM426.29,47.35c.49,0,.91-.13,1.26-.39.35-.26.62-.62.81-1.1.19-.47.29-1.03.29-1.67s-.1-1.19-.29-1.66c-.19-.47-.46-.83-.81-1.09-.35-.26-.77-.39-1.26-.39s-.92.13-1.28.39-.63.62-.82,1.09c-.19.47-.28,1.03-.28,1.67s.09,1.19.28,1.66c.19.47.46.83.82,1.09.36.26.79.39,1.28.39Z"/>
      <path d="M435.4,49.15c-.82,0-1.48-.07-1.99-.21s-.86-.25-1.05-.35l.4-1.71c.31.12.69.24,1.13.37s.95.19,1.53.19,1-.07,1.3-.22c.3-.14.45-.41.45-.79,0-.23-.07-.42-.2-.58-.13-.16-.33-.3-.6-.44s-.63-.29-1.09-.46c-.5-.22-.96-.44-1.37-.67-.41-.23-.73-.52-.97-.87-.24-.35-.36-.82-.36-1.39s.14-1.05.42-1.46c.28-.41.68-.72,1.21-.95s1.15-.33,1.88-.33c.59,0,1.12.05,1.61.15.49.1.85.21,1.11.31l-.4,1.66c-.24-.1-.54-.19-.89-.29s-.8-.14-1.34-.14c-.47,0-.84.08-1.12.23-.28.16-.42.4-.42.74,0,.23.05.42.16.57.11.15.29.29.55.42.26.13.6.28,1.02.43.66.25,1.2.51,1.62.76.42.26.73.57.95.93.21.36.31.82.31,1.37,0,.59-.15,1.09-.45,1.49-.3.41-.74.71-1.3.92-.57.2-1.26.31-2.08.31Z"/>
      <path d="M444.7,49.14c-.89,0-1.58-.16-2.09-.47s-.86-.76-1.06-1.35c-.2-.59-.31-1.29-.31-2.11v-8.21l2.07-.34v2.86h3.42v1.71h-3.42v4c0,.52.06.93.17,1.24.11.31.29.54.54.67.25.14.56.21.94.21s.71-.04,1.02-.12.57-.17.78-.26l.34,1.64c-.26.12-.6.24-1,.35-.4.11-.87.17-1.41.17Z"/>
      <path d="M447.67,44.56v-1.89h4.75v1.89h-4.75Z"/>
      <path d="M456.64,49.15c-.82,0-1.48-.07-1.99-.21s-.86-.25-1.05-.35l.4-1.71c.31.12.69.24,1.13.37s.95.19,1.53.19,1-.07,1.3-.22c.3-.14.45-.41.45-.79,0-.23-.07-.42-.2-.58-.13-.16-.33-.3-.6-.44s-.63-.29-1.09-.46c-.5-.22-.96-.44-1.37-.67-.41-.23-.73-.52-.97-.87-.24-.35-.36-.82-.36-1.39s.14-1.05.42-1.46c.28-.41.68-.72,1.21-.95s1.15-.33,1.88-.33c.59,0,1.12.05,1.61.15.49.1.85.21,1.11.31l-.4,1.66c-.24-.1-.54-.19-.89-.29s-.8-.14-1.34-.14c-.47,0-.84.08-1.12.23-.28.16-.42.4-.42.74,0,.23.05.42.16.57.11.15.29.29.55.42.26.13.6.28,1.02.43.66.25,1.2.51,1.62.76.42.26.73.57.95.93.21.36.31.82.31,1.37,0,.59-.15,1.09-.45,1.49-.3.41-.74.71-1.3.92-.57.2-1.26.31-2.08.31Z"/>
      <path d="M463.6,37.67c-.36,0-.67-.12-.92-.35-.25-.23-.38-.56-.38-.96s.13-.71.38-.94c.25-.23.56-.35.92-.35s.67.12.92.35c.25.23.38.55.38.94s-.13.73-.38.96c-.25.23-.56.35-.92.35ZM462.56,48.92v-9.4h2.07v9.4h-2.07Z"/>
      <path d="M471.68,49.15c-.98,0-1.83-.2-2.55-.59-.71-.4-1.27-.96-1.66-1.69-.39-.73-.58-1.6-.58-2.61s.17-1.86.5-2.6c.34-.74.82-1.31,1.45-1.72.63-.41,1.39-.61,2.28-.61.47,0,.88.06,1.24.17s.67.24.92.39v-4.59l2.07-.34v13.66c-.28.1-.61.18-1.01.26s-.82.14-1.27.2c-.45.05-.92.08-1.4.08ZM471.7,47.35c.37,0,.69-.01.96-.04.27-.03.48-.06.62-.1v-5.54c-.18-.14-.44-.28-.78-.4-.34-.12-.71-.18-1.09-.18-.43,0-.8.07-1.1.22-.3.14-.55.35-.74.63-.19.28-.33.6-.42.98-.09.38-.14.8-.14,1.27,0,.65.11,1.21.32,1.69.22.48.52.85.93,1.1s.88.38,1.43.38Z"/>
      <path d="M482.43,49.15c-1.12,0-2.03-.21-2.74-.64-.71-.43-1.23-1.01-1.58-1.75s-.51-1.58-.51-2.5c0-1.1.21-2.02.63-2.76.42-.74.96-1.29,1.62-1.66s1.36-.55,2.11-.55c.84,0,1.57.17,2.18.52.61.35,1.09.87,1.42,1.58s.5,1.58.5,2.64c0,.12,0,.26-.02.41-.01.15-.02.29-.04.42h-6.28c.06.78.33,1.39.82,1.84.49.44,1.19.67,2.11.67.55,0,1.04-.05,1.48-.15.43-.1.77-.21,1.01-.32l.31,1.69c-.24.12-.64.25-1.2.38-.56.13-1.17.2-1.83.2ZM479.75,43.34h4.28c-.01-.44-.09-.84-.24-1.19-.15-.35-.38-.62-.67-.83-.3-.2-.68-.31-1.13-.31s-.86.11-1.17.33c-.31.22-.56.51-.73.86-.17.35-.29.73-.33,1.12Z"/>
      <path d="M495.95,49.14c-.89,0-1.58-.16-2.09-.47s-.86-.76-1.06-1.35c-.2-.59-.31-1.29-.31-2.11v-8.21l2.07-.34v2.86h3.42v1.71h-3.42v4c0,.52.06.93.17,1.24.11.31.29.54.54.67.25.14.56.21.94.21s.71-.04,1.02-.12.57-.17.78-.26l.34,1.64c-.26.12-.6.24-1,.35-.4.11-.87.17-1.41.17Z"/>
      <path d="M503.9,49.15c-.88,0-1.65-.21-2.33-.62-.68-.41-1.21-.99-1.58-1.73-.38-.74-.57-1.6-.57-2.6s.19-1.84.58-2.57c.38-.73.92-1.3,1.6-1.72s1.46-.62,2.32-.62,1.65.2,2.32.61c.67.41,1.2.98,1.58,1.72.38.74.58,1.6.58,2.58s-.19,1.86-.57,2.6c-.38.74-.9,1.31-1.57,1.73s-1.46.62-2.37.62ZM503.92,47.35c.49,0,.91-.13,1.26-.39.35-.26.62-.62.81-1.1.19-.47.29-1.03.29-1.67s-.1-1.19-.29-1.66c-.19-.47-.46-.83-.81-1.09-.35-.26-.77-.39-1.26-.39s-.92.13-1.28.39-.63.62-.82,1.09c-.19.47-.28,1.03-.28,1.67s.09,1.19.28,1.66c.19.47.46.83.82,1.09.36.26.79.39,1.28.39Z"/>
      <path d="M514.65,49.15c-.88,0-1.65-.21-2.33-.62-.68-.41-1.21-.99-1.58-1.73-.38-.74-.57-1.6-.57-2.6s.19-1.84.58-2.57c.38-.73.92-1.3,1.6-1.72s1.46-.62,2.32-.62,1.65.2,2.32.61c.67.41,1.2.98,1.58,1.72.38.74.58,1.6.58,2.58s-.19,1.86-.57,2.6c-.38.74-.9,1.31-1.57,1.73s-1.46.62-2.37.62ZM514.67,47.35c.49,0,.91-.13,1.26-.39.35-.26.62-.62.81-1.1.19-.47.29-1.03.29-1.67s-.1-1.19-.29-1.66c-.19-.47-.46-.83-.81-1.09-.35-.26-.77-.39-1.26-.39s-.92.13-1.28.39-.63.62-.82,1.09c-.19.47-.28,1.03-.28,1.67s.09,1.19.28,1.66c.19.47.46.83.82,1.09.36.26.79.39,1.28.39Z"/>
      <path d="M524.6,49.1c-.82-.02-1.46-.15-1.93-.37-.47-.22-.8-.55-.99-.97s-.29-.96-.29-1.59v-10.87l2.07-.34v10.87c0,.53.1.91.29,1.13.19.23.57.37,1.13.43l-.29,1.71Z"/>
      <path d="M529.01,49.15c-.82,0-1.48-.07-1.99-.21s-.86-.25-1.05-.35l.4-1.71c.31.12.69.24,1.13.37s.95.19,1.53.19,1-.07,1.3-.22c.3-.14.45-.41.45-.79,0-.23-.07-.42-.2-.58-.13-.16-.33-.3-.6-.44s-.63-.29-1.09-.46c-.5-.22-.96-.44-1.37-.67-.41-.23-.73-.52-.97-.87-.24-.35-.36-.82-.36-1.39s.14-1.05.42-1.46c.28-.41.68-.72,1.21-.95s1.15-.33,1.88-.33c.59,0,1.12.05,1.61.15.49.1.85.21,1.11.31l-.4,1.66c-.24-.1-.54-.19-.89-.29s-.8-.14-1.34-.14c-.47,0-.84.08-1.12.23-.28.16-.42.4-.42.74,0,.23.05.42.16.57.11.15.29.29.55.42.26.13.6.28,1.02.43.66.25,1.2.51,1.62.76.42.26.73.57.95.93.21.36.31.82.31,1.37,0,.59-.15,1.09-.45,1.49-.3.41-.74.71-1.3.92-.57.2-1.26.31-2.08.31Z"/>
    </g>
  </g>
  <g data-component-id="cvd">
    <rect class="st2" x="408" y="112" width="352" height="64"/>
    <g class="st5">
      <path d="M421.44,137.12c-.98,0-1.81-.2-2.47-.6-.66-.4-1.16-.97-1.49-1.7-.34-.73-.5-1.58-.5-2.54s.17-1.82.52-2.56c.35-.73.85-1.3,1.5-1.72.65-.41,1.43-.62,2.33-.62.49,0,.96.04,1.4.13s.79.19,1.04.32l-.34,1.13c-.24-.11-.51-.2-.81-.27-.3-.07-.7-.11-1.19-.11-1,0-1.75.32-2.28.97-.52.65-.78,1.55-.78,2.72,0,.72.11,1.35.32,1.9.22.55.56.97,1.04,1.28.48.31,1.12.46,1.91.46.47,0,.88-.05,1.23-.16s.62-.2.78-.29l.27,1.15c-.23.12-.58.23-1.04.34-.47.11-.95.16-1.46.16Z"/>
      <path d="M428.33,136.92c-.3-.64-.61-1.32-.92-2.05-.31-.73-.62-1.49-.92-2.29s-.58-1.6-.85-2.44c-.27-.83-.51-1.68-.73-2.55h1.42c.19.83.43,1.72.73,2.67.29.95.61,1.88.95,2.79.34.91.67,1.7.98,2.39.24-.5.49-1.08.74-1.73.25-.65.5-1.32.74-2.02.24-.7.46-1.4.67-2.11s.38-1.37.52-1.99h1.35c-.22.86-.46,1.71-.73,2.55-.27.83-.56,1.65-.85,2.44s-.6,1.55-.91,2.29c-.31.73-.62,1.42-.93,2.05h-1.26Z"/>
      <path d="M438.9,137.14c-.91,0-1.72-.2-2.41-.58-.7-.39-1.24-.95-1.62-1.67-.38-.73-.58-1.59-.58-2.6s.16-1.81.49-2.54c.33-.73.81-1.31,1.44-1.72.63-.41,1.39-.62,2.28-.62.58,0,1.08.08,1.52.24.44.16.77.32.98.48v-4.93l1.33-.23v13.68c-.23.07-.51.15-.85.22-.34.08-.72.14-1.14.2-.43.05-.91.08-1.45.08ZM438.91,135.93c.53,0,.96-.03,1.3-.08.34-.05.6-.1.78-.15v-6.32c-.2-.17-.52-.34-.94-.51-.42-.17-.89-.26-1.42-.26s-1,.09-1.38.28c-.38.19-.68.45-.92.78-.23.34-.4.73-.5,1.17-.1.44-.15.92-.15,1.42,0,.78.14,1.44.4,1.99.27.55.65.96,1.13,1.25s1.05.43,1.68.43Z"/>
    </g>
  </g>
  <g data-component-id="launchers">
    <rect class="st2" x="408" y="200" width="352" height="64"/>
    <g class="st5">
      <path d="M417.6,224.92v-12.47h1.4v11.25h5.83v1.22h-7.24Z"/>
      <path d="M429.52,225.12c-.67,0-1.27-.1-1.8-.29-.53-.19-.94-.5-1.24-.94-.3-.43-.45-1-.45-1.71s.17-1.24.5-1.67c.34-.43.8-.73,1.4-.93.59-.19,1.26-.29,2.01-.29.34,0,.69.03,1.06.09.37.06.61.11.7.16v-.54c0-.41-.05-.8-.15-1.18s-.31-.69-.62-.93c-.31-.24-.79-.36-1.42-.36s-1.16.05-1.51.14c-.35.1-.61.17-.77.23l-.18-1.15c.22-.1.55-.19.99-.27.44-.08.97-.13,1.57-.13.85,0,1.53.15,2.02.45.5.3.86.71,1.08,1.23.22.52.33,1.12.33,1.79v5.85c-.25.06-.7.14-1.35.25-.65.11-1.37.16-2.16.16ZM429.72,223.97c.42,0,.8-.01,1.13-.04s.62-.07.85-.12v-3.13c-.12-.06-.32-.12-.61-.18-.29-.06-.66-.09-1.12-.09-.38,0-.77.04-1.17.13s-.73.25-1,.5-.41.63-.41,1.13c0,.67.21,1.14.63,1.4.42.26.98.4,1.69.4Z"/>
      <path d="M439.58,225.1c-.94,0-1.68-.18-2.22-.53-.55-.35-.94-.86-1.17-1.5-.23-.65-.35-1.4-.35-2.25v-5.22h1.35v4.86c0,.84.08,1.51.25,2.02s.44.87.82,1.09c.38.22.88.33,1.5.33.5,0,.95-.03,1.34-.08.39-.05.65-.1.77-.13v-8.08h1.33v9c-.36.1-.84.2-1.45.32s-1.33.18-2.17.18Z"/>
      <path d="M446.22,224.92v-9c.37-.1.86-.2,1.46-.32.6-.12,1.32-.18,2.16-.18.97,0,1.73.18,2.27.54s.92.86,1.14,1.5c.22.64.33,1.39.33,2.24v5.22h-1.35v-4.84c0-.85-.08-1.53-.23-2.03-.16-.5-.42-.87-.79-1.1-.37-.23-.89-.34-1.55-.34-.5,0-.95.03-1.33.09-.38.06-.64.11-.76.14v8.08h-1.35Z"/>
      <path d="M460.42,225.12c-.98,0-1.81-.2-2.47-.6-.66-.4-1.16-.97-1.49-1.7-.34-.73-.5-1.58-.5-2.54s.17-1.82.52-2.56c.35-.73.85-1.3,1.5-1.72.65-.41,1.43-.62,2.33-.62.49,0,.96.04,1.4.13s.79.19,1.04.32l-.34,1.13c-.24-.11-.51-.2-.81-.27-.3-.07-.7-.11-1.19-.11-1,0-1.75.32-2.28.97-.52.65-.78,1.55-.78,2.72,0,.72.11,1.35.32,1.9.22.55.56.97,1.04,1.28.48.31,1.12.46,1.91.46.47,0,.88-.05,1.23-.16s.62-.2.78-.29l.27,1.15c-.23.12-.58.23-1.04.34-.47.11-.95.16-1.46.16Z"/>
      <path d="M464.87,224.92v-13.73l1.35-.23v4.88c.35-.13.72-.23,1.11-.31.39-.07.77-.11,1.14-.11.98,0,1.75.18,2.29.54s.92.86,1.14,1.5c.22.64.33,1.39.33,2.24v5.22h-1.35v-4.84c0-.85-.08-1.53-.23-2.03-.16-.5-.42-.87-.79-1.1-.37-.23-.89-.34-1.57-.34-.25,0-.53.03-.82.08-.29.05-.56.11-.78.17-.23.06-.38.11-.47.14v7.92h-1.35Z"/>
      <path d="M479.23,225.12c-1.09,0-1.98-.21-2.66-.63s-1.18-1-1.49-1.73c-.32-.73-.48-1.57-.48-2.5,0-1.09.2-2,.59-2.72s.91-1.26,1.54-1.62,1.29-.54,1.99-.54c.78,0,1.45.17,2.02.5.57.33,1.01.83,1.32,1.51.31.68.47,1.54.47,2.58,0,.08,0,.18,0,.3,0,.11-.02.22-.03.32h-6.5c.05,1.06.33,1.88.85,2.46s1.33.87,2.44.87c.61,0,1.11-.06,1.5-.17s.67-.21.84-.3l.23,1.13c-.17.1-.5.21-.98.34-.49.13-1.04.2-1.67.2ZM476.05,219.48h5.13c-.01-.61-.11-1.14-.31-1.58-.19-.44-.46-.77-.82-1.01-.35-.23-.79-.35-1.31-.35s-.99.14-1.39.41c-.4.28-.71.64-.93,1.08-.22.44-.35.92-.39,1.44Z"/>
      <path d="M485.08,224.92v-8.89c.31-.13.74-.27,1.29-.41s1.2-.21,1.97-.21c.25,0,.5.01.75.04.25.03.47.07.67.11.2.04.34.08.44.12l-.27,1.15c-.11-.05-.31-.1-.61-.15-.3-.05-.68-.08-1.15-.08s-.83.03-1.13.1c-.3.07-.5.12-.59.17v8.05h-1.35Z"/>
      <path d="M493.9,225.14c-.8,0-1.43-.07-1.88-.21-.45-.14-.75-.24-.91-.31l.32-1.19c.13.05.4.15.81.31.41.16.96.23,1.66.23s1.19-.1,1.6-.31c.41-.2.61-.56.61-1.06,0-.32-.07-.58-.22-.78-.14-.2-.38-.38-.69-.55-.32-.17-.75-.36-1.31-.58-.47-.19-.9-.4-1.3-.61s-.72-.49-.96-.83c-.25-.34-.37-.77-.37-1.3s.13-.97.4-1.35c.26-.38.64-.68,1.12-.9.49-.22,1.06-.32,1.74-.32.62,0,1.15.05,1.58.16.43.11.74.2.92.29l-.31,1.17c-.16-.08-.41-.18-.76-.3-.35-.11-.84-.17-1.48-.17-.5,0-.94.1-1.31.31-.37.21-.56.54-.56,1,0,.32.08.58.23.78s.39.38.7.53.7.32,1.15.5c.52.2.98.42,1.4.64.41.22.75.51,1,.86.25.35.38.81.38,1.39s-.14,1.04-.43,1.43c-.29.39-.7.68-1.23.87-.53.19-1.17.29-1.92.29Z"/>
    </g>
  </g>
  <g data-component-id="anbox_cloud">
    <rect class="st2" x="792" y="24" width="336" height="288"/>
    <g>
      <g class="st5">
        <path d="M800.18,48.92c.64-1.76,1.22-3.37,1.76-4.81.54-1.44,1.07-2.78,1.59-4.03s1.07-2.46,1.65-3.64h2.02c.42.89.83,1.79,1.23,2.71.4.92.8,1.88,1.2,2.88s.81,2.07,1.23,3.19c.43,1.13.87,2.36,1.34,3.69h-2.32c-.17-.5-.34-1-.52-1.5-.18-.5-.35-.99-.52-1.49h-5.36c-.17.49-.35.99-.53,1.49-.19.5-.36,1-.51,1.5h-2.25ZM804.01,44.19h4.27c-.2-.58-.4-1.12-.6-1.65-.2-.52-.39-1.01-.58-1.48-.19-.46-.36-.89-.52-1.3-.16-.4-.31-.76-.44-1.07-.13.31-.28.67-.43,1.07-.16.4-.33.83-.51,1.3-.19.46-.38.95-.58,1.48-.2.52-.4,1.07-.6,1.65Z"/>
        <path d="M813.75,48.92v-9.07c.42-.12.96-.24,1.63-.35s1.41-.17,2.22-.17c1.03,0,1.83.18,2.4.54.57.36.97.86,1.21,1.51s.35,1.4.35,2.25v5.29h-2.07v-4.93c0-.71-.06-1.27-.19-1.69s-.34-.73-.63-.92c-.29-.19-.71-.29-1.25-.29-.34,0-.65.02-.95.06s-.51.07-.66.1v7.67h-2.07Z"/>
        <path d="M827.88,49.15c-.47,0-.93-.03-1.39-.08-.46-.05-.88-.12-1.27-.2-.39-.08-.73-.17-1.02-.26v-13.32l2.07-.34v4.93c.26-.14.59-.27.96-.39.38-.11.8-.17,1.27-.17.9,0,1.66.2,2.28.61.62.41,1.09.98,1.41,1.72.32.74.49,1.59.49,2.56s-.2,1.88-.58,2.61c-.39.73-.94,1.3-1.66,1.71-.71.41-1.57.61-2.57.61ZM827.86,47.35c.56,0,1.05-.13,1.45-.38s.71-.62.92-1.1c.21-.48.32-1.04.32-1.69,0-.47-.04-.89-.14-1.27-.09-.38-.23-.71-.42-.98-.19-.28-.44-.49-.74-.63-.3-.14-.67-.22-1.1-.22-.38,0-.74.06-1.08.18-.34.12-.6.25-.79.4v5.54c.16.04.37.07.63.1.26.03.58.04.95.04Z"/>
        <path d="M838.92,49.15c-.88,0-1.65-.21-2.33-.62s-1.21-.99-1.58-1.73c-.38-.74-.57-1.6-.57-2.6s.19-1.84.58-2.57c.38-.73.92-1.3,1.6-1.72s1.46-.62,2.32-.62,1.65.2,2.32.61c.67.41,1.2.98,1.58,1.72.38.74.58,1.6.58,2.58s-.19,1.86-.57,2.6c-.38.74-.9,1.31-1.57,1.73s-1.46.62-2.37.62ZM838.93,47.35c.49,0,.91-.13,1.26-.39.35-.26.62-.62.81-1.1.19-.47.29-1.03.29-1.67s-.1-1.19-.29-1.66c-.19-.47-.46-.83-.81-1.09s-.77-.39-1.26-.39-.92.13-1.28.39-.63.62-.82,1.09-.28,1.03-.28,1.67.09,1.19.28,1.66.46.83.82,1.09c.36.26.79.39,1.28.39Z"/>
        <path d="M844.35,48.92c.26-.49.57-1.02.93-1.58.35-.56.74-1.13,1.14-1.7.41-.57.81-1.11,1.21-1.61l-3.15-4.5h2.27l2.11,3.15,2.09-3.15h2.16l-3.11,4.45c.42.54.83,1.09,1.24,1.66.41.56.79,1.12,1.15,1.68.36.56.67,1.1.92,1.61h-2.21c-.16-.3-.36-.66-.61-1.07-.25-.41-.52-.85-.81-1.3-.29-.46-.58-.87-.88-1.24-.29.36-.58.76-.86,1.2-.29.44-.56.87-.81,1.29s-.46.8-.63,1.13h-2.12Z"/>
        <path d="M864.83,49.17c-1.24,0-2.3-.25-3.2-.76s-1.59-1.24-2.08-2.21c-.49-.97-.73-2.14-.73-3.54,0-1.03.16-1.95.48-2.76.32-.81.76-1.49,1.31-2.05.56-.56,1.21-.98,1.95-1.27s1.54-.43,2.38-.43c.67,0,1.26.06,1.76.18s.92.25,1.24.39c.32.14.56.26.7.35l-.65,1.76c-.35-.19-.77-.37-1.26-.52-.49-.16-1.07-.23-1.73-.23-.77,0-1.45.17-2.04.51-.59.34-1.06.85-1.4,1.53-.34.68-.5,1.52-.5,2.53,0,.9.14,1.69.42,2.38.28.69.71,1.23,1.3,1.63s1.32.59,2.22.59c.82,0,1.48-.08,1.98-.23.5-.16.91-.31,1.21-.47l.59,1.76c-.31.18-.81.37-1.49.56-.68.19-1.51.29-2.47.29Z"/>
        <path d="M873.78,49.1c-.82-.02-1.46-.15-1.93-.37-.47-.22-.8-.55-.99-.97s-.29-.96-.29-1.59v-10.87l2.07-.34v10.87c0,.53.1.91.29,1.13s.57.37,1.13.43l-.29,1.71Z"/>
        <path d="M879.81,49.15c-.88,0-1.65-.21-2.33-.62-.68-.41-1.21-.99-1.58-1.73-.38-.74-.57-1.6-.57-2.6s.19-1.84.58-2.57c.38-.73.92-1.3,1.6-1.72.68-.41,1.46-.62,2.32-.62s1.65.2,2.32.61c.67.41,1.2.98,1.58,1.72.38.74.58,1.6.58,2.58s-.19,1.86-.57,2.6c-.38.74-.9,1.31-1.57,1.73s-1.46.62-2.37.62ZM879.83,47.35c.49,0,.91-.13,1.26-.39.35-.26.62-.62.81-1.1.19-.47.29-1.03.29-1.67s-.1-1.19-.29-1.66c-.19-.47-.46-.83-.81-1.09s-.77-.39-1.26-.39-.92.13-1.28.39c-.36.26-.63.62-.82,1.09-.19.47-.28,1.03-.28,1.67s.09,1.19.28,1.66c.19.47.46.83.82,1.09.36.26.79.39,1.28.39Z"/>
        <path d="M890.43,49.12c-1.01,0-1.8-.18-2.38-.55-.58-.37-.98-.88-1.22-1.53s-.36-1.41-.36-2.28v-5.24h2.07v4.9c0,.71.06,1.28.19,1.7.13.43.34.74.65.93.31.19.71.29,1.21.29.34,0,.65-.02.95-.05s.52-.07.67-.09v-7.67h2.05v9.07c-.41.12-.95.24-1.61.35-.67.11-1.41.17-2.22.17Z"/>
        <path d="M901.32,49.15c-.98,0-1.83-.2-2.55-.59-.71-.4-1.27-.96-1.66-1.69-.39-.73-.59-1.6-.59-2.61s.17-1.86.5-2.6c.33-.74.82-1.31,1.45-1.72.63-.41,1.39-.61,2.28-.61.47,0,.88.06,1.24.17s.67.24.92.39v-4.59l2.07-.34v13.66c-.28.1-.61.18-1.01.26-.4.08-.82.14-1.27.2-.45.05-.92.08-1.39.08ZM901.34,47.35c.37,0,.69-.01.96-.04.27-.03.48-.06.62-.1v-5.54c-.18-.14-.44-.28-.78-.4-.34-.12-.71-.18-1.09-.18-.43,0-.8.07-1.1.22-.3.14-.54.35-.74.63-.19.28-.33.6-.42.98s-.13.8-.13,1.27c0,.65.11,1.21.32,1.69.21.48.52.85.93,1.1.4.25.88.38,1.43.38Z"/>
      </g>
      <g class="st5">
        <path d="M800.5,68.33v-1.28h4.19v1.28h-4.19Z"/>
        <path d="M816.16,73.19c-1.09,0-2.07-.25-2.94-.76s-1.55-1.24-2.05-2.21c-.5-.97-.75-2.15-.75-3.55,0-1.04.16-1.97.47-2.78.31-.81.74-1.49,1.29-2.04.55-.55,1.17-.97,1.87-1.25.7-.28,1.44-.42,2.21-.42.64,0,1.19.05,1.67.15.47.1.87.22,1.18.35.31.13.54.25.68.34l-.45,1.19c-.3-.18-.69-.35-1.16-.52-.47-.17-1.05-.25-1.72-.25-.98,0-1.81.22-2.49.66-.68.44-1.19,1.05-1.54,1.84-.35.79-.52,1.71-.52,2.76s.17,1.98.5,2.76c.33.79.83,1.39,1.48,1.83.65.43,1.46.65,2.4.65.79,0,1.45-.07,1.98-.22.53-.15.94-.3,1.22-.46l.38,1.19c-.19.12-.61.28-1.25.47-.64.19-1.46.29-2.46.29Z"/>
        <path d="M825.6,73.14c-.83,0-1.57-.2-2.21-.6-.65-.4-1.15-.97-1.52-1.7-.37-.73-.55-1.59-.55-2.57s.18-1.84.55-2.56c.37-.73.87-1.29,1.52-1.7.65-.41,1.39-.61,2.21-.61s1.58.2,2.23.61c.65.41,1.16.97,1.52,1.7.37.73.55,1.58.55,2.56s-.18,1.84-.55,2.57c-.37.73-.87,1.3-1.51,1.7-.64.4-1.39.6-2.24.6ZM825.6,71.93c.6,0,1.12-.15,1.55-.45.43-.3.76-.73,1-1.28s.35-1.2.35-1.94-.12-1.39-.35-1.94c-.23-.55-.57-.98-1-1.28-.43-.3-.95-.45-1.55-.45s-1.1.15-1.53.45-.76.73-1,1.28c-.23.55-.35,1.2-.35,1.94s.12,1.39.35,1.94.57.98,1,1.28c.43.3.94.45,1.53.45Z"/>
        <path d="M832.38,72.92v-9c.37-.1.86-.2,1.46-.32.6-.12,1.32-.18,2.16-.18.97,0,1.73.18,2.27.54.54.36.92.86,1.14,1.5.22.64.33,1.39.33,2.24v5.22h-1.35v-4.84c0-.85-.08-1.53-.23-2.03-.16-.5-.42-.87-.79-1.1-.37-.23-.89-.34-1.55-.34-.5,0-.95.03-1.33.09-.38.06-.64.11-.76.14v8.08h-1.35Z"/>
        <path d="M844.66,73.14c-.8,0-1.43-.07-1.88-.21s-.75-.24-.91-.31l.32-1.19c.13.05.4.15.81.31.41.16.96.23,1.66.23.66,0,1.19-.1,1.6-.31s.61-.56.61-1.06c0-.32-.07-.58-.22-.78-.14-.2-.38-.38-.69-.55-.32-.17-.75-.36-1.31-.58-.47-.19-.9-.4-1.3-.61s-.72-.49-.96-.83-.37-.77-.37-1.3.13-.97.4-1.35c.26-.38.64-.68,1.12-.9s1.06-.32,1.74-.32c.62,0,1.15.05,1.58.16s.74.2.92.29l-.31,1.17c-.16-.08-.41-.18-.76-.3-.35-.11-.84-.17-1.48-.17-.5,0-.94.1-1.31.31-.37.21-.56.54-.56,1,0,.32.08.58.23.78s.39.38.7.53.7.32,1.15.5c.52.2.98.42,1.4.64.41.22.75.51,1,.86.25.35.38.81.38,1.39s-.14,1.04-.43,1.43c-.29.39-.7.68-1.23.87-.53.19-1.17.29-1.92.29Z"/>
        <path d="M854.11,73.1c-.94,0-1.68-.18-2.22-.53-.55-.35-.94-.86-1.17-1.5-.23-.65-.35-1.4-.35-2.25v-5.22h1.35v4.86c0,.84.08,1.51.25,2.02s.44.87.82,1.09c.38.22.88.33,1.5.33.5,0,.95-.03,1.34-.08.39-.05.65-.1.76-.13v-8.08h1.33v9c-.36.1-.84.2-1.45.32-.61.12-1.33.18-2.17.18Z"/>
        <path d="M860.75,72.92v-9c.37-.1.85-.2,1.42-.32.58-.12,1.29-.18,2.14-.18.6,0,1.11.08,1.54.25.43.17.77.42,1.03.76.11-.08.3-.21.58-.37.28-.16.63-.31,1.05-.44s.91-.2,1.45-.2c.96,0,1.68.18,2.17.55.49.37.81.87.98,1.51.17.64.25,1.38.25,2.22v5.22h-1.35v-4.84c0-.79-.05-1.44-.16-1.95-.11-.51-.32-.89-.63-1.14-.31-.25-.77-.38-1.38-.38-.45,0-.83.05-1.16.15-.33.1-.6.22-.81.35-.21.13-.36.23-.46.31.11.3.19.64.24,1.03.05.38.08.79.08,1.21v5.27h-1.35v-4.84c0-.79-.05-1.44-.16-1.95-.11-.51-.32-.89-.64-1.14-.32-.25-.79-.38-1.43-.38-.35,0-.66.02-.94.04-.28.03-.52.06-.7.1-.19.04-.32.07-.4.09v8.08h-1.35Z"/>
        <path d="M880.37,73.12c-1.09,0-1.98-.21-2.66-.63s-1.18-1-1.49-1.73c-.32-.73-.48-1.57-.48-2.5,0-1.09.2-2,.59-2.72s.91-1.26,1.54-1.62,1.29-.54,1.99-.54c.78,0,1.46.17,2.03.5.57.33,1.01.83,1.32,1.51.31.68.47,1.54.47,2.58,0,.08,0,.18,0,.3,0,.11-.02.22-.03.32h-6.5c.05,1.06.33,1.88.86,2.46s1.33.87,2.44.87c.61,0,1.11-.06,1.5-.17.39-.11.67-.21.84-.3l.23,1.13c-.17.1-.5.21-.98.34-.49.13-1.04.2-1.67.2ZM877.18,67.48h5.13c-.01-.61-.11-1.14-.31-1.58-.19-.44-.46-.77-.82-1.01-.35-.23-.79-.35-1.3-.35s-.99.14-1.39.41c-.4.28-.71.64-.93,1.08-.22.44-.35.92-.39,1.44Z"/>
        <path d="M888.22,73.14c-.8,0-1.43-.07-1.88-.21-.45-.14-.75-.24-.91-.31l.32-1.19c.13.05.4.15.81.31.41.16.96.23,1.66.23s1.19-.1,1.6-.31c.41-.2.61-.56.61-1.06,0-.32-.07-.58-.22-.78-.14-.2-.38-.38-.69-.55-.32-.17-.75-.36-1.3-.58-.47-.19-.9-.4-1.3-.61s-.72-.49-.96-.83c-.25-.34-.37-.77-.37-1.3s.13-.97.4-1.35c.26-.38.64-.68,1.12-.9.49-.22,1.07-.32,1.74-.32.62,0,1.15.05,1.58.16.43.11.74.2.92.29l-.31,1.17c-.16-.08-.41-.18-.76-.3s-.84-.17-1.48-.17c-.5,0-.94.1-1.31.31s-.56.54-.56,1c0,.32.08.58.23.78s.39.38.7.53.7.32,1.15.5c.52.2.98.42,1.39.64.41.22.75.51,1,.86.25.35.38.81.38,1.39s-.14,1.04-.43,1.43c-.29.39-.7.68-1.23.87-.53.19-1.17.29-1.92.29Z"/>
        <path d="M900.15,73.14c-.8,0-1.43-.07-1.88-.21-.45-.14-.75-.24-.91-.31l.32-1.19c.13.05.4.15.81.31.41.16.96.23,1.66.23s1.19-.1,1.6-.31c.41-.2.61-.56.61-1.06,0-.32-.07-.58-.22-.78-.14-.2-.38-.38-.69-.55-.32-.17-.75-.36-1.3-.58-.47-.19-.9-.4-1.3-.61s-.72-.49-.96-.83c-.25-.34-.37-.77-.37-1.3s.13-.97.4-1.35c.26-.38.64-.68,1.12-.9.49-.22,1.07-.32,1.74-.32.62,0,1.15.05,1.58.16.43.11.74.2.92.29l-.31,1.17c-.16-.08-.41-.18-.76-.3s-.84-.17-1.48-.17c-.5,0-.94.1-1.31.31s-.56.54-.56,1c0,.32.08.58.23.78s.39.38.7.53.7.32,1.15.5c.52.2.98.42,1.39.64.41.22.75.51,1,.86.25.35.38.81.38,1.39s-.14,1.04-.43,1.43c-.29.39-.7.68-1.23.87-.53.19-1.17.29-1.92.29Z"/>
        <path d="M905.84,76.3c-.3,0-.58-.04-.85-.11-.26-.07-.44-.13-.52-.18l.27-1.1c.07.04.22.09.45.15.23.07.46.1.68.1.44,0,.82-.07,1.13-.2s.59-.35.83-.67c.24-.31.46-.73.67-1.26-.52-.95-1-1.95-1.47-3.01s-.88-2.13-1.27-3.22c-.38-1.09-.71-2.17-.97-3.22h1.42c.13.56.3,1.17.49,1.82.2.65.42,1.32.67,2.02.25.7.52,1.4.82,2.12s.62,1.42.95,2.12c.34-.95.63-1.85.88-2.69s.49-1.7.7-2.57c.22-.87.44-1.8.67-2.8h1.35c-.26,1.15-.55,2.29-.87,3.42s-.65,2.21-1.01,3.25c-.35,1.04-.73,2.02-1.12,2.94-.3.72-.62,1.31-.95,1.76s-.74.79-1.2,1.01c-.46.22-1.05.32-1.76.32Z"/>
        <path d="M916.64,73.14c-.8,0-1.43-.07-1.88-.21s-.75-.24-.91-.31l.32-1.19c.13.05.4.15.81.31.41.16.96.23,1.66.23.66,0,1.19-.1,1.6-.31s.61-.56.61-1.06c0-.32-.07-.58-.22-.78-.14-.2-.38-.38-.69-.55-.32-.17-.75-.36-1.31-.58-.47-.19-.9-.4-1.3-.61s-.72-.49-.96-.83-.37-.77-.37-1.3.13-.97.4-1.35c.26-.38.64-.68,1.12-.9s1.06-.32,1.74-.32c.62,0,1.15.05,1.58.16s.74.2.92.29l-.31,1.17c-.16-.08-.41-.18-.76-.3-.35-.11-.84-.17-1.48-.17-.5,0-.94.1-1.31.31-.37.21-.56.54-.56,1,0,.32.08.58.23.78s.39.38.7.53.7.32,1.15.5c.52.2.98.42,1.4.64.41.22.75.51,1,.86.25.35.38.81.38,1.39s-.14,1.04-.43,1.43c-.29.39-.7.68-1.23.87-.53.19-1.17.29-1.92.29Z"/>
        <path d="M925.49,73.12c-.79,0-1.42-.14-1.87-.41-.46-.28-.78-.69-.96-1.24-.19-.55-.28-1.24-.28-2.07v-8.5l1.35-.23v2.93h3.65v1.13h-3.65v4.77c0,.66.07,1.16.22,1.51.15.35.37.58.65.71.28.13.61.19,1,.19.46,0,.84-.05,1.14-.16s.55-.2.73-.29l.29,1.1c-.18.11-.48.23-.89.36s-.87.2-1.38.2Z"/>
        <path d="M933.58,73.12c-1.09,0-1.98-.21-2.66-.63s-1.18-1-1.49-1.73c-.32-.73-.48-1.57-.48-2.5,0-1.09.2-2,.59-2.72s.91-1.26,1.54-1.62,1.29-.54,1.99-.54c.78,0,1.46.17,2.03.5.57.33,1.01.83,1.32,1.51.31.68.47,1.54.47,2.58,0,.08,0,.18,0,.3,0,.11-.02.22-.03.32h-6.5c.05,1.06.33,1.88.86,2.46s1.33.87,2.44.87c.61,0,1.11-.06,1.5-.17.39-.11.67-.21.84-.3l.23,1.13c-.17.1-.5.21-.98.34-.49.13-1.04.2-1.67.2ZM930.39,67.48h5.13c-.01-.61-.11-1.14-.31-1.58-.19-.44-.46-.77-.82-1.01-.35-.23-.79-.35-1.3-.35s-.99.14-1.39.41c-.4.28-.71.64-.93,1.08-.22.44-.35.92-.39,1.44Z"/>
        <path d="M939.43,72.92v-9c.37-.1.85-.2,1.42-.32.58-.12,1.29-.18,2.14-.18.6,0,1.11.08,1.54.25.43.17.77.42,1.03.76.11-.08.3-.21.58-.37s.63-.31,1.05-.44.91-.2,1.45-.2c.96,0,1.68.18,2.17.55s.81.87.98,1.51c.17.64.25,1.38.25,2.22v5.22h-1.35v-4.84c0-.79-.05-1.44-.16-1.95-.11-.51-.32-.89-.63-1.14-.31-.25-.77-.38-1.39-.38-.44,0-.83.05-1.16.15-.33.1-.6.22-.81.35-.21.13-.36.23-.46.31.11.3.19.64.24,1.03.05.38.08.79.08,1.21v5.27h-1.35v-4.84c0-.79-.05-1.44-.16-1.95s-.32-.89-.64-1.14c-.32-.25-.8-.38-1.43-.38-.35,0-.66.02-.95.04-.28.03-.52.06-.7.1s-.32.07-.41.09v8.08h-1.35Z"/>
        <path d="M959.77,61.36c-.26,0-.49-.09-.68-.27-.19-.18-.28-.42-.28-.72s.09-.52.28-.7c.19-.18.41-.27.68-.27s.49.09.67.27.28.41.28.7-.09.54-.28.72-.41.27-.67.27ZM959.08,72.92v-9.32h1.35v9.32h-1.35Z"/>
        <path d="M963.46,72.92v-9c.37-.1.85-.2,1.42-.32.58-.12,1.29-.18,2.14-.18.6,0,1.11.08,1.54.25s.77.42,1.04.76c.11-.08.3-.21.58-.37.28-.16.63-.31,1.05-.44s.91-.2,1.45-.2c.96,0,1.68.18,2.17.55.49.37.81.87.98,1.51.17.64.25,1.38.25,2.22v5.22h-1.35v-4.84c0-.79-.05-1.44-.16-1.95s-.32-.89-.63-1.14c-.31-.25-.77-.38-1.39-.38-.44,0-.83.05-1.16.15-.33.1-.6.22-.81.35-.21.13-.36.23-.46.31.11.3.19.64.24,1.03.05.38.08.79.08,1.21v5.27h-1.35v-4.84c0-.79-.05-1.44-.16-1.95-.11-.51-.32-.89-.64-1.14-.32-.25-.8-.38-1.43-.38-.35,0-.66.02-.95.04-.28.03-.52.06-.7.1-.19.04-.32.07-.41.09v8.08h-1.35Z"/>
        <path d="M981.81,73.12c-.67,0-1.27-.1-1.8-.29-.53-.19-.94-.5-1.24-.94-.3-.43-.45-1-.45-1.71s.17-1.24.5-1.67c.34-.43.8-.73,1.4-.93.59-.19,1.26-.29,2.01-.29.34,0,.69.03,1.06.09.37.06.61.11.7.16v-.54c0-.41-.05-.8-.15-1.18s-.31-.69-.62-.93-.79-.36-1.42-.36-1.16.05-1.51.14c-.35.1-.61.17-.77.23l-.18-1.15c.22-.1.55-.19.99-.27.44-.08.97-.13,1.57-.13.85,0,1.53.15,2.03.45s.86.71,1.08,1.23c.22.52.33,1.12.33,1.79v5.85c-.25.06-.7.14-1.35.25-.65.11-1.37.16-2.16.16ZM982.01,71.97c.42,0,.8-.01,1.13-.04s.62-.07.85-.12v-3.13c-.12-.06-.32-.12-.61-.18-.29-.06-.66-.09-1.12-.09-.38,0-.77.04-1.17.13-.4.08-.73.25-1,.5-.27.25-.4.63-.4,1.13,0,.67.21,1.14.63,1.4.42.26.98.4,1.69.4Z"/>
        <path d="M991.17,76.3c-.59,0-1.13-.05-1.64-.14-.5-.1-.94-.2-1.3-.32l.27-1.19c.3.12.7.23,1.19.33.49.1,1,.15,1.51.15.72,0,1.3-.09,1.75-.27.44-.18.77-.47.98-.86.21-.4.32-.92.32-1.57v-.59c-.17.12-.46.27-.86.44s-.93.26-1.57.26c-.73,0-1.41-.15-2.04-.46-.63-.31-1.13-.79-1.51-1.45-.38-.66-.57-1.52-.57-2.59,0-.89.18-1.68.53-2.38.35-.7.86-1.25,1.53-1.65.67-.4,1.46-.6,2.38-.6.84,0,1.53.06,2.08.17.54.11.99.22,1.34.33v8.44c0,1.4-.36,2.41-1.09,3.02-.73.61-1.83.92-3.3.92ZM991.88,71.35c.49,0,.95-.07,1.38-.22.43-.14.75-.31.98-.5v-5.8c-.19-.06-.44-.11-.76-.16-.31-.05-.75-.07-1.31-.07-.65,0-1.2.14-1.66.43s-.8.69-1.04,1.21c-.24.52-.36,1.12-.36,1.81,0,.59.08,1.09.23,1.51s.37.76.63,1.03c.26.26.56.46.89.58s.67.18,1.02.18Z"/>
        <path d="M1002.68,73.12c-1.09,0-1.98-.21-2.66-.63s-1.18-1-1.49-1.73c-.32-.73-.48-1.57-.48-2.5,0-1.09.2-2,.59-2.72s.91-1.26,1.54-1.62,1.29-.54,1.99-.54c.78,0,1.45.17,2.02.5s1.01.83,1.32,1.51c.31.68.47,1.54.47,2.58,0,.08,0,.18,0,.3,0,.11-.01.22-.03.32h-6.5c.05,1.06.33,1.88.85,2.46s1.33.87,2.44.87c.61,0,1.11-.06,1.5-.17.39-.11.67-.21.84-.3l.23,1.13c-.17.1-.49.21-.98.34s-1.04.2-1.67.2ZM999.49,67.48h5.13c-.01-.61-.12-1.14-.31-1.58-.19-.44-.46-.77-.82-1.01-.35-.23-.79-.35-1.31-.35s-.99.14-1.39.41c-.4.28-.71.64-.93,1.08-.22.44-.35.92-.39,1.44Z"/>
        <path d="M1010.52,73.14c-.8,0-1.43-.07-1.88-.21s-.75-.24-.91-.31l.32-1.19c.13.05.4.15.81.31.41.16.96.23,1.66.23.66,0,1.19-.1,1.6-.31s.61-.56.61-1.06c0-.32-.07-.58-.22-.78-.14-.2-.38-.38-.69-.55-.32-.17-.75-.36-1.31-.58-.47-.19-.9-.4-1.3-.61s-.72-.49-.96-.83-.37-.77-.37-1.3.13-.97.4-1.35c.26-.38.64-.68,1.12-.9s1.06-.32,1.74-.32c.62,0,1.15.05,1.58.16s.74.2.92.29l-.31,1.17c-.16-.08-.41-.18-.76-.3-.35-.11-.84-.17-1.48-.17-.5,0-.94.1-1.31.31-.37.21-.56.54-.56,1,0,.32.08.58.23.78s.39.38.7.53.7.32,1.15.5c.52.2.98.42,1.4.64.41.22.75.51,1,.86.25.35.38.81.38,1.39s-.14,1.04-.43,1.43c-.29.39-.7.68-1.23.87-.53.19-1.17.29-1.92.29Z"/>
      </g>
      <g class="st5">
        <path d="M800.5,92.33v-1.28h4.19v1.28h-4.19Z"/>
        <path d="M816.16,97.19c-1.09,0-2.07-.25-2.94-.76s-1.55-1.24-2.05-2.21c-.5-.97-.75-2.15-.75-3.55,0-1.04.16-1.97.47-2.78.31-.81.74-1.49,1.29-2.04.55-.55,1.17-.97,1.87-1.25.7-.28,1.44-.42,2.21-.42.64,0,1.19.05,1.67.15.47.1.87.22,1.18.35.31.13.54.25.68.34l-.45,1.19c-.3-.18-.69-.35-1.16-.52-.47-.17-1.05-.25-1.72-.25-.98,0-1.81.22-2.49.66-.68.44-1.19,1.05-1.54,1.84-.35.79-.52,1.71-.52,2.76s.17,1.98.5,2.76c.33.79.83,1.39,1.48,1.83.65.43,1.46.65,2.4.65.79,0,1.45-.07,1.98-.22.53-.15.94-.3,1.22-.46l.38,1.19c-.19.12-.61.28-1.25.47-.64.19-1.46.29-2.46.29Z"/>
        <path d="M825.6,97.14c-.83,0-1.57-.2-2.21-.6-.65-.4-1.15-.97-1.52-1.7-.37-.73-.55-1.59-.55-2.57s.18-1.84.55-2.56c.37-.73.87-1.29,1.52-1.7.65-.41,1.39-.61,2.21-.61s1.58.2,2.23.61c.65.41,1.16.97,1.52,1.7.37.73.55,1.58.55,2.56s-.18,1.84-.55,2.57c-.37.73-.87,1.3-1.51,1.7-.64.4-1.39.6-2.24.6ZM825.6,95.93c.6,0,1.12-.15,1.55-.45.43-.3.76-.73,1-1.28s.35-1.2.35-1.94-.12-1.39-.35-1.94c-.23-.55-.57-.98-1-1.28-.43-.3-.95-.45-1.55-.45s-1.1.15-1.53.45-.76.73-1,1.28c-.23.55-.35,1.2-.35,1.94s.12,1.39.35,1.94.57.98,1,1.28c.43.3.94.45,1.53.45Z"/>
        <path d="M832.38,96.92v-9c.37-.1.86-.2,1.46-.32.6-.12,1.32-.18,2.16-.18.97,0,1.73.18,2.27.54.54.36.92.86,1.14,1.5.22.64.33,1.39.33,2.24v5.22h-1.35v-4.84c0-.85-.08-1.53-.23-2.03-.16-.5-.42-.87-.79-1.1-.37-.23-.89-.34-1.55-.34-.5,0-.95.03-1.33.09-.38.06-.64.11-.76.14v8.08h-1.35Z"/>
        <path d="M844.66,97.14c-.8,0-1.43-.07-1.88-.21s-.75-.24-.91-.31l.32-1.19c.13.05.4.15.81.31.41.16.96.23,1.66.23.66,0,1.19-.1,1.6-.31s.61-.56.61-1.06c0-.32-.07-.58-.22-.78-.14-.2-.38-.38-.69-.55-.32-.17-.75-.36-1.31-.58-.47-.19-.9-.4-1.3-.61s-.72-.49-.96-.83-.37-.77-.37-1.3.13-.97.4-1.35c.26-.38.64-.68,1.12-.9s1.06-.32,1.74-.32c.62,0,1.15.05,1.58.16s.74.2.92.29l-.31,1.17c-.16-.08-.41-.18-.76-.3-.35-.11-.84-.17-1.48-.17-.5,0-.94.1-1.31.31-.37.21-.56.54-.56,1,0,.32.08.58.23.78s.39.38.7.53.7.32,1.15.5c.52.2.98.42,1.4.64.41.22.75.51,1,.86.25.35.38.81.38,1.39s-.14,1.04-.43,1.43c-.29.39-.7.68-1.23.87-.53.19-1.17.29-1.92.29Z"/>
        <path d="M854.11,97.1c-.94,0-1.68-.18-2.22-.53-.55-.35-.94-.86-1.17-1.5-.23-.65-.35-1.4-.35-2.25v-5.22h1.35v4.86c0,.84.08,1.51.25,2.02s.44.87.82,1.09c.38.22.88.33,1.5.33.5,0,.95-.03,1.34-.08.39-.05.65-.1.76-.13v-8.08h1.33v9c-.36.1-.84.2-1.45.32-.61.12-1.33.18-2.17.18Z"/>
        <path d="M860.75,96.92v-9c.37-.1.85-.2,1.42-.32.58-.12,1.29-.18,2.14-.18.6,0,1.11.08,1.54.25.43.17.77.42,1.03.76.11-.08.3-.21.58-.37.28-.16.63-.31,1.05-.44s.91-.2,1.45-.2c.96,0,1.68.18,2.17.55.49.37.81.87.98,1.51.17.64.25,1.38.25,2.22v5.22h-1.35v-4.84c0-.79-.05-1.44-.16-1.95-.11-.51-.32-.89-.63-1.14-.31-.25-.77-.38-1.38-.38-.45,0-.83.05-1.16.15-.33.1-.6.22-.81.35-.21.13-.36.23-.46.31.11.3.19.64.24,1.03.05.38.08.79.08,1.21v5.27h-1.35v-4.84c0-.79-.05-1.44-.16-1.95-.11-.51-.32-.89-.64-1.14-.32-.25-.79-.38-1.43-.38-.35,0-.66.02-.94.04-.28.03-.52.06-.7.1-.19.04-.32.07-.4.09v8.08h-1.35Z"/>
        <path d="M880.37,97.12c-1.09,0-1.98-.21-2.66-.63s-1.18-1-1.49-1.73c-.32-.73-.48-1.57-.48-2.5,0-1.09.2-2,.59-2.72s.91-1.26,1.54-1.62,1.29-.54,1.99-.54c.78,0,1.46.17,2.03.5.57.33,1.01.83,1.32,1.51.31.68.47,1.54.47,2.58,0,.08,0,.18,0,.3,0,.11-.02.22-.03.32h-6.5c.05,1.06.33,1.88.86,2.46s1.33.87,2.44.87c.61,0,1.11-.06,1.5-.17.39-.11.67-.21.84-.3l.23,1.13c-.17.1-.5.21-.98.34-.49.13-1.04.2-1.67.2ZM877.18,91.48h5.13c-.01-.61-.11-1.14-.31-1.58-.19-.44-.46-.77-.82-1.01-.35-.23-.79-.35-1.3-.35s-.99.14-1.39.41c-.4.28-.71.64-.93,1.08-.22.44-.35.92-.39,1.44Z"/>
        <path d="M888.22,97.14c-.8,0-1.43-.07-1.88-.21-.45-.14-.75-.24-.91-.31l.32-1.19c.13.05.4.15.81.31.41.16.96.23,1.66.23s1.19-.1,1.6-.31c.41-.2.61-.56.61-1.06,0-.32-.07-.58-.22-.78-.14-.2-.38-.38-.69-.55-.32-.17-.75-.36-1.3-.58-.47-.19-.9-.4-1.3-.61s-.72-.49-.96-.83c-.25-.34-.37-.77-.37-1.3s.13-.97.4-1.35c.26-.38.64-.68,1.12-.9.49-.22,1.07-.32,1.74-.32.62,0,1.15.05,1.58.16.43.11.74.2.92.29l-.31,1.17c-.16-.08-.41-.18-.76-.3s-.84-.17-1.48-.17c-.5,0-.94.1-1.31.31s-.56.54-.56,1c0,.32.08.58.23.78s.39.38.7.53.7.32,1.15.5c.52.2.98.42,1.39.64.41.22.75.51,1,.86.25.35.38.81.38,1.39s-.14,1.04-.43,1.43c-.29.39-.7.68-1.23.87-.53.19-1.17.29-1.92.29Z"/>
        <path d="M898.15,96.92v-13.73l1.35-.23v4.88c.35-.13.72-.23,1.11-.31.39-.07.77-.11,1.14-.11.98,0,1.75.18,2.29.54.54.36.92.86,1.14,1.5.22.64.33,1.39.33,2.24v5.22h-1.35v-4.84c0-.85-.08-1.53-.23-2.03-.16-.5-.42-.87-.79-1.1-.37-.23-.89-.34-1.57-.34-.25,0-.53.03-.82.08-.29.05-.56.11-.78.17-.23.06-.38.11-.47.14v7.92h-1.35Z"/>
        <path d="M912.17,97.14c-.83,0-1.57-.2-2.21-.6-.65-.4-1.16-.97-1.52-1.7-.37-.73-.55-1.59-.55-2.57s.18-1.84.55-2.56c.37-.73.87-1.29,1.52-1.7.65-.41,1.39-.61,2.21-.61s1.58.2,2.23.61,1.15.97,1.52,1.7c.37.73.55,1.58.55,2.56s-.18,1.84-.55,2.57c-.37.73-.87,1.3-1.51,1.7-.64.4-1.39.6-2.24.6ZM912.17,95.93c.6,0,1.12-.15,1.55-.45.43-.3.76-.73,1-1.28.23-.55.35-1.2.35-1.94s-.12-1.39-.35-1.94c-.23-.55-.57-.98-1-1.28s-.95-.45-1.55-.45-1.1.15-1.53.45-.77.73-1,1.28c-.23.55-.35,1.2-.35,1.94s.12,1.39.35,1.94.57.98,1,1.28c.43.3.94.45,1.53.45Z"/>
        <path d="M920.96,97.14c-.8,0-1.43-.07-1.88-.21s-.75-.24-.91-.31l.32-1.19c.13.05.4.15.81.31.41.16.96.23,1.66.23.66,0,1.19-.1,1.6-.31s.61-.56.61-1.06c0-.32-.07-.58-.22-.78-.14-.2-.38-.38-.69-.55-.32-.17-.75-.36-1.31-.58-.47-.19-.9-.4-1.3-.61s-.72-.49-.96-.83-.37-.77-.37-1.3.13-.97.4-1.35c.26-.38.64-.68,1.12-.9s1.06-.32,1.74-.32c.62,0,1.15.05,1.58.16s.74.2.92.29l-.31,1.17c-.16-.08-.41-.18-.76-.3-.35-.11-.84-.17-1.48-.17-.5,0-.94.1-1.31.31-.37.21-.56.54-.56,1,0,.32.08.58.23.78s.39.38.7.53.7.32,1.15.5c.52.2.98.42,1.4.64.41.22.75.51,1,.86.25.35.38.81.38,1.39s-.14,1.04-.43,1.43c-.29.39-.7.68-1.23.87-.53.19-1.17.29-1.92.29Z"/>
        <path d="M929.81,97.12c-.79,0-1.42-.14-1.87-.41-.46-.28-.78-.69-.96-1.24-.19-.55-.28-1.24-.28-2.07v-8.5l1.35-.23v2.93h3.65v1.13h-3.65v4.77c0,.66.07,1.16.22,1.51.15.35.37.58.65.71.28.13.61.19,1,.19.46,0,.84-.05,1.14-.16s.55-.2.73-.29l.29,1.1c-.18.11-.48.23-.89.36s-.87.2-1.38.2Z"/>
        <path d="M932.37,92.33v-1.28h4.19v1.28h-4.19Z"/>
        <path d="M940.58,97.14c-.8,0-1.43-.07-1.88-.21-.45-.14-.75-.24-.91-.31l.32-1.19c.13.05.4.15.81.31.41.16.96.23,1.66.23.66,0,1.19-.1,1.6-.31s.61-.56.61-1.06c0-.32-.07-.58-.22-.78-.14-.2-.38-.38-.69-.55-.32-.17-.75-.36-1.3-.58-.47-.19-.9-.4-1.3-.61-.4-.22-.72-.49-.96-.83s-.37-.77-.37-1.3.13-.97.4-1.35c.26-.38.64-.68,1.12-.9s1.06-.32,1.74-.32c.62,0,1.15.05,1.58.16.43.11.74.2.92.29l-.31,1.17c-.16-.08-.41-.18-.76-.3-.35-.11-.84-.17-1.48-.17-.5,0-.94.1-1.31.31-.37.21-.56.54-.56,1,0,.32.08.58.23.78.16.2.39.38.7.53.31.16.7.32,1.15.5.52.2.98.42,1.4.64.41.22.75.51,1,.86.25.35.38.81.38,1.39s-.14,1.04-.43,1.43c-.29.39-.7.68-1.23.87-.53.19-1.17.29-1.92.29Z"/>
        <path d="M947.08,85.36c-.26,0-.49-.09-.68-.27-.19-.18-.28-.42-.28-.72s.09-.52.28-.7c.19-.18.41-.27.68-.27s.49.09.67.27.28.41.28.7-.09.54-.28.72-.41.27-.67.27ZM946.39,96.92v-9.32h1.35v9.32h-1.35Z"/>
        <path d="M954.83,97.14c-.91,0-1.72-.2-2.41-.58-.7-.39-1.24-.95-1.62-1.67-.38-.73-.58-1.59-.58-2.6s.16-1.81.49-2.54c.33-.73.81-1.31,1.44-1.72s1.39-.62,2.28-.62c.58,0,1.08.08,1.52.24.44.16.77.32.98.48v-4.93l1.33-.23v13.68c-.23.07-.51.15-.85.22-.34.08-.72.14-1.14.2-.43.05-.91.08-1.45.08ZM954.85,95.93c.53,0,.96-.03,1.3-.08.34-.05.6-.1.78-.15v-6.32c-.2-.17-.52-.34-.94-.51s-.89-.26-1.42-.26-1,.09-1.38.28c-.38.19-.68.45-.92.78s-.4.73-.5,1.17c-.1.44-.15.92-.15,1.42,0,.78.14,1.44.41,1.99s.65.96,1.13,1.25,1.05.43,1.68.43Z"/>
        <path d="M965.38,97.12c-1.09,0-1.98-.21-2.66-.63s-1.18-1-1.49-1.73c-.32-.73-.48-1.57-.48-2.5,0-1.09.2-2,.59-2.72s.91-1.26,1.54-1.62,1.29-.54,1.99-.54c.78,0,1.45.17,2.02.5s1.01.83,1.32,1.51c.31.68.47,1.54.47,2.58,0,.08,0,.18,0,.3,0,.11-.01.22-.03.32h-6.5c.05,1.06.33,1.88.85,2.46s1.33.87,2.44.87c.61,0,1.11-.06,1.5-.17.39-.11.67-.21.84-.3l.23,1.13c-.17.1-.49.21-.98.34s-1.04.2-1.67.2ZM962.2,91.48h5.13c-.01-.61-.12-1.14-.31-1.58-.19-.44-.46-.77-.82-1.01-.35-.23-.79-.35-1.31-.35s-.99.14-1.39.41c-.4.28-.71.64-.93,1.08-.22.44-.35.92-.39,1.44Z"/>
        <path d="M978.39,97.12c-.79,0-1.42-.14-1.87-.41-.46-.28-.78-.69-.96-1.24-.19-.55-.28-1.24-.28-2.07v-8.5l1.35-.23v2.93h3.65v1.13h-3.65v4.77c0,.66.07,1.16.22,1.51.15.35.37.58.65.71.28.13.62.19,1,.19.46,0,.84-.05,1.14-.16.3-.11.55-.2.73-.29l.29,1.1c-.18.11-.48.23-.89.36s-.87.2-1.38.2Z"/>
        <path d="M986.13,97.14c-.83,0-1.57-.2-2.21-.6-.65-.4-1.16-.97-1.52-1.7-.37-.73-.55-1.59-.55-2.57s.18-1.84.55-2.56c.37-.73.87-1.29,1.52-1.7s1.39-.61,2.21-.61,1.58.2,2.23.61,1.15.97,1.52,1.7c.37.73.55,1.58.55,2.56s-.18,1.84-.55,2.57c-.37.73-.87,1.3-1.51,1.7-.64.4-1.39.6-2.24.6ZM986.13,95.93c.6,0,1.12-.15,1.55-.45.43-.3.76-.73,1-1.28s.35-1.2.35-1.94-.12-1.39-.35-1.94c-.23-.55-.57-.98-1-1.28-.43-.3-.95-.45-1.55-.45s-1.1.15-1.53.45c-.43.3-.77.73-1,1.28-.23.55-.35,1.2-.35,1.94s.12,1.39.35,1.94c.23.55.57.98,1,1.28.43.3.94.45,1.53.45Z"/>
        <path d="M996.66,97.14c-.83,0-1.57-.2-2.21-.6-.65-.4-1.16-.97-1.52-1.7-.37-.73-.55-1.59-.55-2.57s.18-1.84.55-2.56c.37-.73.87-1.29,1.52-1.7.65-.41,1.39-.61,2.21-.61s1.58.2,2.23.61,1.15.97,1.52,1.7c.37.73.55,1.58.55,2.56s-.18,1.84-.55,2.57c-.37.73-.87,1.3-1.51,1.7-.64.4-1.39.6-2.24.6ZM996.66,95.93c.6,0,1.12-.15,1.55-.45.43-.3.76-.73,1-1.28.23-.55.35-1.2.35-1.94s-.12-1.39-.35-1.94c-.23-.55-.57-.98-1-1.28s-.95-.45-1.55-.45-1.1.15-1.53.45-.77.73-1,1.28c-.23.55-.35,1.2-.35,1.94s.12,1.39.35,1.94.57.98,1,1.28c.43.3.94.45,1.53.45Z"/>
        <path d="M1005.97,97.08c-.58-.02-1.05-.12-1.43-.29-.38-.17-.66-.43-.84-.78-.18-.35-.27-.83-.27-1.43v-11.39l1.35-.23v11.54c0,.58.1.95.31,1.12.21.17.57.29,1.07.36l-.2,1.12Z"/>
        <path d="M1010.16,97.14c-.8,0-1.43-.07-1.88-.21-.45-.14-.75-.24-.91-.31l.32-1.19c.13.05.4.15.81.31.41.16.96.23,1.66.23s1.19-.1,1.6-.31c.41-.2.61-.56.61-1.06,0-.32-.07-.58-.22-.78-.14-.2-.38-.38-.69-.55-.32-.17-.75-.36-1.3-.58-.47-.19-.9-.4-1.3-.61s-.72-.49-.96-.83c-.25-.34-.37-.77-.37-1.3s.13-.97.4-1.35c.26-.38.64-.68,1.12-.9.49-.22,1.07-.32,1.74-.32.62,0,1.15.05,1.58.16.43.11.74.2.92.29l-.31,1.17c-.16-.08-.41-.18-.76-.3s-.84-.17-1.48-.17c-.5,0-.94.1-1.31.31s-.56.54-.56,1c0,.32.08.58.23.78s.39.38.7.53.7.32,1.15.5c.52.2.98.42,1.39.64.41.22.75.51,1,.86.25.35.38.81.38,1.39s-.14,1.04-.43,1.43c-.29.39-.7.68-1.23.87-.53.19-1.17.29-1.92.29Z"/>
      </g>
    </g>
    <path class="st6" d="M1099.19,42c5.01,0,9.03,4,9.03,8.92v.22c-.03.51-.12,1-.12,1.01,4.95.06,8.91,4,8.91,8.92v.46c-.25,4.71-4.18,8.46-9.03,8.46h-24.4c-4.64-.24-8.32-3.91-8.55-8.46v-.46c-.01-4.12,2.77-7.73,6.85-8.65v-1.44c0-3.08,2.54-5.54,5.63-5.54h.25c1.27.06,2.47.55,3.46,1.42,1.55-2.95,4.64-4.86,7.98-4.86ZM1099.19,43c-2.96,0-5.72,1.69-7.09,4.33l-.59,1.13-.96-.84c-.87-.77-1.94-1.17-3.05-1.17-2.56,0-4.63,2.03-4.63,4.54v2.24l-.78.18c-3.61.82-6.09,4.01-6.09,7.67,0,4.36,3.56,7.92,8.03,7.92h23.94c4.47,0,8.03-3.56,8.03-7.92,0-4.36-3.51-7.87-7.92-7.92h-1.19s.22-1.19.22-1.19h0s0-.01,0-.02c0-.01,0-.04.01-.07.01-.06.02-.15.04-.25.03-.22.05-.48.05-.7,0-4.36-3.56-7.92-8.03-7.92Z"/>
  </g>
  <g data-component-id="virt_instance">
    <rect class="st2" x="1160" y="24" width="336" height="288"/>
    <g>
      <g class="st5">
        <path d="M1173.11,48.92c-.44-.96-.88-1.94-1.29-2.93s-.84-2.02-1.25-3.06-.82-2.11-1.21-3.19c-.4-1.08-.79-2.18-1.17-3.29h2.39c.29.86.58,1.73.89,2.61.31.88.61,1.75.91,2.61s.6,1.69.91,2.48c.31.79.61,1.54.91,2.23.29-.68.58-1.42.88-2.21.3-.79.61-1.62.92-2.48.31-.86.62-1.74.92-2.62.3-.88.59-1.75.88-2.62h2.3c-.38,1.12-.78,2.21-1.18,3.29-.4,1.08-.8,2.14-1.21,3.19s-.82,2.06-1.24,3.06-.86,1.97-1.3,2.93h-2.05Z"/>
        <path d="M1183.28,37.67c-.36,0-.67-.12-.92-.35-.25-.23-.38-.56-.38-.96s.12-.71.38-.94c.25-.23.56-.35.92-.35s.67.12.92.35c.25.23.38.55.38.94s-.13.73-.38.96c-.25.23-.56.35-.92.35ZM1182.24,48.92v-9.4h2.07v9.4h-2.07Z"/>
        <path d="M1187.06,48.92v-8.93c.41-.16.92-.31,1.52-.45.61-.14,1.3-.22,2.08-.22.23,0,.47.01.74.04.26.03.52.07.76.12s.44.1.59.16l-.38,1.73c-.18-.06-.43-.12-.74-.18-.31-.06-.67-.09-1.08-.09-.31,0-.6.02-.86.07s-.45.09-.56.13v7.61h-2.07Z"/>
        <path d="M1197.68,49.14c-.89,0-1.58-.16-2.09-.47s-.86-.76-1.06-1.35c-.2-.59-.31-1.29-.31-2.11v-8.21l2.07-.34v2.86h3.42v1.71h-3.42v4c0,.52.06.93.17,1.24.11.31.29.54.54.67.25.14.56.21.95.21s.71-.04,1.02-.12c.31-.08.57-.17.78-.26l.34,1.64c-.26.12-.6.24-1,.35s-.87.17-1.41.17Z"/>
        <path d="M1205.73,49.12c-1.01,0-1.8-.18-2.38-.55-.58-.37-.98-.88-1.22-1.53s-.36-1.41-.36-2.28v-5.24h2.07v4.9c0,.71.06,1.28.19,1.7s.34.74.65.93c.31.19.71.29,1.21.29.34,0,.65-.02.96-.05.3-.04.52-.07.67-.09v-7.67h2.05v9.07c-.41.12-.94.24-1.61.35-.67.11-1.41.17-2.22.17Z"/>
        <path d="M1215.48,49.12c-.76,0-1.42-.1-1.99-.3-.57-.2-1.01-.52-1.33-.96-.32-.44-.48-1.03-.48-1.76s.18-1.3.53-1.73c.35-.43.83-.74,1.44-.93.61-.19,1.26-.28,1.97-.28.35,0,.68.02,1,.06.32.04.54.09.67.14v-.38c0-.36-.06-.69-.17-.98-.12-.29-.32-.53-.6-.71s-.7-.27-1.24-.27-1.03.04-1.42.13c-.4.08-.72.17-.97.25l-.27-1.69c.26-.1.65-.19,1.17-.28s1.09-.13,1.71-.13c.96,0,1.71.15,2.27.46.55.31.95.74,1.18,1.29s.35,1.19.35,1.93v5.71c-.32.07-.82.17-1.48.28-.67.11-1.44.17-2.33.17ZM1215.66,47.48c.34,0,.65-.01.94-.04.29-.02.52-.05.7-.09v-2.54c-.12-.04-.3-.08-.55-.12s-.53-.06-.84-.06c-.36,0-.71.04-1.03.11-.33.07-.6.21-.82.4-.21.2-.32.5-.32.89,0,.54.17.92.52,1.12.35.21.82.31,1.4.31Z"/>
        <path d="M1225.15,49.1c-.82-.02-1.46-.15-1.93-.37-.47-.22-.8-.55-.99-.97-.19-.43-.29-.96-.29-1.59v-10.87l2.07-.34v10.87c0,.53.1.91.29,1.13.19.23.57.37,1.13.43l-.29,1.71Z"/>
        <path d="M1228.23,37.67c-.36,0-.67-.12-.92-.35-.25-.23-.38-.56-.38-.96s.12-.71.38-.94c.25-.23.56-.35.92-.35s.67.12.92.35c.25.23.38.55.38.94s-.13.73-.38.96c-.25.23-.56.35-.92.35ZM1227.18,48.92v-9.4h2.07v9.4h-2.07Z"/>
        <path d="M1231.29,48.92v-1.28c.28-.49.61-1.03,1.01-1.61.4-.58.82-1.17,1.26-1.75.44-.59.87-1.15,1.29-1.67.41-.53.78-.98,1.11-1.37h-4.43v-1.71h7.06v1.44c-.23.28-.54.65-.94,1.11s-.83.98-1.29,1.56-.92,1.17-1.38,1.79-.86,1.21-1.21,1.77h4.93v1.73h-7.42Z"/>
        <path d="M1244.79,49.15c-1.12,0-2.03-.21-2.74-.64-.71-.43-1.23-1.01-1.58-1.75s-.51-1.58-.51-2.5c0-1.1.21-2.02.63-2.76.42-.74.96-1.29,1.62-1.66s1.36-.55,2.11-.55c.84,0,1.57.17,2.18.52.61.35,1.09.87,1.42,1.58s.5,1.58.5,2.64c0,.12,0,.26-.02.41-.01.15-.02.29-.04.42h-6.28c.06.78.33,1.39.82,1.84.49.44,1.19.67,2.11.67.55,0,1.04-.05,1.48-.15.43-.1.77-.21,1.01-.32l.31,1.69c-.24.12-.64.25-1.2.38-.56.13-1.17.2-1.83.2ZM1242.1,43.34h4.28c-.01-.44-.09-.84-.24-1.19-.15-.35-.38-.62-.67-.83-.3-.2-.68-.31-1.13-.31s-.86.11-1.17.33c-.31.22-.55.51-.73.86-.17.35-.29.73-.33,1.12Z"/>
        <path d="M1254.99,49.15c-.98,0-1.83-.2-2.55-.59-.71-.4-1.27-.96-1.66-1.69-.39-.73-.58-1.6-.58-2.61s.17-1.86.5-2.6c.33-.74.82-1.31,1.45-1.72.63-.41,1.39-.61,2.28-.61.47,0,.88.06,1.24.17.36.11.67.24.92.39v-4.59l2.07-.34v13.66c-.28.1-.61.18-1.01.26s-.82.14-1.27.2c-.45.05-.91.08-1.39.08ZM1255.01,47.35c.37,0,.69-.01.96-.04.27-.03.48-.06.62-.1v-5.54c-.18-.14-.44-.28-.78-.4-.34-.12-.71-.18-1.09-.18-.43,0-.8.07-1.1.22-.3.14-.55.35-.74.63-.19.28-.33.6-.42.98s-.13.8-.13,1.27c0,.65.11,1.21.32,1.69.22.48.53.85.93,1.1s.88.38,1.43.38Z"/>
        <path d="M1264.44,48.92c.64-1.76,1.22-3.37,1.76-4.81.54-1.44,1.07-2.78,1.59-4.03s1.07-2.46,1.65-3.64h2.02c.42.89.83,1.79,1.23,2.71.4.92.8,1.88,1.2,2.88s.81,2.07,1.23,3.19c.43,1.13.87,2.36,1.34,3.69h-2.32c-.17-.5-.34-1-.52-1.5-.18-.5-.35-.99-.52-1.49h-5.36c-.17.49-.35.99-.53,1.49-.19.5-.36,1-.51,1.5h-2.25ZM1268.28,44.19h4.27c-.2-.58-.4-1.12-.6-1.65-.2-.52-.39-1.01-.58-1.48-.19-.46-.36-.89-.52-1.3-.16-.4-.31-.76-.44-1.07-.13.31-.28.67-.43,1.07-.16.4-.33.83-.51,1.3-.19.46-.38.95-.58,1.48-.2.52-.4,1.07-.6,1.65Z"/>
        <path d="M1278.01,48.92v-9.07c.42-.12.96-.24,1.63-.35s1.41-.17,2.22-.17c1.03,0,1.83.18,2.4.54.57.36.97.86,1.21,1.51s.35,1.4.35,2.25v5.29h-2.07v-4.93c0-.71-.06-1.27-.19-1.69s-.34-.73-.63-.92c-.29-.19-.71-.29-1.25-.29-.34,0-.65.02-.95.06s-.51.07-.66.1v7.67h-2.07Z"/>
        <path d="M1292.77,49.15c-.98,0-1.83-.2-2.55-.59-.71-.4-1.27-.96-1.66-1.69-.39-.73-.58-1.6-.58-2.61s.17-1.86.5-2.6c.33-.74.82-1.31,1.45-1.72.63-.41,1.39-.61,2.28-.61.47,0,.88.06,1.24.17.36.11.67.24.92.39v-4.59l2.07-.34v13.66c-.28.1-.61.18-1.01.26s-.82.14-1.27.2c-.45.05-.91.08-1.39.08ZM1292.79,47.35c.37,0,.69-.01.96-.04.27-.03.48-.06.62-.1v-5.54c-.18-.14-.44-.28-.78-.4-.34-.12-.71-.18-1.09-.18-.43,0-.8.07-1.1.22-.3.14-.55.35-.74.63-.19.28-.33.6-.42.98s-.13.8-.13,1.27c0,.65.11,1.21.32,1.69.22.48.53.85.93,1.1s.88.38,1.43.38Z"/>
        <path d="M1299.18,48.92v-8.93c.41-.16.91-.31,1.52-.45.61-.14,1.3-.22,2.08-.22.23,0,.47.01.74.04.26.03.52.07.76.12s.44.1.59.16l-.38,1.73c-.18-.06-.43-.12-.74-.18-.31-.06-.67-.09-1.08-.09-.31,0-.6.02-.86.07s-.45.09-.56.13v7.61h-2.07Z"/>
        <path d="M1310.3,49.15c-.88,0-1.65-.21-2.33-.62-.68-.41-1.21-.99-1.58-1.73-.38-.74-.57-1.6-.57-2.6s.19-1.84.58-2.57c.38-.73.92-1.3,1.6-1.72s1.46-.62,2.32-.62,1.65.2,2.32.61c.67.41,1.2.98,1.58,1.72.38.74.58,1.6.58,2.58s-.19,1.86-.57,2.6c-.38.74-.9,1.31-1.57,1.73s-1.46.62-2.37.62ZM1310.32,47.35c.49,0,.91-.13,1.26-.39.35-.26.62-.62.81-1.1.19-.47.29-1.03.29-1.67s-.1-1.19-.29-1.66c-.19-.47-.46-.83-.81-1.09-.35-.26-.77-.39-1.26-.39s-.92.13-1.28.39-.63.62-.82,1.09c-.19.47-.28,1.03-.28,1.67s.09,1.19.28,1.66c.19.47.46.83.82,1.09.36.26.79.39,1.28.39Z"/>
        <path d="M1318.1,37.67c-.36,0-.67-.12-.92-.35-.25-.23-.38-.56-.38-.96s.13-.71.38-.94c.25-.23.56-.35.92-.35s.67.12.92.35c.25.23.38.55.38.94s-.13.73-.38.96c-.25.23-.56.35-.92.35ZM1317.05,48.92v-9.4h2.07v9.4h-2.07Z"/>
        <path d="M1326.18,49.15c-.98,0-1.83-.2-2.55-.59-.71-.4-1.27-.96-1.66-1.69-.39-.73-.58-1.6-.58-2.61s.17-1.86.5-2.6c.34-.74.82-1.31,1.45-1.72.63-.41,1.39-.61,2.28-.61.47,0,.88.06,1.24.17.36.11.67.24.92.39v-4.59l2.07-.34v13.66c-.28.1-.61.18-1.01.26s-.82.14-1.27.2c-.45.05-.92.08-1.4.08ZM1326.2,47.35c.37,0,.69-.01.96-.04.27-.03.48-.06.62-.1v-5.54c-.18-.14-.44-.28-.78-.4-.34-.12-.71-.18-1.09-.18-.43,0-.8.07-1.1.22-.3.14-.55.35-.74.63-.19.28-.33.6-.42.98-.09.38-.14.8-.14,1.27,0,.65.11,1.21.32,1.69.22.48.52.85.93,1.1s.88.38,1.43.38Z"/>
        <path d="M1337.86,37.67c-.36,0-.67-.12-.92-.35-.25-.23-.38-.56-.38-.96s.13-.71.38-.94c.25-.23.56-.35.92-.35s.67.12.92.35c.25.23.38.55.38.94s-.13.73-.38.96c-.25.23-.56.35-.92.35ZM1336.82,48.92v-9.4h2.07v9.4h-2.07Z"/>
        <path d="M1341.64,48.92v-9.07c.42-.12.96-.24,1.63-.35s1.41-.17,2.22-.17c1.03,0,1.83.18,2.4.54.57.36.97.86,1.21,1.51.23.65.35,1.4.35,2.25v5.29h-2.07v-4.93c0-.71-.06-1.27-.19-1.69-.13-.42-.34-.73-.63-.92-.29-.19-.71-.29-1.25-.29-.34,0-.65.02-.95.06-.29.04-.51.07-.66.1v7.67h-2.07Z"/>
        <path d="M1354.48,49.15c-.82,0-1.48-.07-1.99-.21-.51-.14-.86-.25-1.05-.35l.4-1.71c.31.12.69.24,1.13.37s.95.19,1.53.19,1-.07,1.3-.22c.3-.14.45-.41.45-.79,0-.23-.07-.42-.2-.58-.13-.16-.33-.3-.6-.44-.27-.14-.63-.29-1.09-.46-.5-.22-.96-.44-1.37-.67-.41-.23-.73-.52-.97-.87-.24-.35-.36-.82-.36-1.39s.14-1.05.42-1.46c.28-.41.68-.72,1.21-.95.52-.22,1.15-.33,1.88-.33.59,0,1.12.05,1.61.15.49.1.85.21,1.11.31l-.4,1.66c-.24-.1-.54-.19-.89-.29s-.8-.14-1.34-.14c-.47,0-.84.08-1.12.23-.28.16-.42.4-.42.74,0,.23.05.42.16.57.11.15.29.29.55.42.26.13.6.28,1.02.43.66.25,1.2.51,1.62.76.42.26.74.57.95.93.21.36.32.82.32,1.37,0,.59-.15,1.09-.45,1.49-.3.41-.73.71-1.3.92s-1.26.31-2.08.31Z"/>
        <path d="M1363.78,49.14c-.89,0-1.58-.16-2.09-.47s-.86-.76-1.06-1.35-.31-1.29-.31-2.11v-8.21l2.07-.34v2.86h3.42v1.71h-3.42v4c0,.52.06.93.17,1.24.11.31.29.54.54.67.25.14.56.21.94.21s.71-.04,1.02-.12c.31-.08.57-.17.78-.26l.34,1.64c-.26.12-.6.24-1,.35-.4.11-.87.17-1.41.17Z"/>
        <path d="M1370.91,49.12c-.76,0-1.42-.1-1.99-.3-.57-.2-1.01-.52-1.33-.96-.32-.44-.48-1.03-.48-1.76s.18-1.3.53-1.73c.35-.43.83-.74,1.44-.93.61-.19,1.26-.28,1.97-.28.35,0,.68.02,1,.06s.54.09.68.14v-.38c0-.36-.06-.69-.17-.98-.11-.29-.31-.53-.6-.71s-.7-.27-1.24-.27-1.03.04-1.42.13c-.4.08-.72.17-.97.25l-.27-1.69c.26-.1.65-.19,1.17-.28.52-.09,1.08-.13,1.71-.13.96,0,1.72.15,2.27.46.55.31.95.74,1.18,1.29s.35,1.19.35,1.93v5.71c-.32.07-.82.17-1.49.28-.67.11-1.44.17-2.33.17ZM1371.09,47.48c.34,0,.65-.01.94-.04.29-.02.52-.05.7-.09v-2.54c-.12-.04-.3-.08-.55-.12-.25-.04-.53-.06-.84-.06-.36,0-.71.04-1.04.11s-.6.21-.82.4c-.22.2-.32.5-.32.89,0,.54.17.92.52,1.12s.82.31,1.4.31Z"/>
        <path d="M1377.37,48.92v-9.07c.42-.12.96-.24,1.63-.35s1.41-.17,2.22-.17c1.03,0,1.83.18,2.4.54.57.36.97.86,1.21,1.51.23.65.35,1.4.35,2.25v5.29h-2.07v-4.93c0-.71-.06-1.27-.19-1.69-.12-.42-.34-.73-.63-.92-.29-.19-.71-.29-1.25-.29-.34,0-.65.02-.94.06s-.51.07-.66.1v7.67h-2.07Z"/>
        <path d="M1392.06,49.15c-1.07,0-1.95-.21-2.65-.64-.7-.43-1.22-1.01-1.56-1.75s-.51-1.59-.51-2.54.19-1.78.56-2.52.9-1.33,1.59-1.76c.69-.43,1.52-.65,2.49-.65.49,0,.95.04,1.39.13.43.08.82.2,1.15.36l-.47,1.67c-.24-.11-.51-.2-.81-.27-.3-.07-.67-.11-1.1-.11-.89,0-1.56.28-2.01.85-.45.56-.68,1.33-.68,2.3,0,.64.09,1.19.28,1.66s.49.83.9,1.09c.41.26.97.39,1.67.39.38,0,.76-.04,1.12-.13.37-.08.67-.18.91-.29l.34,1.71c-.28.13-.65.25-1.12.35s-.97.15-1.51.15Z"/>
        <path d="M1400.61,49.15c-1.12,0-2.03-.21-2.74-.64s-1.23-1.01-1.57-1.75-.51-1.58-.51-2.5c0-1.1.21-2.02.63-2.76.42-.74.96-1.29,1.62-1.66s1.36-.55,2.11-.55c.84,0,1.57.17,2.18.52.61.35,1.09.87,1.42,1.58s.5,1.58.5,2.64c0,.12,0,.26-.02.41-.01.15-.02.29-.04.42h-6.28c.06.78.33,1.39.82,1.84.49.44,1.19.67,2.12.67.55,0,1.04-.05,1.48-.15.43-.1.77-.21,1.01-.32l.31,1.69c-.24.12-.64.25-1.2.38s-1.17.2-1.83.2ZM1397.93,43.34h4.28c-.01-.44-.09-.84-.24-1.19-.15-.35-.38-.62-.68-.83-.3-.2-.68-.31-1.13-.31s-.86.11-1.17.33c-.31.22-.56.51-.73.86-.17.35-.29.73-.33,1.12Z"/>
      </g>
      <g class="st5">
        <path d="M1168.5,68.33v-1.28h4.19v1.28h-4.19Z"/>
        <path d="M1183.46,73.19c-1.12,0-2.01-.22-2.68-.65s-1.16-1.02-1.47-1.76c-.31-.74-.46-1.58-.46-2.5v-7.83h1.4v7.67c0,1.33.3,2.3.89,2.91.59.61,1.37.91,2.31.91s1.74-.31,2.33-.92c.59-.61.89-1.58.89-2.9v-7.67h1.4v7.83c0,.92-.15,1.76-.46,2.5-.31.74-.79,1.33-1.47,1.76s-1.57.65-2.7.65Z"/>
        <path d="M1191.13,72.92v-9c.37-.1.86-.2,1.46-.32.6-.12,1.32-.18,2.16-.18.97,0,1.73.18,2.27.54s.92.86,1.14,1.5c.22.64.33,1.39.33,2.24v5.22h-1.35v-4.84c0-.85-.08-1.53-.23-2.03-.16-.5-.42-.87-.79-1.1-.37-.23-.89-.34-1.55-.34-.5,0-.95.03-1.33.09-.38.06-.64.11-.76.14v8.08h-1.35Z"/>
        <path d="M1201.41,72.92v-9c.37-.1.85-.2,1.42-.32.58-.12,1.29-.18,2.14-.18.6,0,1.11.08,1.54.25.43.17.77.42,1.03.76.11-.08.3-.21.58-.37.28-.16.63-.31,1.05-.44s.91-.2,1.45-.2c.96,0,1.68.18,2.17.55.49.37.81.87.98,1.51.17.64.25,1.38.25,2.22v5.22h-1.35v-4.84c0-.79-.05-1.44-.16-1.95-.11-.51-.32-.89-.63-1.14-.31-.25-.77-.38-1.38-.38-.45,0-.83.05-1.16.15-.33.1-.6.22-.81.35-.21.13-.36.23-.46.31.11.3.19.64.24,1.03.05.38.08.79.08,1.21v5.27h-1.35v-4.84c0-.79-.05-1.44-.16-1.95-.11-.51-.32-.89-.64-1.14-.32-.25-.79-.38-1.43-.38-.35,0-.66.02-.94.04-.28.03-.52.06-.7.1-.19.04-.32.07-.4.09v8.08h-1.35Z"/>
        <path d="M1220.69,73.14c-.83,0-1.57-.2-2.21-.6-.65-.4-1.15-.97-1.52-1.7-.37-.73-.55-1.59-.55-2.57s.18-1.84.55-2.56c.37-.73.87-1.29,1.52-1.7.65-.41,1.39-.61,2.21-.61s1.58.2,2.23.61c.65.41,1.16.97,1.52,1.7.37.73.55,1.58.55,2.56s-.18,1.84-.55,2.57c-.37.73-.87,1.3-1.51,1.7-.64.4-1.39.6-2.24.6ZM1220.69,71.93c.6,0,1.12-.15,1.55-.45.43-.3.76-.73,1-1.28s.35-1.2.35-1.94-.12-1.39-.35-1.94c-.23-.55-.57-.98-1-1.28-.43-.3-.95-.45-1.55-.45s-1.1.15-1.53.45-.76.73-1,1.28c-.23.55-.35,1.2-.35,1.94s.12,1.39.35,1.94.57.98,1,1.28c.43.3.94.45,1.53.45Z"/>
        <path d="M1231.54,73.14c-.91,0-1.72-.2-2.41-.58-.7-.39-1.24-.95-1.62-1.67-.38-.73-.58-1.59-.58-2.6s.16-1.81.49-2.54c.33-.73.81-1.31,1.44-1.72s1.39-.62,2.28-.62c.58,0,1.08.08,1.52.24.44.16.77.32.98.48v-4.93l1.33-.23v13.68c-.23.07-.51.15-.85.22-.34.08-.72.14-1.14.2-.43.05-.91.08-1.45.08ZM1231.56,71.93c.53,0,.96-.03,1.3-.08.34-.05.6-.1.78-.15v-6.32c-.2-.17-.52-.34-.94-.51s-.89-.26-1.42-.26-1,.09-1.38.28c-.38.19-.68.45-.92.78s-.4.73-.5,1.17c-.1.44-.15.92-.15,1.42,0,.78.14,1.44.41,1.99s.65.96,1.13,1.25,1.05.43,1.68.43Z"/>
        <path d="M1238.69,61.36c-.26,0-.49-.09-.68-.27-.19-.18-.28-.42-.28-.72s.09-.52.28-.7c.19-.18.41-.27.68-.27s.49.09.67.27.28.41.28.7-.09.54-.28.72-.41.27-.67.27ZM1238,72.92v-9.32h1.35v9.32h-1.35Z"/>
        <path d="M1242.38,72.92v-10.28c0-1.21.29-2.13.86-2.75s1.46-.94,2.65-.94c.49,0,.9.04,1.21.12s.54.15.66.21l-.25,1.13c-.13-.06-.33-.12-.58-.18-.26-.06-.58-.09-.96-.09-.8,0-1.38.2-1.72.61s-.51,1.05-.51,1.93v.92h3.69v1.13h-3.69v8.19h-1.35ZM1249.9,61.36c-.26,0-.49-.09-.67-.27s-.28-.42-.28-.72.09-.52.28-.7.41-.27.67-.27.49.09.68.27c.19.18.28.41.28.7s-.09.54-.28.72c-.19.18-.41.27-.68.27ZM1249.23,72.92v-9.32h1.35v9.32h-1.35Z"/>
        <path d="M1257.69,73.12c-1.09,0-1.98-.21-2.66-.63s-1.18-1-1.49-1.73c-.32-.73-.48-1.57-.48-2.5,0-1.09.2-2,.59-2.72.4-.72.91-1.26,1.54-1.62.63-.36,1.29-.54,1.99-.54.78,0,1.45.17,2.02.5.57.33,1.01.83,1.32,1.51.31.68.47,1.54.47,2.58,0,.08,0,.18,0,.3,0,.11-.02.22-.03.32h-6.5c.05,1.06.33,1.88.86,2.46.52.58,1.33.87,2.44.87.61,0,1.11-.06,1.5-.17s.67-.21.84-.3l.23,1.13c-.17.1-.5.21-.98.34s-1.04.2-1.66.2ZM1254.51,67.48h5.13c-.01-.61-.11-1.14-.31-1.58-.19-.44-.46-.77-.82-1.01-.35-.23-.79-.35-1.3-.35s-.99.14-1.39.41c-.4.28-.71.64-.93,1.08-.22.44-.35.92-.39,1.44Z"/>
        <path d="M1267.61,73.14c-.91,0-1.72-.2-2.41-.58-.7-.39-1.24-.95-1.62-1.67-.38-.73-.58-1.59-.58-2.6s.17-1.81.5-2.54c.33-.73.81-1.31,1.44-1.72.63-.41,1.39-.62,2.28-.62.58,0,1.08.08,1.52.24.44.16.76.32.98.48v-4.93l1.33-.23v13.68c-.23.07-.51.15-.85.22-.34.08-.72.14-1.14.2-.43.05-.91.08-1.45.08ZM1267.63,71.93c.53,0,.96-.03,1.3-.08.34-.05.6-.1.78-.15v-6.32c-.2-.17-.52-.34-.94-.51-.42-.17-.89-.26-1.42-.26s-1,.09-1.38.28c-.38.19-.68.45-.92.78-.23.34-.4.73-.5,1.17-.1.44-.15.92-.15,1.42,0,.78.14,1.44.41,1.99.27.55.65.96,1.13,1.25.49.29,1.05.43,1.68.43Z"/>
      </g>
      <g class="st5">
        <path d="M1183.08,97.19c-1.09,0-2.07-.25-2.94-.76s-1.55-1.24-2.05-2.21c-.5-.97-.75-2.15-.75-3.55,0-1.04.16-1.97.47-2.78.31-.81.74-1.49,1.29-2.04.55-.55,1.17-.97,1.87-1.25.7-.28,1.44-.42,2.21-.42.64,0,1.19.05,1.67.15.47.1.87.22,1.18.35.31.13.54.25.68.34l-.45,1.19c-.3-.18-.69-.35-1.16-.52-.47-.17-1.05-.25-1.72-.25-.98,0-1.81.22-2.49.66-.68.44-1.19,1.05-1.54,1.84-.35.79-.52,1.71-.52,2.76s.17,1.98.5,2.76c.33.79.83,1.39,1.48,1.83.65.43,1.46.65,2.4.65.79,0,1.45-.07,1.98-.22.53-.15.94-.3,1.22-.46l.38,1.19c-.19.12-.61.28-1.25.47-.64.19-1.46.29-2.46.29Z"/>
        <path d="M1192.26,97.1c-.94,0-1.68-.18-2.22-.53-.55-.35-.94-.86-1.17-1.5-.23-.65-.35-1.4-.35-2.25v-5.22h1.35v4.86c0,.84.08,1.51.25,2.02s.44.87.82,1.09c.38.22.88.33,1.5.33.5,0,.95-.03,1.34-.08.39-.05.64-.1.76-.13v-8.08h1.33v9c-.36.1-.84.2-1.45.32s-1.33.18-2.17.18Z"/>
        <path d="M1201.95,97.12c-.79,0-1.42-.14-1.87-.41-.46-.28-.78-.69-.96-1.24-.19-.55-.28-1.24-.28-2.07v-8.5l1.35-.23v2.93h3.65v1.13h-3.65v4.77c0,.66.07,1.16.22,1.51.15.35.37.58.65.71.28.13.62.19,1,.19.46,0,.84-.05,1.14-.16.3-.11.55-.2.73-.29l.29,1.1c-.18.11-.48.23-.89.36s-.87.2-1.38.2Z"/>
        <path d="M1209.02,97.12c-.79,0-1.42-.14-1.87-.41-.46-.28-.78-.69-.96-1.24-.19-.55-.28-1.24-.28-2.07v-8.5l1.35-.23v2.93h3.65v1.13h-3.65v4.77c0,.66.07,1.16.22,1.51.15.35.37.58.65.71.28.13.61.19,1,.19.46,0,.84-.05,1.14-.16s.55-.2.73-.29l.29,1.1c-.18.11-.48.23-.89.36s-.87.2-1.38.2Z"/>
        <path d="M1215.57,97.08c-.58-.02-1.05-.12-1.43-.29s-.66-.43-.84-.78c-.18-.35-.27-.83-.27-1.43v-11.39l1.35-.23v11.54c0,.58.1.95.32,1.12.21.17.57.29,1.07.36l-.2,1.12Z"/>
        <path d="M1221.86,97.12c-1.09,0-1.98-.21-2.66-.63s-1.18-1-1.49-1.73c-.32-.73-.48-1.57-.48-2.5,0-1.09.2-2,.59-2.72s.91-1.26,1.54-1.62,1.29-.54,1.99-.54c.78,0,1.46.17,2.03.5.57.33,1.01.83,1.32,1.51.31.68.47,1.54.47,2.58,0,.08,0,.18,0,.3,0,.11-.02.22-.03.32h-6.5c.05,1.06.33,1.88.86,2.46s1.33.87,2.44.87c.61,0,1.11-.06,1.5-.17.39-.11.67-.21.84-.3l.23,1.13c-.17.1-.5.21-.98.34-.49.13-1.04.2-1.67.2ZM1218.67,91.48h5.13c-.01-.61-.11-1.14-.31-1.58-.19-.44-.46-.77-.82-1.01-.35-.23-.79-.35-1.3-.35s-.99.14-1.39.41c-.4.28-.71.64-.93,1.08-.22.44-.35.92-.39,1.44Z"/>
        <path d="M1227.71,96.92v-10.28c0-1.21.29-2.13.86-2.75s1.46-.94,2.65-.94c.49,0,.9.04,1.21.12s.54.15.66.21l-.25,1.13c-.13-.06-.33-.12-.58-.18-.26-.06-.58-.09-.96-.09-.8,0-1.38.2-1.72.61s-.51,1.05-.51,1.93v.92h3.69v1.13h-3.69v8.19h-1.35ZM1235.23,85.36c-.26,0-.49-.09-.67-.27s-.28-.42-.28-.72.09-.52.28-.7.41-.27.67-.27.49.09.68.27c.19.18.28.41.28.7s-.09.54-.28.72c-.19.18-.41.27-.68.27ZM1234.56,96.92v-9.32h1.35v9.32h-1.35Z"/>
        <path d="M1240.93,97.14c-.8,0-1.43-.07-1.88-.21s-.75-.24-.91-.31l.32-1.19c.13.05.4.15.81.31.41.16.96.23,1.66.23.66,0,1.19-.1,1.6-.31s.61-.56.61-1.06c0-.32-.07-.58-.22-.78-.14-.2-.38-.38-.69-.55-.32-.17-.75-.36-1.31-.58-.47-.19-.9-.4-1.3-.61s-.72-.49-.96-.83-.37-.77-.37-1.3.13-.97.4-1.35c.26-.38.64-.68,1.12-.9s1.06-.32,1.74-.32c.62,0,1.15.05,1.58.16s.74.2.92.29l-.31,1.17c-.16-.08-.41-.18-.76-.3-.35-.11-.84-.17-1.48-.17-.5,0-.94.1-1.31.31-.37.21-.56.54-.56,1,0,.32.08.58.23.78s.39.38.7.53.7.32,1.15.5c.52.2.98.42,1.4.64.41.22.75.51,1,.86.25.35.38.81.38,1.39s-.14,1.04-.43,1.43c-.29.39-.7.68-1.23.87-.53.19-1.17.29-1.92.29Z"/>
        <path d="M1246.75,96.92v-13.73l1.35-.23v4.88c.35-.13.72-.23,1.11-.31.39-.07.77-.11,1.14-.11.98,0,1.75.18,2.29.54s.92.86,1.14,1.5c.22.64.33,1.39.33,2.24v5.22h-1.35v-4.84c0-.85-.08-1.53-.23-2.03-.16-.5-.42-.87-.79-1.1-.37-.23-.89-.34-1.57-.34-.25,0-.53.03-.82.08-.29.05-.55.11-.78.17-.23.06-.38.11-.47.14v7.92h-1.35Z"/>
        <path d="M1256.02,92.33v-1.28h4.19v1.28h-4.19Z"/>
        <path d="M1265.67,97.14c-.53,0-1.01-.03-1.44-.08-.43-.05-.81-.12-1.14-.2-.33-.08-.62-.15-.86-.22v-13.45l1.35-.23v5.17c.22-.16.54-.32.98-.48.44-.16.95-.24,1.52-.24.9,0,1.66.21,2.29.62s1.1.99,1.43,1.72c.33.73.5,1.57.5,2.52,0,1.01-.19,1.88-.58,2.6-.38.73-.92,1.29-1.62,1.68-.7.4-1.51.59-2.43.59ZM1265.65,95.93c.65,0,1.21-.14,1.7-.43s.86-.71,1.12-1.25.4-1.21.4-1.99c0-.5-.05-.98-.15-1.42-.1-.44-.27-.83-.5-1.17-.23-.34-.54-.6-.92-.78-.38-.19-.84-.28-1.38-.28s-.98.09-1.4.26-.73.34-.94.51v6.32c.17.05.42.1.77.15.34.05.78.08,1.3.08Z"/>
        <path d="M1275.58,97.12c-.67,0-1.27-.1-1.8-.29-.53-.19-.94-.5-1.24-.94-.3-.43-.45-1-.45-1.71s.17-1.24.5-1.67c.34-.43.8-.73,1.4-.93.59-.19,1.26-.29,2.01-.29.34,0,.69.03,1.06.09.37.06.61.11.7.16v-.54c0-.41-.05-.8-.15-1.18-.1-.38-.31-.69-.62-.93-.31-.24-.79-.36-1.42-.36s-1.16.05-1.51.14c-.35.1-.61.17-.77.23l-.18-1.15c.22-.1.55-.19.99-.27s.97-.13,1.57-.13c.85,0,1.53.15,2.03.45.5.3.86.71,1.08,1.23.22.52.33,1.12.33,1.79v5.85c-.25.06-.7.14-1.35.25-.65.11-1.37.16-2.16.16ZM1275.78,95.97c.42,0,.8-.01,1.13-.04s.62-.07.85-.12v-3.13c-.12-.06-.32-.12-.61-.18-.29-.06-.66-.09-1.12-.09-.38,0-.77.04-1.17.13s-.73.25-1,.5-.41.63-.41,1.13c0,.67.21,1.14.63,1.4.42.26.98.4,1.69.4Z"/>
        <path d="M1284.01,97.14c-.8,0-1.43-.07-1.88-.21-.45-.14-.75-.24-.91-.31l.32-1.19c.13.05.4.15.81.31.41.16.96.23,1.66.23s1.19-.1,1.6-.31c.41-.2.61-.56.61-1.06,0-.32-.07-.58-.22-.78-.14-.2-.38-.38-.69-.55-.32-.17-.75-.36-1.3-.58-.47-.19-.9-.4-1.3-.61s-.72-.49-.96-.83c-.25-.34-.37-.77-.37-1.3s.13-.97.4-1.35c.26-.38.64-.68,1.12-.9.49-.22,1.07-.32,1.74-.32.62,0,1.15.05,1.58.16.43.11.74.2.92.29l-.31,1.17c-.16-.08-.41-.18-.76-.3s-.84-.17-1.48-.17c-.5,0-.94.1-1.31.31s-.56.54-.56,1c0,.32.08.58.23.78s.39.38.7.53.7.32,1.15.5c.52.2.98.42,1.39.64.41.22.75.51,1,.86.25.35.38.81.38,1.39s-.14,1.04-.43,1.43c-.29.39-.7.68-1.23.87-.53.19-1.17.29-1.92.29Z"/>
        <path d="M1293.91,97.12c-1.09,0-1.98-.21-2.66-.63s-1.18-1-1.49-1.73c-.32-.73-.48-1.57-.48-2.5,0-1.09.2-2,.59-2.72s.91-1.26,1.54-1.62,1.29-.54,1.99-.54c.78,0,1.46.17,2.03.5.57.33,1.01.83,1.32,1.51.31.68.47,1.54.47,2.58,0,.08,0,.18,0,.3,0,.11-.02.22-.03.32h-6.5c.05,1.06.33,1.88.86,2.46s1.33.87,2.44.87c.61,0,1.11-.06,1.5-.17.39-.11.67-.21.84-.3l.23,1.13c-.17.1-.5.21-.98.34-.49.13-1.04.2-1.67.2ZM1290.72,91.48h5.13c-.01-.61-.11-1.14-.31-1.58-.19-.44-.46-.77-.82-1.01-.35-.23-.79-.35-1.3-.35s-.99.14-1.39.41c-.4.28-.71.64-.93,1.08-.22.44-.35.92-.39,1.44Z"/>
        <path d="M1303.83,97.14c-.91,0-1.72-.2-2.41-.58-.7-.39-1.24-.95-1.62-1.67-.38-.73-.58-1.59-.58-2.6s.17-1.81.5-2.54c.33-.73.81-1.31,1.44-1.72.63-.41,1.39-.62,2.28-.62.58,0,1.08.08,1.52.24.44.16.76.32.98.48v-4.93l1.33-.23v13.68c-.23.07-.51.15-.85.22-.34.08-.72.14-1.14.2-.43.05-.91.08-1.45.08ZM1303.84,95.93c.53,0,.96-.03,1.3-.08.34-.05.6-.1.78-.15v-6.32c-.2-.17-.52-.34-.94-.51-.42-.17-.89-.26-1.42-.26s-1,.09-1.38.28c-.38.19-.68.45-.92.78-.23.34-.4.73-.5,1.17-.1.44-.15.92-.15,1.42,0,.78.14,1.44.41,1.99.27.55.65.96,1.13,1.25.49.29,1.05.43,1.68.43Z"/>
        <path d="M1313.08,96.92c.65-1.74,1.24-3.32,1.78-4.75s1.07-2.77,1.59-4.02c.52-1.25,1.08-2.49,1.66-3.7h1.26c.43.91.85,1.83,1.25,2.76.4.93.8,1.89,1.2,2.89.4,1,.81,2.06,1.23,3.18s.88,2.34,1.36,3.64h-1.53c-.22-.6-.43-1.17-.63-1.72-.21-.55-.4-1.08-.58-1.61h-5.94c-.19.53-.39,1.07-.59,1.61s-.41,1.12-.61,1.72h-1.46ZM1316.16,92.4h5.11c-.23-.6-.45-1.18-.67-1.75-.22-.56-.43-1.11-.64-1.64-.21-.53-.42-1.04-.63-1.54-.21-.5-.42-.99-.64-1.47-.2.48-.41.97-.62,1.47-.21.5-.42,1.01-.63,1.54-.21.53-.42,1.07-.64,1.64-.21.56-.43,1.15-.65,1.75Z"/>
        <path d="M1326.11,96.92v-9c.37-.1.86-.2,1.46-.32.6-.12,1.32-.18,2.16-.18.97,0,1.73.18,2.27.54s.92.86,1.14,1.5c.22.64.33,1.39.33,2.24v5.22h-1.35v-4.84c0-.85-.08-1.53-.23-2.03s-.42-.87-.79-1.1c-.37-.23-.89-.34-1.55-.34-.5,0-.95.03-1.33.09-.38.06-.64.11-.76.14v8.08h-1.35Z"/>
        <path d="M1340.46,97.14c-.91,0-1.72-.2-2.41-.58-.7-.39-1.24-.95-1.62-1.67-.38-.73-.58-1.59-.58-2.6s.16-1.81.49-2.54c.33-.73.81-1.31,1.44-1.72s1.39-.62,2.28-.62c.58,0,1.08.08,1.52.24.44.16.77.32.98.48v-4.93l1.33-.23v13.68c-.23.07-.51.15-.85.22-.34.08-.72.14-1.14.2-.43.05-.91.08-1.45.08ZM1340.47,95.93c.53,0,.96-.03,1.3-.08.34-.05.6-.1.78-.15v-6.32c-.2-.17-.52-.34-.94-.51s-.89-.26-1.42-.26-1,.09-1.38.28c-.38.19-.68.45-.92.78s-.4.73-.5,1.17c-.1.44-.15.92-.15,1.42,0,.78.14,1.44.41,1.99s.65.96,1.13,1.25,1.05.43,1.68.43Z"/>
        <path d="M1346.92,96.92v-8.89c.31-.13.74-.27,1.29-.41s1.2-.21,1.97-.21c.25,0,.5.01.75.04s.47.07.67.11c.2.04.35.08.44.12l-.27,1.15c-.11-.05-.31-.1-.61-.15-.3-.05-.68-.08-1.15-.08s-.83.03-1.13.1c-.3.07-.5.12-.59.17v8.05h-1.35Z"/>
        <path d="M1357.46,97.14c-.83,0-1.57-.2-2.21-.6-.65-.4-1.16-.97-1.52-1.7-.37-.73-.55-1.59-.55-2.57s.18-1.84.55-2.56c.37-.73.87-1.29,1.52-1.7s1.39-.61,2.21-.61,1.58.2,2.23.61,1.15.97,1.52,1.7c.37.73.55,1.58.55,2.56s-.18,1.84-.55,2.57c-.37.73-.87,1.3-1.51,1.7-.64.4-1.39.6-2.24.6ZM1357.46,95.93c.6,0,1.12-.15,1.55-.45.43-.3.76-.73,1-1.28s.35-1.2.35-1.94-.12-1.39-.35-1.94c-.23-.55-.57-.98-1-1.28-.43-.3-.95-.45-1.55-.45s-1.1.15-1.53.45c-.43.3-.77.73-1,1.28-.23.55-.35,1.2-.35,1.94s.12,1.39.35,1.94c.23.55.57.98,1,1.28.43.3.94.45,1.53.45Z"/>
        <path d="M1364.93,85.36c-.26,0-.49-.09-.67-.27s-.28-.42-.28-.72.09-.52.28-.7.41-.27.67-.27.49.09.67.27c.19.18.28.41.28.7s-.09.54-.28.72c-.19.18-.41.27-.67.27ZM1364.25,96.92v-9.32h1.35v9.32h-1.35Z"/>
        <path d="M1372.69,97.14c-.91,0-1.72-.2-2.41-.58-.7-.39-1.24-.95-1.62-1.67-.38-.73-.58-1.59-.58-2.6s.17-1.81.5-2.54c.33-.73.81-1.31,1.44-1.72.63-.41,1.39-.62,2.28-.62.58,0,1.08.08,1.52.24.44.16.76.32.98.48v-4.93l1.33-.23v13.68c-.23.07-.51.15-.85.22-.34.08-.72.14-1.14.2-.43.05-.91.08-1.45.08ZM1372.71,95.93c.53,0,.96-.03,1.3-.08.34-.05.6-.1.78-.15v-6.32c-.2-.17-.52-.34-.94-.51-.42-.17-.89-.26-1.42-.26s-1,.09-1.38.28c-.38.19-.68.45-.92.78-.23.34-.4.73-.5,1.17-.1.44-.15.92-.15,1.42,0,.78.14,1.44.41,1.99.27.55.65.96,1.13,1.25.49.29,1.05.43,1.68.43Z"/>
      </g>
      <g class="st5">
        <path d="M1168.5,116.33v-1.28h4.19v1.28h-4.19Z"/>
        <path d="M1178.93,120.92v-12.47h1.12c.48.52.98,1.1,1.51,1.76s1.06,1.35,1.59,2.06c.53.71,1.05,1.43,1.56,2.15s.97,1.41,1.4,2.07.79,1.25,1.09,1.78v-9.83h1.39v12.47h-1.17c-.28-.5-.63-1.1-1.06-1.79-.43-.69-.91-1.42-1.42-2.2-.52-.77-1.05-1.55-1.59-2.32-.54-.77-1.08-1.5-1.6-2.18-.52-.68-.99-1.26-1.41-1.75v10.24h-1.39Z"/>
        <path d="M1195.43,121.14c-.83,0-1.57-.2-2.21-.6-.65-.4-1.15-.97-1.52-1.7-.37-.73-.55-1.59-.55-2.57s.18-1.84.55-2.56c.37-.73.87-1.29,1.52-1.7.65-.41,1.39-.61,2.21-.61s1.58.2,2.23.61c.65.41,1.16.97,1.52,1.7.37.73.55,1.58.55,2.56s-.18,1.84-.55,2.57c-.37.73-.87,1.3-1.51,1.7-.64.4-1.39.6-2.24.6ZM1195.43,119.93c.6,0,1.12-.15,1.55-.45.43-.3.76-.73,1-1.28s.35-1.2.35-1.94-.12-1.39-.35-1.94c-.23-.55-.57-.98-1-1.28-.43-.3-.95-.45-1.55-.45s-1.1.15-1.53.45-.76.73-1,1.28c-.23.55-.35,1.2-.35,1.94s.12,1.39.35,1.94.57.98,1,1.28c.43.3.94.45,1.53.45Z"/>
        <path d="M1206.34,120.92v-8.89c.31-.13.74-.27,1.29-.41s1.2-.21,1.97-.21c.25,0,.5.01.75.04s.47.07.67.11c.2.04.35.08.44.12l-.27,1.15c-.11-.05-.31-.1-.61-.15-.3-.05-.68-.08-1.15-.08s-.83.03-1.13.1c-.3.07-.5.12-.59.17v8.05h-1.35Z"/>
        <path d="M1217.23,121.12c-1.09,0-1.98-.21-2.65-.63s-1.18-1-1.49-1.73c-.32-.73-.48-1.57-.48-2.5,0-1.09.2-2,.59-2.72.4-.72.91-1.26,1.54-1.62.63-.36,1.29-.54,1.99-.54.78,0,1.46.17,2.03.5s1.01.83,1.32,1.51c.31.68.47,1.54.47,2.58,0,.08,0,.18,0,.3,0,.11-.01.22-.03.32h-6.5c.05,1.06.33,1.88.85,2.46.52.58,1.34.87,2.44.87.61,0,1.11-.06,1.5-.17s.67-.21.84-.3l.23,1.13c-.17.1-.5.21-.98.34-.49.13-1.04.2-1.67.2ZM1214.04,115.48h5.13c-.01-.61-.11-1.14-.31-1.58-.19-.44-.46-.77-.82-1.01-.35-.23-.79-.35-1.31-.35s-.99.14-1.38.41c-.4.28-.71.64-.93,1.08-.22.44-.35.92-.39,1.44Z"/>
        <path d="M1226.52,121.14c-.53,0-1.01-.03-1.44-.08-.43-.05-.81-.12-1.14-.2-.33-.08-.62-.15-.85-.22v-13.45l1.35-.23v5.17c.22-.16.54-.32.98-.48.44-.16.95-.24,1.52-.24.9,0,1.66.21,2.29.62s1.1.99,1.43,1.72c.33.73.49,1.57.49,2.52,0,1.01-.19,1.88-.58,2.6-.38.73-.92,1.29-1.62,1.68-.7.4-1.51.59-2.43.59ZM1226.5,119.93c.65,0,1.21-.14,1.7-.43.49-.29.86-.71,1.12-1.25.26-.55.4-1.21.4-1.99,0-.5-.05-.98-.15-1.42-.1-.44-.27-.83-.5-1.17-.23-.34-.54-.6-.92-.78-.38-.19-.84-.28-1.38-.28s-.98.09-1.4.26-.73.34-.94.51v6.32c.17.05.42.1.76.15.34.05.78.08,1.31.08Z"/>
        <path d="M1237.24,121.1c-.94,0-1.68-.18-2.22-.53-.55-.35-.94-.86-1.17-1.5-.23-.65-.35-1.4-.35-2.25v-5.22h1.35v4.86c0,.84.08,1.51.25,2.02s.44.87.82,1.09c.38.22.88.33,1.5.33.5,0,.95-.03,1.34-.08.39-.05.64-.1.77-.13v-8.08h1.33v9c-.36.1-.84.2-1.45.32-.61.12-1.33.18-2.17.18Z"/>
        <path d="M1244.57,109.36c-.26,0-.49-.09-.67-.27s-.28-.42-.28-.72.09-.52.28-.7.41-.27.67-.27.49.09.68.27c.19.18.28.41.28.7s-.09.54-.28.72c-.19.18-.41.27-.68.27ZM1243.89,120.92v-9.32h1.35v9.32h-1.35Z"/>
        <path d="M1250.78,121.08c-.58-.02-1.05-.12-1.43-.29s-.66-.43-.84-.78c-.18-.35-.27-.83-.27-1.43v-11.39l1.35-.23v11.54c0,.58.1.95.32,1.12.21.17.57.29,1.07.36l-.2,1.12Z"/>
        <path d="M1257.04,121.14c-.91,0-1.72-.2-2.41-.58-.7-.39-1.24-.95-1.62-1.67-.38-.73-.58-1.59-.58-2.6s.17-1.81.5-2.54c.33-.73.81-1.31,1.44-1.72.63-.41,1.39-.62,2.28-.62.58,0,1.08.08,1.52.24.44.16.76.32.98.48v-4.93l1.33-.23v13.68c-.23.07-.51.15-.85.22-.34.08-.72.14-1.14.2-.43.05-.91.08-1.45.08ZM1257.06,119.93c.53,0,.96-.03,1.3-.08.34-.05.6-.1.78-.15v-6.32c-.2-.17-.52-.34-.94-.51-.42-.17-.89-.26-1.42-.26s-1,.09-1.38.28c-.38.19-.68.45-.92.78-.23.34-.4.73-.5,1.17-.1.44-.15.92-.15,1.42,0,.78.14,1.44.41,1.99.27.55.65.96,1.13,1.25.49.29,1.05.43,1.68.43Z"/>
        <path d="M1267.63,120.92v-8.89c.31-.13.74-.27,1.29-.41s1.2-.21,1.97-.21c.25,0,.5.01.75.04s.47.07.67.11c.2.04.35.08.44.12l-.27,1.15c-.11-.05-.31-.1-.61-.15-.3-.05-.68-.08-1.15-.08s-.83.03-1.13.1c-.3.07-.5.12-.59.17v8.05h-1.35Z"/>
        <path d="M1278.52,121.12c-1.09,0-1.98-.21-2.66-.63s-1.18-1-1.49-1.73c-.32-.73-.48-1.57-.48-2.5,0-1.09.2-2,.59-2.72s.91-1.26,1.54-1.62,1.29-.54,1.99-.54c.78,0,1.45.17,2.02.5s1.01.83,1.32,1.51c.31.68.47,1.54.47,2.58,0,.08,0,.18,0,.3,0,.11-.01.22-.03.32h-6.5c.05,1.06.33,1.88.85,2.46s1.33.87,2.44.87c.61,0,1.11-.06,1.5-.17.39-.11.67-.21.84-.3l.23,1.13c-.17.1-.49.21-.98.34s-1.04.2-1.67.2ZM1275.33,115.48h5.13c-.01-.61-.12-1.14-.31-1.58-.19-.44-.46-.77-.82-1.01-.35-.23-.79-.35-1.31-.35s-.99.14-1.39.41c-.4.28-.71.64-.93,1.08-.22.44-.35.92-.39,1.44Z"/>
        <path d="M1290.54,124.25v-3.83c-.22.16-.55.31-.99.48s-.95.24-1.53.24c-.89,0-1.65-.21-2.28-.62s-1.11-.99-1.43-1.72c-.32-.73-.49-1.57-.49-2.52,0-1.01.19-1.88.58-2.6.38-.73.92-1.28,1.62-1.67.7-.39,1.5-.58,2.41-.58.54,0,1.02.03,1.45.08s.81.12,1.14.19c.34.07.62.15.85.23v12.33h-1.33ZM1288.18,119.93c.53,0,1-.09,1.42-.27.42-.18.73-.35.94-.5v-6.32c-.18-.05-.44-.1-.78-.15-.34-.05-.78-.08-1.3-.08-.64,0-1.2.14-1.68.43-.49.29-.87.71-1.13,1.26s-.4,1.22-.4,2c0,.5.05.97.15,1.41s.27.83.5,1.16.54.6.92.78c.38.19.84.28,1.38.28Z"/>
        <path d="M1298.53,121.1c-.94,0-1.68-.18-2.22-.53-.55-.35-.94-.86-1.17-1.5-.23-.65-.35-1.4-.35-2.25v-5.22h1.35v4.86c0,.84.08,1.51.25,2.02s.44.87.82,1.09c.38.22.88.33,1.5.33.5,0,.95-.03,1.34-.08.39-.05.64-.1.77-.13v-8.08h1.33v9c-.36.1-.84.2-1.45.32-.61.12-1.33.18-2.17.18Z"/>
        <path d="M1305.86,109.36c-.26,0-.49-.09-.67-.27-.19-.18-.28-.42-.28-.72s.09-.52.28-.7c.19-.18.41-.27.67-.27s.49.09.68.27c.19.18.28.41.28.7s-.09.54-.28.72c-.19.18-.41.27-.68.27ZM1305.18,120.92v-9.32h1.35v9.32h-1.35Z"/>
        <path d="M1309.55,120.92v-8.89c.31-.13.74-.27,1.29-.41.55-.14,1.2-.21,1.97-.21.25,0,.5.01.75.04s.47.07.67.11c.2.04.34.08.44.12l-.27,1.15c-.11-.05-.31-.1-.61-.15-.3-.05-.68-.08-1.15-.08s-.83.03-1.13.1c-.3.07-.5.12-.59.17v8.05h-1.35Z"/>
        <path d="M1320.44,121.12c-1.09,0-1.98-.21-2.65-.63s-1.18-1-1.49-1.73c-.32-.73-.48-1.57-.48-2.5,0-1.09.2-2,.59-2.72.4-.72.91-1.26,1.54-1.62.63-.36,1.29-.54,1.99-.54.78,0,1.46.17,2.03.5s1.01.83,1.32,1.51c.31.68.47,1.54.47,2.58,0,.08,0,.18,0,.3,0,.11-.01.22-.03.32h-6.5c.05,1.06.33,1.88.85,2.46.52.58,1.34.87,2.44.87.61,0,1.11-.06,1.5-.17s.67-.21.84-.3l.23,1.13c-.17.1-.5.21-.98.34-.49.13-1.04.2-1.67.2ZM1317.25,115.48h5.13c-.01-.61-.11-1.14-.31-1.58-.19-.44-.46-.77-.82-1.01-.35-.23-.79-.35-1.31-.35s-.99.14-1.38.41c-.4.28-.71.64-.93,1.08-.22.44-.35.92-.39,1.44Z"/>
        <path d="M1330.36,121.14c-.91,0-1.72-.2-2.41-.58-.7-.39-1.24-.95-1.62-1.67-.38-.73-.58-1.59-.58-2.6s.16-1.81.49-2.54c.33-.73.81-1.31,1.44-1.72.63-.41,1.39-.62,2.28-.62.58,0,1.08.08,1.52.24.44.16.77.32.98.48v-4.93l1.33-.23v13.68c-.23.07-.51.15-.85.22-.34.08-.72.14-1.14.2-.43.05-.91.08-1.45.08ZM1330.38,119.93c.53,0,.96-.03,1.3-.08.34-.05.6-.1.78-.15v-6.32c-.2-.17-.52-.34-.94-.51s-.89-.26-1.42-.26-1,.09-1.38.28c-.38.19-.68.45-.92.78s-.4.73-.5,1.17c-.1.44-.15.92-.15,1.42,0,.78.13,1.44.4,1.99s.65.96,1.13,1.25c.49.29,1.05.43,1.68.43Z"/>
      </g>
    </g>
    <g>
      <path d="M1462.31,62c-.24.31-.45.65-.63,1h-14.68c-.55,0-1,.45-1,1v5.1c.05.47.43.84.9.89h.1s15.12,0,15.12,0c.25.36.53.69.84,1h-15.96c-1.1,0-2-.9-2-2v-5c0-1.1.9-2,2-2h15.31ZM1450.5,65.5c.55,0,1,.45,1,1s-.45,1-1,1-1-.45-1-1,.45-1,1-1ZM1454.5,65.5c.55,0,1,.45,1,1s-.45,1-1,1-1-.45-1-1,.45-1,1-1ZM1478,51c1.1,0,2,.9,2,2v2.58c-.31-.27-.64-.52-1-.73v-1.85c0-.55-.45-1-1-1h-31c-.55,0-1,.45-1,1v5.1c.05.47.43.84.9.89h.1s17.83,0,17.83,0c-.12.32-.2.65-.25,1h-17.58c-1.1,0-2-.9-2-2v-5c0-1.1.9-2,2-2h31ZM1450.5,54.5c.55,0,1,.45,1,1s-.45,1-1,1-1-.45-1-1,.45-1,1-1ZM1454.5,54.5c.55,0,1,.45,1,1s-.45,1-1,1-1-.45-1-1,.45-1,1-1ZM1478,40c1.1,0,2,.9,2,2v5c0,1.1-.9,2-2,2h-31c-1.1,0-2-.9-2-2v-5c0-1.1.9-2,2-2h31ZM1447,41c-.55,0-1,.45-1,1v5.1c.05.47.43.84.9.89h.1s31,0,31,0h.1c.5-.06.9-.48.9-1v-5c0-.55-.45-1-1-1h-31ZM1450.5,43.5c.55,0,1,.45,1,1s-.45,1-1,1-1-.45-1-1,.45-1,1-1ZM1454.5,43.5c.55,0,1,.45,1,1s-.45,1-1,1-1-.45-1-1,.45-1,1-1Z"/>
      <path d="M1479.82,60.7c0-2.37-1.89-4.28-4.23-4.28-1.55,0-3.01.91-3.74,2.33-.07.14-.2.24-.35.26-.15.03-.31-.02-.42-.12-.46-.41-1.02-.63-1.61-.63-1.34,0-2.45,1.09-2.45,2.47v.77c0,.23-.16.43-.39.49-1.9.44-3.21,2.16-3.21,4.15,0,2.37,1.89,4.28,4.23,4.28h12.54c2.34,0,4.23-1.91,4.23-4.28,0-2.37-1.86-4.25-4.17-4.28-.15,0-.29-.07-.38-.18-.09-.11-.13-.26-.11-.41h0s0,0,0-.01c0,0,0-.02,0-.04,0-.03.01-.08.02-.14.01-.12.03-.26.03-.38ZM1480.81,60.9c2.61.31,4.61,2.53,4.61,5.25,0,2.91-2.32,5.28-5.23,5.28h-12.54c-2.91,0-5.23-2.37-5.23-5.28,0-2.29,1.43-4.33,3.6-5.01v-.39c0-1.92,1.55-3.47,3.45-3.47.64,0,1.26.18,1.8.52.96-1.45,2.58-2.37,4.33-2.37,2.91,0,5.23,2.37,5.23,5.28,0,.07,0,.13,0,.19Z"/>
    </g>
  </g>
  <g data-component-id="_auto_1">
    <line class="st4" x1="384" y1="168" x2="389.16" y2="168"/>
    <polygon class="st0" points="389.16 165.09 400 168 389.16 170.91 389.16 165.09"/>
  </g>
  <g data-component-id="_auto_2">
    <line class="st4" x1="768" y1="168" x2="781.16" y2="168"/>
    <polygon class="st0" points="781.16 165.09 792 168 781.16 170.91 781.16 165.09"/>
  </g>
  <g data-component-id="_auto_3">
    <line class="st4" x1="1128" y1="168" x2="1149.16" y2="168"/>
    <polygon class="st0" points="1149.16 165.09 1160 168 1149.16 170.91 1149.16 165.09"/>
  </g>
</svg>