<svg xmlns="http://www.w3.org/2000/svg" width="984" height="560" viewBox="0 0 984 560" xml:space="preserve">
  <rect width="984" height="560" fill="#FFFFFF" />
  <g data-component-id="apps">
  <rect x="0" y="0" width="480" height="88" fill="#F3F3F3" stroke="#000000" stroke-width="1" stroke-miterlimit="10" />
  <text font-family="Ubuntu Sans">
    <tspan x="8" y="24.92" font-size="18" font-weight="700" fill="#000000">Applications</tspan>
    <tspan x="8" y="48.92" font-size="18" font-weight="400" fill="#000000">• OpenGL / Vulkan</tspan>
    <tspan x="8" y="72.92" font-size="18" font-weight="400" fill="#000000">• UI toolkits</tspan>
  </text>
  <g class="dg-icon" transform="translate(424 8)">
<path fill-rule="evenodd" clip-rule="evenodd" d="M35 3C36.1046 3 37 3.89543 37 5V43C37 44.0357 36.2128 44.887 35.2041 44.9893L35 45H13L12.7959 44.9893C11.8543 44.8938 11.1062 44.1457 11.0107 43.2041L11 43V5C11 3.89543 11.8954 3 13 3H35ZM13 4C12.4477 4 12 4.44772 12 5V43C12 43.5523 12.4477 44 13 44H35C35.5523 44 36 43.5523 36 43V5C36 4.44772 35.5523 4 35 4H13Z" fill="#000000" />

<path d="M24 40C24.5523 40 25 40.4477 25 41C25 41.5523 24.5523 42 24 42C23.4477 42 23 41.5523 23 41C23 40.4477 23.4477 40 24 40Z" fill="#000000" />

<path d="M34.5 38.5H13.5V37.5H34.5V38.5Z" fill="#000000" />

  </g>
  </g>
  <g data-component-id="runtime">
  <rect x="0" y="112" width="480" height="112" fill="#FFFFFF" stroke="#000000" stroke-width="1" stroke-miterlimit="10" />
  <text font-family="Ubuntu Sans">
    <tspan x="8" y="136.92" font-size="18" font-weight="700" fill="#000000">Android graphics runtime</tspan>
    <tspan x="8" y="160.92" font-size="18" font-weight="400" fill="#000000">• EGL</tspan>
    <tspan x="8" y="184.92" font-size="18" font-weight="400" fill="#000000">• Vulkan loader</tspan>
    <tspan x="8" y="208.92" font-size="18" font-weight="400" fill="#000000">• Buffer management abstractions</tspan>
  </text>
  <g class="dg-icon" transform="translate(424 120)">
<path fill-rule="evenodd" clip-rule="evenodd" d="M38 28C39.3807 28 40.5 29.1193 40.5 30.5C40.5 31.8807 39.3807 33 38 33C36.6193 33 35.5 31.8807 35.5 30.5C35.5 29.1193 36.6193 28 38 28ZM38 29C37.1716 29 36.5 29.6716 36.5 30.5C36.5 31.3284 37.1716 32 38 32C38.8284 32 39.5 31.3284 39.5 30.5C39.5 29.6716 38.8284 29 38 29Z" fill="#000000" />

<path fill-rule="evenodd" clip-rule="evenodd" d="M24 28C25.3807 28 26.5 29.1193 26.5 30.5C26.5 31.8807 25.3807 33 24 33C22.6193 33 21.5 31.8807 21.5 30.5C21.5 29.1193 22.6193 28 24 28ZM24 29C23.1716 29 22.5 29.6716 22.5 30.5C22.5 31.3284 23.1716 32 24 32C24.8284 32 25.5 31.3284 25.5 30.5C25.5 29.6716 24.8284 29 24 29Z" fill="#000000" />

<path fill-rule="evenodd" clip-rule="evenodd" d="M31 28C32.3807 28 33.5 29.1193 33.5 30.5C33.5 31.8807 32.3807 33 31 33C29.6193 33 28.5 31.8807 28.5 30.5C28.5 29.1193 29.6193 28 31 28ZM31 29C30.1716 29 29.5 29.6716 29.5 30.5C29.5 31.3284 30.1716 32 31 32C31.8284 32 32.5 31.3284 32.5 30.5C32.5 29.6716 31.8284 29 31 29Z" fill="#000000" />

<path fill-rule="evenodd" clip-rule="evenodd" d="M9.5 11.5H17.5V3H18.5V11.5H26.5V3H27.5V11.5H43.5C44.6046 11.5 45.5 12.3954 45.5 13.5V36C45.5 37.1046 44.6046 38 43.5 38H39.5V46.5H38.5V38H18.5V46.5H17.5V38H14V46.5H13V38H9.5V46.5H8.5V38H4.5C3.39543 38 2.5 37.1046 2.5 36V13.5C2.5 12.3954 3.39543 11.5 4.5 11.5H8.5V3H9.5V11.5ZM4.5 12.5C3.94772 12.5 3.5 12.9477 3.5 13.5V36C3.5 36.5523 3.94772 37 4.5 37H43.5C44.0523 37 44.5 36.5523 44.5 36V13.5C44.5 12.9477 44.0523 12.5 43.5 12.5H4.5Z" fill="#000000" />

  </g>
  </g>
  <g data-component-id="composition">
  <rect x="0" y="248" width="480" height="88" fill="#F3F3F3" stroke="#000000" stroke-width="1" stroke-miterlimit="10" />
  <text font-family="Ubuntu Sans">
    <tspan x="8" y="272.92" font-size="18" font-weight="700" fill="#000000">System composition and display policy</tspan>
    <tspan x="8" y="296.92" font-size="18" font-weight="400" fill="#000000">• SurfaceFlinger</tspan>
    <tspan x="8" y="320.92" font-size="18" font-weight="400" fill="#000000">• HWComposer (capability &amp; policy)</tspan>
  </text>
  <g class="dg-icon" transform="translate(424 256)">
<path d="M39.5 26.5557C39.4999 32.5189 34.9609 37.4213 29.1494 37.998L30.7979 39.6465L30.0908 40.3535L27.293 37.5557L30.0908 34.7578L30.7979 35.4648L29.2881 36.9736C34.4792 36.3384 38.4999 31.9184 38.5 26.5557H39.5Z" fill="#000000" />

<path d="M20.707 10.4443L17.9092 13.2422L17.2021 12.5352L18.7109 11.0254C13.5203 11.661 9.50006 16.0819 9.5 21.4443H8.5C8.50006 15.4814 13.0385 10.5781 18.8496 10.001L17.2021 8.35352L17.9092 7.64648L20.707 10.4443Z" fill="#000000" />

<path fill-rule="evenodd" clip-rule="evenodd" d="M32.7578 5.42287C32.9084 5.33962 33.0916 5.33957 33.2422 5.42287L41.7422 10.1279C41.9009 10.216 41.9998 10.383 42 10.5645V19.9375C42 20.1193 41.9011 20.2869 41.7422 20.375L33.2422 25.0791C33.0915 25.1625 32.9085 25.1625 32.7578 25.0791L24.2578 20.375C24.0988 20.2869 24 20.1193 24 19.9375V10.5645C24.0002 10.3829 24.099 10.2159 24.2578 10.1279L32.7578 5.42287ZM25 19.6426L32.5 23.793V20.2842L28.6592 18.0899C28.5036 18.0009 28.4073 17.8355 28.4072 17.6563V13.332L25 11.4326V19.6426ZM37.5918 13.333V17.6563C37.5917 17.8356 37.4955 18.0009 37.3398 18.0899L33.5 20.2842V23.793L41 19.6426V11.4326L37.5918 13.333ZM29.4072 17.3653L32.5 19.1328V15.6153L29.4072 13.8897V17.3653ZM33.5 15.6153V19.1319L36.5918 17.3653V13.8906L33.5 15.6153ZM31.1992 12.2539L29.877 13.0069L32.999 14.7481L36.1201 13.0078L32.999 11.2246L31.1992 12.2539ZM25.5127 10.5742L28.8574 12.4395L32.752 10.2149C32.9056 10.1272 33.0945 10.1272 33.248 10.2149L37.1396 12.4395L40.4863 10.5742L33 6.43166L25.5127 10.5742Z" fill="#000000" />

<path fill-rule="evenodd" clip-rule="evenodd" d="M16.9414 25.5C19.4914 25.5002 21.5262 27.5886 21.5264 30.1426C21.5264 30.1801 21.523 30.2178 21.5215 30.2549C23.778 30.5521 25.5 32.4912 25.5 34.8574C25.4999 37.4114 23.465 39.4998 20.915 39.5H10.085C7.53499 39.4997 5.50013 37.4114 5.5 34.8574C5.5 32.8595 6.73411 31.078 8.60645 30.4629V30.1719C8.60645 28.4698 9.9745 27.0997 11.6523 27.0996C12.1965 27.0996 12.7195 27.2503 13.1826 27.5293C14.0258 26.2849 15.4282 25.5 16.9414 25.5ZM16.9414 26.5C15.6267 26.5 14.3944 27.2728 13.7764 28.4844L13.4805 29.0645L12.9971 28.6289C12.6101 28.2802 12.1402 28.0996 11.6523 28.0996C10.532 28.0997 9.60645 29.0168 9.60645 30.1719V31.2393L9.21875 31.3291C7.61249 31.702 6.5 33.1614 6.5 34.8574C6.50013 36.8743 8.10238 38.4997 10.085 38.5H20.915C22.8976 38.4998 24.4999 36.8743 24.5 34.8574C24.5 32.8393 22.9228 31.2389 20.9639 31.2139L20.3711 31.207L20.4785 30.623L20.4795 30.6221C20.4795 30.6221 20.4799 30.6183 20.4805 30.6152C20.4817 30.6083 20.4831 30.597 20.4854 30.583C20.4899 30.5549 20.4968 30.514 20.5029 30.4658C20.5157 30.3664 20.5264 30.247 20.5264 30.1426C20.5262 28.1256 18.924 26.5002 16.9414 26.5Z" fill="#000000" />

  </g>
  </g>
  <g data-component-id="kernel_gfx">
  <rect x="0" y="360" width="480" height="112" fill="#FFFFFF" stroke="#000000" stroke-width="1" stroke-miterlimit="10" />
  <text font-family="Ubuntu Sans">
    <tspan x="8" y="384.92" font-size="18" font-weight="700" fill="#000000">Kernel graphics &amp; display subsystems</tspan>
    <tspan x="8" y="408.92" font-size="18" font-weight="400" fill="#000000">• DRM / KMS</tspan>
    <tspan x="8" y="432.92" font-size="18" font-weight="400" fill="#000000">• GPU drivers</tspan>
    <tspan x="8" y="456.92" font-size="18" font-weight="400" fill="#000000">• Memory &amp; synchronization primitives</tspan>
  </text>
  <g class="dg-icon" transform="translate(424 368)">
<path fill-rule="evenodd" clip-rule="evenodd" d="M24 5.5C27.1471 5.5 30.1115 6.2877 32.707 7.6748C32.857 7.74682 33.0057 7.82312 33.1514 7.90723C34.4287 8.64487 35.3834 9.76487 36.0352 11.1475C36.7654 12.64 37.1302 14.3839 37.0967 16.0801C37.099 16.1631 37.1044 16.2464 37.1055 16.3301C37.1055 16.3361 37.1091 16.3425 37.1143 16.3457C37.2236 16.4106 37.3298 16.4792 37.4365 16.5459C37.4608 16.5611 37.4853 16.5763 37.5098 16.5918C39.0601 17.5722 40.3262 18.7352 41.1855 20.0371C41.9568 21.1715 42.5 22.5061 42.5 24C42.5 34.2173 34.2173 42.5 24 42.5C13.7827 42.5 5.5 34.2173 5.5 24C5.5 13.7827 13.7827 5.5 24 5.5ZM24 6.5C14.335 6.5 6.5 14.335 6.5 24C6.5 33.665 14.335 41.5 24 41.5C32.2124 41.5 39.1014 35.8426 40.9873 28.2129C40.3944 29.0405 39.6396 29.8112 38.75 30.5068C36.4856 32.2774 33.3267 33.6139 29.6904 34.3115C29.6579 34.3208 29.626 34.3263 29.5957 34.3291C28.0189 34.6262 26.3496 34.8079 24.6191 34.8486L23.8682 34.8574C18.8708 34.8574 14.3179 33.7079 10.9717 31.8223C10.7698 31.7426 10.6286 31.5459 10.6299 31.3174L10.6494 30.5859C10.8181 26.8905 12.0928 22.6344 14.4521 18.5479L14.9355 17.7383C17.3973 13.747 20.5128 10.6446 23.6523 8.82227C25.2605 7.88883 26.8981 7.28042 28.4658 7.0752C27.0404 6.70018 25.5437 6.5 24 6.5ZM32.2383 8.55762C30.0271 7.51835 27.1498 7.94786 24.1543 9.68652C21.1805 11.4126 18.1767 14.387 15.7871 18.2607L15.3174 19.0479C12.9334 23.1771 11.7163 27.4467 11.6367 31.0459C14.7936 32.7769 19.0998 33.8574 23.8682 33.8574L24.5957 33.8486C26.2843 33.8089 27.911 33.6316 29.4443 33.3408C29.4481 33.3401 29.4521 33.3395 29.4561 33.3389C29.4594 33.3381 29.4627 33.3375 29.4658 33.3369L30.123 33.2031C33.3754 32.5006 36.1484 31.2712 38.1338 29.7188C40.253 28.0617 41.4336 26.0743 41.4336 23.9844C41.4336 22.7958 41.0503 21.6388 40.3311 20.5576C40.1338 20.2713 39.9184 19.9953 39.6885 19.7314C38.6387 18.5267 37.3324 17.6029 36.332 17.0527L36.0508 16.8984L36.0742 16.5781C36.0864 16.413 36.0929 16.2475 36.0967 16.082C36.0472 14.363 35.7254 12.8469 35.1445 11.6045C34.5515 10.3891 33.7017 9.38209 32.6445 8.78027C32.5104 8.70393 32.3746 8.63048 32.2383 8.55762Z" fill="#000000" />

<path d="M21.8291 21.455C23.606 18.3772 26.0951 16.6803 28.0322 17.1171C31.5034 17.5866 32.75 21.3823 32.75 23.5497C32.7497 25.4018 30.6556 26.9717 27.7529 27.5243V27.5253C27.7517 27.5253 27.7502 27.5252 27.749 27.5253C27.0279 27.6623 26.2572 27.7372 25.4561 27.7372C23.4568 27.7372 21.6457 27.2752 20.3281 26.5272C20.3231 26.5262 20.3176 26.5253 20.3125 26.5243C20.3185 25.0045 20.8244 23.1951 21.8291 21.455Z" fill="#000000" />

  </g>
  </g>
  <g data-component-id="display">
  <rect x="0" y="496" width="480" height="64" fill="#F3F3F3" stroke="#000000" stroke-width="1" stroke-miterlimit="10" />
  <text font-family="Ubuntu Sans">
    <tspan x="8" y="520.92" font-size="18" font-weight="700" fill="#000000">Display output</tspan>
  </text>
  <g class="dg-icon" transform="translate(424 504)">
<path d="M42 29.75H6V28.75H42V29.75Z" fill="#000000" />

<path fill-rule="evenodd" clip-rule="evenodd" d="M43.5 7C44.6046 7 45.5 7.89543 45.5 9V31.5C45.5 32.6046 44.6046 33.5 43.5 33.5H30.5V38.5H34.5C34.7761 38.5 35 38.7239 35 39V42C35 42.2761 34.7761 42.5 34.5 42.5H13.5C13.2239 42.5 13 42.2761 13 42V39C13 38.7239 13.2239 38.5 13.5 38.5H17.5V33.5H4.5C3.39543 33.5 2.5 32.6046 2.5 31.5V9C2.5 7.89543 3.39543 7 4.5 7H43.5ZM14 41.5H34V39.5H14V41.5ZM18.5 38.5H29.5V33.5H18.5V38.5ZM4.5 8C3.94772 8 3.5 8.44772 3.5 9V31.5C3.5 32.0523 3.94772 32.5 4.5 32.5H43.5C44.0523 32.5 44.5 32.0523 44.5 31.5V9C44.5 8.44772 44.0523 8 43.5 8H4.5Z" fill="#000000" />

<path fill-rule="evenodd" clip-rule="evenodd" d="M24 17C25.3807 17 26.5 18.1193 26.5 19.5C26.5 20.8807 25.3807 22 24 22C22.6193 22 21.5 20.8807 21.5 19.5C21.5 18.1193 22.6193 17 24 17ZM24 18C23.1716 18 22.5 18.6716 22.5 19.5C22.5 20.3284 23.1716 21 24 21C24.8284 21 25.5 20.3284 25.5 19.5C25.5 18.6716 24.8284 18 24 18Z" fill="#000000" />

  </g>
  </g>
  <g data-component-id="apps.bottom-&gt;runtime.top">
  <line x1="240" y1="88" x2="240" y2="100" fill="none" stroke="#E95420" stroke-width="1" stroke-miterlimit="10" />
  <line x1="240" y1="100" x2="240" y2="100" fill="none" stroke="#E95420" stroke-width="1" stroke-miterlimit="10" />
  <line x1="240" y1="100" x2="240" y2="101.1592" fill="none" stroke="#E95420" stroke-width="1" stroke-miterlimit="10" />
  <polygon points="237.0947,101.1592 240,112 242.9053,101.1592" fill="#E95420" />
  </g>
  <g data-component-id="runtime.bottom-&gt;composition.top">
  <line x1="240" y1="224" x2="240" y2="236" fill="none" stroke="#E95420" stroke-width="1" stroke-miterlimit="10" />
  <line x1="240" y1="236" x2="240" y2="236" fill="none" stroke="#E95420" stroke-width="1" stroke-miterlimit="10" />
  <line x1="240" y1="236" x2="240" y2="237.1592" fill="none" stroke="#E95420" stroke-width="1" stroke-miterlimit="10" />
  <polygon points="237.0947,237.1592 240,248 242.9053,237.1592" fill="#E95420" />
  </g>
  <g data-component-id="composition.bottom-&gt;kernel_gfx.top">
  <line x1="240" y1="336" x2="240" y2="348" fill="none" stroke="#E95420" stroke-width="1" stroke-miterlimit="10" />
  <line x1="240" y1="348" x2="240" y2="348" fill="none" stroke="#E95420" stroke-width="1" stroke-miterlimit="10" />
  <line x1="240" y1="348" x2="240" y2="349.1592" fill="none" stroke="#E95420" stroke-width="1" stroke-miterlimit="10" />
  <polygon points="237.0947,349.1592 240,360 242.9053,349.1592" fill="#E95420" />
  </g>
  <g data-component-id="kernel_gfx.bottom-&gt;display.top">
  <line x1="240" y1="472" x2="240" y2="484" fill="none" stroke="#E95420" stroke-width="1" stroke-miterlimit="10" />
  <line x1="240" y1="484" x2="240" y2="484" fill="none" stroke="#E95420" stroke-width="1" stroke-miterlimit="10" />
  <line x1="240" y1="484" x2="240" y2="485.1592" fill="none" stroke="#E95420" stroke-width="1" stroke-miterlimit="10" />
  <polygon points="237.0947,485.1592 240,496 242.9053,485.1592" fill="#E95420" />
  </g>
</svg>
