<svg xmlns="http://www.w3.org/2000/svg" width="1520" height="336" viewBox="0 0 1520 336" xml:space="preserve">
  <rect width="1520" height="336" fill="#FFFFFF" />
  <g data-component-id="custom_files">
  <rect x="16" y="24" width="368" height="288" fill="#FFFFFF" stroke="#000000" stroke-width="1" stroke-miterlimit="10" />
  <text font-family="Ubuntu Sans">
    <tspan x="24" y="48.92" font-size="18" font-weight="700" fill="#000000">Custom Android files</tspan>
  </text>
  </g>
  <g data-component-id="partitions">
  <rect x="24" y="96" width="352" height="64" fill="#F3F3F3" stroke="none" stroke-width="1" stroke-miterlimit="10" />
  <text font-family="Ubuntu Sans">
    <tspan x="32" y="120.92" font-size="18" font-weight="700" fill="#000000">Partitions</tspan>
  </text>
  </g>
  <g data-component-id="system_image">
  <rect x="24" y="168" width="352" height="64" fill="#FFFFFF" stroke="#000000" stroke-width="1" stroke-miterlimit="10" />
  <text font-family="Ubuntu Sans">
    <tspan x="32" y="192.92" font-size="18" font-weight="400" fill="#000000">Android system image</tspan>
  </text>
  </g>
  <g data-component-id="kernel">
  <rect x="24" y="240" width="352" height="64" fill="#F3F3F3" stroke="#000000" stroke-width="1" stroke-miterlimit="10" />
  <text font-family="Ubuntu Sans">
    <tspan x="32" y="264.92" font-size="18" font-weight="400" fill="#000000">Kernel</tspan>
  </text>
  </g>
  <g data-component-id="host_tools">
  <rect x="400" y="24" width="368" height="288" fill="#FFFFFF" stroke="#000000" stroke-width="1" stroke-miterlimit="10" />
  <text font-family="Ubuntu Sans">
    <tspan x="408" y="48.92" font-size="18" font-weight="700" fill="#000000">Host-side tools</tspan>
  </text>
  </g>
  <g data-component-id="cvd">
  <rect x="408" y="112" width="352" height="64" fill="#FFFFFF" stroke="#000000" stroke-width="1" stroke-miterlimit="10" />
  <text font-family="Ubuntu Sans">
    <tspan x="416" y="136.92" font-size="18" font-weight="400" fill="#000000">cvd</tspan>
  </text>
  </g>
  <g data-component-id="launchers">
  <rect x="408" y="200" width="352" height="64" fill="#FFFFFF" stroke="#000000" stroke-width="1" stroke-miterlimit="10" />
  <text font-family="Ubuntu Sans">
    <tspan x="416" y="224.92" font-size="18" font-weight="400" fill="#000000">Launchers</tspan>
  </text>
  </g>
  <g data-component-id="anbox_cloud">
  <rect x="792" y="24" width="336" height="288" fill="#FFFFFF" stroke="#000000" stroke-width="1" stroke-miterlimit="10" />
  <text font-family="Ubuntu Sans">
    <tspan x="800" y="48.92" font-size="18" font-weight="700" fill="#000000">Anbox Cloud</tspan>
    <tspan x="800" y="72.92" font-size="18" font-weight="400" fill="#000000">- Consumes system images</tspan>
    <tspan x="800" y="96.92" font-size="18" font-weight="400" fill="#000000">- Consumes host-side tools</tspan>
  </text>
  <g class="dg-icon" transform="translate(1072 32)">
<path fill-rule="evenodd" clip-rule="evenodd" d="M27.1855 10C32.1958 10 36.2166 13.9999 36.2168 18.9229L36.2109 19.1426C36.1874 19.6524 36.0941 20.1474 36.0928 20.1543C41.0412 20.2158 45 24.1541 45 29.0771L44.9883 29.5361C44.7475 34.2463 40.8223 38 35.9688 38H12.0312L11.5645 37.9883C6.9281 37.7568 3.24476 34.0945 3.01172 29.5361L3 29.0771C3.00003 24.9541 5.78376 21.3518 9.86621 20.4287V18.9844C9.86638 15.9076 12.4024 13.4463 15.4951 13.4463L15.749 13.4521C17.0168 13.5096 18.2202 13.996 19.2061 14.8613C20.7525 11.9076 23.8454 10 27.1855 10ZM27.1855 11C24.2244 11 21.4689 12.6948 20.0918 15.3252L19.502 16.4521L18.5469 15.6133C17.674 14.8471 16.608 14.4464 15.4951 14.4463C12.9354 14.4463 10.8664 16.479 10.8662 18.9844V21.2275L10.0869 21.4033C6.47196 22.2207 4.00003 25.4093 4 29.0771C4.00012 33.4385 7.56395 37 12.0312 37H35.9688C40.4361 37 43.9999 33.4385 44 29.0771C44 24.7135 40.4931 21.2082 36.0801 21.1533L34.8877 21.1387L35.1104 19.9668V19.9648C35.1109 19.9617 35.1119 19.9557 35.1133 19.9482C35.116 19.9332 35.121 19.91 35.126 19.8799C35.1361 19.8188 35.1493 19.7305 35.1631 19.626C35.1914 19.4107 35.2168 19.151 35.2168 18.9229C35.2166 14.5615 31.6528 11 27.1855 11Z" fill="#000000" />

  </g>
  </g>
  <g data-component-id="virt_instance">
  <rect x="1160" y="24" width="336" height="288" fill="#FFFFFF" stroke="#000000" stroke-width="1" stroke-miterlimit="10" />
  <text font-family="Ubuntu Sans">
    <tspan x="1168" y="48.92" font-size="18" font-weight="700" fill="#000000">Virtualized Android instance</tspan>
    <tspan x="1168" y="72.92" font-size="18" font-weight="400" fill="#000000">- Unmodified</tspan>
    <tspan x="1168" y="96.92" font-size="18" font-weight="400" fill="#000000">  Cuttlefish-based Android</tspan>
    <tspan x="1168" y="120.92" font-size="18" font-weight="400" fill="#000000">- No rebuild required</tspan>
  </text>
  <g class="dg-icon" transform="translate(1440 32)">
<path d="M22.3066 30C22.0688 30.314 21.8578 30.6483 21.6777 31H7C6.44772 31 6 31.4477 6 32V37L6.00488 37.1025C6.05278 37.573 6.42703 37.9472 6.89746 37.9951L7 38H22.1172C22.3644 38.3601 22.6456 38.6948 22.9561 39H7C5.89543 39 5 38.1046 5 37V32C5 30.8954 5.89543 30 7 30H22.3066ZM10.5 33.501C11.0523 33.501 11.5 33.9487 11.5 34.501C11.5 35.0533 11.0523 35.501 10.5 35.501C9.94772 35.501 9.5 35.0533 9.5 34.501C9.5 33.9487 9.94772 33.501 10.5 33.501ZM14.5 33.501C15.0523 33.501 15.5 33.9487 15.5 34.501C15.5 35.0533 15.0523 35.501 14.5 35.501C13.9477 35.501 13.5 35.0533 13.5 34.501C13.5 33.9487 13.9477 33.501 14.5 33.501ZM38 19C39.1046 19 40 19.8954 40 21V23.5781C39.6902 23.307 39.3563 23.0626 39 22.8516V21C39 20.4477 38.5523 20 38 20H7C6.44772 20 6 20.4477 6 21V26L6.00488 26.1025C6.05278 26.573 6.42703 26.9472 6.89746 26.9951L7 27H24.8311C24.7126 27.3189 24.6274 27.6537 24.5762 28H7C5.89543 28 5 27.1046 5 26V21C5 19.8954 5.89543 19 7 19H38ZM10.5 22.501C11.0523 22.501 11.5 22.9487 11.5 23.501C11.5 24.0533 11.0523 24.501 10.5 24.501C9.94772 24.501 9.5 24.0533 9.5 23.501C9.5 22.9487 9.94772 22.501 10.5 22.501ZM14.5 22.501C15.0523 22.501 15.5 22.9487 15.5 23.501C15.5 24.0533 15.0523 24.501 14.5 24.501C13.9477 24.501 13.5 24.0533 13.5 23.501C13.5 22.9487 13.9477 22.501 14.5 22.501ZM38 8C39.1046 8 40 8.89543 40 10V15C40 16.1046 39.1046 17 38 17H7C5.89543 17 5 16.1046 5 15V10C5 8.89543 5.89543 8 7 8H38ZM7 9C6.44772 9 6 9.44772 6 10V15L6.00488 15.1025C6.05278 15.573 6.42703 15.9472 6.89746 15.9951L7 16H38L38.1025 15.9951C38.6067 15.9438 39 15.5177 39 15V10C39 9.44772 38.5523 9 38 9H7ZM10.5 11.501C11.0523 11.501 11.5 11.9487 11.5 12.501C11.5 13.0533 11.0523 13.501 10.5 13.501C9.94772 13.501 9.5 13.0533 9.5 12.501C9.5 11.9487 9.94772 11.501 10.5 11.501ZM14.5 11.501C15.0523 11.501 15.5 11.9487 15.5 12.501C15.5 13.0533 15.0523 13.501 14.5 13.501C13.9477 13.501 13.5 13.0533 13.5 12.501C13.5 11.9487 13.9477 11.501 14.5 11.501Z" fill="#000000" />

<path d="M39.8223 28.7031C39.8223 26.3361 37.934 24.423 35.5918 24.4229C34.0376 24.4229 32.5845 25.3326 31.8564 26.7549C31.7858 26.8929 31.6554 26.9903 31.5029 27.0186C31.3505 27.0468 31.1936 27.0029 31.0781 26.8994C30.6161 26.4846 30.0533 26.2695 29.4678 26.2695C28.1249 26.2695 27.0195 27.3631 27.0195 28.7363V29.5098C27.0194 29.7424 26.8585 29.9447 26.6318 29.9971C24.733 30.4363 23.4229 32.1533 23.4229 34.1426C23.4229 36.5097 25.3109 38.4228 27.6533 38.4229H40.1924C42.5348 38.4228 44.4229 36.5097 44.4229 34.1426C44.4228 31.7746 42.5649 29.8918 40.251 29.8623C40.1036 29.8604 39.9647 29.7935 39.8711 29.6797C39.7776 29.5658 39.7388 29.4164 39.7656 29.2715V29.2695C39.7659 29.2678 39.7669 29.2649 39.7676 29.2607C39.769 29.2526 39.7708 29.2399 39.7734 29.2236C39.7788 29.1905 39.7867 29.1425 39.7939 29.0859C39.8089 28.9697 39.8223 28.8282 39.8223 28.7031ZM40.8135 28.8975C43.4206 29.2035 45.4228 31.4243 45.4229 34.1426C45.4229 37.0501 43.0989 39.4228 40.1924 39.4229H27.6533C24.7468 39.4228 22.4229 37.0501 22.4229 34.1426C22.4229 31.8486 23.8561 29.81 26.0195 29.1279V28.7363C26.0195 26.8128 27.5706 25.2695 29.4678 25.2695C30.1089 25.2695 30.7251 25.4517 31.2656 25.793C32.2233 24.3414 33.8429 23.4229 35.5918 23.4229C38.4982 23.423 40.8223 25.7957 40.8223 28.7031C40.8223 28.7684 40.8173 28.8339 40.8135 28.8975Z" fill="#000000" />

  </g>
  </g>
  <g data-component-id="_auto_1">
  <line x1="384" y1="168" x2="389.1592" y2="168" fill="none" stroke="#E95420" stroke-width="1" stroke-miterlimit="10" />
  <polygon points="389.1592,165.0947 400,168 389.1592,170.9053" fill="#E95420" />
  </g>
  <g data-component-id="_auto_2">
  <line x1="768" y1="168" x2="781.1592" y2="168" fill="none" stroke="#E95420" stroke-width="1" stroke-miterlimit="10" />
  <polygon points="781.1592,165.0947 792,168 781.1592,170.9053" fill="#E95420" />
  </g>
  <g data-component-id="_auto_3">
  <line x1="1128" y1="168" x2="1149.1592" y2="168" fill="none" stroke="#E95420" stroke-width="1" stroke-miterlimit="10" />
  <polygon points="1149.1592,165.0947 1160,168 1149.1592,170.9053" fill="#E95420" />
  </g>
</svg>
