<svg xmlns="http://www.w3.org/2000/svg" width="1656" height="864" viewBox="0 0 1656 864" xml:space="preserve">
  <rect width="1656" height="864" fill="#FFFFFF" />
  <g data-component-id="query">
  <text font-family="Ubuntu Sans">
    <tspan x="24" y="40.92" font-size="18" font-weight="700" fill="#000000">The query (Q): the &quot;question&quot;</tspan>
  </text>
  </g>
  <g data-component-id="q_ubuntu">
  <rect x="24" y="176" width="240" height="64" fill="#F3F3F3" stroke="#000000" stroke-width="1" stroke-miterlimit="10" />
  <text font-family="Ubuntu Sans">
    <tspan x="32" y="200.92" font-size="18" font-weight="400" fill="#000000">Ubuntu:</tspan>
  </text>
  </g>
  <text font-family="Ubuntu Sans">
    <tspan x="272" y="192.92" font-size="18" font-weight="400" fill="#666666">I am a noun at the start of a</tspan>
    <tspan x="272" y="216.92" font-size="18" font-weight="400" fill="#666666">sentence followed by a colon.</tspan>
  </text>
  <text font-family="Ubuntu Sans">
    <tspan x="24" y="280.92" font-size="18" font-weight="400" fill="#666666">I am a noun at the start of a sentence followed</tspan>
    <tspan x="24" y="304.92" font-size="18" font-weight="400" fill="#666666">by a colon. I am likely a subject being defined.</tspan>
    <tspan x="24" y="328.92" font-size="18" font-weight="400" fill="#666666">What in this sentence explains what I am?</tspan>
  </text>
  <g data-component-id="q_matrix">
  <rect x="24" y="88" width="48" height="48" fill="#F3F3F3" stroke="#000000" stroke-width="1" stroke-miterlimit="10" />
  <line x1="24" y1="108" x2="72" y2="108" fill="none" stroke="#000000" stroke-width="1" stroke-miterlimit="10" />
  <line x1="40" y1="108" x2="40" y2="136" fill="none" stroke="#000000" stroke-width="1" stroke-miterlimit="10" />
  <line x1="56" y1="108" x2="56" y2="136" fill="none" stroke="#000000" stroke-width="1" stroke-miterlimit="10" />
  <line x1="24" y1="117" x2="72" y2="117" fill="none" stroke="#000000" stroke-width="1" stroke-miterlimit="10" />
  <line x1="24" y1="126" x2="72" y2="126" fill="none" stroke="#000000" stroke-width="1" stroke-miterlimit="10" />
  <text x="48" y="102.08" text-anchor="middle" font-family="Ubuntu Sans" font-size="12" font-weight="700" fill="#000000">Q</text>
  </g>
  <g data-component-id="keys">
  <text font-family="Ubuntu Sans">
    <tspan x="840" y="40.92" font-size="18" font-weight="700" fill="#000000">The keys (K): the &quot;advertisements&quot;</tspan>
  </text>
  </g>
  <g data-component-id="k_linux">
  <rect x="840" y="176" width="192" height="64" fill="#000000" stroke="#000000" stroke-width="1" stroke-miterlimit="10" />
  <text font-family="Ubuntu Sans">
    <tspan x="848" y="200.92" font-size="18" font-weight="400" fill="#FFFFFF">Linux</tspan>
  </text>
  </g>
  <g data-component-id="k_for">
  <rect x="1040" y="176" width="192" height="64" fill="#FFFFFF" stroke="#000000" stroke-width="1" stroke-miterlimit="10" />
  <text font-family="Ubuntu Sans">
    <tspan x="1048" y="200.92" font-size="18" font-weight="400" fill="#000000">for</tspan>
  </text>
  </g>
  <g data-component-id="k_human">
  <rect x="1240" y="176" width="192" height="64" fill="#F3F3F3" stroke="#000000" stroke-width="1" stroke-miterlimit="10" />
  <text font-family="Ubuntu Sans">
    <tspan x="1248" y="200.92" font-size="18" font-weight="400" fill="#000000">human</tspan>
  </text>
  </g>
  <g data-component-id="k_beings">
  <rect x="1440" y="176" width="192" height="64" fill="#FFFFFF" stroke="#000000" stroke-width="1" stroke-miterlimit="10" />
  <text font-family="Ubuntu Sans">
    <tspan x="1448" y="200.92" font-size="18" font-weight="400" fill="#000000">beings</tspan>
  </text>
  </g>
  <text font-family="Ubuntu Sans">
    <tspan x="840" y="280.92" font-size="18" font-weight="400" fill="#666666">I am a technical</tspan>
    <tspan x="840" y="304.92" font-size="18" font-weight="400" fill="#666666">OS kernel</tspan>
    <tspan x="840" y="328.92" font-size="18" font-weight="400" fill="#666666">category.</tspan>
  </text>
  <text font-family="Ubuntu Sans">
    <tspan x="1040" y="280.92" font-size="18" font-weight="400" fill="#666666">I am a preposition</tspan>
    <tspan x="1040" y="304.92" font-size="18" font-weight="400" fill="#666666">indicating a target</tspan>
    <tspan x="1040" y="328.92" font-size="18" font-weight="400" fill="#666666">audience.</tspan>
  </text>
  <text font-family="Ubuntu Sans">
    <tspan x="1240" y="280.92" font-size="18" font-weight="400" fill="#666666">I am the adjective</tspan>
    <tspan x="1240" y="304.92" font-size="18" font-weight="400" fill="#666666">that narrows the</tspan>
    <tspan x="1240" y="328.92" font-size="18" font-weight="400" fill="#666666">species or type.</tspan>
  </text>
  <text font-family="Ubuntu Sans">
    <tspan x="1440" y="280.92" font-size="18" font-weight="400" fill="#666666">I am the plural noun,</tspan>
    <tspan x="1440" y="304.92" font-size="18" font-weight="400" fill="#666666">the object of the</tspan>
    <tspan x="1440" y="328.92" font-size="18" font-weight="400" fill="#666666">audience.</tspan>
  </text>
  <g data-component-id="k_matrix">
  <rect x="1040" y="88" width="48" height="48" fill="#F3F3F3" stroke="#000000" stroke-width="1" stroke-miterlimit="10" />
  <line x1="1040" y1="108" x2="1088" y2="108" fill="none" stroke="#000000" stroke-width="1" stroke-miterlimit="10" />
  <line x1="1056" y1="108" x2="1056" y2="136" fill="none" stroke="#000000" stroke-width="1" stroke-miterlimit="10" />
  <line x1="1072" y1="108" x2="1072" y2="136" fill="none" stroke="#000000" stroke-width="1" stroke-miterlimit="10" />
  <line x1="1040" y1="117" x2="1088" y2="117" fill="none" stroke="#000000" stroke-width="1" stroke-miterlimit="10" />
  <line x1="1040" y1="126" x2="1088" y2="126" fill="none" stroke="#000000" stroke-width="1" stroke-miterlimit="10" />
  <text x="1064" y="102.08" text-anchor="middle" font-family="Ubuntu Sans" font-size="12" font-weight="700" fill="#000000">K</text>
  </g>
  <g data-component-id="match">
  <text font-family="Ubuntu Sans">
    <tspan x="24" y="376.92" font-size="18" font-weight="700" fill="#000000">The match (QK^T): the &quot;relevance check&quot;</tspan>
  </text>
  </g>
  <g data-component-id="m_linux">
  <rect x="24" y="512" width="192" height="64" fill="#000000" stroke="#000000" stroke-width="1" stroke-miterlimit="10" />
  <text font-family="Ubuntu Sans">
    <tspan x="32" y="536.92" font-size="18" font-weight="400" fill="#FFFFFF">Linux</tspan>
  </text>
  </g>
  <g data-component-id="m_for">
  <rect x="224" y="512" width="192" height="64" fill="#FFFFFF" stroke="#000000" stroke-width="1" stroke-miterlimit="10" />
  <text font-family="Ubuntu Sans">
    <tspan x="232" y="536.92" font-size="18" font-weight="400" fill="#000000">for</tspan>
  </text>
  </g>
  <g data-component-id="m_human">
  <rect x="424" y="512" width="192" height="64" fill="#F3F3F3" stroke="#000000" stroke-width="1" stroke-miterlimit="10" />
  <text font-family="Ubuntu Sans">
    <tspan x="432" y="536.92" font-size="18" font-weight="400" fill="#000000">human</tspan>
  </text>
  </g>
  <g data-component-id="m_beings">
  <rect x="624" y="512" width="192" height="64" fill="#FFFFFF" stroke="#000000" stroke-width="1" stroke-miterlimit="10" />
  <text font-family="Ubuntu Sans">
    <tspan x="632" y="536.92" font-size="18" font-weight="400" fill="#000000">beings</tspan>
  </text>
  </g>
  <text font-family="Ubuntu Sans">
    <tspan x="24" y="616.92" font-size="18" font-weight="400" fill="#666666">Best semantic match:</tspan>
    <tspan x="24" y="640.92" font-size="18" font-weight="400" fill="#666666">the likely subject</tspan>
    <tspan x="24" y="664.92" font-size="18" font-weight="400" fill="#666666">being defined.</tspan>
  </text>
  <text font-family="Ubuntu Sans">
    <tspan x="224" y="616.92" font-size="18" font-weight="400" fill="#666666">Relevant as context,</tspan>
    <tspan x="224" y="640.92" font-size="18" font-weight="400" fill="#666666">but not the thing</tspan>
    <tspan x="224" y="664.92" font-size="18" font-weight="400" fill="#666666">being defined.</tspan>
  </text>
  <text font-family="Ubuntu Sans">
    <tspan x="424" y="616.92" font-size="18" font-weight="400" fill="#666666">Useful modifier,</tspan>
    <tspan x="424" y="640.92" font-size="18" font-weight="400" fill="#666666">but not stronger than</tspan>
    <tspan x="424" y="664.92" font-size="18" font-weight="400" fill="#666666">the main noun.</tspan>
  </text>
  <text font-family="Ubuntu Sans">
    <tspan x="624" y="616.92" font-size="18" font-weight="400" fill="#666666">Part of the phrase,</tspan>
    <tspan x="624" y="640.92" font-size="18" font-weight="400" fill="#666666">yet less direct than</tspan>
    <tspan x="624" y="664.92" font-size="18" font-weight="400" fill="#666666">the kernel word.</tspan>
  </text>
  <g data-component-id="qk_matrix">
  <rect x="224" y="424" width="48" height="48" fill="#F3F3F3" stroke="#000000" stroke-width="1" stroke-miterlimit="10" />
  <line x1="224" y1="444" x2="272" y2="444" fill="none" stroke="#000000" stroke-width="1" stroke-miterlimit="10" />
  <line x1="240" y1="444" x2="240" y2="472" fill="none" stroke="#000000" stroke-width="1" stroke-miterlimit="10" />
  <line x1="256" y1="444" x2="256" y2="472" fill="none" stroke="#000000" stroke-width="1" stroke-miterlimit="10" />
  <line x1="224" y1="453" x2="272" y2="453" fill="none" stroke="#000000" stroke-width="1" stroke-miterlimit="10" />
  <line x1="224" y1="462" x2="272" y2="462" fill="none" stroke="#000000" stroke-width="1" stroke-miterlimit="10" />
  <text x="248" y="438.08" text-anchor="middle" font-family="Ubuntu Sans" font-size="12" font-weight="700" fill="#000000">QK</text>
  </g>
  <g data-component-id="_auto_11">
  <circle cx="28" cy="826" r="4" fill="#FFFFFF" stroke="#000000" stroke-width="1" stroke-miterlimit="10" />
  <text font-family="Ubuntu Sans">
    <tspan x="40" y="832.92" font-size="18" font-weight="400" fill="#666666">Low</tspan>
  </text>
  <circle cx="128" cy="826" r="4" fill="#F3F3F3" stroke="#000000" stroke-width="1" stroke-miterlimit="10" />
  <text font-family="Ubuntu Sans">
    <tspan x="140" y="832.92" font-size="18" font-weight="400" fill="#666666">Medium</tspan>
  </text>
  <circle cx="228" cy="826" r="4" fill="#000000" stroke="#000000" stroke-width="1" stroke-miterlimit="10" />
  <text font-family="Ubuntu Sans">
    <tspan x="240" y="832.92" font-size="18" font-weight="400" fill="#666666">High</tspan>
  </text>
  </g>
  <g data-component-id="value">
  <text font-family="Ubuntu Sans">
    <tspan x="840" y="376.92" font-size="18" font-weight="700" fill="#000000">The value (V): the &quot;knowledge transfer&quot;</tspan>
  </text>
  </g>
  <g data-component-id="v_ubuntu">
  <rect x="840" y="512" width="192" height="72" fill="#F3F3F3" stroke="#000000" stroke-width="1" stroke-miterlimit="10" />
  <text font-family="Ubuntu Sans">
    <tspan x="848" y="536.92" font-size="18" font-weight="400" fill="#000000">Ubuntu:</tspan>
  </text>
  </g>
  <g data-component-id="v_linux">
  <rect x="1056" y="512" width="192" height="72" fill="#000000" stroke="#000000" stroke-width="1" stroke-miterlimit="10" />
  <text font-family="Ubuntu Sans">
    <tspan x="1064" y="536.92" font-size="18" font-weight="400" fill="#FFFFFF">Linux</tspan>
  </text>
  </g>
  <g data-component-id="value_transfer">
  <rect x="840" y="608" width="408" height="64" fill="#F3F3F3" stroke="#000000" stroke-width="1" stroke-miterlimit="10" />
  <text font-family="Ubuntu Sans">
    <tspan x="848" y="632.92" font-size="18" font-weight="700" fill="#000000">Value transfer (V)</tspan>
  </text>
  </g>
  <text font-family="Ubuntu Sans">
    <tspan x="1272" y="528.92" font-size="18" font-weight="400" fill="#666666">Strongest meaning comes from &quot;Linux&quot;,</tspan>
    <tspan x="1272" y="552.92" font-size="18" font-weight="400" fill="#666666">with extra audience context from</tspan>
    <tspan x="1272" y="576.92" font-size="18" font-weight="400" fill="#666666">&quot;human beings&quot;.</tspan>
  </text>
  <text font-family="Ubuntu Sans">
    <tspan x="840" y="712.92" font-size="18" font-weight="400" fill="#666666">Now that the model knows &quot;Linux&quot; is the most relevant</tspan>
    <tspan x="840" y="736.92" font-size="18" font-weight="400" fill="#666666">word, it takes the value step to transfer the actual</tspan>
    <tspan x="840" y="760.92" font-size="18" font-weight="400" fill="#666666">semantic meaning of &quot;Linux&quot; and &quot;human beings&quot; into</tspan>
    <tspan x="840" y="784.92" font-size="18" font-weight="400" fill="#666666">the representation of &quot;Ubuntu&quot;.</tspan>
  </text>
  <g data-component-id="vq_matrix">
  <rect x="840" y="424" width="48" height="48" fill="#F3F3F3" stroke="#000000" stroke-width="1" stroke-miterlimit="10" />
  <line x1="840" y1="444" x2="888" y2="444" fill="none" stroke="#000000" stroke-width="1" stroke-miterlimit="10" />
  <line x1="856" y1="444" x2="856" y2="472" fill="none" stroke="#000000" stroke-width="1" stroke-miterlimit="10" />
  <line x1="872" y1="444" x2="872" y2="472" fill="none" stroke="#000000" stroke-width="1" stroke-miterlimit="10" />
  <line x1="840" y1="453" x2="888" y2="453" fill="none" stroke="#000000" stroke-width="1" stroke-miterlimit="10" />
  <line x1="840" y1="462" x2="888" y2="462" fill="none" stroke="#000000" stroke-width="1" stroke-miterlimit="10" />
  <text x="864" y="438.08" text-anchor="middle" font-family="Ubuntu Sans" font-size="12" font-weight="700" fill="#000000">Q</text>
  </g>
  <g data-component-id="vk_matrix">
  <rect x="1056" y="424" width="48" height="48" fill="#F3F3F3" stroke="#000000" stroke-width="1" stroke-miterlimit="10" />
  <line x1="1056" y1="444" x2="1104" y2="444" fill="none" stroke="#000000" stroke-width="1" stroke-miterlimit="10" />
  <line x1="1072" y1="444" x2="1072" y2="472" fill="none" stroke="#000000" stroke-width="1" stroke-miterlimit="10" />
  <line x1="1088" y1="444" x2="1088" y2="472" fill="none" stroke="#000000" stroke-width="1" stroke-miterlimit="10" />
  <line x1="1056" y1="453" x2="1104" y2="453" fill="none" stroke="#000000" stroke-width="1" stroke-miterlimit="10" />
  <line x1="1056" y1="462" x2="1104" y2="462" fill="none" stroke="#000000" stroke-width="1" stroke-miterlimit="10" />
  <text x="1080" y="438.08" text-anchor="middle" font-family="Ubuntu Sans" font-size="12" font-weight="700" fill="#000000">K</text>
  </g>
  <g data-component-id="_auto_14">
  <line x1="48" y1="136" x2="48" y2="160" fill="none" stroke="#E95420" stroke-width="1" stroke-miterlimit="10" />
  <line x1="48" y1="160" x2="144" y2="160" fill="none" stroke="#E95420" stroke-width="1" stroke-miterlimit="10" />
  <line x1="144" y1="160" x2="144" y2="165.1592" fill="none" stroke="#E95420" stroke-width="1" stroke-miterlimit="10" />
  <polygon points="141.0947,165.1592 144,176 146.9053,165.1592" fill="#E95420" />
  </g>
  <g data-component-id="_auto_15">
  <line x1="1064" y1="136" x2="1064" y2="160" fill="none" stroke="#E95420" stroke-width="1" stroke-miterlimit="10" />
  <line x1="1064" y1="160" x2="936" y2="160" fill="none" stroke="#E95420" stroke-width="1" stroke-miterlimit="10" />
  <line x1="936" y1="160" x2="936" y2="165.1592" fill="none" stroke="#E95420" stroke-width="1" stroke-miterlimit="10" />
  <polygon points="933.0947,165.1592 936,176 938.9053,165.1592" fill="#E95420" />
  </g>
  <g data-component-id="_auto_16">
  <line x1="1064" y1="136" x2="1064" y2="160" fill="none" stroke="#E95420" stroke-width="1" stroke-miterlimit="10" />
  <line x1="1064" y1="160" x2="1136" y2="160" fill="none" stroke="#E95420" stroke-width="1" stroke-miterlimit="10" />
  <line x1="1136" y1="160" x2="1136" y2="165.1592" fill="none" stroke="#E95420" stroke-width="1" stroke-miterlimit="10" />
  <polygon points="1133.0947,165.1592 1136,176 1138.9053,165.1592" fill="#E95420" />
  </g>
  <g data-component-id="_auto_17">
  <line x1="1064" y1="136" x2="1064" y2="160" fill="none" stroke="#E95420" stroke-width="1" stroke-miterlimit="10" />
  <line x1="1064" y1="160" x2="1336" y2="160" fill="none" stroke="#E95420" stroke-width="1" stroke-miterlimit="10" />
  <line x1="1336" y1="160" x2="1336" y2="165.1592" fill="none" stroke="#E95420" stroke-width="1" stroke-miterlimit="10" />
  <polygon points="1333.0947,165.1592 1336,176 1338.9053,165.1592" fill="#E95420" />
  </g>
  <g data-component-id="_auto_18">
  <line x1="1064" y1="136" x2="1064" y2="160" fill="none" stroke="#E95420" stroke-width="1" stroke-miterlimit="10" />
  <line x1="1064" y1="160" x2="1536" y2="160" fill="none" stroke="#E95420" stroke-width="1" stroke-miterlimit="10" />
  <line x1="1536" y1="160" x2="1536" y2="165.1592" fill="none" stroke="#E95420" stroke-width="1" stroke-miterlimit="10" />
  <polygon points="1533.0947,165.1592 1536,176 1538.9053,165.1592" fill="#E95420" />
  </g>
  <g data-component-id="_auto_19">
  <line x1="248" y1="472" x2="248" y2="496" fill="none" stroke="#E95420" stroke-width="1" stroke-miterlimit="10" />
  <line x1="248" y1="496" x2="120" y2="496" fill="none" stroke="#E95420" stroke-width="1" stroke-miterlimit="10" />
  <line x1="120" y1="496" x2="120" y2="501.1592" fill="none" stroke="#E95420" stroke-width="1" stroke-miterlimit="10" />
  <polygon points="117.0947,501.1592 120,512 122.9053,501.1592" fill="#E95420" />
  </g>
  <g data-component-id="_auto_20">
  <line x1="248" y1="472" x2="248" y2="496" fill="none" stroke="#E95420" stroke-width="1" stroke-miterlimit="10" />
  <line x1="248" y1="496" x2="320" y2="496" fill="none" stroke="#E95420" stroke-width="1" stroke-miterlimit="10" />
  <line x1="320" y1="496" x2="320" y2="501.1592" fill="none" stroke="#E95420" stroke-width="1" stroke-miterlimit="10" />
  <polygon points="317.0947,501.1592 320,512 322.9053,501.1592" fill="#E95420" />
  </g>
  <g data-component-id="_auto_21">
  <line x1="248" y1="472" x2="248" y2="496" fill="none" stroke="#E95420" stroke-width="1" stroke-miterlimit="10" />
  <line x1="248" y1="496" x2="520" y2="496" fill="none" stroke="#E95420" stroke-width="1" stroke-miterlimit="10" />
  <line x1="520" y1="496" x2="520" y2="501.1592" fill="none" stroke="#E95420" stroke-width="1" stroke-miterlimit="10" />
  <polygon points="517.0947,501.1592 520,512 522.9053,501.1592" fill="#E95420" />
  </g>
  <g data-component-id="_auto_22">
  <line x1="248" y1="472" x2="248" y2="496" fill="none" stroke="#E95420" stroke-width="1" stroke-miterlimit="10" />
  <line x1="248" y1="496" x2="720" y2="496" fill="none" stroke="#E95420" stroke-width="1" stroke-miterlimit="10" />
  <line x1="720" y1="496" x2="720" y2="501.1592" fill="none" stroke="#E95420" stroke-width="1" stroke-miterlimit="10" />
  <polygon points="717.0947,501.1592 720,512 722.9053,501.1592" fill="#E95420" />
  </g>
  <g data-component-id="_auto_23">
  <line x1="864" y1="472" x2="864" y2="496" fill="none" stroke="#E95420" stroke-width="1" stroke-miterlimit="10" />
  <line x1="864" y1="496" x2="936" y2="496" fill="none" stroke="#E95420" stroke-width="1" stroke-miterlimit="10" />
  <line x1="936" y1="496" x2="936" y2="501.1592" fill="none" stroke="#E95420" stroke-width="1" stroke-miterlimit="10" />
  <polygon points="933.0947,501.1592 936,512 938.9053,501.1592" fill="#E95420" />
  </g>
  <g data-component-id="_auto_24">
  <line x1="1080" y1="472" x2="1080" y2="496" fill="none" stroke="#E95420" stroke-width="1" stroke-miterlimit="10" />
  <line x1="1080" y1="496" x2="1152" y2="496" fill="none" stroke="#E95420" stroke-width="1" stroke-miterlimit="10" />
  <line x1="1152" y1="496" x2="1152" y2="501.1592" fill="none" stroke="#E95420" stroke-width="1" stroke-miterlimit="10" />
  <polygon points="1149.0947,501.1592 1152,512 1154.9053,501.1592" fill="#E95420" />
  </g>
  <g data-component-id="_auto_25">
  <line x1="1032" y1="548" x2="1045.1592" y2="548" fill="none" stroke="#E95420" stroke-width="1" stroke-miterlimit="10" />
  <polygon points="1045.1592,545.0947 1056,548 1045.1592,550.9053" fill="#E95420" />
  </g>
  <g data-component-id="_auto_26">
  <line x1="1152" y1="584" x2="1152" y2="592" fill="none" stroke="#E95420" stroke-width="1" stroke-miterlimit="10" />
  <line x1="1152" y1="592" x2="1044" y2="592" fill="none" stroke="#E95420" stroke-width="1" stroke-miterlimit="10" />
  <line x1="1044" y1="592" x2="1044" y2="597.1592" fill="none" stroke="#E95420" stroke-width="1" stroke-miterlimit="10" />
  <polygon points="1041.0947,597.1592 1044,608 1046.9053,597.1592" fill="#E95420" />
  </g>
  <g id="layout-grid" opacity="0.35" style="pointer-events:none">
    <rect x="24" y="24" width="1608" height="816" fill="none" stroke="#0066CC" stroke-width="1" stroke-dasharray="6 4" />
    <rect x="24" y="24" width="792" height="816" fill="#3399FF" opacity="0.08" />
    <line x1="24" y1="24" x2="24" y2="840" stroke="#0066CC" stroke-width="0.75" />
    <line x1="816" y1="24" x2="816" y2="840" stroke="#0066CC" stroke-width="0.75" />
    <text x="420.0" y="20" text-anchor="middle" font-size="9" fill="#0066CC" font-family="Ubuntu Sans, sans-serif">792px</text>
    <rect x="840" y="24" width="792" height="816" fill="#3399FF" opacity="0.08" />
    <line x1="840" y1="24" x2="840" y2="840" stroke="#0066CC" stroke-width="0.75" />
    <line x1="1632" y1="24" x2="1632" y2="840" stroke="#0066CC" stroke-width="0.75" />
    <text x="1236.0" y="20" text-anchor="middle" font-size="9" fill="#0066CC" font-family="Ubuntu Sans, sans-serif">792px</text>
    <rect x="816" y="24" width="24" height="816" fill="#9933FF" opacity="0.06" />
    <text x="828.0" y="20" text-anchor="middle" font-size="7" fill="#9933FF" font-family="Ubuntu Sans, sans-serif">24</text>
    <rect x="24" y="24" width="1608" height="312" fill="#3399FF" opacity="0.08" />
    <line x1="24" y1="24" x2="1632" y2="24" stroke="#0066CC" stroke-width="0.75" />
    <line x1="24" y1="336" x2="1632" y2="336" stroke="#0066CC" stroke-width="0.75" />
    <text x="1636" y="183.0" font-size="9" fill="#0066CC" font-family="Ubuntu Sans, sans-serif">312px</text>
    <rect x="24" y="360" width="1608" height="432" fill="#3399FF" opacity="0.08" />
    <line x1="24" y1="360" x2="1632" y2="360" stroke="#0066CC" stroke-width="0.75" />
    <line x1="24" y1="792" x2="1632" y2="792" stroke="#0066CC" stroke-width="0.75" />
    <text x="1636" y="579.0" font-size="9" fill="#0066CC" font-family="Ubuntu Sans, sans-serif">432px</text>
    <rect x="24" y="816" width="1608" height="64" fill="#3399FF" opacity="0.08" />
    <line x1="24" y1="816" x2="1632" y2="816" stroke="#0066CC" stroke-width="0.75" />
    <line x1="24" y1="880" x2="1632" y2="880" stroke="#0066CC" stroke-width="0.75" />
    <text x="1636" y="851.0" font-size="9" fill="#0066CC" font-family="Ubuntu Sans, sans-serif">64px</text>
    <rect x="24" y="336" width="1608" height="24" fill="#9933FF" opacity="0.06" />
    <text x="1636" y="351.0" font-size="7" fill="#9933FF" font-family="Ubuntu Sans, sans-serif">24</text>
    <rect x="24" y="792" width="1608" height="24" fill="#9933FF" opacity="0.06" />
    <text x="1636" y="807.0" font-size="7" fill="#9933FF" font-family="Ubuntu Sans, sans-serif">24</text>
  </g>
</svg>
