<svg xmlns="http://www.w3.org/2000/svg" width="752" height="632" viewBox="0 0 752 632" xml:space="preserve">
  <rect width="752" height="632" fill="#FFFFFF" />
  <line x1="376" y1="200" x2="376" y2="213.1592" fill="none" stroke="#E95420" stroke-width="1" stroke-miterlimit="10" />
  <polygon points="373.0947,213.1592 376,224 378.9053,213.1592" fill="#E95420" />
  <line x1="376" y1="296" x2="376" y2="309.1592" fill="none" stroke="#E95420" stroke-width="1" stroke-miterlimit="10" />
  <polygon points="373.0947,309.1592 376,320 378.9053,309.1592" fill="#E95420" />
  <line x1="376" y1="384" x2="376" y2="397.1592" fill="none" stroke="#E95420" stroke-width="1" stroke-miterlimit="10" />
  <polygon points="373.0947,397.1592 376,408 378.9053,397.1592" fill="#E95420" />
  <line x1="376" y1="480" x2="376" y2="493.1592" fill="none" stroke="#E95420" stroke-width="1" stroke-miterlimit="10" />
  <polygon points="373.0947,493.1592 376,504 378.9053,493.1592" fill="#E95420" />
  <rect x="72" y="24" width="608" height="176" fill="none" stroke="#000000" stroke-width="1" stroke-miterlimit="10" stroke-dasharray="8 8" />
  <text font-family="Ubuntu Sans">
    <tspan x="80" y="47.04" font-size="16" font-weight="700" fill="#000000" font-family="Ubuntu Sans">Rough initial diagram sources</tspan>
  </text>
  <rect x="80" y="72" width="192" height="64" fill="#FFFFFF" stroke="#000000" stroke-width="1" stroke-miterlimit="10" />
  <text font-family="Ubuntu Sans">
    <tspan x="88" y="95.04" font-size="16" font-weight="400" fill="#000000" font-family="Ubuntu Sans">ChatGPT-generated</tspan>
    <tspan x="88" y="113.04" font-size="16" font-weight="400" fill="#000000" font-family="Ubuntu Sans">diagrams</tspan>
  </text>
  <g transform="translate(216 80)">
    <path fill-rule="evenodd" clip-rule="evenodd" d="M30.1585 29.5527C31.5389 29.553 32.6585 30.6722 32.6585 32.0527C32.6584 33.4332 31.5389 34.5525 30.1585 34.5527C28.7778 34.5527 27.6585 33.4334 27.6585 32.0527C27.6585 30.672 28.7778 29.5527 30.1585 29.5527ZM30.1585 30.5527C29.33 30.5527 28.6585 31.2243 28.6585 32.0527C28.6585 32.8811 29.3301 33.5527 30.1585 33.5527C30.9866 33.5525 31.6584 32.8809 31.6585 32.0527C31.6585 31.2245 30.9867 30.553 30.1585 30.5527Z" fill="#000000" />
    <path fill-rule="evenodd" clip-rule="evenodd" d="M16.8948 20.0791C18.2755 20.0791 19.3948 21.1984 19.3948 22.5791C19.3947 23.9597 18.2755 25.0791 16.8948 25.0791C15.5141 25.0791 14.3949 23.9597 14.3948 22.5791C14.3948 21.1984 15.5141 20.0791 16.8948 20.0791ZM16.8948 21.0791C16.0664 21.0791 15.3948 21.7507 15.3948 22.5791C15.3949 23.4075 16.0664 24.0791 16.8948 24.0791C17.7232 24.0791 18.3947 23.4075 18.3948 22.5791C18.3948 21.7507 17.7232 21.0791 16.8948 21.0791Z" fill="#000000" />
    <path fill-rule="evenodd" clip-rule="evenodd" d="M32.5003 13.9209C33.8807 13.9212 35.0002 15.0404 35.0003 16.4209C35.0003 17.8014 33.8807 18.9206 32.5003 18.9209C31.1195 18.9209 30.0003 17.8016 30.0003 16.4209C30.0003 15.0403 31.1196 13.9209 32.5003 13.9209ZM32.5003 14.9209C31.6719 14.9209 31.0003 15.5925 31.0003 16.4209C31.0003 17.2493 31.6718 17.9209 32.5003 17.9209C33.3285 17.9206 34.0003 17.2492 34.0003 16.4209C34.0002 15.5927 33.3284 14.9212 32.5003 14.9209Z" fill="#000000" />
    <path fill-rule="evenodd" clip-rule="evenodd" d="M26.617 5.5479C27.6617 5.42222 28.7243 5.54512 29.7069 5.90533C30.6895 6.26564 31.5634 6.8528 32.2459 7.61626C32.9287 8.38004 33.3986 9.29556 33.6082 10.2793L33.8397 11.3663L34.4852 11.4874C36.0585 11.7832 37.4803 12.5822 38.5057 13.7549C39.5317 14.9284 40.0967 16.404 40.0975 17.9317V18.377C40.0975 19.9138 39.4955 21.3138 38.5106 22.3848C39.7662 23.1025 40.8039 24.1249 41.5076 25.3545C42.327 26.7862 42.6515 28.4253 42.4334 30.042C42.2153 31.6583 41.4665 33.1662 40.2967 34.3575C39.2032 35.471 37.7926 36.2564 36.241 36.626L36.2186 36.7276C35.9528 37.9731 35.3423 39.1277 34.452 40.0752C33.5619 41.0225 32.4232 41.7295 31.1541 42.129C29.8853 42.5282 28.5272 42.6066 27.2166 42.3565C26.4088 42.2023 25.6354 41.9266 24.9256 41.542C24.5309 41.3281 24.2258 41.0269 23.9998 40.6788C23.7739 41.0268 23.4688 41.3281 23.074 41.542C22.3643 41.9266 21.5909 42.2023 20.783 42.3565C19.4725 42.6066 18.1144 42.5283 16.8455 42.129C15.5765 41.7295 14.4378 41.0225 13.5477 40.0752C12.6574 39.1277 12.0468 37.9731 11.7811 36.7276L11.7586 36.626C10.2071 36.2564 8.79642 35.471 7.70296 34.3575C6.53321 33.1662 5.78436 31.6583 5.56624 30.042C5.34813 28.4253 5.6727 26.7862 6.49202 25.3545C7.19578 24.1249 8.23347 23.1025 9.48909 22.3848C8.50421 21.3138 7.90218 19.9138 7.90217 18.377V17.9317C7.90295 16.404 8.46797 14.9284 9.49397 13.7549C10.5194 12.5822 11.9412 11.7833 13.5145 11.4874L14.16 11.3663L14.3914 10.2793C14.601 9.29561 15.071 8.38002 15.7537 7.61626C16.4363 6.85281 17.3102 6.26566 18.2928 5.90533C19.2753 5.5451 20.3379 5.42225 21.3826 5.5479C21.8497 5.60413 22.3076 5.7094 22.7469 5.8604C23.3008 6.05083 23.7136 6.41256 23.9998 6.85552C24.2861 6.41253 24.6989 6.05087 25.2528 5.8604C25.6921 5.70939 26.15 5.60414 26.617 5.5479ZM21.2635 6.54107C20.3742 6.43406 19.4709 6.5383 18.6375 6.8438C17.8042 7.14935 17.0688 7.64567 16.4989 8.28325C15.9293 8.92057 15.5422 9.67948 15.3699 10.4883L15.0828 11.8379C15.0553 12.4842 15.0659 13.1757 15.3114 13.753C15.5406 14.292 15.9949 14.7783 16.9959 14.9834L16.7948 15.9639C16.7801 15.9609 16.7653 15.9563 16.7508 15.9532L16.7489 15.9639C15.4388 15.6954 14.7084 14.9971 14.3455 14.1436C14.1022 13.5711 14.0363 12.9524 14.0282 12.4073L13.699 12.4708C12.3377 12.7268 11.1191 13.4157 10.2469 14.4131C9.37536 15.41 8.90282 16.6541 8.90217 17.9327V18.377C8.90219 19.8531 9.57346 21.1905 10.661 22.1319C10.7892 22.2429 10.8525 22.4121 10.8289 22.5801C10.8053 22.748 10.6975 22.8925 10.5438 22.9639C9.18317 23.5961 8.07223 24.6075 7.36018 25.8516C6.64846 27.0953 6.36822 28.5129 6.55647 29.9083C6.74478 31.3039 7.39339 32.615 8.41682 33.6573C9.30461 34.5613 10.4374 35.2226 11.6932 35.5752C11.7394 34.7923 11.8994 33.931 12.3123 33.1641C12.8574 32.1522 13.8191 31.3481 15.3914 31.086L15.4744 31.5792L15.5565 32.0723C14.2871 32.2839 13.5908 32.9006 13.1932 33.6387C12.7915 34.3846 12.6752 35.2952 12.6776 36.1368L12.7586 36.5186C12.9852 37.5807 13.5083 38.5724 14.2772 39.3907C15.0462 40.209 16.0351 40.8254 17.1453 41.1749C18.2559 41.5244 19.4466 41.5933 20.5955 41.3741C21.3033 41.239 21.9789 40.9973 22.5975 40.6622C23.1742 40.3496 23.4998 39.6749 23.4998 38.9083V31.1309H19.8944C17.9616 31.1307 16.3944 29.5638 16.3944 27.6309V26.3682H17.3944V27.6309C17.3944 29.0115 18.5138 30.1307 19.8944 30.1309H23.4998V8.627C23.4997 7.76453 23.0902 7.03536 22.4227 6.80572C22.0501 6.67761 21.6609 6.5889 21.2635 6.54107ZM29.3621 6.8438C28.5288 6.53832 27.6254 6.43403 26.7362 6.54107C26.3388 6.58891 25.9496 6.6776 25.577 6.80572C24.9096 7.03542 24.4999 7.7646 24.4998 8.627V15.9209H28.4998V16.9209H24.4998V38.9083C24.4998 39.6748 24.8256 40.3496 25.4022 40.6622C26.0207 40.9973 26.6964 41.2389 27.4041 41.3741C28.553 41.5934 29.7437 41.5244 30.8543 41.1749C31.9646 40.8254 32.9534 40.209 33.7225 39.3907C34.4914 38.5724 35.0144 37.5807 35.241 36.5186L35.3289 36.1026C35.3655 35.9316 35.4888 35.7941 35.6502 35.7364L35.7215 35.7168L35.9989 35.6563C37.3774 35.3299 38.623 34.6346 39.5828 33.6573C40.6063 32.615 41.2549 31.3039 41.4432 29.9083C41.6314 28.5128 41.3512 27.0953 40.6395 25.8516C39.9691 24.6803 38.9452 23.7157 37.6922 23.0792H33.158C31.7773 23.0792 30.658 24.1984 30.658 25.5792V28.2637H29.658V25.5792C29.658 23.6462 31.225 22.0792 33.158 22.0792H37.3973C38.45 21.1409 39.0975 19.8262 39.0975 18.377V17.9327C39.0968 16.654 38.6244 15.41 37.7528 14.4131C36.8806 13.4157 35.662 12.7268 34.3006 12.4708L33.327 12.2881C33.1285 12.251 32.9715 12.098 32.9295 11.9004L32.6297 10.4883C32.4574 9.67944 32.0704 8.9206 31.5008 8.28325C30.9308 7.64566 30.1955 7.14934 29.3621 6.8438Z" fill="#000000" />
  </g>
  <rect x="280" y="72" width="392" height="72" fill="#F3F3F3" stroke="#000000" stroke-width="1" stroke-miterlimit="10" />
  <text font-family="Ubuntu Sans">
    <tspan x="288" y="95.04" font-size="16" font-weight="400" fill="#000000" font-family="Ubuntu Sans">? Additional rough</tspan>
    <tspan x="288" y="113.04" font-size="16" font-weight="400" fill="#000000" font-family="Ubuntu Sans">source formats</tspan>
    <tspan x="288" y="131.04" font-size="16" font-weight="400" fill="#000000" font-family="Ubuntu Sans">from PMs</tspan>
  </text>
  <text font-family="Ubuntu Sans">
    <tspan x="80" y="175.04" font-size="16" font-weight="400" fill="#666666" font-family="Ubuntu Sans">Ask PMs: which rough formats reach the brand team before on-brand redraw?</tspan>
  </text>
  <rect x="72" y="224" width="608" height="72" fill="#FFFFFF" stroke="#000000" stroke-width="1" stroke-miterlimit="10" />
  <text font-family="Ubuntu Sans">
    <tspan x="80" y="247.04" font-size="16" font-weight="700" fill="#000000" font-family="Ubuntu Sans">Agentic workflow</tspan>
    <tspan x="80" y="265.04" font-size="16" font-weight="400" fill="#000000" font-family="Ubuntu Sans">in this repo</tspan>
    <tspan x="80" y="283.04" font-size="16" font-weight="400" fill="#666666" font-family="Ubuntu Sans">playbook + generators</tspan>
  </text>
  <g transform="translate(624 232)">
    <path d="M42 17.4746H6V16.5254H42V17.4746Z" fill="#000000" />
    <path d="M42 13.5H18V12.5H42V13.5Z" fill="#000000" />
    <path fill-rule="evenodd" clip-rule="evenodd" d="M44.6006 9.00977C44.8286 9.05629 45 9.25829 45 9.5V38.5C45 38.7417 44.8286 38.9437 44.6006 38.9902L44.5 39H3.5C3.25829 39 3.05629 38.8286 3.00977 38.6006L3 38.5V9.5C3 9.22386 3.22386 9 3.5 9H44.5L44.6006 9.00977ZM4 38H44V10H4V38Z" fill="#000000" />
    <path d="M7.75 12C8.30228 12 8.75 12.4477 8.75 13C8.75 13.5523 8.30228 14 7.75 14C7.19772 14 6.75 13.5523 6.75 13C6.75 12.4477 7.19772 12 7.75 12Z" fill="#000000" />
    <path d="M12.25 12C12.8023 12 13.25 12.4477 13.25 13C13.25 13.5523 12.8023 14 12.25 14C11.6977 14 11.25 13.5523 11.25 13C11.25 12.4477 11.6977 12 12.25 12Z" fill="#000000" />
    <path d="M26.7246 20.1582L22.2246 33.6582L21.2754 33.3418L25.7754 19.8418L26.7246 20.1582Z" fill="#000000" />
    <path d="M18.3203 23.3838L14.2803 26.75L18.3203 30.1162L17.6797 30.8838L12.7188 26.75L17.6797 22.6162L18.3203 23.3838Z" fill="#000000" />
    <path d="M35.2812 26.75L30.3203 30.8838L29.6797 30.1162L33.7197 26.75L29.6797 23.3838L30.3203 22.6162L35.2812 26.75Z" fill="#000000" />
  </g>
  <rect x="72" y="320" width="608" height="64" fill="#F3F3F3" stroke="#000000" stroke-width="1" stroke-miterlimit="10" />
  <text font-family="Ubuntu Sans">
    <tspan x="80" y="343.04" font-size="16" font-weight="700" fill="#000000" font-family="Ubuntu Sans">Compare mode</tspan>
    <tspan x="80" y="361.04" font-size="16" font-weight="400" fill="#666666" font-family="Ubuntu Sans">HTML before / agent / refined</tspan>
  </text>
  <g transform="translate(624 328)">
    <path fill-rule="evenodd" clip-rule="evenodd" d="M27.0049 4.00977C27.1035 4.03002 27.1949 4.08045 27.2656 4.1543L36.8613 14.1689C36.9504 14.262 37 14.3859 37 14.5146V34.3486L36.0664 33.457C36.0448 33.4364 36.022 33.4174 36 33.3975V15.5H27C26.4477 15.5 26 15.0523 26 14.5V5H10V42H34.458L35.5049 43H9.5C9.22386 43 9 42.7761 9 42.5V4.5C9 4.25829 9.17145 4.05629 9.39941 4.00977L9.5 4H26.9043L27.0049 4.00977ZM27 14.5H35.7939L27 5.32227V14.5Z" fill="#000000" />
    <path fill-rule="evenodd" clip-rule="evenodd" d="M23.5068 18C28.205 18 32.0137 21.8087 32.0137 26.5068C32.0137 28.5107 31.3185 30.351 30.1592 31.8047L32.7568 34.4023C33.4346 33.8957 34.3982 33.9369 35.0303 34.541L40.082 39.3691C40.7863 40.0423 40.8117 41.1589 40.1387 41.8633L39.6143 42.4121L39.4824 42.5361C38.8025 43.1169 37.7795 43.0999 37.1191 42.4688L32.0674 37.6406C31.407 37.0095 31.3431 35.9878 31.8926 35.2822L32.0107 35.1455L32.0469 35.1064L29.4912 32.5508C27.9542 34.0727 25.8408 35.0137 23.5068 35.0137C18.8087 35.0137 15 31.205 15 26.5068C15 21.8087 18.8087 18 23.5068 18ZM34.3389 35.2637C34.0339 34.9722 33.5504 34.9824 33.2588 35.2871L32.7334 35.8369C32.4421 36.142 32.4528 36.6265 32.7578 36.918L37.8105 41.7461C38.1157 42.0375 38.6001 42.0267 38.8916 41.7217L39.416 41.1719C39.7073 40.8668 39.6957 40.3833 39.3906 40.0918L34.3389 35.2637ZM23.5068 19C19.3609 19 16 22.361 16 26.5068C16 30.6527 19.361 34.0137 23.5068 34.0137C27.6527 34.0136 31.0136 30.6527 31.0137 26.5068C31.0137 22.361 27.6527 19 23.5068 19Z" fill="#000000" />
    <path d="M23.4639 29.1426C23.7044 29.1426 23.9305 29.2135 24.0986 29.4023C24.2476 29.57 24.3241 29.7653 24.3242 30.0029C24.3242 30.2407 24.2476 30.4358 24.0986 30.6035C23.9305 30.7927 23.7045 30.8642 23.4639 30.8643C23.2232 30.8642 22.9972 30.7926 22.8291 30.6035C22.6801 30.4358 22.6025 30.2407 22.6025 30.0029C22.6026 29.7653 22.6801 29.57 22.8291 29.4023C22.9972 29.2135 23.2234 29.1426 23.4639 29.1426Z" fill="#000000" />
    <path d="M23.6133 21.7871C24.0283 21.7871 24.385 21.8447 24.6768 21.9521C24.9617 22.0572 25.2159 22.2121 25.3984 22.4111C25.5574 22.5846 25.7056 22.7919 25.7764 23.0439C25.853 23.2741 25.8847 23.4909 25.8848 23.7061C25.8848 24.0125 25.8229 24.2796 25.7119 24.5176C25.6073 24.7417 25.4737 24.9508 25.3105 25.1436C25.1646 25.3161 25.0066 25.5008 24.8203 25.6738C24.6563 25.8378 24.5017 25.9941 24.3604 26.1611C24.2211 26.3257 24.1125 26.4839 24.0293 26.6621C23.9487 26.835 23.9034 27.0162 23.9033 27.2207V27.7695H22.8789L22.8389 27.5684C22.824 27.4939 22.8066 27.394 22.8066 27.2754V27.0176C22.8067 26.7484 22.8513 26.4763 22.9688 26.2412C23.0674 26.044 23.1839 25.8395 23.3184 25.6602C23.4507 25.4837 23.6102 25.309 23.7832 25.1504C23.9348 25.0114 24.0562 24.8645 24.2012 24.7051C24.3158 24.579 24.4104 24.4268 24.4824 24.2588L24.4854 24.2529L24.5312 24.1387C24.5726 24.0201 24.5977 23.8898 24.5977 23.7471C24.5976 23.5755 24.5633 23.438 24.5156 23.3428C24.4715 23.2549 24.3965 23.1765 24.3018 23.1133C24.2105 23.0525 24.1077 23.0108 23.9785 22.9893C23.8298 22.9645 23.6804 22.9521 23.5176 22.9521H23.2578C22.9106 22.9847 22.5882 23.0791 22.3086 23.2334L22.0479 23.377L21.9512 23.0947L21.6846 22.3115L21.8506 22.2061C22.0337 22.0896 22.2968 22.0002 22.5811 21.9189C22.8924 21.83 23.2422 21.7871 23.6133 21.7871Z" fill="#000000" />
  </g>
  <rect x="72" y="408" width="608" height="72" fill="#FFFFFF" stroke="#000000" stroke-width="1" stroke-miterlimit="10" />
  <text font-family="Ubuntu Sans">
    <tspan x="80" y="431.04" font-size="16" font-weight="700" fill="#000000" font-family="Ubuntu Sans">Designer polish</tspan>
    <tspan x="80" y="449.04" font-size="16" font-weight="400" fill="#000000" font-family="Ubuntu Sans">manual pass in generated</tspan>
    <tspan x="80" y="467.04" font-size="16" font-weight="400" fill="#666666" font-family="Ubuntu Sans">draw.io</tspan>
  </text>
  <g transform="translate(624 416)">
    <path d="M31.833 6.25C35.2388 6.25 38 9.01124 38 12.417V12.5127H37V12.417C37 9.56352 34.6865 7.25 31.833 7.25C28.9797 7.25018 26.667 9.56363 26.667 12.417V35.25C26.667 38.8397 23.7567 41.7498 20.167 41.75H19.5C15.9101 41.75 13 38.8399 13 35.25V32.4609H14V35.25C14 38.2876 16.4624 40.75 19.5 40.75H20.167C23.2044 40.7498 25.667 38.2875 25.667 35.25V12.417C25.667 9.01134 28.4274 6.25018 31.833 6.25Z" fill="#000000" />
    <path d="M14 25.5H13V21H14V25.5Z" fill="#000000" />
    <path fill-rule="evenodd" clip-rule="evenodd" d="M13.5 6C17.6421 6 21 9.35786 21 13.5V22.5C21 26.6421 17.6421 30 13.5 30C9.35786 30 6 26.6421 6 22.5V13.5C6 9.35786 9.35786 6 13.5 6ZM13.5 7C9.91015 7 7 9.91015 7 13.5V22.5C7 26.0899 9.91015 29 13.5 29C17.0899 29 20 26.0899 20 22.5V13.5C20 9.91015 17.0899 7 13.5 7Z" fill="#000000" />
    <path fill-rule="evenodd" clip-rule="evenodd" d="M40.5 21V40C40.5 41.1046 39.6046 42 38.5 42H36.5C35.4644 42 34.613 41.2128 34.5107 40.2041L34.5 40V21L37.5 15L40.5 21ZM35.5 38.5V40C35.5 40.5523 35.9477 41 36.5 41H38.5C39.0523 41 39.5 40.5523 39.5 40V38.5H35.5ZM35.5 37.5H39.5V21.5H35.5V37.5ZM35.8682 20.5H39.1318L37.5 17.2363L35.8682 20.5Z" fill="#000000" />
  </g>
  <rect x="72" y="504" width="608" height="64" fill="#000000" stroke="#000000" stroke-width="1" stroke-miterlimit="10" />
  <text font-family="Ubuntu Sans">
    <tspan x="80" y="527.04" font-size="16" font-weight="700" fill="#FFFFFF" font-family="Ubuntu Sans">Final SVGs</tspan>
    <tspan x="80" y="545.04" font-size="16" font-weight="400" fill="#FFFFFF" font-family="Ubuntu Sans">on-brand deliverables</tspan>
  </text>
  <g transform="translate(624 512)">
    <path fill-rule="evenodd" clip-rule="evenodd" d="M38.2432 19.3125C38.4017 19.4007 38.4999 19.5686 38.5 19.75C38.4999 19.9313 38.4015 20.0983 38.2432 20.1865L31.6045 23.874L38.2432 27.5625C38.4017 27.6507 38.4999 27.8186 38.5 28C38.4999 28.1813 38.4015 28.3483 38.2432 28.4365L31.6045 32.124L38.2432 35.8125C38.4017 35.9007 38.4999 36.0686 38.5 36.25C38.4999 36.4313 38.4015 36.5983 38.2432 36.6865L24.7432 44.1865C24.5922 44.2704 24.4078 44.2704 24.2568 44.1865L10.7568 36.6865C10.5985 36.5983 10.5001 36.4313 10.5 36.25C10.5001 36.0686 10.5983 35.9007 10.7568 35.8125L17.3955 32.124L10.7568 28.4365C10.5985 28.3483 10.5001 28.1813 10.5 28C10.5001 27.8186 10.5983 27.6507 10.7568 27.5625L17.3945 23.874L10.7568 20.1865C10.5985 20.0983 10.5001 19.9313 10.5 19.75C10.5001 19.5686 10.5983 19.4007 10.7568 19.3125L15.8496 16.4824L16.8799 17.0547L12.0293 19.749L24.5 26.6768L36.9697 19.749L32.1191 17.0547L33.1494 16.4824L38.2432 19.3125ZM24.7432 35.9365C24.5922 36.0204 24.4078 36.0204 24.2568 35.9365L18.4248 32.6963L12.0293 36.249L24.5 43.1768L36.9697 36.249L30.5742 32.6963L24.7432 35.9365ZM24.7432 27.6865C24.5922 27.7704 24.4078 27.7704 24.2568 27.6865L18.4248 24.4463L12.0293 27.999L24.5 34.9268L36.9697 27.999L30.5742 24.4463L24.7432 27.6865Z" fill="#FFFFFF" />
    <path fill-rule="evenodd" clip-rule="evenodd" d="M24.3154 3.53511C24.4537 3.48023 24.6112 3.48916 24.7432 3.56246L38.2432 11.0625C38.4018 11.1506 38.4999 11.3185 38.5 11.5C38.5 11.6815 38.4018 11.8492 38.2432 11.9375L24.7432 19.4375C24.5922 19.5214 24.4078 19.5214 24.2568 19.4375L10.7568 11.9375C10.5982 11.8492 10.5 11.6815 10.5 11.5C10.5001 11.3185 10.5982 11.1506 10.7568 11.0625L24.2568 3.56246L24.3154 3.53511ZM12.0303 11.5L24.5 18.4267L36.9688 11.5L24.5 4.57222L12.0303 11.5Z" fill="#FFFFFF" />
  </g>
</svg>