<svg xmlns="http://www.w3.org/2000/svg" width="656" height="728" viewBox="0 0 656 728" xml:space="preserve">
  <rect width="656" height="728" fill="#FFFFFF" />
  <g data-component-id="inputs">
  <rect x="24" y="24" width="608" height="128" fill="#FFFFFF" stroke="#000000" stroke-width="1" stroke-miterlimit="10" stroke-dasharray="8 8" />
  <text font-family="Ubuntu Sans">
    <tspan x="32" y="48.92" font-size="18" font-weight="700" fill="#000000">Inputs and canonical context</tspan>
  </text>
  </g>
  <g data-component-id="_auto_inputs_1">
  <rect x="32" y="80" width="192" height="64" fill="#FFFFFF" stroke="#000000" stroke-width="1" stroke-miterlimit="10" />
  <text font-family="Ubuntu Sans">
    <tspan x="40" y="104.92" font-size="18" font-weight="400" fill="#000000">Rough source</tspan>
    <tspan x="40" y="128.92" font-size="18" font-weight="400" fill="#000000">diagram</tspan>
  </text>
  <g class="dg-icon" transform="translate(168 88)">
<path d="M24.8232 33.0488H16.5879V31.9512H24.8232V33.0488Z" fill="#000000" />

<path d="M31.4111 28.1074H16.5879V27.0098H31.4111V28.1074Z" fill="#000000" />

<path d="M31.4111 23.166H16.5879V22.0684H31.4111V23.166Z" fill="#000000" />

<path fill-rule="evenodd" clip-rule="evenodd" d="M27.8809 4.5C28.0318 4.5 28.1766 4.56217 28.2803 4.67188L37.8496 14.7949C37.9459 14.8968 37.9999 15.0317 38 15.1719V42.9512L37.9893 43.0615C37.9454 43.2761 37.7761 43.4454 37.5615 43.4893L37.4512 43.5H10.5488C10.2835 43.4999 10.0619 43.3117 10.0107 43.0615L10 42.9512V5.04883C10.0001 4.74576 10.2458 4.5001 10.5488 4.5H27.8809ZM11.0977 42.4023H36.9023V16.0293H28.1172C27.511 16.029 27.0195 15.5369 27.0195 14.9307V5.59766H11.0977V42.4023ZM28.1172 14.9307H36.4668L28.1172 6.09766V14.9307Z" fill="#000000" />

  </g>
  </g>
  <g data-component-id="_auto_inputs_2">
  <rect x="232" y="80" width="192" height="64" fill="#F3F3F3" stroke="#000000" stroke-width="1" stroke-miterlimit="10" />
  <text font-family="Ubuntu Sans">
    <tspan x="240" y="104.92" font-size="18" font-weight="400" fill="#000000">Local refs</tspan>
    <tspan x="240" y="128.92" font-size="18" font-weight="400" fill="#000000">+ outputs</tspan>
  </text>
  <g class="dg-icon" transform="translate(368 88)">
<path fill-rule="evenodd" clip-rule="evenodd" d="M27.0049 4.00977C27.1035 4.03002 27.1949 4.08045 27.2656 4.1543L36.8613 14.1689C36.9504 14.262 37 14.3859 37 14.5146V34.3486L36.0664 33.457C36.0448 33.4364 36.022 33.4174 36 33.3975V15.5H27C26.4477 15.5 26 15.0523 26 14.5V5H10V42H34.458L35.5049 43H9.5C9.22386 43 9 42.7761 9 42.5V4.5C9 4.25829 9.17145 4.05629 9.39941 4.00977L9.5 4H26.9043L27.0049 4.00977ZM27 14.5H35.7939L27 5.32227V14.5Z" fill="#000000" />

<path fill-rule="evenodd" clip-rule="evenodd" d="M23.5068 18C28.205 18 32.0137 21.8087 32.0137 26.5068C32.0137 28.5107 31.3185 30.351 30.1592 31.8047L32.7568 34.4023C33.4346 33.8957 34.3982 33.9369 35.0303 34.541L40.082 39.3691C40.7863 40.0423 40.8117 41.1589 40.1387 41.8633L39.6143 42.4121L39.4824 42.5361C38.8025 43.1169 37.7795 43.0999 37.1191 42.4688L32.0674 37.6406C31.407 37.0095 31.3431 35.9878 31.8926 35.2822L32.0107 35.1455L32.0469 35.1064L29.4912 32.5508C27.9542 34.0727 25.8408 35.0137 23.5068 35.0137C18.8087 35.0137 15 31.205 15 26.5068C15 21.8087 18.8087 18 23.5068 18ZM34.3389 35.2637C34.0339 34.9722 33.5504 34.9824 33.2588 35.2871L32.7334 35.8369C32.4421 36.142 32.4528 36.6265 32.7578 36.918L37.8105 41.7461C38.1157 42.0375 38.6001 42.0267 38.8916 41.7217L39.416 41.1719C39.7073 40.8668 39.6957 40.3833 39.3906 40.0918L34.3389 35.2637ZM23.5068 19C19.3609 19 16 22.361 16 26.5068C16 30.6527 19.361 34.0137 23.5068 34.0137C27.6527 34.0136 31.0136 30.6527 31.0137 26.5068C31.0137 22.361 27.6527 19 23.5068 19Z" fill="#000000" />

<path d="M23.4639 29.1426C23.7044 29.1426 23.9305 29.2135 24.0986 29.4023C24.2476 29.57 24.3241 29.7653 24.3242 30.0029C24.3242 30.2407 24.2476 30.4358 24.0986 30.6035C23.9305 30.7927 23.7045 30.8642 23.4639 30.8643C23.2232 30.8642 22.9972 30.7926 22.8291 30.6035C22.6801 30.4358 22.6025 30.2407 22.6025 30.0029C22.6026 29.7653 22.6801 29.57 22.8291 29.4023C22.9972 29.2135 23.2234 29.1426 23.4639 29.1426Z" fill="#000000" />

<path d="M23.6133 21.7871C24.0283 21.7871 24.385 21.8447 24.6768 21.9521C24.9617 22.0572 25.2159 22.2121 25.3984 22.4111C25.5574 22.5846 25.7056 22.7919 25.7764 23.0439C25.853 23.2741 25.8847 23.4909 25.8848 23.7061C25.8848 24.0125 25.8229 24.2796 25.7119 24.5176C25.6073 24.7417 25.4737 24.9508 25.3105 25.1436C25.1646 25.3161 25.0066 25.5008 24.8203 25.6738C24.6563 25.8378 24.5017 25.9941 24.3604 26.1611C24.2211 26.3257 24.1125 26.4839 24.0293 26.6621C23.9487 26.835 23.9034 27.0162 23.9033 27.2207V27.7695H22.8789L22.8389 27.5684C22.824 27.4939 22.8066 27.394 22.8066 27.2754V27.0176C22.8067 26.7484 22.8513 26.4763 22.9688 26.2412C23.0674 26.044 23.1839 25.8395 23.3184 25.6602C23.4507 25.4837 23.6102 25.309 23.7832 25.1504C23.9348 25.0114 24.0562 24.8645 24.2012 24.7051C24.3158 24.579 24.4104 24.4268 24.4824 24.2588L24.4854 24.2529L24.5312 24.1387C24.5726 24.0201 24.5977 23.8898 24.5977 23.7471C24.5976 23.5755 24.5633 23.438 24.5156 23.3428C24.4715 23.2549 24.3965 23.1765 24.3018 23.1133C24.2105 23.0525 24.1077 23.0108 23.9785 22.9893C23.8298 22.9645 23.6804 22.9521 23.5176 22.9521H23.2578C22.9106 22.9847 22.5882 23.0791 22.3086 23.2334L22.0479 23.377L21.9512 23.0947L21.6846 22.3115L21.8506 22.2061C22.0337 22.0896 22.2968 22.0002 22.5811 21.9189C22.8924 21.83 23.2422 21.7871 23.6133 21.7871Z" fill="#000000" />

  </g>
  </g>
  <g data-component-id="_auto_inputs_3">
  <rect x="432" y="80" width="192" height="64" fill="#000000" stroke="#000000" stroke-width="1" stroke-miterlimit="10" />
  <text font-family="Ubuntu Sans">
    <tspan x="440" y="104.92" font-size="18" font-weight="700" fill="#FFFFFF">DIAGRAM.md</tspan>
    <tspan x="440" y="128.92" font-size="18" font-weight="400" fill="#FFFFFF">canonical spec</tspan>
  </text>
  <g class="dg-icon" transform="translate(568 88)">
<path d="M11.9531 6.85156L11.9424 6.5H33.5225C33.7986 6.5 34.0225 6.72386 34.0225 7V22.625H33.0225V7.5H11.9746C11.972 7.50013 11.9665 7.50046 11.959 7.50098C11.9436 7.50203 11.9188 7.5042 11.8857 7.50781C11.8192 7.51509 11.7205 7.52825 11.6006 7.55371C11.3584 7.60519 11.0402 7.70258 10.7275 7.88184C10.1311 8.22395 9.5 8.88976 9.5 10.2979V34.5518C10.1353 33.9031 11.0203 33.5 12 33.5H29V34.5H12C10.7905 34.5 9.78142 35.3589 9.5498 36.5H31.7354V37.5H9.5498C9.78142 38.6411 10.7905 39.5 12 39.5H34V40.5H12C10.067 40.5 8.5 38.933 8.5 37V10.2979C8.5 8.50354 9.34777 7.5198 10.2305 7.01367C10.6574 6.7689 11.0801 6.64258 11.3926 6.57617C11.5497 6.54279 11.6822 6.52408 11.7773 6.51367C11.8248 6.50848 11.8637 6.50484 11.8916 6.50293C11.9052 6.502 11.9163 6.5014 11.9248 6.50098C11.9289 6.50077 11.9327 6.50109 11.9355 6.50098C11.9369 6.50092 11.9384 6.50004 11.9395 6.5H11.9424C11.9426 6.49999 11.9418 6.50028 11.9531 6.85156Z" fill="#FFFFFF" />

<path fill-rule="evenodd" clip-rule="evenodd" d="M22.5068 11C27.205 11 31.0137 14.8087 31.0137 19.5068C31.0137 21.5107 30.3185 23.351 29.1592 24.8047L31.7568 27.4023C32.4346 26.8957 33.3982 26.9369 34.0303 27.541L39.082 32.3691C39.7863 33.0423 39.8117 34.1589 39.1387 34.8633L38.6143 35.4121L38.4824 35.5361C37.8025 36.1169 36.7795 36.0999 36.1191 35.4688L31.0674 30.6406C30.407 30.0095 30.3431 28.9878 30.8926 28.2822L31.0107 28.1455L31.0469 28.1064L28.4912 25.5508C26.9542 27.0727 24.8408 28.0137 22.5068 28.0137C17.8087 28.0137 14 24.205 14 19.5068C14 14.8087 17.8087 11 22.5068 11ZM33.3389 28.2637C33.0339 27.9722 32.5504 27.9824 32.2588 28.2871L31.7334 28.8369C31.4421 29.142 31.4528 29.6265 31.7578 29.918L36.8105 34.7461C37.1157 35.0375 37.6001 35.0267 37.8916 34.7217L38.416 34.1719C38.7073 33.8668 38.6957 33.3833 38.3906 33.0918L33.3389 28.2637ZM22.5068 12C18.3609 12 15 15.361 15 19.5068C15 23.6527 18.361 27.0137 22.5068 27.0137C26.6527 27.0136 30.0136 23.6527 30.0137 19.5068C30.0137 15.361 26.6527 12 22.5068 12Z" fill="#FFFFFF" />

<path d="M22.4639 22.1426C22.7044 22.1426 22.9305 22.2135 23.0986 22.4023C23.2476 22.57 23.3241 22.7653 23.3242 23.0029C23.3242 23.2407 23.2476 23.4358 23.0986 23.6035C22.9305 23.7927 22.7045 23.8642 22.4639 23.8643C22.2232 23.8642 21.9972 23.7926 21.8291 23.6035C21.6801 23.4358 21.6025 23.2407 21.6025 23.0029C21.6026 22.7653 21.6801 22.57 21.8291 22.4023C21.9972 22.2135 22.2234 22.1426 22.4639 22.1426Z" fill="#FFFFFF" />

<path d="M22.6133 14.7871C23.0283 14.7871 23.385 14.8447 23.6768 14.9521C23.9617 15.0572 24.2159 15.2121 24.3984 15.4111C24.5574 15.5846 24.7056 15.7919 24.7764 16.0439C24.853 16.2741 24.8847 16.4909 24.8848 16.7061C24.8848 17.0125 24.8229 17.2796 24.7119 17.5176C24.6073 17.7417 24.4737 17.9508 24.3105 18.1436C24.1646 18.3161 24.0066 18.5008 23.8203 18.6738C23.6563 18.8378 23.5017 18.9941 23.3604 19.1611C23.2211 19.3257 23.1125 19.4839 23.0293 19.6621C22.9487 19.835 22.9034 20.0162 22.9033 20.2207V20.7695H21.8789L21.8389 20.5684C21.824 20.4939 21.8066 20.394 21.8066 20.2754V20.0176C21.8067 19.7484 21.8513 19.4763 21.9688 19.2412C22.0674 19.044 22.1839 18.8395 22.3184 18.6602C22.4507 18.4837 22.6102 18.309 22.7832 18.1504C22.9348 18.0114 23.0562 17.8645 23.2012 17.7051C23.3158 17.579 23.4104 17.4268 23.4824 17.2588L23.4854 17.2529L23.5312 17.1387C23.5726 17.0201 23.5977 16.8898 23.5977 16.7471C23.5976 16.5755 23.5633 16.438 23.5156 16.3428C23.4715 16.2549 23.3965 16.1765 23.3018 16.1133C23.2105 16.0525 23.1077 16.0108 22.9785 15.9893C22.8298 15.9645 22.6804 15.9521 22.5176 15.9521H22.2578C21.9106 15.9847 21.5882 16.0791 21.3086 16.2334L21.0479 16.377L20.9512 16.0947L20.6846 15.3115L20.8506 15.2061C21.0337 15.0896 21.2968 15.0002 21.5811 14.9189C21.8924 14.83 22.2422 14.7871 22.6133 14.7871Z" fill="#FFFFFF" />

  </g>
  </g>
  <g data-component-id="redraw">
  <rect x="32" y="176" width="592" height="64" fill="#000000" stroke="#000000" stroke-width="1" stroke-miterlimit="10" />
  <text font-family="Ubuntu Sans">
    <tspan x="40" y="200.92" font-size="18" font-weight="700" fill="#FFFFFF">Diagram redraw</tspan>
    <tspan x="40" y="224.92" font-size="18" font-weight="400" fill="#FFFFFF">skill</tspan>
  </text>
  <g class="dg-icon" transform="translate(568 184)">
<path fill-rule="evenodd" clip-rule="evenodd" d="M12.789 7.83005C14.4743 7.08293 16.3386 6.83255 18.1611 7.10934C19.9836 7.38622 21.6898 8.17868 23.0771 9.39255C24.4644 10.6065 25.4758 12.1923 25.9922 13.9619C26.4804 15.6354 26.5049 17.4076 26.0693 19.0918L40.5361 33.5595C40.8331 33.8618 40.9999 34.2686 41 34.6924C40.9999 35.1161 40.8331 35.5229 40.5361 35.8252L35.8252 40.5361C35.5229 40.8331 35.1161 40.9999 34.6924 41C34.2686 40.9999 33.8618 40.8331 33.5595 40.5361L19.0918 26.0693C17.4076 26.5049 15.6354 26.4804 13.9619 25.9922C12.1923 25.4758 10.6065 24.4644 9.39255 23.0771C8.17868 21.6898 7.38622 19.9836 7.10934 18.1611C6.83255 16.3386 7.08293 14.4743 7.83005 12.789L8.12399 12.1259L13.8877 17.8466L17.8466 13.8877L12.1259 8.12399L12.789 7.83005ZM18.0107 8.0986C16.6207 7.88751 15.204 8.0185 13.8818 8.47458L19.2588 13.8906L13.8906 19.2588L8.47458 13.8818C8.0185 15.204 7.88751 16.6207 8.0986 18.0107C8.34684 19.6447 9.05717 21.1741 10.1455 22.4179C11.2339 23.6618 12.6555 24.5692 14.2422 25.0322C15.8287 25.495 17.5151 25.4945 19.1015 25.0312L19.3857 24.9482L19.5947 25.1582L34.2636 39.8261C34.3785 39.9374 34.5323 39.9999 34.6924 40C34.8538 39.9999 35.0088 39.9364 35.124 39.8232L39.8232 35.124C39.9364 35.0088 39.9999 34.8538 40 34.6924C39.9999 34.5323 39.9374 34.3785 39.8261 34.2636L25.1582 19.5947L24.9482 19.3857L25.0312 19.1015C25.4945 17.5151 25.495 15.8287 25.0322 14.2422C24.5692 12.6555 23.6618 11.2339 22.4179 10.1455C21.1741 9.05717 19.6447 8.34684 18.0107 8.0986Z" fill="#FFFFFF" />

<path d="M35.5 34.5C35.5 35.0523 35.0523 35.5 34.5 35.5C33.9477 35.5 33.5 35.0523 33.5 34.5C33.5 33.9477 33.9477 33.5 34.5 33.5C35.0523 33.5 35.5 33.9477 35.5 34.5Z" fill="#FFFFFF" />

  </g>
  </g>
  <g data-component-id="generators">
  <rect x="32" y="264" width="592" height="64" fill="#FFFFFF" stroke="#000000" stroke-width="1" stroke-miterlimit="10" />
  <text font-family="Ubuntu Sans">
    <tspan x="40" y="288.92" font-size="18" font-weight="700" fill="#000000">Repo generators</tspan>
    <tspan x="40" y="312.92" font-size="18" font-weight="400" fill="#666666">shared tokens + library</tspan>
  </text>
  <g class="dg-icon" transform="translate(568 272)">
<path d="M42 17.4746H6V16.5254H42V17.4746Z" fill="#000000" />

<path d="M42 13.5H18V12.5H42V13.5Z" fill="#000000" />

<path fill-rule="evenodd" clip-rule="evenodd" d="M44.6006 9.00977C44.8286 9.05629 45 9.25829 45 9.5V38.5C45 38.7417 44.8286 38.9437 44.6006 38.9902L44.5 39H3.5C3.25829 39 3.05629 38.8286 3.00977 38.6006L3 38.5V9.5C3 9.22386 3.22386 9 3.5 9H44.5L44.6006 9.00977ZM4 38H44V10H4V38Z" fill="#000000" />

<path d="M7.75 12C8.30228 12 8.75 12.4477 8.75 13C8.75 13.5523 8.30228 14 7.75 14C7.19772 14 6.75 13.5523 6.75 13C6.75 12.4477 7.19772 12 7.75 12Z" fill="#000000" />

<path d="M12.25 12C12.8023 12 13.25 12.4477 13.25 13C13.25 13.5523 12.8023 14 12.25 14C11.6977 14 11.25 13.5523 11.25 13C11.25 12.4477 11.6977 12 12.25 12Z" fill="#000000" />

<path d="M26.7246 20.1582L22.2246 33.6582L21.2754 33.3418L25.7754 19.8418L26.7246 20.1582Z" fill="#000000" />

<path d="M18.3203 23.3838L14.2803 26.75L18.3203 30.1162L17.6797 30.8838L12.7188 26.75L17.6797 22.6162L18.3203 23.3838Z" fill="#000000" />

<path d="M35.2812 26.75L30.3203 30.8838L29.6797 30.1162L33.7197 26.75L29.6797 23.3838L30.3203 22.6162L35.2812 26.75Z" fill="#000000" />

  </g>
  </g>
  <g data-component-id="validate">
  <rect x="32" y="352" width="592" height="64" fill="#000000" stroke="#000000" stroke-width="1" stroke-miterlimit="10" />
  <text font-family="Ubuntu Sans">
    <tspan x="40" y="376.92" font-size="18" font-weight="700" fill="#FFFFFF">Build + validate</tspan>
    <tspan x="40" y="400.92" font-size="18" font-weight="400" fill="#FFFFFF">skill</tspan>
  </text>
  <g class="dg-icon" transform="translate(568 360)">
<path fill-rule="evenodd" clip-rule="evenodd" d="M22.7383 3.88186C23.4733 3.28426 24.5267 3.28425 25.2617 3.88186L27.3145 5.55178C27.5354 5.73139 27.8224 5.80778 28.1035 5.76272L30.7158 5.34377C31.6515 5.19345 32.5647 5.72003 32.9023 6.60549L33.8447 9.07717C33.9463 9.34341 34.1566 9.55377 34.4229 9.65529L36.8945 10.5977C37.78 10.9353 38.3066 11.8486 38.1563 12.7842L37.7373 15.3965C37.6923 15.6776 37.7686 15.9646 37.9482 16.1856L39.6182 18.2383C40.2157 18.9733 40.2158 20.0268 39.6182 20.7617L37.9482 22.8145C37.7686 23.0354 37.6922 23.3224 37.7373 23.6035L38.1563 26.2158C38.3066 27.1515 37.78 28.0647 36.8945 28.4024L34.4229 29.3447C34.1566 29.4463 33.9463 29.6566 33.8447 29.9229L32.9023 32.3946C32.6613 33.0266 32.1264 33.4734 31.5 33.624V44.791L24 41.2246L16.5 44.791V33.624C15.8736 33.4734 15.3387 33.0266 15.0977 32.3946L14.1553 29.9229C14.0538 29.6566 13.8434 29.4463 13.5772 29.3447L11.1055 28.4024C10.22 28.0647 9.69344 27.1515 9.84376 26.2158L10.2627 23.6035C10.3078 23.3224 10.2314 23.0354 10.0518 22.8145L8.38184 20.7617C7.78424 20.0267 7.78424 18.9733 8.38184 18.2383L10.0518 16.1856C10.2314 15.9646 10.3078 15.6776 10.2627 15.3965L9.84376 12.7842C9.69342 11.8485 10.22 10.9353 11.1055 10.5977L13.5772 9.65529C13.8434 9.55377 14.0538 9.34342 14.1553 9.07717L15.0977 6.60549C15.4353 5.72001 16.3485 5.19344 17.2842 5.34377L19.8965 5.76272C20.1776 5.80777 20.4646 5.7314 20.6856 5.55178L22.7383 3.88186ZM19.8965 33.2373L17.5 33.6211V43.208L23.7852 40.2197L24 40.1172L24.2148 40.2197L30.5 43.208V33.6211L28.1035 33.2373C27.8224 33.1923 27.5354 33.2686 27.3145 33.4483L25.2617 35.1182C24.5267 35.7158 23.4733 35.7158 22.7383 35.1182L20.6856 33.4483C20.4646 33.2686 20.1776 33.1923 19.8965 33.2373ZM24.6309 4.65822C24.2633 4.35921 23.7367 4.35922 23.3691 4.65822L21.3164 6.32717C20.8743 6.68673 20.2999 6.84138 19.7373 6.751L17.125 6.33108C16.6573 6.25613 16.201 6.51933 16.0322 6.96194L15.0898 9.43361C14.8868 9.96612 14.4661 10.3868 13.9336 10.5899L11.4619 11.5322C11.0193 11.701 10.7561 12.1573 10.8311 12.625L11.251 15.2373C11.3414 15.8 11.1867 16.3743 10.8272 16.8164L9.15821 18.8692C8.8592 19.2367 8.8592 19.7633 9.15821 20.1309L10.8272 22.1836C11.1867 22.6257 11.3414 23.2001 11.251 23.7627L10.8311 26.375C10.7561 26.8427 11.0193 27.299 11.4619 27.4678L13.9336 28.4102C14.4661 28.6132 14.8868 29.0339 15.0898 29.5664L16.0322 32.0381C16.201 32.4807 16.6573 32.7439 17.125 32.669L19.7373 32.249C20.2999 32.1587 20.8743 32.3133 21.3164 32.6729L23.3691 34.3418C23.7367 34.6408 24.2633 34.6408 24.6309 34.3418L26.6836 32.6729C27.1257 32.3133 27.7001 32.1586 28.2627 32.249L30.875 32.669C31.3427 32.7439 31.799 32.4807 31.9678 32.0381L32.9102 29.5664C33.1132 29.0339 33.5339 28.6132 34.0664 28.4102L36.5381 27.4678C36.9807 27.299 37.2439 26.8427 37.169 26.375L36.749 23.7627C36.6586 23.2001 36.8133 22.6257 37.1729 22.1836L38.8418 20.1309C39.1408 19.7633 39.1408 19.2367 38.8418 18.8692L37.1729 16.8164C36.8133 16.3743 36.6586 15.8 36.749 15.2373L37.169 12.625C37.2439 12.1573 36.9807 11.701 36.5381 11.5322L34.0664 10.5899C33.5339 10.3868 33.1132 9.96612 32.9102 9.43361L31.9678 6.96194C31.799 6.51934 31.3427 6.25614 30.875 6.33108L28.2627 6.751C27.7001 6.8414 27.1257 6.68671 26.6836 6.32717L24.6309 4.65822Z" fill="#FFFFFF" />

<path d="M28.5 16.248L22.9775 23.4385L22.5254 23.0127L19.501 20.1709L20.2705 19.3506L22.8418 21.7676L27.6074 15.5625L28.5 16.248Z" fill="#FFFFFF" />

<path fill-rule="evenodd" clip-rule="evenodd" d="M24 10.5C28.9706 10.5 33 14.5294 33 19.5C33 24.4706 28.9706 28.5 24 28.5C19.0294 28.5 15 24.4706 15 19.5C15 14.5294 19.0294 10.5 24 10.5ZM24 11.5C19.5817 11.5 16 15.0817 16 19.5C16 23.9183 19.5817 27.5 24 27.5C28.4183 27.5 32 23.9183 32 19.5C32 15.0817 28.4183 11.5 24 11.5Z" fill="#FFFFFF" />

  </g>
  </g>
  <g data-component-id="review">
  <rect x="32" y="440" width="592" height="64" fill="#F3F3F3" stroke="#000000" stroke-width="1" stroke-miterlimit="10" />
  <text font-family="Ubuntu Sans">
    <tspan x="40" y="464.92" font-size="18" font-weight="700" fill="#000000">Compare + review lane</tspan>
    <tspan x="40" y="488.92" font-size="18" font-weight="400" fill="#666666">before / agent / refined</tspan>
  </text>
  <g class="dg-icon" transform="translate(568 448)">
<path fill-rule="evenodd" clip-rule="evenodd" d="M27.0049 4.00977C27.1035 4.03002 27.1949 4.08045 27.2656 4.1543L36.8613 14.1689C36.9504 14.262 37 14.3859 37 14.5146V34.3486L36.0664 33.457C36.0448 33.4364 36.022 33.4174 36 33.3975V15.5H27C26.4477 15.5 26 15.0523 26 14.5V5H10V42H34.458L35.5049 43H9.5C9.22386 43 9 42.7761 9 42.5V4.5C9 4.25829 9.17145 4.05629 9.39941 4.00977L9.5 4H26.9043L27.0049 4.00977ZM27 14.5H35.7939L27 5.32227V14.5Z" fill="#000000" />

<path fill-rule="evenodd" clip-rule="evenodd" d="M23.5068 18C28.205 18 32.0137 21.8087 32.0137 26.5068C32.0137 28.5107 31.3185 30.351 30.1592 31.8047L32.7568 34.4023C33.4346 33.8957 34.3982 33.9369 35.0303 34.541L40.082 39.3691C40.7863 40.0423 40.8117 41.1589 40.1387 41.8633L39.6143 42.4121L39.4824 42.5361C38.8025 43.1169 37.7795 43.0999 37.1191 42.4688L32.0674 37.6406C31.407 37.0095 31.3431 35.9878 31.8926 35.2822L32.0107 35.1455L32.0469 35.1064L29.4912 32.5508C27.9542 34.0727 25.8408 35.0137 23.5068 35.0137C18.8087 35.0137 15 31.205 15 26.5068C15 21.8087 18.8087 18 23.5068 18ZM34.3389 35.2637C34.0339 34.9722 33.5504 34.9824 33.2588 35.2871L32.7334 35.8369C32.4421 36.142 32.4528 36.6265 32.7578 36.918L37.8105 41.7461C38.1157 42.0375 38.6001 42.0267 38.8916 41.7217L39.416 41.1719C39.7073 40.8668 39.6957 40.3833 39.3906 40.0918L34.3389 35.2637ZM23.5068 19C19.3609 19 16 22.361 16 26.5068C16 30.6527 19.361 34.0137 23.5068 34.0137C27.6527 34.0136 31.0136 30.6527 31.0137 26.5068C31.0137 22.361 27.6527 19 23.5068 19Z" fill="#000000" />

<path d="M23.4639 29.1426C23.7044 29.1426 23.9305 29.2135 24.0986 29.4023C24.2476 29.57 24.3241 29.7653 24.3242 30.0029C24.3242 30.2407 24.2476 30.4358 24.0986 30.6035C23.9305 30.7927 23.7045 30.8642 23.4639 30.8643C23.2232 30.8642 22.9972 30.7926 22.8291 30.6035C22.6801 30.4358 22.6025 30.2407 22.6025 30.0029C22.6026 29.7653 22.6801 29.57 22.8291 29.4023C22.9972 29.2135 23.2234 29.1426 23.4639 29.1426Z" fill="#000000" />

<path d="M23.6133 21.7871C24.0283 21.7871 24.385 21.8447 24.6768 21.9521C24.9617 22.0572 25.2159 22.2121 25.3984 22.4111C25.5574 22.5846 25.7056 22.7919 25.7764 23.0439C25.853 23.2741 25.8847 23.4909 25.8848 23.7061C25.8848 24.0125 25.8229 24.2796 25.7119 24.5176C25.6073 24.7417 25.4737 24.9508 25.3105 25.1436C25.1646 25.3161 25.0066 25.5008 24.8203 25.6738C24.6563 25.8378 24.5017 25.9941 24.3604 26.1611C24.2211 26.3257 24.1125 26.4839 24.0293 26.6621C23.9487 26.835 23.9034 27.0162 23.9033 27.2207V27.7695H22.8789L22.8389 27.5684C22.824 27.4939 22.8066 27.394 22.8066 27.2754V27.0176C22.8067 26.7484 22.8513 26.4763 22.9688 26.2412C23.0674 26.044 23.1839 25.8395 23.3184 25.6602C23.4507 25.4837 23.6102 25.309 23.7832 25.1504C23.9348 25.0114 24.0562 24.8645 24.2012 24.7051C24.3158 24.579 24.4104 24.4268 24.4824 24.2588L24.4854 24.2529L24.5312 24.1387C24.5726 24.0201 24.5977 23.8898 24.5977 23.7471C24.5976 23.5755 24.5633 23.438 24.5156 23.3428C24.4715 23.2549 24.3965 23.1765 24.3018 23.1133C24.2105 23.0525 24.1077 23.0108 23.9785 22.9893C23.8298 22.9645 23.6804 22.9521 23.5176 22.9521H23.2578C22.9106 22.9847 22.5882 23.0791 22.3086 23.2334L22.0479 23.377L21.9512 23.0947L21.6846 22.3115L21.8506 22.2061C22.0337 22.0896 22.2968 22.0002 22.5811 21.9189C22.8924 21.83 23.2422 21.7871 23.6133 21.7871Z" fill="#000000" />

  </g>
  </g>
  <g data-component-id="drawio">
  <rect x="32" y="528" width="592" height="64" fill="#000000" stroke="#000000" stroke-width="1" stroke-miterlimit="10" />
  <text font-family="Ubuntu Sans">
    <tspan x="40" y="552.92" font-size="18" font-weight="700" fill="#FFFFFF">Protected draw.io</tspan>
    <tspan x="40" y="576.92" font-size="18" font-weight="400" fill="#FFFFFF">review skill</tspan>
  </text>
  <g class="dg-icon" transform="translate(568 536)">
<path d="M31.833 6.25C35.2388 6.25 38 9.01124 38 12.417V12.5127H37V12.417C37 9.56352 34.6865 7.25 31.833 7.25C28.9797 7.25018 26.667 9.56363 26.667 12.417V35.25C26.667 38.8397 23.7567 41.7498 20.167 41.75H19.5C15.9101 41.75 13 38.8399 13 35.25V32.4609H14V35.25C14 38.2876 16.4624 40.75 19.5 40.75H20.167C23.2044 40.7498 25.667 38.2875 25.667 35.25V12.417C25.667 9.01134 28.4274 6.25018 31.833 6.25Z" fill="#FFFFFF" />

<path d="M14 25.5H13V21H14V25.5Z" fill="#FFFFFF" />

<path fill-rule="evenodd" clip-rule="evenodd" d="M13.5 6C17.6421 6 21 9.35786 21 13.5V22.5C21 26.6421 17.6421 30 13.5 30C9.35786 30 6 26.6421 6 22.5V13.5C6 9.35786 9.35786 6 13.5 6ZM13.5 7C9.91015 7 7 9.91015 7 13.5V22.5C7 26.0899 9.91015 29 13.5 29C17.0899 29 20 26.0899 20 22.5V13.5C20 9.91015 17.0899 7 13.5 7Z" fill="#FFFFFF" />

<path fill-rule="evenodd" clip-rule="evenodd" d="M40.5 21V40C40.5 41.1046 39.6046 42 38.5 42H36.5C35.4644 42 34.613 41.2128 34.5107 40.2041L34.5 40V21L37.5 15L40.5 21ZM35.5 38.5V40C35.5 40.5523 35.9477 41 36.5 41H38.5C39.0523 41 39.5 40.5523 39.5 40V38.5H35.5ZM35.5 37.5H39.5V21.5H35.5V37.5ZM35.8682 20.5H39.1318L37.5 17.2363L35.8682 20.5Z" fill="#FFFFFF" />

  </g>
  </g>
  <g data-component-id="outputs">
  <rect x="32" y="616" width="592" height="88" fill="#FFFFFF" stroke="#000000" stroke-width="1" stroke-miterlimit="10" />
  <text font-family="Ubuntu Sans">
    <tspan x="40" y="640.92" font-size="18" font-weight="700" fill="#000000">Editable draw.io +</tspan>
    <tspan x="40" y="664.92" font-size="18" font-weight="400" fill="#000000">SVG outputs</tspan>
    <tspan x="40" y="688.92" font-size="18" font-weight="400" fill="#666666">ready for token ingest</tspan>
  </text>
  <g class="dg-icon" transform="translate(568 624)">
<path fill-rule="evenodd" clip-rule="evenodd" d="M38.2432 19.3125C38.4017 19.4007 38.4999 19.5686 38.5 19.75C38.4999 19.9313 38.4015 20.0983 38.2432 20.1865L31.6045 23.874L38.2432 27.5625C38.4017 27.6507 38.4999 27.8186 38.5 28C38.4999 28.1813 38.4015 28.3483 38.2432 28.4365L31.6045 32.124L38.2432 35.8125C38.4017 35.9007 38.4999 36.0686 38.5 36.25C38.4999 36.4313 38.4015 36.5983 38.2432 36.6865L24.7432 44.1865C24.5922 44.2704 24.4078 44.2704 24.2568 44.1865L10.7568 36.6865C10.5985 36.5983 10.5001 36.4313 10.5 36.25C10.5001 36.0686 10.5983 35.9007 10.7568 35.8125L17.3955 32.124L10.7568 28.4365C10.5985 28.3483 10.5001 28.1813 10.5 28C10.5001 27.8186 10.5983 27.6507 10.7568 27.5625L17.3945 23.874L10.7568 20.1865C10.5985 20.0983 10.5001 19.9313 10.5 19.75C10.5001 19.5686 10.5983 19.4007 10.7568 19.3125L15.8496 16.4824L16.8799 17.0547L12.0293 19.749L24.5 26.6768L36.9697 19.749L32.1191 17.0547L33.1494 16.4824L38.2432 19.3125ZM24.7432 35.9365C24.5922 36.0204 24.4078 36.0204 24.2568 35.9365L18.4248 32.6963L12.0293 36.249L24.5 43.1768L36.9697 36.249L30.5742 32.6963L24.7432 35.9365ZM24.7432 27.6865C24.5922 27.7704 24.4078 27.7704 24.2568 27.6865L18.4248 24.4463L12.0293 27.999L24.5 34.9268L36.9697 27.999L30.5742 24.4463L24.7432 27.6865Z" fill="#000000" />

<path fill-rule="evenodd" clip-rule="evenodd" d="M24.3154 3.53511C24.4537 3.48023 24.6112 3.48916 24.7432 3.56246L38.2432 11.0625C38.4018 11.1506 38.4999 11.3185 38.5 11.5C38.5 11.6815 38.4018 11.8492 38.2432 11.9375L24.7432 19.4375C24.5922 19.5214 24.4078 19.5214 24.2568 19.4375L10.7568 11.9375C10.5982 11.8492 10.5 11.6815 10.5 11.5C10.5001 11.3185 10.5982 11.1506 10.7568 11.0625L24.2568 3.56246L24.3154 3.53511ZM12.0303 11.5L24.5 18.4267L36.9688 11.5L24.5 4.57222L12.0303 11.5Z" fill="#000000" />

  </g>
  </g>
  <g data-component-id="_auto_4">
  <line x1="328" y1="152" x2="328" y2="165.1592" fill="none" stroke="#E95420" stroke-width="1" stroke-miterlimit="10" />
  <polygon points="325.0947,165.1592 328,176 330.9053,165.1592" fill="#E95420" />
  </g>
  <g data-component-id="_auto_5">
  <line x1="328" y1="240" x2="328" y2="253.1592" fill="none" stroke="#E95420" stroke-width="1" stroke-miterlimit="10" />
  <polygon points="325.0947,253.1592 328,264 330.9053,253.1592" fill="#E95420" />
  </g>
  <g data-component-id="_auto_6">
  <line x1="328" y1="328" x2="328" y2="341.1592" fill="none" stroke="#E95420" stroke-width="1" stroke-miterlimit="10" />
  <polygon points="325.0947,341.1592 328,352 330.9053,341.1592" fill="#E95420" />
  </g>
  <g data-component-id="_auto_7">
  <line x1="328" y1="416" x2="328" y2="429.1592" fill="none" stroke="#E95420" stroke-width="1" stroke-miterlimit="10" />
  <polygon points="325.0947,429.1592 328,440 330.9053,429.1592" fill="#E95420" />
  </g>
  <g data-component-id="_auto_8">
  <line x1="328" y1="504" x2="328" y2="517.1592" fill="none" stroke="#E95420" stroke-width="1" stroke-miterlimit="10" />
  <polygon points="325.0947,517.1592 328,528 330.9053,517.1592" fill="#E95420" />
  </g>
  <g data-component-id="_auto_9">
  <line x1="328" y1="592" x2="328" y2="605.1592" fill="none" stroke="#E95420" stroke-width="1" stroke-miterlimit="10" />
  <polygon points="325.0947,605.1592 328,616 330.9053,605.1592" fill="#E95420" />
  </g>
</svg>
