<svg xmlns="http://www.w3.org/2000/svg" width="464" height="696" viewBox="0 0 464 696" xml:space="preserve">
  <rect width="464" height="696" fill="#FFFFFF" />
  <g data-component-id="ingest">
  <rect x="24" y="24" width="192" height="64" fill="#FFFFFF" stroke="#000000" stroke-width="1" stroke-miterlimit="10" />
  <text font-family="Ubuntu Sans">
    <tspan x="32" y="48.92" font-size="18" font-weight="400" fill="#000000">Data</tspan>
    <tspan x="32" y="72.92" font-size="18" font-weight="400" fill="#000000">ingestion</tspan>
  </text>
  <g class="dg-icon" transform="translate(160 32)">
<path fill-rule="evenodd" clip-rule="evenodd" d="M27.1855 10C32.1958 10 36.2166 13.9999 36.2168 18.9229L36.2109 19.1426C36.1874 19.6524 36.0941 20.1474 36.0928 20.1543C41.0412 20.2158 45 24.1541 45 29.0771L44.9883 29.5361C44.7475 34.2463 40.8223 38 35.9688 38H12.0312L11.5645 37.9883C6.9281 37.7568 3.24476 34.0945 3.01172 29.5361L3 29.0771C3.00003 24.9541 5.78376 21.3518 9.86621 20.4287V18.9844C9.86638 15.9076 12.4024 13.4463 15.4951 13.4463L15.749 13.4521C17.0168 13.5096 18.2202 13.996 19.2061 14.8613C20.7525 11.9076 23.8454 10 27.1855 10ZM27.1855 11C24.2244 11 21.4689 12.6948 20.0918 15.3252L19.502 16.4521L18.5469 15.6133C17.674 14.8471 16.608 14.4464 15.4951 14.4463C12.9354 14.4463 10.8664 16.479 10.8662 18.9844V21.2275L10.0869 21.4033C6.47196 22.2207 4.00003 25.4093 4 29.0771C4.00012 33.4385 7.56395 37 12.0312 37H35.9688C40.4361 37 43.9999 33.4385 44 29.0771C44 24.7135 40.4931 21.2082 36.0801 21.1533L34.8877 21.1387L35.1104 19.9668V19.9648C35.1109 19.9617 35.1119 19.9557 35.1133 19.9482C35.116 19.9332 35.121 19.91 35.126 19.8799C35.1361 19.8188 35.1493 19.7305 35.1631 19.626C35.1914 19.4107 35.2168 19.151 35.2168 18.9229C35.2166 14.5615 31.6528 11 27.1855 11Z" fill="#000000" />

  </g>
  </g>
  <g data-component-id="ingest_note">
  <rect x="240" y="24" width="192" height="64" fill="#FFFFFF" stroke="none" stroke-width="1" stroke-miterlimit="10" />
  <text font-family="Ubuntu Sans">
    <tspan x="248" y="48.92" font-size="18" font-weight="400" fill="#666666">Accepts CSV,</tspan>
    <tspan x="248" y="72.92" font-size="18" font-weight="400" fill="#666666">JSON, Parquet</tspan>
  </text>
  </g>
  <g data-component-id="validate">
  <rect x="24" y="128" width="192" height="64" fill="#F3F3F3" stroke="#000000" stroke-width="1" stroke-miterlimit="10" />
  <text font-family="Ubuntu Sans">
    <tspan x="32" y="152.92" font-size="18" font-weight="400" fill="#000000">Validate</tspan>
    <tspan x="32" y="176.92" font-size="18" font-weight="400" fill="#000000">&amp; clean</tspan>
  </text>
  <g class="dg-icon" transform="translate(160 136)">
<path fill-rule="evenodd" clip-rule="evenodd" d="M22.7383 3.88186C23.4733 3.28426 24.5267 3.28425 25.2617 3.88186L27.3145 5.55178C27.5354 5.73139 27.8224 5.80778 28.1035 5.76272L30.7158 5.34377C31.6515 5.19345 32.5647 5.72003 32.9023 6.60549L33.8447 9.07717C33.9463 9.34341 34.1566 9.55377 34.4229 9.65529L36.8945 10.5977C37.78 10.9353 38.3066 11.8486 38.1563 12.7842L37.7373 15.3965C37.6923 15.6776 37.7686 15.9646 37.9482 16.1856L39.6182 18.2383C40.2157 18.9733 40.2158 20.0268 39.6182 20.7617L37.9482 22.8145C37.7686 23.0354 37.6922 23.3224 37.7373 23.6035L38.1563 26.2158C38.3066 27.1515 37.78 28.0647 36.8945 28.4024L34.4229 29.3447C34.1566 29.4463 33.9463 29.6566 33.8447 29.9229L32.9023 32.3946C32.6613 33.0266 32.1264 33.4734 31.5 33.624V44.791L24 41.2246L16.5 44.791V33.624C15.8736 33.4734 15.3387 33.0266 15.0977 32.3946L14.1553 29.9229C14.0538 29.6566 13.8434 29.4463 13.5772 29.3447L11.1055 28.4024C10.22 28.0647 9.69344 27.1515 9.84376 26.2158L10.2627 23.6035C10.3078 23.3224 10.2314 23.0354 10.0518 22.8145L8.38184 20.7617C7.78424 20.0267 7.78424 18.9733 8.38184 18.2383L10.0518 16.1856C10.2314 15.9646 10.3078 15.6776 10.2627 15.3965L9.84376 12.7842C9.69342 11.8485 10.22 10.9353 11.1055 10.5977L13.5772 9.65529C13.8434 9.55377 14.0538 9.34342 14.1553 9.07717L15.0977 6.60549C15.4353 5.72001 16.3485 5.19344 17.2842 5.34377L19.8965 5.76272C20.1776 5.80777 20.4646 5.7314 20.6856 5.55178L22.7383 3.88186ZM19.8965 33.2373L17.5 33.6211V43.208L23.7852 40.2197L24 40.1172L24.2148 40.2197L30.5 43.208V33.6211L28.1035 33.2373C27.8224 33.1923 27.5354 33.2686 27.3145 33.4483L25.2617 35.1182C24.5267 35.7158 23.4733 35.7158 22.7383 35.1182L20.6856 33.4483C20.4646 33.2686 20.1776 33.1923 19.8965 33.2373ZM24.6309 4.65822C24.2633 4.35921 23.7367 4.35922 23.3691 4.65822L21.3164 6.32717C20.8743 6.68673 20.2999 6.84138 19.7373 6.751L17.125 6.33108C16.6573 6.25613 16.201 6.51933 16.0322 6.96194L15.0898 9.43361C14.8868 9.96612 14.4661 10.3868 13.9336 10.5899L11.4619 11.5322C11.0193 11.701 10.7561 12.1573 10.8311 12.625L11.251 15.2373C11.3414 15.8 11.1867 16.3743 10.8272 16.8164L9.15821 18.8692C8.8592 19.2367 8.8592 19.7633 9.15821 20.1309L10.8272 22.1836C11.1867 22.6257 11.3414 23.2001 11.251 23.7627L10.8311 26.375C10.7561 26.8427 11.0193 27.299 11.4619 27.4678L13.9336 28.4102C14.4661 28.6132 14.8868 29.0339 15.0898 29.5664L16.0322 32.0381C16.201 32.4807 16.6573 32.7439 17.125 32.669L19.7373 32.249C20.2999 32.1587 20.8743 32.3133 21.3164 32.6729L23.3691 34.3418C23.7367 34.6408 24.2633 34.6408 24.6309 34.3418L26.6836 32.6729C27.1257 32.3133 27.7001 32.1586 28.2627 32.249L30.875 32.669C31.3427 32.7439 31.799 32.4807 31.9678 32.0381L32.9102 29.5664C33.1132 29.0339 33.5339 28.6132 34.0664 28.4102L36.5381 27.4678C36.9807 27.299 37.2439 26.8427 37.169 26.375L36.749 23.7627C36.6586 23.2001 36.8133 22.6257 37.1729 22.1836L38.8418 20.1309C39.1408 19.7633 39.1408 19.2367 38.8418 18.8692L37.1729 16.8164C36.8133 16.3743 36.6586 15.8 36.749 15.2373L37.169 12.625C37.2439 12.1573 36.9807 11.701 36.5381 11.5322L34.0664 10.5899C33.5339 10.3868 33.1132 9.96612 32.9102 9.43361L31.9678 6.96194C31.799 6.51934 31.3427 6.25614 30.875 6.33108L28.2627 6.751C27.7001 6.8414 27.1257 6.68671 26.6836 6.32717L24.6309 4.65822Z" fill="#000000" />

<path d="M28.5 16.248L22.9775 23.4385L22.5254 23.0127L19.501 20.1709L20.2705 19.3506L22.8418 21.7676L27.6074 15.5625L28.5 16.248Z" fill="#000000" />

<path fill-rule="evenodd" clip-rule="evenodd" d="M24 10.5C28.9706 10.5 33 14.5294 33 19.5C33 24.4706 28.9706 28.5 24 28.5C19.0294 28.5 15 24.4706 15 19.5C15 14.5294 19.0294 10.5 24 10.5ZM24 11.5C19.5817 11.5 16 15.0817 16 19.5C16 23.9183 19.5817 27.5 24 27.5C28.4183 27.5 32 23.9183 32 19.5C32 15.0817 28.4183 11.5 24 11.5Z" fill="#000000" />

  </g>
  </g>
  <g data-component-id="enrich">
  <rect x="240" y="128" width="192" height="64" fill="#F3F3F3" stroke="#000000" stroke-width="1" stroke-miterlimit="10" />
  <text font-family="Ubuntu Sans">
    <tspan x="248" y="152.92" font-size="18" font-weight="400" fill="#000000">Enrich</tspan>
    <tspan x="248" y="176.92" font-size="18" font-weight="400" fill="#000000">&amp; join</tspan>
  </text>
  <g class="dg-icon" transform="translate(376 136)">
<path d="M39.5 26.5557C39.4999 32.5189 34.9609 37.4213 29.1494 37.998L30.7979 39.6465L30.0908 40.3535L27.293 37.5557L30.0908 34.7578L30.7979 35.4648L29.2881 36.9736C34.4792 36.3384 38.4999 31.9184 38.5 26.5557H39.5Z" fill="#000000" />

<path d="M20.707 10.4443L17.9092 13.2422L17.2021 12.5352L18.7109 11.0254C13.5202 11.661 9.50005 16.0819 9.5 21.4443H8.5C8.50006 15.4814 13.0385 10.5781 18.8496 10.001L17.2021 8.35352L17.9092 7.64648L20.707 10.4443Z" fill="#000000" />

<path d="M34.5 17H28.5V16H34.5V17Z" fill="#000000" />

<path d="M38.5 14H28.5V13H38.5V14Z" fill="#000000" />

<path fill-rule="evenodd" clip-rule="evenodd" d="M40.5 9C41.3284 9 42 9.67157 42 10.5V19.6455C42 20.4222 41.4097 21.0609 40.6533 21.1377L40.5 21.1455H31.8809L28.2383 24V21.1455H26.5L26.3467 21.1377C25.5903 21.0609 25 20.4222 25 19.6455V10.5C25 9.67157 25.6716 9 26.5 9H40.5ZM26.5 10C26.2239 10 26 10.2239 26 10.5V19.6455C26 19.9217 26.2239 20.1455 26.5 20.1455H29.2383V21.9453L31.5361 20.1455H40.5C40.7761 20.1455 41 19.9216 41 19.6455V10.5C41 10.2583 40.8286 10.0563 40.6006 10.0098L40.5 10H26.5Z" fill="#000000" />

<path d="M16.5 35.5H11.5V34.5H16.5V35.5Z" fill="#000000" />

<path d="M19.5 32.5H11.5V31.5H19.5V32.5Z" fill="#000000" />

<path fill-rule="evenodd" clip-rule="evenodd" d="M17.1963 23.6475C17.3337 23.6475 17.4651 23.7039 17.5596 23.8037L21.8633 28.3564C21.9509 28.4493 22 28.5725 22 28.7002V41.5C21.9998 41.776 21.776 42 21.5 42H9.5C9.22399 42 9.00021 41.776 9 41.5V24.1475C9 23.9058 9.17149 23.7038 9.39941 23.6572L9.5 23.6475H17.1963ZM10 41H21V28.9902H17.6572C17.1051 28.9902 16.6574 28.5424 16.6572 27.9902V24.6475H10V41ZM17.6572 27.9902H20.1416L17.6572 25.3623V27.9902Z" fill="#000000" />

  </g>
  </g>
  <g data-component-id="_auto_1">
  <line class="dg-separator" x1="24" y1="236.0" x2="432" y2="236.0" fill="none" stroke="#000000" stroke-width="1" stroke-miterlimit="10" stroke-dasharray="12 8" />
  </g>
  <g data-component-id="storage">
  <rect x="16" y="336" width="424" height="232" fill="#F3F3F3" stroke="#000000" stroke-width="1" stroke-miterlimit="10" stroke-dasharray="8 8" />
  <text font-family="Ubuntu Sans">
    <tspan x="24" y="360.92" font-size="18" font-weight="700" fill="#000000">Storage tiers</tspan>
  </text>
  </g>
  <rect x="24" y="440" width="128" height="40" fill="#F3F3F3" stroke="#000000" stroke-width="1" stroke-miterlimit="10" />
  <text font-family="Ubuntu Sans">
    <tspan x="32" y="464.92" font-size="18" font-weight="400" fill="#000000">Hot</tspan>
  </text>
  <rect x="152" y="440" width="280" height="40" fill="#FFFFFF" stroke="#000000" stroke-width="1" stroke-miterlimit="10" />
  <text font-family="Ubuntu Sans">
    <tspan x="160" y="464.92" font-size="18" font-weight="400" fill="#000000">Archive</tspan>
  </text>
  <rect x="24" y="520" width="96" height="40" fill="#F3F3F3" stroke="#000000" stroke-width="1" stroke-miterlimit="10" />
  <text font-family="Ubuntu Sans">
    <tspan x="32" y="544.92" font-size="18" font-weight="400" fill="#000000">SSD</tspan>
  </text>
  <rect x="120" y="520" width="96" height="40" fill="#FFFFFF" stroke="#000000" stroke-width="1" stroke-miterlimit="10" />
  <text font-family="Ubuntu Sans">
    <tspan x="128" y="544.92" font-size="18" font-weight="400" fill="#000000">HDD</tspan>
  </text>
  <rect x="216" y="520" width="216" height="40" fill="#FFFFFF" stroke="#000000" stroke-width="1" stroke-miterlimit="10" />
  <text font-family="Ubuntu Sans">
    <tspan x="224" y="544.92" font-size="18" font-weight="400" fill="#000000">Object</tspan>
  </text>
  <g data-component-id="storage">
  <g class="dg-icon" transform="translate(384 344)">
<path fill-rule="evenodd" clip-rule="evenodd" d="M35.9878 11.6991C36.3041 11.8759 36.5 12.2098 36.5 12.5721V25.3693C36.5 25.7316 36.3041 26.0655 35.9878 26.2423L24 32.9414L12.0122 26.2423C11.6959 26.0655 11.5 25.7316 11.5 25.3693V12.5721C11.5 12.2098 11.6959 11.8759 12.0122 11.6991L23.5122 5.27261C23.8153 5.1032 24.1847 5.1032 24.4878 5.27261L35.9878 11.6991ZM12.5 25.3682L23.5 31.5146V19.3613L12.5 13.166V25.3682ZM24.5 19.3613V31.5146L35.5 25.3682V13.167L24.5 19.3613ZM12.9922 12.2969L24 18.4941L35.0068 12.2969L24 6.14551L12.9922 12.2969Z" fill="#000000" />

<path d="M20.0322 40C20.0118 40.1638 20 40.3306 20 40.5C20 40.6694 20.0118 40.8362 20.0322 41H9V40H20.0322Z" fill="#000000" />

<path d="M39 40V41H27.9678C27.9882 40.8362 28 40.6694 28 40.5C28 40.3306 27.9882 40.1638 27.9678 40H39Z" fill="#000000" />

<path d="M24.5 36.5312C24.3362 36.5108 24.1693 36.5 24 36.5C23.8307 36.5 23.6638 36.5108 23.5 36.5312V32H24.5V36.5312Z" fill="#000000" />

<path fill-rule="evenodd" clip-rule="evenodd" d="M24 38C25.3807 38 26.5 39.1193 26.5 40.5C26.5 41.8807 25.3807 43 24 43C22.6193 43 21.5 41.8807 21.5 40.5C21.5 39.1193 22.6193 38 24 38ZM24 39C23.1716 39 22.5 39.6716 22.5 40.5C22.5 41.3284 23.1716 42 24 42C24.8284 42 25.5 41.3284 25.5 40.5C25.5 39.6716 24.8284 39 24 39Z" fill="#000000" />

  </g>
  </g>
  <g data-component-id="warehouse">
  <rect x="24" y="608" width="192" height="64" fill="#000000" stroke="#000000" stroke-width="1" stroke-miterlimit="10" />
  <text font-family="Ubuntu Sans">
    <tspan x="32" y="632.92" font-size="18" font-weight="400" fill="#FFFFFF">Data</tspan>
    <tspan x="32" y="656.92" font-size="18" font-weight="400" fill="#FFFFFF">warehouse</tspan>
  </text>
  <g class="dg-icon" transform="translate(160 616)">
<path fill-rule="evenodd" clip-rule="evenodd" d="M35.9878 11.6991C36.3041 11.8759 36.5 12.2098 36.5 12.5721V25.3693C36.5 25.7316 36.3041 26.0655 35.9878 26.2423L24 32.9414L12.0122 26.2423C11.6959 26.0655 11.5 25.7316 11.5 25.3693V12.5721C11.5 12.2098 11.6959 11.8759 12.0122 11.6991L23.5122 5.27261C23.8153 5.1032 24.1847 5.1032 24.4878 5.27261L35.9878 11.6991ZM12.5 25.3682L23.5 31.5146V19.3613L12.5 13.166V25.3682ZM24.5 19.3613V31.5146L35.5 25.3682V13.167L24.5 19.3613ZM12.9922 12.2969L24 18.4941L35.0068 12.2969L24 6.14551L12.9922 12.2969Z" fill="#FFFFFF" />

<path d="M20.0322 40C20.0118 40.1638 20 40.3306 20 40.5C20 40.6694 20.0118 40.8362 20.0322 41H9V40H20.0322Z" fill="#FFFFFF" />

<path d="M39 40V41H27.9678C27.9882 40.8362 28 40.6694 28 40.5C28 40.3306 27.9882 40.1638 27.9678 40H39Z" fill="#FFFFFF" />

<path d="M24.5 36.5312C24.3362 36.5108 24.1693 36.5 24 36.5C23.8307 36.5 23.6638 36.5108 23.5 36.5312V32H24.5V36.5312Z" fill="#FFFFFF" />

<path fill-rule="evenodd" clip-rule="evenodd" d="M24 38C25.3807 38 26.5 39.1193 26.5 40.5C26.5 41.8807 25.3807 43 24 43C22.6193 43 21.5 41.8807 21.5 40.5C21.5 39.1193 22.6193 38 24 38ZM24 39C23.1716 39 22.5 39.6716 22.5 40.5C22.5 41.3284 23.1716 42 24 42C24.8284 42 25.5 41.3284 25.5 40.5C25.5 39.6716 24.8284 39 24 39Z" fill="#FFFFFF" />

  </g>
  </g>
  <g data-component-id="dashboard">
  <rect x="240" y="608" width="192" height="64" fill="#FFFFFF" stroke="#000000" stroke-width="1" stroke-miterlimit="10" />
  <text font-family="Ubuntu Sans">
    <tspan x="248" y="632.92" font-size="18" font-weight="400" fill="#000000">Analytics</tspan>
    <tspan x="248" y="656.92" font-size="18" font-weight="400" fill="#000000">dashboard</tspan>
  </text>
  <g class="dg-icon" transform="translate(376 616)">
<path d="M7.5 40.5H42V41.5H6.5V6H7.5V40.5Z" fill="#000000" />

<path d="M12.5 37H11.5V20H12.5V37Z" fill="#000000" />

<path d="M18 24.8408C18.313 25.1559 18.6475 25.4493 19 25.7207V37H18V24.8408Z" fill="#000000" />

<path d="M25.5 37H24.5V29H25.5V37Z" fill="#000000" />

<path d="M32 30.5117V37H31V29.5117L32 30.5117Z" fill="#000000" />

<path d="M38.5 37H37.5V34.2695C37.8406 34.2423 38.1776 34.1656 38.5 34.0391V37Z" fill="#000000" />

<path d="M40.8535 9.14648L40.1465 9.85352L38.5 8.20703V26.9463L37.5 25.9463V8.20703L35.8535 9.85352L35.1465 9.14648L38 6.29297L40.8535 9.14648Z" fill="#000000" />

<path fill-rule="evenodd" clip-rule="evenodd" d="M25 9.5C29.6944 9.5 33.5 13.3056 33.5 18C33.5 20.2893 32.5929 22.3653 31.1211 23.8936L32.8311 25.6035C33.3976 25.3033 34.1165 25.3923 34.5938 25.8691L38.3633 29.6387C38.9488 30.2244 38.9489 31.174 38.3633 31.7598L38.2803 31.8428L38.166 31.9453C37.5769 32.4258 36.7084 32.3918 36.1592 31.8428L32.3896 28.0742C31.9124 27.597 31.8236 26.8773 32.124 26.3105L30.3867 24.5732C28.9202 25.7765 27.045 26.5 25 26.5C20.3056 26.5 16.5 22.6944 16.5 18C16.5 13.3056 20.3056 9.5 25 9.5ZM33.8867 26.5771C33.6915 26.3819 33.375 26.3819 33.1797 26.5771L33.0967 26.6592C32.9016 26.8543 32.9018 27.1709 33.0967 27.3662L36.8662 31.1357C37.0615 31.3308 37.378 31.3309 37.5732 31.1357L37.6562 31.0527C37.8513 30.8575 37.8513 30.5409 37.6562 30.3457L33.8867 26.5771ZM25 10.5C20.8579 10.5 17.5 13.8579 17.5 18C17.5 22.1421 20.8579 25.5 25 25.5C29.1421 25.5 32.5 22.1421 32.5 18C32.5 13.8579 29.1421 10.5 25 10.5Z" fill="#000000" />

<path d="M29.001 15.1094L24.0918 21.501L21 18.5957L21.6865 17.8672L23.9717 20.0146L28.208 14.5L29.001 15.1094Z" fill="#000000" />

  </g>
  </g>
  <g data-component-id="_auto_2">
  <line x1="120" y1="88" x2="120" y2="117.1592" fill="none" stroke="#E95420" stroke-width="1" stroke-miterlimit="10" />
  <polygon points="117.0947,117.1592 120,128 122.9053,117.1592" fill="#E95420" />
  </g>
  <g data-component-id="_auto_3">
  <line x1="120" y1="88" x2="120" y2="112" fill="none" stroke="#E95420" stroke-width="1" stroke-miterlimit="10" />
  <line x1="120" y1="112" x2="336" y2="112" fill="none" stroke="#E95420" stroke-width="1" stroke-miterlimit="10" />
  <line x1="336" y1="112" x2="336" y2="117.1592" fill="none" stroke="#E95420" stroke-width="1" stroke-miterlimit="10" />
  <polygon points="333.0947,117.1592 336,128 338.9053,117.1592" fill="#E95420" />
  </g>
  <g data-component-id="_auto_4">
  <line x1="120" y1="192" x2="120" y2="200" fill="none" stroke="#E95420" stroke-width="1" stroke-miterlimit="10" />
  <line x1="120" y1="200" x2="-8" y2="200" fill="none" stroke="#E95420" stroke-width="1" stroke-miterlimit="10" />
  <line x1="-8" y1="200" x2="-8" y2="592" fill="none" stroke="#E95420" stroke-width="1" stroke-miterlimit="10" />
  <line x1="-8" y1="592" x2="120" y2="592" fill="none" stroke="#E95420" stroke-width="1" stroke-miterlimit="10" />
  <line x1="120" y1="592" x2="120" y2="597.1592" fill="none" stroke="#E95420" stroke-width="1" stroke-miterlimit="10" />
  <polygon points="117.0947,597.1592 120,608 122.9053,597.1592" fill="#E95420" />
  </g>
  <g data-component-id="_auto_5">
  <line x1="336" y1="192" x2="336" y2="200" fill="none" stroke="#E95420" stroke-width="1" stroke-miterlimit="10" />
  <line x1="336" y1="200" x2="464" y2="200" fill="none" stroke="#E95420" stroke-width="1" stroke-miterlimit="10" />
  <line x1="464" y1="200" x2="464" y2="592" fill="none" stroke="#E95420" stroke-width="1" stroke-miterlimit="10" />
  <line x1="464" y1="592" x2="336" y2="592" fill="none" stroke="#E95420" stroke-width="1" stroke-miterlimit="10" />
  <line x1="336" y1="592" x2="336" y2="597.1592" fill="none" stroke="#E95420" stroke-width="1" stroke-miterlimit="10" />
  <polygon points="333.0947,597.1592 336,608 338.9053,597.1592" fill="#E95420" />
  </g>
  <g id="layout-grid" opacity="0.35" style="pointer-events:none">
    <rect x="24" y="24" width="416" height="648" fill="none" stroke="#0066CC" stroke-width="1" stroke-dasharray="6 4" />
    <rect x="24" y="24" width="192" height="648" fill="#3399FF" opacity="0.08" />
    <line x1="24" y1="24" x2="24" y2="672" stroke="#0066CC" stroke-width="0.75" />
    <line x1="216" y1="24" x2="216" y2="672" stroke="#0066CC" stroke-width="0.75" />
    <text x="120.0" y="20" text-anchor="middle" font-size="9" fill="#0066CC" font-family="Ubuntu Sans, sans-serif">192px</text>
    <rect x="240" y="24" width="192" height="648" fill="#3399FF" opacity="0.08" />
    <line x1="240" y1="24" x2="240" y2="672" stroke="#0066CC" stroke-width="0.75" />
    <line x1="432" y1="24" x2="432" y2="672" stroke="#0066CC" stroke-width="0.75" />
    <text x="336.0" y="20" text-anchor="middle" font-size="9" fill="#0066CC" font-family="Ubuntu Sans, sans-serif">192px</text>
    <rect x="216" y="24" width="24" height="648" fill="#9933FF" opacity="0.06" />
    <text x="228.0" y="20" text-anchor="middle" font-size="7" fill="#9933FF" font-family="Ubuntu Sans, sans-serif">24</text>
    <rect x="24" y="24" width="416" height="64" fill="#3399FF" opacity="0.08" />
    <line x1="24" y1="24" x2="440" y2="24" stroke="#0066CC" stroke-width="0.75" />
    <line x1="24" y1="88" x2="440" y2="88" stroke="#0066CC" stroke-width="0.75" />
    <text x="444" y="59.0" font-size="9" fill="#0066CC" font-family="Ubuntu Sans, sans-serif">64px</text>
    <rect x="24" y="128" width="416" height="64" fill="#3399FF" opacity="0.08" />
    <line x1="24" y1="128" x2="440" y2="128" stroke="#0066CC" stroke-width="0.75" />
    <line x1="24" y1="192" x2="440" y2="192" stroke="#0066CC" stroke-width="0.75" />
    <text x="444" y="163.0" font-size="9" fill="#0066CC" font-family="Ubuntu Sans, sans-serif">64px</text>
    <rect x="24" y="232" width="416" height="64" fill="#3399FF" opacity="0.08" />
    <line x1="24" y1="232" x2="440" y2="232" stroke="#0066CC" stroke-width="0.75" />
    <line x1="24" y1="296" x2="440" y2="296" stroke="#0066CC" stroke-width="0.75" />
    <text x="444" y="267.0" font-size="9" fill="#0066CC" font-family="Ubuntu Sans, sans-serif">64px</text>
    <rect x="24" y="336" width="416" height="232" fill="#3399FF" opacity="0.08" />
    <line x1="24" y1="336" x2="440" y2="336" stroke="#0066CC" stroke-width="0.75" />
    <line x1="24" y1="568" x2="440" y2="568" stroke="#0066CC" stroke-width="0.75" />
    <text x="444" y="455.0" font-size="9" fill="#0066CC" font-family="Ubuntu Sans, sans-serif">232px</text>
    <rect x="24" y="608" width="416" height="64" fill="#3399FF" opacity="0.08" />
    <line x1="24" y1="608" x2="440" y2="608" stroke="#0066CC" stroke-width="0.75" />
    <line x1="24" y1="672" x2="440" y2="672" stroke="#0066CC" stroke-width="0.75" />
    <text x="444" y="643.0" font-size="9" fill="#0066CC" font-family="Ubuntu Sans, sans-serif">64px</text>
    <rect x="24" y="88" width="416" height="40" fill="#9933FF" opacity="0.06" />
    <text x="444" y="111.0" font-size="7" fill="#9933FF" font-family="Ubuntu Sans, sans-serif">40</text>
    <rect x="24" y="192" width="416" height="40" fill="#9933FF" opacity="0.06" />
    <text x="444" y="215.0" font-size="7" fill="#9933FF" font-family="Ubuntu Sans, sans-serif">40</text>
    <rect x="24" y="296" width="416" height="40" fill="#9933FF" opacity="0.06" />
    <text x="444" y="319.0" font-size="7" fill="#9933FF" font-family="Ubuntu Sans, sans-serif">40</text>
    <rect x="24" y="568" width="416" height="40" fill="#9933FF" opacity="0.06" />
    <text x="444" y="591.0" font-size="7" fill="#9933FF" font-family="Ubuntu Sans, sans-serif">40</text>
  </g>
</svg>
