<svg xmlns="http://www.w3.org/2000/svg" width="192" height="240" viewBox="0 0 192 240" xml:space="preserve">
  <rect width="192" height="240" fill="#FFFFFF" />
  <g data-component-id="source">
  <rect x="0" y="0" width="192" height="64" fill="#FFFFFF" stroke="#000000" stroke-width="1" stroke-miterlimit="10" />
  <text font-family="Ubuntu Sans">
    <tspan x="8" y="24.92" font-size="18" font-weight="400" fill="#000000">Source</tspan>
  </text>
  <g class="dg-icon" transform="translate(136 8)">
<path d="M24.8232 33.0488H16.5879V31.9512H24.8232V33.0488Z" fill="#000000" />

<path d="M31.4111 28.1074H16.5879V27.0098H31.4111V28.1074Z" fill="#000000" />

<path d="M31.4111 23.166H16.5879V22.0684H31.4111V23.166Z" fill="#000000" />

<path fill-rule="evenodd" clip-rule="evenodd" d="M27.8809 4.5C28.0318 4.5 28.1766 4.56217 28.2803 4.67188L37.8496 14.7949C37.9459 14.8968 37.9999 15.0317 38 15.1719V42.9512L37.9893 43.0615C37.9454 43.2761 37.7761 43.4454 37.5615 43.4893L37.4512 43.5H10.5488C10.2835 43.4999 10.0619 43.3117 10.0107 43.0615L10 42.9512V5.04883C10.0001 4.74576 10.2458 4.5001 10.5488 4.5H27.8809ZM11.0977 42.4023H36.9023V16.0293H28.1172C27.511 16.029 27.0195 15.5369 27.0195 14.9307V5.59766H11.0977V42.4023ZM28.1172 14.9307H36.4668L28.1172 6.09766V14.9307Z" fill="#000000" />

  </g>
  </g>
  <g data-component-id="target">
  <rect x="0" y="176" width="192" height="64" fill="#F3F3F3" stroke="#000000" stroke-width="1" stroke-miterlimit="10" />
  <text font-family="Ubuntu Sans">
    <tspan x="8" y="200.92" font-size="18" font-weight="400" fill="#000000">Target</tspan>
  </text>
  <g class="dg-icon" transform="translate(136 184)">
<path fill-rule="evenodd" clip-rule="evenodd" d="M35.9878 11.6991C36.3041 11.8759 36.5 12.2098 36.5 12.5721V25.3693C36.5 25.7316 36.3041 26.0655 35.9878 26.2423L24 32.9414L12.0122 26.2423C11.6959 26.0655 11.5 25.7316 11.5 25.3693V12.5721C11.5 12.2098 11.6959 11.8759 12.0122 11.6991L23.5122 5.27261C23.8153 5.1032 24.1847 5.1032 24.4878 5.27261L35.9878 11.6991ZM12.5 25.3682L23.5 31.5146V19.3613L12.5 13.166V25.3682ZM24.5 19.3613V31.5146L35.5 25.3682V13.167L24.5 19.3613ZM12.9922 12.2969L24 18.4941L35.0068 12.2969L24 6.14551L12.9922 12.2969Z" fill="#000000" />

<path d="M20.0322 40C20.0118 40.1638 20 40.3306 20 40.5C20 40.6694 20.0118 40.8362 20.0322 41H9V40H20.0322Z" fill="#000000" />

<path d="M39 40V41H27.9678C27.9882 40.8362 28 40.6694 28 40.5C28 40.3306 27.9882 40.1638 27.9678 40H39Z" fill="#000000" />

<path d="M24.5 36.5312C24.3362 36.5108 24.1693 36.5 24 36.5C23.8307 36.5 23.6638 36.5108 23.5 36.5312V32H24.5V36.5312Z" fill="#000000" />

<path fill-rule="evenodd" clip-rule="evenodd" d="M24 38C25.3807 38 26.5 39.1193 26.5 40.5C26.5 41.8807 25.3807 43 24 43C22.6193 43 21.5 41.8807 21.5 40.5C21.5 39.1193 22.6193 38 24 38ZM24 39C23.1716 39 22.5 39.6716 22.5 40.5C22.5 41.3284 23.1716 42 24 42C24.8284 42 25.5 41.3284 25.5 40.5C25.5 39.6716 24.8284 39 24 39Z" fill="#000000" />

  </g>
  </g>
  <g data-component-id="source.bottom-&gt;target.top">
  <line x1="96" y1="64" x2="96" y2="120" fill="none" stroke="#E95420" stroke-width="1" stroke-miterlimit="10" />
  <line x1="96" y1="120" x2="96" y2="120" fill="none" stroke="#E95420" stroke-width="1" stroke-miterlimit="10" />
  <line x1="96" y1="120" x2="96" y2="165.1592" fill="none" stroke="#E95420" stroke-width="1" stroke-miterlimit="10" />
  <polygon points="93.0947,165.1592 96,176 98.9053,165.1592" fill="#E95420" />
  </g>
</svg>
