<svg xmlns="http://www.w3.org/2000/svg" width="600" height="432" viewBox="0 0 600 432" xml:space="preserve">
  <rect width="600" height="432" fill="#FFFFFF" />
  <g data-component-id="scheduler">
  <rect x="240" y="24" width="336" height="88" fill="#FFFFFF" stroke="#000000" stroke-width="1" stroke-miterlimit="10" />
  <text font-family="Ubuntu Sans">
    <tspan x="248" y="48.92" font-size="18" font-weight="700" fill="#000000">Scheduler</tspan>
    <tspan x="248" y="72.92" font-size="18" font-weight="400" fill="#000000">AI inference</tspan>
    <tspan x="248" y="96.92" font-size="18" font-weight="400" fill="#000000">request</tspan>
  </text>
  <g class="dg-icon" transform="translate(520 32)">
<path d="M42 29.75H6V28.75H42V29.75Z" fill="#000000" />

<path fill-rule="evenodd" clip-rule="evenodd" d="M43.5 7C44.6046 7 45.5 7.89543 45.5 9V31.5C45.5 32.6046 44.6046 33.5 43.5 33.5H30.5V38.5H34.5C34.7761 38.5 35 38.7239 35 39V42C35 42.2761 34.7761 42.5 34.5 42.5H13.5C13.2239 42.5 13 42.2761 13 42V39C13 38.7239 13.2239 38.5 13.5 38.5H17.5V33.5H4.5C3.39543 33.5 2.5 32.6046 2.5 31.5V9C2.5 7.89543 3.39543 7 4.5 7H43.5ZM14 41.5H34V39.5H14V41.5ZM18.5 38.5H29.5V33.5H18.5V38.5ZM4.5 8C3.94772 8 3.5 8.44772 3.5 9V31.5C3.5 32.0523 3.94772 32.5 4.5 32.5H43.5C44.0523 32.5 44.5 32.0523 44.5 31.5V9C44.5 8.44772 44.0523 8 43.5 8H4.5Z" fill="#000000" />

<path fill-rule="evenodd" clip-rule="evenodd" d="M24 17C25.3807 17 26.5 18.1193 26.5 19.5C26.5 20.8807 25.3807 22 24 22C22.6193 22 21.5 20.8807 21.5 19.5C21.5 18.1193 22.6193 17 24 17ZM24 18C23.1716 18 22.5 18.6716 22.5 19.5C22.5 20.3284 23.1716 21 24 21C24.8284 21 25.5 20.3284 25.5 19.5C25.5 18.6716 24.8284 18 24 18Z" fill="#000000" />

  </g>
  </g>
  <g data-component-id="_auto_1">
  <g class="dg-icon" transform="translate(240 136)">
<path d="M24.8232 33.0488H16.5879V31.9512H24.8232V33.0488Z" fill="#000000" />

<path d="M31.4111 28.1074H16.5879V27.0098H31.4111V28.1074Z" fill="#000000" />

<path d="M31.4111 23.166H16.5879V22.0684H31.4111V23.166Z" fill="#000000" />

<path fill-rule="evenodd" clip-rule="evenodd" d="M27.8809 4.5C28.0318 4.5 28.1766 4.56217 28.2803 4.67188L37.8496 14.7949C37.9459 14.8968 37.9999 15.0317 38 15.1719V42.9512L37.9893 43.0615C37.9454 43.2761 37.7761 43.4454 37.5615 43.4893L37.4512 43.5H10.5488C10.2835 43.4999 10.0619 43.3117 10.0107 43.0615L10 42.9512V5.04883C10.0001 4.74576 10.2458 4.5001 10.5488 4.5H27.8809ZM11.0977 42.4023H36.9023V16.0293H28.1172C27.511 16.029 27.0195 15.5369 27.0195 14.9307V5.59766H11.0977V42.4023ZM28.1172 14.9307H36.4668L28.1172 6.09766V14.9307Z" fill="#000000" />

  </g>
  </g>
  <g data-component-id="queued">
  <rect x="360" y="136" width="216" height="40" fill="#FFFFFF" stroke="none" stroke-width="1" stroke-miterlimit="10" />
  <text font-family="Ubuntu Sans">
    <tspan x="368" y="160.92" font-size="18" font-weight="400" fill="#666666">Queued request</tspan>
  </text>
  </g>
  <g data-component-id="_auto_2">
  <g class="dg-icon" transform="translate(24 208)">
<path d="M12.13 33.15H2.85001V32.64C2.97001 28 4.56001 23.63 7.44001 20L7.79001 19.56L14.4 26.17L14.17 26.51C12.94 28.33 12.24 30.46 12.15 32.66L12.13 33.14V33.15ZM3.88001 32.15H11.18C11.34 30.07 12.01 28.07 13.12 26.3L7.88001 21.06C5.45001 24.29 4.07001 28.1 3.88001 32.14V32.15ZM15.14 25.25L8.57001 18.68L8.92001 18.33C12.54 14.64 17.37 12.41 22.51 12.06L23.04 12.02V21.32L22.6 21.37C19.91 21.68 17.38 22.93 15.49 24.89L15.14 25.25ZM9.98001 18.68L15.13 23.84C17.03 22.03 19.46 20.84 22.04 20.44V13.1C17.5 13.54 13.26 15.5 9.97001 18.68H9.98001ZM32.5 24.88L32.15 24.55C30.12 22.63 27.47 21.48 24.69 21.32L24.22 21.29V12L24.74 12.02C29.98 12.2 34.94 14.31 38.71 17.96L39.08 18.31L32.51 24.88H32.5ZM25.22 20.35C27.9 20.6 30.45 21.7 32.48 23.49L37.64 18.33C34.22 15.18 29.85 13.32 25.22 13.04V20.35Z" fill="#000000" />

<path d="M31.53 27.31L30.82 26.6L25.33 32.09C24.94 31.85 24.49 31.7 24 31.7C22.62 31.7 21.5 32.82 21.5 34.2C21.5 35.58 22.62 36.7 24 36.7C25.38 36.7 26.5 35.58 26.5 34.2C26.5 33.67 26.33 33.18 26.05 32.78L31.53 27.3V27.31ZM24 35.71C23.17 35.71 22.5 35.04 22.5 34.21C22.5 33.38 23.17 32.71 24 32.71C24.83 32.71 25.5 33.38 25.5 34.21C25.5 35.04 24.83 35.71 24 35.71Z" fill="#000000" />

<path d="M45.15 33.15H35.87L35.85 32.67C35.76 30.29 34.96 28.02 33.54 26.11L33.28 25.76L39.87 19.17L40.22 19.59C43.28 23.24 45.02 27.88 45.14 32.64V33.15H45.15ZM36.82 32.15H44.12C43.92 27.92 42.43 23.97 39.8 20.65L34.59 25.86C35.88 27.73 36.64 29.89 36.82 32.15Z" fill="#000000" />

  </g>
  </g>
  <g data-component-id="gpu">
  <rect x="24" y="280" width="192" height="64" fill="#F3F3F3" stroke="#000000" stroke-width="1" stroke-miterlimit="10" />
  <text font-family="Ubuntu Sans">
    <tspan x="32" y="304.92" font-size="18" font-weight="700" fill="#000000">GPU</tspan>
  </text>
  <g class="dg-icon" transform="translate(160 288)">
<path fill-rule="evenodd" clip-rule="evenodd" d="M33.5 45H32.5V39H24.5V45H23.5V39H15.5V45H14.5V39H10.5C9.72334 39 9.08461 38.4097 9.00781 37.6533L9 37.5V33.5H3V32.5H9V24.5H3V23.5H9V15.5H3V14.5H9V10.5C9 9.67157 9.67157 9 10.5 9H14.5V3H15.5V9H23.5V3H24.5V9H32.5V3H33.5V9H37.5L37.6533 9.00781C38.4097 9.08461 39 9.72334 39 10.5V14.5H45V15.5H39V23.5H45V24.5H39V32.5H45V33.5H39V37.5L38.9922 37.6533C38.9205 38.3593 38.3593 38.9205 37.6533 38.9922L37.5 39H33.5V45ZM10.5 10C10.2239 10 10 10.2239 10 10.5V37.5C10 37.7761 10.2239 38 10.5 38H37.5C37.7761 38 38 37.7761 38 37.5V10.5C38 10.2239 37.7761 10 37.5 10H10.5Z" fill="#000000" />

<path fill-rule="evenodd" clip-rule="evenodd" d="M30 30H18V18H30V30ZM19 29H29V19H19V29Z" fill="#000000" />

  </g>
  </g>
  <g data-component-id="_auto_3">
  <rect x="24" y="368" width="192" height="40" fill="#FFFFFF" stroke="none" stroke-width="1" stroke-miterlimit="10" />
  <text font-family="Ubuntu Sans">
    <tspan x="32" y="392.92" font-size="18" font-weight="700" fill="#000000">Waiting...</tspan>
  </text>
  </g>
  <g data-component-id="_auto_4">
  <line x1="120" y1="280" x2="120" y2="68" fill="none" stroke="#E95420" stroke-width="1" stroke-miterlimit="10" />
  <line x1="120" y1="68" x2="229.1592" y2="68" fill="none" stroke="#E95420" stroke-width="1" stroke-miterlimit="10" />
  <polygon points="229.1592,65.0947 240,68 229.1592,70.9053" fill="#E95420" />
  </g>
  <g id="layout-grid" opacity="0.35" style="pointer-events:none">
    <rect x="24" y="24" width="552" height="384" fill="none" stroke="#0066CC" stroke-width="1" stroke-dasharray="6 4" />
    <rect x="24" y="24" width="192" height="384" fill="#3399FF" opacity="0.08" />
    <line x1="24" y1="24" x2="24" y2="408" stroke="#0066CC" stroke-width="0.75" />
    <line x1="216" y1="24" x2="216" y2="408" stroke="#0066CC" stroke-width="0.75" />
    <text x="120.0" y="20" text-anchor="middle" font-size="9" fill="#0066CC" font-family="Ubuntu Sans, sans-serif">192px</text>
    <rect x="240" y="24" width="96" height="384" fill="#3399FF" opacity="0.08" />
    <line x1="240" y1="24" x2="240" y2="408" stroke="#0066CC" stroke-width="0.75" />
    <line x1="336" y1="24" x2="336" y2="408" stroke="#0066CC" stroke-width="0.75" />
    <text x="288.0" y="20" text-anchor="middle" font-size="9" fill="#0066CC" font-family="Ubuntu Sans, sans-serif">96px</text>
    <rect x="360" y="24" width="96" height="384" fill="#3399FF" opacity="0.08" />
    <line x1="360" y1="24" x2="360" y2="408" stroke="#0066CC" stroke-width="0.75" />
    <line x1="456" y1="24" x2="456" y2="408" stroke="#0066CC" stroke-width="0.75" />
    <text x="408.0" y="20" text-anchor="middle" font-size="9" fill="#0066CC" font-family="Ubuntu Sans, sans-serif">96px</text>
    <rect x="480" y="24" width="96" height="384" fill="#3399FF" opacity="0.08" />
    <line x1="480" y1="24" x2="480" y2="408" stroke="#0066CC" stroke-width="0.75" />
    <line x1="576" y1="24" x2="576" y2="408" stroke="#0066CC" stroke-width="0.75" />
    <text x="528.0" y="20" text-anchor="middle" font-size="9" fill="#0066CC" font-family="Ubuntu Sans, sans-serif">96px</text>
    <rect x="216" y="24" width="24" height="384" fill="#9933FF" opacity="0.06" />
    <text x="228.0" y="20" text-anchor="middle" font-size="7" fill="#9933FF" font-family="Ubuntu Sans, sans-serif">24</text>
    <rect x="336" y="24" width="24" height="384" fill="#9933FF" opacity="0.06" />
    <text x="348.0" y="20" text-anchor="middle" font-size="7" fill="#9933FF" font-family="Ubuntu Sans, sans-serif">24</text>
    <rect x="456" y="24" width="24" height="384" fill="#9933FF" opacity="0.06" />
    <text x="468.0" y="20" text-anchor="middle" font-size="7" fill="#9933FF" font-family="Ubuntu Sans, sans-serif">24</text>
    <rect x="24" y="24" width="552" height="88" fill="#3399FF" opacity="0.08" />
    <line x1="24" y1="24" x2="576" y2="24" stroke="#0066CC" stroke-width="0.75" />
    <line x1="24" y1="112" x2="576" y2="112" stroke="#0066CC" stroke-width="0.75" />
    <text x="580" y="71.0" font-size="9" fill="#0066CC" font-family="Ubuntu Sans, sans-serif">88px</text>
    <rect x="24" y="136" width="552" height="48" fill="#3399FF" opacity="0.08" />
    <line x1="24" y1="136" x2="576" y2="136" stroke="#0066CC" stroke-width="0.75" />
    <line x1="24" y1="184" x2="576" y2="184" stroke="#0066CC" stroke-width="0.75" />
    <text x="580" y="163.0" font-size="9" fill="#0066CC" font-family="Ubuntu Sans, sans-serif">48px</text>
    <rect x="24" y="208" width="552" height="48" fill="#3399FF" opacity="0.08" />
    <line x1="24" y1="208" x2="576" y2="208" stroke="#0066CC" stroke-width="0.75" />
    <line x1="24" y1="256" x2="576" y2="256" stroke="#0066CC" stroke-width="0.75" />
    <text x="580" y="235.0" font-size="9" fill="#0066CC" font-family="Ubuntu Sans, sans-serif">48px</text>
    <rect x="24" y="280" width="552" height="64" fill="#3399FF" opacity="0.08" />
    <line x1="24" y1="280" x2="576" y2="280" stroke="#0066CC" stroke-width="0.75" />
    <line x1="24" y1="344" x2="576" y2="344" stroke="#0066CC" stroke-width="0.75" />
    <text x="580" y="315.0" font-size="9" fill="#0066CC" font-family="Ubuntu Sans, sans-serif">64px</text>
    <rect x="24" y="368" width="552" height="48" fill="#3399FF" opacity="0.08" />
    <line x1="24" y1="368" x2="576" y2="368" stroke="#0066CC" stroke-width="0.75" />
    <line x1="24" y1="416" x2="576" y2="416" stroke="#0066CC" stroke-width="0.75" />
    <text x="580" y="395.0" font-size="9" fill="#0066CC" font-family="Ubuntu Sans, sans-serif">48px</text>
    <rect x="24" y="112" width="552" height="24" fill="#9933FF" opacity="0.06" />
    <text x="580" y="127.0" font-size="7" fill="#9933FF" font-family="Ubuntu Sans, sans-serif">24</text>
    <rect x="24" y="184" width="552" height="24" fill="#9933FF" opacity="0.06" />
    <text x="580" y="199.0" font-size="7" fill="#9933FF" font-family="Ubuntu Sans, sans-serif">24</text>
    <rect x="24" y="256" width="552" height="24" fill="#9933FF" opacity="0.06" />
    <text x="580" y="271.0" font-size="7" fill="#9933FF" font-family="Ubuntu Sans, sans-serif">24</text>
    <rect x="24" y="344" width="552" height="24" fill="#9933FF" opacity="0.06" />
    <text x="580" y="359.0" font-size="7" fill="#9933FF" font-family="Ubuntu Sans, sans-serif">24</text>
  </g>
</svg>
