<svg xmlns="http://www.w3.org/2000/svg" width="928" height="944" viewBox="0 0 928 944" xml:space="preserve">
  <rect width="928" height="944" fill="#FFFFFF" />
  <g data-component-id="left">
  <rect x="16" y="24" width="440" height="336" fill="#FFFFFF" stroke="#000000" stroke-width="1" stroke-miterlimit="10" />
  <text font-family="Ubuntu Sans">
    <tspan x="24" y="48.92" font-size="18" font-weight="700" fill="#000000">Logic + data conflict</tspan>
  </text>
  </g>
  <g data-component-id="_auto_left_1">
  <rect x="24" y="96" width="200" height="64" fill="#F3F3F3" stroke="#000000" stroke-width="1" stroke-miterlimit="10" />
  <text font-family="Ubuntu Sans">
    <tspan x="32" y="120.92" font-size="18" font-weight="400" fill="#000000">CPU</tspan>
  </text>
  <g class="dg-icon" transform="translate(168 104)">
<path fill-rule="evenodd" clip-rule="evenodd" d="M33.5 45H32.5V39H24.5V45H23.5V39H15.5V45H14.5V39H10.5C9.72334 39 9.08461 38.4097 9.00781 37.6533L9 37.5V33.5H3V32.5H9V24.5H3V23.5H9V15.5H3V14.5H9V10.5C9 9.67157 9.67157 9 10.5 9H14.5V3H15.5V9H23.5V3H24.5V9H32.5V3H33.5V9H37.5L37.6533 9.00781C38.4097 9.08461 39 9.72334 39 10.5V14.5H45V15.5H39V23.5H45V24.5H39V32.5H45V33.5H39V37.5L38.9922 37.6533C38.9205 38.3593 38.3593 38.9205 37.6533 38.9922L37.5 39H33.5V45ZM10.5 10C10.2239 10 10 10.2239 10 10.5V37.5C10 37.7761 10.2239 38 10.5 38H37.5C37.7761 38 38 37.7761 38 37.5V10.5C38 10.2239 37.7761 10 37.5 10H10.5Z" fill="#000000" />

<path fill-rule="evenodd" clip-rule="evenodd" d="M30 30H18V18H30V30ZM19 29H29V19H19V29Z" fill="#000000" />

  </g>
  </g>
  <g data-component-id="_auto_left_2">
  <rect x="248" y="96" width="200" height="64" fill="#FFFFFF" stroke="#000000" stroke-width="1" stroke-miterlimit="10" />
  <text font-family="Ubuntu Sans">
    <tspan x="256" y="120.92" font-size="18" font-weight="400" fill="#000000">Logic</tspan>
  </text>
  </g>
  <g data-component-id="_auto_left_3">
  <rect x="24" y="168" width="200" height="64" fill="#FFFFFF" stroke="#000000" stroke-width="1" stroke-miterlimit="10" />
  <text font-family="Ubuntu Sans">
    <tspan x="32" y="192.92" font-size="18" font-weight="400" fill="#000000">Logic</tspan>
  </text>
  </g>
  <g data-component-id="_auto_left_4">
  <rect x="24" y="240" width="200" height="64" fill="#F3F3F3" stroke="#000000" stroke-width="1" stroke-miterlimit="10" />
  <text font-family="Ubuntu Sans">
    <tspan x="32" y="264.92" font-size="18" font-weight="400" fill="#000000">Memory</tspan>
  </text>
  <g class="dg-icon" transform="translate(168 248)">
<path d="M34.5 23.5C35.6046 23.5 36.5 24.3954 36.5 25.5V39H35.5V25.5C35.5 24.9477 35.0523 24.5 34.5 24.5H13.5C12.9477 24.5 12.5 24.9477 12.5 25.5V39H11.5V25.5C11.5 24.3954 12.3954 23.5 13.5 23.5H34.5Z" fill="#000000" />

<path fill-rule="evenodd" clip-rule="evenodd" d="M40.5 6C41.3284 6 42 6.67157 42 7.5V40.5C42 41.3284 41.3284 42 40.5 42H7.5C6.67157 42 6 41.3284 6 40.5V13.9141C6.00004 13.682 6.08071 13.4582 6.22656 13.2803L6.29297 13.207L13.207 6.29297C13.3945 6.10547 13.6489 6.00004 13.9141 6H40.5ZM7 13.9141V40.5C7 40.7761 7.22386 41 7.5 41H40.5C40.7761 41 41 40.7761 41 40.5V7.5C41 7.22386 40.7761 7 40.5 7H36.5V15H35.5V7H30.5V15H29.5V7H24.5V15H23.5V7H18.5V15H17.5V7H13.9141L7 13.9141Z" fill="#000000" />

  </g>
  </g>
  <g data-component-id="right_panel">
  <rect x="464" y="24" width="440" height="336" fill="#FFFFFF" stroke="#000000" stroke-width="1" stroke-miterlimit="10" />
  <text font-family="Ubuntu Sans">
    <tspan x="472" y="48.92" font-size="18" font-weight="700" fill="#000000">AI inference</tspan>
  </text>
  </g>
  <g data-component-id="r_logic">
  <rect x="472" y="112" width="200" height="64" fill="#FFFFFF" stroke="#000000" stroke-width="1" stroke-miterlimit="10" />
  <text font-family="Ubuntu Sans">
    <tspan x="480" y="136.92" font-size="18" font-weight="400" fill="#000000">Logic</tspan>
  </text>
  <g class="dg-icon" transform="translate(616 120)">
<path fill-rule="evenodd" clip-rule="evenodd" d="M30.1585 29.5527C31.5389 29.553 32.6585 30.6722 32.6585 32.0527C32.6584 33.4332 31.5389 34.5525 30.1585 34.5527C28.7778 34.5527 27.6585 33.4334 27.6585 32.0527C27.6585 30.672 28.7778 29.5527 30.1585 29.5527ZM30.1585 30.5527C29.33 30.5527 28.6585 31.2243 28.6585 32.0527C28.6585 32.8811 29.3301 33.5527 30.1585 33.5527C30.9866 33.5525 31.6584 32.8809 31.6585 32.0527C31.6585 31.2245 30.9867 30.553 30.1585 30.5527Z" fill="#000000" />

<path fill-rule="evenodd" clip-rule="evenodd" d="M16.8948 20.0791C18.2755 20.0791 19.3948 21.1984 19.3948 22.5791C19.3947 23.9597 18.2755 25.0791 16.8948 25.0791C15.5141 25.0791 14.3949 23.9597 14.3948 22.5791C14.3948 21.1984 15.5141 20.0791 16.8948 20.0791ZM16.8948 21.0791C16.0664 21.0791 15.3948 21.7507 15.3948 22.5791C15.3949 23.4075 16.0664 24.0791 16.8948 24.0791C17.7232 24.0791 18.3947 23.4075 18.3948 22.5791C18.3948 21.7507 17.7232 21.0791 16.8948 21.0791Z" fill="#000000" />

<path fill-rule="evenodd" clip-rule="evenodd" d="M32.5003 13.9209C33.8807 13.9212 35.0002 15.0404 35.0003 16.4209C35.0003 17.8014 33.8807 18.9206 32.5003 18.9209C31.1195 18.9209 30.0003 17.8016 30.0003 16.4209C30.0003 15.0403 31.1196 13.9209 32.5003 13.9209ZM32.5003 14.9209C31.6719 14.9209 31.0003 15.5925 31.0003 16.4209C31.0003 17.2493 31.6718 17.9209 32.5003 17.9209C33.3285 17.9206 34.0003 17.2492 34.0003 16.4209C34.0002 15.5927 33.3284 14.9212 32.5003 14.9209Z" fill="#000000" />

<path fill-rule="evenodd" clip-rule="evenodd" d="M26.617 5.5479C27.6617 5.42222 28.7243 5.54512 29.7069 5.90533C30.6895 6.26564 31.5634 6.8528 32.2459 7.61626C32.9287 8.38004 33.3986 9.29556 33.6082 10.2793L33.8397 11.3663L34.4852 11.4874C36.0585 11.7832 37.4803 12.5822 38.5057 13.7549C39.5317 14.9284 40.0967 16.404 40.0975 17.9317V18.377C40.0975 19.9138 39.4955 21.3138 38.5106 22.3848C39.7662 23.1025 40.8039 24.1249 41.5076 25.3545C42.327 26.7862 42.6515 28.4253 42.4334 30.042C42.2153 31.6583 41.4665 33.1662 40.2967 34.3575C39.2032 35.471 37.7926 36.2564 36.241 36.626L36.2186 36.7276C35.9528 37.9731 35.3423 39.1277 34.452 40.0752C33.5619 41.0225 32.4232 41.7295 31.1541 42.129C29.8853 42.5282 28.5272 42.6066 27.2166 42.3565C26.4088 42.2023 25.6354 41.9266 24.9256 41.542C24.5309 41.3281 24.2258 41.0269 23.9998 40.6788C23.7739 41.0268 23.4688 41.3281 23.074 41.542C22.3643 41.9266 21.5909 42.2023 20.783 42.3565C19.4725 42.6066 18.1144 42.5283 16.8455 42.129C15.5765 41.7295 14.4378 41.0225 13.5477 40.0752C12.6574 39.1277 12.0468 37.9731 11.7811 36.7276L11.7586 36.626C10.2071 36.2564 8.79642 35.471 7.70296 34.3575C6.53321 33.1662 5.78436 31.6583 5.56624 30.042C5.34813 28.4253 5.6727 26.7862 6.49202 25.3545C7.19578 24.1249 8.23347 23.1025 9.48909 22.3848C8.50421 21.3138 7.90218 19.9138 7.90217 18.377V17.9317C7.90295 16.404 8.46797 14.9284 9.49397 13.7549C10.5194 12.5822 11.9412 11.7833 13.5145 11.4874L14.16 11.3663L14.3914 10.2793C14.601 9.29561 15.071 8.38002 15.7537 7.61626C16.4363 6.85281 17.3102 6.26566 18.2928 5.90533C19.2753 5.5451 20.3379 5.42225 21.3826 5.5479C21.8497 5.60413 22.3076 5.7094 22.7469 5.8604C23.3008 6.05083 23.7136 6.41256 23.9998 6.85552C24.2861 6.41253 24.6989 6.05087 25.2528 5.8604C25.6921 5.70939 26.15 5.60414 26.617 5.5479ZM21.2635 6.54107C20.3742 6.43406 19.4709 6.5383 18.6375 6.8438C17.8042 7.14935 17.0688 7.64567 16.4989 8.28325C15.9293 8.92057 15.5422 9.67948 15.3699 10.4883L15.0828 11.8379C15.0553 12.4842 15.0659 13.1757 15.3114 13.753C15.5406 14.292 15.9949 14.7783 16.9959 14.9834L16.7948 15.9639C16.7801 15.9609 16.7653 15.9563 16.7508 15.9532L16.7489 15.9639C15.4388 15.6954 14.7084 14.9971 14.3455 14.1436C14.1022 13.5711 14.0363 12.9524 14.0282 12.4073L13.699 12.4708C12.3377 12.7268 11.1191 13.4157 10.2469 14.4131C9.37536 15.41 8.90282 16.6541 8.90217 17.9327V18.377C8.90219 19.8531 9.57346 21.1905 10.661 22.1319C10.7892 22.2429 10.8525 22.4121 10.8289 22.5801C10.8053 22.748 10.6975 22.8925 10.5438 22.9639C9.18317 23.5961 8.07223 24.6075 7.36018 25.8516C6.64846 27.0953 6.36822 28.5129 6.55647 29.9083C6.74478 31.3039 7.39339 32.615 8.41682 33.6573C9.30461 34.5613 10.4374 35.2226 11.6932 35.5752C11.7394 34.7923 11.8994 33.931 12.3123 33.1641C12.8574 32.1522 13.8191 31.3481 15.3914 31.086L15.4744 31.5792L15.5565 32.0723C14.2871 32.2839 13.5908 32.9006 13.1932 33.6387C12.7915 34.3846 12.6752 35.2952 12.6776 36.1368L12.7586 36.5186C12.9852 37.5807 13.5083 38.5724 14.2772 39.3907C15.0462 40.209 16.0351 40.8254 17.1453 41.1749C18.2559 41.5244 19.4466 41.5933 20.5955 41.3741C21.3033 41.239 21.9789 40.9973 22.5975 40.6622C23.1742 40.3496 23.4998 39.6749 23.4998 38.9083V31.1309H19.8944C17.9616 31.1307 16.3944 29.5638 16.3944 27.6309V26.3682H17.3944V27.6309C17.3944 29.0115 18.5138 30.1307 19.8944 30.1309H23.4998V8.627C23.4997 7.76453 23.0902 7.03536 22.4227 6.80572C22.0501 6.67761 21.6609 6.5889 21.2635 6.54107ZM29.3621 6.8438C28.5288 6.53832 27.6254 6.43403 26.7362 6.54107C26.3388 6.58891 25.9496 6.6776 25.577 6.80572C24.9096 7.03542 24.4999 7.7646 24.4998 8.627V15.9209H28.4998V16.9209H24.4998V38.9083C24.4998 39.6748 24.8256 40.3496 25.4022 40.6622C26.0207 40.9973 26.6964 41.2389 27.4041 41.3741C28.553 41.5934 29.7437 41.5244 30.8543 41.1749C31.9646 40.8254 32.9534 40.209 33.7225 39.3907C34.4914 38.5724 35.0144 37.5807 35.241 36.5186L35.3289 36.1026C35.3655 35.9316 35.4888 35.7941 35.6502 35.7364L35.7215 35.7168L35.9989 35.6563C37.3774 35.3299 38.623 34.6346 39.5828 33.6573C40.6063 32.615 41.2549 31.3039 41.4432 29.9083C41.6314 28.5128 41.3512 27.0953 40.6395 25.8516C39.9691 24.6803 38.9452 23.7157 37.6922 23.0792H33.158C31.7773 23.0792 30.658 24.1984 30.658 25.5792V28.2637H29.658V25.5792C29.658 23.6462 31.225 22.0792 33.158 22.0792H37.3973C38.45 21.1409 39.0975 19.8262 39.0975 18.377V17.9327C39.0968 16.654 38.6244 15.41 37.7528 14.4131C36.8806 13.4157 35.662 12.7268 34.3006 12.4708L33.327 12.2881C33.1285 12.251 32.9715 12.098 32.9295 11.9004L32.6297 10.4883C32.4574 9.67944 32.0704 8.9206 31.5008 8.28325C30.9308 7.64566 30.1955 7.14934 29.3621 6.8438Z" fill="#000000" />

  </g>
  </g>
  <g data-component-id="r_data">
  <rect x="472" y="200" width="200" height="64" fill="#F3F3F3" stroke="#000000" stroke-width="1" stroke-miterlimit="10" />
  <text font-family="Ubuntu Sans">
    <tspan x="480" y="224.92" font-size="18" font-weight="400" fill="#000000">Data</tspan>
  </text>
  <g class="dg-icon" transform="translate(616 208)">
<path fill-rule="evenodd" clip-rule="evenodd" d="M24 5.5C28.1932 5.5 32.0137 6.23441 34.8047 7.44238C36.1994 8.04605 37.3599 8.77811 38.1787 9.61621C38.8832 10.3373 39.35 11.1566 39.4688 12.0469H39.5V35.5059C39.5 36.57 38.9997 37.5434 38.1787 38.3838C37.3599 39.2218 36.1992 39.953 34.8047 40.5566C32.0137 41.7647 28.1933 42.5 24 42.5C19.8067 42.5 15.9863 41.7647 13.1953 40.5566C11.8008 39.953 10.6401 39.2218 9.82129 38.3838C9.00029 37.5434 8.5 36.57 8.5 35.5059V12.0469H8.53125C8.64998 11.1566 9.11676 10.3373 9.82129 9.61621C10.6401 8.77811 11.8006 8.04605 13.1953 7.44238C15.9863 6.23441 19.8068 5.5 24 5.5ZM38.5 30.3564C38.3992 30.4776 38.2922 30.5967 38.1787 30.7129C37.3599 31.5509 36.1992 32.2821 34.8047 32.8857C32.0137 34.0938 28.1933 34.8291 24 34.8291C19.8067 34.8291 15.9863 34.0938 13.1953 32.8857C11.8008 32.2821 10.6401 31.5509 9.82129 30.7129C9.70776 30.5967 9.60078 30.4776 9.5 30.3564V35.5059C9.5 36.2354 9.83927 36.9712 10.5361 37.6846C11.2355 38.4004 12.2729 39.0683 13.5928 39.6396C16.2309 40.7815 19.9102 41.5 24 41.5C28.0898 41.5 31.7691 40.7815 34.4072 39.6396C35.7271 39.0683 36.7645 38.4004 37.4639 37.6846C38.1607 36.9712 38.5 36.2354 38.5 35.5059V30.3564ZM38.5 22.6855C38.3992 22.8067 38.2922 22.9258 38.1787 23.042C37.3599 23.88 36.1992 24.6112 34.8047 25.2148C32.0137 26.4229 28.1933 27.1582 24 27.1582C19.8067 27.1582 15.9863 26.4229 13.1953 25.2148C11.8008 24.6112 10.6401 23.88 9.82129 23.042C9.70776 22.9258 9.60078 22.8067 9.5 22.6855V27.835C9.5 28.5645 9.83931 29.3003 10.5361 30.0137C11.2355 30.7295 12.2729 31.3975 13.5928 31.9688C16.2309 33.1106 19.9102 33.8291 24 33.8291C28.0898 33.8291 31.7691 33.1106 34.4072 31.9688C35.7271 31.3975 36.7645 30.7295 37.4639 30.0137C38.1607 29.3003 38.5 28.5645 38.5 27.835V22.6855ZM38.5 15.0137C38.3991 15.135 38.2924 15.2547 38.1787 15.3711C37.3599 16.2092 36.1994 16.9413 34.8047 17.5449C32.0137 18.7529 28.1933 19.4873 24 19.4873C19.8067 19.4873 15.9863 18.7529 13.1953 17.5449C11.8006 16.9413 10.6401 16.2092 9.82129 15.3711C9.70759 15.2547 9.60093 15.135 9.5 15.0137V20.1641C9.5 20.8936 9.83934 21.6294 10.5361 22.3428C11.2355 23.0586 12.2729 23.7266 13.5928 24.2979C16.2309 25.4397 19.9102 26.1582 24 26.1582C28.0898 26.1582 31.7691 25.4397 34.4072 24.2979C35.7271 23.7266 36.7645 23.0586 37.4639 22.3428C38.1607 21.6294 38.5 20.8936 38.5 20.1641V15.0137ZM24 6.5C19.9102 6.5 16.231 7.21852 13.5928 8.36035C12.2729 8.93166 11.2355 9.59958 10.5361 10.3154C9.83927 11.0288 9.5 11.7646 9.5 12.4941C9.5001 13.2237 9.83915 13.9594 10.5361 14.6729C11.2355 15.3887 12.2729 16.0556 13.5928 16.627C16.231 17.7688 19.9101 18.4873 24 18.4873C28.0899 18.4873 31.769 17.7688 34.4072 16.627C35.7271 16.0556 36.7645 15.3887 37.4639 14.6729C38.1608 13.9594 38.4999 13.2237 38.5 12.4941C38.5 11.7646 38.1607 11.0288 37.4639 10.3154C36.7645 9.59958 35.7271 8.93166 34.4072 8.36035C31.769 7.21852 28.0898 6.5 24 6.5Z" fill="#000000" />

<path d="M36 20.5C36 21.0523 35.5523 21.5 35 21.5C34.4477 21.5 34 21.0523 34 20.5C34 19.9477 34.4477 19.5 35 19.5C35.5523 19.5 36 19.9477 36 20.5Z" fill="#000000" />

<path d="M36 28C36 28.5523 35.5523 29 35 29C34.4477 29 34 28.5523 34 28C34 27.4477 34.4477 27 35 27C35.5523 27 36 27.4477 36 28Z" fill="#000000" />

<path d="M36 35.5C36 36.0523 35.5523 36.5 35 36.5C34.4477 36.5 34 36.0523 34 35.5C34 34.9477 34.4477 34.5 35 34.5C35.5523 34.5 36 34.9477 36 35.5Z" fill="#000000" />

  </g>
  </g>
  <g data-component-id="r_cpu">
  <rect x="472" y="288" width="200" height="64" fill="#FFFFFF" stroke="#000000" stroke-width="1" stroke-miterlimit="10" />
  <text font-family="Ubuntu Sans">
    <tspan x="480" y="312.92" font-size="18" font-weight="400" fill="#000000">CPU</tspan>
  </text>
  <g class="dg-icon" transform="translate(616 296)">
<path fill-rule="evenodd" clip-rule="evenodd" d="M33.5 45H32.5V39H24.5V45H23.5V39H15.5V45H14.5V39H10.5C9.72334 39 9.08461 38.4097 9.00781 37.6533L9 37.5V33.5H3V32.5H9V24.5H3V23.5H9V15.5H3V14.5H9V10.5C9 9.67157 9.67157 9 10.5 9H14.5V3H15.5V9H23.5V3H24.5V9H32.5V3H33.5V9H37.5L37.6533 9.00781C38.4097 9.08461 39 9.72334 39 10.5V14.5H45V15.5H39V23.5H45V24.5H39V32.5H45V33.5H39V37.5L38.9922 37.6533C38.9205 38.3593 38.3593 38.9205 37.6533 38.9922L37.5 39H33.5V45ZM10.5 10C10.2239 10 10 10.2239 10 10.5V37.5C10 37.7761 10.2239 38 10.5 38H37.5C37.7761 38 38 37.7761 38 37.5V10.5C38 10.2239 37.7761 10 37.5 10H10.5Z" fill="#000000" />

<path fill-rule="evenodd" clip-rule="evenodd" d="M30 30H18V18H30V30ZM19 29H29V19H19V29Z" fill="#000000" />

  </g>
  </g>
  <g data-component-id="r_data2">
  <rect x="696" y="112" width="200" height="64" fill="#FFFFFF" stroke="#000000" stroke-width="1" stroke-miterlimit="10" />
  <text font-family="Ubuntu Sans">
    <tspan x="704" y="136.92" font-size="18" font-weight="400" fill="#000000">Data</tspan>
  </text>
  <g class="dg-icon" transform="translate(840 120)">
<path fill-rule="evenodd" clip-rule="evenodd" d="M24 5.5C28.1932 5.5 32.0137 6.23441 34.8047 7.44238C36.1994 8.04605 37.3599 8.77811 38.1787 9.61621C38.8832 10.3373 39.35 11.1566 39.4688 12.0469H39.5V35.5059C39.5 36.57 38.9997 37.5434 38.1787 38.3838C37.3599 39.2218 36.1992 39.953 34.8047 40.5566C32.0137 41.7647 28.1933 42.5 24 42.5C19.8067 42.5 15.9863 41.7647 13.1953 40.5566C11.8008 39.953 10.6401 39.2218 9.82129 38.3838C9.00029 37.5434 8.5 36.57 8.5 35.5059V12.0469H8.53125C8.64998 11.1566 9.11676 10.3373 9.82129 9.61621C10.6401 8.77811 11.8006 8.04605 13.1953 7.44238C15.9863 6.23441 19.8068 5.5 24 5.5ZM38.5 30.3564C38.3992 30.4776 38.2922 30.5967 38.1787 30.7129C37.3599 31.5509 36.1992 32.2821 34.8047 32.8857C32.0137 34.0938 28.1933 34.8291 24 34.8291C19.8067 34.8291 15.9863 34.0938 13.1953 32.8857C11.8008 32.2821 10.6401 31.5509 9.82129 30.7129C9.70776 30.5967 9.60078 30.4776 9.5 30.3564V35.5059C9.5 36.2354 9.83927 36.9712 10.5361 37.6846C11.2355 38.4004 12.2729 39.0683 13.5928 39.6396C16.2309 40.7815 19.9102 41.5 24 41.5C28.0898 41.5 31.7691 40.7815 34.4072 39.6396C35.7271 39.0683 36.7645 38.4004 37.4639 37.6846C38.1607 36.9712 38.5 36.2354 38.5 35.5059V30.3564ZM38.5 22.6855C38.3992 22.8067 38.2922 22.9258 38.1787 23.042C37.3599 23.88 36.1992 24.6112 34.8047 25.2148C32.0137 26.4229 28.1933 27.1582 24 27.1582C19.8067 27.1582 15.9863 26.4229 13.1953 25.2148C11.8008 24.6112 10.6401 23.88 9.82129 23.042C9.70776 22.9258 9.60078 22.8067 9.5 22.6855V27.835C9.5 28.5645 9.83931 29.3003 10.5361 30.0137C11.2355 30.7295 12.2729 31.3975 13.5928 31.9688C16.2309 33.1106 19.9102 33.8291 24 33.8291C28.0898 33.8291 31.7691 33.1106 34.4072 31.9688C35.7271 31.3975 36.7645 30.7295 37.4639 30.0137C38.1607 29.3003 38.5 28.5645 38.5 27.835V22.6855ZM38.5 15.0137C38.3991 15.135 38.2924 15.2547 38.1787 15.3711C37.3599 16.2092 36.1994 16.9413 34.8047 17.5449C32.0137 18.7529 28.1933 19.4873 24 19.4873C19.8067 19.4873 15.9863 18.7529 13.1953 17.5449C11.8006 16.9413 10.6401 16.2092 9.82129 15.3711C9.70759 15.2547 9.60093 15.135 9.5 15.0137V20.1641C9.5 20.8936 9.83934 21.6294 10.5361 22.3428C11.2355 23.0586 12.2729 23.7266 13.5928 24.2979C16.2309 25.4397 19.9102 26.1582 24 26.1582C28.0898 26.1582 31.7691 25.4397 34.4072 24.2979C35.7271 23.7266 36.7645 23.0586 37.4639 22.3428C38.1607 21.6294 38.5 20.8936 38.5 20.1641V15.0137ZM24 6.5C19.9102 6.5 16.231 7.21852 13.5928 8.36035C12.2729 8.93166 11.2355 9.59958 10.5361 10.3154C9.83927 11.0288 9.5 11.7646 9.5 12.4941C9.5001 13.2237 9.83915 13.9594 10.5361 14.6729C11.2355 15.3887 12.2729 16.0556 13.5928 16.627C16.231 17.7688 19.9101 18.4873 24 18.4873C28.0899 18.4873 31.769 17.7688 34.4072 16.627C35.7271 16.0556 36.7645 15.3887 37.4639 14.6729C38.1608 13.9594 38.4999 13.2237 38.5 12.4941C38.5 11.7646 38.1607 11.0288 37.4639 10.3154C36.7645 9.59958 35.7271 8.93166 34.4072 8.36035C31.769 7.21852 28.0898 6.5 24 6.5Z" fill="#000000" />

<path d="M36 20.5C36 21.0523 35.5523 21.5 35 21.5C34.4477 21.5 34 21.0523 34 20.5C34 19.9477 34.4477 19.5 35 19.5C35.5523 19.5 36 19.9477 36 20.5Z" fill="#000000" />

<path d="M36 28C36 28.5523 35.5523 29 35 29C34.4477 29 34 28.5523 34 28C34 27.4477 34.4477 27 35 27C35.5523 27 36 27.4477 36 28Z" fill="#000000" />

<path d="M36 35.5C36 36.0523 35.5523 36.5 35 36.5C34.4477 36.5 34 36.0523 34 35.5C34 34.9477 34.4477 34.5 35 34.5C35.5523 34.5 36 34.9477 36 35.5Z" fill="#000000" />

  </g>
  </g>
  <g data-component-id="r_memory">
  <rect x="696" y="288" width="200" height="64" fill="#F3F3F3" stroke="#000000" stroke-width="1" stroke-miterlimit="10" />
  <text font-family="Ubuntu Sans">
    <tspan x="704" y="312.92" font-size="18" font-weight="400" fill="#000000">Memory</tspan>
  </text>
  <g class="dg-icon" transform="translate(840 296)">
<path d="M34.5 23.5C35.6046 23.5 36.5 24.3954 36.5 25.5V39H35.5V25.5C35.5 24.9477 35.0523 24.5 34.5 24.5H13.5C12.9477 24.5 12.5 24.9477 12.5 25.5V39H11.5V25.5C11.5 24.3954 12.3954 23.5 13.5 23.5H34.5Z" fill="#000000" />

<path fill-rule="evenodd" clip-rule="evenodd" d="M40.5 6C41.3284 6 42 6.67157 42 7.5V40.5C42 41.3284 41.3284 42 40.5 42H7.5C6.67157 42 6 41.3284 6 40.5V13.9141C6.00004 13.682 6.08071 13.4582 6.22656 13.2803L6.29297 13.207L13.207 6.29297C13.3945 6.10547 13.6489 6.00004 13.9141 6H40.5ZM7 13.9141V40.5C7 40.7761 7.22386 41 7.5 41H40.5C40.7761 41 41 40.7761 41 40.5V7.5C41 7.22386 40.7761 7 40.5 7H36.5V15H35.5V7H30.5V15H29.5V7H24.5V15H23.5V7H18.5V15H17.5V7H13.9141L7 13.9141Z" fill="#000000" />

  </g>
  </g>
  <g data-component-id="_auto_8">
  <rect x="24" y="384" width="424" height="64" fill="#FFFFFF" stroke="none" stroke-width="1" stroke-miterlimit="10" />
  <text font-family="Ubuntu Sans">
    <tspan x="32" y="408.92" font-size="18" font-weight="400" fill="#666666">Logic with optional data.</tspan>
    <tspan x="32" y="432.92" font-size="18" font-weight="400" fill="#666666">Optional data can stay separate.</tspan>
  </text>
  </g>
  <g data-component-id="_auto_9">
  <rect x="472" y="384" width="424" height="40" fill="#FFFFFF" stroke="none" stroke-width="1" stroke-miterlimit="10" />
  <text font-family="Ubuntu Sans">
    <tspan x="480" y="408.92" font-size="18" font-weight="400" fill="#666666">Logic inseparable from data.</tspan>
  </text>
  </g>
  <g data-component-id="vram">
  <rect x="16" y="472" width="888" height="360" fill="#FFFFFF" stroke="#000000" stroke-width="1" stroke-miterlimit="10" />
  <text font-family="Ubuntu Sans">
    <tspan x="24" y="496.92" font-size="18" font-weight="700" fill="#000000">VRAM fragmentation</tspan>
  </text>
  </g>
  <g data-component-id="frag">
  <rect x="24" y="560" width="424" height="264" fill="#F3F3F3" stroke="#000000" stroke-width="1" stroke-miterlimit="10" />
  <text font-family="Ubuntu Sans">
    <tspan x="32" y="584.92" font-size="18" font-weight="700" fill="#000000">Fragmented layout</tspan>
  </text>
  </g>
  <rect x="32" y="648" width="408" height="40" fill="#FFFFFF" stroke="#000000" stroke-width="1" stroke-miterlimit="10" />
  <text font-family="Ubuntu Sans">
    <tspan x="40" y="672.92" font-size="18" font-weight="400" fill="#000000">10 GB</tspan>
  </text>
  <rect x="32" y="712" width="408" height="40" fill="#FFFFFF" stroke="#000000" stroke-width="1" stroke-miterlimit="10" />
  <text font-family="Ubuntu Sans">
    <tspan x="40" y="736.92" font-size="18" font-weight="400" fill="#000000">6 GB context cache</tspan>
  </text>
  <rect x="32" y="776" width="72" height="40" fill="#FFFFFF" stroke="#000000" stroke-width="1" stroke-miterlimit="10" />
  <rect x="104" y="776" width="56" height="40" fill="#F3F3F3" stroke="#000000" stroke-width="1" stroke-miterlimit="10" />
  <rect x="160" y="776" width="88" height="40" fill="#FFFFFF" stroke="#000000" stroke-width="1" stroke-miterlimit="10" />
  <rect x="248" y="776" width="40" height="40" fill="#F3F3F3" stroke="#000000" stroke-width="1" stroke-miterlimit="10" />
  <rect x="288" y="776" width="152" height="40" fill="#FFFFFF" stroke="#000000" stroke-width="1" stroke-miterlimit="10" />
  <g data-component-id="frag">
  <g class="dg-icon" transform="translate(392 568)">
<path fill-rule="evenodd" clip-rule="evenodd" d="M38.5 42H37.5V36H31.5V42H30.5V36H24.5V42H23.5V36H17.5V42H16.5V36H10.5V42H9.5V36H4.5L4.34668 35.9922C3.59028 35.9154 3 35.2767 3 34.5V13.5C3 12.6716 3.67157 12 4.5 12H9.5V6H10.5V12H16.5V6H17.5V12H23.5V6H24.5V12H30.5V6H31.5V12H37.5V6H38.5V12H43.5C44.3284 12 45 12.6716 45 13.5V34.5C45 35.2767 44.4097 35.9154 43.6533 35.9922L43.5 36H38.5V42ZM4.5 13C4.22386 13 4 13.2239 4 13.5V34.5C4 34.7761 4.22386 35 4.5 35H43.5C43.7761 35 44 34.7761 44 34.5V13.5C44 13.2239 43.7761 13 43.5 13H4.5Z" fill="#000000" />

<path fill-rule="evenodd" clip-rule="evenodd" d="M15 30H9V18H15V30ZM10 29H14V19H10V29Z" fill="#000000" />

<path fill-rule="evenodd" clip-rule="evenodd" d="M23 30H17V18H23V30ZM18 29H22V19H18V29Z" fill="#000000" />

<path fill-rule="evenodd" clip-rule="evenodd" d="M31 30H25V18H31V30ZM26 29H30V19H26V29Z" fill="#000000" />

<path fill-rule="evenodd" clip-rule="evenodd" d="M39 30H33V18H39V30ZM34 29H38V19H34V29Z" fill="#000000" />

  </g>
  </g>
  <g data-component-id="packed">
  <rect x="472" y="560" width="424" height="264" fill="#F3F3F3" stroke="#000000" stroke-width="1" stroke-miterlimit="10" />
  <text font-family="Ubuntu Sans">
    <tspan x="480" y="584.92" font-size="18" font-weight="700" fill="#000000">Packed layout</tspan>
  </text>
  </g>
  <rect x="480" y="648" width="408" height="40" fill="#FFFFFF" stroke="#000000" stroke-width="1" stroke-miterlimit="10" />
  <text font-family="Ubuntu Sans">
    <tspan x="488" y="672.92" font-size="18" font-weight="400" fill="#000000">24 GB GPU memory</tspan>
  </text>
  <rect x="480" y="712" width="72" height="40" fill="#FFFFFF" stroke="#000000" stroke-width="1" stroke-miterlimit="10" />
  <text font-family="Ubuntu Sans">
    <tspan x="488" y="736.92" font-size="18" font-weight="400" fill="#000000">9 GB</tspan>
  </text>
  <rect x="552" y="712" width="112" height="40" fill="#F3F3F3" stroke="#000000" stroke-width="1" stroke-miterlimit="10" />
  <text font-family="Ubuntu Sans">
    <tspan x="560" y="736.92" font-size="18" font-weight="400" fill="#000000">Alloc</tspan>
  </text>
  <rect x="664" y="712" width="224" height="40" fill="#FFFFFF" stroke="#000000" stroke-width="1" stroke-miterlimit="10" />
  <rect x="480" y="776" width="220" height="40" fill="#F3F3F3" stroke="#000000" stroke-width="1" stroke-miterlimit="10" />
  <rect x="700" y="776" width="188" height="40" fill="#FFFFFF" stroke="#000000" stroke-width="1" stroke-miterlimit="10" />
  <text font-family="Ubuntu Sans">
    <tspan x="708" y="800.92" font-size="18" font-weight="400" fill="#000000">8 GB model</tspan>
  </text>
  <g data-component-id="packed">
  <g class="dg-icon" transform="translate(840 568)">
<path d="M34.5 23.5C35.6046 23.5 36.5 24.3954 36.5 25.5V39H35.5V25.5C35.5 24.9477 35.0523 24.5 34.5 24.5H13.5C12.9477 24.5 12.5 24.9477 12.5 25.5V39H11.5V25.5C11.5 24.3954 12.3954 23.5 13.5 23.5H34.5Z" fill="#000000" />

<path fill-rule="evenodd" clip-rule="evenodd" d="M40.5 6C41.3284 6 42 6.67157 42 7.5V40.5C42 41.3284 41.3284 42 40.5 42H7.5C6.67157 42 6 41.3284 6 40.5V13.9141C6.00004 13.682 6.08071 13.4582 6.22656 13.2803L6.29297 13.207L13.207 6.29297C13.3945 6.10547 13.6489 6.00004 13.9141 6H40.5ZM7 13.9141V40.5C7 40.7761 7.22386 41 7.5 41H40.5C40.7761 41 41 40.7761 41 40.5V7.5C41 7.22386 40.7761 7 40.5 7H36.5V15H35.5V7H30.5V15H29.5V7H24.5V15H23.5V7H18.5V15H17.5V7H13.9141L7 13.9141Z" fill="#000000" />

  </g>
  </g>
  <g data-component-id="_auto_11">
  <rect x="24" y="856" width="424" height="64" fill="#FFFFFF" stroke="none" stroke-width="1" stroke-miterlimit="10" />
  <text font-family="Ubuntu Sans">
    <tspan x="32" y="880.92" font-size="18" font-weight="400" fill="#666666">Fragmented allocations leave gaps.</tspan>
    <tspan x="32" y="904.92" font-size="18" font-weight="400" fill="#666666">GPU</tspan>
  </text>
  </g>
  <g data-component-id="_auto_12">
  <rect x="472" y="856" width="424" height="64" fill="#FFFFFF" stroke="none" stroke-width="1" stroke-miterlimit="10" />
  <text font-family="Ubuntu Sans">
    <tspan x="480" y="880.92" font-size="18" font-weight="400" fill="#666666">860 B free</tspan>
    <tspan x="480" y="904.92" font-size="18" font-weight="400" fill="#666666">GPU</tspan>
  </text>
  </g>
  <g data-component-id="_auto_5">
  <line x1="572" y1="176" x2="572" y2="189.1592" fill="none" stroke="#E95420" stroke-width="1" stroke-miterlimit="10" />
  <polygon points="569.0947,189.1592 572,200 574.9053,189.1592" fill="#E95420" />
  </g>
  <g data-component-id="_auto_6">
  <line x1="572" y1="264" x2="572" y2="277.1592" fill="none" stroke="#E95420" stroke-width="1" stroke-miterlimit="10" />
  <polygon points="569.0947,277.1592 572,288 574.9053,277.1592" fill="#E95420" />
  </g>
  <g data-component-id="_auto_7">
  <line x1="796" y1="176" x2="796" y2="277.1592" fill="none" stroke="#E95420" stroke-width="1" stroke-miterlimit="10" />
  <polygon points="793.0947,277.1592 796,288 798.9053,277.1592" fill="#E95420" />
  </g>
  <g data-component-id="_auto_10">
  <line x1="448" y1="692" x2="461.1592" y2="692" fill="none" stroke="#E95420" stroke-width="1" stroke-miterlimit="10" />
  <polygon points="461.1592,689.0947 472,692 461.1592,694.9053" fill="#E95420" />
  </g>
</svg>
