<svg xmlns="http://www.w3.org/2000/svg" width="640" height="624" viewBox="0 0 640 624" xml:space="preserve">
  <rect width="640" height="624" fill="#FFFFFF" />
  <g data-component-id="guidelines">
  <rect x="0" y="0" width="208" height="288" fill="#F3F3F3" stroke="none" stroke-width="1" stroke-miterlimit="10" />
  <text font-family="Ubuntu Sans">
    <tspan x="8" y="24.92" font-size="18" font-weight="700" fill="#000000">1. Guidelines</tspan>
  </text>
  </g>
  <g data-component-id="typo">
  <rect x="8" y="72" width="192" height="64" fill="#FFFFFF" stroke="#000000" stroke-width="1" stroke-miterlimit="10" />
  <text font-family="Ubuntu Sans">
    <tspan x="16" y="96.92" font-size="18" font-weight="400" fill="#000000">Typography</tspan>
  </text>
  <g class="dg-icon" transform="translate(144 80)">
<path d="M24.8232 33.0488H16.5879V31.9512H24.8232V33.0488Z" fill="#000000" />

<path d="M31.4111 28.1074H16.5879V27.0098H31.4111V28.1074Z" fill="#000000" />

<path d="M31.4111 23.166H16.5879V22.0684H31.4111V23.166Z" fill="#000000" />

<path fill-rule="evenodd" clip-rule="evenodd" d="M27.8809 4.5C28.0318 4.5 28.1766 4.56217 28.2803 4.67188L37.8496 14.7949C37.9459 14.8968 37.9999 15.0317 38 15.1719V42.9512L37.9893 43.0615C37.9454 43.2761 37.7761 43.4454 37.5615 43.4893L37.4512 43.5H10.5488C10.2835 43.4999 10.0619 43.3117 10.0107 43.0615L10 42.9512V5.04883C10.0001 4.74576 10.2458 4.5001 10.5488 4.5H27.8809ZM11.0977 42.4023H36.9023V16.0293H28.1172C27.511 16.029 27.0195 15.5369 27.0195 14.9307V5.59766H11.0977V42.4023ZM28.1172 14.9307H36.4668L28.1172 6.09766V14.9307Z" fill="#000000" />

  </g>
  </g>
  <g data-component-id="spacing_guide">
  <rect x="8" y="144" width="192" height="64" fill="#FFFFFF" stroke="#000000" stroke-width="1" stroke-miterlimit="10" />
  <text font-family="Ubuntu Sans">
    <tspan x="16" y="168.92" font-size="18" font-weight="400" fill="#000000">Spacing</tspan>
  </text>
  <g class="dg-icon" transform="translate(144 152)">
<path d="M24.8232 33.0488H16.5879V31.9512H24.8232V33.0488Z" fill="#000000" />

<path d="M31.4111 28.1074H16.5879V27.0098H31.4111V28.1074Z" fill="#000000" />

<path d="M31.4111 23.166H16.5879V22.0684H31.4111V23.166Z" fill="#000000" />

<path fill-rule="evenodd" clip-rule="evenodd" d="M27.8809 4.5C28.0318 4.5 28.1766 4.56217 28.2803 4.67188L37.8496 14.7949C37.9459 14.8968 37.9999 15.0317 38 15.1719V42.9512L37.9893 43.0615C37.9454 43.2761 37.7761 43.4454 37.5615 43.4893L37.4512 43.5H10.5488C10.2835 43.4999 10.0619 43.3117 10.0107 43.0615L10 42.9512V5.04883C10.0001 4.74576 10.2458 4.5001 10.5488 4.5H27.8809ZM11.0977 42.4023H36.9023V16.0293H28.1172C27.511 16.029 27.0195 15.5369 27.0195 14.9307V5.59766H11.0977V42.4023ZM28.1172 14.9307H36.4668L28.1172 6.09766V14.9307Z" fill="#000000" />

  </g>
  </g>
  <g data-component-id="layout_guide">
  <rect x="8" y="216" width="192" height="64" fill="#FFFFFF" stroke="#000000" stroke-width="1" stroke-miterlimit="10" />
  <text font-family="Ubuntu Sans">
    <tspan x="16" y="240.92" font-size="18" font-weight="400" fill="#000000">Layout</tspan>
  </text>
  <g class="dg-icon" transform="translate(144 224)">
<path d="M24.8232 33.0488H16.5879V31.9512H24.8232V33.0488Z" fill="#000000" />

<path d="M31.4111 28.1074H16.5879V27.0098H31.4111V28.1074Z" fill="#000000" />

<path d="M31.4111 23.166H16.5879V22.0684H31.4111V23.166Z" fill="#000000" />

<path fill-rule="evenodd" clip-rule="evenodd" d="M27.8809 4.5C28.0318 4.5 28.1766 4.56217 28.2803 4.67188L37.8496 14.7949C37.9459 14.8968 37.9999 15.0317 38 15.1719V42.9512L37.9893 43.0615C37.9454 43.2761 37.7761 43.4454 37.5615 43.4893L37.4512 43.5H10.5488C10.2835 43.4999 10.0619 43.3117 10.0107 43.0615L10 42.9512V5.04883C10.0001 4.74576 10.2458 4.5001 10.5488 4.5H27.8809ZM11.0977 42.4023H36.9023V16.0293H28.1172C27.511 16.029 27.0195 15.5369 27.0195 14.9307V5.59766H11.0977V42.4023ZM28.1172 14.9307H36.4668L28.1172 6.09766V14.9307Z" fill="#000000" />

  </g>
  </g>
  <g data-component-id="input_panel">
  <rect x="232" y="0" width="408" height="144" fill="#F3F3F3" stroke="none" stroke-width="1" stroke-miterlimit="10" />
  <text font-family="Ubuntu Sans">
    <tspan x="240" y="24.92" font-size="18" font-weight="700" fill="#000000">2. Input</tspan>
  </text>
  </g>
  <g data-component-id="sketch">
  <rect x="240" y="72" width="192" height="64" fill="#FFFFFF" stroke="#000000" stroke-width="1" stroke-miterlimit="10" />
  <text font-family="Ubuntu Sans">
    <tspan x="248" y="96.92" font-size="18" font-weight="400" fill="#000000">Rough diagram</tspan>
    <tspan x="248" y="120.92" font-size="18" font-weight="400" fill="#000000">sketch</tspan>
  </text>
  <g class="dg-icon" transform="translate(376 80)">
<path d="M24.8232 33.0488H16.5879V31.9512H24.8232V33.0488Z" fill="#000000" />

<path d="M31.4111 28.1074H16.5879V27.0098H31.4111V28.1074Z" fill="#000000" />

<path d="M31.4111 23.166H16.5879V22.0684H31.4111V23.166Z" fill="#000000" />

<path fill-rule="evenodd" clip-rule="evenodd" d="M27.8809 4.5C28.0318 4.5 28.1766 4.56217 28.2803 4.67188L37.8496 14.7949C37.9459 14.8968 37.9999 15.0317 38 15.1719V42.9512L37.9893 43.0615C37.9454 43.2761 37.7761 43.4454 37.5615 43.4893L37.4512 43.5H10.5488C10.2835 43.4999 10.0619 43.3117 10.0107 43.0615L10 42.9512V5.04883C10.0001 4.74576 10.2458 4.5001 10.5488 4.5H27.8809ZM11.0977 42.4023H36.9023V16.0293H28.1172C27.511 16.029 27.0195 15.5369 27.0195 14.9307V5.59766H11.0977V42.4023ZM28.1172 14.9307H36.4668L28.1172 6.09766V14.9307Z" fill="#000000" />

  </g>
  </g>
  <g data-component-id="verbal">
  <rect x="440" y="72" width="192" height="64" fill="#FFFFFF" stroke="#000000" stroke-width="1" stroke-miterlimit="10" />
  <text font-family="Ubuntu Sans">
    <tspan x="448" y="96.92" font-size="18" font-weight="400" fill="#000000">Verbal</tspan>
    <tspan x="448" y="120.92" font-size="18" font-weight="400" fill="#000000">description</tspan>
  </text>
  <g class="dg-icon" transform="translate(576 80)">
<path fill-rule="evenodd" clip-rule="evenodd" d="M13 33.7998C16.8661 33.7998 19.9998 35.8474 20 38.3701V41.416C20 41.7381 19.739 41.9998 19.417 42H6.58301L6.46582 41.9883C6.19997 41.9339 6 41.6979 6 41.416V38.3701C6.00016 35.8474 9.13395 33.7998 13 33.7998ZM13 34.7998C11.2328 34.7998 9.67862 35.27 8.59668 35.9766C7.57425 36.6444 7.06559 37.449 7.00586 38.2168L7 38.3701V41H19V38.3701C18.9999 37.5572 18.494 36.689 17.4033 35.9766C16.3214 35.27 14.7672 34.7998 13 34.7998Z" fill="#000000" />

<path fill-rule="evenodd" clip-rule="evenodd" d="M35 33.7998C38.8661 33.7998 41.9998 35.8474 42 38.3701V41.416C42 41.7381 41.739 41.9998 41.417 42H28.583L28.4658 41.9883C28.2 41.9339 28 41.6979 28 41.416V38.3701C28.0002 35.8474 31.1339 33.7998 35 33.7998ZM35 34.7998C33.2328 34.7998 31.6786 35.27 30.5967 35.9766C29.5742 36.6444 29.0656 37.449 29.0059 38.2168L29 38.3701V41H41V38.3701C40.9999 37.5572 40.494 36.689 39.4033 35.9766C38.3214 35.27 36.7672 34.7998 35 34.7998Z" fill="#000000" />

<path d="M24 30.7998C26.7326 30.7998 29.098 31.8238 30.251 33.3145C29.9394 33.462 29.6414 33.6241 29.3594 33.8008C29.1142 33.5126 28.7975 33.234 28.4033 32.9766C27.3214 32.27 25.7672 31.7998 24 31.7998C22.2328 31.7998 20.6786 32.27 19.5967 32.9766C19.2021 33.2343 18.8839 33.5123 18.6387 33.8008C18.3568 33.6243 18.0594 33.4619 17.748 33.3145C18.9009 31.8235 21.2671 30.7998 24 30.7998Z" fill="#000000" />

<path fill-rule="evenodd" clip-rule="evenodd" d="M13 25C15.0711 25 16.75 26.6789 16.75 28.75C16.75 30.8211 15.0711 32.5 13 32.5C10.9289 32.5 9.25 30.8211 9.25 28.75C9.25 26.6789 10.9289 25 13 25ZM13 26C11.4812 26 10.25 27.2312 10.25 28.75C10.25 30.2688 11.4812 31.5 13 31.5C14.5188 31.5 15.75 30.2688 15.75 28.75C15.75 27.2312 14.5188 26 13 26Z" fill="#000000" />

<path fill-rule="evenodd" clip-rule="evenodd" d="M35 25C37.0711 25 38.75 26.6789 38.75 28.75C38.75 30.8211 37.0711 32.5 35 32.5C32.9289 32.5 31.25 30.8211 31.25 28.75C31.25 26.6789 32.9289 25 35 25ZM35 26C33.4812 26 32.25 27.2312 32.25 28.75C32.25 30.2688 33.4812 31.5 35 31.5C36.5188 31.5 37.75 30.2688 37.75 28.75C37.75 27.2312 36.5188 26 35 26Z" fill="#000000" />

<path fill-rule="evenodd" clip-rule="evenodd" d="M24 22C26.0711 22 27.75 23.6789 27.75 25.75C27.75 27.8211 26.0711 29.5 24 29.5C21.9289 29.5 20.25 27.8211 20.25 25.75C20.25 23.6789 21.9289 22 24 22ZM24 23C22.4812 23 21.25 24.2312 21.25 25.75C21.25 27.2688 22.4812 28.5 24 28.5C25.5188 28.5 26.75 27.2688 26.75 25.75C26.75 24.2312 25.5188 23 24 23Z" fill="#000000" />

<path d="M20.6045 11.0635H7.48633C7.21778 11.0636 7.00009 11.2813 7 11.5498V18.4336C7.00026 18.702 7.21788 18.9198 7.48633 18.9199H14.3965V20.8857L16.6416 19.1328L16.9131 18.9199H24.5137C24.7822 18.9199 24.9997 18.7021 25 18.4336V17.4033H26V18.4336C25.9997 19.2543 25.3345 19.9199 24.5137 19.9199H17.2568L14.1963 22.3115C13.8916 22.5493 13.4553 22.3611 13.4014 21.9971L13.3965 21.9219V19.9199H7.48633C6.6656 19.9198 6.00026 19.2543 6 18.4336V11.5498C6.00009 10.729 6.66549 10.0636 7.48633 10.0635H20.6045V11.0635Z" fill="#000000" />

<path fill-rule="evenodd" clip-rule="evenodd" d="M40.6045 6.06055C41.4253 6.06064 42.0907 6.72604 42.0908 7.54688V14.4307C42.0908 15.2516 41.4254 15.9169 40.6045 15.917H34.6943V17.9189L34.6895 17.9941C34.6358 18.3586 34.1994 18.5468 33.8945 18.3086L30.834 15.917H23.5771C22.7562 15.917 22.0908 15.2516 22.0908 14.4307V7.54688C22.0909 6.72598 22.7562 6.06055 23.5771 6.06055H40.6045ZM23.5771 7.06055C23.3085 7.06055 23.0909 7.27827 23.0908 7.54688V14.4307C23.0908 14.6994 23.3085 14.917 23.5771 14.917H31.1777L31.4492 15.1299L33.6943 16.8828V14.917H40.6045C40.8731 14.9169 41.0908 14.6993 41.0908 14.4307V7.54688C41.0907 7.27833 40.873 7.06064 40.6045 7.06055H23.5771Z" fill="#000000" />

  </g>
  </g>
  <g data-component-id="engine">
  <rect x="232" y="168" width="408" height="288" fill="#F3F3F3" stroke="none" stroke-width="1" stroke-miterlimit="10" />
  <text font-family="Ubuntu Sans">
    <tspan x="240" y="192.92" font-size="18" font-weight="700" fill="#000000">3. Engine</tspan>
  </text>
  </g>
  <g data-component-id="dle">
  <rect x="240" y="240" width="392" height="64" fill="#FFFFFF" stroke="#000000" stroke-width="1" stroke-miterlimit="10" />
  <text font-family="Ubuntu Sans">
    <tspan x="248" y="264.92" font-size="18" font-weight="400" fill="#000000">Design language</tspan>
    <tspan x="248" y="288.92" font-size="18" font-weight="400" fill="#000000">engine</tspan>
  </text>
  <g class="dg-icon" transform="translate(576 248)">
<path d="M39.5 26.5557C39.4999 32.5189 34.9609 37.4213 29.1494 37.998L30.7979 39.6465L30.0908 40.3535L27.293 37.5557L30.0908 34.7578L30.7979 35.4648L29.2881 36.9736C34.4792 36.3384 38.4999 31.9184 38.5 26.5557H39.5Z" fill="#000000" />

<path d="M20.707 10.4443L17.9092 13.2422L17.2021 12.5352L18.7109 11.0254C13.5203 11.661 9.50006 16.0819 9.5 21.4443H8.5C8.50006 15.4814 13.0385 10.5781 18.8496 10.001L17.2021 8.35352L17.9092 7.64648L20.707 10.4443Z" fill="#000000" />

<path fill-rule="evenodd" clip-rule="evenodd" d="M32.7578 5.42287C32.9084 5.33962 33.0916 5.33957 33.2422 5.42287L41.7422 10.1279C41.9009 10.216 41.9998 10.383 42 10.5645V19.9375C42 20.1193 41.9011 20.2869 41.7422 20.375L33.2422 25.0791C33.0915 25.1625 32.9085 25.1625 32.7578 25.0791L24.2578 20.375C24.0988 20.2869 24 20.1193 24 19.9375V10.5645C24.0002 10.3829 24.099 10.2159 24.2578 10.1279L32.7578 5.42287ZM25 19.6426L32.5 23.793V20.2842L28.6592 18.0899C28.5036 18.0009 28.4073 17.8355 28.4072 17.6563V13.332L25 11.4326V19.6426ZM37.5918 13.333V17.6563C37.5917 17.8356 37.4955 18.0009 37.3398 18.0899L33.5 20.2842V23.793L41 19.6426V11.4326L37.5918 13.333ZM29.4072 17.3653L32.5 19.1328V15.6153L29.4072 13.8897V17.3653ZM33.5 15.6153V19.1319L36.5918 17.3653V13.8906L33.5 15.6153ZM31.1992 12.2539L29.877 13.0069L32.999 14.7481L36.1201 13.0078L32.999 11.2246L31.1992 12.2539ZM25.5127 10.5742L28.8574 12.4395L32.752 10.2149C32.9056 10.1272 33.0945 10.1272 33.248 10.2149L37.1396 12.4395L40.4863 10.5742L33 6.43166L25.5127 10.5742Z" fill="#000000" />

<path fill-rule="evenodd" clip-rule="evenodd" d="M16.9414 25.5C19.4914 25.5002 21.5262 27.5886 21.5264 30.1426C21.5264 30.1801 21.523 30.2178 21.5215 30.2549C23.778 30.5521 25.5 32.4912 25.5 34.8574C25.4999 37.4114 23.465 39.4998 20.915 39.5H10.085C7.53499 39.4997 5.50013 37.4114 5.5 34.8574C5.5 32.8595 6.73411 31.078 8.60645 30.4629V30.1719C8.60645 28.4698 9.9745 27.0997 11.6523 27.0996C12.1965 27.0996 12.7195 27.2503 13.1826 27.5293C14.0258 26.2849 15.4282 25.5 16.9414 25.5ZM16.9414 26.5C15.6267 26.5 14.3944 27.2728 13.7764 28.4844L13.4805 29.0645L12.9971 28.6289C12.6101 28.2802 12.1402 28.0996 11.6523 28.0996C10.532 28.0997 9.60645 29.0168 9.60645 30.1719V31.2393L9.21875 31.3291C7.61249 31.702 6.5 33.1614 6.5 34.8574C6.50013 36.8743 8.10238 38.4997 10.085 38.5H20.915C22.8976 38.4998 24.4999 36.8743 24.5 34.8574C24.5 32.8393 22.9228 31.2389 20.9639 31.2139L20.3711 31.207L20.4785 30.623L20.4795 30.6221C20.4795 30.6221 20.4799 30.6183 20.4805 30.6152C20.4817 30.6083 20.4831 30.597 20.4854 30.583C20.4899 30.5549 20.4968 30.514 20.5029 30.4658C20.5157 30.3664 20.5264 30.247 20.5264 30.1426C20.5262 28.1256 18.924 26.5002 16.9414 26.5Z" fill="#000000" />

  </g>
  </g>
  <g data-component-id="rules">
  <rect x="240" y="312" width="392" height="64" fill="#FFFFFF" stroke="#000000" stroke-width="1" stroke-miterlimit="10" />
  <text font-family="Ubuntu Sans">
    <tspan x="248" y="336.92" font-size="18" font-weight="400" fill="#000000">Rule checker</tspan>
  </text>
  <g class="dg-icon" transform="translate(576 320)">
<path fill-rule="evenodd" clip-rule="evenodd" d="M22.7383 3.88186C23.4733 3.28426 24.5267 3.28425 25.2617 3.88186L27.3145 5.55178C27.5354 5.73139 27.8224 5.80778 28.1035 5.76272L30.7158 5.34377C31.6515 5.19345 32.5647 5.72003 32.9023 6.60549L33.8447 9.07717C33.9463 9.34341 34.1566 9.55377 34.4229 9.65529L36.8945 10.5977C37.78 10.9353 38.3066 11.8486 38.1563 12.7842L37.7373 15.3965C37.6923 15.6776 37.7686 15.9646 37.9482 16.1856L39.6182 18.2383C40.2157 18.9733 40.2158 20.0268 39.6182 20.7617L37.9482 22.8145C37.7686 23.0354 37.6922 23.3224 37.7373 23.6035L38.1563 26.2158C38.3066 27.1515 37.78 28.0647 36.8945 28.4024L34.4229 29.3447C34.1566 29.4463 33.9463 29.6566 33.8447 29.9229L32.9023 32.3946C32.6613 33.0266 32.1264 33.4734 31.5 33.624V44.791L24 41.2246L16.5 44.791V33.624C15.8736 33.4734 15.3387 33.0266 15.0977 32.3946L14.1553 29.9229C14.0538 29.6566 13.8434 29.4463 13.5772 29.3447L11.1055 28.4024C10.22 28.0647 9.69344 27.1515 9.84376 26.2158L10.2627 23.6035C10.3078 23.3224 10.2314 23.0354 10.0518 22.8145L8.38184 20.7617C7.78424 20.0267 7.78424 18.9733 8.38184 18.2383L10.0518 16.1856C10.2314 15.9646 10.3078 15.6776 10.2627 15.3965L9.84376 12.7842C9.69342 11.8485 10.22 10.9353 11.1055 10.5977L13.5772 9.65529C13.8434 9.55377 14.0538 9.34342 14.1553 9.07717L15.0977 6.60549C15.4353 5.72001 16.3485 5.19344 17.2842 5.34377L19.8965 5.76272C20.1776 5.80777 20.4646 5.7314 20.6856 5.55178L22.7383 3.88186ZM19.8965 33.2373L17.5 33.6211V43.208L23.7852 40.2197L24 40.1172L24.2148 40.2197L30.5 43.208V33.6211L28.1035 33.2373C27.8224 33.1923 27.5354 33.2686 27.3145 33.4483L25.2617 35.1182C24.5267 35.7158 23.4733 35.7158 22.7383 35.1182L20.6856 33.4483C20.4646 33.2686 20.1776 33.1923 19.8965 33.2373ZM24.6309 4.65822C24.2633 4.35921 23.7367 4.35922 23.3691 4.65822L21.3164 6.32717C20.8743 6.68673 20.2999 6.84138 19.7373 6.751L17.125 6.33108C16.6573 6.25613 16.201 6.51933 16.0322 6.96194L15.0898 9.43361C14.8868 9.96612 14.4661 10.3868 13.9336 10.5899L11.4619 11.5322C11.0193 11.701 10.7561 12.1573 10.8311 12.625L11.251 15.2373C11.3414 15.8 11.1867 16.3743 10.8272 16.8164L9.15821 18.8692C8.8592 19.2367 8.8592 19.7633 9.15821 20.1309L10.8272 22.1836C11.1867 22.6257 11.3414 23.2001 11.251 23.7627L10.8311 26.375C10.7561 26.8427 11.0193 27.299 11.4619 27.4678L13.9336 28.4102C14.4661 28.6132 14.8868 29.0339 15.0898 29.5664L16.0322 32.0381C16.201 32.4807 16.6573 32.7439 17.125 32.669L19.7373 32.249C20.2999 32.1587 20.8743 32.3133 21.3164 32.6729L23.3691 34.3418C23.7367 34.6408 24.2633 34.6408 24.6309 34.3418L26.6836 32.6729C27.1257 32.3133 27.7001 32.1586 28.2627 32.249L30.875 32.669C31.3427 32.7439 31.799 32.4807 31.9678 32.0381L32.9102 29.5664C33.1132 29.0339 33.5339 28.6132 34.0664 28.4102L36.5381 27.4678C36.9807 27.299 37.2439 26.8427 37.169 26.375L36.749 23.7627C36.6586 23.2001 36.8133 22.6257 37.1729 22.1836L38.8418 20.1309C39.1408 19.7633 39.1408 19.2367 38.8418 18.8692L37.1729 16.8164C36.8133 16.3743 36.6586 15.8 36.749 15.2373L37.169 12.625C37.2439 12.1573 36.9807 11.701 36.5381 11.5322L34.0664 10.5899C33.5339 10.3868 33.1132 9.96612 32.9102 9.43361L31.9678 6.96194C31.799 6.51934 31.3427 6.25614 30.875 6.33108L28.2627 6.751C27.7001 6.8414 27.1257 6.68671 26.6836 6.32717L24.6309 4.65822Z" fill="#000000" />

<path d="M28.5 16.248L22.9775 23.4385L22.5254 23.0127L19.501 20.1709L20.2705 19.3506L22.8418 21.7676L27.6074 15.5625L28.5 16.248Z" fill="#000000" />

<path fill-rule="evenodd" clip-rule="evenodd" d="M24 10.5C28.9706 10.5 33 14.5294 33 19.5C33 24.4706 28.9706 28.5 24 28.5C19.0294 28.5 15 24.4706 15 19.5C15 14.5294 19.0294 10.5 24 10.5ZM24 11.5C19.5817 11.5 16 15.0817 16 19.5C16 23.9183 19.5817 27.5 24 27.5C28.4183 27.5 32 23.9183 32 19.5C32 15.0817 28.4183 11.5 24 11.5Z" fill="#000000" />

  </g>
  </g>
  <g data-component-id="editor_box">
  <rect x="240" y="384" width="392" height="64" fill="#FFFFFF" stroke="#000000" stroke-width="1" stroke-miterlimit="10" />
  <text font-family="Ubuntu Sans">
    <tspan x="248" y="408.92" font-size="18" font-weight="400" fill="#000000">Constrained</tspan>
    <tspan x="248" y="432.92" font-size="18" font-weight="400" fill="#000000">editor</tspan>
  </text>
  <g class="dg-icon" transform="translate(576 392)">
<path d="M42 17.4746H6V16.5254H42V17.4746Z" fill="#000000" />

<path d="M42 13.5H18V12.5H42V13.5Z" fill="#000000" />

<path fill-rule="evenodd" clip-rule="evenodd" d="M44.6006 9.00977C44.8286 9.05629 45 9.25829 45 9.5V38.5C45 38.7417 44.8286 38.9437 44.6006 38.9902L44.5 39H3.5C3.25829 39 3.05629 38.8286 3.00977 38.6006L3 38.5V9.5C3 9.22386 3.22386 9 3.5 9H44.5L44.6006 9.00977ZM4 38H44V10H4V38Z" fill="#000000" />

<path d="M7.75 12C8.30228 12 8.75 12.4477 8.75 13C8.75 13.5523 8.30228 14 7.75 14C7.19772 14 6.75 13.5523 6.75 13C6.75 12.4477 7.19772 12 7.75 12Z" fill="#000000" />

<path d="M12.25 12C12.8023 12 13.25 12.4477 13.25 13C13.25 13.5523 12.8023 14 12.25 14C11.6977 14 11.25 13.5523 11.25 13C11.25 12.4477 11.6977 12 12.25 12Z" fill="#000000" />

<path d="M26.7246 20.1582L22.2246 33.6582L21.2754 33.3418L25.7754 19.8418L26.7246 20.1582Z" fill="#000000" />

<path d="M18.3203 23.3838L14.2803 26.75L18.3203 30.1162L17.6797 30.8838L12.7188 26.75L17.6797 22.6162L18.3203 23.3838Z" fill="#000000" />

<path d="M35.2812 26.75L30.3203 30.8838L29.6797 30.1162L33.7197 26.75L29.6797 23.3838L30.3203 22.6162L35.2812 26.75Z" fill="#000000" />

  </g>
  </g>
  <g data-component-id="export_panel">
  <rect x="232" y="480" width="408" height="144" fill="#F3F3F3" stroke="none" stroke-width="1" stroke-miterlimit="10" />
  <text font-family="Ubuntu Sans">
    <tspan x="240" y="504.92" font-size="18" font-weight="700" fill="#000000">4. Export</tspan>
  </text>
  </g>
  <g data-component-id="output_svg">
  <rect x="240" y="552" width="192" height="64" fill="#000000" stroke="#000000" stroke-width="1" stroke-miterlimit="10" />
  <text font-family="Ubuntu Sans">
    <tspan x="248" y="576.92" font-size="18" font-weight="400" fill="#FFFFFF">SVG</tspan>
  </text>
  <g class="dg-icon" transform="translate(376 560)">
<path d="M24.8232 33.0488H16.5879V31.9512H24.8232V33.0488Z" fill="#FFFFFF" />

<path d="M31.4111 28.1074H16.5879V27.0098H31.4111V28.1074Z" fill="#FFFFFF" />

<path d="M31.4111 23.166H16.5879V22.0684H31.4111V23.166Z" fill="#FFFFFF" />

<path fill-rule="evenodd" clip-rule="evenodd" d="M27.8809 4.5C28.0318 4.5 28.1766 4.56217 28.2803 4.67188L37.8496 14.7949C37.9459 14.8968 37.9999 15.0317 38 15.1719V42.9512L37.9893 43.0615C37.9454 43.2761 37.7761 43.4454 37.5615 43.4893L37.4512 43.5H10.5488C10.2835 43.4999 10.0619 43.3117 10.0107 43.0615L10 42.9512V5.04883C10.0001 4.74576 10.2458 4.5001 10.5488 4.5H27.8809ZM11.0977 42.4023H36.9023V16.0293H28.1172C27.511 16.029 27.0195 15.5369 27.0195 14.9307V5.59766H11.0977V42.4023ZM28.1172 14.9307H36.4668L28.1172 6.09766V14.9307Z" fill="#FFFFFF" />

  </g>
  </g>
  <g data-component-id="output_drawio">
  <rect x="440" y="552" width="192" height="64" fill="#000000" stroke="#000000" stroke-width="1" stroke-miterlimit="10" />
  <text font-family="Ubuntu Sans">
    <tspan x="448" y="576.92" font-size="18" font-weight="400" fill="#FFFFFF">Draw.io native format</tspan>
  </text>
  <g class="dg-icon" transform="translate(576 560)">
<path d="M31.833 6.25C35.2388 6.25 38 9.01124 38 12.417V12.5127H37V12.417C37 9.56352 34.6865 7.25 31.833 7.25C28.9797 7.25018 26.667 9.56363 26.667 12.417V35.25C26.667 38.8397 23.7567 41.7498 20.167 41.75H19.5C15.9101 41.75 13 38.8399 13 35.25V32.4609H14V35.25C14 38.2876 16.4624 40.75 19.5 40.75H20.167C23.2044 40.7498 25.667 38.2875 25.667 35.25V12.417C25.667 9.01134 28.4274 6.25018 31.833 6.25Z" fill="#FFFFFF" />

<path d="M14 25.5H13V21H14V25.5Z" fill="#FFFFFF" />

<path fill-rule="evenodd" clip-rule="evenodd" d="M13.5 6C17.6421 6 21 9.35786 21 13.5V22.5C21 26.6421 17.6421 30 13.5 30C9.35786 30 6 26.6421 6 22.5V13.5C6 9.35786 9.35786 6 13.5 6ZM13.5 7C9.91015 7 7 9.91015 7 13.5V22.5C7 26.0899 9.91015 29 13.5 29C17.0899 29 20 26.0899 20 22.5V13.5C20 9.91015 17.0899 7 13.5 7Z" fill="#FFFFFF" />

<path fill-rule="evenodd" clip-rule="evenodd" d="M40.5 21V40C40.5 41.1046 39.6046 42 38.5 42H36.5C35.4644 42 34.613 41.2128 34.5107 40.2041L34.5 40V21L37.5 15L40.5 21ZM35.5 38.5V40C35.5 40.5523 35.9477 41 36.5 41H38.5C39.0523 41 39.5 40.5523 39.5 40V38.5H35.5ZM35.5 37.5H39.5V21.5H35.5V37.5ZM35.8682 20.5H39.1318L37.5 17.2363L35.8682 20.5Z" fill="#FFFFFF" />

  </g>
  </g>
  <g data-component-id="input_panel.bottom-&gt;engine.top">
  <line x1="436" y1="144" x2="436" y2="156" fill="none" stroke="#E95420" stroke-width="1" stroke-miterlimit="10" />
  <line x1="436" y1="156" x2="436" y2="156" fill="none" stroke="#E95420" stroke-width="1" stroke-miterlimit="10" />
  <line x1="436" y1="156" x2="436" y2="157.1592" fill="none" stroke="#E95420" stroke-width="1" stroke-miterlimit="10" />
  <polygon points="433.0947,157.1592 436,168 438.9053,157.1592" fill="#E95420" />
  </g>
  <g data-component-id="guidelines.right-&gt;engine.left">
  <line x1="208" y1="144" x2="220" y2="144" fill="none" stroke="#E95420" stroke-width="1" stroke-miterlimit="10" />
  <line x1="220" y1="144" x2="220" y2="312" fill="none" stroke="#E95420" stroke-width="1" stroke-miterlimit="10" />
  <line x1="220" y1="312" x2="221.1592" y2="312" fill="none" stroke="#E95420" stroke-width="1" stroke-miterlimit="10" />
  <polygon points="221.1592,309.0947 232,312 221.1592,314.9053" fill="#E95420" />
  </g>
  <g data-component-id="engine.bottom-&gt;export_panel.top">
  <line x1="436" y1="456" x2="436" y2="468" fill="none" stroke="#E95420" stroke-width="1" stroke-miterlimit="10" />
  <line x1="436" y1="468" x2="436" y2="468" fill="none" stroke="#E95420" stroke-width="1" stroke-miterlimit="10" />
  <line x1="436" y1="468" x2="436" y2="469.1592" fill="none" stroke="#E95420" stroke-width="1" stroke-miterlimit="10" />
  <polygon points="433.0947,469.1592 436,480 438.9053,469.1592" fill="#E95420" />
  </g>
</svg>
