<svg xmlns="http://www.w3.org/2000/svg" width="456" height="728" viewBox="0 0 456 728" xml:space="preserve">
  <rect width="456" height="728" fill="#FFFFFF" />
  <g data-component-id="user">
  <rect x="24" y="24" width="192" height="40" fill="#FFFFFF" stroke="#000000" stroke-width="1" stroke-miterlimit="10" />
  <text font-family="Ubuntu Sans">
    <tspan x="32" y="48.92" font-size="18" font-weight="400" fill="#000000">User request</tspan>
  </text>
  </g>
  <g data-component-id="requests">
  <g class="dg-icon" transform="translate(240 24)">
<path d="M24.8232 33.0488H16.5879V31.9512H24.8232V33.0488Z" fill="#000000" />

<path d="M31.4111 28.1074H16.5879V27.0098H31.4111V28.1074Z" fill="#000000" />

<path d="M31.4111 23.166H16.5879V22.0684H31.4111V23.166Z" fill="#000000" />

<path fill-rule="evenodd" clip-rule="evenodd" d="M27.8809 4.5C28.0318 4.5 28.1766 4.56217 28.2803 4.67188L37.8496 14.7949C37.9459 14.8968 37.9999 15.0317 38 15.1719V42.9512L37.9893 43.0615C37.9454 43.2761 37.7761 43.4454 37.5615 43.4893L37.4512 43.5H10.5488C10.2835 43.4999 10.0619 43.3117 10.0107 43.0615L10 42.9512V5.04883C10.0001 4.74576 10.2458 4.5001 10.5488 4.5H27.8809ZM11.0977 42.4023H36.9023V16.0293H28.1172C27.511 16.029 27.0195 15.5369 27.0195 14.9307V5.59766H11.0977V42.4023ZM28.1172 14.9307H36.4668L28.1172 6.09766V14.9307Z" fill="#000000" />

  </g>
  <g class="dg-icon" transform="translate(296 24)">
<path fill-rule="evenodd" clip-rule="evenodd" d="M40.6533 6.00781C41.4097 6.08461 42 6.72334 42 7.5V40.5L41.9922 40.6533C41.9205 41.3593 41.3593 41.9205 40.6533 41.9922L40.5 42H7.5C6.72334 42 6.08461 41.4097 6.00781 40.6533L6 40.5V7.5C6 6.67157 6.67157 6 7.5 6H40.5L40.6533 6.00781ZM23.1533 30.5537C22.958 30.7488 22.6415 30.7489 22.4463 30.5537L16.7998 24.9072L7 34.707V40.5C7 40.7761 7.22386 41 7.5 41H40.5C40.7761 41 41 40.7761 41 40.5V22.707L36 17.707L23.1533 30.5537ZM7.5 7C7.22386 7 7 7.22386 7 7.5V33.293L16.4463 23.8467L16.5244 23.7822C16.7185 23.6539 16.9824 23.6758 17.1533 23.8467L22.7998 29.4932L35.6465 16.6465L35.7246 16.582C35.9187 16.4539 36.1827 16.4756 36.3535 16.6465L41 21.293V7.5C41 7.22386 40.7761 7 40.5 7H7.5Z" fill="#000000" />

<path fill-rule="evenodd" clip-rule="evenodd" d="M18 12C20.2091 12 22 13.7909 22 16C22 18.2091 20.2091 20 18 20C15.7909 20 14 18.2091 14 16C14 13.7909 15.7909 12 18 12ZM18 13C16.3431 13 15 14.3431 15 16C15 17.6569 16.3431 19 18 19C19.6569 19 21 17.6569 21 16C21 14.3431 19.6569 13 18 13Z" fill="#000000" />

  </g>
  <g class="dg-icon" transform="translate(352 24)">
<path fill-rule="evenodd" clip-rule="evenodd" d="M24 5.5C32.2317 5.5 39.206 10.8768 41.6064 18.3096C41.6652 18.3914 41.7001 18.4913 41.7002 18.5996L41.6992 18.6045C42.219 20.3116 42.5 22.1229 42.5 24C42.5 25.8764 42.2186 27.687 41.6992 29.3936L41.7002 29.3994C41.7002 29.5074 41.6647 29.6067 41.6064 29.6885C39.2065 37.1221 32.2323 42.5 24 42.5C15.7671 42.5 8.79112 37.1219 6.3916 29.6875C6.33416 29.6061 6.2998 29.5066 6.2998 29.3994V29.3936C5.78046 27.687 5.5 25.8763 5.5 24C5.5 22.123 5.78012 20.3115 6.2998 18.6045V18.5996C6.29989 18.4923 6.334 18.3929 6.3916 18.3115C8.79139 10.8776 15.7675 5.5 24 5.5ZM7.52051 29.8994C9.75709 36.1464 15.4438 40.7496 22.2852 41.415L21.9658 41.1934C18.0206 38.4486 15.2318 34.4289 13.9971 29.8994H7.52051ZM34.0029 29.8994C32.7683 34.4287 29.9802 38.4486 26.0352 41.1934L25.7148 41.415C32.5562 40.7496 38.2429 36.1464 40.4795 29.8994H34.0029ZM24.5 41.043L25.4648 40.3721C29.1381 37.8162 31.7553 34.0971 32.9639 29.8994H24.5V41.043ZM15.0361 29.8994C16.2447 34.0973 18.8626 37.8162 22.5361 40.3721L23.5 41.042V29.8994H15.0361ZM34.0264 19.0996C34.4799 20.8722 34.7168 22.7111 34.7168 24.5781C34.7168 26.0465 34.5562 27.4941 34.249 28.8994H40.8037C41.2563 27.3447 41.5 25.7008 41.5 24C41.5 22.2988 41.2564 20.6546 40.8037 19.0996H34.0264ZM24.5 28.8994H33.2227C33.546 27.4967 33.7168 26.0485 33.7168 24.5781C33.7168 22.7083 33.4667 20.8682 32.9912 19.0996H24.5V28.8994ZM15.0088 19.0996C14.5334 20.8683 14.2842 22.7083 14.2842 24.5781C14.2842 26.0485 14.454 27.4967 14.7773 28.8994H23.5V19.0996H15.0088ZM7.19629 19.0996C6.74357 20.6546 6.5 22.2988 6.5 24C6.5 25.7008 6.74374 27.3447 7.19629 28.8994H13.751C13.4438 27.4941 13.2842 26.0465 13.2842 24.5781C13.2842 22.7111 13.5202 20.8722 13.9736 19.0996H7.19629ZM26.5117 7.38867C29.9742 10.1896 32.4672 13.9349 33.7441 18.0996H40.4795C38.2184 11.7851 32.4318 7.14919 25.4912 6.56348L26.5117 7.38867ZM24.5 18.0996H32.6963C31.4515 14.2407 29.1073 10.7744 25.8828 8.16602L24.5 7.04688V18.0996ZM22.1172 8.16602C18.8927 10.7744 16.5483 14.2406 15.3037 18.0996H23.5V7.04688L22.1172 8.16602ZM22.5078 6.56348C15.5676 7.14954 9.78154 11.7854 7.52051 18.0996H14.2559C15.5325 13.9348 18.0258 10.1896 21.4883 7.38867L22.5078 6.56348Z" fill="#000000" />

  </g>
  </g>
  <g data-component-id="app">
  <rect x="24" y="112" width="192" height="64" fill="#F3F3F3" stroke="#000000" stroke-width="1" stroke-miterlimit="10" />
  <text font-family="Ubuntu Sans">
    <tspan x="32" y="136.92" font-size="18" font-weight="400" fill="#000000">App &amp; model</tspan>
    <tspan x="32" y="160.92" font-size="18" font-weight="400" fill="#000000">framework</tspan>
  </text>
  <g class="dg-icon" transform="translate(160 120)">
<path d="M33.0005 9.0566L41.4847 13.7516C41.803 13.9278 42.0005 14.2628 42.0005 14.6266V33.3725C42.0005 33.7362 41.803 34.0713 41.4848 34.2474L24.4848 43.6568C24.1834 43.8236 23.8175 43.8236 23.5162 43.6568L6.51622 34.2474C6.19799 34.0713 6.00049 33.7362 6.00049 33.3725V14.6266C6.00049 14.2628 6.19802 13.9278 6.5163 13.7516L15.0005 9.0566L23.5162 4.34317C23.8175 4.1764 24.1834 4.1764 24.4848 4.34317L33.0005 9.0566ZM24.4995 24.4336V42.505L32.5161 38.0684L41.0005 33.3721V15.2304L24.4995 24.4336ZM7.00049 33.3721L15.4849 38.0684L23.4995 42.504V24.4336L15.5249 19.9853V25.583L14.5288 25.0274V19.4297L7.00049 15.2314V33.3721ZM15.9204 19.0605L23.9995 23.5664L40.5151 14.3574L32.5161 9.9316L32.4038 9.8691L15.9204 19.0605ZM15.4849 9.9316L7.48486 14.3574L14.8989 18.4912L31.3774 9.30171L24.0005 5.21772L15.4849 9.9316Z" fill="#000000" />

  </g>
  </g>
  <g data-component-id="_auto_1">
  <line class="dg-separator" x1="24" y1="204.0" x2="216" y2="204.0" fill="none" stroke="#000000" stroke-width="1" stroke-miterlimit="10" stroke-dasharray="12 8" />
  </g>
  <g data-component-id="missing">
  <rect x="24" y="288" width="192" height="64" fill="#FFFFFF" stroke="#000000" stroke-width="1" stroke-miterlimit="10" />
  <text font-family="Ubuntu Sans">
    <tspan x="32" y="312.92" font-size="18" font-weight="400" fill="#000000">Missing layer</tspan>
  </text>
  </g>
  <g data-component-id="missing_note">
  <rect x="240" y="288" width="192" height="64" fill="#FFFFFF" stroke="none" stroke-width="1" stroke-miterlimit="10" />
  <text font-family="Ubuntu Sans">
    <tspan x="248" y="312.92" font-size="18" font-weight="400" fill="#666666">No model-aware</tspan>
    <tspan x="248" y="336.92" font-size="18" font-weight="400" fill="#666666">orchestration!</tspan>
  </text>
  </g>
  <g data-component-id="os">
  <rect x="24" y="376" width="192" height="64" fill="#F3F3F3" stroke="#000000" stroke-width="1" stroke-miterlimit="10" />
  <text font-family="Ubuntu Sans">
    <tspan x="32" y="400.92" font-size="18" font-weight="400" fill="#000000">Operating</tspan>
    <tspan x="32" y="424.92" font-size="18" font-weight="400" fill="#000000">system</tspan>
  </text>
  <g class="dg-icon" transform="translate(160 384)">
<path d="M39.5 30C40.6046 30 41.5 30.8954 41.5 32V37C41.5 38.1046 40.6046 39 39.5 39H24.5V40.4277C25.5716 40.6573 26.375 41.6099 26.375 42.75C26.375 44.0617 25.3117 45.125 24 45.125C22.6883 45.125 21.625 44.0617 21.625 42.75C21.625 41.6099 22.4284 40.6574 23.5 40.4277V39H8.5C7.39543 39 6.5 38.1046 6.5 37V32C6.5 30.8954 7.39543 30 8.5 30H39.5ZM24 41.375C23.2406 41.375 22.625 41.9906 22.625 42.75C22.625 43.5094 23.2406 44.125 24 44.125C24.7594 44.125 25.375 43.5094 25.375 42.75C25.375 41.9906 24.7594 41.375 24 41.375ZM8.5 31C7.94772 31 7.5 31.4477 7.5 32V37L7.50488 37.1025C7.55278 37.573 7.92703 37.9472 8.39746 37.9951L8.5 38H39.5L39.6025 37.9951C40.1067 37.9438 40.5 37.5177 40.5 37V32C40.5 31.4477 40.0523 31 39.5 31H8.5ZM12 33.501C12.5523 33.501 13 33.9487 13 34.501C13 35.0533 12.5523 35.501 12 35.501C11.4477 35.501 11 35.0533 11 34.501C11 33.9487 11.4477 33.501 12 33.501ZM39.5 19C40.6046 19 41.5 19.8954 41.5 21V26C41.5 27.1046 40.6046 28 39.5 28H8.5C7.39543 28 6.5 27.1046 6.5 26V21C6.5 19.8954 7.39543 19 8.5 19H39.5ZM8.5 20C7.94772 20 7.5 20.4477 7.5 21V26L7.50488 26.1025C7.55278 26.573 7.92703 26.9472 8.39746 26.9951L8.5 27H39.5L39.6025 26.9951C40.1067 26.9438 40.5 26.5177 40.5 26V21C40.5 20.4477 40.0523 20 39.5 20H8.5ZM12 22.501C12.5523 22.501 13 22.9487 13 23.501C13 24.0533 12.5523 24.501 12 24.501C11.4477 24.501 11 24.0533 11 23.501C11 22.9487 11.4477 22.501 12 22.501ZM39.5 8C40.6046 8 41.5 8.89543 41.5 10V15C41.5 16.1046 40.6046 17 39.5 17H8.5C7.39543 17 6.5 16.1046 6.5 15V10C6.5 8.89543 7.39543 8 8.5 8H39.5ZM8.5 9C7.94772 9 7.5 9.44772 7.5 10V15L7.50488 15.1025C7.55278 15.573 7.92703 15.9472 8.39746 15.9951L8.5 16H39.5L39.6025 15.9951C40.1067 15.9438 40.5 15.5177 40.5 15V10C40.5 9.44772 40.0523 9 39.5 9H8.5ZM12 11.501C12.5523 11.501 13 11.9487 13 12.501C13 13.0533 12.5523 13.501 12 13.501C11.4477 13.501 11 13.0533 11 12.501C11 11.9487 11.4477 11.501 12 11.501Z" fill="#000000" />

<circle cx="16" cy="12.501" r="1" fill="#000000" />

<circle cx="16" cy="23.501" r="1" fill="#000000" />

<circle cx="16" cy="34.501" r="1" fill="#000000" />

  </g>
  </g>
  <g data-component-id="hw">
  <rect x="24" y="464" width="192" height="64" fill="#F3F3F3" stroke="#000000" stroke-width="1" stroke-miterlimit="10" />
  <text font-family="Ubuntu Sans">
    <tspan x="32" y="488.92" font-size="18" font-weight="400" fill="#000000">Hardware</tspan>
  </text>
  <g class="dg-icon" transform="translate(160 472)">
<path fill-rule="evenodd" clip-rule="evenodd" d="M40.6533 6.00684C41.4096 6.08363 41.9999 6.72247 42 7.49902V40.499L41.9922 40.6523C41.9205 41.3583 41.3593 41.9195 40.6533 41.9912L40.5 41.999H7.5C6.72334 41.999 6.08461 41.4087 6.00781 40.6523L6 40.499V7.49902C6.00013 6.67071 6.67165 5.99902 7.5 5.99902H40.5L40.6533 6.00684ZM7.5 6.99902C7.25837 6.99902 7.05638 7.17059 7.00977 7.39844L7 7.49902V40.499C7 40.7752 7.22386 40.999 7.5 40.999H28V29.0908L18.5 19.2383V27.2998H17.5V6.99902H7.5ZM18.5 17.7979L28.8604 28.542L29 28.6875V40.999H40.5C40.7761 40.999 41 40.7752 41 40.499V7.49902C40.9999 7.25742 40.8285 7.0553 40.6006 7.00879L40.5 6.99902H27.2002V15.208L29.1729 17.417L28.7998 17.75L28.4277 18.083L26.3271 15.7334L26.2002 15.5908V6.99902H18.5V17.7979Z" fill="#000000" />

<path fill-rule="evenodd" clip-rule="evenodd" d="M18 29C19.3807 29 20.5 30.1193 20.5 31.5C20.5 32.8807 19.3807 34 18 34C16.6193 34 15.5 32.8807 15.5 31.5C15.5 30.1193 16.6193 29 18 29ZM18 30C17.1716 30 16.5 30.6716 16.5 31.5C16.5 32.3284 17.1716 33 18 33C18.8284 33 19.5 32.3284 19.5 31.5C19.5 30.6716 18.8284 30 18 30Z" fill="#000000" />

<path fill-rule="evenodd" clip-rule="evenodd" d="M31.7998 18.5C33.1805 18.5 34.2998 19.6193 34.2998 21C34.2998 22.3807 33.1805 23.5 31.7998 23.5C30.4191 23.4999 29.2998 22.3807 29.2998 21C29.2998 19.6193 30.4192 18.5001 31.7998 18.5ZM31.7998 19.5C30.9714 19.5001 30.2998 20.1716 30.2998 21C30.2998 21.8284 30.9714 22.4999 31.7998 22.5C32.6282 22.5 33.2998 21.8284 33.2998 21C33.2998 20.1716 32.6282 19.5 31.7998 19.5Z" fill="#000000" />

  </g>
  </g>
  <g data-component-id="si">
  <rect x="24" y="552" width="192" height="64" fill="#F3F3F3" stroke="#000000" stroke-width="1" stroke-miterlimit="10" />
  <text font-family="Ubuntu Sans">
    <tspan x="32" y="576.92" font-size="18" font-weight="400" fill="#000000">Silicon</tspan>
  </text>
  <g class="dg-icon" transform="translate(160 560)">
<path fill-rule="evenodd" clip-rule="evenodd" d="M40.6533 6.00781C41.4097 6.08461 42 6.72334 42 7.5V40.5L41.9922 40.6533C41.9205 41.3593 41.3593 41.9205 40.6533 41.9922L40.5 42H7.5C6.72334 42 6.08461 41.4097 6.00781 40.6533L6 40.5V7.5C6 6.67157 6.67157 6 7.5 6H40.5L40.6533 6.00781ZM7.5 7C7.25829 7 7.05629 7.17145 7.00977 7.39941L7 7.5V40.5C7 40.7761 7.22386 41 7.5 41H40.5C40.7761 41 41 40.7761 41 40.5V7.5C41 7.25829 40.8286 7.05629 40.6006 7.00977L40.5 7H7.5Z" fill="#000000" />

<path fill-rule="evenodd" clip-rule="evenodd" d="M19.9248 15.5996H23.7256V11.4004H24.7256V15.5996H28.5254V11.4004H29.5254V15.5996H32.4004V18.7002H36.8252V19.7002H32.4004V23.5H36.8252V24.5H32.4004V28.2998H36.8252V29.2998H32.4004V32.3994H29.5254V36.5996H28.5254V32.3994H24.7256V36.5996H23.7256V32.3994H19.9248V36.5996H18.9248V32.3994H15.6006V29.2998H11.625V28.2998H15.6006V24.5H11.625V23.5H15.6006V19.7002H11.625V18.7002H15.6006V15.5996H18.9248V11.4004H19.9248V15.5996ZM16.6006 31.3994H31.4004V16.5996H16.6006V31.3994Z" fill="#000000" />

  </g>
  </g>
  <g data-component-id="wall">
  <path d="M 24 640 L 32 636 L 40 640 L 48 636 L 56 640 L 64 636 L 72 640 L 80 636 L 88 640 L 96 636 L 104 640 L 112 636 L 120 640 L 128 636 L 136 640 L 144 636 L 152 640 L 160 636 L 168 640 L 176 636 L 184 640 L 192 636 L 200 640 L 208 636 L 216 640 L 216 704 L 216 704 L 208 708 L 200 704 L 192 708 L 184 704 L 176 708 L 168 704 L 160 708 L 152 704 L 144 708 L 136 704 L 128 708 L 120 704 L 112 708 L 104 704 L 96 708 L 88 704 L 80 708 L 72 704 L 64 708 L 56 704 L 48 708 L 40 704 L 32 708 L 24 704 Z" fill="#F3F3F3" stroke="#000000" stroke-width="1" stroke-miterlimit="10" />
  <text font-family="Ubuntu Sans">
    <tspan x="32" y="664.92" font-size="18" font-weight="400" fill="#000000">Memory wall</tspan>
  </text>
  </g>
  <g data-component-id="_auto_2">
  <line x1="120" y1="64" x2="120" y2="101.1592" fill="none" stroke="#E95420" stroke-width="1" stroke-miterlimit="10" />
  <polygon points="117.0947,101.1592 120,112 122.9053,101.1592" fill="#E95420" />
  </g>
  <g data-component-id="_auto_3">
  <line x1="120" y1="176" x2="120" y2="277.1592" fill="none" stroke="#E95420" stroke-width="1" stroke-miterlimit="10" />
  <polygon points="117.0947,277.1592 120,288 122.9053,277.1592" fill="#E95420" />
  </g>
  <g data-component-id="_auto_4">
  <line x1="120" y1="352" x2="120" y2="365.1592" fill="none" stroke="#E95420" stroke-width="1" stroke-miterlimit="10" />
  <polygon points="117.0947,365.1592 120,376 122.9053,365.1592" fill="#E95420" />
  </g>
  <g data-component-id="_auto_5">
  <line x1="120" y1="440" x2="120" y2="453.1592" fill="none" stroke="#E95420" stroke-width="1" stroke-miterlimit="10" />
  <polygon points="117.0947,453.1592 120,464 122.9053,453.1592" fill="#E95420" />
  </g>
  <g data-component-id="_auto_6">
  <line x1="120" y1="528" x2="120" y2="541.1592" fill="none" stroke="#E95420" stroke-width="1" stroke-miterlimit="10" />
  <polygon points="117.0947,541.1592 120,552 122.9053,541.1592" fill="#E95420" />
  </g>
  <g data-component-id="_auto_7">
  <line x1="120" y1="616" x2="120" y2="629.1592" fill="none" stroke="#E95420" stroke-width="1" stroke-miterlimit="10" />
  <polygon points="117.0947,629.1592 120,640 122.9053,629.1592" fill="#E95420" />
  </g>
  <g data-component-id="_auto_8">
  <line x1="240" y1="320" x2="226.8408" y2="320" fill="none" stroke="#000000" stroke-width="1" stroke-miterlimit="10" />
  <polygon points="226.8408,317.0947 216,320 226.8408,322.9053" fill="#000000" />
  </g>
  <g id="layout-grid" opacity="0.35" style="pointer-events:none">
    <rect x="24" y="24" width="408" height="680" fill="none" stroke="#0066CC" stroke-width="1" stroke-dasharray="6 4" />
    <rect x="24" y="24" width="192" height="680" fill="#3399FF" opacity="0.08" />
    <line x1="24" y1="24" x2="24" y2="704" stroke="#0066CC" stroke-width="0.75" />
    <line x1="216" y1="24" x2="216" y2="704" stroke="#0066CC" stroke-width="0.75" />
    <text x="120.0" y="20" text-anchor="middle" font-size="9" fill="#0066CC" font-family="Ubuntu Sans, sans-serif">192px</text>
    <rect x="240" y="24" width="192" height="680" fill="#3399FF" opacity="0.08" />
    <line x1="240" y1="24" x2="240" y2="704" stroke="#0066CC" stroke-width="0.75" />
    <line x1="432" y1="24" x2="432" y2="704" stroke="#0066CC" stroke-width="0.75" />
    <text x="336.0" y="20" text-anchor="middle" font-size="9" fill="#0066CC" font-family="Ubuntu Sans, sans-serif">192px</text>
    <rect x="216" y="24" width="24" height="680" fill="#9933FF" opacity="0.06" />
    <text x="228.0" y="20" text-anchor="middle" font-size="7" fill="#9933FF" font-family="Ubuntu Sans, sans-serif">24</text>
    <rect x="24" y="24" width="408" height="64" fill="#3399FF" opacity="0.08" />
    <line x1="24" y1="24" x2="432" y2="24" stroke="#0066CC" stroke-width="0.75" />
    <line x1="24" y1="88" x2="432" y2="88" stroke="#0066CC" stroke-width="0.75" />
    <text x="436" y="59.0" font-size="9" fill="#0066CC" font-family="Ubuntu Sans, sans-serif">64px</text>
    <rect x="24" y="112" width="408" height="64" fill="#3399FF" opacity="0.08" />
    <line x1="24" y1="112" x2="432" y2="112" stroke="#0066CC" stroke-width="0.75" />
    <line x1="24" y1="176" x2="432" y2="176" stroke="#0066CC" stroke-width="0.75" />
    <text x="436" y="147.0" font-size="9" fill="#0066CC" font-family="Ubuntu Sans, sans-serif">64px</text>
    <rect x="24" y="200" width="408" height="64" fill="#3399FF" opacity="0.08" />
    <line x1="24" y1="200" x2="432" y2="200" stroke="#0066CC" stroke-width="0.75" />
    <line x1="24" y1="264" x2="432" y2="264" stroke="#0066CC" stroke-width="0.75" />
    <text x="436" y="235.0" font-size="9" fill="#0066CC" font-family="Ubuntu Sans, sans-serif">64px</text>
    <rect x="24" y="288" width="408" height="64" fill="#3399FF" opacity="0.08" />
    <line x1="24" y1="288" x2="432" y2="288" stroke="#0066CC" stroke-width="0.75" />
    <line x1="24" y1="352" x2="432" y2="352" stroke="#0066CC" stroke-width="0.75" />
    <text x="436" y="323.0" font-size="9" fill="#0066CC" font-family="Ubuntu Sans, sans-serif">64px</text>
    <rect x="24" y="376" width="408" height="64" fill="#3399FF" opacity="0.08" />
    <line x1="24" y1="376" x2="432" y2="376" stroke="#0066CC" stroke-width="0.75" />
    <line x1="24" y1="440" x2="432" y2="440" stroke="#0066CC" stroke-width="0.75" />
    <text x="436" y="411.0" font-size="9" fill="#0066CC" font-family="Ubuntu Sans, sans-serif">64px</text>
    <rect x="24" y="464" width="408" height="64" fill="#3399FF" opacity="0.08" />
    <line x1="24" y1="464" x2="432" y2="464" stroke="#0066CC" stroke-width="0.75" />
    <line x1="24" y1="528" x2="432" y2="528" stroke="#0066CC" stroke-width="0.75" />
    <text x="436" y="499.0" font-size="9" fill="#0066CC" font-family="Ubuntu Sans, sans-serif">64px</text>
    <rect x="24" y="552" width="408" height="64" fill="#3399FF" opacity="0.08" />
    <line x1="24" y1="552" x2="432" y2="552" stroke="#0066CC" stroke-width="0.75" />
    <line x1="24" y1="616" x2="432" y2="616" stroke="#0066CC" stroke-width="0.75" />
    <text x="436" y="587.0" font-size="9" fill="#0066CC" font-family="Ubuntu Sans, sans-serif">64px</text>
    <rect x="24" y="640" width="408" height="64" fill="#3399FF" opacity="0.08" />
    <line x1="24" y1="640" x2="432" y2="640" stroke="#0066CC" stroke-width="0.75" />
    <line x1="24" y1="704" x2="432" y2="704" stroke="#0066CC" stroke-width="0.75" />
    <text x="436" y="675.0" font-size="9" fill="#0066CC" font-family="Ubuntu Sans, sans-serif">64px</text>
    <rect x="24" y="88" width="408" height="24" fill="#9933FF" opacity="0.06" />
    <text x="436" y="103.0" font-size="7" fill="#9933FF" font-family="Ubuntu Sans, sans-serif">24</text>
    <rect x="24" y="176" width="408" height="24" fill="#9933FF" opacity="0.06" />
    <text x="436" y="191.0" font-size="7" fill="#9933FF" font-family="Ubuntu Sans, sans-serif">24</text>
    <rect x="24" y="264" width="408" height="24" fill="#9933FF" opacity="0.06" />
    <text x="436" y="279.0" font-size="7" fill="#9933FF" font-family="Ubuntu Sans, sans-serif">24</text>
    <rect x="24" y="352" width="408" height="24" fill="#9933FF" opacity="0.06" />
    <text x="436" y="367.0" font-size="7" fill="#9933FF" font-family="Ubuntu Sans, sans-serif">24</text>
    <rect x="24" y="440" width="408" height="24" fill="#9933FF" opacity="0.06" />
    <text x="436" y="455.0" font-size="7" fill="#9933FF" font-family="Ubuntu Sans, sans-serif">24</text>
    <rect x="24" y="528" width="408" height="24" fill="#9933FF" opacity="0.06" />
    <text x="436" y="543.0" font-size="7" fill="#9933FF" font-family="Ubuntu Sans, sans-serif">24</text>
    <rect x="24" y="616" width="408" height="24" fill="#9933FF" opacity="0.06" />
    <text x="436" y="631.0" font-size="7" fill="#9933FF" font-family="Ubuntu Sans, sans-serif">24</text>
  </g>
</svg>
