<svg xmlns="http://www.w3.org/2000/svg" width="408" height="608" viewBox="0 0 408 608" xml:space="preserve">
  <rect width="408" height="608" fill="#FFFFFF" />
  <g data-component-id="user">
  <rect x="0" y="0" width="192" height="40" fill="#FFFFFF" stroke="#000000" stroke-width="1" stroke-miterlimit="10" />
  <text font-family="Ubuntu Sans">
    <tspan x="8" y="24.92" font-size="18" font-weight="400" fill="#000000">User request</tspan>
  </text>
  </g>
  <g data-component-id="app">
  <rect x="0" y="64" width="192" height="64" fill="#F3F3F3" stroke="#000000" stroke-width="1" stroke-miterlimit="10" />
  <text font-family="Ubuntu Sans">
    <tspan x="8" y="88.92" font-size="18" font-weight="400" fill="#000000">App &amp; model</tspan>
    <tspan x="8" y="112.92" font-size="18" font-weight="400" fill="#000000">framework</tspan>
  </text>
  <g class="dg-icon" transform="translate(136 72)">
<path d="M33.0005 9.0566L41.4847 13.7516C41.803 13.9278 42.0005 14.2628 42.0005 14.6266V33.3725C42.0005 33.7362 41.803 34.0713 41.4848 34.2474L24.4848 43.6568C24.1834 43.8236 23.8175 43.8236 23.5162 43.6568L6.51622 34.2474C6.19799 34.0713 6.00049 33.7362 6.00049 33.3725V14.6266C6.00049 14.2628 6.19802 13.9278 6.5163 13.7516L15.0005 9.0566L23.5162 4.34317C23.8175 4.1764 24.1834 4.1764 24.4848 4.34317L33.0005 9.0566ZM24.4995 24.4336V42.505L32.5161 38.0684L41.0005 33.3721V15.2304L24.4995 24.4336ZM7.00049 33.3721L15.4849 38.0684L23.4995 42.504V24.4336L15.5249 19.9853V25.583L14.5288 25.0274V19.4297L7.00049 15.2314V33.3721ZM15.9204 19.0605L23.9995 23.5664L40.5151 14.3574L32.5161 9.9316L32.4038 9.8691L15.9204 19.0605ZM15.4849 9.9316L7.48486 14.3574L14.8989 18.4912L31.3774 9.30171L24.0005 5.21772L15.4849 9.9316Z" fill="#000000" />

  </g>
  </g>
  <g data-component-id="missing">
  <rect x="0" y="240" width="192" height="40" fill="#FFFFFF" stroke="#000000" stroke-width="1" stroke-miterlimit="10" />
  <text font-family="Ubuntu Sans">
    <tspan x="8" y="264.92" font-size="18" font-weight="400" fill="#000000">Missing layer</tspan>
  </text>
  </g>
  <g data-component-id="os">
  <rect x="0" y="304" width="192" height="64" fill="#F3F3F3" stroke="#000000" stroke-width="1" stroke-miterlimit="10" />
  <text font-family="Ubuntu Sans">
    <tspan x="8" y="328.92" font-size="18" font-weight="400" fill="#000000">Operating</tspan>
    <tspan x="8" y="352.92" font-size="18" font-weight="400" fill="#000000">system</tspan>
  </text>
  <g class="dg-icon" transform="translate(136 312)">
<path d="M39.5 30C40.6046 30 41.5 30.8954 41.5 32V37C41.5 38.1046 40.6046 39 39.5 39H24.5V40.4277C25.5716 40.6573 26.375 41.6099 26.375 42.75C26.375 44.0617 25.3117 45.125 24 45.125C22.6883 45.125 21.625 44.0617 21.625 42.75C21.625 41.6099 22.4284 40.6574 23.5 40.4277V39H8.5C7.39543 39 6.5 38.1046 6.5 37V32C6.5 30.8954 7.39543 30 8.5 30H39.5ZM24 41.375C23.2406 41.375 22.625 41.9906 22.625 42.75C22.625 43.5094 23.2406 44.125 24 44.125C24.7594 44.125 25.375 43.5094 25.375 42.75C25.375 41.9906 24.7594 41.375 24 41.375ZM8.5 31C7.94772 31 7.5 31.4477 7.5 32V37L7.50488 37.1025C7.55278 37.573 7.92703 37.9472 8.39746 37.9951L8.5 38H39.5L39.6025 37.9951C40.1067 37.9438 40.5 37.5177 40.5 37V32C40.5 31.4477 40.0523 31 39.5 31H8.5ZM12 33.501C12.5523 33.501 13 33.9487 13 34.501C13 35.0533 12.5523 35.501 12 35.501C11.4477 35.501 11 35.0533 11 34.501C11 33.9487 11.4477 33.501 12 33.501ZM39.5 19C40.6046 19 41.5 19.8954 41.5 21V26C41.5 27.1046 40.6046 28 39.5 28H8.5C7.39543 28 6.5 27.1046 6.5 26V21C6.5 19.8954 7.39543 19 8.5 19H39.5ZM8.5 20C7.94772 20 7.5 20.4477 7.5 21V26L7.50488 26.1025C7.55278 26.573 7.92703 26.9472 8.39746 26.9951L8.5 27H39.5L39.6025 26.9951C40.1067 26.9438 40.5 26.5177 40.5 26V21C40.5 20.4477 40.0523 20 39.5 20H8.5ZM12 22.501C12.5523 22.501 13 22.9487 13 23.501C13 24.0533 12.5523 24.501 12 24.501C11.4477 24.501 11 24.0533 11 23.501C11 22.9487 11.4477 22.501 12 22.501ZM39.5 8C40.6046 8 41.5 8.89543 41.5 10V15C41.5 16.1046 40.6046 17 39.5 17H8.5C7.39543 17 6.5 16.1046 6.5 15V10C6.5 8.89543 7.39543 8 8.5 8H39.5ZM8.5 9C7.94772 9 7.5 9.44772 7.5 10V15L7.50488 15.1025C7.55278 15.573 7.92703 15.9472 8.39746 15.9951L8.5 16H39.5L39.6025 15.9951C40.1067 15.9438 40.5 15.5177 40.5 15V10C40.5 9.44772 40.0523 9 39.5 9H8.5ZM12 11.501C12.5523 11.501 13 11.9487 13 12.501C13 13.0533 12.5523 13.501 12 13.501C11.4477 13.501 11 13.0533 11 12.501C11 11.9487 11.4477 11.501 12 11.501Z" fill="#000000" />

<circle cx="16" cy="12.501" r="1" fill="#000000" />

<circle cx="16" cy="23.501" r="1" fill="#000000" />

<circle cx="16" cy="34.501" r="1" fill="#000000" />

  </g>
  </g>
  <g data-component-id="hw">
  <rect x="0" y="392" width="192" height="64" fill="#F3F3F3" stroke="#000000" stroke-width="1" stroke-miterlimit="10" />
  <text font-family="Ubuntu Sans">
    <tspan x="8" y="416.92" font-size="18" font-weight="400" fill="#000000">Hardware</tspan>
  </text>
  <g class="dg-icon" transform="translate(136 400)">
<path fill-rule="evenodd" clip-rule="evenodd" d="M40.6533 6.00684C41.4096 6.08363 41.9999 6.72247 42 7.49902V40.499L41.9922 40.6523C41.9205 41.3583 41.3593 41.9195 40.6533 41.9912L40.5 41.999H7.5C6.72334 41.999 6.08461 41.4087 6.00781 40.6523L6 40.499V7.49902C6.00013 6.67071 6.67165 5.99902 7.5 5.99902H40.5L40.6533 6.00684ZM7.5 6.99902C7.25837 6.99902 7.05638 7.17059 7.00977 7.39844L7 7.49902V40.499C7 40.7752 7.22386 40.999 7.5 40.999H28V29.0908L18.5 19.2383V27.2998H17.5V6.99902H7.5ZM18.5 17.7979L28.8604 28.542L29 28.6875V40.999H40.5C40.7761 40.999 41 40.7752 41 40.499V7.49902C40.9999 7.25742 40.8285 7.0553 40.6006 7.00879L40.5 6.99902H27.2002V15.208L29.1729 17.417L28.7998 17.75L28.4277 18.083L26.3271 15.7334L26.2002 15.5908V6.99902H18.5V17.7979Z" fill="#000000" />

<path fill-rule="evenodd" clip-rule="evenodd" d="M18 29C19.3807 29 20.5 30.1193 20.5 31.5C20.5 32.8807 19.3807 34 18 34C16.6193 34 15.5 32.8807 15.5 31.5C15.5 30.1193 16.6193 29 18 29ZM18 30C17.1716 30 16.5 30.6716 16.5 31.5C16.5 32.3284 17.1716 33 18 33C18.8284 33 19.5 32.3284 19.5 31.5C19.5 30.6716 18.8284 30 18 30Z" fill="#000000" />

<path fill-rule="evenodd" clip-rule="evenodd" d="M31.7998 18.5C33.1805 18.5 34.2998 19.6193 34.2998 21C34.2998 22.3807 33.1805 23.5 31.7998 23.5C30.4191 23.4999 29.2998 22.3807 29.2998 21C29.2998 19.6193 30.4192 18.5001 31.7998 18.5ZM31.7998 19.5C30.9714 19.5001 30.2998 20.1716 30.2998 21C30.2998 21.8284 30.9714 22.4999 31.7998 22.5C32.6282 22.5 33.2998 21.8284 33.2998 21C33.2998 20.1716 32.6282 19.5 31.7998 19.5Z" fill="#000000" />

  </g>
  </g>
  <g data-component-id="si">
  <rect x="0" y="480" width="192" height="64" fill="#F3F3F3" stroke="#000000" stroke-width="1" stroke-miterlimit="10" />
  <text font-family="Ubuntu Sans">
    <tspan x="8" y="504.92" font-size="18" font-weight="400" fill="#000000">Silicon</tspan>
  </text>
  <g class="dg-icon" transform="translate(136 488)">
<path fill-rule="evenodd" clip-rule="evenodd" d="M40.6533 6.00781C41.4097 6.08461 42 6.72334 42 7.5V40.5L41.9922 40.6533C41.9205 41.3593 41.3593 41.9205 40.6533 41.9922L40.5 42H7.5C6.72334 42 6.08461 41.4097 6.00781 40.6533L6 40.5V7.5C6 6.67157 6.67157 6 7.5 6H40.5L40.6533 6.00781ZM7.5 7C7.25829 7 7.05629 7.17145 7.00977 7.39941L7 7.5V40.5C7 40.7761 7.22386 41 7.5 41H40.5C40.7761 41 41 40.7761 41 40.5V7.5C41 7.25829 40.8286 7.05629 40.6006 7.00977L40.5 7H7.5Z" fill="#000000" />

<path fill-rule="evenodd" clip-rule="evenodd" d="M19.9248 15.5996H23.7256V11.4004H24.7256V15.5996H28.5254V11.4004H29.5254V15.5996H32.4004V18.7002H36.8252V19.7002H32.4004V23.5H36.8252V24.5H32.4004V28.2998H36.8252V29.2998H32.4004V32.3994H29.5254V36.5996H28.5254V32.3994H24.7256V36.5996H23.7256V32.3994H19.9248V36.5996H18.9248V32.3994H15.6006V29.2998H11.625V28.2998H15.6006V24.5H11.625V23.5H15.6006V19.7002H11.625V18.7002H15.6006V15.5996H18.9248V11.4004H19.9248V15.5996ZM16.6006 31.3994H31.4004V16.5996H16.6006V31.3994Z" fill="#000000" />

  </g>
  </g>
  <g data-component-id="wall">
  <rect x="0" y="568" width="192" height="40" fill="#F3F3F3" stroke="#000000" stroke-width="1" stroke-miterlimit="10" />
  <text font-family="Ubuntu Sans">
    <tspan x="8" y="592.92" font-size="18" font-weight="400" fill="#000000">Memory wall</tspan>
  </text>
  </g>
  <g data-component-id="user.bottom-&gt;app.top">
  <line x1="96" y1="40" x2="96" y2="52" fill="none" stroke="#E95420" stroke-width="1" stroke-miterlimit="10" />
  <line x1="96" y1="52" x2="96" y2="52" fill="none" stroke="#E95420" stroke-width="1" stroke-miterlimit="10" />
  <line x1="96" y1="52" x2="96" y2="53.1592" fill="none" stroke="#E95420" stroke-width="1" stroke-miterlimit="10" />
  <polygon points="93.0947,53.1592 96,64 98.9053,53.1592" fill="#E95420" />
  </g>
  <g data-component-id="app.bottom-&gt;missing.top">
  <line x1="96" y1="128" x2="96" y2="184" fill="none" stroke="#E95420" stroke-width="1" stroke-miterlimit="10" />
  <line x1="96" y1="184" x2="96" y2="184" fill="none" stroke="#E95420" stroke-width="1" stroke-miterlimit="10" />
  <line x1="96" y1="184" x2="96" y2="229.1592" fill="none" stroke="#E95420" stroke-width="1" stroke-miterlimit="10" />
  <polygon points="93.0947,229.1592 96,240 98.9053,229.1592" fill="#E95420" />
  </g>
  <g data-component-id="missing.bottom-&gt;os.top">
  <line x1="96" y1="280" x2="96" y2="292" fill="none" stroke="#E95420" stroke-width="1" stroke-miterlimit="10" />
  <line x1="96" y1="292" x2="96" y2="292" fill="none" stroke="#E95420" stroke-width="1" stroke-miterlimit="10" />
  <line x1="96" y1="292" x2="96" y2="293.1592" fill="none" stroke="#E95420" stroke-width="1" stroke-miterlimit="10" />
  <polygon points="93.0947,293.1592 96,304 98.9053,293.1592" fill="#E95420" />
  </g>
  <g data-component-id="os.bottom-&gt;hw.top">
  <line x1="96" y1="368" x2="96" y2="380" fill="none" stroke="#E95420" stroke-width="1" stroke-miterlimit="10" />
  <line x1="96" y1="380" x2="96" y2="380" fill="none" stroke="#E95420" stroke-width="1" stroke-miterlimit="10" />
  <line x1="96" y1="380" x2="96" y2="381.1592" fill="none" stroke="#E95420" stroke-width="1" stroke-miterlimit="10" />
  <polygon points="93.0947,381.1592 96,392 98.9053,381.1592" fill="#E95420" />
  </g>
  <g data-component-id="hw.bottom-&gt;si.top">
  <line x1="96" y1="456" x2="96" y2="468" fill="none" stroke="#E95420" stroke-width="1" stroke-miterlimit="10" />
  <line x1="96" y1="468" x2="96" y2="468" fill="none" stroke="#E95420" stroke-width="1" stroke-miterlimit="10" />
  <line x1="96" y1="468" x2="96" y2="469.1592" fill="none" stroke="#E95420" stroke-width="1" stroke-miterlimit="10" />
  <polygon points="93.0947,469.1592 96,480 98.9053,469.1592" fill="#E95420" />
  </g>
  <g data-component-id="si.bottom-&gt;wall.top">
  <line x1="96" y1="544" x2="96" y2="556" fill="none" stroke="#E95420" stroke-width="1" stroke-miterlimit="10" />
  <line x1="96" y1="556" x2="96" y2="556" fill="none" stroke="#E95420" stroke-width="1" stroke-miterlimit="10" />
  <line x1="96" y1="556" x2="96" y2="557.1592" fill="none" stroke="#E95420" stroke-width="1" stroke-miterlimit="10" />
  <polygon points="93.0947,557.1592 96,568 98.9053,557.1592" fill="#E95420" />
  </g>
  <g data-component-id="missing_note.left-&gt;missing.right">
  <line x1="216" y1="120" x2="204" y2="120" fill="none" stroke="#E95420" stroke-width="1" stroke-miterlimit="10" />
  <line x1="204" y1="120" x2="204" y2="260" fill="none" stroke="#E95420" stroke-width="1" stroke-miterlimit="10" />
  <line x1="204" y1="260" x2="202.8408" y2="260" fill="none" stroke="#E95420" stroke-width="1" stroke-miterlimit="10" />
  <polygon points="202.8408,257.0947 192,260 202.8408,262.9053" fill="#E95420" />
  </g>
</svg>
