<svg xmlns="http://www.w3.org/2000/svg" width="928" height="688" viewBox="0 0 928 688" xml:space="preserve">
  <rect width="928" height="688" fill="#FFFFFF" />
  <g data-component-id="title">
  <rect x="24" y="24" width="872" height="64" fill="#FFFFFF" stroke="#000000" stroke-width="1" stroke-miterlimit="10" />
  <text font-family="Ubuntu Sans">
    <tspan x="32" y="48.92" font-size="18" font-weight="700" fill="#000000">The rise of the inference economy</tspan>
  </text>
  <g class="dg-icon" transform="translate(840 32)">
<path fill-rule="evenodd" clip-rule="evenodd" d="M27.1855 10C32.1958 10 36.2166 13.9999 36.2168 18.9229L36.2109 19.1426C36.1874 19.6524 36.0941 20.1474 36.0928 20.1543C41.0412 20.2158 45 24.1541 45 29.0771L44.9883 29.5361C44.7475 34.2463 40.8223 38 35.9688 38H12.0312L11.5645 37.9883C6.9281 37.7568 3.24476 34.0945 3.01172 29.5361L3 29.0771C3.00003 24.9541 5.78376 21.3518 9.86621 20.4287V18.9844C9.86638 15.9076 12.4024 13.4463 15.4951 13.4463L15.749 13.4521C17.0168 13.5096 18.2202 13.996 19.2061 14.8613C20.7525 11.9076 23.8454 10 27.1855 10ZM27.1855 11C24.2244 11 21.4689 12.6948 20.0918 15.3252L19.502 16.4521L18.5469 15.6133C17.674 14.8471 16.608 14.4464 15.4951 14.4463C12.9354 14.4463 10.8664 16.479 10.8662 18.9844V21.2275L10.0869 21.4033C6.47196 22.2207 4.00003 25.4093 4 29.0771C4.00012 33.4385 7.56395 37 12.0312 37H35.9688C40.4361 37 43.9999 33.4385 44 29.0771C44 24.7135 40.4931 21.2082 36.0801 21.1533L34.8877 21.1387L35.1104 19.9668V19.9648C35.1109 19.9617 35.1119 19.9557 35.1133 19.9482C35.116 19.9332 35.121 19.91 35.126 19.8799C35.1361 19.8188 35.1493 19.7305 35.1631 19.626C35.1914 19.4107 35.2168 19.151 35.2168 18.9229C35.2166 14.5615 31.6528 11 27.1855 11Z" fill="#000000" />

  </g>
  </g>
  <g data-component-id="training_hdr">
  <rect x="24" y="112" width="424" height="64" fill="#F3F3F3" stroke="#000000" stroke-width="1" stroke-miterlimit="10" />
  <text font-family="Ubuntu Sans">
    <tspan x="32" y="136.92" font-size="18" font-weight="700" fill="#000000">Training</tspan>
  </text>
  <g class="dg-icon" transform="translate(392 120)">
<path fill-rule="evenodd" clip-rule="evenodd" d="M30.1585 29.5527C31.5389 29.553 32.6585 30.6722 32.6585 32.0527C32.6584 33.4332 31.5389 34.5525 30.1585 34.5527C28.7778 34.5527 27.6585 33.4334 27.6585 32.0527C27.6585 30.672 28.7778 29.5527 30.1585 29.5527ZM30.1585 30.5527C29.33 30.5527 28.6585 31.2243 28.6585 32.0527C28.6585 32.8811 29.3301 33.5527 30.1585 33.5527C30.9866 33.5525 31.6584 32.8809 31.6585 32.0527C31.6585 31.2245 30.9867 30.553 30.1585 30.5527Z" fill="#000000" />

<path fill-rule="evenodd" clip-rule="evenodd" d="M16.8948 20.0791C18.2755 20.0791 19.3948 21.1984 19.3948 22.5791C19.3947 23.9597 18.2755 25.0791 16.8948 25.0791C15.5141 25.0791 14.3949 23.9597 14.3948 22.5791C14.3948 21.1984 15.5141 20.0791 16.8948 20.0791ZM16.8948 21.0791C16.0664 21.0791 15.3948 21.7507 15.3948 22.5791C15.3949 23.4075 16.0664 24.0791 16.8948 24.0791C17.7232 24.0791 18.3947 23.4075 18.3948 22.5791C18.3948 21.7507 17.7232 21.0791 16.8948 21.0791Z" fill="#000000" />

<path fill-rule="evenodd" clip-rule="evenodd" d="M32.5003 13.9209C33.8807 13.9212 35.0002 15.0404 35.0003 16.4209C35.0003 17.8014 33.8807 18.9206 32.5003 18.9209C31.1195 18.9209 30.0003 17.8016 30.0003 16.4209C30.0003 15.0403 31.1196 13.9209 32.5003 13.9209ZM32.5003 14.9209C31.6719 14.9209 31.0003 15.5925 31.0003 16.4209C31.0003 17.2493 31.6718 17.9209 32.5003 17.9209C33.3285 17.9206 34.0003 17.2492 34.0003 16.4209C34.0002 15.5927 33.3284 14.9212 32.5003 14.9209Z" fill="#000000" />

<path fill-rule="evenodd" clip-rule="evenodd" d="M26.617 5.5479C27.6617 5.42222 28.7243 5.54512 29.7069 5.90533C30.6895 6.26564 31.5634 6.8528 32.2459 7.61626C32.9287 8.38004 33.3986 9.29556 33.6082 10.2793L33.8397 11.3663L34.4852 11.4874C36.0585 11.7832 37.4803 12.5822 38.5057 13.7549C39.5317 14.9284 40.0967 16.404 40.0975 17.9317V18.377C40.0975 19.9138 39.4955 21.3138 38.5106 22.3848C39.7662 23.1025 40.8039 24.1249 41.5076 25.3545C42.327 26.7862 42.6515 28.4253 42.4334 30.042C42.2153 31.6583 41.4665 33.1662 40.2967 34.3575C39.2032 35.471 37.7926 36.2564 36.241 36.626L36.2186 36.7276C35.9528 37.9731 35.3423 39.1277 34.452 40.0752C33.5619 41.0225 32.4232 41.7295 31.1541 42.129C29.8853 42.5282 28.5272 42.6066 27.2166 42.3565C26.4088 42.2023 25.6354 41.9266 24.9256 41.542C24.5309 41.3281 24.2258 41.0269 23.9998 40.6788C23.7739 41.0268 23.4688 41.3281 23.074 41.542C22.3643 41.9266 21.5909 42.2023 20.783 42.3565C19.4725 42.6066 18.1144 42.5283 16.8455 42.129C15.5765 41.7295 14.4378 41.0225 13.5477 40.0752C12.6574 39.1277 12.0468 37.9731 11.7811 36.7276L11.7586 36.626C10.2071 36.2564 8.79642 35.471 7.70296 34.3575C6.53321 33.1662 5.78436 31.6583 5.56624 30.042C5.34813 28.4253 5.6727 26.7862 6.49202 25.3545C7.19578 24.1249 8.23347 23.1025 9.48909 22.3848C8.50421 21.3138 7.90218 19.9138 7.90217 18.377V17.9317C7.90295 16.404 8.46797 14.9284 9.49397 13.7549C10.5194 12.5822 11.9412 11.7833 13.5145 11.4874L14.16 11.3663L14.3914 10.2793C14.601 9.29561 15.071 8.38002 15.7537 7.61626C16.4363 6.85281 17.3102 6.26566 18.2928 5.90533C19.2753 5.5451 20.3379 5.42225 21.3826 5.5479C21.8497 5.60413 22.3076 5.7094 22.7469 5.8604C23.3008 6.05083 23.7136 6.41256 23.9998 6.85552C24.2861 6.41253 24.6989 6.05087 25.2528 5.8604C25.6921 5.70939 26.15 5.60414 26.617 5.5479ZM21.2635 6.54107C20.3742 6.43406 19.4709 6.5383 18.6375 6.8438C17.8042 7.14935 17.0688 7.64567 16.4989 8.28325C15.9293 8.92057 15.5422 9.67948 15.3699 10.4883L15.0828 11.8379C15.0553 12.4842 15.0659 13.1757 15.3114 13.753C15.5406 14.292 15.9949 14.7783 16.9959 14.9834L16.7948 15.9639C16.7801 15.9609 16.7653 15.9563 16.7508 15.9532L16.7489 15.9639C15.4388 15.6954 14.7084 14.9971 14.3455 14.1436C14.1022 13.5711 14.0363 12.9524 14.0282 12.4073L13.699 12.4708C12.3377 12.7268 11.1191 13.4157 10.2469 14.4131C9.37536 15.41 8.90282 16.6541 8.90217 17.9327V18.377C8.90219 19.8531 9.57346 21.1905 10.661 22.1319C10.7892 22.2429 10.8525 22.4121 10.8289 22.5801C10.8053 22.748 10.6975 22.8925 10.5438 22.9639C9.18317 23.5961 8.07223 24.6075 7.36018 25.8516C6.64846 27.0953 6.36822 28.5129 6.55647 29.9083C6.74478 31.3039 7.39339 32.615 8.41682 33.6573C9.30461 34.5613 10.4374 35.2226 11.6932 35.5752C11.7394 34.7923 11.8994 33.931 12.3123 33.1641C12.8574 32.1522 13.8191 31.3481 15.3914 31.086L15.4744 31.5792L15.5565 32.0723C14.2871 32.2839 13.5908 32.9006 13.1932 33.6387C12.7915 34.3846 12.6752 35.2952 12.6776 36.1368L12.7586 36.5186C12.9852 37.5807 13.5083 38.5724 14.2772 39.3907C15.0462 40.209 16.0351 40.8254 17.1453 41.1749C18.2559 41.5244 19.4466 41.5933 20.5955 41.3741C21.3033 41.239 21.9789 40.9973 22.5975 40.6622C23.1742 40.3496 23.4998 39.6749 23.4998 38.9083V31.1309H19.8944C17.9616 31.1307 16.3944 29.5638 16.3944 27.6309V26.3682H17.3944V27.6309C17.3944 29.0115 18.5138 30.1307 19.8944 30.1309H23.4998V8.627C23.4997 7.76453 23.0902 7.03536 22.4227 6.80572C22.0501 6.67761 21.6609 6.5889 21.2635 6.54107ZM29.3621 6.8438C28.5288 6.53832 27.6254 6.43403 26.7362 6.54107C26.3388 6.58891 25.9496 6.6776 25.577 6.80572C24.9096 7.03542 24.4999 7.7646 24.4998 8.627V15.9209H28.4998V16.9209H24.4998V38.9083C24.4998 39.6748 24.8256 40.3496 25.4022 40.6622C26.0207 40.9973 26.6964 41.2389 27.4041 41.3741C28.553 41.5934 29.7437 41.5244 30.8543 41.1749C31.9646 40.8254 32.9534 40.209 33.7225 39.3907C34.4914 38.5724 35.0144 37.5807 35.241 36.5186L35.3289 36.1026C35.3655 35.9316 35.4888 35.7941 35.6502 35.7364L35.7215 35.7168L35.9989 35.6563C37.3774 35.3299 38.623 34.6346 39.5828 33.6573C40.6063 32.615 41.2549 31.3039 41.4432 29.9083C41.6314 28.5128 41.3512 27.0953 40.6395 25.8516C39.9691 24.6803 38.9452 23.7157 37.6922 23.0792H33.158C31.7773 23.0792 30.658 24.1984 30.658 25.5792V28.2637H29.658V25.5792C29.658 23.6462 31.225 22.0792 33.158 22.0792H37.3973C38.45 21.1409 39.0975 19.8262 39.0975 18.377V17.9327C39.0968 16.654 38.6244 15.41 37.7528 14.4131C36.8806 13.4157 35.662 12.7268 34.3006 12.4708L33.327 12.2881C33.1285 12.251 32.9715 12.098 32.9295 11.9004L32.6297 10.4883C32.4574 9.67944 32.0704 8.9206 31.5008 8.28325C30.9308 7.64566 30.1955 7.14934 29.3621 6.8438Z" fill="#000000" />

  </g>
  </g>
  <g data-component-id="inference_hdr">
  <rect x="472" y="112" width="424" height="64" fill="#000000" stroke="#000000" stroke-width="1" stroke-miterlimit="10" />
  <text font-family="Ubuntu Sans">
    <tspan x="480" y="136.92" font-size="18" font-weight="700" fill="#FFFFFF">Inference</tspan>
  </text>
  <g class="dg-icon" transform="translate(840 120)">
<path fill-rule="evenodd" clip-rule="evenodd" d="M33.5 45H32.5V39H24.5V45H23.5V39H15.5V45H14.5V39H10.5C9.72334 39 9.08461 38.4097 9.00781 37.6533L9 37.5V33.5H3V32.5H9V24.5H3V23.5H9V15.5H3V14.5H9V10.5C9 9.67157 9.67157 9 10.5 9H14.5V3H15.5V9H23.5V3H24.5V9H32.5V3H33.5V9H37.5L37.6533 9.00781C38.4097 9.08461 39 9.72334 39 10.5V14.5H45V15.5H39V23.5H45V24.5H39V32.5H45V33.5H39V37.5L38.9922 37.6533C38.9205 38.3593 38.3593 38.9205 37.6533 38.9922L37.5 39H33.5V45ZM10.5 10C10.2239 10 10 10.2239 10 10.5V37.5C10 37.7761 10.2239 38 10.5 38H37.5C37.7761 38 38 37.7761 38 37.5V10.5C38 10.2239 37.7761 10 37.5 10H10.5Z" fill="#FFFFFF" />

<path fill-rule="evenodd" clip-rule="evenodd" d="M30 30H18V18H30V30ZM19 29H29V19H19V29Z" fill="#FFFFFF" />

  </g>
  </g>
  <g data-component-id="training_detail">
  <rect x="24" y="200" width="424" height="64" fill="#FFFFFF" stroke="#000000" stroke-width="1" stroke-miterlimit="10" />
  <text font-family="Ubuntu Sans">
    <tspan x="32" y="224.92" font-size="18" font-weight="400" fill="#000000">Costly &amp; episodic</tspan>
    <tspan x="32" y="248.92" font-size="18" font-weight="400" fill="#000000">High investment</tspan>
  </text>
  <g class="dg-icon" transform="translate(392 208)">
<path fill-rule="evenodd" clip-rule="evenodd" d="M37.6533 3.00781C38.4097 3.08461 39 3.72334 39 4.5V43.5C39 44.2767 38.4097 44.9154 37.6533 44.9922L37.5 45H10.5C9.72334 45 9.08461 44.4097 9.00781 43.6533L9 43.5V4.5C9 3.67157 9.67157 3 10.5 3H37.5L37.6533 3.00781ZM10.5 4C10.2239 4 10 4.22386 10 4.5V43.5C10 43.7761 10.2239 44 10.5 44H37.5C37.7761 44 38 43.7761 38 43.5V4.5C38 4.22386 37.7761 4 37.5 4H10.5Z" fill="#000000" />

<path fill-rule="evenodd" clip-rule="evenodd" d="M34.5 16.5H13.5V7.5H34.5V16.5ZM14.5 15.5H33.5V8.5H14.5V15.5Z" fill="#000000" />

<path d="M33.2354 32.4219L30.4062 35.25L33.2354 38.0781L32.5283 38.7852L29.6992 35.9561L26.8711 38.7852L26.1641 38.0781L28.9922 35.25L26.1641 32.4219L26.8711 31.7148L29.6992 34.543L32.5283 31.7148L33.2354 32.4219Z" fill="#000000" />

<path d="M21.4502 35.75H13.9502V34.75H21.4502V35.75Z" fill="#000000" />

<path d="M18.2002 24.25H21.4502V25.25H18.2002V28.5H17.2002V25.25H13.9502V24.25H17.2002V21H18.2002V24.25Z" fill="#000000" />

<path d="M31.9502 25.5C32.775 25.5002 33.4502 26.1751 33.4502 27C33.4502 27.8249 32.775 28.4998 31.9502 28.5C31.1252 28.5 30.4502 27.825 30.4502 27C30.4502 26.175 31.1252 25.5 31.9502 25.5Z" fill="#000000" />

<path d="M33.2354 21.9219L26.8711 28.2852L26.1641 27.5781L32.5283 21.2148L33.2354 21.9219Z" fill="#000000" />

<path d="M27.4502 21C28.2751 21.0001 28.9502 21.6751 28.9502 22.5C28.9502 23.3249 28.2751 23.9999 27.4502 24C26.6252 24 25.9502 23.325 25.9502 22.5C25.9502 21.675 26.6252 21 27.4502 21Z" fill="#000000" />

  </g>
  </g>
  <g data-component-id="inference_detail">
  <rect x="472" y="200" width="424" height="64" fill="#FFFFFF" stroke="#000000" stroke-width="1" stroke-miterlimit="10" />
  <text font-family="Ubuntu Sans">
    <tspan x="480" y="224.92" font-size="18" font-weight="400" fill="#000000">Constant &amp; demand-driven</tspan>
    <tspan x="480" y="248.92" font-size="18" font-weight="400" fill="#000000">Ongoing expense</tspan>
  </text>
  <g class="dg-icon" transform="translate(840 208)">
<path d="M39.5 30C40.6046 30 41.5 30.8954 41.5 32V37C41.5 38.1046 40.6046 39 39.5 39H24.5V40.4277C25.5716 40.6573 26.375 41.6099 26.375 42.75C26.375 44.0617 25.3117 45.125 24 45.125C22.6883 45.125 21.625 44.0617 21.625 42.75C21.625 41.6099 22.4284 40.6574 23.5 40.4277V39H8.5C7.39543 39 6.5 38.1046 6.5 37V32C6.5 30.8954 7.39543 30 8.5 30H39.5ZM24 41.375C23.2406 41.375 22.625 41.9906 22.625 42.75C22.625 43.5094 23.2406 44.125 24 44.125C24.7594 44.125 25.375 43.5094 25.375 42.75C25.375 41.9906 24.7594 41.375 24 41.375ZM8.5 31C7.94772 31 7.5 31.4477 7.5 32V37L7.50488 37.1025C7.55278 37.573 7.92703 37.9472 8.39746 37.9951L8.5 38H39.5L39.6025 37.9951C40.1067 37.9438 40.5 37.5177 40.5 37V32C40.5 31.4477 40.0523 31 39.5 31H8.5ZM12 33.501C12.5523 33.501 13 33.9487 13 34.501C13 35.0533 12.5523 35.501 12 35.501C11.4477 35.501 11 35.0533 11 34.501C11 33.9487 11.4477 33.501 12 33.501ZM39.5 19C40.6046 19 41.5 19.8954 41.5 21V26C41.5 27.1046 40.6046 28 39.5 28H8.5C7.39543 28 6.5 27.1046 6.5 26V21C6.5 19.8954 7.39543 19 8.5 19H39.5ZM8.5 20C7.94772 20 7.5 20.4477 7.5 21V26L7.50488 26.1025C7.55278 26.573 7.92703 26.9472 8.39746 26.9951L8.5 27H39.5L39.6025 26.9951C40.1067 26.9438 40.5 26.5177 40.5 26V21C40.5 20.4477 40.0523 20 39.5 20H8.5ZM12 22.501C12.5523 22.501 13 22.9487 13 23.501C13 24.0533 12.5523 24.501 12 24.501C11.4477 24.501 11 24.0533 11 23.501C11 22.9487 11.4477 22.501 12 22.501ZM39.5 8C40.6046 8 41.5 8.89543 41.5 10V15C41.5 16.1046 40.6046 17 39.5 17H8.5C7.39543 17 6.5 16.1046 6.5 15V10C6.5 8.89543 7.39543 8 8.5 8H39.5ZM8.5 9C7.94772 9 7.5 9.44772 7.5 10V15L7.50488 15.1025C7.55278 15.573 7.92703 15.9472 8.39746 15.9951L8.5 16H39.5L39.6025 15.9951C40.1067 15.9438 40.5 15.5177 40.5 15V10C40.5 9.44772 40.0523 9 39.5 9H8.5ZM12 11.501C12.5523 11.501 13 11.9487 13 12.501C13 13.0533 12.5523 13.501 12 13.501C11.4477 13.501 11 13.0533 11 12.501C11 11.9487 11.4477 11.501 12 11.501Z" fill="#000000" />

<circle cx="16" cy="12.501" r="1" fill="#000000" />

<circle cx="16" cy="23.501" r="1" fill="#000000" />

<circle cx="16" cy="34.501" r="1" fill="#000000" />

  </g>
  </g>
  <g data-component-id="compute">
  <rect x="16" y="288" width="440" height="248" fill="#F3F3F3" stroke="#000000" stroke-width="1" stroke-miterlimit="10" />
  <text font-family="Ubuntu Sans">
    <tspan x="24" y="312.92" font-size="18" font-weight="700" fill="#000000">Always-on compute</tspan>
  </text>
  </g>
  <g data-component-id="_auto_compute_4">
  <rect x="24" y="376" width="200" height="64" fill="#FFFFFF" stroke="#000000" stroke-width="1" stroke-miterlimit="10" />
  <text font-family="Ubuntu Sans">
    <tspan x="32" y="400.92" font-size="18" font-weight="400" fill="#000000">Data centers</tspan>
  </text>
  <g class="dg-icon" transform="translate(168 384)">
<path d="M39.5 30C40.6046 30 41.5 30.8954 41.5 32V37C41.5 38.1046 40.6046 39 39.5 39H24.5V40.4277C25.5716 40.6573 26.375 41.6099 26.375 42.75C26.375 44.0617 25.3117 45.125 24 45.125C22.6883 45.125 21.625 44.0617 21.625 42.75C21.625 41.6099 22.4284 40.6574 23.5 40.4277V39H8.5C7.39543 39 6.5 38.1046 6.5 37V32C6.5 30.8954 7.39543 30 8.5 30H39.5ZM24 41.375C23.2406 41.375 22.625 41.9906 22.625 42.75C22.625 43.5094 23.2406 44.125 24 44.125C24.7594 44.125 25.375 43.5094 25.375 42.75C25.375 41.9906 24.7594 41.375 24 41.375ZM8.5 31C7.94772 31 7.5 31.4477 7.5 32V37L7.50488 37.1025C7.55278 37.573 7.92703 37.9472 8.39746 37.9951L8.5 38H39.5L39.6025 37.9951C40.1067 37.9438 40.5 37.5177 40.5 37V32C40.5 31.4477 40.0523 31 39.5 31H8.5ZM12 33.501C12.5523 33.501 13 33.9487 13 34.501C13 35.0533 12.5523 35.501 12 35.501C11.4477 35.501 11 35.0533 11 34.501C11 33.9487 11.4477 33.501 12 33.501ZM39.5 19C40.6046 19 41.5 19.8954 41.5 21V26C41.5 27.1046 40.6046 28 39.5 28H8.5C7.39543 28 6.5 27.1046 6.5 26V21C6.5 19.8954 7.39543 19 8.5 19H39.5ZM8.5 20C7.94772 20 7.5 20.4477 7.5 21V26L7.50488 26.1025C7.55278 26.573 7.92703 26.9472 8.39746 26.9951L8.5 27H39.5L39.6025 26.9951C40.1067 26.9438 40.5 26.5177 40.5 26V21C40.5 20.4477 40.0523 20 39.5 20H8.5ZM12 22.501C12.5523 22.501 13 22.9487 13 23.501C13 24.0533 12.5523 24.501 12 24.501C11.4477 24.501 11 24.0533 11 23.501C11 22.9487 11.4477 22.501 12 22.501ZM39.5 8C40.6046 8 41.5 8.89543 41.5 10V15C41.5 16.1046 40.6046 17 39.5 17H8.5C7.39543 17 6.5 16.1046 6.5 15V10C6.5 8.89543 7.39543 8 8.5 8H39.5ZM8.5 9C7.94772 9 7.5 9.44772 7.5 10V15L7.50488 15.1025C7.55278 15.573 7.92703 15.9472 8.39746 15.9951L8.5 16H39.5L39.6025 15.9951C40.1067 15.9438 40.5 15.5177 40.5 15V10C40.5 9.44772 40.0523 9 39.5 9H8.5ZM12 11.501C12.5523 11.501 13 11.9487 13 12.501C13 13.0533 12.5523 13.501 12 13.501C11.4477 13.501 11 13.0533 11 12.501C11 11.9487 11.4477 11.501 12 11.501Z" fill="#000000" />

<circle cx="16" cy="12.501" r="1" fill="#000000" />

<circle cx="16" cy="23.501" r="1" fill="#000000" />

<circle cx="16" cy="34.501" r="1" fill="#000000" />

  </g>
  </g>
  <g data-component-id="_auto_compute_5">
  <rect x="248" y="376" width="200" height="64" fill="#FFFFFF" stroke="#000000" stroke-width="1" stroke-miterlimit="10" />
  <text font-family="Ubuntu Sans">
    <tspan x="256" y="400.92" font-size="18" font-weight="400" fill="#000000">Edge devices</tspan>
  </text>
  <g class="dg-icon" transform="translate(392 384)">
<path fill-rule="evenodd" clip-rule="evenodd" d="M35 3C36.1046 3 37 3.89543 37 5V43C37 44.0357 36.2128 44.887 35.2041 44.9893L35 45H13L12.7959 44.9893C11.8543 44.8938 11.1062 44.1457 11.0107 43.2041L11 43V5C11 3.89543 11.8954 3 13 3H35ZM13 4C12.4477 4 12 4.44772 12 5V43C12 43.5523 12.4477 44 13 44H35C35.5523 44 36 43.5523 36 43V5C36 4.44772 35.5523 4 35 4H13Z" fill="#000000" />

<path d="M24 40C24.5523 40 25 40.4477 25 41C25 41.5523 24.5523 42 24 42C23.4477 42 23 41.5523 23 41C23 40.4477 23.4477 40 24 40Z" fill="#000000" />

<path d="M34.5 38.5H13.5V37.5H34.5V38.5Z" fill="#000000" />

  </g>
  </g>
  <g data-component-id="_auto_compute_6">
  <rect x="24" y="464" width="408" height="64" fill="#FFFFFF" stroke="#000000" stroke-width="1" stroke-miterlimit="10" />
  <text font-family="Ubuntu Sans">
    <tspan x="32" y="488.92" font-size="18" font-weight="400" fill="#000000">Local AI</tspan>
  </text>
  <g class="dg-icon" transform="translate(376 472)">
<path fill-rule="evenodd" clip-rule="evenodd" d="M30.1585 29.5527C31.5389 29.553 32.6585 30.6722 32.6585 32.0527C32.6584 33.4332 31.5389 34.5525 30.1585 34.5527C28.7778 34.5527 27.6585 33.4334 27.6585 32.0527C27.6585 30.672 28.7778 29.5527 30.1585 29.5527ZM30.1585 30.5527C29.33 30.5527 28.6585 31.2243 28.6585 32.0527C28.6585 32.8811 29.3301 33.5527 30.1585 33.5527C30.9866 33.5525 31.6584 32.8809 31.6585 32.0527C31.6585 31.2245 30.9867 30.553 30.1585 30.5527Z" fill="#000000" />

<path fill-rule="evenodd" clip-rule="evenodd" d="M16.8948 20.0791C18.2755 20.0791 19.3948 21.1984 19.3948 22.5791C19.3947 23.9597 18.2755 25.0791 16.8948 25.0791C15.5141 25.0791 14.3949 23.9597 14.3948 22.5791C14.3948 21.1984 15.5141 20.0791 16.8948 20.0791ZM16.8948 21.0791C16.0664 21.0791 15.3948 21.7507 15.3948 22.5791C15.3949 23.4075 16.0664 24.0791 16.8948 24.0791C17.7232 24.0791 18.3947 23.4075 18.3948 22.5791C18.3948 21.7507 17.7232 21.0791 16.8948 21.0791Z" fill="#000000" />

<path fill-rule="evenodd" clip-rule="evenodd" d="M32.5003 13.9209C33.8807 13.9212 35.0002 15.0404 35.0003 16.4209C35.0003 17.8014 33.8807 18.9206 32.5003 18.9209C31.1195 18.9209 30.0003 17.8016 30.0003 16.4209C30.0003 15.0403 31.1196 13.9209 32.5003 13.9209ZM32.5003 14.9209C31.6719 14.9209 31.0003 15.5925 31.0003 16.4209C31.0003 17.2493 31.6718 17.9209 32.5003 17.9209C33.3285 17.9206 34.0003 17.2492 34.0003 16.4209C34.0002 15.5927 33.3284 14.9212 32.5003 14.9209Z" fill="#000000" />

<path fill-rule="evenodd" clip-rule="evenodd" d="M26.617 5.5479C27.6617 5.42222 28.7243 5.54512 29.7069 5.90533C30.6895 6.26564 31.5634 6.8528 32.2459 7.61626C32.9287 8.38004 33.3986 9.29556 33.6082 10.2793L33.8397 11.3663L34.4852 11.4874C36.0585 11.7832 37.4803 12.5822 38.5057 13.7549C39.5317 14.9284 40.0967 16.404 40.0975 17.9317V18.377C40.0975 19.9138 39.4955 21.3138 38.5106 22.3848C39.7662 23.1025 40.8039 24.1249 41.5076 25.3545C42.327 26.7862 42.6515 28.4253 42.4334 30.042C42.2153 31.6583 41.4665 33.1662 40.2967 34.3575C39.2032 35.471 37.7926 36.2564 36.241 36.626L36.2186 36.7276C35.9528 37.9731 35.3423 39.1277 34.452 40.0752C33.5619 41.0225 32.4232 41.7295 31.1541 42.129C29.8853 42.5282 28.5272 42.6066 27.2166 42.3565C26.4088 42.2023 25.6354 41.9266 24.9256 41.542C24.5309 41.3281 24.2258 41.0269 23.9998 40.6788C23.7739 41.0268 23.4688 41.3281 23.074 41.542C22.3643 41.9266 21.5909 42.2023 20.783 42.3565C19.4725 42.6066 18.1144 42.5283 16.8455 42.129C15.5765 41.7295 14.4378 41.0225 13.5477 40.0752C12.6574 39.1277 12.0468 37.9731 11.7811 36.7276L11.7586 36.626C10.2071 36.2564 8.79642 35.471 7.70296 34.3575C6.53321 33.1662 5.78436 31.6583 5.56624 30.042C5.34813 28.4253 5.6727 26.7862 6.49202 25.3545C7.19578 24.1249 8.23347 23.1025 9.48909 22.3848C8.50421 21.3138 7.90218 19.9138 7.90217 18.377V17.9317C7.90295 16.404 8.46797 14.9284 9.49397 13.7549C10.5194 12.5822 11.9412 11.7833 13.5145 11.4874L14.16 11.3663L14.3914 10.2793C14.601 9.29561 15.071 8.38002 15.7537 7.61626C16.4363 6.85281 17.3102 6.26566 18.2928 5.90533C19.2753 5.5451 20.3379 5.42225 21.3826 5.5479C21.8497 5.60413 22.3076 5.7094 22.7469 5.8604C23.3008 6.05083 23.7136 6.41256 23.9998 6.85552C24.2861 6.41253 24.6989 6.05087 25.2528 5.8604C25.6921 5.70939 26.15 5.60414 26.617 5.5479ZM21.2635 6.54107C20.3742 6.43406 19.4709 6.5383 18.6375 6.8438C17.8042 7.14935 17.0688 7.64567 16.4989 8.28325C15.9293 8.92057 15.5422 9.67948 15.3699 10.4883L15.0828 11.8379C15.0553 12.4842 15.0659 13.1757 15.3114 13.753C15.5406 14.292 15.9949 14.7783 16.9959 14.9834L16.7948 15.9639C16.7801 15.9609 16.7653 15.9563 16.7508 15.9532L16.7489 15.9639C15.4388 15.6954 14.7084 14.9971 14.3455 14.1436C14.1022 13.5711 14.0363 12.9524 14.0282 12.4073L13.699 12.4708C12.3377 12.7268 11.1191 13.4157 10.2469 14.4131C9.37536 15.41 8.90282 16.6541 8.90217 17.9327V18.377C8.90219 19.8531 9.57346 21.1905 10.661 22.1319C10.7892 22.2429 10.8525 22.4121 10.8289 22.5801C10.8053 22.748 10.6975 22.8925 10.5438 22.9639C9.18317 23.5961 8.07223 24.6075 7.36018 25.8516C6.64846 27.0953 6.36822 28.5129 6.55647 29.9083C6.74478 31.3039 7.39339 32.615 8.41682 33.6573C9.30461 34.5613 10.4374 35.2226 11.6932 35.5752C11.7394 34.7923 11.8994 33.931 12.3123 33.1641C12.8574 32.1522 13.8191 31.3481 15.3914 31.086L15.4744 31.5792L15.5565 32.0723C14.2871 32.2839 13.5908 32.9006 13.1932 33.6387C12.7915 34.3846 12.6752 35.2952 12.6776 36.1368L12.7586 36.5186C12.9852 37.5807 13.5083 38.5724 14.2772 39.3907C15.0462 40.209 16.0351 40.8254 17.1453 41.1749C18.2559 41.5244 19.4466 41.5933 20.5955 41.3741C21.3033 41.239 21.9789 40.9973 22.5975 40.6622C23.1742 40.3496 23.4998 39.6749 23.4998 38.9083V31.1309H19.8944C17.9616 31.1307 16.3944 29.5638 16.3944 27.6309V26.3682H17.3944V27.6309C17.3944 29.0115 18.5138 30.1307 19.8944 30.1309H23.4998V8.627C23.4997 7.76453 23.0902 7.03536 22.4227 6.80572C22.0501 6.67761 21.6609 6.5889 21.2635 6.54107ZM29.3621 6.8438C28.5288 6.53832 27.6254 6.43403 26.7362 6.54107C26.3388 6.58891 25.9496 6.6776 25.577 6.80572C24.9096 7.03542 24.4999 7.7646 24.4998 8.627V15.9209H28.4998V16.9209H24.4998V38.9083C24.4998 39.6748 24.8256 40.3496 25.4022 40.6622C26.0207 40.9973 26.6964 41.2389 27.4041 41.3741C28.553 41.5934 29.7437 41.5244 30.8543 41.1749C31.9646 40.8254 32.9534 40.209 33.7225 39.3907C34.4914 38.5724 35.0144 37.5807 35.241 36.5186L35.3289 36.1026C35.3655 35.9316 35.4888 35.7941 35.6502 35.7364L35.7215 35.7168L35.9989 35.6563C37.3774 35.3299 38.623 34.6346 39.5828 33.6573C40.6063 32.615 41.2549 31.3039 41.4432 29.9083C41.6314 28.5128 41.3512 27.0953 40.6395 25.8516C39.9691 24.6803 38.9452 23.7157 37.6922 23.0792H33.158C31.7773 23.0792 30.658 24.1984 30.658 25.5792V28.2637H29.658V25.5792C29.658 23.6462 31.225 22.0792 33.158 22.0792H37.3973C38.45 21.1409 39.0975 19.8262 39.0975 18.377V17.9327C39.0968 16.654 38.6244 15.41 37.7528 14.4131C36.8806 13.4157 35.662 12.7268 34.3006 12.4708L33.327 12.2881C33.1285 12.251 32.9715 12.098 32.9295 11.9004L32.6297 10.4883C32.4574 9.67944 32.0704 8.9206 31.5008 8.28325C30.9308 7.64566 30.1955 7.14934 29.3621 6.8438Z" fill="#000000" />

  </g>
  </g>
  <g data-component-id="compute">
  <g class="dg-icon" transform="translate(400 296)">
<path fill-rule="evenodd" clip-rule="evenodd" d="M24 5.5C32.2317 5.5 39.206 10.8768 41.6064 18.3096C41.6652 18.3914 41.7001 18.4913 41.7002 18.5996L41.6992 18.6045C42.219 20.3116 42.5 22.1229 42.5 24C42.5 25.8764 42.2186 27.687 41.6992 29.3936L41.7002 29.3994C41.7002 29.5074 41.6647 29.6067 41.6064 29.6885C39.2065 37.1221 32.2323 42.5 24 42.5C15.7671 42.5 8.79112 37.1219 6.3916 29.6875C6.33416 29.6061 6.2998 29.5066 6.2998 29.3994V29.3936C5.78046 27.687 5.5 25.8763 5.5 24C5.5 22.123 5.78012 20.3115 6.2998 18.6045V18.5996C6.29989 18.4923 6.334 18.3929 6.3916 18.3115C8.79139 10.8776 15.7675 5.5 24 5.5ZM7.52051 29.8994C9.75709 36.1464 15.4438 40.7496 22.2852 41.415L21.9658 41.1934C18.0206 38.4486 15.2318 34.4289 13.9971 29.8994H7.52051ZM34.0029 29.8994C32.7683 34.4287 29.9802 38.4486 26.0352 41.1934L25.7148 41.415C32.5562 40.7496 38.2429 36.1464 40.4795 29.8994H34.0029ZM24.5 41.043L25.4648 40.3721C29.1381 37.8162 31.7553 34.0971 32.9639 29.8994H24.5V41.043ZM15.0361 29.8994C16.2447 34.0973 18.8626 37.8162 22.5361 40.3721L23.5 41.042V29.8994H15.0361ZM34.0264 19.0996C34.4799 20.8722 34.7168 22.7111 34.7168 24.5781C34.7168 26.0465 34.5562 27.4941 34.249 28.8994H40.8037C41.2563 27.3447 41.5 25.7008 41.5 24C41.5 22.2988 41.2564 20.6546 40.8037 19.0996H34.0264ZM24.5 28.8994H33.2227C33.546 27.4967 33.7168 26.0485 33.7168 24.5781C33.7168 22.7083 33.4667 20.8682 32.9912 19.0996H24.5V28.8994ZM15.0088 19.0996C14.5334 20.8683 14.2842 22.7083 14.2842 24.5781C14.2842 26.0485 14.454 27.4967 14.7773 28.8994H23.5V19.0996H15.0088ZM7.19629 19.0996C6.74357 20.6546 6.5 22.2988 6.5 24C6.5 25.7008 6.74374 27.3447 7.19629 28.8994H13.751C13.4438 27.4941 13.2842 26.0465 13.2842 24.5781C13.2842 22.7111 13.5202 20.8722 13.9736 19.0996H7.19629ZM26.5117 7.38867C29.9742 10.1896 32.4672 13.9349 33.7441 18.0996H40.4795C38.2184 11.7851 32.4318 7.14919 25.4912 6.56348L26.5117 7.38867ZM24.5 18.0996H32.6963C31.4515 14.2407 29.1073 10.7744 25.8828 8.16602L24.5 7.04688V18.0996ZM22.1172 8.16602C18.8927 10.7744 16.5483 14.2406 15.3037 18.0996H23.5V7.04688L22.1172 8.16602ZM22.5078 6.56348C15.5676 7.14954 9.78154 11.7854 7.52051 18.0996H14.2559C15.5325 13.9348 18.0258 10.1896 21.4883 7.38867L22.5078 6.56348Z" fill="#000000" />

  </g>
  </g>
  <g data-component-id="revenue">
  <rect x="464" y="288" width="440" height="248" fill="#F3F3F3" stroke="#000000" stroke-width="1" stroke-miterlimit="10" />
  <text font-family="Ubuntu Sans">
    <tspan x="472" y="312.92" font-size="18" font-weight="700" fill="#000000">Revenue impact</tspan>
  </text>
  </g>
  <g data-component-id="_auto_revenue_7">
  <rect x="472" y="376" width="200" height="64" fill="#FFFFFF" stroke="#000000" stroke-width="1" stroke-miterlimit="10" />
  <text font-family="Ubuntu Sans">
    <tspan x="480" y="400.92" font-size="18" font-weight="400" fill="#000000">Latency down</tspan>
  </text>
  <g class="dg-icon" transform="translate(616 384)">
<path d="M12.13 33.15H2.85001V32.64C2.97001 28 4.56001 23.63 7.44001 20L7.79001 19.56L14.4 26.17L14.17 26.51C12.94 28.33 12.24 30.46 12.15 32.66L12.13 33.14V33.15ZM3.88001 32.15H11.18C11.34 30.07 12.01 28.07 13.12 26.3L7.88001 21.06C5.45001 24.29 4.07001 28.1 3.88001 32.14V32.15ZM15.14 25.25L8.57001 18.68L8.92001 18.33C12.54 14.64 17.37 12.41 22.51 12.06L23.04 12.02V21.32L22.6 21.37C19.91 21.68 17.38 22.93 15.49 24.89L15.14 25.25ZM9.98001 18.68L15.13 23.84C17.03 22.03 19.46 20.84 22.04 20.44V13.1C17.5 13.54 13.26 15.5 9.97001 18.68H9.98001ZM32.5 24.88L32.15 24.55C30.12 22.63 27.47 21.48 24.69 21.32L24.22 21.29V12L24.74 12.02C29.98 12.2 34.94 14.31 38.71 17.96L39.08 18.31L32.51 24.88H32.5ZM25.22 20.35C27.9 20.6 30.45 21.7 32.48 23.49L37.64 18.33C34.22 15.18 29.85 13.32 25.22 13.04V20.35Z" fill="#000000" />

<path d="M31.53 27.31L30.82 26.6L25.33 32.09C24.94 31.85 24.49 31.7 24 31.7C22.62 31.7 21.5 32.82 21.5 34.2C21.5 35.58 22.62 36.7 24 36.7C25.38 36.7 26.5 35.58 26.5 34.2C26.5 33.67 26.33 33.18 26.05 32.78L31.53 27.3V27.31ZM24 35.71C23.17 35.71 22.5 35.04 22.5 34.21C22.5 33.38 23.17 32.71 24 32.71C24.83 32.71 25.5 33.38 25.5 34.21C25.5 35.04 24.83 35.71 24 35.71Z" fill="#000000" />

<path d="M45.15 33.15H35.87L35.85 32.67C35.76 30.29 34.96 28.02 33.54 26.11L33.28 25.76L39.87 19.17L40.22 19.59C43.28 23.24 45.02 27.88 45.14 32.64V33.15H45.15ZM36.82 32.15H44.12C43.92 27.92 42.43 23.97 39.8 20.65L34.59 25.86C35.88 27.73 36.64 29.89 36.82 32.15Z" fill="#000000" />

  </g>
  </g>
  <g data-component-id="_auto_revenue_8">
  <rect x="696" y="376" width="200" height="64" fill="#FFFFFF" stroke="#000000" stroke-width="1" stroke-miterlimit="10" />
  <text font-family="Ubuntu Sans">
    <tspan x="704" y="400.92" font-size="18" font-weight="400" fill="#000000">Tokens/sec up</tspan>
  </text>
  <g class="dg-icon" transform="translate(840 384)">
<path d="M26.25 42.6035L24 43.8496L21.749 42.6035L22.2344 41.7285L24 42.7061L25.7656 41.7285L26.25 42.6035ZM17.7344 39.2383L17.249 40.1133L15 38.8682L12.75 37.6221L13.2344 36.748L17.7344 39.2383ZM35.249 37.6221L33 38.8682L30.75 40.1133L30.2656 39.2383L34.7656 36.748L35.249 37.6221ZM7 33.2969L8.73438 34.2568L8.24902 35.1318L6 33.8867V31.3965H7V33.2969ZM42 33.8867L39.75 35.1318L39.2656 34.2568L41 33.2969V31.3965H42V33.8867ZM7 26.415H6V21.4336H7V26.415ZM42 26.415H41V21.4336H42V26.415ZM8.73438 13.5918L7 14.5508V16.4531H6V13.9619L8.25 12.7168L8.73438 13.5918ZM42 13.9619V16.4531H41V14.5508L39.2656 13.5918L39.75 12.7168L42 13.9619ZM17.25 7.73633L17.7344 8.61035L15.4844 9.85645L13.2344 11.1016L12.75 10.2266L15 8.98145L17.249 7.73535L17.25 7.73633ZM33 8.98145L35.25 10.2266L34.7656 11.1016L32.5156 9.85645L30.2656 8.61035L30.75 7.73633V7.73535L33 8.98145ZM26.249 5.24512L25.7656 6.12012L24 5.14258L22.2344 6.12012L21.75 5.24512L24 4L26.249 5.24512Z" fill="#000000" />

<path d="M32 19.4707V28.4121L24 32.8828L16 28.4121V19.4707L24 15L32 19.4707ZM17 27.8242L20.4883 29.7744L23.5 31.4561V24.2969L17 20.6357V27.8242ZM24.5 24.2969V31.4561L27.5117 29.7744L31 27.8242V20.6357L24.5 24.2969ZM20.4883 18.1084L17.5068 19.7734L24 23.4297L30.4922 19.7734L27.5117 18.1084L24 16.1455L20.4883 18.1084Z" fill="#000000" />

<path d="M24.5 37.293L25.5 36.293L26.207 37L24 39.207L21.793 37L22.5 36.293L23.5 37.293V34H24.5V37.293ZM11.707 22.5049L11.3516 22.8555L10.7188 23.4805H14V24.4805H10.6963L11.3555 25.1484L11.707 25.5049L10.9951 26.207L10.6445 25.8516L9.14453 24.332L8.79297 23.9756L9.14844 23.625L10.6484 22.1445L11.0049 21.793L11.707 22.5049ZM37.6973 22.1904L38.8926 23.7109L39.1396 24.0234L38.8887 24.334L37.6934 25.8145L37.3799 26.2031L36.6016 25.5752L36.916 25.1855L37.4541 24.5195H34V23.5195H37.4697L36.9111 22.8096L36.6025 22.416L37.3887 21.7979L37.6973 22.1904ZM26.207 11L25.5 11.707L24.5 10.707V14H23.5V10.707L22.5 11.707L21.793 11L24 8.79297L26.207 11Z" fill="#000000" />

  </g>
  </g>
  <g data-component-id="_auto_revenue_9">
  <rect x="472" y="464" width="200" height="64" fill="#FFFFFF" stroke="#000000" stroke-width="1" stroke-miterlimit="10" />
  <text font-family="Ubuntu Sans">
    <tspan x="480" y="488.92" font-size="18" font-weight="400" fill="#000000">Efficiency up</tspan>
  </text>
  <g class="dg-icon" transform="translate(616 472)">
<path d="M7.5 40.5H42V41.5H6.5V8H7.5V40.5Z" fill="#000000" />

<path d="M20.7363 16.5098C20.5493 16.7939 20.3766 17.0882 20.2188 17.3916L16.7295 14.1914L9.85352 21.0684L9.14648 20.3613L16.3613 13.1465L16.6992 12.8076L20.7363 16.5098Z" fill="#000000" />

<path d="M41.9238 17.0576H40.9238V12.1914L37.0703 15.9688C36.868 15.7017 36.6513 15.4464 36.4238 15.2012L40.2002 11.5H35.3662V10.5H41.9238V17.0576Z" fill="#000000" />

<path fill-rule="evenodd" clip-rule="evenodd" d="M29 13.7061C33.6944 13.7061 37.5 17.5116 37.5 22.2061C37.5 24.4953 36.5929 26.5714 35.1211 28.0996L36.8311 29.8096C37.3977 29.5093 38.1165 29.5983 38.5938 30.0752L42.3633 33.8447C42.9488 34.4305 42.9489 35.3801 42.3633 35.9658L42.2803 36.0488L42.166 36.1514C41.5769 36.6318 40.7084 36.5978 40.1592 36.0488L36.3896 32.2793C35.9127 31.8021 35.8237 31.0832 36.124 30.5166L34.3867 28.7793C32.9202 29.9825 31.045 30.7061 29 30.7061C24.3056 30.7061 20.5001 26.9004 20.5 22.2061C20.5 17.5116 24.3056 13.7061 29 13.7061ZM37.8867 30.7822C37.6915 30.5874 37.3748 30.5872 37.1797 30.7822L37.0967 30.8652C36.9016 31.0604 36.9018 31.377 37.0967 31.5723L40.8662 35.3418C41.0615 35.5368 41.3781 35.5369 41.5732 35.3418L41.6562 35.2588C41.8513 35.0636 41.8512 34.747 41.6562 34.5518L37.8867 30.7822ZM29 14.7061C24.8579 14.7061 21.5 18.0639 21.5 22.2061C21.5001 26.3481 24.8579 29.7061 29 29.7061C33.1421 29.7061 36.4999 26.3481 36.5 22.2061C36.5 18.0639 33.1421 14.7061 29 14.7061Z" fill="#000000" />

<path d="M32.791 19.5L33.1387 19.8584L28.1729 24.6855L25.0645 21.8701L25.7363 21.1299L28.1475 23.3145L32.4424 19.1416L32.791 19.5Z" fill="#000000" />

  </g>
  </g>
  <g data-component-id="_auto_revenue_10">
  <rect x="696" y="464" width="200" height="64" fill="#FFFFFF" stroke="#000000" stroke-width="1" stroke-miterlimit="10" />
  <text font-family="Ubuntu Sans">
    <tspan x="704" y="488.92" font-size="18" font-weight="400" fill="#000000">Optimization</tspan>
    <tspan x="704" y="512.92" font-size="18" font-weight="400" fill="#000000">&amp; scale</tspan>
  </text>
  <g class="dg-icon" transform="translate(840 472)">
<path fill-rule="evenodd" clip-rule="evenodd" d="M29.6385 18.4219C30.8462 18.4222 31.8258 19.4016 31.826 20.6094V21.1709H33.0135L33.1268 21.1826C33.3828 21.2352 33.576 21.4617 33.576 21.7334V26.7959C33.5759 27.0675 33.3828 27.2941 33.1268 27.3467L33.0135 27.3584H26.2635C25.9917 27.3584 25.7652 27.1654 25.7127 26.9092L25.701 26.7959V21.7334C25.701 21.4227 25.9528 21.1709 26.2635 21.1709H27.451V20.6094C27.4511 19.4014 28.4304 18.4219 29.6385 18.4219ZM26.701 26.3584H32.576V22.1709H26.701V26.3584ZM29.6385 19.4219C28.9827 19.4219 28.4511 19.9537 28.451 20.6094V21.1709H30.826V20.6094C30.8258 19.9539 30.2939 19.4222 29.6385 19.4219Z" fill="#000000" />

<path d="M8 8H7V41.5H42.5V40.5H8V8Z" fill="#000000" />

<path d="M35.83 15.2L41.42 9.7V14.56H42.42V8H35.86V9H40.7L35 14.6C35.28 14.78 35.56 14.98 35.82 15.19L35.83 15.2Z" fill="#000000" />

<path d="M18.52 17.9L20.26 19.43C20.39 19.1 20.53 18.78 20.69 18.47L18.48 16.53L10.65 24.36L11.36 25.07L18.53 17.9H18.52Z" fill="#000000" />

<path d="M43.27 35.61C43.21 35.32 43.07 35.06 42.86 34.84L39.09 31.07C38.94 30.92 38.78 30.81 38.59 30.74C38.23 30.59 37.83 30.59 37.47 30.74C37.43 30.75 37.41 30.79 37.37 30.81C37.37 30.81 37.36 30.82 37.35 30.82H37.34L36.63 30.1H36.62L35.93 29.4L35.62 29.09C35.74 28.97 35.85 28.85 35.96 28.72C37.23 27.23 38.01 25.31 38.01 23.2C38.01 20.42 36.67 17.96 34.6 16.41C34.33 16.21 34.04 16.02 33.75 15.84C32.5 15.12 31.06 14.7 29.51 14.7C26.15 14.7 23.25 16.66 21.87 19.49C21.72 19.81 21.58 20.13 21.47 20.47C21.18 21.33 21.01 22.25 21.01 23.2C21.01 27.89 24.82 31.7 29.51 31.7C31.37 31.7 33.09 31.09 34.49 30.07C34.63 29.97 34.76 29.87 34.89 29.77L36.65 31.53C36.65 31.53 36.64 31.54 36.64 31.55C36.36 32.11 36.44 32.81 36.9 33.27L40.66 37.03C40.95 37.32 41.34 37.47 41.72 37.47C42.1 37.47 42.49 37.32 42.78 37.03L42.86 36.95C43.14 36.67 43.3 36.29 43.3 35.89C43.3 35.79 43.3 35.69 43.27 35.6V35.61ZM29.5 30.71C25.36 30.71 22 27.35 22 23.21C22 22.51 22.1 21.84 22.28 21.2C22.38 20.85 22.5 20.51 22.64 20.19C23.81 17.56 26.44 15.71 29.5 15.71C30.76 15.71 31.95 16.03 33 16.58C33.3 16.74 33.59 16.93 33.87 17.13C35.76 18.49 37 20.71 37 23.21C37 27.35 33.64 30.71 29.5 30.71ZM42.16 36.26L42.08 36.34C41.88 36.54 41.57 36.53 41.37 36.34L37.6 32.57C37.41 32.38 37.4 32.06 37.6 31.86L37.68 31.78C37.87 31.59 38.2 31.59 38.39 31.78L42.16 35.55C42.25 35.64 42.31 35.77 42.31 35.9C42.31 36.03 42.26 36.16 42.16 36.25V36.26Z" fill="#000000" />

  </g>
  </g>
  <g data-component-id="revenue">
  <g class="dg-icon" transform="translate(848 296)">
<path d="M41.5752 24.2002H40.5752V21.207L30.9287 30.8535C30.835 30.9472 30.7077 30.9999 30.5752 31H18.707L8.35352 41.3535L7.64648 40.6465L18.1465 30.1465L18.2227 30.084C18.3042 30.0296 18.4006 30 18.5 30H30.3682L39.8682 20.5H36.875V19.5H41.5752V24.2002Z" fill="#000000" />

<path d="M20 42H19V36H20V42Z" fill="#000000" />

<path d="M26 42H25V34H26V42Z" fill="#000000" />

<path d="M32 42H31V34H32V42Z" fill="#000000" />

<path d="M38 42H37V27H38V42Z" fill="#000000" />

<path d="M14.0896 7.30869C16.4479 6.21047 19.0658 5.7913 21.6491 6.09776C24.2325 6.4043 26.6797 7.42451 28.7156 9.04404C30.7515 10.6638 32.2961 12.8192 33.1755 15.2677C34.0549 17.7162 34.2351 20.3614 33.695 22.9063L33.2058 22.8028L32.7165 22.6983C33.2179 20.3353 33.0507 17.8791 32.2341 15.6056C31.4175 13.3321 29.9838 11.3312 28.0935 9.82725C26.2031 8.3233 23.9308 7.37564 21.532 7.09092C19.133 6.8063 16.7014 7.19511 14.5115 8.21494C12.3217 9.23477 10.4595 10.8452 9.13353 12.8644C7.80761 14.8836 7.07013 17.2328 7.00462 19.6476C6.93917 22.0624 7.54785 24.448 8.76243 26.5362C9.97708 28.6245 11.7501 30.3328 13.8816 31.4698L13.4109 32.3526C11.1154 31.1281 9.20625 29.288 7.89817 27.0392C6.5901 24.7903 5.93413 22.2209 6.00462 19.6202C6.07521 17.0197 6.86971 14.4901 8.29759 12.3155C9.72557 10.141 11.7313 8.40698 14.0896 7.30869Z" fill="#000000" />

<path d="M20.6406 13.5422C21.121 13.5577 21.5457 13.611 21.9139 13.705C22.3126 13.7934 22.6489 13.8937 22.9193 14.0061L23.0008 14.0392L22.9742 14.1244L22.695 15.0276L22.6637 15.1289L22.5653 15.0891C22.3842 15.0148 22.1142 14.928 21.753 14.8297L21.7501 14.8288C21.4009 14.7233 20.9232 14.6688 20.313 14.6688C19.5425 14.6688 18.9814 14.8085 18.6156 15.073C18.2556 15.3335 18.0703 15.725 18.0703 16.264C18.0703 16.5596 18.124 16.8005 18.2246 16.9911C18.3267 17.1738 18.4748 17.3384 18.6733 17.4843C18.8741 17.6319 19.1194 17.7648 19.4099 17.8829C19.5574 17.9428 19.7135 18.0048 19.8775 18.0675L20.3954 18.2597L20.3973 18.2606C20.7926 18.414 21.1715 18.5734 21.5343 18.7378C21.9147 18.894 22.2477 19.0903 22.5302 19.3266C22.8265 19.5654 23.0618 19.8558 23.2327 20.1967C23.4058 20.5419 23.4892 20.9578 23.4893 21.4397C23.4893 22.2299 23.2283 22.8758 22.7016 23.3672C22.1938 23.8407 21.5032 24.1099 20.6406 24.188V26.3673H19.4742V24.2439C18.7646 24.2279 18.1667 24.1532 17.6831 24.0138H17.6812C17.185 23.8598 16.8087 23.7094 16.5574 23.5613L16.4893 23.5206L16.5148 23.4467L16.8282 22.5265L16.8651 22.4177L16.9655 22.4716C17.1055 22.5468 17.2623 22.623 17.436 22.6988C17.6068 22.7734 17.806 22.8432 18.0333 22.908C18.259 22.9723 18.5183 23.0257 18.8115 23.069C19.114 23.1012 19.4656 23.1173 19.8681 23.1173C20.2902 23.1173 20.6426 23.0746 20.9275 22.9904L20.9284 22.9895C21.2281 22.904 21.4633 22.7939 21.6375 22.661C21.8223 22.5174 21.9474 22.3508 22.0171 22.162L22.019 22.1583C22.1017 21.9623 22.143 21.7555 22.143 21.5382C22.143 21.1893 22.0739 20.9064 21.9423 20.6842L21.9404 20.6814C21.8168 20.4553 21.6356 20.2583 21.3942 20.0906L21.3894 20.0878L21.3904 20.0868C21.1581 19.9078 20.8702 19.7536 20.526 19.6248L20.5232 19.6239C20.173 19.482 19.7894 19.3348 19.3729 19.1818C19.075 19.0717 18.7719 18.9502 18.4632 18.8182L18.4603 18.8173C18.1465 18.672 17.8594 18.4976 17.6007 18.2957L17.5979 18.2928C17.3472 18.0769 17.1418 17.821 16.9825 17.526L16.9815 17.525C16.8193 17.2128 16.7402 16.8462 16.7401 16.4287C16.7401 15.6007 16.965 14.9485 17.4275 14.487C17.8841 14.0314 18.5711 13.7403 19.4742 13.6019V11.6327H20.6406V13.5422Z" fill="#000000" />

  </g>
  </g>
  <g data-component-id="summary1">
  <rect x="24" y="560" width="872" height="40" fill="#F3F3F3" stroke="#000000" stroke-width="1" stroke-miterlimit="10" />
  <text font-family="Ubuntu Sans">
    <tspan x="32" y="584.92" font-size="18" font-weight="700" fill="#000000">From training focused to inference focused</tspan>
  </text>
  </g>
  <g data-component-id="summary2">
  <rect x="24" y="624" width="872" height="40" fill="#FFFFFF" stroke="#000000" stroke-width="1" stroke-miterlimit="10" />
  <text font-family="Ubuntu Sans">
    <tspan x="32" y="648.92" font-size="18" font-weight="700" fill="#000000">Performance &amp; cost efficiency</tspan>
  </text>
  </g>
  <g data-component-id="_auto_1">
  <line x1="236" y1="176" x2="236" y2="189.1592" fill="none" stroke="#E95420" stroke-width="1" stroke-miterlimit="10" />
  <polygon points="233.0947,189.1592 236,200 238.9053,189.1592" fill="#E95420" />
  </g>
  <g data-component-id="_auto_2">
  <line x1="684" y1="176" x2="684" y2="189.1592" fill="none" stroke="#E95420" stroke-width="1" stroke-miterlimit="10" />
  <polygon points="681.0947,189.1592 684,200 686.9053,189.1592" fill="#E95420" />
  </g>
  <g data-component-id="_auto_3">
  <line x1="448" y1="232" x2="461.1592" y2="232" fill="none" stroke="#E95420" stroke-width="1" stroke-miterlimit="10" />
  <polygon points="461.1592,229.0947 472,232 461.1592,234.9053" fill="#E95420" />
  </g>
  <g data-component-id="_auto_11">
  <line x1="460" y1="600" x2="460" y2="613.1592" fill="none" stroke="#E95420" stroke-width="1" stroke-miterlimit="10" />
  <polygon points="457.0947,613.1592 460,624 462.9053,613.1592" fill="#E95420" />
  </g>
</svg>
