<?xml version="1.0" encoding="UTF-8"?>
<svg id="Layer_1" xmlns="http://www.w3.org/2000/svg" version="1.1" viewBox="0 0 192 112">
  <!-- Generator: Adobe Illustrator 30.2.1, SVG Export Plug-In . SVG Version: 2.1.1 Build 1)  -->
  <defs>
    <style>
      .st0 {
        fill: #e95420;
      }

      .st1 {
        fill: #fff;
        stroke: #000;
      }

      .st1, .st2 {
        stroke-miterlimit: 10;
      }

      .st3 {
        isolation: isolate;
      }

      .st4 {
        fill-rule: evenodd;
      }

      .st2 {
        fill: none;
        stroke: #e95420;
      }
    </style>
  </defs>
  <line class="st2" x1="96" y1="64" x2="96" y2="77.16"/>
  <polygon class="st0" points="93.09 77.16 96 88 98.91 77.16 93.09 77.16"/>
  <rect class="st1" y="0" width="192" height="64"/>
  <g class="st3">
    <path d="M11.87,21.78c-.86,0-1.58-.1-2.15-.29-.57-.19-.96-.35-1.18-.48l.4-1.06c.22.13.58.28,1.08.46.5.18,1.11.27,1.85.27.84,0,1.49-.15,1.95-.46.46-.3.69-.79.69-1.45,0-.51-.13-.91-.38-1.21-.25-.29-.58-.53-.99-.72s-.86-.38-1.35-.57c-.6-.23-1.12-.48-1.56-.74-.44-.26-.78-.58-1.02-.96-.24-.38-.36-.86-.36-1.43,0-.64.14-1.18.43-1.62.29-.44.7-.77,1.25-.99.54-.22,1.19-.34,1.94-.34.62,0,1.19.08,1.72.23.53.15.94.32,1.22.5l-.42,1.04c-.31-.21-.69-.38-1.13-.51-.44-.13-.91-.19-1.42-.19-.68,0-1.24.14-1.68.42-.44.28-.66.73-.66,1.36,0,.43.11.77.32,1.04.21.27.51.49.88.67.37.18.79.37,1.26.56.61.23,1.15.48,1.64.74s.87.6,1.16,1.01c.29.41.43.96.43,1.66s-.16,1.23-.48,1.68c-.32.45-.77.79-1.36,1.02-.59.23-1.29.34-2.1.34Z"/>
    <path d="M20.43,21.72c-.7,0-1.26-.12-1.66-.37-.41-.25-.69-.61-.86-1.1s-.25-1.1-.25-1.84v-7.55l1.2-.21v2.61h3.25v1.01h-3.25v4.24c0,.59.07,1.04.2,1.34.13.31.33.52.58.63.25.11.55.17.89.17.41,0,.74-.05,1.02-.14s.49-.18.65-.26l.26.98c-.16.1-.42.2-.79.32s-.78.18-1.22.18Z"/>
    <path d="M26.5,21.72c-.6,0-1.13-.08-1.6-.26s-.84-.45-1.1-.83-.4-.89-.4-1.52.15-1.1.45-1.48c.3-.38.71-.65,1.24-.82.53-.17,1.12-.26,1.78-.26.3,0,.61.03.94.08.33.05.54.1.62.14v-.48c0-.36-.05-.71-.14-1.05-.09-.34-.27-.61-.55-.82-.28-.21-.7-.32-1.26-.32s-1.03.04-1.34.13c-.31.08-.54.15-.69.21l-.16-1.02c.19-.08.49-.17.88-.24.39-.07.86-.11,1.39-.11.76,0,1.36.13,1.8.4.44.27.76.63.96,1.1.2.46.3,1,.3,1.59v5.2c-.22.05-.62.13-1.2.22-.58.1-1.22.14-1.92.14ZM26.67,20.7c.37,0,.71-.01,1.01-.04.3-.03.55-.06.75-.1v-2.78c-.11-.05-.29-.11-.54-.16-.26-.05-.59-.08-.99-.08-.34,0-.69.04-1.04.11-.35.08-.65.22-.89.45-.24.22-.36.56-.36,1.01,0,.6.19,1.01.56,1.25.37.24.87.35,1.5.35Z"/>
    <path d="M32.21,21.54v-7.9c.28-.12.66-.24,1.14-.36.49-.12,1.07-.18,1.75-.18.22,0,.44.01.66.04.22.03.42.06.59.1.18.04.31.07.39.1l-.24,1.02c-.1-.04-.28-.09-.54-.14s-.61-.07-1.02-.07-.74.03-1.01.09-.44.11-.53.15v7.15h-1.2Z"/>
    <path d="M40.98,21.72c-.7,0-1.26-.12-1.66-.37-.41-.25-.69-.61-.86-1.1s-.25-1.1-.25-1.84v-7.55l1.2-.21v2.61h3.25v1.01h-3.25v4.24c0,.59.07,1.04.2,1.34.13.31.33.52.58.63.25.11.55.17.89.17.41,0,.74-.05,1.02-.14s.49-.18.65-.26l.26.98c-.16.1-.42.2-.79.32s-.78.18-1.22.18Z"/>
    <path d="M48.16,21.72c-.97,0-1.76-.19-2.36-.56-.6-.37-1.05-.89-1.33-1.54-.28-.65-.42-1.39-.42-2.22,0-.97.18-1.78.53-2.42.35-.64.81-1.12,1.37-1.44.56-.32,1.15-.48,1.77-.48.69,0,1.29.15,1.8.44.51.29.9.74,1.18,1.34.28.6.42,1.37.42,2.3,0,.08,0,.16,0,.26s-.01.19-.02.28h-5.78c.04.94.3,1.67.76,2.18s1.19.78,2.17.78c.54,0,.99-.05,1.34-.15s.59-.19.74-.26l.21,1.01c-.15.08-.44.19-.87.3s-.93.18-1.48.18ZM45.33,16.71h4.56c-.01-.54-.1-1.01-.27-1.4-.17-.39-.41-.69-.73-.9-.31-.21-.7-.31-1.16-.31s-.88.12-1.23.37c-.35.25-.63.57-.82.96-.2.4-.31.82-.34,1.28Z"/>
    <path d="M53.36,21.54v-7.9c.28-.12.66-.24,1.14-.36.49-.12,1.07-.18,1.75-.18.22,0,.44.01.66.04.22.03.42.06.59.1.18.04.31.07.39.1l-.24,1.02c-.1-.04-.28-.09-.54-.14s-.61-.07-1.02-.07-.74.03-1.01.09-.44.11-.53.15v7.15h-1.2Z"/>
    <path d="M66.14,21.74c-.47,0-.9-.02-1.28-.07-.38-.05-.72-.11-1.02-.18s-.55-.14-.76-.2v-11.95l1.2-.21v4.59c.19-.14.48-.28.87-.42.39-.14.84-.22,1.35-.22.8,0,1.48.18,2.03.55s.98.88,1.27,1.53.44,1.4.44,2.24c0,.9-.17,1.67-.51,2.31s-.82,1.14-1.44,1.5c-.62.35-1.34.53-2.16.53ZM66.13,20.66c.58,0,1.08-.13,1.51-.38s.77-.63,1-1.11c.23-.49.35-1.07.35-1.77,0-.45-.05-.87-.14-1.26-.09-.39-.24-.74-.45-1.04-.21-.3-.48-.53-.82-.7-.34-.17-.74-.25-1.22-.25s-.88.08-1.25.23c-.37.16-.65.31-.83.46v5.62c.15.04.38.09.68.14.3.05.69.07,1.16.07Z"/>
    <path d="M74.69,21.69c-.51-.02-.94-.11-1.27-.26s-.58-.38-.74-.7c-.16-.31-.24-.74-.24-1.27v-10.13l1.2-.21v10.26c0,.51.09.84.28.99.19.15.5.26.95.32l-.18.99Z"/>
    <path d="M79.97,21.74c-.74,0-1.39-.18-1.97-.54-.58-.36-1.03-.86-1.35-1.51-.33-.65-.49-1.41-.49-2.29s.16-1.63.49-2.28c.33-.65.78-1.15,1.35-1.51.58-.36,1.23-.54,1.97-.54s1.41.18,1.98.54c.58.36,1.03.87,1.35,1.51s.49,1.41.49,2.28-.16,1.64-.49,2.29c-.33.65-.77,1.16-1.34,1.51-.57.36-1.23.54-1.99.54ZM79.97,20.66c.53,0,.99-.13,1.38-.4.38-.27.68-.64.89-1.14.21-.49.31-1.07.31-1.73s-.1-1.24-.31-1.73c-.21-.49-.5-.87-.89-1.14-.38-.27-.84-.4-1.38-.4s-.98.13-1.36.4-.68.65-.89,1.14c-.21.49-.31,1.07-.31,1.73s.1,1.24.31,1.73c.21.49.5.87.89,1.14s.84.4,1.36.4Z"/>
    <path d="M89.49,21.72c-.88,0-1.61-.18-2.19-.54-.59-.36-1.03-.86-1.33-1.51-.3-.65-.45-1.4-.45-2.26s.15-1.62.46-2.27c.31-.65.75-1.16,1.34-1.53.58-.37,1.27-.55,2.07-.55.44,0,.85.04,1.25.11.39.08.7.17.93.29l-.3,1.01c-.21-.1-.45-.18-.72-.24-.27-.06-.62-.1-1.06-.1-.89,0-1.56.29-2.02.86s-.7,1.38-.7,2.42c0,.64.1,1.2.29,1.69.19.49.5.86.93,1.14.43.27.99.41,1.7.41.42,0,.78-.05,1.1-.14.31-.1.55-.18.7-.26l.24,1.02c-.2.11-.51.21-.93.3-.42.1-.85.14-1.3.14Z"/>
    <path d="M93.44,21.54v-12.21l1.2-.21v7.78c.26-.26.54-.54.86-.86.32-.32.65-.65.98-.99.33-.34.64-.67.93-.98.29-.31.53-.58.74-.82h1.42c-.32.34-.7.74-1.13,1.18-.43.45-.87.9-1.31,1.35-.44.45-.85.86-1.22,1.22.34.24.7.53,1.06.89s.73.74,1.1,1.16c.36.42.7.84,1.02,1.26s.58.83.81,1.22h-1.39c-.32-.54-.7-1.08-1.15-1.61-.45-.53-.91-1.01-1.38-1.45-.47-.44-.91-.79-1.33-1.06v4.11h-1.2Z"/>
  </g>
  <path class="st4" d="M163.19,18c5.01,0,9.03,4,9.03,8.92v.22c-.03.51-.12,1-.12,1.01,4.95.06,8.91,4,8.91,8.92v.46c-.25,4.71-4.18,8.46-9.03,8.46h-24.4c-4.64-.24-8.32-3.91-8.55-8.46v-.46c-.01-4.12,2.77-7.73,6.85-8.65v-1.44c0-3.08,2.54-5.54,5.63-5.54h.25c1.27.06,2.47.55,3.46,1.42,1.55-2.95,4.64-4.86,7.98-4.86ZM163.19,19c-2.96,0-5.72,1.69-7.09,4.33l-.59,1.13-.96-.84c-.87-.77-1.94-1.17-3.05-1.17-2.56,0-4.63,2.03-4.63,4.54v2.24l-.78.18c-3.61.82-6.09,4.01-6.09,7.67,0,4.36,3.56,7.92,8.03,7.92h23.94c4.47,0,8.03-3.56,8.03-7.92,0-4.36-3.51-7.87-7.92-7.92h-1.19s.22-1.19.22-1.19h0s0-.01,0-.02c0-.01,0-.04.01-.07.01-.06.02-.15.04-.25.03-.22.05-.48.05-.7,0-4.36-3.56-7.92-8.03-7.92Z"/>
</svg>