<?xml version="1.0" encoding="utf-8"?>
<!-- Generator: Adobe Illustrator 30.2.1, SVG Export Plug-In . SVG Version: 9.03 Build 0)  -->
<svg version="1.1" id="Layer_1" xmlns="http://www.w3.org/2000/svg" xmlns:xlink="http://www.w3.org/1999/xlink" x="0px" y="0px"
	 width="192px" height="114.6081px" viewBox="0 0 192 114.6081" enable-background="new 0 0 192 114.6081" xml:space="preserve">
<path d="M178.0693,16.1035l-4.7949,4.7949l-2.7529-2.7529l0.707-0.707l2.0459,2.0459l4.0879-4.0879L178.0693,16.1035z"/>
<path fill-rule="evenodd" clip-rule="evenodd" d="M181,26c0,0.5523-0.4477,1-1,1h-11.5c-0.5523,0-1-0.4477-1-1V10
	c0-0.5523,0.4477-1,1-1H180c0.5523,0,1,0.4477,1,1V26z M168.5,26H180V10h-11.5V26z"/>
<path d="M183.75,23.25h-1v-16h-14.5v-1h14.5c0.5523,0,1,0.4477,1,1V23.25z"/>
<path fill-rule="evenodd" clip-rule="evenodd" d="M159.4121,32.4072C163.639,32.5492,167,34.8634,167,37.6943v3.6387
	c0,0.3682-0.2988,0.667-0.667,0.667h-14.666l-0.1348-0.0137C151.2285,41.9241,151,41.6551,151,41.333v-3.6387
	c0-2.9223,3.5815-5.2939,8-5.2939L159.4121,32.4072z M159,33.4004c-2.0405,0-3.8422,0.5493-5.1045,1.3848
	c-1.1908,0.7881-1.8145,1.7595-1.8877,2.7177L152,37.6943V41h14v-3.3057c0-1.0192-0.6254-2.0685-1.8955-2.9091
	C162.8422,33.9497,161.0405,33.4004,159,33.4004z"/>
<path fill-rule="evenodd" clip-rule="evenodd" d="M159,22c2.4301,0,4.4004,1.9703,4.4004,4.4004l-0.0059,0.2256
	c-0.1176,2.325-2.0402,4.1738-4.3945,4.1738s-4.2769-1.8488-4.3945-4.1738l-0.0059-0.2256C154.5996,23.9703,156.5699,22,159,22z
	 M159,23c-1.8778,0-3.4004,1.5226-3.4004,3.4004c0.0002,1.8776,1.5228,3.3994,3.4004,3.3994s3.4002-1.5218,3.4004-3.3994
	C162.4004,24.5226,160.8778,23,159,23z"/>
<g>
	<g>
		<path d="M11.2847,20.8986V9.8107h1.248v10h5.1841v1.0879H11.2847z"/>
		<path d="M22.6763,21.0905c-0.7358,0-1.3921-0.1787-1.9678-0.5361c-0.5762-0.3569-1.0269-0.8608-1.3521-1.5117
			c-0.3257-0.6504-0.4883-1.4131-0.4883-2.2881c0-0.8745,0.1626-1.6343,0.4883-2.2798c0.3252-0.6455,0.7759-1.1494,1.3521-1.5122
			c0.5757-0.3623,1.2319-0.5439,1.9678-0.5439c0.7466,0,1.4082,0.1816,1.9839,0.5439c0.5762,0.3628,1.0269,0.8667,1.3521,1.5122
			s0.4883,1.4053,0.4883,2.2798c0,0.875-0.1631,1.6377-0.4883,2.2881c-0.3252,0.6509-0.7734,1.1548-1.3438,1.5117
			C24.0977,20.9118,23.4336,21.0905,22.6763,21.0905z M22.6763,20.0187c0.5332,0,0.9922-0.1333,1.376-0.3999
			c0.3843-0.2666,0.6802-0.6455,0.8882-1.1362s0.312-1.0664,0.312-1.728c0-0.6611-0.104-1.2373-0.312-1.728
			c-0.208-0.4902-0.5039-0.8691-0.8882-1.1357c-0.3838-0.2666-0.8428-0.4004-1.376-0.4004c-0.5225,0-0.9761,0.1338-1.3599,0.4004
			s-0.6802,0.6455-0.8882,1.1357c-0.208,0.4907-0.312,1.0669-0.312,1.728c0,0.6616,0.104,1.2373,0.312,1.728
			s0.5044,0.8696,0.8882,1.1362S22.1538,20.0187,22.6763,20.0187z"/>
		<path d="M28.709,20.8986v-7.9038c0.2769-0.1177,0.6582-0.2373,1.1436-0.3604c0.4854-0.1226,1.0693-0.1841,1.7524-0.1841
			c0.2236,0,0.4448,0.0137,0.6636,0.04c0.2188,0.0269,0.416,0.0591,0.5923,0.0962c0.1758,0.0376,0.3066,0.0718,0.3921,0.104
			l-0.2402,1.0239c-0.0962-0.0425-0.2773-0.0879-0.5439-0.1357c-0.2666-0.0483-0.6079-0.0723-1.0239-0.0723
			c-0.4058,0-0.7417,0.0298-1.0083,0.0879c-0.2666,0.0591-0.4424,0.1099-0.5278,0.1523v7.1519H28.709z"/>
		<path d="M38.4043,21.0744c-0.9707,0-1.7578-0.1865-2.3599-0.5596c-0.603-0.3735-1.0459-0.8853-1.3281-1.5361
			c-0.2827-0.6504-0.4243-1.3921-0.4243-2.2241c0-0.9702,0.1763-1.7759,0.5283-2.416s0.8081-1.1201,1.3677-1.4399
			c0.5601-0.3198,1.1494-0.48,1.7681-0.48c0.6934,0,1.2935,0.147,1.8003,0.4399c0.5063,0.2935,0.8984,0.7417,1.1758,1.3442
			s0.416,1.3677,0.416,2.2959c0,0.0747-0.0024,0.1626-0.0078,0.2637c-0.0054,0.1016-0.0137,0.1948-0.0239,0.2803H35.54
			c0.0425,0.9385,0.2964,1.6665,0.7603,2.1841s1.1865,0.7759,2.168,0.7759c0.5439,0,0.9893-0.0503,1.3359-0.1519
			s0.5947-0.1895,0.7441-0.2642l0.208,1.0078c-0.1494,0.0859-0.4399,0.187-0.8721,0.3042S38.9585,21.0744,38.4043,21.0744z
			 M35.5723,16.0666h4.5601c-0.0107-0.5439-0.1016-1.0103-0.272-1.3999c-0.1709-0.3892-0.4136-0.688-0.728-0.896
			c-0.3149-0.208-0.7017-0.312-1.1602-0.312c-0.4692,0-0.8799,0.1226-1.2319,0.3682c-0.3521,0.2451-0.627,0.5654-0.8242,0.96
			S35.604,15.6081,35.5723,16.0666z"/>
		<path d="M43.6045,20.8986v-8c0.3301-0.0854,0.752-0.1812,1.2637-0.2881c0.5122-0.1064,1.1465-0.1602,1.9043-0.1602
			c0.5332,0,0.9893,0.0752,1.3677,0.2241c0.3784,0.1494,0.6855,0.3735,0.9199,0.6724c0.0962-0.0747,0.2666-0.1841,0.5122-0.3281
			c0.2451-0.144,0.5571-0.2744,0.936-0.3921c0.3784-0.1172,0.8081-0.1763,1.2881-0.1763c0.853,0,1.4961,0.1631,1.9277,0.4883
			c0.4321,0.3257,0.7227,0.7734,0.8721,1.3438c0.1494,0.5708,0.2241,1.2295,0.2241,1.9761v4.6401h-1.2002v-4.3042
			c0-0.7036-0.0479-1.2822-0.144-1.7358c-0.0957-0.4531-0.2827-0.792-0.5601-1.0161c-0.2773-0.2236-0.688-0.3359-1.2319-0.3359
			c-0.3945,0-0.7388,0.0454-1.0317,0.1362c-0.2935,0.0908-0.5337,0.1948-0.7202,0.312s-0.3228,0.208-0.4077,0.272
			c0.0957,0.2666,0.168,0.5708,0.2158,0.9121s0.0718,0.6987,0.0718,1.0718v4.688h-1.1997v-4.3042
			c0-0.7036-0.0479-1.2822-0.144-1.7358c-0.0962-0.4531-0.2856-0.792-0.5679-1.0161c-0.2827-0.2236-0.707-0.3359-1.272-0.3359
			c-0.3096,0-0.5898,0.0137-0.8403,0.04c-0.2505,0.0269-0.4585,0.0562-0.624,0.0879c-0.1655,0.0322-0.2852,0.0591-0.3599,0.0801
			v7.1841H43.6045z"/>
		<path d="M61.6841,10.6266c-0.2349,0-0.4351-0.0801-0.6001-0.2402c-0.1655-0.1597-0.248-0.373-0.248-0.6396
			c0-0.2563,0.0825-0.4644,0.248-0.624c0.165-0.1602,0.3652-0.2402,0.6001-0.2402c0.2344,0,0.4346,0.0801,0.5996,0.2402
			c0.1655,0.1597,0.248,0.3677,0.248,0.624c0,0.2666-0.0825,0.48-0.248,0.6396C62.1187,10.5466,61.9185,10.6266,61.6841,10.6266z
			 M61.0762,20.8986v-8.2881h1.1997v8.2881H61.0762z"/>
		<path d="M64.9639,23.8586v-10.96c0.2129-0.0747,0.4663-0.144,0.7598-0.208s0.6318-0.1201,1.0161-0.168
			c0.3838-0.0479,0.8105-0.0723,1.2798-0.0723c0.8213,0,1.5415,0.1738,2.1602,0.52c0.6187,0.3472,1.0986,0.8428,1.4399,1.4883
			s0.5122,1.416,0.5122,2.312c0,0.8428-0.147,1.5894-0.4404,2.2397c-0.2935,0.6509-0.7173,1.1602-1.272,1.5283
			c-0.5547,0.3677-1.2319,0.5518-2.0317,0.5518c-0.5122,0-0.9629-0.0718-1.3521-0.2158c-0.3896-0.144-0.6802-0.2852-0.8721-0.4243
			v3.4082H64.9639z M68.2437,20.0187c0.48,0,0.8882-0.0825,1.2241-0.248s0.6079-0.3975,0.8159-0.6963
			c0.208-0.2983,0.3574-0.6421,0.4478-1.0317c0.0908-0.3892,0.1362-0.8081,0.1362-1.2559c0-0.6934-0.1177-1.2856-0.3521-1.7764
			c-0.2349-0.4902-0.5679-0.8638-1-1.1196c-0.4321-0.2563-0.936-0.3843-1.5122-0.3843c-0.4692,0-0.856,0.0239-1.1597,0.0723
			c-0.3042,0.0479-0.5308,0.0933-0.6802,0.1357v5.6162c0.1812,0.1387,0.4585,0.2881,0.832,0.4478
			C67.3687,19.9387,67.7847,20.0187,68.2437,20.0187z"/>
		<path d="M76.1001,21.0905c-0.7148,0-1.272-0.0615-1.6719-0.1841c-0.4004-0.1221-0.6699-0.2158-0.8081-0.2798l0.2881-1.0562
			c0.1172,0.043,0.3569,0.1338,0.7197,0.272c0.3628,0.1387,0.8535,0.208,1.4722,0.208c0.5864,0,1.061-0.0903,1.4238-0.272
			c0.3628-0.1812,0.5439-0.4961,0.5439-0.9438c0-0.2881-0.064-0.52-0.1919-0.6958c-0.1279-0.1763-0.3335-0.3389-0.6162-0.4883
			s-0.6694-0.3198-1.1597-0.5117c-0.416-0.1709-0.8003-0.3521-1.1523-0.5444c-0.3516-0.1919-0.6372-0.437-0.856-0.7358
			c-0.2188-0.2983-0.3276-0.6826-0.3276-1.1519c0-0.4585,0.1172-0.8584,0.3521-1.2002c0.2344-0.3413,0.5679-0.6079,1-0.7998
			c0.4316-0.1919,0.9463-0.2881,1.5439-0.2881c0.5542,0,1.0239,0.0479,1.4077,0.144c0.3843,0.0957,0.6562,0.1816,0.8159,0.2559
			l-0.272,1.04c-0.1387-0.0742-0.3628-0.1626-0.6719-0.2642c-0.3096-0.1011-0.7466-0.1519-1.312-0.1519
			c-0.4478,0-0.8374,0.0938-1.168,0.2803s-0.4961,0.4824-0.4961,0.8877c0,0.2881,0.0693,0.52,0.208,0.6963
			c0.1387,0.1758,0.3467,0.3335,0.624,0.4717c0.2773,0.1387,0.6187,0.2881,1.0239,0.4482c0.4585,0.1812,0.8721,0.3706,1.2402,0.5679
			s0.6641,0.4507,0.8877,0.7598c0.2241,0.3096,0.3364,0.7202,0.3364,1.2324c0,0.5015-0.1284,0.9253-0.3843,1.272
			s-0.6216,0.6055-1.0957,0.7759C77.3291,21.0051,76.7612,21.0905,76.1001,21.0905z"/>
		<path d="M84.4995,21.0588c-0.832,0-1.4907-0.1577-1.9761-0.4722c-0.4858-0.3145-0.832-0.7598-1.04-1.3359s-0.312-1.2427-0.312-2
			v-4.6401h1.2002v4.3203c0,0.7466,0.0742,1.3438,0.2236,1.792c0.1494,0.4478,0.3921,0.7705,0.728,0.9678
			s0.7812,0.2959,1.3359,0.2959c0.4482,0,0.8452-0.0239,1.1924-0.0718c0.3462-0.0483,0.5732-0.0879,0.6797-0.1201v-7.1841h1.1841v8
			c-0.3198,0.0854-0.7495,0.1816-1.2881,0.2881S85.2456,21.0588,84.4995,21.0588z"/>
		<path d="M90.4038,20.8986v-8c0.3301-0.0854,0.752-0.1812,1.2637-0.2881c0.5122-0.1064,1.1465-0.1602,1.9043-0.1602
			c0.5332,0,0.9893,0.0752,1.3677,0.2241c0.3784,0.1494,0.6855,0.3735,0.9199,0.6724c0.0962-0.0747,0.2666-0.1841,0.5122-0.3281
			c0.2451-0.144,0.5571-0.2744,0.936-0.3921c0.3784-0.1172,0.8081-0.1763,1.2881-0.1763c0.853,0,1.4961,0.1631,1.9277,0.4883
			c0.4321,0.3257,0.7227,0.7734,0.8721,1.3438c0.1494,0.5708,0.2241,1.2295,0.2241,1.9761v4.6401h-1.2002v-4.3042
			c0-0.7036-0.0479-1.2822-0.144-1.7358c-0.0957-0.4531-0.2827-0.792-0.5601-1.0161c-0.2773-0.2236-0.688-0.3359-1.2319-0.3359
			c-0.3945,0-0.7388,0.0454-1.0317,0.1362c-0.2935,0.0908-0.5337,0.1948-0.7202,0.312s-0.3228,0.208-0.4077,0.272
			c0.0957,0.2666,0.168,0.5708,0.2158,0.9121s0.0718,0.6987,0.0718,1.0718v4.688h-1.1997v-4.3042
			c0-0.7036-0.0479-1.2822-0.144-1.7358c-0.0962-0.4531-0.2856-0.792-0.5679-1.0161c-0.2827-0.2236-0.707-0.3359-1.272-0.3359
			c-0.3096,0-0.5898,0.0137-0.8403,0.04c-0.2505,0.0269-0.4585,0.0562-0.624,0.0879c-0.1655,0.0322-0.2852,0.0591-0.3599,0.0801
			v7.1841H90.4038z"/>
	</g>
</g>
<g>
	<path d="M191,1v46H1V1H191 M192,0H0v48h192V0L192,0z"/>
</g>
<g>
	<g>
		<line fill="none" stroke="#E95420" stroke-miterlimit="10" x1="96" y1="48" x2="96" y2="85.4313"/>
		<g>
			<polygon fill="#E95420" points="93.0947,83.4498 95.998,94.2906 98.9053,83.4498 			"/>
		</g>
	</g>
</g>
</svg>
