<svg width="48" height="48" viewBox="0 0 48 48" fill="none" xmlns="http://www.w3.org/2000/svg">
<path d="M28 22C34.6277 22 40 25.4589 40 29.7207V35L39.9951 35.1025C39.9438 35.6067 39.5177 36 39 36H34V35H39V29.7207C39 28.0452 37.9423 26.3894 35.9443 25.1035C33.9569 23.8245 31.1508 23 28 23C27.7301 23 27.4628 23.0077 27.1982 23.0195C27.4024 22.6952 27.5846 22.3558 27.7441 22.0039C27.8292 22.0028 27.9145 22 28 22Z" fill="black"/>
<path d="M28 7C31.5899 7 34.5 9.91015 34.5 13.5C34.5 16.9663 31.7867 19.7974 28.3682 19.9883C28.4266 19.6575 28.4664 19.3204 28.4854 18.9775C31.2955 18.7318 33.5 16.374 33.5 13.5C33.5 10.4624 31.0376 8 28 8C26.0016 8 24.2522 9.06591 23.2891 10.6602C22.9779 10.5295 22.6568 10.4186 22.3281 10.3252C23.441 8.34127 25.5634 7 28 7Z" fill="black"/>
<path fill-rule="evenodd" clip-rule="evenodd" d="M20 27C26.6277 27 32 30.4589 32 34.7207V40L31.9951 40.1025C31.9438 40.6067 31.5177 41 31 41H9C8.44772 41 8 40.5523 8 40V34.7207C8 30.4589 13.3723 27 20 27ZM20 28C16.8492 28 14.0431 28.8245 12.0557 30.1035C10.0577 31.3894 9 33.0452 9 34.7207V40H31V34.7207C31 33.0452 29.9423 31.3894 27.9443 30.1035C25.9569 28.8245 23.1508 28 20 28Z" fill="black"/>
<path fill-rule="evenodd" clip-rule="evenodd" d="M20 12C23.5899 12 26.5 14.9101 26.5 18.5C26.5 22.0899 23.5899 25 20 25C16.4101 25 13.5 22.0899 13.5 18.5C13.5 14.9101 16.4101 12 20 12ZM20 13C16.9624 13 14.5 15.4624 14.5 18.5C14.5 21.5376 16.9624 24 20 24C23.0376 24 25.5 21.5376 25.5 18.5C25.5 15.4624 23.0376 13 20 13Z" fill="black"/>
</svg>
