<svg width="48" height="48" viewBox="0 0 48 48" fill="none" xmlns="http://www.w3.org/2000/svg">
<path d="M16 22.5C16.4767 22.5 16.9454 22.5247 17.4043 22.5674C17.6145 22.9547 17.8582 23.3207 18.1309 23.6631C17.4499 23.5578 16.7368 23.5 16 23.5C13.407 23.5 11.1047 24.1974 9.48047 25.2725C7.84868 26.3526 7.00019 27.7328 7 29.1172V33.5H12V34.5H6.83301C6.4017 34.4998 6.04659 34.172 6.00391 33.752L6 33.667V29.1172C6.00038 25.4645 10.4772 22.5 16 22.5Z" fill="black"/>
<path d="M32 22.5C37.5228 22.5 41.9996 25.4645 42 29.1172V33.667L41.9961 33.752C41.9534 34.172 41.5983 34.4998 41.167 34.5H36V33.5H41V29.1172C40.9998 27.7328 40.1513 26.3526 38.5195 25.2725C36.8953 24.1974 34.593 23.5 32 23.5C31.2629 23.5 30.5494 23.5577 29.8682 23.6631C30.1408 23.3209 30.3835 22.9545 30.5938 22.5674C31.0533 22.5245 31.5226 22.5 32 22.5Z" fill="black"/>
<path d="M16 9.5C18.0294 9.5 19.8008 10.5999 20.7539 12.2354C20.452 12.3805 20.1626 12.5477 19.8848 12.7305C19.1038 11.3966 17.6572 10.5 16 10.5C13.5147 10.5 11.5 12.5147 11.5 15C11.5 17.4853 13.5147 19.5 16 19.5C16.1741 19.5 16.3457 19.488 16.5146 19.4688C16.5355 19.8062 16.5805 20.1371 16.6445 20.4609C16.4331 20.4856 16.2181 20.5 16 20.5C12.9624 20.5 10.5 18.0376 10.5 15C10.5 11.9624 12.9624 9.5 16 9.5Z" fill="black"/>
<path d="M32 9.5C35.0376 9.5 37.5 11.9624 37.5 15C37.5 18.0376 35.0376 20.5 32 20.5C31.7816 20.5 31.5663 20.4857 31.3545 20.4609C31.4186 20.1371 31.4635 19.8062 31.4844 19.4688C31.6537 19.4881 31.8256 19.5 32 19.5C34.4853 19.5 36.5 17.4853 36.5 15C36.5 12.5147 34.4853 10.5 32 10.5C30.3426 10.5 28.8951 11.3964 28.1143 12.7305C27.8364 12.5477 27.5471 12.3805 27.2451 12.2354C28.1982 10.5997 29.9704 9.5 32 9.5Z" fill="black"/>
<path d="M24 26.5C29.5228 26.5 33.9996 29.4645 34 33.1172V37.667L33.9961 37.752C33.9562 38.1441 33.6441 38.4562 33.252 38.4961L33.167 38.5H14.833C14.4017 38.4998 14.0466 38.172 14.0039 37.752L14 37.667V33.1172C14.0004 29.4645 18.4772 26.5 24 26.5ZM24 27.5C21.407 27.5 19.1047 28.1974 17.4805 29.2725C15.8487 30.3526 15.0002 31.7328 15 33.1172V37.5H33V33.1172C32.9998 31.7328 32.1513 30.3526 30.5195 29.2725C28.8953 28.1974 26.593 27.5 24 27.5ZM24 13.5C27.0376 13.5 29.5 15.9624 29.5 19C29.5 22.0376 27.0376 24.5 24 24.5C20.9624 24.5 18.5 22.0376 18.5 19C18.5 15.9624 20.9624 13.5 24 13.5ZM24 14.5C21.5147 14.5 19.5 16.5147 19.5 19C19.5 21.4853 21.5147 23.5 24 23.5C26.4853 23.5 28.5 21.4853 28.5 19C28.5 16.5147 26.4853 14.5 24 14.5Z" fill="black"/>
</svg>
