<svg width="48" height="48" viewBox="0 0 48 48" fill="none" xmlns="http://www.w3.org/2000/svg">
<path d="M34.0693 16.1035L29.2744 20.8984L26.5215 18.1455L27.2285 17.4385L29.2744 19.4844L33.3623 15.3965L34.0693 16.1035Z" fill="black"/>
<path fill-rule="evenodd" clip-rule="evenodd" d="M37 26C37 26.5523 36.5523 27 36 27H24.5C23.9477 27 23.5 26.5523 23.5 26V10C23.5 9.44772 23.9477 9 24.5 9H36C36.5523 9 37 9.44772 37 10V26ZM24.5 26H36V10H24.5V26Z" fill="black"/>
<path d="M39.75 23.25H38.75V7.25H24.25V6.25H38.75C39.3023 6.25 39.75 6.69772 39.75 7.25V23.25Z" fill="black"/>
<path fill-rule="evenodd" clip-rule="evenodd" d="M15.4121 32.4072C19.639 32.5492 23 34.8634 23 37.6943V41.333C23 41.7012 22.7012 42 22.333 42H7.66699L7.53223 41.9863C7.22849 41.9241 7 41.6551 7 41.333V37.6943C7 34.772 10.5815 32.4004 15 32.4004L15.4121 32.4072ZM15 33.4004C12.9595 33.4004 11.1578 33.9497 9.89551 34.7852C8.70474 35.5733 8.08106 36.5447 8.00781 37.5029L8 37.6943V41H22V37.6943C22 36.6751 21.3746 35.6258 20.1045 34.7852C18.8422 33.9497 17.0405 33.4004 15 33.4004Z" fill="black"/>
<path fill-rule="evenodd" clip-rule="evenodd" d="M15 22C17.4301 22 19.4004 23.9703 19.4004 26.4004L19.3945 26.626C19.2769 28.951 17.3543 30.7998 15 30.7998C12.6457 30.7998 10.7231 28.951 10.6055 26.626L10.5996 26.4004C10.5996 23.9703 12.5699 22 15 22ZM15 23C13.1222 23 11.5996 24.5226 11.5996 26.4004C11.5998 28.278 13.1224 29.7998 15 29.7998C16.8776 29.7998 18.4002 28.278 18.4004 26.4004C18.4004 24.5226 16.8778 23 15 23Z" fill="black"/>
</svg>
