<svg width="48" height="48" viewBox="0 0 48 48" fill="none" xmlns="http://www.w3.org/2000/svg">
<path fill-rule="evenodd" clip-rule="evenodd" d="M30.1585 29.5527C31.5389 29.553 32.6585 30.6722 32.6585 32.0527C32.6584 33.4332 31.5389 34.5525 30.1585 34.5527C28.7778 34.5527 27.6585 33.4334 27.6585 32.0527C27.6585 30.672 28.7778 29.5527 30.1585 29.5527ZM30.1585 30.5527C29.33 30.5527 28.6585 31.2243 28.6585 32.0527C28.6585 32.8811 29.3301 33.5527 30.1585 33.5527C30.9866 33.5525 31.6584 32.8809 31.6585 32.0527C31.6585 31.2245 30.9867 30.553 30.1585 30.5527Z" fill="black"/>
<path fill-rule="evenodd" clip-rule="evenodd" d="M16.8948 20.0791C18.2755 20.0791 19.3948 21.1984 19.3948 22.5791C19.3947 23.9597 18.2755 25.0791 16.8948 25.0791C15.5141 25.0791 14.3949 23.9597 14.3948 22.5791C14.3948 21.1984 15.5141 20.0791 16.8948 20.0791ZM16.8948 21.0791C16.0664 21.0791 15.3948 21.7507 15.3948 22.5791C15.3949 23.4075 16.0664 24.0791 16.8948 24.0791C17.7232 24.0791 18.3947 23.4075 18.3948 22.5791C18.3948 21.7507 17.7232 21.0791 16.8948 21.0791Z" fill="black"/>
<path fill-rule="evenodd" clip-rule="evenodd" d="M32.5003 13.9209C33.8807 13.9212 35.0002 15.0404 35.0003 16.4209C35.0003 17.8014 33.8807 18.9206 32.5003 18.9209C31.1195 18.9209 30.0003 17.8016 30.0003 16.4209C30.0003 15.0403 31.1196 13.9209 32.5003 13.9209ZM32.5003 14.9209C31.6719 14.9209 31.0003 15.5925 31.0003 16.4209C31.0003 17.2493 31.6718 17.9209 32.5003 17.9209C33.3285 17.9206 34.0003 17.2492 34.0003 16.4209C34.0002 15.5927 33.3284 14.9212 32.5003 14.9209Z" fill="black"/>
<path fill-rule="evenodd" clip-rule="evenodd" d="M26.617 5.5479C27.6617 5.42222 28.7243 5.54512 29.7069 5.90533C30.6895 6.26564 31.5634 6.8528 32.2459 7.61626C32.9287 8.38004 33.3986 9.29556 33.6082 10.2793L33.8397 11.3663L34.4852 11.4874C36.0585 11.7832 37.4803 12.5822 38.5057 13.7549C39.5317 14.9284 40.0967 16.404 40.0975 17.9317V18.377C40.0975 19.9138 39.4955 21.3138 38.5106 22.3848C39.7662 23.1025 40.8039 24.1249 41.5076 25.3545C42.327 26.7862 42.6515 28.4253 42.4334 30.042C42.2153 31.6583 41.4665 33.1662 40.2967 34.3575C39.2032 35.471 37.7926 36.2564 36.241 36.626L36.2186 36.7276C35.9528 37.9731 35.3423 39.1277 34.452 40.0752C33.5619 41.0225 32.4232 41.7295 31.1541 42.129C29.8853 42.5282 28.5272 42.6066 27.2166 42.3565C26.4088 42.2023 25.6354 41.9266 24.9256 41.542C24.5309 41.3281 24.2258 41.0269 23.9998 40.6788C23.7739 41.0268 23.4688 41.3281 23.074 41.542C22.3643 41.9266 21.5909 42.2023 20.783 42.3565C19.4725 42.6066 18.1144 42.5283 16.8455 42.129C15.5765 41.7295 14.4378 41.0225 13.5477 40.0752C12.6574 39.1277 12.0468 37.9731 11.7811 36.7276L11.7586 36.626C10.2071 36.2564 8.79642 35.471 7.70296 34.3575C6.53321 33.1662 5.78436 31.6583 5.56624 30.042C5.34813 28.4253 5.6727 26.7862 6.49202 25.3545C7.19578 24.1249 8.23347 23.1025 9.48909 22.3848C8.50421 21.3138 7.90218 19.9138 7.90217 18.377V17.9317C7.90295 16.404 8.46797 14.9284 9.49397 13.7549C10.5194 12.5822 11.9412 11.7833 13.5145 11.4874L14.16 11.3663L14.3914 10.2793C14.601 9.29561 15.071 8.38002 15.7537 7.61626C16.4363 6.85281 17.3102 6.26566 18.2928 5.90533C19.2753 5.5451 20.3379 5.42225 21.3826 5.5479C21.8497 5.60413 22.3076 5.7094 22.7469 5.8604C23.3008 6.05083 23.7136 6.41256 23.9998 6.85552C24.2861 6.41253 24.6989 6.05087 25.2528 5.8604C25.6921 5.70939 26.15 5.60414 26.617 5.5479ZM21.2635 6.54107C20.3742 6.43406 19.4709 6.5383 18.6375 6.8438C17.8042 7.14935 17.0688 7.64567 16.4989 8.28325C15.9293 8.92057 15.5422 9.67948 15.3699 10.4883L15.0828 11.8379C15.0553 12.4842 15.0659 13.1757 15.3114 13.753C15.5406 14.292 15.9949 14.7783 16.9959 14.9834L16.7948 15.9639C16.7801 15.9609 16.7653 15.9563 16.7508 15.9532L16.7489 15.9639C15.4388 15.6954 14.7084 14.9971 14.3455 14.1436C14.1022 13.5711 14.0363 12.9524 14.0282 12.4073L13.699 12.4708C12.3377 12.7268 11.1191 13.4157 10.2469 14.4131C9.37536 15.41 8.90282 16.6541 8.90217 17.9327V18.377C8.90219 19.8531 9.57346 21.1905 10.661 22.1319C10.7892 22.2429 10.8525 22.4121 10.8289 22.5801C10.8053 22.748 10.6975 22.8925 10.5438 22.9639C9.18317 23.5961 8.07223 24.6075 7.36018 25.8516C6.64846 27.0953 6.36822 28.5129 6.55647 29.9083C6.74478 31.3039 7.39339 32.615 8.41682 33.6573C9.30461 34.5613 10.4374 35.2226 11.6932 35.5752C11.7394 34.7923 11.8994 33.931 12.3123 33.1641C12.8574 32.1522 13.8191 31.3481 15.3914 31.086L15.4744 31.5792L15.5565 32.0723C14.2871 32.2839 13.5908 32.9006 13.1932 33.6387C12.7915 34.3846 12.6752 35.2952 12.6776 36.1368L12.7586 36.5186C12.9852 37.5807 13.5083 38.5724 14.2772 39.3907C15.0462 40.209 16.0351 40.8254 17.1453 41.1749C18.2559 41.5244 19.4466 41.5933 20.5955 41.3741C21.3033 41.239 21.9789 40.9973 22.5975 40.6622C23.1742 40.3496 23.4998 39.6749 23.4998 38.9083V31.1309H19.8944C17.9616 31.1307 16.3944 29.5638 16.3944 27.6309V26.3682H17.3944V27.6309C17.3944 29.0115 18.5138 30.1307 19.8944 30.1309H23.4998V8.627C23.4997 7.76453 23.0902 7.03536 22.4227 6.80572C22.0501 6.67761 21.6609 6.5889 21.2635 6.54107ZM29.3621 6.8438C28.5288 6.53832 27.6254 6.43403 26.7362 6.54107C26.3388 6.58891 25.9496 6.6776 25.577 6.80572C24.9096 7.03542 24.4999 7.7646 24.4998 8.627V15.9209H28.4998V16.9209H24.4998V38.9083C24.4998 39.6748 24.8256 40.3496 25.4022 40.6622C26.0207 40.9973 26.6964 41.2389 27.4041 41.3741C28.553 41.5934 29.7437 41.5244 30.8543 41.1749C31.9646 40.8254 32.9534 40.209 33.7225 39.3907C34.4914 38.5724 35.0144 37.5807 35.241 36.5186L35.3289 36.1026C35.3655 35.9316 35.4888 35.7941 35.6502 35.7364L35.7215 35.7168L35.9989 35.6563C37.3774 35.3299 38.623 34.6346 39.5828 33.6573C40.6063 32.615 41.2549 31.3039 41.4432 29.9083C41.6314 28.5128 41.3512 27.0953 40.6395 25.8516C39.9691 24.6803 38.9452 23.7157 37.6922 23.0792H33.158C31.7773 23.0792 30.658 24.1984 30.658 25.5792V28.2637H29.658V25.5792C29.658 23.6462 31.225 22.0792 33.158 22.0792H37.3973C38.45 21.1409 39.0975 19.8262 39.0975 18.377V17.9327C39.0968 16.654 38.6244 15.41 37.7528 14.4131C36.8806 13.4157 35.662 12.7268 34.3006 12.4708L33.327 12.2881C33.1285 12.251 32.9715 12.098 32.9295 11.9004L32.6297 10.4883C32.4574 9.67944 32.0704 8.9206 31.5008 8.28325C30.9308 7.64566 30.1955 7.14934 29.3621 6.8438Z" fill="black"/>
</svg>
