<svg width="48" height="48" viewBox="0 0 48 48" fill="none" xmlns="http://www.w3.org/2000/svg">
<g clip-path="url(#clip0_2_444)">
<path d="M13.3514 6.1931L12.6443 6.90021L16.9293 11.1853L17.6364 10.4782L13.3514 6.1931Z" fill="black"/>
<path d="M3.87052 19.6421L3.16156 20.3474L7.14624 24.3529L7.8552 23.6477L3.87052 19.6421Z" fill="black"/>
<path d="M42.86 31.1L33.36 21.4L32.65 22.1L42.15 31.8C42.92 32.58 42.92 33.84 42.15 34.62C41.4 35.37 40.1 35.37 39.35 34.62L38.79 34.06C38.74 34.01 38.67 33.97 38.61 33.95L32.49 27.82L31.78 28.53L38.08 34.83C38.46 35.59 38.34 36.51 37.73 37.12C36.98 37.87 35.68 37.87 34.93 37.12L34.06 36.24C34.06 36.24 34 36.19 33.96 36.17L28.98 31.19L28.27 31.9L33.24 36.87C33.42 37.55 33.24 38.27 32.74 38.78C32.37 39.16 31.87 39.36 31.34 39.36C30.81 39.36 30.31 39.15 29.94 38.78L28.83 37.67C28.83 37.67 28.8 37.65 28.78 37.64L26.02 34.88L25.31 35.59L28.07 38.35C28.51 39.13 28.39 40.1 27.76 40.74C27.34 41.16 26.77 41.37 26.18 41.31L26.09 42.31C26.18 42.31 26.27 42.32 26.37 42.32C27.16 42.32 27.91 42.01 28.48 41.44C28.99 40.93 29.28 40.27 29.34 39.59C29.89 40.09 30.6 40.37 31.35 40.37C32.15 40.37 32.89 40.06 33.46 39.49C33.91 39.04 34.19 38.48 34.29 37.89C35.42 38.96 37.33 38.94 38.44 37.82C38.99 37.27 39.28 36.55 39.31 35.82C40.42 36.44 41.94 36.25 42.86 35.32C44.02 34.15 44.02 32.26 42.86 31.09V31.1Z" fill="black"/>
<path d="M18.97 12.96C19.52 12.41 20.26 12.1 21.05 12.1H29.66C29.79 12.1 29.92 12.05 30.01 11.95L35.63 6.33L34.92 5.62L29.45 11.09H21.05C20 11.09 19.01 11.5 18.27 12.24L13.62 16.89C13.22 17.29 13 17.83 13 18.39C13 18.95 13.22 19.49 13.62 19.89L13.88 20.15C14.93 21.2 16.31 21.72 17.68 21.72C19.05 21.72 20.43 21.2 21.48 20.15L22.68 18.95H27.17C28.56 18.95 29.89 19.47 30.91 20.41L31.18 20.66L31.86 19.93L31.59 19.68C30.38 18.56 28.82 17.95 27.17 17.95H22.48C22.35 17.95 22.22 18 22.13 18.1L20.79 19.44C19.08 21.15 16.3 21.15 14.6 19.44L14.34 19.18C14.13 18.97 14.01 18.68 14.01 18.38C14.01 18.08 14.13 17.8 14.34 17.58L18.99 12.93L18.97 12.96Z" fill="black"/>
<path d="M44.9248 19.9518L39.6993 25.1774L40.4064 25.8845L45.6319 20.659L44.9248 19.9518Z" fill="black"/>
<path d="M21.83 35.1C21.81 34.15 21.44 33.25 20.77 32.58C20.1 31.91 19.19 31.58 18.28 31.55C18.28 30.62 17.92 29.7 17.21 28.99C16.5 28.28 15.56 27.92 14.62 27.92C14.59 27.03 14.24 26.14 13.56 25.46C12.14 24.04 9.82001 24.04 8.40001 25.46L6.67001 27.19C5.98001 27.88 5.60001 28.8 5.60001 29.77C5.60001 30.74 5.98001 31.66 6.67001 32.35C7.04001 32.72 7.47001 32.99 7.94001 33.17C6.92001 34.6 7.04001 36.59 8.32001 37.87C9.03001 38.58 9.97001 38.94 10.9 38.94C11.44 38.94 11.97 38.81 12.47 38.57C12.65 39.1 12.93 39.59 13.34 40C14.03 40.69 14.95 41.07 15.92 41.07C16.31 41.07 16.68 40.99 17.04 40.88C17.2 41.48 17.5 42.05 17.97 42.52C18.68 43.23 19.62 43.59 20.55 43.59C21.48 43.59 22.42 43.23 23.13 42.52L24.33 41.32C25.75 39.9 25.75 37.58 24.33 36.16C23.66 35.49 22.77 35.12 21.82 35.1H21.83ZM20.56 42.59C19.85 42.59 19.19 42.31 18.69 41.81C18.3 41.42 18.06 40.95 17.97 40.44C17.93 40.24 17.92 40.03 17.93 39.83C17.94 39.55 17.99 39.28 18.08 39.01C18.19 38.71 18.36 38.42 18.59 38.17L18.7 38.06L19.9 36.86C20.08 36.68 20.3 36.53 20.52 36.41C20.73 36.3 20.94 36.21 21.17 36.16C21.35 36.12 21.53 36.1 21.71 36.09C21.73 36.09 21.75 36.09 21.77 36.09C22.48 36.09 23.14 36.37 23.64 36.87C24.14 37.37 24.42 38.04 24.42 38.74C24.42 39.44 24.14 40.11 23.64 40.61L22.44 41.81C21.94 42.31 21.27 42.59 20.57 42.59H20.56ZM14.04 39.3C13.68 38.94 13.44 38.49 13.33 38C13.29 37.81 13.26 37.62 13.26 37.42C13.26 37.41 13.26 37.39 13.26 37.38C13.26 37.08 13.32 36.78 13.43 36.51C13.56 36.15 13.76 35.82 14.04 35.55L16.31 33.28C16.5 33.09 16.72 32.94 16.95 32.82C17.16 32.71 17.38 32.62 17.6 32.57C17.78 32.53 17.96 32.51 18.14 32.5C18.16 32.5 18.17 32.5 18.19 32.5C18.87 32.5 19.55 32.76 20.06 33.28C20.57 33.8 20.84 34.45 20.84 35.15C20.84 35.17 20.84 35.2 20.84 35.22C20.22 35.38 19.65 35.69 19.19 36.16L17.86 37.49C17.25 38.17 16.95 39.01 16.93 39.86C15.97 40.23 14.81 40.04 14.06 39.3H14.04ZM9.03001 37.17C8.53001 36.67 8.25001 36 8.25001 35.3C8.25001 34.6 8.53001 33.93 9.03001 33.42L9.05001 33.4L9.56001 32.89L10.21 32.24L12.76 29.69C12.93 29.52 13.12 29.39 13.32 29.28C13.53 29.16 13.75 29.07 13.97 29.01C14.15 28.96 14.33 28.94 14.51 28.93C14.55 28.93 14.59 28.92 14.63 28.92C15.31 28.92 15.99 29.18 16.5 29.69C17.01 30.2 17.29 30.95 17.27 31.66C16.65 31.81 16.07 32.11 15.6 32.57L13.33 34.84C12.64 35.53 12.26 36.45 12.26 37.42C12.26 37.46 12.27 37.51 12.27 37.55C11.25 38.17 9.90001 38.05 9.02001 37.17H9.03001ZM10.98 25.4C11.66 25.4 12.34 25.66 12.85 26.17C13.36 26.68 13.63 27.39 13.62 28.08C13.04 28.24 12.49 28.54 12.04 28.99L8.67001 32.36C8.18001 32.25 7.73001 32.01 7.37001 31.65C6.34001 30.62 6.34001 28.94 7.37001 27.9L9.10001 26.17C9.62001 25.65 10.3 25.4 10.97 25.4H10.98Z" fill="black"/>
</g>
<defs>
<clipPath id="clip0_2_444">
<rect width="48" height="48" fill="white"/>
</clipPath>
</defs>
</svg>
