<svg width="48" height="48" viewBox="0 0 48 48" fill="none" xmlns="http://www.w3.org/2000/svg">
<path d="M45 21.5H44V18.6357L33.2822 29.3535C33.1885 29.4473 33.0613 29.5 32.9287 29.5H21.0605L8.20703 42.3535L7.5 41.6465L20.5 28.6465C20.5937 28.5528 20.721 28.5 20.8535 28.5H32.7217L43.2217 18H40.5V17H45V21.5Z" fill="black"/>
<path d="M20.8848 42H19.8848V36H20.8848V42ZM26.5977 42H25.5977V32H26.5977V42ZM32.3105 42H31.3105V32H32.3105V42ZM38.0244 42H37.0244V29H38.0244V42Z" fill="black"/>
<path d="M36.6543 6.00781C37.4105 6.08482 38.001 6.72349 38.001 7.5V20.7168L37.001 21.6338V12H15.5V28.5H14.5V12H7.03125V11H37.001V7.5C37.001 7.22401 36.7769 7.00025 36.501 7H7.5C7.22392 7.00007 7 7.2239 7 7.5V28.001C7.00052 28.2766 7.22424 28.5009 7.5 28.501H18.5244L17.5244 29.501H7.5L7.34668 29.4932C6.64102 29.4215 6.07989 28.8598 6.00781 28.1543L6 28.001V7.5C6 6.67162 6.67163 6.00007 7.5 6H36.501L36.6543 6.00781ZM9 8C9.55228 8 10 8.44772 10 9C10 9.55228 9.55228 10 9 10C8.44772 10 8 9.55228 8 9C8 8.44772 8.44772 8 9 8ZM12.5 8C13.0523 8 13.5 8.44772 13.5 9C13.5 9.55228 13.0523 10 12.5 10C11.9478 9.99993 11.5 9.55224 11.5 9C11.5 8.44776 11.9478 8.00007 12.5 8Z" fill="black"/>
</svg>
