<svg width="48" height="48" viewBox="0 0 48 48" fill="none" xmlns="http://www.w3.org/2000/svg">
<path fill-rule="evenodd" clip-rule="evenodd" d="M24.306 5.34638C24.7785 4.87434 25.5862 5.20868 25.5863 5.87665V41.2507L25.5765 41.3718C25.4921 41.9184 24.844 42.1869 24.3978 41.8601L24.306 41.781L15.4847 32.9606C15.2386 32.7146 14.9159 32.5622 14.5726 32.528L14.4242 32.5212H8.78745L8.6439 32.5114C8.31108 32.4683 8.01179 32.2772 7.83335 31.987C4.66777 26.808 4.69068 20.2682 7.83823 15.1403C8.01659 14.8503 8.31515 14.6591 8.6478 14.6159L8.79233 14.6061H14.4242C14.7722 14.6061 15.1085 14.486 15.3753 14.2673L15.4847 14.1677L24.306 5.34638ZM16.1917 14.8747C15.723 15.3433 15.087 15.6061 14.4242 15.6061H8.79233C8.7506 15.6061 8.71169 15.6282 8.68979 15.6638L8.68882 15.6628C5.73783 20.4706 5.71745 26.6075 8.68686 31.4655C8.70891 31.4997 8.74666 31.5211 8.78745 31.5212H14.4242C15.0871 31.5212 15.723 31.7848 16.1917 32.2536L24.5863 40.6472V6.48017L16.1917 14.8747Z" fill="black"/>
<path d="M37.4639 9.44629C41.8518 13.8343 43.9999 18.6992 44 23.5635C44 28.4277 41.8517 33.2927 37.4639 37.6807L36.7568 36.9736C40.9959 32.7345 43 28.1124 43 23.5635C42.9999 19.0146 40.9959 14.3925 36.7568 10.1533L37.4639 9.44629Z" fill="black"/>
<path d="M32.4258 16.165C36.7031 20.443 36.7035 26.6861 32.4258 30.9639L31.6338 31.7549L30.9268 31.0479L31.7188 30.2568C35.606 26.3696 35.6055 20.7595 31.7188 16.8721L30.9268 16.0801L31.6338 15.373L32.4258 16.165Z" fill="black"/>
</svg>
