<svg width="48" height="48" viewBox="0 0 48 48" fill="none" xmlns="http://www.w3.org/2000/svg">
<path fill-rule="evenodd" clip-rule="evenodd" d="M16.125 27.3779C17.2296 27.3779 18.125 28.2734 18.125 29.3779C18.125 30.4825 17.2296 31.3779 16.125 31.3779C15.0204 31.3779 14.125 30.4825 14.125 29.3779C14.125 28.2734 15.0204 27.3779 16.125 27.3779ZM16.125 28.3779C15.5727 28.3779 15.125 28.8256 15.125 29.3779C15.125 29.9302 15.5727 30.3779 16.125 30.3779C16.6773 30.3779 17.125 29.9302 17.125 29.3779C17.125 28.8256 16.6773 28.3779 16.125 28.3779Z" fill="black"/>
<path fill-rule="evenodd" clip-rule="evenodd" d="M31.875 27.3779C32.9796 27.3779 33.875 28.2734 33.875 29.3779C33.875 30.4825 32.9796 31.3779 31.875 31.3779C30.7704 31.3779 29.875 30.4825 29.875 29.3779C29.875 28.2734 30.7704 27.3779 31.875 27.3779ZM31.875 28.3779C31.3227 28.3779 30.875 28.8256 30.875 29.3779C30.875 29.9302 31.3227 30.3779 31.875 30.3779C32.4273 30.3779 32.875 29.9302 32.875 29.3779C32.875 28.8256 32.4273 28.3779 31.875 28.3779Z" fill="black"/>
<path fill-rule="evenodd" clip-rule="evenodd" d="M24 9.64355C25.4864 9.64355 26.7198 10.7249 26.958 12.1436H27.2002L27.2754 12.1494C27.4486 12.1758 27.5976 12.292 27.6641 12.458L28.3818 14.2529H32.25C32.4455 14.2529 32.6226 14.3672 32.7041 14.5449L36.6953 23.2529H42V24.2529H38V35.0029C38 35.2791 37.7761 35.5029 37.5 35.5029H36.875V40.6279C36.875 40.9041 36.6511 41.1279 36.375 41.1279H31.875C31.5989 41.1279 31.375 40.9041 31.375 40.6279V35.5029H16.625V40.6279C16.625 40.9041 16.4011 41.1279 16.125 41.1279H11.625C11.3489 41.1279 11.125 40.9041 11.125 40.6279V35.5029H10.5C10.2239 35.5029 10 35.2791 10 35.0029V24.2529H6V23.2529H11.3047L15.2959 14.5449L15.3301 14.4814C15.4213 14.3403 15.5788 14.2529 15.75 14.2529H19.6182L20.3359 12.458L20.3691 12.3896C20.458 12.2389 20.6211 12.1436 20.7998 12.1436H21.042C21.2802 10.7249 22.5136 9.64355 24 9.64355ZM12.125 40.1279H15.625V35.5029H12.125V40.1279ZM32.375 40.1279H35.875V35.5029H32.375V40.1279ZM11 34.5029H37V24.2529H11V34.5029ZM12.4033 23.2529H35.5967L31.9297 15.2529H16.0703L12.4033 23.2529ZM20.7383 14.1436H27.2617L26.8613 13.1436H21.1387L20.7383 14.1436ZM24 10.6436C23.0684 10.6436 22.2877 11.2814 22.0654 12.1436H25.9346C25.7123 11.2814 24.9316 10.6436 24 10.6436Z" fill="black"/>
<path d="M21.3027 7.0498C22.8598 5.49289 25.1539 5.49289 26.7109 7.0498L26.9746 7.31348L26.2676 8.02051L26.0039 7.75684C24.8374 6.59044 23.1763 6.59044 22.0098 7.75684L21.7461 8.02051L21.0391 7.31348L21.3027 7.0498Z" fill="black"/>
<path d="M24.0068 3.09082C25.7344 3.09091 27.4389 3.85592 28.9521 5.36914L28.2451 6.07617C26.8808 4.71181 25.4191 4.09091 24.0068 4.09082C22.5946 4.09091 21.1339 4.71185 19.7695 6.07617L19.0625 5.36914C20.5757 3.85596 22.2793 3.09091 24.0068 3.09082Z" fill="black"/>
</svg>
