<svg width="48" height="48" viewBox="0 0 48 48" fill="none" xmlns="http://www.w3.org/2000/svg">
<path d="M7.5 40.5H42V41.5H6.5V6H7.5V40.5Z" fill="black"/>
<path d="M12.5 37H11.5V20H12.5V37Z" fill="black"/>
<path d="M18 24.8408C18.313 25.1559 18.6475 25.4493 19 25.7207V37H18V24.8408Z" fill="black"/>
<path d="M25.5 37H24.5V29H25.5V37Z" fill="black"/>
<path d="M32 30.5117V37H31V29.5117L32 30.5117Z" fill="black"/>
<path d="M38.5 37H37.5V34.2695C37.8406 34.2423 38.1776 34.1656 38.5 34.0391V37Z" fill="black"/>
<path d="M40.8535 9.14648L40.1465 9.85352L38.5 8.20703V26.9463L37.5 25.9463V8.20703L35.8535 9.85352L35.1465 9.14648L38 6.29297L40.8535 9.14648Z" fill="black"/>
<path fill-rule="evenodd" clip-rule="evenodd" d="M25 9.5C29.6944 9.5 33.5 13.3056 33.5 18C33.5 20.2893 32.5929 22.3653 31.1211 23.8936L32.8311 25.6035C33.3976 25.3033 34.1165 25.3923 34.5938 25.8691L38.3633 29.6387C38.9488 30.2244 38.9489 31.174 38.3633 31.7598L38.2803 31.8428L38.166 31.9453C37.5769 32.4258 36.7084 32.3918 36.1592 31.8428L32.3896 28.0742C31.9124 27.597 31.8236 26.8773 32.124 26.3105L30.3867 24.5732C28.9202 25.7765 27.045 26.5 25 26.5C20.3056 26.5 16.5 22.6944 16.5 18C16.5 13.3056 20.3056 9.5 25 9.5ZM33.8867 26.5771C33.6915 26.3819 33.375 26.3819 33.1797 26.5771L33.0967 26.6592C32.9016 26.8543 32.9018 27.1709 33.0967 27.3662L36.8662 31.1357C37.0615 31.3308 37.378 31.3309 37.5732 31.1357L37.6562 31.0527C37.8513 30.8575 37.8513 30.5409 37.6562 30.3457L33.8867 26.5771ZM25 10.5C20.8579 10.5 17.5 13.8579 17.5 18C17.5 22.1421 20.8579 25.5 25 25.5C29.1421 25.5 32.5 22.1421 32.5 18C32.5 13.8579 29.1421 10.5 25 10.5Z" fill="black"/>
<path d="M29.001 15.1094L24.0918 21.501L21 18.5957L21.6865 17.8672L23.9717 20.0146L28.208 14.5L29.001 15.1094Z" fill="black"/>
</svg>
