<svg width="48" height="48" viewBox="0 0 48 48" fill="none" xmlns="http://www.w3.org/2000/svg">
<path d="M7.5 40.5H42V41.5H6.5V6H7.5V40.5Z" fill="black"/>
<path d="M12.5 37H11.5V20H12.5V37Z" fill="black"/>
<path d="M18 24.8408C18.313 25.1559 18.6475 25.4493 19 25.7207V37H18V24.8408Z" fill="black"/>
<path d="M25.5 37H24.5V29H25.5V37Z" fill="black"/>
<path d="M32 30.5117V37H31V29.5117L32 30.5117Z" fill="black"/>
<path d="M38.5 37H37.5V34.2695C37.8406 34.2424 38.1776 34.1656 38.5 34.0391V37Z" fill="black"/>
<path d="M40.8535 9.14648L40.1465 9.85352L38.5 8.20703V26.9463L37.5 25.9463V8.20703L35.8535 9.85352L35.1465 9.14648L38 6.29297L40.8535 9.14648Z" fill="black"/>
<path fill-rule="evenodd" clip-rule="evenodd" d="M25 9.5C29.6944 9.5 33.5 13.3056 33.5 18C33.5 20.2893 32.5929 22.3653 31.1211 23.8936L32.8311 25.6035C33.3976 25.3033 34.1165 25.3923 34.5938 25.8691L38.3633 29.6387C38.9488 30.2244 38.9488 31.174 38.3633 31.7598L38.2803 31.8428L38.166 31.9453C37.5769 32.4258 36.7084 32.3918 36.1592 31.8428L32.3896 28.0742C31.9124 27.597 31.8236 26.8773 32.124 26.3105L30.3867 24.5732C28.9202 25.7765 27.045 26.5 25 26.5C20.3056 26.5 16.5 22.6944 16.5 18C16.5 13.3056 20.3056 9.5 25 9.5ZM33.8867 26.5771C33.6915 26.3819 33.375 26.3819 33.1797 26.5771L33.0967 26.6592C32.9258 26.8301 32.9049 27.095 33.0332 27.2891L33.0967 27.3662L36.8662 31.1357C37.0615 31.3308 37.378 31.3309 37.5732 31.1357L37.6562 31.0527C37.8513 30.8575 37.8513 30.5409 37.6562 30.3457L33.8867 26.5771ZM25 10.5C20.8579 10.5 17.5 13.8579 17.5 18C17.5 22.1421 20.8579 25.5 25 25.5C29.1421 25.5 32.5 22.1421 32.5 18C32.5 13.8579 29.1421 10.5 25 10.5Z" fill="black"/>
<path d="M24.7682 20.986C25.4114 20.986 25.8624 20.8858 26.1213 20.6853C26.3802 20.4765 26.5097 20.2134 26.5097 19.896C26.5097 19.6622 26.4512 19.4617 26.3343 19.2946C26.2257 19.1276 26.0754 18.9814 25.8833 18.8562C25.6995 18.7309 25.4823 18.6181 25.2318 18.5179C24.9896 18.4177 24.739 18.3216 24.4801 18.2297C24.2295 18.1379 23.9789 18.0376 23.7284 17.929C23.4861 17.8121 23.269 17.6743 23.0769 17.5156C22.8848 17.3486 22.7261 17.1523 22.6008 16.9268C22.4839 16.6929 22.4254 16.4089 22.4254 16.0748C22.4254 15.4818 22.6008 14.9974 22.9516 14.6215C23.3107 14.2373 23.8286 13.9951 24.5051 13.8949V12.4541H25.545V13.8573C25.9125 13.874 26.2549 13.9199 26.5723 13.9951C26.8897 14.0703 27.1403 14.1413 27.324 14.2081L27.086 15.1853C26.8855 15.1101 26.635 15.035 26.3343 14.9598C26.0336 14.8763 25.6577 14.8345 25.2067 14.8345C24.7056 14.8345 24.3172 14.9306 24.0416 15.1227C23.7743 15.3148 23.6407 15.5862 23.6407 15.937C23.6407 16.1291 23.6782 16.292 23.7534 16.4256C23.8369 16.5593 23.9539 16.6804 24.1042 16.789C24.2546 16.8892 24.43 16.9811 24.6304 17.0646C24.8392 17.1481 25.0689 17.2358 25.3195 17.3277C25.6452 17.453 25.9543 17.5824 26.2466 17.7161C26.5389 17.8497 26.7937 18.0126 27.0108 18.2047C27.2363 18.3884 27.4159 18.6098 27.5495 18.8687C27.6832 19.1276 27.75 19.4408 27.75 19.8083C27.75 20.4013 27.5704 20.8816 27.2113 21.2491C26.8521 21.6082 26.2967 21.8338 25.545 21.9256V23.5418H24.5051V21.9632C23.9205 21.9465 23.4444 21.8839 23.0769 21.7753C22.7094 21.6584 22.4338 21.5498 22.25 21.4495L22.5632 20.5099C22.8138 20.6268 23.1145 20.7354 23.4653 20.8357C23.8161 20.9359 24.2504 20.986 24.7682 20.986Z" fill="black"/>
</svg>
