<svg width="48" height="48" viewBox="0 0 48 48" fill="none" xmlns="http://www.w3.org/2000/svg">
<path d="M7.5 40.5H42V41.5H6.5V6H7.5V40.5Z" fill="black"/>
<path d="M12.5 37H11.5V20H12.5V37Z" fill="black"/>
<path d="M18 24.8408C18.313 25.1559 18.6475 25.4493 19 25.7207V37H18V24.8408Z" fill="black"/>
<path d="M25.5 37H24.5V29H25.5V37Z" fill="black"/>
<path d="M32 30.5117V37H31V29.5117L32 30.5117Z" fill="black"/>
<path d="M38.5 37H37.5V34.2695C37.8406 34.2423 38.1776 34.1656 38.5 34.0391V37Z" fill="black"/>
<path d="M40.8535 9.14648L40.1465 9.85352L38.5 8.20703V26.9463L37.5 25.9463V8.20703L35.8535 9.85352L35.1465 9.14648L38 6.29297L40.8535 9.14648Z" fill="black"/>
<path fill-rule="evenodd" clip-rule="evenodd" d="M25 9.5C29.6944 9.5 33.5 13.3056 33.5 18C33.5 20.2893 32.5929 22.3653 31.1211 23.8936L32.8311 25.6035C33.3976 25.3033 34.1165 25.3923 34.5938 25.8691L38.3633 29.6387C38.9488 30.2244 38.9489 31.174 38.3633 31.7598L38.2803 31.8428L38.166 31.9453C37.5769 32.4258 36.7084 32.3918 36.1592 31.8428L32.3896 28.0742C31.9124 27.597 31.8236 26.8773 32.124 26.3105L30.3867 24.5732C28.9202 25.7765 27.045 26.5 25 26.5C20.3056 26.5 16.5 22.6944 16.5 18C16.5 13.3056 20.3056 9.5 25 9.5ZM33.8867 26.5771C33.6915 26.3819 33.375 26.3819 33.1797 26.5771L33.0967 26.6592C32.9016 26.8543 32.9018 27.1709 33.0967 27.3662L36.8662 31.1357C37.0615 31.3308 37.378 31.3309 37.5732 31.1357L37.6562 31.0527C37.8513 30.8575 37.8513 30.5409 37.6562 30.3457L33.8867 26.5771ZM25 10.5C20.8579 10.5 17.5 13.8579 17.5 18C17.5 22.1421 20.8579 25.5 25 25.5C29.1421 25.5 32.5 22.1421 32.5 18C32.5 13.8579 29.1421 10.5 25 10.5Z" fill="black"/>
<path d="M24.9795 20.8057C25.2201 20.8057 25.4461 20.8764 25.6143 21.0654C25.7632 21.2331 25.8398 21.4283 25.8398 21.666C25.8398 21.9037 25.7632 22.099 25.6143 22.2666C25.4461 22.4557 25.2201 22.5273 24.9795 22.5273C24.7388 22.5273 24.5129 22.4557 24.3447 22.2666C24.1957 22.0989 24.1182 21.9038 24.1182 21.666C24.1182 21.4283 24.1957 21.2331 24.3447 21.0654C24.5129 20.8765 24.7389 20.8057 24.9795 20.8057Z" fill="black"/>
<path d="M25.1289 13.4502C25.544 13.4502 25.9005 13.5077 26.1924 13.6152C26.4774 13.7203 26.7316 13.8751 26.9141 14.0742C27.0731 14.2477 27.2212 14.4549 27.292 14.707C27.3686 14.9372 27.4004 15.154 27.4004 15.3691C27.4004 15.6755 27.3386 15.9427 27.2275 16.1807C27.1229 16.4048 26.9893 16.6139 26.8262 16.8066C26.6802 16.9792 26.5222 17.1639 26.3359 17.3369C26.172 17.5009 26.0173 17.6572 25.876 17.8242C25.7368 17.9888 25.6281 18.147 25.5449 18.3252C25.4643 18.4981 25.419 18.6792 25.4189 18.8838V19.4326H24.3945L24.3545 19.2314C24.3396 19.157 24.3223 19.0572 24.3223 18.9385V18.6807C24.3223 18.4115 24.3669 18.1394 24.4844 17.9043C24.583 17.7071 24.6995 17.5025 24.834 17.3232C24.9663 17.1468 25.1258 16.9721 25.2988 16.8135C25.4504 16.6745 25.5719 16.5275 25.7168 16.3682C25.8313 16.2422 25.9261 16.0898 25.998 15.9219L26.001 15.916L26.0469 15.8018C26.0882 15.6832 26.1133 15.5529 26.1133 15.4102C26.1133 15.2386 26.0789 15.1011 26.0312 15.0059C25.9872 14.9179 25.9122 14.8396 25.8174 14.7764C25.726 14.7155 25.6235 14.6739 25.4941 14.6523C25.3454 14.6276 25.1961 14.6152 25.0332 14.6152H24.7734C24.4261 14.6478 24.1039 14.7422 23.8242 14.8965L23.5635 15.04L23.4668 14.7578L23.2002 13.9746L23.3662 13.8691C23.5494 13.7527 23.8124 13.6633 24.0967 13.582C24.4081 13.4931 24.7577 13.4502 25.1289 13.4502Z" fill="black"/>
</svg>
