<svg width="48" height="48" viewBox="0 0 48 48" fill="none" xmlns="http://www.w3.org/2000/svg">
<path fill-rule="evenodd" clip-rule="evenodd" d="M28.5 3C29.3284 3 30 3.67157 30 4.5V6H34.5C35.3284 6 36 6.67157 36 7.5V44.25C36 44.6642 35.6642 45 35.25 45H12.75C12.3358 45 12 44.6642 12 44.25V7.5C12 6.67157 12.6716 6 13.5 6H18V4.5C18 3.67157 18.6716 3 19.5 3H28.5ZM19.5 4C19.2239 4 19 4.22386 19 4.5V7H13.5C13.2239 7 13 7.22386 13 7.5V44H35V7.5C35 7.22386 34.7761 7 34.5 7H29V4.5C29 4.22386 28.7761 4 28.5 4H19.5Z" fill="black"/>
<path d="M24 24V18L21 25.5H24V31.5L27 24H24Z" fill="black"/>
</svg>
