<svg width="48" height="48" viewBox="0 0 48 48" fill="none" xmlns="http://www.w3.org/2000/svg">
<path fill-rule="evenodd" clip-rule="evenodd" d="M26.8809 3C27.0318 3 27.1766 3.06217 27.2803 3.17188L36.8496 13.2949C36.9459 13.3968 36.9999 13.5317 37 13.6719V34.5H36V14.4805H27.1172C26.5381 14.4802 26.0685 14.0107 26.0684 13.4316V4H10V41H19.4873L21.2305 42H9.54883C9.28354 41.9999 9.06185 41.8117 9.01074 41.5615L9 41.4512V3.54883C9.0001 3.24576 9.24576 3.0001 9.54883 3H26.8809ZM27.0684 13.4316C27.0685 13.4584 27.0904 13.4802 27.1172 13.4805H35.6494L27.0684 4.40234V13.4316Z" fill="black"/>
<path fill-rule="evenodd" clip-rule="evenodd" d="M18.8992 38.9336C18.5644 38.7414 18.5644 38.2586 18.8992 38.0664L22.3846 36.0664C22.4603 36.023 22.5463 36 22.6336 36L37.9998 36C39.1044 36 39.9998 36.8954 39.9998 38V39C39.9998 40.1046 39.1044 41 37.9998 41L22.6336 41C22.5464 41 22.4603 40.977 22.3846 40.9336L18.8992 38.9336ZM36.9998 40H37.9998C38.5521 40 38.9998 39.5523 38.9998 39V38C38.9998 37.4477 38.5521 37 37.9998 37H36.9998V40ZM35.9998 40V37L22.9998 37L22.9998 40L35.9998 40ZM21.9998 39.5605L21.9998 37.4395L20.1522 38.5L21.9998 39.5605Z" fill="black"/>
<path d="M17.2119 38C17.1708 38.1621 17.1498 38.3285 17.1494 38.4951L17.1396 38.5L17.1494 38.5059C17.1499 38.6722 17.1719 38.8381 17.2129 39H12V38H17.2119Z" fill="black"/>
<path d="M20 36H12V35H20V36Z" fill="black"/>
<path d="M24 33H12V32H24V33Z" fill="black"/>
<path fill-rule="evenodd" clip-rule="evenodd" d="M23.001 19.4639C24.3814 19.4642 25.501 20.5834 25.501 21.9639C25.5008 23.3442 24.3813 24.4635 23.001 24.4639C21.6203 24.4639 20.5011 23.3445 20.501 21.9639C20.501 20.5832 21.6203 19.4639 23.001 19.4639ZM23.001 20.4639C22.1725 20.4639 21.501 21.1354 21.501 21.9639C21.5011 22.7922 22.1726 23.4639 23.001 23.4639C23.829 23.4635 24.5008 22.792 24.501 21.9639C24.501 21.1357 23.8291 20.4642 23.001 20.4639Z" fill="black"/>
<path fill-rule="evenodd" clip-rule="evenodd" d="M25.376 15.6797L25.377 15.6836C25.4998 16.0609 25.7539 16.3765 26.0869 16.5723C26.4195 16.7676 26.8102 16.8314 27.1846 16.7539L28.9111 16.3984L30.7207 19.5811L29.5654 20.8994L29.5645 20.8984C29.3077 21.1925 29.165 21.5752 29.165 21.9727C29.1651 22.3696 29.3082 22.751 29.5645 23.0449L30.7207 24.3643L28.9111 27.5469L28.1992 27.3994L27.1855 27.1914L27.1846 27.1904C26.8102 27.113 26.4196 27.1776 26.0869 27.373C25.7538 27.5689 25.4997 27.8843 25.377 28.2617L25.374 28.2695L24.8193 29.9277H21.166L20.9463 29.2246L20.6416 28.2441L20.5889 28.1055C20.4535 27.7898 20.2229 27.5268 19.9316 27.3555C19.5989 27.1599 19.2075 27.0963 18.833 27.1738L17.1133 27.5283L15.2754 24.3604L16.4355 23.0371L16.4375 23.0342C16.6975 22.7394 16.8437 22.3553 16.8438 21.9551C16.8438 21.5548 16.6975 21.1708 16.4375 20.876L16.4355 20.873L15.2783 19.5527L17.0928 16.3896L18.8154 16.7451C19.1898 16.8225 19.5815 16.7588 19.9141 16.5635C20.247 16.3677 20.5012 16.0521 20.624 15.6748L20.626 15.6689L21.1797 14H24.8232L25.376 15.6797ZM21.5752 15.9834L21.4912 16.207C21.2728 16.7164 20.8983 17.144 20.4209 17.4248L20.2119 17.5352C19.7147 17.7687 19.1542 17.8366 18.6133 17.7246L17.5996 17.5156L16.501 19.4307L17.1875 20.2139C17.6098 20.6926 17.8438 21.3128 17.8438 21.9551L17.833 22.1943C17.7826 22.7498 17.557 23.2774 17.1875 23.6963L16.501 24.4795L17.6172 26.4033L18.6299 26.1943C19.2479 26.0663 19.8917 26.1726 20.4375 26.4932C20.9834 26.8141 21.3952 27.3279 21.5928 27.9355L21.9014 28.9277H24.0996L24.4258 27.9521C24.6234 27.3447 25.0343 26.8316 25.5801 26.5107C26.126 26.19 26.7695 26.0839 27.3877 26.2119L28.4014 26.4209L29.5 24.4883L28.8135 23.7051C28.4482 23.2873 28.2257 22.7628 28.1758 22.2109L28.165 21.9727C28.165 21.3344 28.3959 20.7179 28.8135 20.2402L29.5 19.457L28.4014 17.5244L27.3877 17.7334C26.7695 17.8614 26.1259 17.7543 25.5801 17.4336C25.1026 17.1529 24.7282 16.7252 24.5098 16.2158L24.4258 15.9922L24.0996 15H21.9014L21.5752 15.9834Z" fill="black"/>
</svg>
