<svg width="48" height="48" viewBox="0 0 48 48" fill="none" xmlns="http://www.w3.org/2000/svg">
<path fill-rule="evenodd" clip-rule="evenodd" d="M30.7314 17.9805L24.6367 24L30.7314 30.0195L22.75 37.1133V25.8633L16.8516 31.6895L16.5 31.333L16.1484 30.9775L22.75 24.457V23.542L16.1484 17.0225L16.5 16.667L16.8516 16.3105L22.75 22.1357V10.8867L30.7314 17.9805ZM23.75 24.875V34.8857L29.2686 29.9805L23.9248 24.7021L23.75 24.875ZM23.75 23.124L23.9248 23.2969L29.2686 18.0186L23.75 13.1133V23.124Z" fill="black"/>
<path fill-rule="evenodd" clip-rule="evenodd" d="M38.1025 3.00488C38.6067 3.05621 39 3.48232 39 4V44L38.9951 44.1025C38.9472 44.573 38.573 44.9472 38.1025 44.9951L38 45H10C9.48232 45 9.05621 44.6067 9.00488 44.1025L9 44V4C9 3.44772 9.44772 3 10 3H38L38.1025 3.00488ZM10 44H38V4H10V44Z" fill="black"/>
</svg>
