<svg width="48" height="48" viewBox="0 0 48 48" fill="none" xmlns="http://www.w3.org/2000/svg">
<path d="M11.9531 6.85156L11.9424 6.5H33.5225C33.7986 6.5 34.0225 6.72386 34.0225 7V22.625H33.0225V7.5H11.9746C11.972 7.50013 11.9665 7.50046 11.959 7.50098C11.9436 7.50203 11.9188 7.5042 11.8857 7.50781C11.8192 7.51509 11.7205 7.52825 11.6006 7.55371C11.3584 7.60519 11.0402 7.70258 10.7275 7.88184C10.1311 8.22395 9.5 8.88976 9.5 10.2979V34.5518C10.1353 33.9031 11.0203 33.5 12 33.5H29V34.5H12C10.7905 34.5 9.78142 35.3589 9.5498 36.5H31.7354V37.5H9.5498C9.78142 38.6411 10.7905 39.5 12 39.5H34V40.5H12C10.067 40.5 8.5 38.933 8.5 37V10.2979C8.5 8.50354 9.34777 7.5198 10.2305 7.01367C10.6574 6.7689 11.0801 6.64258 11.3926 6.57617C11.5497 6.54279 11.6822 6.52408 11.7773 6.51367C11.8248 6.50848 11.8637 6.50484 11.8916 6.50293C11.9052 6.502 11.9163 6.5014 11.9248 6.50098C11.9289 6.50077 11.9327 6.50109 11.9355 6.50098C11.9369 6.50092 11.9384 6.50004 11.9395 6.5H11.9424C11.9426 6.49999 11.9418 6.50028 11.9531 6.85156Z" fill="black"/>
<path fill-rule="evenodd" clip-rule="evenodd" d="M22.5068 11C27.205 11 31.0137 14.8087 31.0137 19.5068C31.0137 21.5107 30.3185 23.351 29.1592 24.8047L31.7568 27.4023C32.4346 26.8957 33.3982 26.9369 34.0303 27.541L39.082 32.3691C39.7863 33.0423 39.8117 34.1589 39.1387 34.8633L38.6143 35.4121L38.4824 35.5361C37.8025 36.1169 36.7795 36.0999 36.1191 35.4688L31.0674 30.6406C30.407 30.0095 30.3431 28.9878 30.8926 28.2822L31.0107 28.1455L31.0469 28.1064L28.4912 25.5508C26.9542 27.0727 24.8408 28.0137 22.5068 28.0137C17.8087 28.0137 14 24.205 14 19.5068C14 14.8087 17.8087 11 22.5068 11ZM33.3389 28.2637C33.0339 27.9722 32.5504 27.9824 32.2588 28.2871L31.7334 28.8369C31.4421 29.142 31.4528 29.6265 31.7578 29.918L36.8105 34.7461C37.1157 35.0375 37.6001 35.0267 37.8916 34.7217L38.416 34.1719C38.7073 33.8668 38.6957 33.3833 38.3906 33.0918L33.3389 28.2637ZM22.5068 12C18.3609 12 15 15.361 15 19.5068C15 23.6527 18.361 27.0137 22.5068 27.0137C26.6527 27.0136 30.0136 23.6527 30.0137 19.5068C30.0137 15.361 26.6527 12 22.5068 12Z" fill="black"/>
<path d="M22.4639 22.1426C22.7044 22.1426 22.9305 22.2135 23.0986 22.4023C23.2476 22.57 23.3241 22.7653 23.3242 23.0029C23.3242 23.2407 23.2476 23.4358 23.0986 23.6035C22.9305 23.7927 22.7045 23.8642 22.4639 23.8643C22.2232 23.8642 21.9972 23.7926 21.8291 23.6035C21.6801 23.4358 21.6025 23.2407 21.6025 23.0029C21.6026 22.7653 21.6801 22.57 21.8291 22.4023C21.9972 22.2135 22.2234 22.1426 22.4639 22.1426Z" fill="black"/>
<path d="M22.6133 14.7871C23.0283 14.7871 23.385 14.8447 23.6768 14.9521C23.9617 15.0572 24.2159 15.2121 24.3984 15.4111C24.5574 15.5846 24.7056 15.7919 24.7764 16.0439C24.853 16.2741 24.8847 16.4909 24.8848 16.7061C24.8848 17.0125 24.8229 17.2796 24.7119 17.5176C24.6073 17.7417 24.4737 17.9508 24.3105 18.1436C24.1646 18.3161 24.0066 18.5008 23.8203 18.6738C23.6563 18.8378 23.5017 18.9941 23.3604 19.1611C23.2211 19.3257 23.1125 19.4839 23.0293 19.6621C22.9487 19.835 22.9034 20.0162 22.9033 20.2207V20.7695H21.8789L21.8389 20.5684C21.824 20.4939 21.8066 20.394 21.8066 20.2754V20.0176C21.8067 19.7484 21.8513 19.4763 21.9688 19.2412C22.0674 19.044 22.1839 18.8395 22.3184 18.6602C22.4507 18.4837 22.6102 18.309 22.7832 18.1504C22.9348 18.0114 23.0562 17.8645 23.2012 17.7051C23.3158 17.579 23.4104 17.4268 23.4824 17.2588L23.4854 17.2529L23.5312 17.1387C23.5726 17.0201 23.5977 16.8898 23.5977 16.7471C23.5976 16.5755 23.5633 16.438 23.5156 16.3428C23.4715 16.2549 23.3965 16.1765 23.3018 16.1133C23.2105 16.0525 23.1077 16.0108 22.9785 15.9893C22.8298 15.9645 22.6804 15.9521 22.5176 15.9521H22.2578C21.9106 15.9847 21.5882 16.0791 21.3086 16.2334L21.0479 16.377L20.9512 16.0947L20.6846 15.3115L20.8506 15.2061C21.0337 15.0896 21.2968 15.0002 21.5811 14.9189C21.8924 14.83 22.2422 14.7871 22.6133 14.7871Z" fill="black"/>
</svg>
