<svg width="48" height="48" viewBox="0 0 48 48" fill="none" xmlns="http://www.w3.org/2000/svg">
<path d="M38.5 6C39.3284 6 40 6.67157 40 7.5V29.583C39.6765 29.452 39.343 29.3402 39 29.252V7.5C39 7.22386 38.7761 7 38.5 7H7.5C7.22386 7 7 7.22386 7 7.5V38.5C7 38.7761 7.22386 39 7.5 39H29.252C29.3403 39.3431 29.4529 39.6764 29.584 40H7.5L7.34668 39.9922C6.64069 39.9205 6.07949 39.3593 6.00781 38.6533L6 38.5V7.5C6 6.67157 6.67157 6 7.5 6H38.5Z" fill="black"/>
<path fill-rule="evenodd" clip-rule="evenodd" d="M19.1787 15.0664H22.7129V11.1006H23.7129V15.0664H27.2461V11.1006H28.2461V15.0664H30.9326V17.9668H35.1123V18.9668H30.9326V22.5H35.1123V23.5H30.9326V27.0332H35.1123V28.0332H30.9326V30.9326H28.2461V34.9004H27.2461V30.9326H23.7129V34.9004H22.7129V30.9326H19.1787V34.9004H18.1787V30.9326H15.0664V28.0332H11.3125V27.0332H15.0664V23.5H11.3125V22.5H15.0664V18.9668H11.3125V17.9668H15.0664V15.0664H18.1787V11.1006H19.1787V15.0664ZM16.0664 29.9326H29.9326V16.0664H16.0664V29.9326Z" fill="black"/>
<path d="M40.0996 34.9082L36.334 39.8115L35.9316 39.4326L33.915 37.5381L34.6006 36.8096L36.2139 38.3252L39.3066 34.2988L40.0996 34.9082Z" fill="black"/>
<path fill-rule="evenodd" clip-rule="evenodd" d="M37 31C40.3137 31 43 33.6863 43 37C43 40.3137 40.3137 43 37 43C33.6863 43 31 40.3137 31 37C31 33.6863 33.6863 31 37 31ZM37 32C34.2386 32 32 34.2386 32 37C32 39.7614 34.2386 42 37 42C39.7614 42 42 39.7614 42 37C42 34.2386 39.7614 32 37 32Z" fill="black"/>
</svg>
