<svg width="48" height="48" viewBox="0 0 48 48" fill="none" xmlns="http://www.w3.org/2000/svg">
<path fill-rule="evenodd" clip-rule="evenodd" d="M40.6533 6.00684C41.4096 6.08363 41.9999 6.72247 42 7.49902V40.499L41.9922 40.6523C41.9205 41.3583 41.3593 41.9195 40.6533 41.9912L40.5 41.999H7.5C6.72334 41.999 6.08461 41.4087 6.00781 40.6523L6 40.499V7.49902C6.00013 6.67071 6.67165 5.99902 7.5 5.99902H40.5L40.6533 6.00684ZM7.5 6.99902C7.25837 6.99902 7.05638 7.17059 7.00977 7.39844L7 7.49902V40.499C7 40.7752 7.22386 40.999 7.5 40.999H28V29.0908L18.5 19.2383V27.2998H17.5V6.99902H7.5ZM18.5 17.7979L28.8604 28.542L29 28.6875V40.999H40.5C40.7761 40.999 41 40.7752 41 40.499V7.49902C40.9999 7.25742 40.8285 7.0553 40.6006 7.00879L40.5 6.99902H27.2002V15.208L29.1729 17.417L28.7998 17.75L28.4277 18.083L26.3271 15.7334L26.2002 15.5908V6.99902H18.5V17.7979Z" fill="black"/>
<path fill-rule="evenodd" clip-rule="evenodd" d="M18 29C19.3807 29 20.5 30.1193 20.5 31.5C20.5 32.8807 19.3807 34 18 34C16.6193 34 15.5 32.8807 15.5 31.5C15.5 30.1193 16.6193 29 18 29ZM18 30C17.1716 30 16.5 30.6716 16.5 31.5C16.5 32.3284 17.1716 33 18 33C18.8284 33 19.5 32.3284 19.5 31.5C19.5 30.6716 18.8284 30 18 30Z" fill="black"/>
<path fill-rule="evenodd" clip-rule="evenodd" d="M31.7998 18.5C33.1805 18.5 34.2998 19.6193 34.2998 21C34.2998 22.3807 33.1805 23.5 31.7998 23.5C30.4191 23.4999 29.2998 22.3807 29.2998 21C29.2998 19.6193 30.4192 18.5001 31.7998 18.5ZM31.7998 19.5C30.9714 19.5001 30.2998 20.1716 30.2998 21C30.2998 21.8284 30.9714 22.4999 31.7998 22.5C32.6282 22.5 33.2998 21.8284 33.2998 21C33.2998 20.1716 32.6282 19.5 31.7998 19.5Z" fill="black"/>
</svg>
