<svg width="48" height="48" viewBox="0 0 48 48" fill="none" xmlns="http://www.w3.org/2000/svg">
<path fill-rule="evenodd" clip-rule="evenodd" d="M40.6533 6.00781C41.4097 6.08461 42 6.72334 42 7.5V40.5L41.9922 40.6533C41.9205 41.3593 41.3593 41.9205 40.6533 41.9922L40.5 42H7.5C6.72334 42 6.08461 41.4097 6.00781 40.6533L6 40.5V7.5C6 6.67157 6.67157 6 7.5 6H40.5L40.6533 6.00781ZM7.5 7C7.25829 7 7.05629 7.17145 7.00977 7.39941L7 7.5V40.5C7 40.7761 7.22386 41 7.5 41H40.5C40.7761 41 41 40.7761 41 40.5V7.5C41 7.25829 40.8286 7.05629 40.6006 7.00977L40.5 7H7.5Z" fill="black"/>
<path fill-rule="evenodd" clip-rule="evenodd" d="M19.9248 15.5996H23.7256V11.4004H24.7256V15.5996H28.5254V11.4004H29.5254V15.5996H32.4004V18.7002H36.8252V19.7002H32.4004V23.5H36.8252V24.5H32.4004V28.2998H36.8252V29.2998H32.4004V32.3994H29.5254V36.5996H28.5254V32.3994H24.7256V36.5996H23.7256V32.3994H19.9248V36.5996H18.9248V32.3994H15.6006V29.2998H11.625V28.2998H15.6006V24.5H11.625V23.5H15.6006V19.7002H11.625V18.7002H15.6006V15.5996H18.9248V11.4004H19.9248V15.5996ZM16.6006 31.3994H31.4004V16.5996H16.6006V31.3994Z" fill="black"/>
</svg>
