<svg width="48" height="48" viewBox="0 0 48 48" fill="none" xmlns="http://www.w3.org/2000/svg">
<path fill-rule="evenodd" clip-rule="evenodd" d="M37.8057 26.2095C38.8848 25.1408 40.5981 25.0632 41.7695 26.0298C43.0983 27.1262 43.215 29.1234 42.0137 30.3618C39.8715 32.5699 37.2736 35.2185 36.4365 35.936C34.5769 37.53 32.9118 38.7547 31.0693 39.5757C29.2187 40.4002 27.2146 40.8061 24.6875 40.8061C19.7185 40.8059 16.3141 38.2887 14.6396 36.6772H11.833V39.7778H5.5V25.5532H11.833V25.5561H18.417C19.9335 25.5561 21.1399 25.8225 22.1289 26.3237C23.0375 26.7843 23.7343 27.4301 24.3125 28.1948H30.7783C32.1357 28.1949 33.2698 29.1367 33.5713 30.4018L37.8057 26.2095ZM41.1338 26.8003C40.3584 26.1605 39.2241 26.2122 38.5098 26.9194L33.5469 31.8335C33.2119 33.0499 32.1012 33.9447 30.7783 33.9448H24.0605V32.9448H30.7783C31.8136 32.9447 32.6531 32.1051 32.6533 31.0698C32.6533 30.0344 31.8137 29.1949 30.7783 29.1948H23.8027L23.6523 28.9839C23.116 28.2273 22.492 27.6296 21.6768 27.2163C20.8592 26.8019 19.8159 26.5561 18.417 26.5561H11.833V35.6772H15.0469L15.1934 35.8218C16.7125 37.3259 19.9338 39.8059 24.6875 39.8061C27.0981 39.8061 28.9596 39.4201 30.6621 38.6616C32.3727 37.8994 33.9507 36.7486 35.7852 35.1762C36.5773 34.4973 39.1321 31.8958 41.2959 29.6655C42.0888 28.8481 42.0142 27.5268 41.1338 26.8003ZM6.5 38.7778H10.833V26.5532H6.5V38.7778Z" fill="black"/>
<path fill-rule="evenodd" clip-rule="evenodd" d="M18.4596 6.42449C19.3216 6.04237 20.2756 5.91381 21.2077 6.05535C22.1396 6.19696 23.0119 6.60272 23.7214 7.22332C24.4308 7.8441 24.9484 8.6553 25.2126 9.56023C25.4484 10.3684 25.4723 11.2219 25.2868 12.0397L32.2009 18.9538C32.3922 19.1484 32.4996 19.4113 32.4997 19.6843C32.4996 19.9571 32.3921 20.2191 32.2009 20.4137L29.9137 22.7009C29.7191 22.8921 29.4571 22.9996 29.1843 22.9997C28.9113 22.9996 28.6484 22.8922 28.4538 22.7009L21.5397 15.7868C20.7219 15.9723 19.8684 15.9484 19.0602 15.7126C18.1553 15.4484 17.3441 14.9308 16.7233 14.2214C16.1027 13.5119 15.697 12.6396 15.5553 11.7077C15.4138 10.7756 15.5424 9.82157 15.9245 8.95965L16.2184 8.29656L19.0954 11.152L20.652 9.59539L17.7966 6.71844L18.4596 6.42449ZM21.0573 7.04461C20.5652 6.96989 20.0655 6.99025 19.5846 7.10027L22.0641 9.5993L19.0993 12.5641L16.6003 10.0846C16.4902 10.5655 16.4699 11.0652 16.5446 11.5573C16.6576 12.3009 16.981 12.9971 17.4762 13.5632C17.9715 14.1292 18.6185 14.5419 19.3405 14.7526C20.0626 14.9633 20.8303 14.9635 21.5524 14.7526L21.8366 14.6696L29.155 21.988L29.1843 21.9997C29.1948 21.9996 29.205 21.9954 29.2126 21.988L31.488 19.7126C31.4954 19.705 31.4996 19.6948 31.4997 19.6843L31.488 19.655L24.1696 12.3366L24.2526 12.0524C24.4635 11.3303 24.4633 10.5626 24.2526 9.84051C24.0419 9.11855 23.6292 8.47152 23.0632 7.97625C22.4971 7.48103 21.8009 7.15759 21.0573 7.04461Z" fill="black"/>
</svg>
