<svg width="48" height="48" viewBox="0 0 48 48" fill="none" xmlns="http://www.w3.org/2000/svg">
<path fill-rule="evenodd" clip-rule="evenodd" d="M24.0752 5.5C28.7949 5.5 33.1003 7.29032 36.3594 10.2314V7.68262H37.3594V12.0928H32.9775V11.0928H35.8193C32.7209 8.2397 28.5998 6.5 24.0752 6.5C14.4557 6.5 6.65039 14.3648 6.65039 24.0752C6.65049 33.7855 14.4557 41.6504 24.0752 41.6504C33.6947 41.6504 41.4999 33.7855 41.5 24.0752C41.5 20.6271 40.5161 17.412 38.8164 14.6992L39.2402 14.4346L39.6641 14.1689C41.4606 17.0365 42.5 20.4345 42.5 24.0752C42.4999 34.3299 34.2548 42.6504 24.0752 42.6504C13.8956 42.6504 5.65049 34.3299 5.65039 24.0752C5.65039 13.8204 13.8955 5.5 24.0752 5.5ZM36.3525 11.0928H36.3594V11.085L36.3525 11.0928Z" fill="black"/>
<path d="M24.0752 10.6641C31.4262 10.6642 37.3778 16.6728 37.3779 24.0752C37.3777 31.4775 31.4261 37.4852 24.0752 37.4854C16.7241 37.4854 10.7717 31.4776 10.7715 24.0752C10.7715 21.6906 11.3899 19.4494 12.4736 17.5078L12.9102 17.751L13.3467 17.9951C12.3441 19.7913 11.7715 21.8652 11.7715 24.0752C11.7717 30.9332 17.2843 36.4854 24.0752 36.4854C30.866 36.4852 36.3777 30.9331 36.3779 24.0752C36.3778 17.2172 30.8661 11.6642 24.0752 11.6641C21.8342 11.6641 19.7338 12.2681 17.9248 13.3232L17.4209 12.459C19.3783 11.3172 21.6521 10.6641 24.0752 10.6641Z" fill="black"/>
<path d="M24.2715 16.0986C25.0567 16.1183 25.8135 16.2531 26.5254 16.4863L26.2148 17.4365C25.5943 17.2332 24.934 17.1149 24.2471 17.0977C20.4321 17.002 17.2555 20.0443 17.1602 23.9014C17.065 27.7584 20.0875 30.9567 23.9023 31.0527C27.7173 31.1485 30.8938 28.1061 30.9893 24.249C31.0089 23.4534 30.8966 22.6858 30.6719 21.9688L31.626 21.6699C31.8832 22.4903 32.0116 23.3669 31.9893 24.2734C31.8805 28.6749 28.2529 32.1625 23.8779 32.0527C19.5032 31.9428 16.0518 28.2782 16.1602 23.877C16.2688 19.4756 19.8966 15.9891 24.2715 16.0986Z" fill="black"/>
<path d="M24 23C24.5523 23 25 23.4477 25 24C25 24.5523 24.5523 25 24 25C23.4477 25 23 24.5523 23 24C23 23.4477 23.4477 23 24 23Z" fill="black"/>
<path d="M29.5 17.5C30.0523 17.5 30.5 17.9477 30.5 18.5C30.5 19.0523 30.0523 19.5 29.5 19.5C28.9477 19.5 28.5 19.0523 28.5 18.5C28.5 17.9477 28.9477 17.5 29.5 17.5Z" fill="black"/>
<path d="M15 14C15.5523 14 16 14.4477 16 15C16 15.5523 15.5523 16 15 16C14.4477 16 14 15.5523 14 15C14 14.4477 14.4477 14 15 14Z" fill="black"/>
</svg>
