<svg width="48" height="48" viewBox="0 0 48 48" fill="none" xmlns="http://www.w3.org/2000/svg">
<path fill-rule="evenodd" clip-rule="evenodd" d="M24.5 7.5H26C26.2761 7.5 26.5 7.72386 26.5 8V10.5H28C28.2761 10.5 28.5 10.7239 28.5 11V13.5H30C30.2761 13.5 30.5 13.7239 30.5 14V17.5H29.5V14.5H18.5V17.5H17.5V14C17.5 13.7239 17.7239 13.5 18 13.5H19.5V11C19.5 10.7239 19.7239 10.5 20 10.5H21.5V8C21.5 7.72386 21.7239 7.5 22 7.5H23.5V3H24.5V7.5ZM20.5 13.5H27.5V11.5H20.5V13.5ZM22.5 10.5H25.5V8.5H22.5V10.5Z" fill="black"/>
<path d="M10.8086 12.5381C10.9954 12.4607 11.2105 12.5035 11.3535 12.6465L21.3535 22.6465C21.4473 22.7403 21.5 22.8674 21.5 23V28H20.5V23.207L11.5 14.207V41.5H10.5V13C10.5 12.7978 10.6218 12.6155 10.8086 12.5381Z" fill="black"/>
<path d="M14.5 39H13.5V21H14.5V39Z" fill="black"/>
<path d="M30.5 28.25H26.5V27.25H30.5V28.25Z" fill="black"/>
<path d="M35 18.5C35.2761 18.5 35.5 18.7239 35.5 19V23.5H34.5V19.5H24.5V28H23.5V19C23.5 18.7239 23.7239 18.5 24 18.5H35Z" fill="black"/>
<path d="M30.5 26.25H26.5V25.25H30.5V26.25Z" fill="black"/>
<path d="M30.5 24.25H26.5V23.25H30.5V24.25Z" fill="black"/>
<path d="M30.5 22.25H26.5V21.25H30.5V22.25Z" fill="black"/>
<path d="M36.5 37.5H35.5V35H36.5V37.5Z" fill="black"/>
<path d="M38.5 37.5H37.5V35H38.5V37.5Z" fill="black"/>
<path d="M36.5 33.5H35.5V31H36.5V33.5Z" fill="black"/>
<path d="M38.5 33.5H37.5V31H38.5V33.5Z" fill="black"/>
<path d="M36.5 29.5H35.5V27H36.5V29.5Z" fill="black"/>
<path d="M38.5 29.5H37.5V27H38.5V29.5Z" fill="black"/>
<path fill-rule="evenodd" clip-rule="evenodd" d="M40.5 24.5C40.7761 24.5 41 24.7239 41 25V41.5H42V42.5H6V41.5H7V29C7 28.7239 7.22386 28.5 7.5 28.5H9.5V29.5H8V41.5H16.5V29.5C16.5 29.2239 16.7239 29 17 29H25C25.2761 29 25.5 29.2239 25.5 29.5V41.5H28.5V32.5C28.5 32.2239 28.7239 32 29 32H33V25C33 24.7239 33.2239 24.5 33.5 24.5H40.5ZM17.5 41.5H24.5V30H17.5V41.5ZM34 32.5C34 32.7761 33.7761 33 33.5 33H29.5V41.5H40V25.5H34V32.5Z" fill="black"/>
</svg>
