<svg width="48" height="48" viewBox="0 0 48 48" fill="none" xmlns="http://www.w3.org/2000/svg">
<path d="M28.94 20.4401H16V36.4401H32V26.4101L33 25.0501V36.5401C32.95 37.0101 32.57 37.3801 32.1 37.4301H32H16C15.48 37.4301 15.06 37.0401 15 36.5301V36.4301V20.4301C15 19.8801 15.45 19.4301 16 19.4301H29.67L28.94 20.4301V20.4401Z" fill="black"/>
<path d="M34.9 18.23L24.98 31.73C24.89 31.85 24.76 31.92 24.61 31.93C24.46 31.93 24.32 31.88 24.22 31.77L19.14 26.37L19.5 26.03L19.86 25.69L24.53 30.65L34.09 17.63L34.9 18.22V18.23Z" fill="black"/>
<path d="M24 7.31006C24.56 7.31006 25 6.87006 25 6.31006C25 5.75006 24.56 5.31006 24 5.31006C23.44 5.31006 23 5.75006 23 6.31006C23 6.87006 23.44 7.31006 24 7.31006Z" fill="black"/>
<path d="M37.65 7.14H30.06C29.68 4.8 27.67 3 25.23 3H22.77C20.33 3 18.32 4.8 17.94 7.14H10.5C9.67 7.14 9 7.81 9 8.64V43.44C9 44.27 9.67 44.94 10.5 44.94H37.65C38.41 44.86 39 44.22 39 43.44V8.64C39 7.86 38.41 7.22 37.65 7.15V7.14ZM18.86 8.51V7.92C18.86 5.76 20.62 4.01 22.77 4.01H25.23C27.39 4.01 29.14 5.77 29.14 7.92V8.51L29.47 8.63C31.03 9.18 31.96 10.43 31.96 11.97V13.67C31.96 13.87 31.8 14.02 31.61 14.02H16.39C16.19 14.02 16.04 13.86 16.04 13.67V11.97C16.04 10.43 16.97 9.18 18.53 8.63L18.86 8.51ZM38 43.44C38 43.72 37.78 43.94 37.5 43.94H10.5C10.22 43.94 10 43.72 10 43.44V8.64C10 8.36 10.22 8.14 10.5 8.14H17.23C15.86 8.97 15.04 10.36 15.04 11.97V13.67C15.04 14.42 15.65 15.02 16.39 15.02H31.61C32.36 15.02 32.96 14.41 32.96 13.67V11.97C32.96 10.36 32.14 8.97 30.77 8.14H37.5C37.78 8.14 38 8.36 38 8.64V43.44Z" fill="black"/>
</svg>
