<svg width="48" height="48" viewBox="0 0 48 48" fill="none" xmlns="http://www.w3.org/2000/svg">
<path fill-rule="evenodd" clip-rule="evenodd" d="M37.8057 26.2093C38.8848 25.1407 40.5981 25.0631 41.7695 26.0296C43.0983 27.126 43.215 29.1232 42.0137 30.3616C39.8714 32.5697 37.2736 35.2183 36.4365 35.9358C34.5768 37.5298 32.9118 38.7545 31.0693 39.5755C29.2187 40.4 27.2146 40.806 24.6875 40.806C19.7185 40.8057 16.3141 38.2885 14.6396 36.6771H11.833V39.7776H5.5V25.553H11.833V25.556H18.417C19.9334 25.556 21.1399 25.8224 22.1289 26.3235C23.0375 26.7841 23.7343 27.4299 24.3125 28.1946H30.7783C32.1357 28.1947 33.2698 29.1365 33.5713 30.4017L37.8057 26.2093ZM41.1338 26.8001C40.3584 26.1604 39.2241 26.2121 38.5098 26.9192L33.5469 31.8333C33.212 33.0498 32.1012 33.9446 30.7783 33.9446H24.0605V32.9446H30.7783C31.8137 32.9445 32.6532 32.105 32.6533 31.0696C32.6533 30.0342 31.8137 29.1947 30.7783 29.1946H23.8027L23.6523 28.9837C23.116 28.2271 22.492 27.6294 21.6768 27.2161C20.8592 26.8018 19.8158 26.556 18.417 26.556H11.833V35.6771H15.0469L15.1934 35.8216C16.7124 37.3257 19.9338 39.8057 24.6875 39.806C27.0981 39.806 28.9596 39.42 30.6621 38.6614C32.3727 37.8992 33.9507 36.7484 35.7852 35.1761C36.5773 34.4971 39.1321 31.8956 41.2959 29.6653C42.0888 28.848 42.0142 27.5266 41.1338 26.8001ZM6.5 38.7776H10.833V26.553H6.5V38.7776Z" fill="black"/>
<path fill-rule="evenodd" clip-rule="evenodd" d="M25.5166 5.83398C28.1739 5.83398 30.3173 7.95794 30.3174 10.583C30.3174 10.6244 30.3134 10.6662 30.3115 10.707C32.6759 11.0003 34.4998 12.9791 34.5 15.418C34.4998 18.0429 32.3564 20.167 29.6992 20.167H18.3008C15.6437 20.1669 13.5002 18.0428 13.5 15.418C13.5001 13.3605 14.8068 11.5389 16.7695 10.917V10.6123C16.7696 8.86152 18.2111 7.47474 19.9502 7.47461C20.5264 7.47466 21.0821 7.63116 21.5723 7.92578C22.4558 6.64083 23.9307 5.83418 25.5166 5.83398ZM25.5166 6.83398C24.1158 6.83421 22.8118 7.63617 22.1602 8.88086C22.089 9.01651 21.9592 9.11259 21.8086 9.14062C21.658 9.16852 21.5028 9.12545 21.3877 9.02441C20.9763 8.66331 20.4742 8.47467 19.9502 8.47461C18.7441 8.47474 17.7696 9.43294 17.7695 10.6123V11.2998C17.7693 11.5332 17.6076 11.7355 17.3799 11.7871C15.6699 12.1739 14.5001 13.6824 14.5 15.418C14.5002 17.4812 16.1866 19.1669 18.3008 19.167H29.6992C31.8135 19.167 33.4998 17.4813 33.5 15.418C33.4998 13.3535 31.8406 11.6949 29.752 11.6689C29.6043 11.667 29.4646 11.5996 29.3711 11.4854C29.2778 11.3711 29.2402 11.2211 29.2676 11.0762C29.2678 11.0748 29.268 11.0707 29.2686 11.0674C29.2698 11.0604 29.2721 11.0492 29.2744 11.0352C29.2792 11.0064 29.2855 10.9642 29.292 10.915C29.3054 10.8131 29.3174 10.6901 29.3174 10.583C29.3173 8.51952 27.631 6.83398 25.5166 6.83398Z" fill="black"/>
</svg>
