<svg width="48" height="48" viewBox="0 0 48 48" fill="none" xmlns="http://www.w3.org/2000/svg">
<path d="M27.1855 10C32.1958 10 36.2166 13.9999 36.2168 18.9229L36.2109 19.1426C36.1972 19.4397 36.158 19.7315 36.1289 19.9248L34.915 21.1387H34.8877L35.1104 19.9668V19.9648C35.1109 19.9618 35.112 19.9565 35.1133 19.9492C35.116 19.9342 35.1209 19.9103 35.126 19.8799C35.1361 19.8188 35.1493 19.7305 35.1631 19.626C35.1914 19.4107 35.2168 19.151 35.2168 18.9229C35.2166 14.5615 31.6528 11 27.1855 11C24.2244 11 21.4689 12.6948 20.0918 15.3252L19.502 16.4521L18.5469 15.6133C17.674 14.847 16.608 14.4464 15.4951 14.4463C12.9354 14.4463 10.8664 16.479 10.8662 18.9844V21.2275L10.0869 21.4033C6.47194 22.2207 4 25.4093 4 29.0771C4.00008 33.4386 7.56393 37 12.0312 37H23.1377L22.9736 37.6055L22.8672 38H12.0312L11.5645 37.9883C6.92807 37.7568 3.24472 34.0945 3.01172 29.5361L3 29.0771C3 24.9541 5.78374 21.3518 9.86621 20.4287V18.9844C9.86638 15.9076 12.4024 13.4463 15.4951 13.4463L15.749 13.4521C17.0168 13.5096 18.2202 13.996 19.2061 14.8613C20.7525 11.9076 23.8454 10 27.1855 10Z" fill="black"/>
<path fill-rule="evenodd" clip-rule="evenodd" d="M25.9964 32.1792L39.4315 18.7442C40.2125 17.9634 41.4789 17.9632 42.2599 18.7442L43.6741 20.1584C44.4551 20.9393 44.4549 22.2057 43.6741 22.9868L30.2391 36.4218L24.4213 37.9969L25.9964 32.1792ZM41.9063 23.3404L42.967 22.2797C43.3573 21.8892 43.3574 21.2559 42.967 20.8655L41.5528 19.4513C41.1623 19.0608 40.5291 19.061 40.1386 19.4513L39.0779 20.5119L41.9063 23.3404ZM41.1992 24.0475L38.3708 21.219L27.0571 32.5327L29.8855 35.3612L41.1992 24.0475ZM28.8677 35.7575L26.6607 33.5506L25.8418 36.5765L28.8677 35.7575Z" fill="black"/>
</svg>
