<svg width="48" height="48" viewBox="0 0 48 48" fill="none" xmlns="http://www.w3.org/2000/svg">
<path fill-rule="evenodd" clip-rule="evenodd" d="M23 23.2002H25V20.9502H26V23.2002H26.8936C27.3827 23.2002 27.75 23.6058 27.75 24.0518V24.9502H30V25.9502H27.75V27.9502H30V28.9502H27.75V29.8486L27.7451 29.9385C27.6986 30.3793 27.3138 30.7002 26.8936 30.7002H26V32.9502H25V30.7002H23V32.9502H22V30.7002H21.1064L21.0156 30.6953C20.5725 30.6491 20.2501 30.2666 20.25 29.8486V28.9502H18V27.9502H20.25V25.9502H18V24.9502H20.25V24.0518C20.25 23.5957 20.6082 23.246 21.0225 23.2041L21.1064 23.2002H22V20.9502H23V23.2002ZM21.25 29.7002H26.75V24.2002H21.25V29.7002Z" fill="black"/>
<path fill-rule="evenodd" clip-rule="evenodd" d="M27.1855 10C32.1958 10 36.2166 13.9999 36.2168 18.9229L36.2109 19.1426C36.1873 19.656 36.0928 20.1543 36.0928 20.1543C41.0412 20.2158 45 24.1541 45 29.0771L44.9883 29.5361C44.7475 34.2464 40.8224 38 35.9688 38H12.0312L11.5645 37.9883C6.92807 37.7568 3.24472 34.0945 3.01172 29.5361L3 29.0771C3 24.9541 5.78374 21.3518 9.86621 20.4287V18.9844C9.86638 15.9076 12.4024 13.4463 15.4951 13.4463L15.749 13.4521C17.0168 13.5096 18.2202 13.996 19.2061 14.8613C20.7525 11.9076 23.8454 10 27.1855 10ZM27.1855 11C24.2244 11 21.4689 12.6948 20.0918 15.3252L19.502 16.4521L18.5469 15.6133C17.674 14.847 16.608 14.4464 15.4951 14.4463C12.9354 14.4463 10.8664 16.479 10.8662 18.9844V21.2275L10.0869 21.4033C6.47194 22.2207 4 25.4093 4 29.0771C4.00008 33.4386 7.56393 37 12.0312 37H35.9688C40.4361 37 43.9999 33.4386 44 29.0771C44 24.7134 40.4932 21.2092 36.0801 21.1543L34.8877 21.1387L35.1104 19.9668V19.9648C35.1109 19.9618 35.112 19.9565 35.1133 19.9492C35.116 19.9342 35.1209 19.9103 35.126 19.8799C35.1361 19.8188 35.1493 19.7305 35.1631 19.626C35.1914 19.4107 35.2168 19.151 35.2168 18.9229C35.2166 14.5615 31.6528 11 27.1855 11Z" fill="black"/>
</svg>
