<svg width="48" height="48" viewBox="0 0 48 48" fill="none" xmlns="http://www.w3.org/2000/svg">
<path fill-rule="evenodd" clip-rule="evenodd" d="M26.7305 3.5C31.568 3.5 35.4717 7.36707 35.4717 12.1484C35.4717 12.1941 35.4691 12.2397 35.4678 12.2852C39.7261 12.8599 43 16.4421 43 20.8516C43 25.6329 39.0963 29.5 34.2588 29.5H30.5V35.5H34.5V36.5H30C29.7239 36.5 29.5 36.2761 29.5 36V29.5H24.5V37.5H23.5V29.5H18.5V36C18.5 36.2761 18.2761 36.5 18 36.5H13.5V35.5H17.5V29.5H13.7412C8.90372 29.5 5 25.6329 5 20.8516C5.00004 17.1297 7.34858 13.8325 10.8848 12.6787V12.2012C10.8848 8.99238 13.5261 6.4541 16.71 6.4541C17.7332 6.45412 18.7206 6.72367 19.5977 7.23145C21.2121 4.93568 23.8728 3.50001 26.7305 3.5ZM26.7305 4.5C23.8674 4.50001 21.2161 6.13513 19.8906 8.66699C19.0456 7.92533 18.0144 7.5082 16.9277 7.45898L16.71 7.4541C14.059 7.4541 11.8848 9.56381 11.8848 12.2012V13.4385C8.38571 14.2298 6.00004 17.3176 6 20.8516C6 24.9395 9.23425 28.2852 13.3408 28.4902L13.7412 28.5H34.2588C38.5533 28.5 42 25.0713 42 20.8516C42 16.6318 38.6067 13.2559 34.3652 13.2031C34.367 13.1936 34.4467 12.7718 34.4668 12.3369L34.4717 12.1484C34.4717 7.92866 31.025 4.5 26.7305 4.5Z" fill="black"/>
<path fill-rule="evenodd" clip-rule="evenodd" d="M24 39.5C25.3807 39.5 26.5 40.6193 26.5 42C26.5 43.3807 25.3807 44.5 24 44.5C22.6193 44.5 21.5 43.3807 21.5 42C21.5 40.6193 22.6193 39.5 24 39.5ZM24 40.5C23.1716 40.5 22.5 41.1716 22.5 42C22.5 42.8284 23.1716 43.5 24 43.5C24.8284 43.5 25.5 42.8284 25.5 42C25.5 41.1716 24.8284 40.5 24 40.5Z" fill="black"/>
<path fill-rule="evenodd" clip-rule="evenodd" d="M9 33.5C10.3807 33.5 11.5 34.6193 11.5 36C11.5 37.3807 10.3807 38.5 9 38.5C7.61929 38.5 6.5 37.3807 6.5 36C6.5 34.6193 7.61929 33.5 9 33.5ZM9 34.5C8.17157 34.5 7.5 35.1716 7.5 36C7.5 36.8284 8.17157 37.5 9 37.5C9.82843 37.5 10.5 36.8284 10.5 36C10.5 35.1716 9.82843 34.5 9 34.5Z" fill="black"/>
<path fill-rule="evenodd" clip-rule="evenodd" d="M39 33.5C40.3807 33.5 41.5 34.6193 41.5 36C41.5 37.3807 40.3807 38.5 39 38.5C37.6193 38.5 36.5 37.3807 36.5 36C36.5 34.6193 37.6193 33.5 39 33.5ZM39 34.5C38.1716 34.5 37.5 35.1716 37.5 36C37.5 36.8284 38.1716 37.5 39 37.5C39.8284 37.5 40.5 36.8284 40.5 36C40.5 35.1716 39.8284 34.5 39 34.5Z" fill="black"/>
</svg>
