<svg width="48" height="48" viewBox="0 0 48 48" fill="none" xmlns="http://www.w3.org/2000/svg">
<path d="M27.1855 9C32.1958 9 36.2166 12.9999 36.2168 17.9229L36.2109 18.1426C36.1873 18.656 36.0928 19.1543 36.0928 19.1543C41.0412 19.2158 45 23.1541 45 28.0771L44.9883 28.5361C44.7475 33.2464 40.8224 37 35.9688 37H32.498C32.7379 36.7188 32.8923 36.3718 32.9385 36H35.9688C40.4361 36 43.9999 32.4386 44 28.0771C44 23.7134 40.4932 20.2092 36.0801 20.1543L34.8877 20.1387L35.1104 18.9668V18.9648C35.1109 18.9618 35.112 18.9565 35.1133 18.9492C35.116 18.9342 35.1209 18.9103 35.126 18.8799C35.1361 18.8188 35.1493 18.7305 35.1631 18.626C35.1914 18.4107 35.2168 18.151 35.2168 17.9229C35.2166 13.5615 31.6528 10 27.1855 10C24.2244 10 21.4689 11.6948 20.0918 14.3252L19.502 15.4521L18.5469 14.6133C17.674 13.847 16.608 13.4464 15.4951 13.4463C12.9354 13.4463 10.8664 15.479 10.8662 17.9844V20.2275L10.0869 20.4033C6.47194 21.2207 4 24.4093 4 28.0771C4.00008 32.4386 7.56393 36 12.0312 36H15.5156C15.5618 36.3718 15.7162 36.7188 15.9561 37H12.0312L11.5645 36.9883C6.92807 36.7568 3.24472 33.0945 3.01172 28.5361L3 28.0771C3 23.9541 5.78374 20.3518 9.86621 19.4287V17.9844C9.86638 14.9076 12.4024 12.4463 15.4951 12.4463L15.749 12.4521C17.0168 12.5096 18.2202 12.996 19.2061 13.8613C20.7525 10.9076 23.8454 9.00001 27.1855 9Z" fill="black"/>
<path fill-rule="evenodd" clip-rule="evenodd" d="M24.0332 24.1103C24.154 24.0436 24.3011 24.0435 24.4219 24.1103L31.2471 27.8886C31.3747 27.9592 31.4539 28.0934 31.4541 28.2392V35.7665C31.454 35.9124 31.3747 36.0464 31.2471 36.1171L24.4219 39.8954C24.301 39.9623 24.1541 39.9622 24.0332 39.8954L17.207 36.1171C17.0795 36.0464 17.0001 35.9123 17 35.7665V28.2392C17.0002 28.0935 17.0796 27.9592 17.207 27.8886L24.0332 24.1103ZM18 35.412L23.7266 38.582V35.9882L20.7412 34.2821C20.6164 34.2106 20.5391 34.0774 20.5391 33.9335V30.5741L18 29.1591V35.412ZM27.915 30.5741V33.9335C27.915 34.0775 27.8378 34.2106 27.7129 34.2821L24.7266 35.9882V38.582L30.4541 35.412V29.1581L27.915 30.5741ZM21.5391 33.5859L22.8789 34.3525L23.7266 34.8359V32.3525L21.5391 31.1318V33.5859ZM24.7275 32.3525V34.8349L25.5752 34.3525L26.915 33.5859V31.1318L24.7275 32.3525ZM22.8789 29.7665L22.0195 30.2558L24.2266 31.4853L26.4316 30.2558L24.2266 28.996L22.8789 29.7665ZM18.5195 28.3046L21.001 29.6874L24.0273 27.9589C24.1507 27.8884 24.3024 27.8886 24.4258 27.9589L27.4512 29.6874L29.9326 28.3036L24.2266 25.1454L18.5195 28.3046Z" fill="black"/>
</svg>
