<svg width="48" height="48" viewBox="0 0 48 48" fill="none" xmlns="http://www.w3.org/2000/svg">
<path fill-rule="evenodd" clip-rule="evenodd" d="M26.0967 27.3672C26.9111 27.3674 27.5713 28.0283 27.5713 28.8428C27.5709 29.6569 26.9108 30.3171 26.0967 30.3174C25.2823 30.3174 24.6225 29.657 24.6221 28.8428C24.6221 28.0281 25.282 27.3672 26.0967 27.3672ZM21.1543 26.9639C21.6541 27.9269 22.5449 28.6072 23.6104 28.8359C23.7306 28.86 23.8516 28.8785 23.9658 28.8965C23.9779 29.3418 24.1277 29.7758 24.3984 30.1309C24.0497 30.1308 23.6943 30.0946 23.3516 30.0225C21.7804 29.6854 20.4978 28.6069 19.8896 27.1201C20.3169 27.1982 20.7631 27.1444 21.1543 26.9639ZM28.3965 22.6289C29.1127 23.7065 29.3656 25.0375 29.0947 26.3076C28.9382 27.036 28.6128 27.7229 28.1553 28.3008C28.0409 27.8675 27.7941 27.482 27.4512 27.2051C27.6679 26.856 27.8189 26.4698 27.9092 26.0605C28.0836 25.224 27.9625 24.3568 27.5654 23.6045C27.9386 23.3697 28.2279 23.0321 28.3965 22.6289ZM20.2744 23.5566C21.0888 23.5569 21.7499 24.2168 21.75 25.0312C21.7498 25.8455 21.0887 26.5066 20.2744 26.5068C19.4601 26.5066 18.8 25.8456 18.7998 25.0312C18.7999 24.2168 19.46 23.5569 20.2744 23.5566ZM26.4336 20.3174C27.2479 20.3176 27.909 20.9777 27.9092 21.792C27.909 22.6063 27.2479 23.2673 26.4336 23.2676C25.6192 23.2674 24.9592 22.6063 24.959 21.792C24.9592 20.9776 25.6192 20.3175 26.4336 20.3174ZM24.7422 20.4736C24.5435 20.7265 24.4051 21.0218 24.3389 21.3408C24.3208 21.4491 24.3029 21.5576 24.2969 21.6719C23.1349 21.696 22.0628 22.2683 21.3945 23.2256C21.19 23.0993 20.9613 23.0083 20.7207 22.9541C20.5765 22.9241 20.4256 22.9063 20.2754 22.9062C20.2334 22.9062 20.1961 22.9121 20.1602 22.9121C21.0813 21.2866 22.8879 20.3291 24.7422 20.4736Z" fill="black"/>
<path d="M27.1855 9C32.1958 9 36.2166 12.9999 36.2168 17.9229L36.2109 18.1426C36.1873 18.656 36.0928 19.1543 36.0928 19.1543C41.0412 19.2158 45 23.1541 45 28.0771L44.9883 28.5361C44.7475 33.2464 40.8224 37 35.9688 37H12.0312L11.5645 36.9883C6.92807 36.7568 3.24472 33.0945 3.01172 28.5361L3 28.0771C3 23.9541 5.78374 20.3518 9.86621 19.4287V17.9844C9.86638 14.9076 12.4024 12.4463 15.4951 12.4463L15.749 12.4521C17.0168 12.5096 18.2202 12.996 19.2061 13.8613C20.7525 10.9076 23.8454 9.00001 27.1855 9ZM27.1855 10C24.2244 10 21.4689 11.6948 20.0918 14.3252L19.502 15.4521L18.5469 14.6133C17.674 13.847 16.608 13.4464 15.4951 13.4463C12.9354 13.4463 10.8664 15.479 10.8662 17.9844V20.2275L10.0869 20.4033C6.47194 21.2207 4 24.4093 4 28.0771C4.00008 32.4386 7.56393 36 12.0312 36H35.9688C40.4361 36 43.9999 32.4386 44 28.0771C44 23.7134 40.4932 20.2092 36.0801 20.1543L34.8877 20.1387L35.1104 18.9668V18.9648C35.1109 18.9618 35.112 18.9565 35.1133 18.9492C35.116 18.9342 35.1209 18.9103 35.126 18.8799C35.1361 18.8188 35.1493 18.7305 35.1631 18.626C35.1914 18.4107 35.2168 18.151 35.2168 17.9229C35.2166 13.5615 31.6528 10 27.1855 10Z" fill="black"/>
</svg>
