<svg width="48" height="48" viewBox="0 0 48 48" fill="none" xmlns="http://www.w3.org/2000/svg">
<path d="M27.1855 9C32.1958 9 36.2166 12.9999 36.2168 17.9229L36.2109 18.1426C36.1873 18.656 36.0928 19.1543 36.0928 19.1543C41.0412 19.2158 45 23.1541 45 28.0771L44.9883 28.5361C44.7475 33.2464 40.8224 37 35.9688 37H29.3232L28.96 36H35.9688C40.4361 36 43.9999 32.4386 44 28.0771C44 23.7134 40.4932 20.2092 36.0801 20.1543L34.8877 20.1387L35.1104 18.9668V18.9648C35.1109 18.9618 35.112 18.9565 35.1133 18.9492C35.116 18.9342 35.1209 18.9103 35.126 18.8799C35.1361 18.8188 35.1493 18.7305 35.1631 18.626C35.1914 18.4107 35.2168 18.151 35.2168 17.9229C35.2166 13.5615 31.6528 10 27.1855 10C24.2244 10 21.4689 11.6948 20.0918 14.3252L19.502 15.4521L18.5469 14.6133C17.674 13.847 16.608 13.4464 15.4951 13.4463C12.9354 13.4463 10.8664 15.479 10.8662 17.9844V20.2275L10.0869 20.4033C6.47194 21.2207 4 24.4093 4 28.0771C4.00008 32.4386 7.56393 36 12.0312 36H19.0391L18.6758 37H12.0312L11.5645 36.9883C6.92807 36.7568 3.24472 33.0945 3.01172 28.5361L3 28.0771C3 23.9541 5.78374 20.3518 9.86621 19.4287V17.9844C9.86638 14.9076 12.4024 12.4463 15.4951 12.4463L15.749 12.4521C17.0168 12.5096 18.2202 12.996 19.2061 13.8613C20.7525 10.9076 23.8454 9.00001 27.1855 9Z" fill="black"/>
<path fill-rule="evenodd" clip-rule="evenodd" d="M24.1875 28.3096C24.6226 28.3527 25.0319 28.5446 25.3438 28.8564C25.7001 29.2128 25.9004 29.6963 25.9004 30.2002C25.9004 30.7041 25.7001 31.1876 25.3438 31.5439C25.312 31.5757 25.2778 31.6046 25.2441 31.6338L27.9229 39H26.8594L26.1318 37H21.8682L21.1406 39H20.0771L22.7549 31.6338C22.7214 31.6047 22.6878 31.5755 22.6562 31.5439C22.2999 31.1876 22.0996 30.7041 22.0996 30.2002C22.0996 29.6963 22.2999 29.2128 22.6562 28.8564C23.0126 28.5001 23.4961 28.2998 24 28.2998L24.1875 28.3096ZM24.3379 32.0684C24.2271 32.0884 24.1142 32.1006 24 32.1006C23.8855 32.1006 23.7723 32.0885 23.6611 32.0684L22.2314 36H25.7686L24.3379 32.0684ZM24 29.2998C23.7613 29.2998 23.5321 29.3947 23.3633 29.5635C23.1945 29.7323 23.0996 29.9615 23.0996 30.2002C23.0996 30.4389 23.1945 30.6681 23.3633 30.8369C23.5321 31.0057 23.7613 31.1006 24 31.1006C24.2387 31.1006 24.4679 31.0057 24.6367 30.8369C24.8055 30.6681 24.9004 30.4389 24.9004 30.2002C24.9004 29.9615 24.8055 29.7323 24.6367 29.5635C24.489 29.4158 24.2949 29.3251 24.0889 29.3047L24 29.2998Z" fill="black"/>
<path d="M18.5801 26.999C17.8951 27.9197 17.5 29.02 17.5 30.2002C17.5 31.3804 17.8951 32.4807 18.5801 33.4014L17.7773 33.999C16.9728 32.9177 16.5 31.61 16.5 30.2002C16.5 28.7904 16.9728 27.4827 17.7773 26.4014L18.5801 26.999Z" fill="black"/>
<path d="M30.2227 26.4014C31.0272 27.4827 31.5 28.7904 31.5 30.2002C31.5 31.61 31.0272 32.9177 30.2227 33.999L29.4199 33.4014C30.1049 32.4807 30.5 31.3804 30.5 30.2002C30.5 29.02 30.1049 27.9197 29.4199 26.999L30.2227 26.4014Z" fill="black"/>
<path d="M20.5283 28.1006L20.9268 28.4023C20.5248 28.933 20.2998 29.5481 20.2998 30.2002C20.2998 30.8522 20.5243 31.4675 20.9268 31.998L20.5283 32.2998L20.1299 32.6025C19.6085 31.9151 19.2998 31.0909 19.2998 30.2002C19.2998 29.3095 19.6093 28.4851 20.1299 27.7979L20.5283 28.1006Z" fill="black"/>
<path d="M27.8701 27.7979C28.3915 28.4852 28.7002 29.3095 28.7002 30.2002C28.7002 31.0909 28.3915 31.9151 27.8701 32.6025L27.4717 32.2998L27.0732 31.998C27.4757 31.4675 27.7002 30.8522 27.7002 30.2002C27.7002 29.5482 27.4757 28.9329 27.0732 28.4023L27.4717 28.1006L27.8701 27.7979Z" fill="black"/>
</svg>
