<svg width="48" height="48" viewBox="0 0 48 48" fill="none" xmlns="http://www.w3.org/2000/svg">
<path d="M32 39.5H16V38.5H32V39.5Z" fill="black"/>
<path d="M13.7422 37.2061L13.2617 37.3438L12.7803 37.4805L8.60449 22.8633L9.56543 22.5879L13.7422 37.2061Z" fill="black"/>
<path d="M39.291 23.2324L35.2246 37.4629L34.7441 37.3262L34.2637 37.1885L38.3291 22.957L39.291 23.2324Z" fill="black"/>
<path d="M22.9707 9.58008L10.2422 20.1875L9.92188 19.8037L9.60156 19.4189L22.3301 8.8125L22.9707 9.58008Z" fill="black"/>
<path d="M38.3994 19.4189L38.0791 19.8037L37.7588 20.1875L25.0303 9.58008L25.6709 8.8125L38.3994 19.4189Z" fill="black"/>
<path fill-rule="evenodd" clip-rule="evenodd" d="M13.9697 36.4414C15.2303 36.5694 16.2138 37.6344 16.2139 38.9287L16.2012 39.1836C16.0733 40.4444 15.0084 41.4287 13.7139 41.4287L13.459 41.415C12.2821 41.2956 11.3459 40.3605 11.2266 39.1836L11.2139 38.9287C11.2139 37.5482 12.3334 36.4289 13.7139 36.4287L13.9697 36.4414ZM13.7139 37.4287C12.8857 37.4289 12.2139 38.1005 12.2139 38.9287C12.214 39.7569 12.8857 40.4285 13.7139 40.4287C14.5422 40.4287 15.2137 39.757 15.2139 38.9287C15.2138 38.1003 14.5423 37.4287 13.7139 37.4287Z" fill="black"/>
<path fill-rule="evenodd" clip-rule="evenodd" d="M34.541 36.4414C35.8016 36.5694 36.7851 37.6344 36.7852 38.9287L36.7725 39.1836C36.6446 40.4444 35.5797 41.4287 34.2852 41.4287L34.0303 41.415C32.8534 41.2956 31.9171 40.3605 31.7979 39.1836L31.7852 38.9287C31.7852 37.5482 32.9047 36.4289 34.2852 36.4287L34.541 36.4414ZM34.2852 37.4287C33.457 37.4289 32.7852 38.1005 32.7852 38.9287C32.7853 39.7569 33.457 40.4285 34.2852 40.4287C35.1135 40.4287 35.785 39.757 35.7852 38.9287C35.7851 38.1003 35.1135 37.4287 34.2852 37.4287Z" fill="black"/>
<path fill-rule="evenodd" clip-rule="evenodd" d="M8.82715 18.4414C10.0876 18.5695 11.0712 19.6344 11.0713 20.9287L11.0586 21.1836C10.9308 22.4445 9.86586 23.4287 8.57129 23.4287L8.31543 23.415C7.1389 23.2953 6.20326 22.3603 6.08398 21.1836L6.07129 20.9287C6.07136 19.5481 7.19069 18.4288 8.57129 18.4287L8.82715 18.4414ZM8.57129 19.4287C7.74297 19.4288 7.07135 20.1004 7.07129 20.9287C7.07145 21.757 7.74303 22.4286 8.57129 22.4287C9.39962 22.4287 10.0711 21.757 10.0713 20.9287C10.0712 20.1003 9.39968 19.4287 8.57129 19.4287Z" fill="black"/>
<path fill-rule="evenodd" clip-rule="evenodd" d="M39.6836 18.4414C40.9444 18.5692 41.9286 19.6342 41.9287 20.9287L41.916 21.1836C41.7882 22.4444 40.7232 23.4286 39.4287 23.4287L39.1729 23.415C37.9962 23.2954 37.0607 22.3603 36.9414 21.1836L36.9287 20.9287C36.9288 19.5481 38.0481 18.4288 39.4287 18.4287L39.6836 18.4414ZM39.4287 19.4287C38.6004 19.4288 37.9288 20.1004 37.9287 20.9287C37.9289 21.757 38.6004 22.4286 39.4287 22.4287C40.2569 22.4286 40.9286 21.7569 40.9287 20.9287C40.9286 20.1004 40.257 19.4288 39.4287 19.4287Z" fill="black"/>
<path fill-rule="evenodd" clip-rule="evenodd" d="M24 5.57129C25.3807 5.57129 26.4999 6.69063 26.5 8.07129C26.5 9.452 25.3807 10.5713 24 10.5713C22.6194 10.5712 21.5 9.45195 21.5 8.07129C21.5001 6.69068 22.6194 5.57137 24 5.57129ZM24 6.57129C23.1717 6.57137 22.5001 7.24297 22.5 8.07129C22.5 8.89967 23.1716 9.57121 24 9.57129C24.8284 9.57129 25.5 8.89972 25.5 8.07129C25.4999 7.24292 24.8284 6.57129 24 6.57129Z" fill="black"/>
<path d="M24.5 32.5791L25.9287 31.1504L26.6357 31.8574L24 34.4932L21.3643 31.8574L22.0713 31.1504L23.5 32.5791V28.1436H24.5V32.5791Z" fill="black"/>
<path d="M18.5654 22.502L20.8496 24.7559L20.499 25.1123L18.5703 27.0664L18.2188 27.4219L17.5068 26.7197L18.9473 25.2607H14.5V24.2607H18.9238L17.5068 22.8623L18.21 22.1504L18.5654 22.502Z" fill="black"/>
<path d="M30.0967 22.7734L28.8867 24.3115H33.5V25.3115H28.9043L30.0977 26.79L29.3193 27.418L29.0049 27.0293L27.2178 24.8154L27.4639 24.502L29.3105 22.1553L30.0967 22.7734Z" fill="black"/>
<path d="M26.6357 17.7148L25.9287 18.4219L24.5 16.9932V21.4287H23.5V16.9932L22.0713 18.4219L21.3643 17.7148L24 15.0791L26.6357 17.7148Z" fill="black"/>
</svg>
