<svg width="48" height="48" viewBox="0 0 48 48" fill="none" xmlns="http://www.w3.org/2000/svg">
<path d="M25.9536 23.7041H21.8481V22.7041H25.9536V23.7041ZM26.7896 21.8018H21.021V20.8018H26.7896V21.8018ZM24.2183 6.00879H24.4106V6.02344C27.4286 6.2823 29.812 8.81796 29.812 11.9102C29.8118 13.5169 29.1977 14.9678 28.0112 16.1543C26.9624 17.2031 26.3967 18.0503 26.1841 19.3184C26.1435 19.5588 25.9348 19.7352 25.6909 19.7354H22.1206C21.8773 19.7351 21.6696 19.5592 21.6284 19.3193C21.416 18.0753 20.9005 17.3849 20.0737 16.4844V16.4834C19.966 16.3694 19.4842 15.8246 19.0151 15.0498C18.5216 14.2345 18.0007 13.0998 18.0005 11.9102C18.0005 8.82528 20.3766 6.29012 23.4019 6.03223V6H23.9019C24.0079 6.00001 24.1136 6.00324 24.2183 6.00879ZM23.9106 7.00879C21.1987 7.00879 19.0005 9.20763 19.0005 11.9102C19.0007 12.8299 19.4128 13.776 19.8706 14.5322C20.0956 14.9038 20.3238 15.217 20.4995 15.4404L20.7954 15.793L20.8101 15.8086C21.6043 16.6737 22.2243 17.4635 22.5278 18.7354H25.2837C25.5961 17.4114 26.2801 16.4713 27.3042 15.4473C28.3116 14.4398 28.8118 13.2398 28.812 11.9102C28.812 9.29302 26.7549 7.15377 24.1802 7.00879H23.9106ZM27.3599 10.7021L22.7886 15.2734L22.4341 14.9219L20.7974 13.293L20.4429 12.9404L21.1479 12.2314L21.5024 12.584L22.7866 13.8604L26.2993 10.3486L26.6528 9.99512L27.3599 10.7021Z" fill="black"/>
<path d="M12 28.2002C16.9708 28.2002 21 30.8686 21 34.1562V38C20.9999 38.5522 20.5522 39 20 39H4C3.44778 39 3.00011 38.5522 3 38V34.1562C3 30.8686 7.02923 28.2002 12 28.2002ZM36 28.2002C40.9708 28.2002 45 30.8686 45 34.1562V38C44.9999 38.5522 44.5522 39 44 39H28C27.4478 39 27.0001 38.5522 27 38V34.1562C27 30.8686 31.0292 28.2002 36 28.2002ZM12 29.1006C9.66644 29.1006 7.59459 29.7278 6.13281 30.6953C4.66407 31.6675 3.90039 32.9102 3.90039 34.1562V38C3.9005 38.0551 3.94484 38.1006 4 38.1006H20C20.0552 38.1006 20.0995 38.0551 20.0996 38V34.1562C20.0996 32.9102 19.3359 31.6675 17.8672 30.6953C16.4054 29.7278 14.3336 29.1006 12 29.1006ZM36 29.1006C33.6664 29.1006 31.5946 29.7278 30.1328 30.6953C28.6641 31.6675 27.9004 32.9102 27.9004 34.1562V38C27.9005 38.0551 27.9448 38.1006 28 38.1006H44C44.0552 38.1006 44.0995 38.0551 44.0996 38V34.1562C44.0996 32.9102 43.3359 31.6675 41.8672 30.6953C40.4054 29.7278 38.3336 29.1006 36 29.1006ZM12.2549 16.5068C14.8701 16.6396 16.9502 18.8019 16.9502 21.4502L16.9434 21.7051C16.8106 24.3203 14.6482 26.4003 12 26.4004L11.7451 26.3936C9.21425 26.2652 7.18512 24.2359 7.05664 21.7051L7.0498 21.4502C7.0498 18.7165 9.26628 16.5001 12 16.5L12.2549 16.5068ZM36.2549 16.5068C38.8701 16.6396 40.9502 18.8019 40.9502 21.4502L40.9434 21.7051C40.8106 24.3203 38.6482 26.4003 36 26.4004L35.7451 26.3936C33.2143 26.2652 31.1851 24.2359 31.0566 21.7051L31.0498 21.4502C31.0498 18.7165 33.2663 16.5001 36 16.5L36.2549 16.5068ZM36 17.4004C33.7633 17.4005 31.9502 19.2135 31.9502 21.4502C31.9503 23.6868 33.7634 25.4999 36 25.5C38.2366 25.4999 40.0497 23.6868 40.0498 21.4502C40.0498 19.2135 38.2367 17.4005 36 17.4004ZM12 17.4004C9.76334 17.4005 7.9502 19.2135 7.9502 21.4502C7.9503 23.6868 9.7634 25.4999 12 25.5C14.2366 25.4999 16.0497 23.6868 16.0498 21.4502C16.0498 19.2135 14.2367 17.4005 12 17.4004Z" fill="black"/>
</svg>
