<svg width="48" height="48" viewBox="0 0 48 48" fill="none" xmlns="http://www.w3.org/2000/svg">
<path d="M39.5 26.5557C39.4999 32.5189 34.9609 37.4213 29.1494 37.998L30.7979 39.6465L30.0908 40.3535L27.293 37.5557L30.0908 34.7578L30.7979 35.4648L29.2881 36.9736C34.4792 36.3384 38.4999 31.9184 38.5 26.5557H39.5Z" fill="black"/>
<path d="M20.707 10.4443L17.9092 13.2422L17.2021 12.5352L18.7109 11.0254C13.5203 11.661 9.50006 16.0819 9.5 21.4443H8.5C8.50006 15.4814 13.0385 10.5781 18.8496 10.001L17.2021 8.35352L17.9092 7.64648L20.707 10.4443Z" fill="black"/>
<path fill-rule="evenodd" clip-rule="evenodd" d="M32.7578 5.42287C32.9084 5.33962 33.0916 5.33957 33.2422 5.42287L41.7422 10.1279C41.9009 10.216 41.9998 10.383 42 10.5645V19.9375C42 20.1193 41.9011 20.2869 41.7422 20.375L33.2422 25.0791C33.0915 25.1625 32.9085 25.1625 32.7578 25.0791L24.2578 20.375C24.0988 20.2869 24 20.1193 24 19.9375V10.5645C24.0002 10.3829 24.099 10.2159 24.2578 10.1279L32.7578 5.42287ZM25 19.6426L32.5 23.793V20.2842L28.6592 18.0899C28.5036 18.0009 28.4073 17.8355 28.4072 17.6563V13.332L25 11.4326V19.6426ZM37.5918 13.333V17.6563C37.5917 17.8356 37.4955 18.0009 37.3398 18.0899L33.5 20.2842V23.793L41 19.6426V11.4326L37.5918 13.333ZM29.4072 17.3653L32.5 19.1328V15.6153L29.4072 13.8897V17.3653ZM33.5 15.6153V19.1319L36.5918 17.3653V13.8906L33.5 15.6153ZM31.1992 12.2539L29.877 13.0069L32.999 14.7481L36.1201 13.0078L32.999 11.2246L31.1992 12.2539ZM25.5127 10.5742L28.8574 12.4395L32.752 10.2149C32.9056 10.1272 33.0945 10.1272 33.248 10.2149L37.1396 12.4395L40.4863 10.5742L33 6.43166L25.5127 10.5742Z" fill="black"/>
<path fill-rule="evenodd" clip-rule="evenodd" d="M16.9414 25.5C19.4914 25.5002 21.5262 27.5886 21.5264 30.1426C21.5264 30.1801 21.523 30.2178 21.5215 30.2549C23.778 30.5521 25.5 32.4912 25.5 34.8574C25.4999 37.4114 23.465 39.4998 20.915 39.5H10.085C7.53499 39.4997 5.50013 37.4114 5.5 34.8574C5.5 32.8595 6.73411 31.078 8.60645 30.4629V30.1719C8.60645 28.4698 9.9745 27.0997 11.6523 27.0996C12.1965 27.0996 12.7195 27.2503 13.1826 27.5293C14.0258 26.2849 15.4282 25.5 16.9414 25.5ZM16.9414 26.5C15.6267 26.5 14.3944 27.2728 13.7764 28.4844L13.4805 29.0645L12.9971 28.6289C12.6101 28.2802 12.1402 28.0996 11.6523 28.0996C10.532 28.0997 9.60645 29.0168 9.60645 30.1719V31.2393L9.21875 31.3291C7.61249 31.702 6.5 33.1614 6.5 34.8574C6.50013 36.8743 8.10238 38.4997 10.085 38.5H20.915C22.8976 38.4998 24.4999 36.8743 24.5 34.8574C24.5 32.8393 22.9228 31.2389 20.9639 31.2139L20.3711 31.207L20.4785 30.623L20.4795 30.6221C20.4795 30.6221 20.4799 30.6183 20.4805 30.6152C20.4817 30.6083 20.4831 30.597 20.4854 30.583C20.4899 30.5549 20.4968 30.514 20.5029 30.4658C20.5157 30.3664 20.5264 30.247 20.5264 30.1426C20.5262 28.1256 18.924 26.5002 16.9414 26.5Z" fill="black"/>
</svg>
