<svg width="48" height="48" viewBox="0 0 48 48" fill="none" xmlns="http://www.w3.org/2000/svg">
<path fill-rule="evenodd" clip-rule="evenodd" d="M11.4121 29.4072C15.639 29.5492 19 31.8634 19 34.6943V38.333C19 38.7012 18.7012 39 18.333 39H3.66699L3.53223 38.9863C3.22849 38.9241 3 38.6551 3 38.333V34.6943C3 31.772 6.58154 29.4004 11 29.4004L11.4121 29.4072ZM11 30.4004C8.95946 30.4004 7.15779 30.9497 5.89551 31.7852C4.70474 32.5733 4.08106 33.5447 4.00781 34.5029L4 34.6943V38H18V34.6943C18 33.6751 17.3746 32.6258 16.1045 31.7852C14.8422 30.9497 13.0405 30.4004 11 30.4004Z" fill="black"/>
<path fill-rule="evenodd" clip-rule="evenodd" d="M11 19C13.4301 19 15.4004 20.9703 15.4004 23.4004L15.3945 23.626C15.2769 25.951 13.3543 27.7998 11 27.7998C8.64573 27.7998 6.72308 25.951 6.60547 23.626L6.59961 23.4004C6.59961 20.9703 8.56995 19 11 19ZM11 20C9.12223 20 7.59961 21.5226 7.59961 23.4004C7.59982 25.278 9.12236 26.7998 11 26.7998C12.8776 26.7998 14.4002 25.278 14.4004 23.4004C14.4004 21.5226 12.8778 20 11 20Z" fill="black"/>
<path fill-rule="evenodd" clip-rule="evenodd" d="M43.5 9C44.3284 9 45 9.67157 45 10.5V25.3135C45 26.1419 44.3284 26.8135 43.5 26.8135H30.1191L24.7617 31V26.8135H21.5C20.6716 26.8135 20 26.1419 20 25.3135V10.5C20 9.67157 20.6716 9 21.5 9H43.5ZM21.5 10C21.2239 10 21 10.2239 21 10.5V25.3135C21 25.5896 21.2239 25.8135 21.5 25.8135H25.7617V28.9492L29.7744 25.8135H43.5C43.7761 25.8135 44 25.5896 44 25.3135V10.5C44 10.2239 43.7761 10 43.5 10H21.5Z" fill="black"/>
<path d="M41.501 16.4717H40.501V14.2002L32.0527 22.3955L28.6963 19.1396L24.3477 23.3594L24 23L23.6523 22.6416L28.6973 17.748L32.0518 21.002L39.7861 13.5H37.4219V12.5H41.501V16.4717Z" fill="black"/>
</svg>
