<svg width="48" height="48" viewBox="0 0 48 48" fill="none" xmlns="http://www.w3.org/2000/svg">
<path fill-rule="evenodd" clip-rule="evenodd" d="M23.5156 4.62495C23.8168 4.45833 24.1832 4.45836 24.4844 4.62495L41.4844 14.0341C41.8024 14.2103 41.9999 14.5456 42 14.9091V33.6552C41.9998 34.0186 41.8022 34.3531 41.4844 34.5292L24.4844 43.9384C24.1831 44.1051 23.8169 44.1052 23.5156 43.9384L6.51562 34.5292C6.19782 34.3531 6.00015 34.0186 6 33.6552V14.9091C6.00008 14.5455 6.19752 14.2103 6.51562 14.0341L23.5156 4.62495ZM7 33.6552L23.5 42.7861V24.7158L7 15.5126V33.6552ZM24.5 24.7158V42.7861L41 33.6552V15.5136L24.5 24.7158ZM7.48535 14.6396L24 23.8486L40.5137 14.6396L24 5.49995L7.48535 14.6396Z" fill="black"/>
</svg>
