<svg width="48" height="48" viewBox="0 0 48 48" fill="none" xmlns="http://www.w3.org/2000/svg">
<path fill-rule="evenodd" clip-rule="evenodd" d="M32.9873 9.29004L41.4655 14.0426C41.7811 14.2196 41.9766 14.5531 41.9766 14.9149V33.5634C41.9766 33.9269 41.7794 34.2617 41.4615 34.438L30.6074 40.457V39.3135L32.5029 38.2646L35.1377 36.8027V18.7148L30.6074 21.2422V20.6191L30.1396 20.3584L34.6113 17.8633L18.3535 8.58691L18.3574 8.5791L15.498 10.1621L15.499 10.1631L13.6768 11.1836L12.6514 10.6123L15.0098 9.29004L23.5148 4.5834C23.8161 4.41667 24.182 4.41668 24.4832 4.58342L32.9873 9.29004ZM36.1377 18.1572V36.248L40.9766 33.5635V15.459L36.1377 18.1572ZM19.373 8.0166L35.6309 17.2949L40.4395 14.6143L32.498 10.1631L23.998 5.45801L19.373 8.0166Z" fill="black"/>
<path fill-rule="evenodd" clip-rule="evenodd" d="M30.6084 20.6182V40.4561L24.4384 43.8716C24.1371 44.0384 23.7711 44.0384 23.4698 43.8716L14.9648 39.1641L6.49138 34.4624C6.17366 34.2861 5.97656 33.9514 5.97656 33.588V14.9403C5.97656 14.5785 6.17196 14.2449 6.48753 14.068L12.6514 10.6123L30.6084 20.6182ZM6.97656 33.5879L15.4502 38.29L23.4531 42.7188V24.6719L6.97656 15.3955V33.5879ZM24.4531 24.6738V42.7188L29.6084 39.8662V21.8008L24.4531 24.6738ZM7.59082 14.5947L23.9541 23.8057L29.1143 20.9307L12.6514 11.7578L7.59082 14.5947Z" fill="black"/>
</svg>
