<svg width="48" height="48" viewBox="0 0 48 48" fill="none" xmlns="http://www.w3.org/2000/svg">
<path fill-rule="evenodd" clip-rule="evenodd" d="M33.5 45H32.5V39H24.5V45H23.5V39H15.5V45H14.5V39H10.5C9.72334 39 9.08461 38.4097 9.00781 37.6533L9 37.5V33.5H3V32.5H9V24.5H3V23.5H9V15.5H3V14.5H9V10.5C9 9.67157 9.67157 9 10.5 9H14.5V3H15.5V9H23.5V3H24.5V9H32.5V3H33.5V9H37.5L37.6533 9.00781C38.4097 9.08461 39 9.72334 39 10.5V14.5H45V15.5H39V23.5H45V24.5H39V32.5H45V33.5H39V37.5L38.9922 37.6533C38.9205 38.3593 38.3593 38.9205 37.6533 38.9922L37.5 39H33.5V45ZM10.5 10C10.2239 10 10 10.2239 10 10.5V37.5C10 37.7761 10.2239 38 10.5 38H37.5C37.7761 38 38 37.7761 38 37.5V10.5C38 10.2239 37.7761 10 37.5 10H10.5Z" fill="black"/>
<path fill-rule="evenodd" clip-rule="evenodd" d="M30 30H18V18H30V30ZM19 29H29V19H19V29Z" fill="black"/>
</svg>
