<svg width="48" height="48" viewBox="0 0 48 48" fill="none" xmlns="http://www.w3.org/2000/svg">
<path fill-rule="evenodd" clip-rule="evenodd" d="M24.0078 4.00053C25.6186 3.97385 27.2199 4.26331 28.7188 4.85405C30.2226 5.44686 31.595 6.33079 32.7568 7.45463C33.9187 8.57867 34.848 9.92133 35.4902 11.4048C36.1324 12.8884 36.4755 14.4847 36.5 16.1011V18.9976C36.5329 18.9976 36.5673 18.9985 36.6016 18.9986H40.5C41.428 18.9986 42.3183 19.3679 42.9746 20.024C43.6309 20.6802 43.9999 21.5705 44 22.4986V28.4986C43.9999 29.4267 43.6309 30.3169 42.9746 30.9732C42.3182 31.6294 41.4282 31.9986 40.5 31.9986H36.5V33.7476C36.5 35.4714 35.8147 37.1254 34.5957 38.3443C33.3767 39.563 31.7237 40.2476 30 40.2476V39.2476C31.4585 39.2476 32.8573 38.6684 33.8887 37.6372C34.9201 36.6059 35.5 35.2062 35.5 33.7476V16.1167L35.4775 15.5611C35.3941 14.267 35.0885 12.9949 34.5723 11.8023C33.9823 10.4395 33.1288 9.20597 32.0615 8.17338C30.9942 7.14088 29.7332 6.32831 28.3516 5.78373C26.9699 5.23923 25.4936 4.97293 24.0088 4.99955C24.0031 4.99965 23.9969 4.99965 23.9912 4.99955C22.5063 4.97298 21.0301 5.23916 19.6484 5.78373C18.2667 6.32837 17.0059 7.14075 15.9385 8.17338C14.8711 9.20603 14.0178 10.4394 13.4277 11.8023C12.8378 13.1652 12.5225 14.6318 12.5 16.1167V29.9986C12.4999 30.5289 12.2891 31.0377 11.9141 31.4126C11.539 31.7876 11.0303 31.9986 10.5 31.9986H7.5C6.57196 31.9985 5.68167 31.6293 5.02539 30.9732C4.36931 30.3169 4.00007 29.4265 4 28.4986V22.4986C4.00011 21.5705 4.36911 20.6802 5.02539 20.024C5.68168 19.3678 6.57192 18.9987 7.5 18.9986H10.5C10.699 18.9986 11.0743 18.9994 11.3994 18.9996C11.4334 18.9996 11.4673 18.9995 11.5 18.9996V16.1011C11.5245 14.4847 11.8676 12.8884 12.5098 11.4048C13.152 9.92123 14.0812 8.57874 15.2432 7.45463C16.405 6.33066 17.7774 5.44692 19.2812 4.85405C20.7799 4.26336 22.3807 3.97403 23.9912 4.00053C23.994 4.00048 23.9972 4.00049 24 4.00053C24.0028 4.00058 24.006 3.99959 24.0088 3.99955L24.0078 4.00053ZM7.5 19.9986C6.83713 19.9987 6.20117 20.2623 5.73242 20.731C5.26369 21.1997 5.00011 21.8357 5 22.4986V28.4986C5.00007 29.1613 5.26388 29.7974 5.73242 30.2662C6.20116 30.7348 6.83717 30.9985 7.5 30.9986H10.5C10.7651 30.9986 11.0195 30.893 11.207 30.7056C11.3945 30.5182 11.4999 30.2636 11.5 29.9986V19.9996C11.4671 19.9995 11.4327 19.9996 11.3984 19.9996C11.0733 19.9994 10.6986 19.9986 10.5 19.9986H7.5ZM36.5 30.9986H40.5C41.163 30.9986 41.7988 30.7349 42.2676 30.2662C42.7364 29.7974 42.9999 29.1615 43 28.4986V22.4986C42.9999 21.8357 42.7363 21.1997 42.2676 20.731C41.7988 20.2625 41.1628 19.9986 40.5 19.9986H36.6006C36.5666 19.9985 36.5326 19.9976 36.5 19.9976V30.9986Z" fill="black"/>
<path fill-rule="evenodd" clip-rule="evenodd" d="M24.9434 36.0049C26.9246 36.1055 28.5 37.7438 28.5 39.75C28.5 41.8211 26.8211 43.5 24.75 43.5H21.75C19.6789 43.5 18 41.8211 18 39.75C18 37.7438 19.5754 36.1055 21.5566 36.0049L21.75 36H24.75L24.9434 36.0049ZM21.75 37C20.2312 37 19 38.2312 19 39.75C19 41.2688 20.2312 42.5 21.75 42.5H24.75C26.2688 42.5 27.5 41.2688 27.5 39.75C27.5 38.2312 26.2688 37 24.75 37H21.75Z" fill="black"/>
</svg>
