<svg width="48" height="48" viewBox="0 0 48 48" fill="none" xmlns="http://www.w3.org/2000/svg">
<path fill-rule="evenodd" clip-rule="evenodd" d="M24 5.5C28.1932 5.5 32.0137 6.23441 34.8047 7.44238C36.1994 8.04605 37.3599 8.77811 38.1787 9.61621C38.8832 10.3373 39.35 11.1566 39.4688 12.0469H39.5V35.5059C39.5 36.57 38.9997 37.5434 38.1787 38.3838C37.3599 39.2218 36.1992 39.953 34.8047 40.5566C32.0137 41.7647 28.1933 42.5 24 42.5C19.8067 42.5 15.9863 41.7647 13.1953 40.5566C11.8008 39.953 10.6401 39.2218 9.82129 38.3838C9.00029 37.5434 8.5 36.57 8.5 35.5059V12.0469H8.53125C8.64998 11.1566 9.11676 10.3373 9.82129 9.61621C10.6401 8.77811 11.8006 8.04605 13.1953 7.44238C15.9863 6.23441 19.8068 5.5 24 5.5ZM38.5 30.3564C38.3992 30.4776 38.2922 30.5967 38.1787 30.7129C37.3599 31.5509 36.1992 32.2821 34.8047 32.8857C32.0137 34.0938 28.1933 34.8291 24 34.8291C19.8067 34.8291 15.9863 34.0938 13.1953 32.8857C11.8008 32.2821 10.6401 31.5509 9.82129 30.7129C9.70776 30.5967 9.60078 30.4776 9.5 30.3564V35.5059C9.5 36.2354 9.83927 36.9712 10.5361 37.6846C11.2355 38.4004 12.2729 39.0683 13.5928 39.6396C16.2309 40.7815 19.9102 41.5 24 41.5C28.0898 41.5 31.7691 40.7815 34.4072 39.6396C35.7271 39.0683 36.7645 38.4004 37.4639 37.6846C38.1607 36.9712 38.5 36.2354 38.5 35.5059V30.3564ZM38.5 22.6855C38.3992 22.8067 38.2922 22.9258 38.1787 23.042C37.3599 23.88 36.1992 24.6112 34.8047 25.2148C32.0137 26.4229 28.1933 27.1582 24 27.1582C19.8067 27.1582 15.9863 26.4229 13.1953 25.2148C11.8008 24.6112 10.6401 23.88 9.82129 23.042C9.70776 22.9258 9.60078 22.8067 9.5 22.6855V27.835C9.5 28.5645 9.83931 29.3003 10.5361 30.0137C11.2355 30.7295 12.2729 31.3975 13.5928 31.9688C16.2309 33.1106 19.9102 33.8291 24 33.8291C28.0898 33.8291 31.7691 33.1106 34.4072 31.9688C35.7271 31.3975 36.7645 30.7295 37.4639 30.0137C38.1607 29.3003 38.5 28.5645 38.5 27.835V22.6855ZM38.5 15.0137C38.3991 15.135 38.2924 15.2547 38.1787 15.3711C37.3599 16.2092 36.1994 16.9413 34.8047 17.5449C32.0137 18.7529 28.1933 19.4873 24 19.4873C19.8067 19.4873 15.9863 18.7529 13.1953 17.5449C11.8006 16.9413 10.6401 16.2092 9.82129 15.3711C9.70759 15.2547 9.60093 15.135 9.5 15.0137V20.1641C9.5 20.8936 9.83934 21.6294 10.5361 22.3428C11.2355 23.0586 12.2729 23.7266 13.5928 24.2979C16.2309 25.4397 19.9102 26.1582 24 26.1582C28.0898 26.1582 31.7691 25.4397 34.4072 24.2979C35.7271 23.7266 36.7645 23.0586 37.4639 22.3428C38.1607 21.6294 38.5 20.8936 38.5 20.1641V15.0137ZM24 6.5C19.9102 6.5 16.231 7.21852 13.5928 8.36035C12.2729 8.93166 11.2355 9.59958 10.5361 10.3154C9.83927 11.0288 9.5 11.7646 9.5 12.4941C9.5001 13.2237 9.83915 13.9594 10.5361 14.6729C11.2355 15.3887 12.2729 16.0556 13.5928 16.627C16.231 17.7688 19.9101 18.4873 24 18.4873C28.0899 18.4873 31.769 17.7688 34.4072 16.627C35.7271 16.0556 36.7645 15.3887 37.4639 14.6729C38.1608 13.9594 38.4999 13.2237 38.5 12.4941C38.5 11.7646 38.1607 11.0288 37.4639 10.3154C36.7645 9.59958 35.7271 8.93166 34.4072 8.36035C31.769 7.21852 28.0898 6.5 24 6.5Z" fill="black"/>
<path d="M36 20.5C36 21.0523 35.5523 21.5 35 21.5C34.4477 21.5 34 21.0523 34 20.5C34 19.9477 34.4477 19.5 35 19.5C35.5523 19.5 36 19.9477 36 20.5Z" fill="black"/>
<path d="M36 28C36 28.5523 35.5523 29 35 29C34.4477 29 34 28.5523 34 28C34 27.4477 34.4477 27 35 27C35.5523 27 36 27.4477 36 28Z" fill="black"/>
<path d="M36 35.5C36 36.0523 35.5523 36.5 35 36.5C34.4477 36.5 34 36.0523 34 35.5C34 34.9477 34.4477 34.5 35 34.5C35.5523 34.5 36 34.9477 36 35.5Z" fill="black"/>
</svg>
