<svg width="48" height="48" viewBox="0 0 48 48" fill="none" xmlns="http://www.w3.org/2000/svg">
<path fill-rule="evenodd" clip-rule="evenodd" d="M24.4954 38.0498C25.6364 38.2815 26.4954 39.2906 26.4954 40.5C26.4954 41.8806 25.376 42.9998 23.9954 43C22.6147 43 21.4954 41.8807 21.4954 40.5C21.4954 39.2904 22.3541 38.2813 23.4954 38.0498V35.5H24.4954V38.0498ZM23.9954 39C23.167 39 22.4954 39.6716 22.4954 40.5C22.4954 41.3284 23.167 42 23.9954 42C24.8237 41.9998 25.4954 41.3283 25.4954 40.5C25.4954 39.6717 24.8237 39.0002 23.9954 39Z" fill="black"/>
<path fill-rule="evenodd" clip-rule="evenodd" d="M14.4945 30.0977L12.2864 31.3721C12.6569 32.4763 12.2129 33.7251 11.1654 34.3301C9.9697 35.0204 8.44073 34.6106 7.75031 33.415C7.05996 32.2193 7.46962 30.6904 8.66535 30C9.71246 29.3955 11.0152 29.6341 11.7864 30.5059L13.9945 29.2314L14.4945 30.0977ZM11.2142 31.415C10.8 30.6976 9.88278 30.452 9.16535 30.8662C8.44795 31.2804 8.20141 32.1976 8.61555 32.915C9.02976 33.6325 9.94791 33.8781 10.6654 33.4639C11.3826 33.0496 11.6282 32.1324 11.2142 31.415Z" fill="black"/>
<path fill-rule="evenodd" clip-rule="evenodd" d="M36.2083 30.5068C36.9795 29.6345 38.283 29.3953 39.3304 30C39.5543 30.1293 39.7506 30.2883 39.9173 30.4688C40.0287 30.5894 40.1269 30.7197 40.2113 30.8574C40.6742 31.6136 40.7199 32.5931 40.2454 33.415C39.814 34.1623 39.0547 34.6025 38.2542 34.6592C38.094 34.6705 37.9321 34.6665 37.7708 34.6465C37.4487 34.6065 37.1292 34.5025 36.8304 34.3301C35.7831 33.7254 35.3376 32.477 35.7073 31.373L33.5003 30.0986L34.0003 29.2324L36.2083 30.5068ZM37.9759 30.668C37.8318 30.6781 37.69 30.7094 37.555 30.7598C37.465 30.7933 37.3778 30.8352 37.2952 30.8857C37.0943 31.0088 36.9199 31.1814 36.7913 31.3975L36.7708 31.4336L36.7337 31.5068C36.3896 32.2091 36.643 33.067 37.3304 33.4639C37.5097 33.5674 37.7015 33.6294 37.8948 33.6533C37.9913 33.6653 38.0881 33.6679 38.1839 33.6611C38.6644 33.6273 39.1202 33.3636 39.3792 32.915C39.7933 32.1978 39.5475 31.2805 38.8304 30.8662C38.6509 30.7626 38.4585 30.6997 38.265 30.6758C38.1685 30.6639 38.0717 30.6612 37.9759 30.668Z" fill="black"/>
<path fill-rule="evenodd" clip-rule="evenodd" d="M7.75031 14.665C8.44071 13.4694 9.96967 13.0597 11.1654 13.75C12.2124 14.3546 12.6559 15.6023 12.2864 16.7061L14.4954 17.9814L13.9954 18.8477L11.7864 17.5723C11.0154 18.4448 9.71286 18.6847 8.66535 18.0801C7.46962 17.3897 7.05996 15.8608 7.75031 14.665ZM10.6654 14.6162C9.94791 14.202 9.02976 14.4476 8.61555 15.165C8.20149 15.8825 8.44798 16.7997 9.16535 17.2139C9.88277 17.628 10.8 17.3824 11.2142 16.665C11.6283 15.9477 11.3825 15.0305 10.6654 14.6162Z" fill="black"/>
<path fill-rule="evenodd" clip-rule="evenodd" d="M36.8304 13.75C38.0261 13.0599 39.5551 13.4694 40.2454 14.665C40.7199 15.487 40.6743 16.4665 40.2113 17.2227C40.1269 17.3604 40.0287 17.4907 39.9173 17.6113C39.7506 17.7918 39.5543 17.9507 39.3304 18.0801C38.2828 18.6849 36.9794 18.445 36.2083 17.5723L34.0003 18.8477L33.5003 17.9824L35.7083 16.707C35.3384 15.603 35.7829 14.3547 36.8304 13.75ZM39.3792 15.165C38.965 14.4477 38.0478 14.2022 37.3304 14.6162C36.6195 15.0267 36.3712 15.931 36.7698 16.6455L36.7923 16.6836C37.2116 17.3865 38.1192 17.6245 38.8304 17.2139C39.5475 16.7996 39.7933 15.8823 39.3792 15.165Z" fill="black"/>
<path fill-rule="evenodd" clip-rule="evenodd" d="M24.2552 5.0127C24.5915 5.0468 24.9082 5.14772 25.1917 5.30176C25.3334 5.37876 25.4667 5.46935 25.5902 5.57129C26.1457 6.02983 26.5003 6.72344 26.5003 7.5C26.5003 8.27656 26.1457 8.97017 25.5902 9.42871C25.4667 9.53065 25.3334 9.62124 25.1917 9.69824C24.9782 9.81426 24.7457 9.89935 24.5003 9.94922V12.5H23.5003V9.94922C22.3591 9.71766 21.5003 8.70955 21.5003 7.5C21.5003 6.20553 22.4837 5.14065 23.7445 5.0127C23.8285 5.00417 23.914 5 24.0003 5C24.0864 5.00001 24.1714 5.0042 24.2552 5.0127ZM23.847 6.00781C23.4433 6.0487 23.0867 6.24936 22.8421 6.5459C22.781 6.61996 22.7271 6.70018 22.681 6.78516C22.5656 6.99767 22.5003 7.24116 22.5003 7.5C22.5003 7.75884 22.5656 8.00233 22.681 8.21484C22.7271 8.29982 22.781 8.38004 22.8421 8.4541C22.9645 8.60252 23.1151 8.7269 23.2855 8.81934C23.3704 8.86541 23.4602 8.90345 23.554 8.93262C23.6949 8.97642 23.845 9 24.0003 9C24.8286 8.9998 25.5003 8.3283 25.5003 7.5C25.5003 6.72346 24.9099 6.08478 24.1536 6.00781L24.0003 6C23.9487 6 23.8973 6.00271 23.847 6.00781Z" fill="black"/>
<path fill-rule="evenodd" clip-rule="evenodd" d="M24 20C26.2091 20.0001 28 21.7909 28 24C28 26.2091 26.2091 27.9999 24 28C21.7909 28 20 26.2091 20 24C20 21.7909 21.7909 20 24 20ZM24 21C22.3431 21 21 22.3431 21 24C21 25.6569 22.3431 27 24 27C25.6568 26.9999 27 25.6568 27 24C27 22.3432 25.6568 21.0001 24 21Z" fill="black"/>
<path fill-rule="evenodd" clip-rule="evenodd" d="M26.3242 14.9375L26.7314 16.1777L26.7324 16.1816C26.9046 16.711 27.2618 17.1546 27.7314 17.4307C28.2007 17.7064 28.7522 17.797 29.2812 17.6875L31.2607 17.2793L33.3457 20.9453L32.0176 22.46L32.0166 22.459C31.6558 22.8724 31.4561 23.4091 31.4561 23.9658C31.4562 24.5226 31.6567 25.0583 32.0176 25.4717L33.3457 26.9863L31.2607 30.6514L29.2822 30.2441L29.2812 30.2432C28.7522 30.1337 28.2007 30.2252 27.7314 30.501C27.2619 30.7771 26.9045 31.2206 26.7324 31.75L26.7305 31.7578L26.0938 33.6592H21.8906L21.2891 31.7285L21.2158 31.5332C21.0257 31.09 20.7009 30.72 20.29 30.4785C19.8208 30.2029 19.2693 30.1121 18.7402 30.2217L16.7676 30.6289L14.6504 26.9795L15.9824 25.4609L15.9844 25.458C16.35 25.0435 16.5547 24.5042 16.5547 23.9434C16.5546 23.3826 16.35 22.8432 15.9844 22.4287L15.9824 22.4268L14.6533 20.9102L16.7432 17.2686L18.7178 17.6768C19.2468 17.7864 19.7993 17.6954 20.2686 17.4199C20.7382 17.1438 21.0954 16.6994 21.2676 16.1699L21.2695 16.165L21.6777 14.9355L21.9043 14.25H26.0977L26.3242 14.9375ZM22.2188 16.4795L22.1143 16.7588C21.8412 17.3958 21.3725 17.9303 20.7754 18.2812C20.0929 18.6822 19.2884 18.8154 18.5156 18.6553L17.25 18.3945L15.876 20.7881L16.7344 21.7676C17.2622 22.3659 17.5546 23.1406 17.5547 23.9434L17.541 24.2432C17.4779 24.9375 17.1963 25.5965 16.7344 26.1201L15.876 27.0996L17.2715 29.5039L18.5371 29.2432C19.31 29.083 20.1144 29.2161 20.7969 29.6172C21.4794 30.0183 21.9932 30.6593 22.2402 31.4189L22.627 32.6592H25.374L25.7822 31.4404C25.9984 30.7758 26.4186 30.2016 26.9775 29.7998L27.2246 29.6387C27.9071 29.2376 28.7115 29.1046 29.4844 29.2646L30.751 29.5254L32.125 27.1104L31.2656 26.1309C30.8089 25.6083 30.531 24.9529 30.4688 24.2627L30.4561 23.9658C30.4561 23.168 30.7437 22.3969 31.2656 21.7998L32.125 20.8213L30.751 18.4053L29.4844 18.667C28.8083 18.807 28.1078 18.7225 27.4863 18.4307L27.2246 18.293C26.6275 17.942 26.1598 17.4066 25.8867 16.7695L25.7822 16.4902L25.374 15.25H22.627L22.2188 16.4795Z" fill="black"/>
</svg>
