<svg width="48" height="48" viewBox="0 0 48 48" fill="none" xmlns="http://www.w3.org/2000/svg">
<path d="M31.833 6.25C35.2388 6.25 38 9.01124 38 12.417V12.5127H37V12.417C37 9.56352 34.6865 7.25 31.833 7.25C28.9797 7.25018 26.667 9.56363 26.667 12.417V35.25C26.667 38.8397 23.7567 41.7498 20.167 41.75H19.5C15.9101 41.75 13 38.8399 13 35.25V32.4609H14V35.25C14 38.2876 16.4624 40.75 19.5 40.75H20.167C23.2044 40.7498 25.667 38.2875 25.667 35.25V12.417C25.667 9.01134 28.4274 6.25018 31.833 6.25Z" fill="black"/>
<path d="M14 25.5H13V21H14V25.5Z" fill="black"/>
<path fill-rule="evenodd" clip-rule="evenodd" d="M13.5 6C17.6421 6 21 9.35786 21 13.5V22.5C21 26.6421 17.6421 30 13.5 30C9.35786 30 6 26.6421 6 22.5V13.5C6 9.35786 9.35786 6 13.5 6ZM13.5 7C9.91015 7 7 9.91015 7 13.5V22.5C7 26.0899 9.91015 29 13.5 29C17.0899 29 20 26.0899 20 22.5V13.5C20 9.91015 17.0899 7 13.5 7Z" fill="black"/>
<path fill-rule="evenodd" clip-rule="evenodd" d="M40.5 21V40C40.5 41.1046 39.6046 42 38.5 42H36.5C35.4644 42 34.613 41.2128 34.5107 40.2041L34.5 40V21L37.5 15L40.5 21ZM35.5 38.5V40C35.5 40.5523 35.9477 41 36.5 41H38.5C39.0523 41 39.5 40.5523 39.5 40V38.5H35.5ZM35.5 37.5H39.5V21.5H35.5V37.5ZM35.8682 20.5H39.1318L37.5 17.2363L35.8682 20.5Z" fill="black"/>
</svg>
