<svg width="48" height="48" viewBox="0 0 48 48" fill="none" xmlns="http://www.w3.org/2000/svg">
<path d="M42 29.75H6V28.75H42V29.75Z" fill="black"/>
<path fill-rule="evenodd" clip-rule="evenodd" d="M43.5 7C44.6046 7 45.5 7.89543 45.5 9V31.5C45.5 32.6046 44.6046 33.5 43.5 33.5H30.5V38.5H34.5C34.7761 38.5 35 38.7239 35 39V42C35 42.2761 34.7761 42.5 34.5 42.5H13.5C13.2239 42.5 13 42.2761 13 42V39C13 38.7239 13.2239 38.5 13.5 38.5H17.5V33.5H4.5C3.39543 33.5 2.5 32.6046 2.5 31.5V9C2.5 7.89543 3.39543 7 4.5 7H43.5ZM14 41.5H34V39.5H14V41.5ZM18.5 38.5H29.5V33.5H18.5V38.5ZM4.5 8C3.94772 8 3.5 8.44772 3.5 9V31.5C3.5 32.0523 3.94772 32.5 4.5 32.5H43.5C44.0523 32.5 44.5 32.0523 44.5 31.5V9C44.5 8.44772 44.0523 8 43.5 8H4.5Z" fill="black"/>
<path fill-rule="evenodd" clip-rule="evenodd" d="M24 17C25.3807 17 26.5 18.1193 26.5 19.5C26.5 20.8807 25.3807 22 24 22C22.6193 22 21.5 20.8807 21.5 19.5C21.5 18.1193 22.6193 17 24 17ZM24 18C23.1716 18 22.5 18.6716 22.5 19.5C22.5 20.3284 23.1716 21 24 21C24.8284 21 25.5 20.3284 25.5 19.5C25.5 18.6716 24.8284 18 24 18Z" fill="black"/>
</svg>
