<svg width="48" height="48" viewBox="0 0 48 48" fill="none" xmlns="http://www.w3.org/2000/svg">
<path fill-rule="evenodd" clip-rule="evenodd" d="M13 33.7998C16.8661 33.7998 19.9998 35.8474 20 38.3701V41.416C20 41.7381 19.739 41.9998 19.417 42H6.58301L6.46582 41.9883C6.19997 41.9339 6 41.6979 6 41.416V38.3701C6.00016 35.8474 9.13395 33.7998 13 33.7998ZM13 34.7998C11.2328 34.7998 9.67862 35.27 8.59668 35.9766C7.57425 36.6444 7.06559 37.449 7.00586 38.2168L7 38.3701V41H19V38.3701C18.9999 37.5572 18.494 36.689 17.4033 35.9766C16.3214 35.27 14.7672 34.7998 13 34.7998Z" fill="black"/>
<path fill-rule="evenodd" clip-rule="evenodd" d="M35 33.7998C38.8661 33.7998 41.9998 35.8474 42 38.3701V41.416C42 41.7381 41.739 41.9998 41.417 42H28.583L28.4658 41.9883C28.2 41.9339 28 41.6979 28 41.416V38.3701C28.0002 35.8474 31.1339 33.7998 35 33.7998ZM35 34.7998C33.2328 34.7998 31.6786 35.27 30.5967 35.9766C29.5742 36.6444 29.0656 37.449 29.0059 38.2168L29 38.3701V41H41V38.3701C40.9999 37.5572 40.494 36.689 39.4033 35.9766C38.3214 35.27 36.7672 34.7998 35 34.7998Z" fill="black"/>
<path d="M24 30.7998C26.7326 30.7998 29.098 31.8238 30.251 33.3145C29.9394 33.462 29.6414 33.6241 29.3594 33.8008C29.1142 33.5126 28.7975 33.234 28.4033 32.9766C27.3214 32.27 25.7672 31.7998 24 31.7998C22.2328 31.7998 20.6786 32.27 19.5967 32.9766C19.2021 33.2343 18.8839 33.5123 18.6387 33.8008C18.3568 33.6243 18.0594 33.4619 17.748 33.3145C18.9009 31.8235 21.2671 30.7998 24 30.7998Z" fill="black"/>
<path fill-rule="evenodd" clip-rule="evenodd" d="M13 25C15.0711 25 16.75 26.6789 16.75 28.75C16.75 30.8211 15.0711 32.5 13 32.5C10.9289 32.5 9.25 30.8211 9.25 28.75C9.25 26.6789 10.9289 25 13 25ZM13 26C11.4812 26 10.25 27.2312 10.25 28.75C10.25 30.2688 11.4812 31.5 13 31.5C14.5188 31.5 15.75 30.2688 15.75 28.75C15.75 27.2312 14.5188 26 13 26Z" fill="black"/>
<path fill-rule="evenodd" clip-rule="evenodd" d="M35 25C37.0711 25 38.75 26.6789 38.75 28.75C38.75 30.8211 37.0711 32.5 35 32.5C32.9289 32.5 31.25 30.8211 31.25 28.75C31.25 26.6789 32.9289 25 35 25ZM35 26C33.4812 26 32.25 27.2312 32.25 28.75C32.25 30.2688 33.4812 31.5 35 31.5C36.5188 31.5 37.75 30.2688 37.75 28.75C37.75 27.2312 36.5188 26 35 26Z" fill="black"/>
<path fill-rule="evenodd" clip-rule="evenodd" d="M24 22C26.0711 22 27.75 23.6789 27.75 25.75C27.75 27.8211 26.0711 29.5 24 29.5C21.9289 29.5 20.25 27.8211 20.25 25.75C20.25 23.6789 21.9289 22 24 22ZM24 23C22.4812 23 21.25 24.2312 21.25 25.75C21.25 27.2688 22.4812 28.5 24 28.5C25.5188 28.5 26.75 27.2688 26.75 25.75C26.75 24.2312 25.5188 23 24 23Z" fill="black"/>
<path d="M20.6045 11.0635H7.48633C7.21778 11.0636 7.00009 11.2813 7 11.5498V18.4336C7.00026 18.702 7.21788 18.9198 7.48633 18.9199H14.3965V20.8857L16.6416 19.1328L16.9131 18.9199H24.5137C24.7822 18.9199 24.9997 18.7021 25 18.4336V17.4033H26V18.4336C25.9997 19.2543 25.3345 19.9199 24.5137 19.9199H17.2568L14.1963 22.3115C13.8916 22.5493 13.4553 22.3611 13.4014 21.9971L13.3965 21.9219V19.9199H7.48633C6.6656 19.9198 6.00026 19.2543 6 18.4336V11.5498C6.00009 10.729 6.66549 10.0636 7.48633 10.0635H20.6045V11.0635Z" fill="black"/>
<path fill-rule="evenodd" clip-rule="evenodd" d="M40.6045 6.06055C41.4253 6.06064 42.0907 6.72604 42.0908 7.54688V14.4307C42.0908 15.2516 41.4254 15.9169 40.6045 15.917H34.6943V17.9189L34.6895 17.9941C34.6358 18.3586 34.1994 18.5468 33.8945 18.3086L30.834 15.917H23.5771C22.7562 15.917 22.0908 15.2516 22.0908 14.4307V7.54688C22.0909 6.72598 22.7562 6.06055 23.5771 6.06055H40.6045ZM23.5771 7.06055C23.3085 7.06055 23.0909 7.27827 23.0908 7.54688V14.4307C23.0908 14.6994 23.3085 14.917 23.5771 14.917H31.1777L31.4492 15.1299L33.6943 16.8828V14.917H40.6045C40.8731 14.9169 41.0908 14.6993 41.0908 14.4307V7.54688C41.0907 7.27833 40.873 7.06064 40.6045 7.06055H23.5771Z" fill="black"/>
</svg>
