<svg width="48" height="48" viewBox="0 0 48 48" fill="none" xmlns="http://www.w3.org/2000/svg">
<path fill-rule="evenodd" clip-rule="evenodd" d="M31.4878 18.0673C31.8041 18.244 32 18.578 32 18.9402V26.7081C32 27.0704 31.804 27.4044 31.4878 27.5811L24.5 31.4854V38.0498C25.4796 38.2486 26.2514 39.0204 26.4502 40H39V41H26.4502C26.2186 42.1411 25.2095 43 24 43C22.7905 43 21.7814 42.1411 21.5498 41H9V40H21.5498C21.7486 39.0204 22.5204 38.2486 23.5 38.0498V31.4854L16.5122 27.5811C16.196 27.4044 16 27.0704 16 26.7081V18.9402C16 18.578 16.1959 18.244 16.5122 18.0673L23.5122 14.1554C23.8153 13.986 24.1847 13.986 24.4878 14.1554L31.4878 18.0673ZM24 39C23.1716 39 22.5 39.6716 22.5 40.5C22.5 41.3284 23.1716 42 24 42C24.8284 42 25.5 41.3284 25.5 40.5C25.5 39.6716 24.8284 39 24 39ZM17 26.707L23.5 30.3389V23.1787L17 19.5176V26.707ZM24.5 23.1787V30.3389L31 26.707V19.5176L24.5 23.1787ZM21.1084 20.6836L24 22.3115L30.4912 18.6562L27.5889 17.0342L21.1084 20.6836ZM17.5078 18.6562L20.1494 20.1436L26.626 16.4961L24 15.0283L17.5078 18.6562Z" fill="black"/>
<path d="M26.957 8.25L26.25 8.95703L24.5 7.20703V12.5H23.5V7.20703L21.75 8.95703L21.043 8.25L24 5.29297L26.957 8.25Z" fill="black"/>
<path d="M9.95703 19.6836L8.21875 21.3994H13.5V22.3994H8.19629L9.95703 24.1836L9.24512 24.8857L6.29297 21.8945L9.25488 18.9717L9.95703 19.6836Z" fill="black"/>
<path d="M41.3926 21.6494L41.6396 21.9619L39.2822 24.8818L38.5039 24.2539L39.9541 22.458H34.5V21.458H39.9707L38.8135 19.9883L38.5049 19.5947L39.291 18.9766L41.3926 21.6494Z" fill="black"/>
</svg>
