<svg width="48" height="48" viewBox="0 0 48 48" fill="none" xmlns="http://www.w3.org/2000/svg">
<path d="M27 29H19.5V28H27V29Z" fill="black"/>
<path d="M33 24.5H19.5V23.5H33V24.5Z" fill="black"/>
<path d="M33 20H19.5V19H33V20Z" fill="black"/>
<path d="M12 10.25H10.25V43.75H33.25V40.5H34.25V43.75C34.25 44.3023 33.8023 44.75 33.25 44.75H10.25C9.69772 44.75 9.25 44.3023 9.25 43.75V10.25C9.25 9.69772 9.69772 9.25 10.25 9.25H12V10.25Z" fill="black"/>
<path fill-rule="evenodd" clip-rule="evenodd" d="M29.7842 3C29.9217 3 30.054 3.05634 30.1484 3.15625L38.8633 12.376C38.951 12.4688 39 12.592 39 12.7197V38.5C39 38.7761 38.7761 39 38.5 39H14C13.7239 39 13.5 38.7761 13.5 38.5V3.5C13.5 3.25829 13.6714 3.05629 13.8994 3.00977L14 3H29.7842ZM14.5 38H38V13H30C29.4477 13 29 12.5523 29 12V4H14.5V38ZM30 12H37.1328L30 4.45605V12Z" fill="black"/>
</svg>
