<svg width="48" height="48" viewBox="0 0 48 48" fill="none" xmlns="http://www.w3.org/2000/svg">
<path fill-rule="evenodd" clip-rule="evenodd" d="M27.0049 4.00977C27.1035 4.03002 27.1949 4.08045 27.2656 4.1543L36.8613 14.1689C36.9504 14.262 37 14.3859 37 14.5146V34.3486L36.0664 33.457C36.0448 33.4364 36.022 33.4174 36 33.3975V15.5H27C26.4477 15.5 26 15.0523 26 14.5V5H10V42H34.458L35.5049 43H9.5C9.22386 43 9 42.7761 9 42.5V4.5C9 4.25829 9.17145 4.05629 9.39941 4.00977L9.5 4H26.9043L27.0049 4.00977ZM27 14.5H35.7939L27 5.32227V14.5Z" fill="black"/>
<path fill-rule="evenodd" clip-rule="evenodd" d="M23.5068 18C28.205 18 32.0137 21.8087 32.0137 26.5068C32.0137 28.5107 31.3185 30.351 30.1592 31.8047L32.7568 34.4023C33.4346 33.8957 34.3982 33.9369 35.0303 34.541L40.082 39.3691C40.7863 40.0423 40.8117 41.1589 40.1387 41.8633L39.6143 42.4121L39.4824 42.5361C38.8025 43.1169 37.7795 43.0999 37.1191 42.4688L32.0674 37.6406C31.407 37.0095 31.3431 35.9878 31.8926 35.2822L32.0107 35.1455L32.0469 35.1064L29.4912 32.5508C27.9542 34.0727 25.8408 35.0137 23.5068 35.0137C18.8087 35.0137 15 31.205 15 26.5068C15 21.8087 18.8087 18 23.5068 18ZM34.3389 35.2637C34.0339 34.9722 33.5504 34.9824 33.2588 35.2871L32.7334 35.8369C32.4421 36.142 32.4528 36.6265 32.7578 36.918L37.8105 41.7461C38.1157 42.0375 38.6001 42.0267 38.8916 41.7217L39.416 41.1719C39.7073 40.8668 39.6957 40.3833 39.3906 40.0918L34.3389 35.2637ZM23.5068 19C19.3609 19 16 22.361 16 26.5068C16 30.6527 19.361 34.0137 23.5068 34.0137C27.6527 34.0136 31.0136 30.6527 31.0137 26.5068C31.0137 22.361 27.6527 19 23.5068 19Z" fill="black"/>
<path d="M23.4639 29.1426C23.7044 29.1426 23.9305 29.2135 24.0986 29.4023C24.2476 29.57 24.3241 29.7653 24.3242 30.0029C24.3242 30.2407 24.2476 30.4358 24.0986 30.6035C23.9305 30.7927 23.7045 30.8642 23.4639 30.8643C23.2232 30.8642 22.9972 30.7926 22.8291 30.6035C22.6801 30.4358 22.6025 30.2407 22.6025 30.0029C22.6026 29.7653 22.6801 29.57 22.8291 29.4023C22.9972 29.2135 23.2234 29.1426 23.4639 29.1426Z" fill="black"/>
<path d="M23.6133 21.7871C24.0283 21.7871 24.385 21.8447 24.6768 21.9521C24.9617 22.0572 25.2159 22.2121 25.3984 22.4111C25.5574 22.5846 25.7056 22.7919 25.7764 23.0439C25.853 23.2741 25.8847 23.4909 25.8848 23.7061C25.8848 24.0125 25.8229 24.2796 25.7119 24.5176C25.6073 24.7417 25.4737 24.9508 25.3105 25.1436C25.1646 25.3161 25.0066 25.5008 24.8203 25.6738C24.6563 25.8378 24.5017 25.9941 24.3604 26.1611C24.2211 26.3257 24.1125 26.4839 24.0293 26.6621C23.9487 26.835 23.9034 27.0162 23.9033 27.2207V27.7695H22.8789L22.8389 27.5684C22.824 27.4939 22.8066 27.394 22.8066 27.2754V27.0176C22.8067 26.7484 22.8513 26.4763 22.9688 26.2412C23.0674 26.044 23.1839 25.8395 23.3184 25.6602C23.4507 25.4837 23.6102 25.309 23.7832 25.1504C23.9348 25.0114 24.0562 24.8645 24.2012 24.7051C24.3158 24.579 24.4104 24.4268 24.4824 24.2588L24.4854 24.2529L24.5312 24.1387C24.5726 24.0201 24.5977 23.8898 24.5977 23.7471C24.5976 23.5755 24.5633 23.438 24.5156 23.3428C24.4715 23.2549 24.3965 23.1765 24.3018 23.1133C24.2105 23.0525 24.1077 23.0108 23.9785 22.9893C23.8298 22.9645 23.6804 22.9521 23.5176 22.9521H23.2578C22.9106 22.9847 22.5882 23.0791 22.3086 23.2334L22.0479 23.377L21.9512 23.0947L21.6846 22.3115L21.8506 22.2061C22.0337 22.0896 22.2968 22.0002 22.5811 21.9189C22.8924 21.83 23.2422 21.7871 23.6133 21.7871Z" fill="black"/>
</svg>
