<svg width="48" height="48" viewBox="0 0 48 48" fill="none" xmlns="http://www.w3.org/2000/svg">
<path d="M37.0498 28.6875L37.376 29.6797L37.377 29.6836C37.4998 30.0609 37.7539 30.3765 38.0869 30.5723C38.4195 30.7676 38.8102 30.8314 39.1846 30.7539L40.1992 30.5449L40.9111 30.3984L41.2705 31.0303L42.3691 32.9629L42.7207 33.5811L42.252 34.1162L41.5654 34.8994L41.5645 34.8984C41.3077 35.1925 41.165 35.5752 41.165 35.9727C41.1651 36.3696 41.3082 36.751 41.5645 37.0449L42.252 37.8291L42.7207 38.3643L42.3691 38.9824L41.2705 40.915L40.9111 41.5469L40.1992 41.3994L39.1855 41.1914L39.1846 41.1904C38.8102 41.113 38.4196 41.1776 38.0869 41.373C37.7538 41.5689 37.4997 41.8843 37.377 42.2617L37.374 42.2695L37.0479 43.2451L36.8193 43.9277H33.166L32.9463 43.2246L32.6416 42.2441L32.5889 42.1055C32.4535 41.7898 32.2229 41.5268 31.9316 41.3555C31.5989 41.1599 31.2075 41.0963 30.833 41.1738L29.8193 41.3828L29.1133 41.5283L28.752 40.9053L27.6357 38.9814L27.2754 38.3604L27.749 37.8203L28.4355 37.0371L28.4375 37.0342C28.6975 36.7394 28.8437 36.3553 28.8438 35.9551C28.8438 35.5548 28.6975 35.1708 28.4375 34.876L28.4355 34.873L27.749 34.0898L27.2783 33.5527L27.6338 32.9326L28.7324 31.0176L29.0928 30.3896L29.8018 30.5361L30.8154 30.7451C31.1898 30.8225 31.5815 30.7588 31.9141 30.5635C32.247 30.3677 32.5012 30.0521 32.624 29.6748L32.626 29.6689L32.9521 28.6855L33.1797 28H36.8232L37.0498 28.6875ZM33.5752 29.9834L33.4912 30.207C33.2728 30.7164 32.8983 31.144 32.4209 31.4248L32.2119 31.5352C31.7147 31.7687 31.1542 31.8366 30.6133 31.7246L29.5996 31.5156L28.501 33.4307L29.1875 34.2139C29.6098 34.6926 29.8438 35.3128 29.8438 35.9551L29.833 36.1943C29.7826 36.7498 29.557 37.2774 29.1875 37.6963L28.501 38.4795L29.6172 40.4033L30.6299 40.1943C31.2479 40.0663 31.8917 40.1726 32.4375 40.4932C32.9834 40.8141 33.3952 41.3279 33.5928 41.9355L33.9014 42.9277H36.0996L36.4258 41.9521C36.6234 41.3447 37.0343 40.8316 37.5801 40.5107C38.126 40.19 38.7695 40.0839 39.3877 40.2119L40.4014 40.4209L41.5 38.4883L40.8135 37.7051C40.4482 37.2873 40.2257 36.7628 40.1758 36.2109L40.165 35.9727C40.165 35.3344 40.3959 34.7179 40.8135 34.2402L41.5 33.457L40.4014 31.5244L39.3877 31.7334C38.7695 31.8614 38.1259 31.7543 37.5801 31.4336C37.1026 31.1529 36.7282 30.7252 36.5098 30.2158L36.4258 29.9922L36.0996 29H33.9014L33.5752 29.9834ZM35.001 33.4639C36.3814 33.4642 37.501 34.5834 37.501 35.9639C37.5008 37.3442 36.3813 38.4635 35.001 38.4639C33.6203 38.4639 32.5011 37.3445 32.501 35.9639C32.501 34.5832 33.6203 33.4639 35.001 33.4639ZM35.001 34.4639C34.1725 34.4639 33.501 35.1354 33.501 35.9639C33.5011 36.7922 34.1726 37.4639 35.001 37.4639C35.829 37.4635 36.5008 36.792 36.501 35.9639C36.501 35.1357 35.8291 34.4642 35.001 34.4639Z" fill="black"/>
<path d="M26.8809 3C27.0318 3 27.1766 3.06217 27.2803 3.17188L36.8496 13.2949C36.9459 13.3968 36.9999 13.5317 37 13.6719V26H36V14.3828H27.1172C26.538 14.3826 26.0684 13.9122 26.0684 13.333V4H10V41H26.4951L27.0225 41.9072L27.0215 41.9082L27.0752 42H9.54883C9.28354 41.9999 9.06185 41.8117 9.01074 41.5615L9 41.4512V3.54883C9.0001 3.24576 9.24576 3.0001 9.54883 3H26.8809ZM23.8232 29.9316H15.5879V28.9316H23.8232V29.9316ZM30.4111 24.9902H15.5879V23.9902H30.4111V24.9902ZM30.4111 20.0488H15.5879V19.0488H30.4111V20.0488ZM27.0684 13.333C27.0684 13.3599 27.0903 13.3826 27.1172 13.3828H35.5566L27.0684 4.40234V13.333Z" fill="black"/>
</svg>
