<svg width="48" height="48" viewBox="0 0 48 48" fill="none" xmlns="http://www.w3.org/2000/svg">
<path fill-rule="evenodd" clip-rule="evenodd" d="M15.013 13.4785C15.0321 13.8435 15.0747 14.2025 15.136 14.5547L9.04032 17.9824L23.9993 25.8838L38.9524 17.9854L32.8626 14.5615C32.9242 14.2093 32.9672 13.8504 32.9866 13.4854L40.219 17.5518C40.2334 17.5587 40.2492 17.5638 40.263 17.5723L46.762 21.5732C46.913 21.6662 47.004 21.8325 47.0003 22.0098C46.9962 22.1873 46.8977 22.3503 46.7425 22.4365L40.4944 25.8994V34.5684C40.4944 34.7499 40.3952 34.9177 40.2366 35.0059L24.2366 43.8613C24.0862 43.9445 23.9027 43.9444 23.7522 43.8613L7.75223 35.0059C7.59328 34.9178 7.49446 34.7501 7.49442 34.5684V25.8926L1.25809 22.4365C1.10278 22.3504 1.0053 22.1873 1.00126 22.0098C0.997495 21.8324 1.08746 21.6662 1.23856 21.5732L7.69169 17.6006C7.70967 17.5869 7.72932 17.5747 7.7493 17.5635L15.013 13.4785ZM8.49442 34.2734L23.5003 42.5771V27.3633L17.4983 31.1426C17.3441 31.2396 17.149 31.2445 16.9895 31.1562L8.49442 26.4473V34.2734ZM31.011 31.1562C30.8516 31.2445 30.6564 31.2396 30.5022 31.1426L24.5003 27.3633V42.5713L39.4944 34.2734V26.4531L31.011 31.1562ZM2.49149 21.9766L17.2151 30.1387L23.0081 26.4902L8.01981 18.5752L2.49149 21.9766ZM24.9925 26.4902L30.7854 30.1387L45.51 21.9766L39.9808 18.5752L24.9925 26.4902Z" fill="black"/>
<path d="M22.4395 5.15332C22.9443 5.05349 23.4659 5 24 5C24.5344 5 25.0564 5.05337 25.5615 5.15332L25.3672 6.13281C24.9258 6.04551 24.4687 6 24 6C23.5313 6 23.0742 6.04551 22.6328 6.13281L22.4395 5.15332Z" fill="black"/>
<path d="M29.8213 9.11133C29.31 8.34767 28.6523 7.69 27.8887 7.17871L28.168 6.76367L28.167 6.7627L28.4453 6.34863C29.3175 6.93269 30.0684 7.68338 30.6523 8.55566L29.8213 9.11133Z" fill="black"/>
<path d="M17.7637 8.83301L17.3486 8.55566C17.9327 7.68335 18.6834 6.93266 19.5557 6.34863L20.1113 7.17871C19.3477 7.69 18.69 8.34766 18.1787 9.11133L17.7637 8.83301Z" fill="black"/>
<path d="M30.8672 14.3672C30.9545 13.9258 31 13.4687 31 13C31 12.5313 30.9545 12.0742 30.8672 11.6328L31.8477 11.4395C31.9475 11.9442 32 12.466 32 13C32 13.5344 31.9476 14.0565 31.8477 14.5615L30.8672 14.3672Z" fill="black"/>
<path d="M16.1533 14.5615C16.0534 14.0564 16 13.5344 16 13C16 12.4659 16.0535 11.9443 16.1533 11.4395L17.1328 11.6328C17.0455 12.0742 17 12.5313 17 13C17 13.4687 17.0455 13.9258 17.1328 14.3672L16.1533 14.5615Z" fill="black"/>
<path d="M28.2842 19.4111L27.8887 18.8213C28.6523 18.31 29.31 17.6523 29.8213 16.8887L30.6523 17.4453C30.0684 18.3175 29.3175 19.0684 28.4453 19.6523L28.2842 19.4111Z" fill="black"/>
<path d="M19.5557 19.6523C18.6834 19.0684 17.9327 18.3175 17.3486 17.4453L18.1787 16.8887C18.69 17.6523 19.3477 18.31 20.1113 18.8213L19.7158 19.4111L19.5557 19.6523Z" fill="black"/>
<path d="M24 21C23.466 21 22.9442 20.9475 22.4395 20.8477L22.6328 19.8672C23.0742 19.9545 23.5313 20 24 20C24.4687 20 24.9258 19.9545 25.3672 19.8672L25.5615 20.8477C25.0565 20.9476 24.5344 21 24 21Z" fill="black"/>
<path d="M23.2893 9.00011H24.7112V14.3331H23.2893L23.2893 9.00011Z" fill="black"/>
<path d="M24.0002 17.4444C23.5094 17.4444 23.1117 17.0466 23.1115 16.5558C23.1115 16.0649 23.5093 15.6671 24.0002 15.6671C24.491 15.6672 24.8889 16.0649 24.8889 16.5558C24.8888 17.0465 24.491 17.4443 24.0002 17.4444Z" fill="black"/>
</svg>
