<svg width="48" height="48" viewBox="0 0 48 48" fill="none" xmlns="http://www.w3.org/2000/svg">
<path d="M24.0049 24.5C24.5569 24.5003 25.0049 24.9479 25.0049 25.5C25.0048 25.8936 24.7759 26.2324 24.4453 26.3955L25.0049 29.5H23.0049L23.5625 26.3955C23.2324 26.2322 23.005 25.8932 23.0049 25.5C23.0049 24.9477 23.4526 24.5 24.0049 24.5Z" fill="black"/>
<path fill-rule="evenodd" clip-rule="evenodd" d="M24 16C25.933 16 27.5 17.567 27.5 19.5V22H28.5C29.3284 22 30 22.6716 30 23.5V30.5C30 31.3284 29.3284 32 28.5 32H19.5C18.7233 32 18.0846 31.4097 18.0078 30.6533L18 30.5V23.5C18 22.6716 18.6716 22 19.5 22H20.5V19.5C20.5 17.567 22.067 16 24 16ZM19.5 23C19.2239 23 19 23.2239 19 23.5V30.5C19 30.7761 19.2239 31 19.5 31H28.5C28.7761 31 29 30.7761 29 30.5V23.5C29 23.2239 28.7761 23 28.5 23H19.5ZM24 17C22.6193 17 21.5 18.1193 21.5 19.5V22H26.5V19.5C26.5 18.1193 25.3807 17 24 17Z" fill="black"/>
<path d="M9.63184 13.1562C9.85427 13.407 10.1254 13.6116 10.4316 13.7568C8.27775 16.6055 7 20.1535 7 24C7 33.3888 14.6112 41 24 41C27.8465 41 31.3936 39.7212 34.2422 37.5674C34.3873 37.8737 34.5922 38.1446 34.8428 38.3672C31.8269 40.6468 28.0718 42 24 42C14.0589 42 6 33.9411 6 24C6 19.9281 7.35218 16.1721 9.63184 13.1562Z" fill="black"/>
<path d="M24 36.5C24.5523 36.5 25 36.9477 25 37.5C25 38.0523 24.5523 38.5 24 38.5C23.4477 38.5 23 38.0523 23 37.5C23 36.9477 23.4477 36.5 24 36.5Z" fill="black"/>
<path d="M24.001 9.98047C30.8894 9.98059 36.6158 14.9558 37.7832 21.5088C37.7225 21.5044 37.6614 21.5 37.5996 21.5C37.3157 21.5 37.0435 21.5495 36.7891 21.6367C35.6854 15.5759 30.3803 10.9806 24.001 10.9805C16.8213 10.9805 11.001 16.8008 11.001 23.9805C11.001 30.3438 15.5732 35.6377 21.6113 36.7598C21.5389 36.9937 21.5 37.2423 21.5 37.5C21.5 37.5877 21.5039 37.6744 21.5127 37.7598C14.9678 36.5857 10.001 30.8632 10.001 23.9805C10.001 16.2485 16.269 9.98047 24.001 9.98047Z" fill="black"/>
<path d="M36.7822 26.3604C37.0386 26.4492 37.313 26.5 37.5996 26.5C37.6588 26.5 37.7173 26.4953 37.7754 26.4912C36.7382 32.2187 32.2174 36.7328 26.4863 37.7598C26.4951 37.6744 26.5 37.5877 26.5 37.5C26.5 37.2426 26.4609 36.9944 26.3887 36.7607C31.6563 35.7827 35.8073 31.6291 36.7822 26.3604Z" fill="black"/>
<path d="M36.5 35.5C37.0523 35.5 37.5 35.9477 37.5 36.5C37.5 37.0523 37.0523 37.5 36.5 37.5C35.9477 37.5 35.5 37.0523 35.5 36.5C35.5 35.9477 35.9477 35.5 36.5 35.5Z" fill="black"/>
<path d="M24 6C33.9411 6 42 14.0589 42 24C42 28.0718 40.6468 31.8269 38.3672 34.8428C38.1446 34.5922 37.8737 34.3873 37.5674 34.2422C39.7212 31.3936 41 27.8465 41 24C41 14.6112 33.3888 7 24 7C20.1535 7 16.6055 8.27775 13.7568 10.4316C13.6116 10.1254 13.407 9.85427 13.1562 9.63184C16.1721 7.35218 19.9281 6 24 6Z" fill="black"/>
<path d="M37.5996 23C38.1519 23 38.5996 23.4477 38.5996 24C38.5996 24.5523 38.1519 25 37.5996 25C37.0475 24.9998 36.5996 24.5522 36.5996 24C36.5996 23.4478 37.0475 23.0002 37.5996 23Z" fill="black"/>
<path d="M11.5 10.5C12.0523 10.5 12.5 10.9477 12.5 11.5C12.5 12.0523 12.0523 12.5 11.5 12.5C10.9477 12.5 10.5 12.0523 10.5 11.5C10.5 10.9477 10.9477 10.5 11.5 10.5Z" fill="black"/>
</svg>
