<svg width="48" height="48" viewBox="0 0 48 48" fill="none" xmlns="http://www.w3.org/2000/svg">
<path d="M19 34H3.66602C3.88828 34.8623 4.66892 35.5 5.60059 35.5H19V36.5H5.60059L5.44629 36.4961C3.86114 36.4158 2.60059 35.1051 2.60059 33.5V33H19V34Z" fill="black"/>
<path d="M25.2539 12C25.1076 12.3233 24.9795 12.6567 24.874 13H7.02539C6.47311 13 6.02539 13.4477 6.02539 14V31.8174H5.02539V14C5.02539 12.8954 5.92082 12 7.02539 12H25.2539Z" fill="black"/>
<path fill-rule="evenodd" clip-rule="evenodd" d="M33 24C39.6277 24 45 27.4589 45 31.7207V37C45 37.5523 44.5523 38 44 38H22C21.4477 38 21 37.5523 21 37V31.7207C21 27.4589 26.3723 24 33 24ZM33 25C29.8492 25 27.0431 25.8245 25.0557 27.1035C23.0577 28.3894 22 30.0452 22 31.7207V37H44V31.7207C44 30.0452 42.9423 28.3894 40.9443 27.1035C38.9569 25.8245 36.1508 25 33 25Z" fill="black"/>
<path fill-rule="evenodd" clip-rule="evenodd" d="M33 9C36.5899 9 39.5 11.9101 39.5 15.5C39.5 19.0899 36.5899 22 33 22C29.4101 22 26.5 19.0899 26.5 15.5C26.5 11.9101 29.4101 9 33 9ZM33 10C29.9624 10 27.5 12.4624 27.5 15.5C27.5 18.5376 29.9624 21 33 21C36.0376 21 38.5 18.5376 38.5 15.5C38.5 12.4624 36.0376 10 33 10Z" fill="black"/>
<path d="M17.9785 18.6582L15.377 26.4629L14.4277 26.1465L17.0293 18.3418L17.9785 18.6582Z" fill="black"/>
<path d="M13.9219 20.6182L11.7803 22.4023L13.9219 24.1865L13.2812 24.9541L10.2188 22.4023L13.2812 19.8506L13.9219 20.6182Z" fill="black"/>
<path d="M22.1875 22.4023L19.125 24.9541L18.4844 24.1865L20.626 22.4023L18.4844 20.6182L19.125 19.8506L22.1875 22.4023Z" fill="black"/>
</svg>
