<svg width="48" height="48" viewBox="0 0 48 48" fill="none" xmlns="http://www.w3.org/2000/svg">
<path fill-rule="evenodd" clip-rule="evenodd" d="M37.8057 26.2088C38.8848 25.1403 40.5981 25.0629 41.7695 26.0292C43.0983 27.1256 43.215 29.1228 42.0137 30.3612C39.8714 32.5693 37.2736 35.2179 36.4365 35.9354C34.5768 37.5295 32.9119 38.754 31.0693 39.5751C29.2186 40.3997 27.2147 40.8055 24.6875 40.8055C19.7185 40.8053 16.3141 38.2881 14.6396 36.6766H11.833V39.7772H5.5V25.5526H11.833V25.5555H18.417C19.9333 25.5555 21.14 25.822 22.1289 26.3231C23.0374 26.7836 23.7344 27.4296 24.3125 28.1942H30.7783C32.1357 28.1943 33.2697 29.1362 33.5713 30.4012L37.8057 26.2088ZM41.1338 26.7997C40.3585 26.1602 39.224 26.2117 38.5098 26.9188L33.5469 31.8329C33.2121 33.0495 32.1013 33.9441 30.7783 33.9442H24.0605V32.9442H30.7783C31.8138 32.9441 32.6533 32.1047 32.6533 31.0692C32.6532 30.0339 31.8137 29.1943 30.7783 29.1942H23.8027L23.6523 28.9833C23.116 28.2268 22.4919 27.6289 21.6768 27.2157C20.8592 26.8014 19.8157 26.5555 18.417 26.5555H11.833V35.6766H15.0469L15.1934 35.8212C16.7124 37.3253 19.9338 39.8053 24.6875 39.8055C27.0982 39.8055 28.9596 39.4196 30.6621 38.661C32.3728 37.8987 33.9506 36.7481 35.7852 35.1756C36.5773 34.4966 39.1321 31.8953 41.2959 29.6649C42.0888 28.8475 42.0142 27.5262 41.1338 26.7997ZM6.5 38.7772H10.833V26.5526H6.5V38.7772Z" fill="black"/>
<path fill-rule="evenodd" clip-rule="evenodd" d="M26.3994 6C27.2278 6 27.8994 6.67157 27.8994 7.5V9.23535H31.5C32.0523 9.23535 32.5 9.68307 32.5 10.2354V20.999C32.4998 21.5165 32.1065 21.9428 31.6025 21.9941L31.5 21.999H16.5L16.3975 21.9941C15.8935 21.9428 15.5002 21.5165 15.5 20.999V10.2354C15.5 9.68307 15.9477 9.23535 16.5 9.23535H20.0996V7.5C20.0996 6.67166 20.7713 6.00013 21.5996 6H26.3994ZM16.5 20.999H31.5V10.2354H16.5V20.999ZM21.5996 7C21.3236 7.00013 21.0996 7.22394 21.0996 7.5V9.23535H26.8994V7.5C26.8994 7.22386 26.6756 7 26.3994 7H21.5996Z" fill="black"/>
</svg>
