<svg width="48" height="48" viewBox="0 0 48 48" fill="none" xmlns="http://www.w3.org/2000/svg">
<path fill-rule="evenodd" clip-rule="evenodd" d="M41.25 24C41.6642 24 42 24.3358 42 24.75V30.75L41.9961 30.8271C41.9601 31.1798 41.6798 31.4601 41.3271 31.4961L41.25 31.5H37.8125L34.9902 45.8467L34.0098 45.6533L36.7939 31.5H11.2061L13.9902 45.6533L13.0098 45.8467L10.1875 31.5H6.75L6.67285 31.4961C6.32024 31.4601 6.03994 31.1798 6.00391 30.8271L6 30.75V24.75C6 24.3358 6.33579 24 6.75 24H41.25ZM7 30.5H10.5L10.9902 30.4033L11.0088 30.5H36.9912L37.0098 30.4033L37.5 30.5H41V25H7V30.5Z" fill="black"/>
<path d="M15.9736 11.9473L10.8027 14.5322C10.464 14.7016 10.2501 15.0481 10.25 15.4268V22H9.25V15.4268C9.25011 14.6694 9.67815 13.9775 10.3555 13.6387L15.5264 11.0527L15.9736 11.9473Z" fill="black"/>
<path d="M24 16C29.2081 16 33.484 18.6364 33.9551 22H32.9414C32.7273 20.8285 31.9082 19.6916 30.5195 18.7725C28.8953 17.6974 26.593 17 24 17C21.407 17 19.1047 17.6974 17.4805 18.7725C16.0918 19.6916 15.2727 20.8285 15.0586 22H14.0449C14.516 18.6364 18.7919 16 24 16Z" fill="black"/>
<path fill-rule="evenodd" clip-rule="evenodd" d="M24 3C27.0376 3 29.5 5.46243 29.5 8.5C29.5 11.5376 27.0376 14 24 14C20.9624 14 18.5 11.5376 18.5 8.5C18.5 5.46243 20.9624 3 24 3ZM24 4C21.5147 4 19.5 6.01472 19.5 8.5C19.5 10.9853 21.5147 13 24 13C26.4853 13 28.5 10.9853 28.5 8.5C28.5 6.01472 26.4853 4 24 4Z" fill="black"/>
</svg>
