<svg width="48" height="48" viewBox="0 0 48 48" fill="none" xmlns="http://www.w3.org/2000/svg">
<path fill-rule="evenodd" clip-rule="evenodd" d="M13 28.5C13.2761 28.5 13.5 28.7239 13.5 29V37C13.5 37.2761 13.2761 37.5 13 37.5H9C8.72386 37.5 8.5 37.2761 8.5 37V29C8.5 28.7239 8.72386 28.5 9 28.5H13ZM9.5 36.5H12.5V29.5H9.5V36.5Z" fill="black"/>
<path fill-rule="evenodd" clip-rule="evenodd" d="M19 28.5C19.2761 28.5 19.5 28.7239 19.5 29V37C19.5 37.2761 19.2761 37.5 19 37.5H15C14.7239 37.5 14.5 37.2761 14.5 37V29C14.5 28.7239 14.7239 28.5 15 28.5H19ZM15.5 36.5H18.5V29.5H15.5V36.5Z" fill="black"/>
<path fill-rule="evenodd" clip-rule="evenodd" d="M25 28.5C25.2761 28.5 25.5 28.7239 25.5 29V37C25.5 37.2761 25.2761 37.5 25 37.5H21C20.7239 37.5 20.5 37.2761 20.5 37V29C20.5 28.7239 20.7239 28.5 21 28.5H25ZM21.5 36.5H24.5V29.5H21.5V36.5Z" fill="black"/>
<path fill-rule="evenodd" clip-rule="evenodd" d="M37.0586 5.5C37.3251 5.5 37.5454 5.70939 37.5586 5.97559L38.4756 24.5H42C42.2761 24.5 42.5 24.7239 42.5 25V41C42.5 41.2761 42.2761 41.5 42 41.5H6C5.86739 41.5 5.74025 41.4473 5.64648 41.3535C5.55272 41.2597 5.5 41.1326 5.5 41V25C5.5 24.8205 5.59605 24.6544 5.75195 24.5654L15.3984 19.0654C15.5532 18.9772 15.7434 18.9779 15.8975 19.0674C16.0515 19.1569 16.1465 19.3218 16.1465 19.5V24.1387L25.0449 19.0654C25.1996 18.9774 25.39 18.9779 25.5439 19.0674C25.6979 19.1569 25.792 19.3219 25.792 19.5V24.5H29.5244L30.4414 5.97559C30.4546 5.70939 30.6749 5.5 30.9414 5.5H37.0586ZM15.8936 25.4346C15.7388 25.5226 15.5485 25.5221 15.3945 25.4326C15.2406 25.3431 15.1465 25.1781 15.1465 25V20.3604L6.5 25.29V40.5H41.5V25.5H25.292C25.016 25.4998 24.792 25.276 24.792 25V20.3604L15.8936 25.4346ZM30.5254 24.5H37.4746L36.583 6.5H31.417L30.5254 24.5Z" fill="black"/>
</svg>
