<svg width="48" height="48" viewBox="0 0 48 48" fill="none" xmlns="http://www.w3.org/2000/svg">
<path fill-rule="evenodd" clip-rule="evenodd" d="M37.6533 3.00781C38.4097 3.08461 39 3.72334 39 4.5V43.5C39 44.2767 38.4097 44.9154 37.6533 44.9922L37.5 45H10.5C9.72334 45 9.08461 44.4097 9.00781 43.6533L9 43.5V4.5C9 3.67157 9.67157 3 10.5 3H37.5L37.6533 3.00781ZM10.5 4C10.2239 4 10 4.22386 10 4.5V43.5C10 43.7761 10.2239 44 10.5 44H37.5C37.7761 44 38 43.7761 38 43.5V4.5C38 4.22386 37.7761 4 37.5 4H10.5Z" fill="black"/>
<path fill-rule="evenodd" clip-rule="evenodd" d="M34.5 16.5H13.5V7.5H34.5V16.5ZM14.5 15.5H33.5V8.5H14.5V15.5Z" fill="black"/>
<path d="M33.2354 32.4219L30.4062 35.25L33.2354 38.0781L32.5283 38.7852L29.6992 35.9561L26.8711 38.7852L26.1641 38.0781L28.9922 35.25L26.1641 32.4219L26.8711 31.7148L29.6992 34.543L32.5283 31.7148L33.2354 32.4219Z" fill="black"/>
<path d="M21.4502 35.75H13.9502V34.75H21.4502V35.75Z" fill="black"/>
<path d="M18.2002 24.25H21.4502V25.25H18.2002V28.5H17.2002V25.25H13.9502V24.25H17.2002V21H18.2002V24.25Z" fill="black"/>
<path d="M31.9502 25.5C32.775 25.5002 33.4502 26.1751 33.4502 27C33.4502 27.8249 32.775 28.4998 31.9502 28.5C31.1252 28.5 30.4502 27.825 30.4502 27C30.4502 26.175 31.1252 25.5 31.9502 25.5Z" fill="black"/>
<path d="M33.2354 21.9219L26.8711 28.2852L26.1641 27.5781L32.5283 21.2148L33.2354 21.9219Z" fill="black"/>
<path d="M27.4502 21C28.2751 21.0001 28.9502 21.6751 28.9502 22.5C28.9502 23.3249 28.2751 23.9999 27.4502 24C26.6252 24 25.9502 23.325 25.9502 22.5C25.9502 21.675 26.6252 21 27.4502 21Z" fill="black"/>
</svg>
