<svg width="48" height="48" viewBox="0 0 48 48" fill="none" xmlns="http://www.w3.org/2000/svg">
<path fill-rule="evenodd" clip-rule="evenodd" d="M37.8057 26.2095C38.8848 25.1408 40.5981 25.0632 41.7695 26.0298C43.0983 27.1262 43.215 29.1234 42.0137 30.3618C39.8715 32.5699 37.2736 35.2185 36.4365 35.936C34.5769 37.53 32.9118 38.7547 31.0693 39.5757C29.2187 40.4002 27.2146 40.8061 24.6875 40.8061C19.7185 40.8059 16.3141 38.2887 14.6396 36.6772H11.833V39.7778H5.5V25.5532H11.833V25.5561H18.417C19.9335 25.5561 21.1399 25.8225 22.1289 26.3237C23.0375 26.7843 23.7343 27.4301 24.3125 28.1948H30.7783C32.1357 28.1949 33.2698 29.1367 33.5713 30.4018L37.8057 26.2095ZM41.1338 26.8003C40.3584 26.1605 39.2241 26.2122 38.5098 26.9194L33.5469 31.8335C33.2119 33.0499 32.1012 33.9447 30.7783 33.9448H24.0605V32.9448H30.7783C31.8136 32.9447 32.6531 32.1051 32.6533 31.0698C32.6533 30.0344 31.8137 29.1949 30.7783 29.1948H23.8027L23.6523 28.9839C23.116 28.2273 22.492 27.6296 21.6768 27.2163C20.8592 26.8019 19.8159 26.5561 18.417 26.5561H11.833V35.6772H15.0469L15.1934 35.8218C16.7125 37.3259 19.9338 39.8059 24.6875 39.8061C27.0981 39.8061 28.9596 39.4201 30.6621 38.6616C32.3727 37.8994 33.9507 36.7486 35.7852 35.1762C36.5773 34.4973 39.1321 31.8958 41.2959 29.6655C42.0888 28.8481 42.0142 27.5268 41.1338 26.8003ZM6.5 38.7778H10.833V26.5532H6.5V38.7778Z" fill="black"/>
<path fill-rule="evenodd" clip-rule="evenodd" d="M24 7C28.4183 7 32 10.5817 32 15C32 19.4183 28.4183 23 24 23C19.5817 23 16 19.4183 16 15C16 10.5817 19.5817 7 24 7ZM24 8C20.134 8 17 11.134 17 15C17 18.866 20.134 22 24 22C27.866 22 31 18.866 31 15C31 11.134 27.866 8 24 8Z" fill="black"/>
<path d="M23.6 19.59V18.34C23.14 18.32 22.7566 18.2633 22.45 18.17C22.15 18.07 21.9266 17.9767 21.78 17.89L22.06 17.09C22.2666 17.19 22.5133 17.2867 22.8 17.38C23.0866 17.4733 23.4466 17.52 23.88 17.52C24.36 17.52 24.6933 17.44 24.88 17.28C25.0733 17.1133 25.17 16.9033 25.17 16.65C25.17 16.47 25.1333 16.3167 25.06 16.19C24.9866 16.0633 24.88 15.9567 24.74 15.87C24.6066 15.7767 24.4433 15.69 24.25 15.61C24.0566 15.5233 23.8366 15.44 23.59 15.36C23.33 15.26 23.0733 15.1433 22.82 15.01C22.5666 14.8767 22.3566 14.7033 22.19 14.49C22.0233 14.27 21.94 13.9867 21.94 13.64C21.94 13.1667 22.0733 12.78 22.34 12.48C22.6066 12.1733 23.0266 11.9767 23.6 11.89V10.74H24.46V11.85C24.7866 11.87 25.07 11.91 25.31 11.97C25.5566 12.03 25.7566 12.0933 25.91 12.16L25.69 12.97C25.53 12.9033 25.3266 12.84 25.08 12.78C24.8333 12.7133 24.5333 12.68 24.18 12.68C23.7666 12.68 23.46 12.7533 23.26 12.9C23.0666 13.0467 22.97 13.2567 22.97 13.53C22.97 13.73 23.02 13.8933 23.12 14.02C23.2266 14.1467 23.3766 14.2533 23.57 14.34C23.7633 14.4267 24 14.5233 24.28 14.63C24.6333 14.7567 24.9533 14.9 25.24 15.06C25.5333 15.2133 25.7666 15.4133 25.94 15.66C26.1133 15.9 26.2 16.2167 26.2 16.61C26.2 16.8967 26.1366 17.1633 26.01 17.41C25.8833 17.65 25.69 17.85 25.43 18.01C25.1766 18.1633 24.8533 18.2633 24.46 18.31V19.59H23.6Z" fill="black"/>
</svg>
