<svg width="48" height="48" viewBox="0 0 48 48" fill="none" xmlns="http://www.w3.org/2000/svg">
<path d="M41.5752 24.2002H40.5752V21.207L30.9287 30.8535C30.835 30.9472 30.7077 30.9999 30.5752 31H18.707L8.35352 41.3535L7.64648 40.6465L18.1465 30.1465L18.2227 30.084C18.3042 30.0296 18.4006 30 18.5 30H30.3682L39.8682 20.5H36.875V19.5H41.5752V24.2002Z" fill="black"/>
<path d="M20 42H19V36H20V42Z" fill="black"/>
<path d="M26 42H25V34H26V42Z" fill="black"/>
<path d="M32 42H31V34H32V42Z" fill="black"/>
<path d="M38 42H37V27H38V42Z" fill="black"/>
<path d="M14.0896 7.30869C16.4479 6.21047 19.0658 5.7913 21.6491 6.09776C24.2325 6.4043 26.6797 7.42451 28.7156 9.04404C30.7515 10.6638 32.2961 12.8192 33.1755 15.2677C34.0549 17.7162 34.2351 20.3614 33.695 22.9063L33.2058 22.8028L32.7165 22.6983C33.2179 20.3353 33.0507 17.8791 32.2341 15.6056C31.4175 13.3321 29.9838 11.3312 28.0935 9.82725C26.2031 8.3233 23.9308 7.37564 21.532 7.09092C19.133 6.8063 16.7014 7.19511 14.5115 8.21494C12.3217 9.23477 10.4595 10.8452 9.13353 12.8644C7.80761 14.8836 7.07013 17.2328 7.00462 19.6476C6.93917 22.0624 7.54785 24.448 8.76243 26.5362C9.97708 28.6245 11.7501 30.3328 13.8816 31.4698L13.4109 32.3526C11.1154 31.1281 9.20625 29.288 7.89817 27.0392C6.5901 24.7903 5.93413 22.2209 6.00462 19.6202C6.07521 17.0197 6.86971 14.4901 8.29759 12.3155C9.72557 10.141 11.7313 8.40698 14.0896 7.30869Z" fill="black"/>
<path d="M20.6406 13.5422C21.121 13.5577 21.5457 13.611 21.9139 13.705C22.3126 13.7934 22.6489 13.8937 22.9193 14.0061L23.0008 14.0392L22.9742 14.1244L22.695 15.0276L22.6637 15.1289L22.5653 15.0891C22.3842 15.0148 22.1142 14.928 21.753 14.8297L21.7501 14.8288C21.4009 14.7233 20.9232 14.6688 20.313 14.6688C19.5425 14.6688 18.9814 14.8085 18.6156 15.073C18.2556 15.3335 18.0703 15.725 18.0703 16.264C18.0703 16.5596 18.124 16.8005 18.2246 16.9911C18.3267 17.1738 18.4748 17.3384 18.6733 17.4843C18.8741 17.6319 19.1194 17.7648 19.4099 17.8829C19.5574 17.9428 19.7135 18.0048 19.8775 18.0675L20.3954 18.2597L20.3973 18.2606C20.7926 18.414 21.1715 18.5734 21.5343 18.7378C21.9147 18.894 22.2477 19.0903 22.5302 19.3266C22.8265 19.5654 23.0618 19.8558 23.2327 20.1967C23.4058 20.5419 23.4892 20.9578 23.4893 21.4397C23.4893 22.2299 23.2283 22.8758 22.7016 23.3672C22.1938 23.8407 21.5032 24.1099 20.6406 24.188V26.3673H19.4742V24.2439C18.7646 24.2279 18.1667 24.1532 17.6831 24.0138H17.6812C17.185 23.8598 16.8087 23.7094 16.5574 23.5613L16.4893 23.5206L16.5148 23.4467L16.8282 22.5265L16.8651 22.4177L16.9655 22.4716C17.1055 22.5468 17.2623 22.623 17.436 22.6988C17.6068 22.7734 17.806 22.8432 18.0333 22.908C18.259 22.9723 18.5183 23.0257 18.8115 23.069C19.114 23.1012 19.4656 23.1173 19.8681 23.1173C20.2902 23.1173 20.6426 23.0746 20.9275 22.9904L20.9284 22.9895C21.2281 22.904 21.4633 22.7939 21.6375 22.661C21.8223 22.5174 21.9474 22.3508 22.0171 22.162L22.019 22.1583C22.1017 21.9623 22.143 21.7555 22.143 21.5382C22.143 21.1893 22.0739 20.9064 21.9423 20.6842L21.9404 20.6814C21.8168 20.4553 21.6356 20.2583 21.3942 20.0906L21.3894 20.0878L21.3904 20.0868C21.1581 19.9078 20.8702 19.7536 20.526 19.6248L20.5232 19.6239C20.173 19.482 19.7894 19.3348 19.3729 19.1818C19.075 19.0717 18.7719 18.9502 18.4632 18.8182L18.4603 18.8173C18.1465 18.672 17.8594 18.4976 17.6007 18.2957L17.5979 18.2928C17.3472 18.0769 17.1418 17.821 16.9825 17.526L16.9815 17.525C16.8193 17.2128 16.7402 16.8462 16.7401 16.4287C16.7401 15.6007 16.965 14.9485 17.4275 14.487C17.8841 14.0314 18.5711 13.7403 19.4742 13.6019V11.6327H20.6406V13.5422Z" fill="black"/>
</svg>
