<svg width="48" height="48" viewBox="0 0 48 48" fill="none" xmlns="http://www.w3.org/2000/svg">
<path d="M20 6.5H16.5135C16.3939 6.5 16.2783 6.54287 16.1876 6.62084L8.32617 13.3789L7.67383 12.6211L15.8165 5.62085C15.9072 5.54288 16.0228 5.5 16.1424 5.5H20V6.5Z" fill="black"/>
<path fill-rule="evenodd" clip-rule="evenodd" d="M39.5 8.49999C39.5 8.80347 39.2318 9.03698 38.9312 8.99523L29.9312 7.74543C29.684 7.7111 29.5 7.49975 29.5 7.25018V6.5H28V5.5H29.5V4.74982C29.5 4.50025 29.684 4.2889 29.9312 4.25457L38.9312 3.00477C39.2318 2.96302 39.5 3.19653 39.5 3.50001V8.49999ZM30.5 5.18457V6.81445L38.5 7.92578V4.07324L30.5 5.18457Z" fill="black"/>
<path fill-rule="evenodd" clip-rule="evenodd" d="M27 8.5C27 8.77614 26.7761 9 26.5 9H26V11.252C29.4505 12.14 32 15.2723 32 19V44.5C32 44.7761 31.7761 45 31.5 45H20.9629C21.4779 44.7197 21.9599 44.385 22.3994 44H31V19C31 15.7397 28.7702 12.9979 25.751 12.2207L25 12.0273V9H23V12.0273L22.249 12.2207C19.2298 12.9979 17 15.7397 17 19V28.0361C16.7841 27.8842 16.5592 27.7427 16.3262 27.6113H16.3242L16 27.4287V19C16 15.2723 18.5495 12.14 22 11.252V9H21.5C21.2239 9 21 8.77614 21 8.5V3.5C21 3.22386 21.2239 3 21.5 3H26.5C26.7761 3 27 3.22386 27 3.5V8.5ZM22 8H26V4H22V8Z" fill="black"/>
<path fill-rule="evenodd" clip-rule="evenodd" d="M14.7744 28.1589C14.769 28.0396 14.9065 27.9597 15.0137 28.0202L15.835 28.4821C16.9604 29.1167 17.8615 30.0275 18.5098 31.194C19.2931 32.5979 19.6506 33.8883 19.5771 35.0319C19.5752 35.066 19.5895 35.0999 19.6172 35.1227C19.6322 35.1361 19.6481 35.1441 19.6631 35.1481L19.7021 35.152C19.724 35.1501 19.7564 35.1423 19.7842 35.1139C20.1514 34.7232 20.4244 34.3262 20.5947 33.9352L20.6611 33.7682L20.9199 33.0593C20.9289 33.0358 20.9436 33.0145 20.9629 32.9977C20.9823 32.9809 21.0059 32.9688 21.0312 32.9626C21.0567 32.9564 21.0838 32.9566 21.1094 32.9626C21.1347 32.9685 21.1582 32.9802 21.1777 32.9968L21.7568 33.5046L22.0127 33.7399C22.5953 34.3049 23.0674 34.9665 23.4053 35.693C23.801 36.5423 24 37.4437 24 38.3708C24.0019 39.2587 23.8144 40.1383 23.4492 40.9548C23.0973 41.7431 22.5914 42.4533 21.9473 43.0612C21.3091 43.6678 20.5537 44.1506 19.7227 44.4811C18.8596 44.825 17.9446 44.9997 17 44.9997L16.6475 44.9919C15.8277 44.9537 15.0326 44.7818 14.2773 44.4792C13.5484 44.1883 12.8849 43.7853 12.2988 43.2819L12.0527 43.0593C11.4944 42.5315 11.0334 41.9182 10.6904 41.2448L10.5508 40.9528C10.2307 40.2365 10.0492 39.4817 10.0088 38.7038L10 38.3688C10.0006 37.3517 10.2468 36.3474 10.7197 35.4362C11.1345 34.6459 11.7086 33.9428 12.4072 33.3669L12.7148 33.1276C12.9757 32.9348 13.2192 32.7214 13.4424 32.4899L13.6592 32.2516C14.0104 31.8428 14.2947 31.3931 14.5068 30.9118L14.5938 30.7038C14.7726 30.2459 14.8482 29.6941 14.8184 29.071L14.7744 28.1589ZM15.8145 29.6511C15.7922 30.0625 15.727 30.4595 15.6084 30.8317L15.5254 31.0671C15.2647 31.7352 14.8913 32.3531 14.418 32.904C14.0892 33.286 13.7162 33.6311 13.3086 33.9323L13.3066 33.9343C12.5882 34.462 12.0075 35.1351 11.6055 35.9011C11.2569 36.5741 11.0552 37.3046 11.0098 38.0485L11 38.3688C11.0001 39.1247 11.1557 39.8536 11.4639 40.5436L11.582 40.7907C11.8724 41.3607 12.263 41.8825 12.7393 42.3327C13.2921 42.8544 13.9324 43.2647 14.6484 43.5505C15.3912 43.8481 16.1806 43.9997 17 43.9997C17.8194 43.9997 18.6087 43.8488 19.3525 43.5524C20.0671 43.2682 20.7145 42.854 21.2588 42.3366L21.2617 42.3346C21.8117 41.8156 22.2389 41.2125 22.5361 40.5466C22.8439 39.8583 23.0016 39.1181 23 38.3727V38.3708C23 37.59 22.8331 36.833 22.499 36.1159C22.2316 35.5408 21.8617 35.0118 21.4082 34.5514C21.1851 34.9916 20.8782 35.4096 20.5127 35.7985L20.499 35.8122C20.2497 36.0673 19.9585 36.1334 19.7891 36.1481C19.5872 36.1656 19.2692 36.1313 18.9844 35.8952L18.9834 35.8971C18.978 35.8927 18.9731 35.887 18.9678 35.8825C18.9626 35.8781 18.9563 35.8744 18.9512 35.8698L18.9521 35.8679C18.7228 35.6649 18.5954 35.3863 18.5791 35.1012V34.9675C18.6362 34.0778 18.3611 32.9813 17.6357 31.6813V31.6794C17.17 30.8413 16.5581 30.1666 15.8145 29.6511Z" fill="black"/>
</svg>
