<svg width="48" height="48" viewBox="0 0 48 48" fill="none" xmlns="http://www.w3.org/2000/svg">
<path d="M30.7979 35.4648L29.2881 36.9736C30.6078 36.8122 31.8511 36.4048 32.9727 35.8008L33.71 36.5381C32.3414 37.3224 30.7969 37.8346 29.1494 37.998L30.7979 39.6465L30.0908 40.3535L27.293 37.5557L30.0908 34.7578L30.7979 35.4648Z" fill="black"/>
<path d="M39.5 26.5557C39.5 29.379 38.4813 31.9636 36.793 33.9648L36.082 33.2539C37.5911 31.4365 38.5 29.1031 38.5 26.5557H39.5Z" fill="black"/>
<path d="M11.917 14.7451C10.408 16.5627 9.50003 18.897 9.5 21.4443H8.5C8.50003 18.621 9.51786 16.0357 11.2061 14.0342L11.917 14.7451Z" fill="black"/>
<path d="M20.707 10.4443L17.9092 13.2422L17.2021 12.5352L18.7109 11.0254C17.3912 11.187 16.147 11.593 15.0254 12.1973L14.2881 11.46C15.6566 10.6753 17.2021 10.1646 18.8496 10.001L17.2021 8.35352L17.9092 7.64648L20.707 10.4443Z" fill="black"/>
<path d="M41.8535 41.1465L41.1465 41.8535L6.14648 6.85352L6.85352 6.14648L41.8535 41.1465Z" fill="black"/>
<path d="M34.5 17H28.5V16H34.5V17Z" fill="black"/>
<path d="M38.5 14H28.5V13H38.5V14Z" fill="black"/>
<path fill-rule="evenodd" clip-rule="evenodd" d="M40.5 9C41.3284 9 42 9.67157 42 10.5V19.6455C42 20.4222 41.4097 21.0609 40.6533 21.1377L40.5 21.1455H31.8809L28.2383 24V21.1455H26.5L26.3467 21.1377C25.5903 21.0609 25 20.4222 25 19.6455V10.5C25 9.67157 25.6716 9 26.5 9H40.5ZM26.5 10C26.2239 10 26 10.2239 26 10.5V19.6455C26 19.9217 26.2239 20.1455 26.5 20.1455H29.2383V21.9453L31.5361 20.1455H40.5C40.7761 20.1455 41 19.9216 41 19.6455V10.5C41 10.2583 40.8286 10.0563 40.6006 10.0098L40.5 10H26.5Z" fill="black"/>
<path d="M16.5 35.5H11.5V34.5H16.5V35.5Z" fill="black"/>
<path d="M19.5 32.5H11.5V31.5H19.5V32.5Z" fill="black"/>
<path fill-rule="evenodd" clip-rule="evenodd" d="M17.1963 23.6475C17.3337 23.6475 17.4651 23.7039 17.5596 23.8037L21.8633 28.3564C21.9509 28.4493 22 28.5725 22 28.7002V41.5C21.9998 41.776 21.776 42 21.5 42H9.5C9.22399 42 9.00021 41.776 9 41.5V24.1475C9 23.9058 9.17149 23.7038 9.39941 23.6572L9.5 23.6475H17.1963ZM10 41H21V28.9902H17.6572C17.1051 28.9902 16.6574 28.5424 16.6572 27.9902V24.6475H10V41ZM17.6572 27.9902H20.1416L17.6572 25.3623V27.9902Z" fill="black"/>
</svg>
