<svg width="48" height="48" viewBox="0 0 48 48" fill="none" xmlns="http://www.w3.org/2000/svg">
<path fill-rule="evenodd" clip-rule="evenodd" d="M38 28C39.3807 28 40.5 29.1193 40.5 30.5C40.5 31.8807 39.3807 33 38 33C36.6193 33 35.5 31.8807 35.5 30.5C35.5 29.1193 36.6193 28 38 28ZM38 29C37.1716 29 36.5 29.6716 36.5 30.5C36.5 31.3284 37.1716 32 38 32C38.8284 32 39.5 31.3284 39.5 30.5C39.5 29.6716 38.8284 29 38 29Z" fill="black"/>
<path fill-rule="evenodd" clip-rule="evenodd" d="M24 28C25.3807 28 26.5 29.1193 26.5 30.5C26.5 31.8807 25.3807 33 24 33C22.6193 33 21.5 31.8807 21.5 30.5C21.5 29.1193 22.6193 28 24 28ZM24 29C23.1716 29 22.5 29.6716 22.5 30.5C22.5 31.3284 23.1716 32 24 32C24.8284 32 25.5 31.3284 25.5 30.5C25.5 29.6716 24.8284 29 24 29Z" fill="black"/>
<path fill-rule="evenodd" clip-rule="evenodd" d="M31 28C32.3807 28 33.5 29.1193 33.5 30.5C33.5 31.8807 32.3807 33 31 33C29.6193 33 28.5 31.8807 28.5 30.5C28.5 29.1193 29.6193 28 31 28ZM31 29C30.1716 29 29.5 29.6716 29.5 30.5C29.5 31.3284 30.1716 32 31 32C31.8284 32 32.5 31.3284 32.5 30.5C32.5 29.6716 31.8284 29 31 29Z" fill="black"/>
<path fill-rule="evenodd" clip-rule="evenodd" d="M9.5 11.5H17.5V3H18.5V11.5H26.5V3H27.5V11.5H43.5C44.6046 11.5 45.5 12.3954 45.5 13.5V36C45.5 37.1046 44.6046 38 43.5 38H39.5V46.5H38.5V38H18.5V46.5H17.5V38H14V46.5H13V38H9.5V46.5H8.5V38H4.5C3.39543 38 2.5 37.1046 2.5 36V13.5C2.5 12.3954 3.39543 11.5 4.5 11.5H8.5V3H9.5V11.5ZM4.5 12.5C3.94772 12.5 3.5 12.9477 3.5 13.5V36C3.5 36.5523 3.94772 37 4.5 37H43.5C44.0523 37 44.5 36.5523 44.5 36V13.5C44.5 12.9477 44.0523 12.5 43.5 12.5H4.5Z" fill="black"/>
</svg>
