<svg width="48" height="48" viewBox="0 0 48 48" fill="none" xmlns="http://www.w3.org/2000/svg">
<path d="M12.13 33.15H2.85001V32.64C2.97001 28 4.56001 23.63 7.44001 20L7.79001 19.56L14.4 26.17L14.17 26.51C12.94 28.33 12.24 30.46 12.15 32.66L12.13 33.14V33.15ZM3.88001 32.15H11.18C11.34 30.07 12.01 28.07 13.12 26.3L7.88001 21.06C5.45001 24.29 4.07001 28.1 3.88001 32.14V32.15ZM15.14 25.25L8.57001 18.68L8.92001 18.33C12.54 14.64 17.37 12.41 22.51 12.06L23.04 12.02V21.32L22.6 21.37C19.91 21.68 17.38 22.93 15.49 24.89L15.14 25.25ZM9.98001 18.68L15.13 23.84C17.03 22.03 19.46 20.84 22.04 20.44V13.1C17.5 13.54 13.26 15.5 9.97001 18.68H9.98001ZM32.5 24.88L32.15 24.55C30.12 22.63 27.47 21.48 24.69 21.32L24.22 21.29V12L24.74 12.02C29.98 12.2 34.94 14.31 38.71 17.96L39.08 18.31L32.51 24.88H32.5ZM25.22 20.35C27.9 20.6 30.45 21.7 32.48 23.49L37.64 18.33C34.22 15.18 29.85 13.32 25.22 13.04V20.35Z" fill="black"/>
<path d="M31.53 27.31L30.82 26.6L25.33 32.09C24.94 31.85 24.49 31.7 24 31.7C22.62 31.7 21.5 32.82 21.5 34.2C21.5 35.58 22.62 36.7 24 36.7C25.38 36.7 26.5 35.58 26.5 34.2C26.5 33.67 26.33 33.18 26.05 32.78L31.53 27.3V27.31ZM24 35.71C23.17 35.71 22.5 35.04 22.5 34.21C22.5 33.38 23.17 32.71 24 32.71C24.83 32.71 25.5 33.38 25.5 34.21C25.5 35.04 24.83 35.71 24 35.71Z" fill="black"/>
<path d="M45.15 33.15H35.87L35.85 32.67C35.76 30.29 34.96 28.02 33.54 26.11L33.28 25.76L39.87 19.17L40.22 19.59C43.28 23.24 45.02 27.88 45.14 32.64V33.15H45.15ZM36.82 32.15H44.12C43.92 27.92 42.43 23.97 39.8 20.65L34.59 25.86C35.88 27.73 36.64 29.89 36.82 32.15Z" fill="black"/>
</svg>
