<svg width="48" height="48" viewBox="0 0 48 48" fill="none" xmlns="http://www.w3.org/2000/svg">
<path fill-rule="evenodd" clip-rule="evenodd" d="M24 5.5C32.2317 5.5 39.206 10.8768 41.6064 18.3096C41.6652 18.3914 41.7001 18.4913 41.7002 18.5996L41.6992 18.6045C42.219 20.3116 42.5 22.1229 42.5 24C42.5 25.8764 42.2186 27.687 41.6992 29.3936L41.7002 29.3994C41.7002 29.5074 41.6647 29.6067 41.6064 29.6885C39.2065 37.1221 32.2323 42.5 24 42.5C15.7671 42.5 8.79112 37.1219 6.3916 29.6875C6.33416 29.6061 6.2998 29.5066 6.2998 29.3994V29.3936C5.78046 27.687 5.5 25.8763 5.5 24C5.5 22.123 5.78012 20.3115 6.2998 18.6045V18.5996C6.29989 18.4923 6.334 18.3929 6.3916 18.3115C8.79139 10.8776 15.7675 5.5 24 5.5ZM7.52051 29.8994C9.75709 36.1464 15.4438 40.7496 22.2852 41.415L21.9658 41.1934C18.0206 38.4486 15.2318 34.4289 13.9971 29.8994H7.52051ZM34.0029 29.8994C32.7683 34.4287 29.9802 38.4486 26.0352 41.1934L25.7148 41.415C32.5562 40.7496 38.2429 36.1464 40.4795 29.8994H34.0029ZM24.5 41.043L25.4648 40.3721C29.1381 37.8162 31.7553 34.0971 32.9639 29.8994H24.5V41.043ZM15.0361 29.8994C16.2447 34.0973 18.8626 37.8162 22.5361 40.3721L23.5 41.042V29.8994H15.0361ZM34.0264 19.0996C34.4799 20.8722 34.7168 22.7111 34.7168 24.5781C34.7168 26.0465 34.5562 27.4941 34.249 28.8994H40.8037C41.2563 27.3447 41.5 25.7008 41.5 24C41.5 22.2988 41.2564 20.6546 40.8037 19.0996H34.0264ZM24.5 28.8994H33.2227C33.546 27.4967 33.7168 26.0485 33.7168 24.5781C33.7168 22.7083 33.4667 20.8682 32.9912 19.0996H24.5V28.8994ZM15.0088 19.0996C14.5334 20.8683 14.2842 22.7083 14.2842 24.5781C14.2842 26.0485 14.454 27.4967 14.7773 28.8994H23.5V19.0996H15.0088ZM7.19629 19.0996C6.74357 20.6546 6.5 22.2988 6.5 24C6.5 25.7008 6.74374 27.3447 7.19629 28.8994H13.751C13.4438 27.4941 13.2842 26.0465 13.2842 24.5781C13.2842 22.7111 13.5202 20.8722 13.9736 19.0996H7.19629ZM26.5117 7.38867C29.9742 10.1896 32.4672 13.9349 33.7441 18.0996H40.4795C38.2184 11.7851 32.4318 7.14919 25.4912 6.56348L26.5117 7.38867ZM24.5 18.0996H32.6963C31.4515 14.2407 29.1073 10.7744 25.8828 8.16602L24.5 7.04688V18.0996ZM22.1172 8.16602C18.8927 10.7744 16.5483 14.2406 15.3037 18.0996H23.5V7.04688L22.1172 8.16602ZM22.5078 6.56348C15.5676 7.14954 9.78154 11.7854 7.52051 18.0996H14.2559C15.5325 13.9348 18.0258 10.1896 21.4883 7.38867L22.5078 6.56348Z" fill="black"/>
</svg>
