<svg width="48" height="48" viewBox="0 0 48 48" fill="none" xmlns="http://www.w3.org/2000/svg">
<path fill-rule="evenodd" clip-rule="evenodd" d="M24 18C27.3137 18 30 20.6863 30 24C30 27.3137 27.3137 30 24 30C20.6863 30 18 27.3137 18 24C18 20.6863 20.6863 18 24 18ZM24 19C21.2386 19 19 21.2386 19 24C19 26.7614 21.2386 29 24 29C26.7614 29 29 26.7614 29 24C29 21.2386 26.7614 19 24 19Z" fill="black"/>
<path fill-rule="evenodd" clip-rule="evenodd" d="M24.5 38C24.5 38.0166 24.4967 38.0327 24.4951 38.0488C25.6387 38.2786 26.5 39.2888 26.5 40.5C26.5 41.8807 25.3807 43 24 43C22.6193 43 21.5 41.8807 21.5 40.5C21.5 39.2891 22.3608 38.2789 23.5039 38.0488C23.5023 38.0327 23.5 38.0165 23.5 38V31.9824C23.6654 31.9926 23.832 32 24 32C24.168 32 24.3346 31.9926 24.5 31.9824V38ZM24 39C23.1716 39 22.5 39.6716 22.5 40.5C22.5 41.3284 23.1716 42 24 42C24.8284 42 25.5 41.3284 25.5 40.5C25.5 39.6716 24.8284 39 24 39Z" fill="black"/>
<path fill-rule="evenodd" clip-rule="evenodd" d="M18.002 29.29C18.2228 29.5402 18.4588 29.7762 18.709 29.9971L14.585 34.1211C14.8469 34.5164 15 34.9902 15 35.5C15 36.8807 13.8807 38 12.5 38C11.1193 38 10 36.8807 10 35.5C10 34.1193 11.1193 33 12.5 33C13.0093 33 13.4828 33.1525 13.8779 33.4141L18.002 29.29ZM12.5 34C11.6716 34 11 34.6716 11 35.5C11 36.3284 11.6716 37 12.5 37C13.3284 37 14 36.3284 14 35.5C14 34.6716 13.3284 34 12.5 34Z" fill="black"/>
<path fill-rule="evenodd" clip-rule="evenodd" d="M34.1211 33.4141C34.5163 33.1523 34.9904 33 35.5 33C36.8807 33 38 34.1193 38 35.5C38 36.8807 36.8807 38 35.5 38C34.1193 38 33 36.8807 33 35.5C33 34.9904 33.1523 34.5163 33.4141 34.1211L29.29 29.9971C29.5402 29.7762 29.7762 29.5402 29.9971 29.29L34.1211 33.4141ZM35.5 34C34.6716 34 34 34.6716 34 35.5C34 36.3284 34.6716 37 35.5 37C36.3284 37 37 36.3284 37 35.5C37 34.6716 36.3284 34 35.5 34Z" fill="black"/>
<path fill-rule="evenodd" clip-rule="evenodd" d="M7.5 21.5C8.71082 21.5 9.72003 22.3609 9.9502 23.5039C9.96662 23.5023 9.98314 23.5 10 23.5H16.0176C16.0074 23.6654 16 23.832 16 24C16 24.168 16.0074 24.3346 16.0176 24.5H10C9.98311 24.5 9.96665 24.4968 9.9502 24.4951C9.72039 25.6386 8.71115 26.5 7.5 26.5C6.11929 26.5 5 25.3807 5 24C5 22.6193 6.11929 21.5 7.5 21.5ZM7.5 22.5C6.67157 22.5 6 23.1716 6 24C6 24.8284 6.67157 25.5 7.5 25.5C8.32843 25.5 9 24.8284 9 24C9 23.1716 8.32843 22.5 7.5 22.5Z" fill="black"/>
<path fill-rule="evenodd" clip-rule="evenodd" d="M40.5 21.5C41.8807 21.5 43 22.6193 43 24C43 25.3807 41.8807 26.5 40.5 26.5C39.2885 26.5 38.2782 25.6382 38.0488 24.4941C38.0326 24.4957 38.0166 24.5 38 24.5H31.9824C31.9926 24.3346 32 24.168 32 24C32 23.832 31.9926 23.6654 31.9824 23.5H38C38.0166 23.5 38.0327 23.5033 38.0488 23.5049C38.2786 22.3613 39.2888 21.5 40.5 21.5ZM40.5 22.5C39.6716 22.5 39 23.1716 39 24C39 24.8284 39.6716 25.5 40.5 25.5C41.3284 25.5 42 24.8284 42 24C42 23.1716 41.3284 22.5 40.5 22.5Z" fill="black"/>
<path fill-rule="evenodd" clip-rule="evenodd" d="M12.5 10C13.8807 10 15 11.1193 15 12.5C15 13.0095 14.8467 13.4827 14.585 13.8779L18.709 18.002C18.4588 18.2228 18.2228 18.4588 18.002 18.709L13.8779 14.585C13.4827 14.8467 13.0095 15 12.5 15C11.1193 15 10 13.8807 10 12.5C10 11.1193 11.1193 10 12.5 10ZM12.5 11C11.6716 11 11 11.6716 11 12.5C11 13.3284 11.6716 14 12.5 14C13.3284 14 14 13.3284 14 12.5C14 11.6716 13.3284 11 12.5 11Z" fill="black"/>
<path fill-rule="evenodd" clip-rule="evenodd" d="M35.5 10C36.8807 10 38 11.1193 38 12.5C38 13.8807 36.8807 15 35.5 15C34.9902 15 34.5164 14.8469 34.1211 14.585L29.9971 18.709C29.7762 18.4588 29.5402 18.2228 29.29 18.002L33.4141 13.8779C33.1525 13.4828 33 13.0093 33 12.5C33 11.1193 34.1193 10 35.5 10ZM35.5 11C34.6716 11 34 11.6716 34 12.5C34 13.3284 34.6716 14 35.5 14C36.3284 14 37 13.3284 37 12.5C37 11.6716 36.3284 11 35.5 11Z" fill="black"/>
<path fill-rule="evenodd" clip-rule="evenodd" d="M24 5C25.3807 5 26.5 6.11929 26.5 7.5C26.5 8.71115 25.6386 9.72039 24.4951 9.9502C24.4968 9.96666 24.5 9.98311 24.5 10V16.0166C24.3346 16.0064 24.168 16 24 16C23.832 16 23.6654 16.0064 23.5 16.0166V10C23.5 9.98314 23.5023 9.96662 23.5039 9.9502C22.3609 9.72003 21.5 8.71082 21.5 7.5C21.5 6.11929 22.6193 5 24 5ZM24 6C23.1716 6 22.5 6.67157 22.5 7.5C22.5 8.32843 23.1716 9 24 9C24.8284 9 25.5 8.32843 25.5 7.5C25.5 6.67157 24.8284 6 24 6Z" fill="black"/>
</svg>
