<svg width="48" height="48" viewBox="0 0 48 48" fill="none" xmlns="http://www.w3.org/2000/svg">
<path fill-rule="evenodd" clip-rule="evenodd" d="M24.5 33.7998C28.3661 33.7998 31.4998 35.8474 31.5 38.3701V41.417L31.4883 41.5342C31.4417 41.7621 31.2621 41.9417 31.0342 41.9883L30.917 42H18.083C17.8012 41.9998 17.5661 41.7999 17.5117 41.5342L17.5 41.417V38.3701C17.5002 35.8474 20.6339 33.7998 24.5 33.7998ZM24.5 34.7998C22.7328 34.7998 21.1786 35.27 20.0967 35.9766C19.0059 36.689 18.5001 37.5571 18.5 38.3701V41H30.5V38.3701C30.4999 37.5571 29.9941 36.689 28.9033 35.9766C27.8214 35.27 26.2672 34.7998 24.5 34.7998Z" fill="black"/>
<path fill-rule="evenodd" clip-rule="evenodd" d="M24.5 25C26.5711 25 28.25 26.6789 28.25 28.75C28.25 30.8211 26.5711 32.5 24.5 32.5C22.4289 32.5 20.75 30.8211 20.75 28.75C20.75 26.6789 22.4289 25 24.5 25ZM24.5 26C22.9812 26 21.75 27.2312 21.75 28.75C21.75 30.2688 22.9812 31.5 24.5 31.5C26.0188 31.5 27.25 30.2688 27.25 28.75C27.25 27.2312 26.0188 26 24.5 26Z" fill="black"/>
<path d="M45 24C45 26.8679 44.4121 29.7057 43.2734 32.3379C42.2862 34.6199 40.903 36.7057 39.1904 38.5H43.5V39.5H37V33H38V38.2803C39.8472 36.4693 41.3284 34.3171 42.3564 31.9404C43.4408 29.4337 44 26.7313 44 24H45Z" fill="black"/>
<path d="M4 24C4 26.7283 4.55855 29.4281 5.64062 31.9326C6.66897 34.3126 8.15041 36.4681 10 38.2812V33H11V39.5H4.5V38.5H8.80957C7.09478 36.7033 5.71009 34.6145 4.72266 32.3291C3.58648 29.6993 3 26.8647 3 24H4Z" fill="black"/>
<path fill-rule="evenodd" clip-rule="evenodd" d="M35 14.7998C38.8661 14.7998 41.9998 16.8474 42 19.3701V22.416C42 22.7381 41.739 22.9998 41.417 23H28.583L28.4658 22.9883C28.2 22.9339 28 22.6979 28 22.416V19.3701C28.0002 16.8474 31.1339 14.7998 35 14.7998ZM35 15.7998C33.2328 15.7998 31.6786 16.27 30.5967 16.9766C29.506 17.689 29.0001 18.5572 29 19.3701V22H41V19.3701C40.9999 18.5572 40.494 17.689 39.4033 16.9766C38.3214 16.27 36.7672 15.7998 35 15.7998Z" fill="black"/>
<path fill-rule="evenodd" clip-rule="evenodd" d="M35 6C37.0711 6 38.75 7.67893 38.75 9.75C38.75 11.8211 37.0711 13.5 35 13.5C32.9289 13.5 31.25 11.8211 31.25 9.75C31.25 7.67893 32.9289 6 35 6ZM35 7C33.4812 7 32.25 8.23122 32.25 9.75C32.25 11.2688 33.4812 12.5 35 12.5C36.5188 12.5 37.75 11.2688 37.75 9.75C37.75 8.23122 36.5188 7 35 7Z" fill="black"/>
<path fill-rule="evenodd" clip-rule="evenodd" d="M13 14.7998C16.8661 14.7998 19.9998 16.8474 20 19.3701V22.416C20 22.7381 19.739 22.9998 19.417 23H6.58301L6.46582 22.9883C6.19997 22.9339 6 22.6979 6 22.416V19.3701C6.00016 16.8474 9.13395 14.7998 13 14.7998ZM13 15.7998C11.2328 15.7998 9.67862 16.27 8.59668 16.9766C7.50595 17.689 7.00008 18.5572 7 19.3701V22H19V19.3701C18.9999 18.5572 18.494 17.689 17.4033 16.9766C16.3214 16.27 14.7672 15.7998 13 15.7998Z" fill="black"/>
<path fill-rule="evenodd" clip-rule="evenodd" d="M13 6C15.0711 6 16.75 7.67893 16.75 9.75C16.75 11.8211 15.0711 13.5 13 13.5C10.9289 13.5 9.25 11.8211 9.25 9.75C9.25 7.67893 10.9289 6 13 6ZM13 7C11.4812 7 10.25 8.23122 10.25 9.75C10.25 11.2688 11.4812 12.5 13 12.5C14.5188 12.5 15.75 11.2688 15.75 9.75C15.75 8.23122 14.5188 7 13 7Z" fill="black"/>
</svg>
