<svg width="48" height="48" viewBox="0 0 48 48" fill="none" xmlns="http://www.w3.org/2000/svg">
<path fill-rule="evenodd" clip-rule="evenodd" d="M28.3975 8.72559L28.3984 8.72852C28.8126 10.025 29.6713 11.1126 30.8018 11.7891C31.9312 12.4647 33.2578 12.6866 34.5312 12.418L37.7461 11.7432L41.1514 17.8398L39.0039 20.3311L39.0049 20.332C38.1351 21.3452 37.6504 22.6581 37.6504 24.0225C37.6505 25.3863 38.1346 26.699 39.0039 27.7119L41.1514 30.2051L38.1055 35.6592L37.7461 36.3008L37.0264 36.1504L34.5322 35.626C33.2586 35.3573 31.9312 35.58 30.8018 36.2559C29.6713 36.9324 28.8125 38.0189 28.3984 39.3154L28.3965 39.3232L27.3672 42.4551H20.4922L19.5186 39.2715C19.1045 37.9752 18.2465 36.8884 17.1162 36.2119C15.9866 35.5359 14.6595 35.3142 13.3857 35.583L10.1777 36.2559L6.71973 30.1885L7.17969 29.6533L8.87109 27.6895L8.87305 27.6875C9.75274 26.6722 10.2431 25.3515 10.2432 23.9785C10.2431 22.6055 9.75274 21.2849 8.87305 20.2695L8.87109 20.2676L6.72168 17.7715L10.1318 11.7217L10.8486 11.873L13.3428 12.3965C14.6164 12.6651 15.9438 12.4424 17.0732 11.7666C18.2037 11.0901 19.0624 10.0035 19.4766 8.70703L19.4785 8.70117L20.5059 5.5459H27.3711L28.3975 8.72559ZM20.4287 9.01172L20.332 9.29395C19.8152 10.6932 18.8471 11.8709 17.5869 12.625L17.332 12.7695C16.045 13.4603 14.5637 13.6761 13.1367 13.375L10.6426 12.8516L7.9375 17.6514L9.62793 19.6152C10.6676 20.8152 11.2431 22.3686 11.2432 23.9785L11.2363 24.2793C11.1694 25.781 10.6027 27.2167 9.62793 28.3418L7.9375 30.3057L10.6855 35.1279L13.1797 34.6045C14.7018 34.2834 16.2848 34.5502 17.6289 35.3545C18.973 36.1589 19.9843 37.4446 20.4707 38.9678L21.2324 41.4551H26.6426L27.4463 39.0117C27.9023 37.5838 28.8197 36.3643 30.04 35.5547L30.2881 35.3975C31.6322 34.5932 33.2161 34.3263 34.7383 34.6475L37.2324 35.1709L39.9375 30.3281L38.2471 28.3643C37.2832 27.2418 36.7234 25.8136 36.6572 24.3213L36.6504 24.0225C36.6504 22.4226 37.2191 20.8779 38.2471 19.6807L39.9375 17.7168L37.2324 12.873L34.7383 13.3965C33.3113 13.6976 31.83 13.4819 30.543 12.791L30.2881 12.6465C29.0281 11.8925 28.0599 10.7154 27.543 9.31641L27.4463 9.0332L26.6426 6.5459H21.2324L20.4287 9.01172Z" fill="black"/>
<path fill-rule="evenodd" clip-rule="evenodd" d="M24 15C28.9706 15 33 19.0294 33 24C33 28.9706 28.9706 33 24 33C19.0294 33 15 28.9706 15 24C15 19.0294 19.0294 15 24 15ZM24 16C19.5817 16 16 19.5817 16 24C16 28.4183 19.5817 32 24 32C28.4183 32 32 28.4183 32 24C32 19.5817 28.4183 16 24 16Z" fill="black"/>
<path d="M24.7998 28.5H23.2002V22.5H24.7998V28.5Z" fill="black"/>
<path d="M24 19C24.5523 19 25 19.4477 25 20C25 20.5523 24.5523 21 24 21C23.4477 21 23 20.5523 23 20C23 19.4477 23.4477 19 24 19Z" fill="black"/>
</svg>
