<svg width="48" height="48" viewBox="0 0 48 48" fill="none" xmlns="http://www.w3.org/2000/svg">
<path d="M39.5 26.5557C39.4999 32.5189 34.9609 37.4213 29.1494 37.998L30.7979 39.6465L30.0908 40.3535L27.293 37.5557L30.0908 34.7578L30.7979 35.4648L29.2881 36.9736C34.4792 36.3384 38.4999 31.9184 38.5 26.5557H39.5Z" fill="black"/>
<path d="M20.707 10.4443L17.9092 13.2422L17.2021 12.5352L18.7109 11.0254C13.5203 11.661 9.50006 16.0819 9.5 21.4443H8.5C8.50006 15.4814 13.0385 10.5781 18.8496 10.001L17.2021 8.35352L17.9092 7.64648L20.707 10.4443Z" fill="black"/>
<path fill-rule="evenodd" clip-rule="evenodd" d="M16.9414 25.5C19.4914 25.5002 21.5262 27.5886 21.5264 30.1426C21.5264 30.1801 21.523 30.2178 21.5215 30.2549C23.778 30.5521 25.5 32.4912 25.5 34.8574C25.4999 37.4114 23.465 39.4998 20.915 39.5H10.085C7.53499 39.4997 5.50013 37.4114 5.5 34.8574C5.5 32.8595 6.73411 31.078 8.60645 30.4629V30.1719C8.60645 28.4698 9.9745 27.0997 11.6523 27.0996C12.1965 27.0996 12.7195 27.2503 13.1826 27.5293C14.0258 26.2849 15.4282 25.5 16.9414 25.5ZM16.9414 26.5C15.6267 26.5 14.3944 27.2728 13.7764 28.4844L13.4805 29.0645L12.9971 28.6289C12.6101 28.2802 12.1402 28.0996 11.6523 28.0996C10.532 28.0997 9.60645 29.0168 9.60645 30.1719V31.2393L9.21875 31.3291C7.61249 31.702 6.5 33.1614 6.5 34.8574C6.50013 36.8743 8.10238 38.4997 10.085 38.5H20.915C22.8976 38.4998 24.4999 36.8743 24.5 34.8574C24.5 32.8393 22.9228 31.2389 20.9639 31.2139L20.3711 31.207L20.4785 30.623L20.4795 30.6221C20.4795 30.6221 20.4799 30.6183 20.4805 30.6152C20.4817 30.6083 20.4831 30.597 20.4854 30.583C20.4899 30.5549 20.4968 30.514 20.5029 30.4658C20.5157 30.3664 20.5264 30.247 20.5264 30.1426C20.5262 28.1256 18.924 26.5002 16.9414 26.5Z" fill="black"/>
<path fill-rule="evenodd" clip-rule="evenodd" d="M34.0127 12.3662C35.3472 12.5019 36.3885 13.6297 36.3887 15L36.375 15.2705C36.2393 16.605 35.1125 17.6463 33.7422 17.6465L33.4707 17.6328C32.2253 17.506 31.235 16.516 31.1084 15.2705L31.0947 15C31.0949 13.5383 32.2805 12.3527 33.7422 12.3525L34.0127 12.3662ZM33.7422 13.3525C32.8328 13.3527 32.0949 14.0906 32.0947 15C32.0949 15.9094 32.8328 16.6464 33.7422 16.6465C34.6515 16.6463 35.3885 15.9093 35.3887 15C35.3885 14.0907 34.6515 13.3528 33.7422 13.3525Z" fill="black"/>
<path fill-rule="evenodd" clip-rule="evenodd" d="M36.3174 7.87793L36.3184 7.88086C36.4688 8.34365 36.7807 8.73074 37.1904 8.97168C37.5999 9.21234 38.0806 9.29186 38.542 9.19629L40.4102 8.81152L42.375 12.2656L41.1221 13.6914L41.123 13.6924C40.8072 14.0536 40.6309 14.5224 40.6309 15.0098C40.6309 15.4967 40.8068 15.9651 41.1221 16.3262L42.375 17.7539L40.4102 21.208L38.543 20.8232C38.0816 20.7277 37.5998 20.8063 37.1904 21.0469C36.7806 21.2878 36.4689 21.6758 36.3184 22.1387L36.3154 22.1465L35.7148 23.9414H31.7529L31.1855 22.1182L31.1211 21.9482C30.9549 21.561 30.671 21.238 30.3125 21.0273C29.9031 20.7869 29.4222 20.7081 28.9609 20.8037L27.0996 21.1875L25.1045 17.749L26.3613 16.3154L26.3633 16.3135C26.6826 15.9515 26.8612 15.4806 26.8613 14.9902C26.8613 14.4998 26.6826 14.028 26.3633 13.666L26.3613 13.6641L25.1074 12.2334L27.0762 8.80176L28.9404 9.18652C29.4019 9.28215 29.8835 9.20253 30.293 8.96191C30.7029 8.72099 31.0155 8.33402 31.166 7.87109L31.167 7.86523L31.7666 6.05859H35.7188L36.3174 7.87793ZM32.1162 8.18066L32.0205 8.43457C31.7714 9.01589 31.3447 9.50396 30.7998 9.82422C30.1772 10.1901 29.4434 10.3121 28.7383 10.166L27.583 9.92773L26.3301 12.1113L27.1133 13.0049C27.5948 13.5508 27.8613 14.2579 27.8613 14.9902L27.8486 15.2627C27.7911 15.8963 27.5348 16.4978 27.1133 16.9756L26.3301 17.8682L27.6025 20.0625L28.7578 19.8242C29.4628 19.6781 30.1968 19.7993 30.8193 20.165C31.4419 20.531 31.9104 21.1167 32.1357 21.8096L32.4883 22.9414H34.9951L35.3672 21.8291C35.5644 21.2226 35.9479 20.6986 36.458 20.332L36.6836 20.1855C37.3062 19.8196 38.04 19.6977 38.7451 19.8438L39.9004 20.082L41.1533 17.8789L40.3701 16.9854C39.9535 16.5088 39.7004 15.9107 39.6436 15.2812L39.6309 15.0098C39.6309 14.2819 39.8939 13.5788 40.3701 13.0342L41.1533 12.1406L39.9004 9.9375L38.7451 10.1758C38.04 10.3219 37.3062 10.1999 36.6836 9.83398C36.1388 9.51368 35.7119 9.02563 35.4629 8.44434L35.3672 8.19043L34.9951 7.05859H32.4883L32.1162 8.18066Z" fill="black"/>
</svg>
