<svg width="48" height="48" viewBox="0 0 48 48" fill="none" xmlns="http://www.w3.org/2000/svg">
<path d="M10.5625 32.6875C11.1148 32.6875 11.5625 33.1352 11.5625 33.6875C11.5625 34.2398 11.1148 34.6875 10.5625 34.6875C10.0102 34.6875 9.5625 34.2398 9.5625 33.6875C9.5625 33.1352 10.0102 32.6875 10.5625 32.6875Z" fill="black"/>
<path d="M18.4375 32.6875C18.9898 32.6875 19.4375 33.1352 19.4375 33.6875C19.4375 34.2398 18.9898 34.6875 18.4375 34.6875C17.8852 34.6875 17.4375 34.2398 17.4375 33.6875C17.4375 33.1352 17.8852 32.6875 18.4375 32.6875Z" fill="black"/>
<path fill-rule="evenodd" clip-rule="evenodd" d="M18.625 25.875C18.8205 25.875 18.9976 25.9893 19.0791 26.167L21.0078 30.375H23.5V31.375H21.75V36.5C21.75 36.7761 21.5261 37 21.25 37H21.1875V39.3125C21.1875 39.5886 20.9636 39.8125 20.6875 39.8125H18.4375C18.1614 39.8125 17.9375 39.5886 17.9375 39.3125V37H11.0625V39.3125C11.0625 39.5886 10.8386 39.8125 10.5625 39.8125H8.3125C8.03636 39.8125 7.8125 39.5886 7.8125 39.3125V37H7.75C7.47386 37 7.25 36.7761 7.25 36.5V31.375H5.5V30.375H7.99219L9.9209 26.167L9.95508 26.1035C10.0463 25.9624 10.2038 25.875 10.375 25.875H18.625ZM8.8125 38.8125H10.0625V37H8.8125V38.8125ZM18.9375 38.8125H20.1875V37H18.9375V38.8125ZM8.25 36H20.75V31.375H8.25V36ZM9.09082 30.375H19.9092L18.3047 26.875H10.6953L9.09082 30.375Z" fill="black"/>
<path d="M26.3486 34.502C28.33 36.4313 30.8704 37.4917 33.4941 37.5C36.1206 37.4986 38.6652 36.4423 40.6514 34.5146L41 34.874L41.3486 35.2324C39.3205 37.2009 36.74 38.3494 34.0361 38.4863L33.4941 38.5H33.4922C30.5956 38.4912 27.8093 37.3199 25.6514 35.2188L26.3486 34.502Z" fill="black"/>
<path d="M28.5547 32.0527C29.9442 33.35 31.6932 34.0617 33.4961 34.0771C35.3043 34.0755 37.0627 33.3734 38.4619 32.0801L38.8008 32.4473L39.1406 32.8145C37.5651 34.2708 35.5665 35.076 33.4941 35.0771H33.4902C31.4241 35.0601 29.4363 34.2437 27.8721 32.7832L28.2129 32.418L28.5547 32.0527Z" fill="black"/>
<path d="M30.7246 29.6162C31.5288 30.2872 32.5008 30.6479 33.4951 30.6543C34.4915 30.6529 35.4667 30.2954 36.2744 29.626L36.5938 30.0107L36.9131 30.3965C35.9332 31.2085 34.7333 31.653 33.4941 31.6543H33.4912C32.2546 31.6468 31.0593 31.1976 30.084 30.3838L30.7246 29.6162Z" fill="black"/>
<path d="M14.5088 16.3457C15.7454 16.3532 16.9407 16.8024 17.916 17.6162L17.2754 18.3838C16.4712 17.7128 15.4992 17.3522 14.5049 17.3457C13.5085 17.3471 12.5333 17.7046 11.7256 18.374L11.4062 17.9893L11.0869 17.6035C12.0668 16.7915 13.2667 16.3469 14.5059 16.3457H14.5088Z" fill="black"/>
<path d="M14.5098 12.9229C16.5759 12.9399 18.5637 13.7563 20.1279 15.2168L19.7871 15.582L19.4453 15.9473C18.0558 14.65 16.3068 13.9383 14.5039 13.9229C12.6957 13.9245 10.9373 14.6266 9.53809 15.9199L9.19922 15.5527L8.85938 15.1855C10.4349 13.7292 12.4335 12.924 14.5059 12.9229H14.5098Z" fill="black"/>
<path d="M14.5078 9.5C17.4044 9.50879 20.1907 10.6801 22.3486 12.7812L21.6514 13.498C19.67 11.5687 17.1296 10.5083 14.5059 10.5C11.8794 10.5014 9.33484 11.5577 7.34863 13.4854L7 13.126L6.65137 12.7676C8.67948 10.7991 11.26 9.65064 13.9639 9.51367L14.5059 9.5H14.5078Z" fill="black"/>
<path d="M34.125 17.25C34.6773 17.25 35.125 17.6977 35.125 18.25C35.125 18.8023 34.6773 19.25 34.125 19.25C33.5727 19.25 33.125 18.8023 33.125 18.25C33.125 17.6977 33.5727 17.25 34.125 17.25Z" fill="black"/>
<path d="M37.5 17.25C38.0523 17.25 38.5 17.6977 38.5 18.25C38.5 18.8023 38.0523 19.25 37.5 19.25C36.9477 19.25 36.5 18.8023 36.5 18.25C36.5 17.6977 36.9477 17.25 37.5 17.25Z" fill="black"/>
<path fill-rule="evenodd" clip-rule="evenodd" d="M28.2764 11.3418H30.4111V8.70801H31.4111V11.3418H39.79C40.3547 11.3418 40.8125 11.7996 40.8125 12.3643V20.1992C40.8121 20.7635 40.3544 21.2217 39.79 21.2217H38.7236V23.8545H37.7236V21.2217H29.3213V23.8545H28.3213V21.2217H26.21C25.6456 21.2217 25.1879 20.7635 25.1875 20.1992V12.3643C25.1875 11.7996 25.6453 11.3418 26.21 11.3418H27.2764V8.70801H28.2764V11.3418ZM26.21 12.3418C26.1976 12.3418 26.1875 12.3519 26.1875 12.3643V20.1992C26.1879 20.2112 26.1979 20.2217 26.21 20.2217H39.79C39.8021 20.2217 39.8121 20.2112 39.8125 20.1992V12.3643C39.8125 12.3519 39.8024 12.3418 39.79 12.3418H26.21Z" fill="black"/>
</svg>
