<svg width="48" height="48" viewBox="0 0 48 48" fill="none" xmlns="http://www.w3.org/2000/svg">
<path fill-rule="evenodd" clip-rule="evenodd" d="M9.64648 27.0254L8.93945 27.7324L7.05762 25.8506C7.52053 29.9771 9.48025 33.7982 12.5742 36.584L12.2393 36.9551L11.9053 37.3271C8.62797 34.3762 6.55265 30.3283 6.06348 25.957L4.28906 27.7324L3.58203 27.0254L6.61426 23.9932L9.64648 27.0254ZM6.60938 25.4111L6.61719 25.4102L6.61426 25.4072L6.60938 25.4111Z" fill="black"/>
<path d="M41.9365 23.9561C41.9365 28.0974 40.5073 32.0976 37.9141 35.293H40.5166V36.293H36.2285V32.0049H37.2285V34.5488C39.6198 31.5501 40.9365 27.8184 40.9365 23.9561H41.9365Z" fill="black"/>
<path d="M30.1836 7.68262L26.4697 9.82715L25.9697 8.96094L28.3975 7.55859C25.2143 6.694 21.8418 6.77203 18.6934 7.79492L18.5391 7.31934L18.3838 6.84375C21.617 5.79329 25.0732 5.68525 28.3535 6.51465L27.1729 4.46973L28.0391 3.96973L30.1836 7.68262Z" fill="black"/>
<path fill-rule="evenodd" clip-rule="evenodd" d="M36 13.2803C37.2079 13.2804 38.1873 14.2599 38.1875 15.4678C38.1875 16.6758 37.2081 17.6552 36 17.6553C34.7921 17.6551 33.8125 16.6758 33.8125 15.4678C33.8127 14.26 34.7922 13.2805 36 13.2803ZM36 14.2803C35.3445 14.2805 34.8127 14.8122 34.8125 15.4678C34.8125 16.1235 35.3443 16.6551 36 16.6553C36.6558 16.6552 37.1875 16.1236 37.1875 15.4678C37.1873 14.8122 36.6556 14.2804 36 14.2803Z" fill="black"/>
<path fill-rule="evenodd" clip-rule="evenodd" d="M38.1963 9.93066L38.1973 9.93359C38.2953 10.2351 38.4989 10.4868 38.7637 10.6426C39.0281 10.7979 39.3386 10.8485 39.6357 10.7871L41.2354 10.458L41.5938 11.0898L42.9072 13.3984L41.8379 14.6191L41.8369 14.6182C41.6325 14.8525 41.5186 15.1581 41.5186 15.4756C41.5186 15.7928 41.6329 16.0978 41.8369 16.332L42.9072 17.5527L41.5938 19.8623L41.2354 20.4941L40.5234 20.3477L39.6367 20.1641C39.3395 20.1026 39.0281 20.1542 38.7637 20.3096C38.4989 20.4654 38.2953 20.7162 38.1973 21.0176L38.1953 21.0254L37.6807 22.5615H34.3018L33.8164 21.002C33.7183 20.7007 33.5157 20.4496 33.251 20.2939C32.9865 20.1387 32.676 20.0879 32.3789 20.1494L30.7861 20.4775L30.4238 19.8545L29.0869 17.5498L30.1611 16.3242L30.1641 16.3223C30.3712 16.0874 30.4872 15.7807 30.4873 15.4609C30.4873 15.1409 30.3713 14.8336 30.1641 14.5986L30.1611 14.5967L29.0898 13.374L30.7676 10.4502L32.3623 10.7793L32.3633 10.7803C32.6604 10.8419 32.9709 10.79 33.2354 10.6348C33.5002 10.4791 33.7036 10.2282 33.8018 9.92676L33.8037 9.9209L34.3164 8.375H37.6846L38.1963 9.93066ZM34.752 10.2354C34.579 10.767 34.2199 11.2163 33.7422 11.4971C33.2645 11.7776 32.701 11.8709 32.1602 11.7588L31.2744 11.5762L30.3125 13.252L30.9131 13.9375C31.2827 14.3564 31.4873 14.8989 31.4873 15.4609L31.4775 15.6699C31.4334 16.156 31.2365 16.6178 30.9131 16.9844L30.3125 17.6689L31.2891 19.3525L32.1758 19.1699C32.7165 19.0579 33.2793 19.1513 33.7568 19.4316C34.2346 19.7124 34.5947 20.1617 34.7676 20.6934L35.0381 21.5615H36.9609L37.2471 20.708C37.3983 20.2431 37.6922 19.8408 38.083 19.5596L38.2568 19.4473C38.7344 19.1666 39.298 19.0736 39.8389 19.1855L40.7246 19.3682L41.6865 17.6768L41.0859 16.9912C40.7664 16.6256 40.571 16.1674 40.5273 15.6846L40.5186 15.4756C40.5186 14.9173 40.7208 14.3778 41.0859 13.96L41.6865 13.2744L40.7246 11.584L39.8389 11.7666C39.3656 11.8645 38.8745 11.8059 38.4395 11.6016L38.2568 11.5049C37.7793 11.2241 37.4199 10.7747 37.2471 10.2432L36.9609 9.375H35.0381L34.752 10.2354Z" fill="black"/>
<path d="M12.5 15.29L14.9785 17.7686L14.2715 18.4756L11.5 15.7041V10.6846H12.5V15.29Z" fill="black"/>
<path fill-rule="evenodd" clip-rule="evenodd" d="M12 8.5C15.866 8.5 19 11.634 19 15.5C19 19.366 15.866 22.5 12 22.5C8.13401 22.5 5 19.366 5 15.5C5 11.634 8.13401 8.5 12 8.5ZM12 9.5C8.68629 9.5 6 12.1863 6 15.5C6 18.8137 8.68629 21.5 12 21.5C15.3137 21.5 18 18.8137 18 15.5C18 12.1863 15.3137 9.5 12 9.5Z" fill="black"/>
<path d="M24.0078 25.6338C24.9654 25.6396 25.8898 25.9881 26.6426 26.6162L26.3223 27L26.001 27.3838C25.4195 26.8987 24.7189 26.6387 24.0039 26.6338C23.2868 26.6348 22.5834 26.8926 21.999 27.377L21.6797 26.9912L21.3604 26.6064C22.1167 25.9796 23.0443 25.6348 24.0039 25.6338H24.0078Z" fill="black"/>
<path d="M24.0088 23.0674C25.5912 23.0805 27.1117 23.7056 28.3066 24.8213L27.9648 25.1865L27.624 25.5518C26.6039 24.5993 25.322 24.0789 24.0029 24.0674C22.6797 24.0686 21.3907 24.5825 20.3633 25.5322L20.0244 25.165L19.6846 24.7979C20.8881 23.6854 22.4169 23.0684 24.0039 23.0674H24.0088Z" fill="black"/>
<path d="M24.0059 20.5C26.2126 20.5066 28.333 21.3995 29.9736 22.9971L29.625 23.3545L29.2764 23.7129C27.8124 22.2873 25.9376 21.5061 24.0039 21.5C22.0684 21.5012 20.1911 22.2799 18.7236 23.7041L18.375 23.3447L18.0264 22.9863C19.568 21.49 21.5316 20.6152 23.5908 20.5107L24.0039 20.5H24.0059Z" fill="black"/>
<path d="M20 38C19.6044 38 19.2176 38.1172 18.8887 38.3369C18.5599 38.5566 18.3037 38.8691 18.1523 39.2344C18.001 39.5998 17.9609 40.0027 18.0381 40.3906C18.1153 40.7784 18.3063 41.1345 18.5859 41.4141C18.8655 41.6936 19.2216 41.8847 19.6094 41.9619C19.9973 42.0391 20.4002 41.999 20.7656 41.8477C21.1309 41.6963 21.4434 41.4401 21.6631 41.1113C21.8828 40.7824 22 40.3955 22 40H23C23 40.5933 22.8238 41.1737 22.4941 41.667C22.1646 42.1601 21.6963 42.5444 21.1484 42.7715C20.6004 42.9985 19.9969 43.058 19.415 42.9424C18.8331 42.8266 18.2984 42.5406 17.8789 42.1211C17.4594 41.7016 17.1734 41.1669 17.0576 40.585C16.9419 40.0031 17.0015 39.3996 17.2285 38.8516C17.4555 38.3037 17.8399 37.8354 18.333 37.5059C18.8263 37.1762 19.4067 37 20 37V38Z" fill="black"/>
<path d="M28 37C28.5933 37 29.1737 37.1762 29.667 37.5059C30.16 37.8354 30.5445 38.3037 30.7715 38.8516C30.9985 39.3996 31.058 40.0031 30.9424 40.585C30.8266 41.1669 30.5406 41.7015 30.1211 42.1211C29.7015 42.5406 29.1669 42.8266 28.585 42.9424C28.0031 43.058 27.3996 42.9985 26.8516 42.7715C26.3037 42.5445 25.8354 42.16 25.5059 41.667C25.1762 41.1737 25 40.5933 25 40H26C26 40.3955 26.1172 40.7824 26.3369 41.1113C26.5566 41.4401 26.8691 41.6963 27.2344 41.8477C27.5998 41.999 28.0027 42.0391 28.3906 41.9619C28.7784 41.8847 29.1345 41.6937 29.4141 41.4141C29.6937 41.1345 29.8847 40.7784 29.9619 40.3906C30.0391 40.0027 29.999 39.5998 29.8477 39.2344C29.6963 38.8691 29.4401 38.5566 29.1113 38.3369C28.7824 38.1172 28.3955 38 28 38V37Z" fill="black"/>
<path fill-rule="evenodd" clip-rule="evenodd" d="M28.3144 32.3144L27 33.6289V38.3711L28.3144 39.6855L27.6855 40.3144L26.3711 39H21.6289L20.3144 40.3144L19.6855 39.6855L21 38.3711V33.6289L19.6855 32.3144L20.3144 31.6855L21.6289 33H26.3711L27.6855 31.6855L28.3144 32.3144ZM22 38H26V34H22V38Z" fill="black"/>
<path d="M19.415 29.0576C19.9969 28.942 20.6004 29.0015 21.1484 29.2285C21.6963 29.4556 22.1646 29.8399 22.4941 30.333C22.8237 30.8263 23 31.4067 23 32H22C22 31.6045 21.8828 31.2176 21.6631 30.8887C21.4434 30.5599 21.1309 30.3037 20.7656 30.1523C20.4002 30.001 19.9973 29.9609 19.6094 30.0381C19.2215 30.1153 18.8656 30.3063 18.5859 30.5859C18.3063 30.8656 18.1153 31.2215 18.0381 31.6094C17.9609 31.9973 18.001 32.4002 18.1523 32.7656C18.3037 33.1309 18.5599 33.4434 18.8887 33.6631C19.2175 33.8828 19.6045 34 20 34V35C19.4067 35 18.8263 34.8238 18.333 34.4941C17.8399 34.1646 17.4555 33.6963 17.2285 33.1484C17.0015 32.6004 16.9419 31.9969 17.0576 31.415C17.1734 30.8331 17.4593 30.2985 17.8789 29.8789C18.2985 29.4593 18.8331 29.1734 19.415 29.0576Z" fill="black"/>
<path d="M26.8516 29.2285C27.3996 29.0015 28.0031 28.9419 28.585 29.0576C29.1669 29.1734 29.7015 29.4594 30.1211 29.8789C30.5406 30.2985 30.8266 30.8331 30.9424 31.415C31.058 31.9969 30.9985 32.6004 30.7715 33.1484C30.5444 33.6963 30.16 34.1646 29.667 34.4941C29.1737 34.8238 28.5933 35 28 35V34C28.3955 34 28.7824 33.8828 29.1113 33.6631C29.4401 33.4434 29.6963 33.1309 29.8477 32.7656C29.999 32.4002 30.0391 31.9973 29.9619 31.6094C29.8847 31.2216 29.6936 30.8655 29.4141 30.5859C29.1345 30.3063 28.7784 30.1153 28.3906 30.0381C28.0027 29.9609 27.5998 30.001 27.2344 30.1523C26.8691 30.3037 26.5566 30.5599 26.3369 30.8887C26.1172 31.2176 26 31.6044 26 32H25C25 31.4067 25.1762 30.8263 25.5059 30.333C25.8354 29.8399 26.3037 29.4555 26.8516 29.2285Z" fill="black"/>
</svg>
