<svg width="48" height="48" viewBox="0 0 48 48" fill="none" xmlns="http://www.w3.org/2000/svg">
<path d="M26.3486 34.502C28.33 36.4313 30.8704 37.4917 33.4941 37.5C36.1206 37.4986 38.6652 36.4423 40.6514 34.5146L41 34.874L41.3486 35.2324C39.3205 37.2009 36.74 38.3494 34.0361 38.4863L33.4941 38.5H33.4922C30.5956 38.4912 27.8093 37.3199 25.6514 35.2188L26.3486 34.502Z" fill="black"/>
<path d="M28.5547 32.0527C29.9442 33.35 31.6932 34.0617 33.4961 34.0771C35.3043 34.0755 37.0627 33.3734 38.4619 32.0801L38.8008 32.4473L39.1406 32.8145C37.5651 34.2708 35.5665 35.076 33.4941 35.0771H33.4902C31.4241 35.0601 29.4363 34.2437 27.8721 32.7832L28.2129 32.418L28.5547 32.0527Z" fill="black"/>
<path d="M30.7246 29.6162C31.5288 30.2872 32.5008 30.6479 33.4951 30.6543C34.4915 30.6529 35.4667 30.2954 36.2744 29.626L36.5938 30.0107L36.9131 30.3965C35.9332 31.2085 34.7333 31.653 33.4941 31.6543H33.4912C32.2546 31.6468 31.0593 31.1976 30.084 30.3838L30.7246 29.6162Z" fill="black"/>
<path d="M14.5088 16.3457C15.7454 16.3532 16.9407 16.8024 17.916 17.6162L17.2754 18.3838C16.4712 17.7128 15.4992 17.3522 14.5049 17.3457C13.5085 17.3471 12.5333 17.7046 11.7256 18.374L11.4062 17.9893L11.0869 17.6035C12.0668 16.7915 13.2667 16.3469 14.5059 16.3457H14.5088Z" fill="black"/>
<path d="M14.5098 12.9229C16.5759 12.9399 18.5637 13.7563 20.1279 15.2168L19.7871 15.582L19.4453 15.9473C18.0558 14.65 16.3068 13.9383 14.5039 13.9229C12.6957 13.9245 10.9373 14.6266 9.53809 15.9199L9.19922 15.5527L8.85938 15.1855C10.4349 13.7292 12.4335 12.924 14.5059 12.9229H14.5098Z" fill="black"/>
<path d="M14.5078 9.5C17.4044 9.50879 20.1907 10.6801 22.3486 12.7812L21.6514 13.498C19.67 11.5687 17.1296 10.5083 14.5059 10.5C11.8794 10.5014 9.33484 11.5577 7.34863 13.4854L7 13.126L6.65137 12.7676C8.67948 10.7991 11.26 9.65064 13.9639 9.51367L14.5059 9.5H14.5078Z" fill="black"/>
<path d="M34.125 17.25C34.6773 17.25 35.125 17.6977 35.125 18.25C35.125 18.8023 34.6773 19.25 34.125 19.25C33.5727 19.25 33.125 18.8023 33.125 18.25C33.125 17.6977 33.5727 17.25 34.125 17.25Z" fill="black"/>
<path d="M37.5 17.25C38.0523 17.25 38.5 17.6977 38.5 18.25C38.5 18.8023 38.0523 19.25 37.5 19.25C36.9477 19.25 36.5 18.8023 36.5 18.25C36.5 17.6977 36.9477 17.25 37.5 17.25Z" fill="black"/>
<path fill-rule="evenodd" clip-rule="evenodd" d="M28.2764 11.3418H30.4111V8.70801H31.4111V11.3418H39.79C40.3547 11.3418 40.8125 11.7996 40.8125 12.3643V20.1992C40.8121 20.7635 40.3544 21.2217 39.79 21.2217H38.7236V23.8545H37.7236V21.2217H29.3213V23.8545H28.3213V21.2217H26.21C25.6456 21.2217 25.1879 20.7635 25.1875 20.1992V12.3643C25.1875 11.7996 25.6453 11.3418 26.21 11.3418H27.2764V8.70801H28.2764V11.3418ZM26.21 12.3418C26.1976 12.3418 26.1875 12.3519 26.1875 12.3643V20.1992C26.1879 20.2112 26.1979 20.2217 26.21 20.2217H39.79C39.8021 20.2217 39.8121 20.2112 39.8125 20.1992V12.3643C39.8125 12.3519 39.8024 12.3418 39.79 12.3418H26.21Z" fill="black"/>
<path d="M9.49996 34.625C9.03034 34.625 8.57111 34.7645 8.18063 35.0254C7.7902 35.2863 7.4854 35.657 7.30563 36.0908C7.12596 36.5245 7.07941 37.0024 7.17086 37.4629C7.26248 37.9234 7.48828 38.3475 7.82028 38.6797C8.15235 39.0117 8.57649 39.2374 9.03707 39.3291C9.49761 39.4206 9.97533 39.374 10.4091 39.1943C10.843 39.0145 11.2136 38.7098 11.4746 38.3193C11.7355 37.9288 11.875 37.4697 11.875 37H12.875C12.875 37.6674 12.6773 38.32 12.3066 38.875C11.9358 39.4299 11.4085 39.8627 10.792 40.1181C10.1754 40.3735 9.49631 40.4406 8.84176 40.3105C8.1872 40.1802 7.58517 39.8586 7.11325 39.3867C6.64139 38.9147 6.31962 38.3127 6.18942 37.6582C6.05935 37.0037 6.12643 36.3245 6.3818 35.708C6.63726 35.0915 7.07012 34.5641 7.62496 34.1933C8.17986 33.8226 8.83264 33.625 9.49996 33.625V34.625Z" fill="black"/>
<path d="M18.5 33.625C19.1673 33.625 19.8201 33.8227 20.375 34.1933C20.9298 34.564 21.3626 35.0916 21.6181 35.708C21.8735 36.3245 21.9406 37.0036 21.8105 37.6582C21.6803 38.3129 21.3587 38.9147 20.8867 39.3867C20.4147 39.8587 19.8129 40.1803 19.1582 40.3105C18.5036 40.4406 17.8245 40.3735 17.208 40.1181C16.5916 39.8626 16.064 39.4298 15.6933 38.875C15.3227 38.3201 15.125 37.6673 15.125 37H16.125C16.125 37.4696 16.2645 37.9288 16.5254 38.3193C16.7862 38.7097 17.157 39.0145 17.5908 39.1943C18.0246 39.374 18.5023 39.4205 18.9629 39.3291C19.4236 39.2374 19.8475 39.0118 20.1797 38.6797C20.5118 38.3475 20.7374 37.9236 20.8291 37.4629C20.9205 37.0023 20.874 36.5246 20.6943 36.0908C20.5145 35.657 20.2097 35.2862 19.8193 35.0254C19.4288 34.7645 18.9696 34.625 18.5 34.625V33.625Z" fill="black"/>
<path d="M8.84176 24.6894C9.49624 24.5593 10.1754 24.6265 10.792 24.8818C11.4084 25.1372 11.9358 25.5702 12.3066 26.125C12.6773 26.6799 12.8749 27.3326 12.875 28H11.875C11.8749 27.5303 11.7355 27.0711 11.4746 26.6806C11.2137 26.2903 10.8429 25.9854 10.4091 25.8056C9.97538 25.626 9.49755 25.5793 9.03707 25.6709C8.57645 25.7625 8.15238 25.9882 7.82028 26.3203C7.48818 26.6524 7.26253 27.0765 7.17086 27.5371C7.07935 27.9975 7.12603 28.4754 7.30563 28.9091C7.48535 29.3429 7.79028 29.7137 8.18063 29.9746C8.57111 30.2355 9.03034 30.3749 9.49996 30.375V31.375C8.83264 31.3749 8.17986 31.1773 7.62496 30.8066C7.0702 30.4358 6.63722 29.9084 6.3818 29.292C6.1265 28.6754 6.05929 27.9962 6.18942 27.3418C6.31967 26.6872 6.64129 26.0852 7.11325 25.6132C7.5852 25.1413 8.18716 24.8197 8.84176 24.6894Z" fill="black"/>
<path d="M17.208 24.8818C17.8245 24.6264 18.5037 24.5594 19.1582 24.6894C19.8127 24.8196 20.4147 25.1414 20.8867 25.6132C21.3586 26.0852 21.6802 26.6872 21.8105 27.3418C21.9406 27.9963 21.8735 28.6754 21.6181 29.292C21.3627 29.9085 20.9299 30.4358 20.375 30.8066C19.82 31.1773 19.1674 31.375 18.5 31.375V30.375C18.9697 30.375 19.4288 30.2355 19.8193 29.9746C20.2098 29.7136 20.5145 29.343 20.6943 28.9091C20.874 28.4753 20.9206 27.9976 20.8291 27.5371C20.7374 27.0765 20.5117 26.6524 20.1797 26.3203C19.8475 25.9883 19.4234 25.7625 18.9629 25.6709C18.5024 25.5794 18.0245 25.626 17.5908 25.8056C17.157 25.9854 16.7863 26.2902 16.5254 26.6806C16.2645 27.0711 16.125 27.5303 16.125 28H15.125C15.125 27.3326 15.3226 26.6799 15.6933 26.125C16.0641 25.5701 16.5915 25.1373 17.208 24.8818Z" fill="black"/>
<path fill-rule="evenodd" clip-rule="evenodd" d="M9.85348 37.3535L9.14645 36.6464L10.625 35.1679V29.832L9.14645 28.3535L9.85348 27.6464L11.332 29.125H16.6679L18.1464 27.6464L18.8535 28.3535L17.375 29.832V35.1679L18.8535 36.6464L18.1464 37.3535L16.6679 35.875H11.332L9.85348 37.3535ZM11.625 34.875H16.375V30.125H11.625V34.875Z" fill="black"/>
</svg>
