<svg width="48" height="48" viewBox="0 0 48 48" fill="none" xmlns="http://www.w3.org/2000/svg">
<path fill-rule="evenodd" clip-rule="evenodd" d="M24 5.5C27.1471 5.5 30.1115 6.2877 32.707 7.6748C32.857 7.74682 33.0057 7.82312 33.1514 7.90723C34.4287 8.64487 35.3834 9.76487 36.0352 11.1475C36.7654 12.64 37.1302 14.3839 37.0967 16.0801C37.099 16.1631 37.1044 16.2464 37.1055 16.3301C37.1055 16.3361 37.1091 16.3425 37.1143 16.3457C37.2236 16.4106 37.3298 16.4792 37.4365 16.5459C37.4608 16.5611 37.4853 16.5763 37.5098 16.5918C39.0601 17.5722 40.3262 18.7352 41.1855 20.0371C41.9568 21.1715 42.5 22.5061 42.5 24C42.5 34.2173 34.2173 42.5 24 42.5C13.7827 42.5 5.5 34.2173 5.5 24C5.5 13.7827 13.7827 5.5 24 5.5ZM24 6.5C14.335 6.5 6.5 14.335 6.5 24C6.5 33.665 14.335 41.5 24 41.5C32.2124 41.5 39.1014 35.8426 40.9873 28.2129C40.3944 29.0405 39.6396 29.8112 38.75 30.5068C36.4856 32.2774 33.3267 33.6139 29.6904 34.3115C29.6579 34.3208 29.626 34.3263 29.5957 34.3291C28.0189 34.6262 26.3496 34.8079 24.6191 34.8486L23.8682 34.8574C18.8708 34.8574 14.3179 33.7079 10.9717 31.8223C10.7698 31.7426 10.6286 31.5459 10.6299 31.3174L10.6494 30.5859C10.8181 26.8905 12.0928 22.6344 14.4521 18.5479L14.9355 17.7383C17.3973 13.747 20.5128 10.6446 23.6523 8.82227C25.2605 7.88883 26.8981 7.28042 28.4658 7.0752C27.0404 6.70018 25.5437 6.5 24 6.5ZM32.2383 8.55762C30.0271 7.51835 27.1498 7.94786 24.1543 9.68652C21.1805 11.4126 18.1767 14.387 15.7871 18.2607L15.3174 19.0479C12.9334 23.1771 11.7163 27.4467 11.6367 31.0459C14.7936 32.7769 19.0998 33.8574 23.8682 33.8574L24.5957 33.8486C26.2843 33.8089 27.911 33.6316 29.4443 33.3408C29.4481 33.3401 29.4521 33.3395 29.4561 33.3389C29.4594 33.3381 29.4627 33.3375 29.4658 33.3369L30.123 33.2031C33.3754 32.5006 36.1484 31.2712 38.1338 29.7188C40.253 28.0617 41.4336 26.0743 41.4336 23.9844C41.4336 22.7958 41.0503 21.6388 40.3311 20.5576C40.1338 20.2713 39.9184 19.9953 39.6885 19.7314C38.6387 18.5267 37.3324 17.6029 36.332 17.0527L36.0508 16.8984L36.0742 16.5781C36.0864 16.413 36.0929 16.2475 36.0967 16.082C36.0472 14.363 35.7254 12.8469 35.1445 11.6045C34.5515 10.3891 33.7017 9.38209 32.6445 8.78027C32.5104 8.70393 32.3746 8.63048 32.2383 8.55762Z" fill="black"/>
<path d="M21.8291 21.455C23.606 18.3772 26.0951 16.6803 28.0322 17.1171C31.5034 17.5866 32.75 21.3823 32.75 23.5497C32.7497 25.4018 30.6556 26.9717 27.7529 27.5243V27.5253C27.7517 27.5253 27.7502 27.5252 27.749 27.5253C27.0279 27.6623 26.2572 27.7372 25.4561 27.7372C23.4568 27.7372 21.6457 27.2752 20.3281 26.5272C20.3231 26.5262 20.3176 26.5253 20.3125 26.5243C20.3185 25.0045 20.8244 23.1951 21.8291 21.455Z" fill="black"/>
</svg>
