<svg width="48" height="48" viewBox="0 0 48 48" fill="none" xmlns="http://www.w3.org/2000/svg">
<path d="M7.5 39.5C7.5 40.0523 7.94772 40.5 8.5 40.5H15V41.5H8.5C7.39543 41.5 6.5 40.6046 6.5 39.5V33H7.5V39.5Z" fill="black"/>
<path d="M41.5 39.5C41.5 40.6046 40.6046 41.5 39.5 41.5H33V40.5H39.5C40.0523 40.5 40.5 40.0523 40.5 39.5V33H41.5V39.5Z" fill="black"/>
<path d="M15 7.5H8.5C7.94772 7.5 7.5 7.94772 7.5 8.5V15H6.5V8.5C6.5 7.39543 7.39543 6.5 8.5 6.5H15V7.5Z" fill="black"/>
<path d="M39.5 6.5C40.6046 6.5 41.5 7.39543 41.5 8.5V15H40.5V8.5C40.5 7.94772 40.0523 7.5 39.5 7.5H33V6.5H39.5Z" fill="black"/>
<path fill-rule="evenodd" clip-rule="evenodd" d="M15.7568 17.9023C18.3497 17.9023 20.4818 19.8755 20.7324 22.4023H37.1045V28.6416H36.1045V23.4023H32.4678V28.6416H31.4678V23.4023H20.7314C20.4804 25.9288 18.3493 27.9023 15.7568 27.9023C13.0817 27.9023 10.8976 25.801 10.7637 23.1592L10.7568 22.9023C10.7568 20.1409 12.9954 17.9024 15.7568 17.9023ZM15.7568 18.9023C13.5477 18.9024 11.7568 20.6932 11.7568 22.9023C11.7571 25.1113 13.5479 26.9023 15.7568 26.9023C17.9658 26.9023 19.7566 25.1113 19.7568 22.9023C19.7568 20.6932 17.966 18.9023 15.7568 18.9023Z" fill="black"/>
</svg>
