<svg width="48" height="48" viewBox="0 0 48 48" fill="none" xmlns="http://www.w3.org/2000/svg">
<path d="M25 13.5C25 14.0523 24.5523 14.5 24 14.5C23.4477 14.5 23 14.0523 23 13.5C23 12.9477 23.4477 12.5 24 12.5C24.5523 12.5 25 12.9477 25 13.5Z" fill="black"/>
<path fill-rule="evenodd" clip-rule="evenodd" d="M46.5 36.75C46.5 38.3551 45.2394 39.6658 43.6543 39.7461L43.5 39.75H4.5L4.3457 39.7461C2.81166 39.6684 1.58163 38.4383 1.50391 36.9043L1.5 36.75V35.25H46.5V36.75ZM2.5 36.75C2.5 37.8546 3.39543 38.75 4.5 38.75H43.5C44.6046 38.75 45.5 37.8546 45.5 36.75V36.25H2.5V36.75Z" fill="black"/>
<path d="M41.25 8.5C42.3546 8.5 43.25 9.39543 43.25 10.5V33.75H42.25V10.5C42.25 9.94772 41.8023 9.5 41.25 9.5H6.75C6.19772 9.5 5.75 9.94772 5.75 10.5V33.75H4.75V10.5C4.75 9.39543 5.64543 8.5 6.75 8.5H41.25Z" fill="black"/>
</svg>
