<svg width="48" height="48" viewBox="0 0 48 48" fill="none" xmlns="http://www.w3.org/2000/svg">
<path fill-rule="evenodd" clip-rule="evenodd" d="M46.5 36.75C46.5 38.3551 45.2394 39.6658 43.6543 39.7461L43.5 39.75H4.5L4.3457 39.7461C2.81166 39.6684 1.58163 38.4383 1.50391 36.9043L1.5 36.75V35.25H46.5V36.75ZM2.5 36.75C2.5 37.8546 3.39543 38.75 4.5 38.75H43.5C44.6046 38.75 45.5 37.8546 45.5 36.75V36.25H2.5V36.75Z" fill="black"/>
<path d="M41.25 8.5C42.3546 8.5 43.25 9.39543 43.25 10.5V33.75H42.25V10.5C42.25 9.94772 41.8023 9.5 41.25 9.5H6.75C6.19772 9.5 5.75 9.94772 5.75 10.5V33.75H4.75V10.5C4.75 9.39543 5.64543 8.5 6.75 8.5H41.25Z" fill="black"/>
<path d="M26.7246 15.9082L22.2246 29.4082L21.2754 29.0918L25.7754 15.5918L26.7246 15.9082Z" fill="black"/>
<path d="M19.8203 19.1338L15.7803 22.5L19.8203 25.8662L19.1797 26.6338L14.2188 22.5L19.1797 18.3662L19.8203 19.1338Z" fill="black"/>
<path d="M33.7812 22.5L28.8203 26.6338L28.1797 25.8662L32.2197 22.5L28.1797 19.1338L28.8203 18.3662L33.7812 22.5Z" fill="black"/>
</svg>
