<svg width="48" height="48" viewBox="0 0 48 48" fill="none" xmlns="http://www.w3.org/2000/svg">
<path fill-rule="evenodd" clip-rule="evenodd" d="M46.5 36.75C46.5 38.3551 45.2394 39.6658 43.6543 39.7461L43.5 39.75H4.5L4.3457 39.7461C2.81166 39.6684 1.58163 38.4383 1.50391 36.9043L1.5 36.75V35.25H46.5V36.75ZM2.5 36.75C2.5 37.8546 3.39543 38.75 4.5 38.75H43.5C44.6046 38.75 45.5 37.8546 45.5 36.75V36.25H2.5V36.75Z" fill="black"/>
<path d="M17.6211 8.5C17.5577 8.82535 17.5197 9.15926 17.5068 9.5H6.75C6.19772 9.5 5.75 9.94772 5.75 10.5V33.75H4.75V10.5C4.75 9.39543 5.64543 8.5 6.75 8.5H17.6211Z" fill="black"/>
<path d="M41.25 8.5C42.3546 8.5 43.25 9.39543 43.25 10.5V33.75H42.25V10.5C42.25 9.94772 41.8023 9.5 41.25 9.5H30.4932C30.4803 9.15926 30.4423 8.82535 30.3789 8.5H41.25Z" fill="black"/>
<path d="M24 15.749C24.8284 15.749 25.5 16.4206 25.5 17.249C25.4998 17.8395 25.1572 18.3482 24.6611 18.5928L25.5 23.249H22.5L23.3379 18.5928C22.8422 18.3481 22.5002 17.8392 22.5 17.249C22.5 16.4206 23.1716 15.749 24 15.749Z" fill="black"/>
<path fill-rule="evenodd" clip-rule="evenodd" d="M24 4.75C26.7614 4.75 29 6.98858 29 9.75V12.25H30C31.1046 12.25 32 13.1454 32 14.25V24.75C32 25.8546 31.1046 26.75 30 26.75H18C16.8954 26.75 16 25.8546 16 24.75V14.25C16 13.1454 16.8954 12.25 18 12.25H19V9.75C19 6.98858 21.2386 4.75 24 4.75ZM18 13.25C17.4477 13.25 17 13.6977 17 14.25V24.75C17 25.3023 17.4477 25.75 18 25.75H30C30.5523 25.75 31 25.3023 31 24.75V14.25C31 13.6977 30.5523 13.25 30 13.25H18ZM24 5.75C21.7909 5.75 20 7.54086 20 9.75V12.25H28V9.75C28 7.54086 26.2091 5.75 24 5.75Z" fill="black"/>
</svg>
