<svg width="48" height="48" viewBox="0 0 48 48" fill="none" xmlns="http://www.w3.org/2000/svg">
<path fill-rule="evenodd" clip-rule="evenodd" d="M30.8066 7.7666L30.8174 7.76172L30.8262 7.77832L38.2596 11.8923C38.5779 12.0684 38.7754 12.4035 38.7754 12.7672V27.9437C38.7754 28.3075 38.5779 28.6425 38.2596 28.8187L24.4842 36.4429C24.183 36.6097 23.817 36.6097 23.5158 36.4429L9.74036 28.8187C9.42212 28.6425 9.22461 28.3075 9.22461 27.9437V12.7672C9.22461 12.4035 9.42212 12.0684 9.74036 11.8923L23.5158 4.26799C23.8171 4.10125 24.1829 4.10123 24.4842 4.26796L30.8066 7.7666ZM10.2246 27.9434L23.5 35.29V20.7646L17.1348 17.2139V21.4971L16.1348 20.9395V16.6562L10.2246 13.3604V27.9434ZM24.5 20.7646V35.29L37.7754 27.9434V13.3604L24.5 20.7646ZM17.5537 16.3027L24 19.8975L37.2793 12.4922L30.9033 8.96387L30.8076 8.91113L17.5537 16.3027ZM10.7197 12.4922L16.5273 15.7305L29.7783 8.34082L24 5.14258L10.7197 12.4922Z" fill="black"/>
<path d="M38.7754 32.1045L24.4842 40.0142C24.183 40.181 23.817 40.181 23.5158 40.0142L9.22461 32.1045V30.9619L24 39.1396L38.7754 30.9619V32.1045Z" fill="black"/>
<path d="M38.7754 36.1045L24.4842 44.0142C24.183 44.181 23.817 44.181 23.5158 44.0142L9.22461 36.1045V34.9619L24 43.1396L38.7754 34.9619V36.1045Z" fill="black"/>
</svg>
