<svg width="48" height="48" viewBox="0 0 48 48" fill="none" xmlns="http://www.w3.org/2000/svg">
<path d="M44.05 34H14.99V33H43.55V10H14.05V9H44.05C44.33 9 44.55 9.22 44.55 9.5V33.5C44.55 33.78 44.33 34 44.05 34Z" fill="black"/>
<path d="M38.8 15.75H19.3V16.75H38.8V15.75Z" fill="black"/>
<path d="M38.8 20.25H26.8V21.25H38.8V20.25Z" fill="black"/>
<path d="M38.8 24.75H23.8V25.75H38.8V24.75Z" fill="black"/>
<path d="M9.57005 17.62C8.68005 17.62 7.80005 17.25 7.17005 16.61C6.53005 15.96 6.18005 15.1 6.18005 14.18C6.18005 13.26 6.54005 12.39 7.17005 11.75C8.43005 10.47 10.7001 10.47 11.9601 11.75C12.6001 12.4 12.9501 13.26 12.9501 14.18C12.9501 15.1 12.6001 15.96 11.9601 16.61C11.3201 17.26 10.4701 17.62 9.56005 17.62H9.57005ZM9.57005 11.75C8.93005 11.75 8.34005 12 7.89005 12.46C7.44005 12.91 7.19005 13.54 7.19005 14.18C7.19005 14.82 7.44005 15.44 7.89005 15.91C8.79005 16.83 10.3601 16.83 11.2601 15.91C11.7101 15.45 11.9601 14.84 11.9601 14.18C11.9601 13.52 11.7001 12.91 11.2601 12.46C10.8101 12 10.2101 11.75 9.58005 11.75H9.57005Z" fill="black"/>
<path d="M23.05 20.5H19.3V19.47C19.3 19.19 19.08 18.97 18.8 18.97H9.23005C7.63005 18.97 5.87005 19.88 5.03005 20.74C3.92005 21.88 3.30005 23.39 3.30005 25V30.25C3.30005 30.53 3.52005 30.75 3.80005 30.75H5.67005L6.76005 38.33C6.80005 38.58 7.01005 38.76 7.26005 38.76H11.88C12.13 38.76 12.34 38.58 12.38 38.33L14.57 23.09H18.81C19.09 23.09 19.31 22.87 19.31 22.59V21.51H23.06V20.51L23.05 20.5ZM18.3 22.08H14.13C13.88 22.08 13.67 22.26 13.63 22.51L11.44 37.75H7.69005L6.60005 30.17C6.56005 29.92 6.35005 29.74 6.10005 29.74H4.29005V24.99C4.29005 23.66 4.82005 22.37 5.74005 21.43C6.45005 20.71 7.95005 19.96 9.22005 19.96H18.29V22.07L18.3 22.08Z" fill="black"/>
</svg>
