<svg width="48" height="48" viewBox="0 0 48 48" fill="none" xmlns="http://www.w3.org/2000/svg">
<path fill-rule="evenodd" clip-rule="evenodd" d="M40.0322 9.5C40.0118 9.66385 40 9.83062 40 10C40 10.1694 40.0118 10.3362 40.0322 10.5H5.2666L17.4756 21.9199L24 27.7666L30.5234 21.9199L40.7598 12.3447C40.9562 12.6158 41.1855 12.8613 41.4424 13.0752L31.5439 22.334L43.5 36.6221V13.9678C43.6638 13.9882 43.8306 14 44 14C44.1694 14 44.3362 13.9882 44.5 13.9678V37.5C44.5 38.0523 44.0523 38.5 43.5 38.5H4.5C3.94771 38.5 3.5 38.0523 3.5 37.5V10.5C3.5 9.94772 3.94772 9.5 4.5 9.5H40.0322ZM24.334 28.8115L24 29.1104L17.1943 23.0098L5.07129 37.5H42.9287L30.8047 23.0098L24.334 28.8115ZM4.5 36.6221L16.4551 22.334L4.5 11.1523V36.6221Z" fill="black"/>
<path d="M44.5 11.9336C44.3399 11.9749 44.1729 12 44 12C43.8271 12 43.6601 11.9749 43.5 11.9336V11.1523L42.9277 11.6865C42.6427 11.5049 42.4057 11.2547 42.2432 10.957L42.7334 10.5H42.0654C42.0242 10.34 42 10.1729 42 10C42 9.82714 42.0242 9.65999 42.0654 9.5H44.5V11.9336Z" fill="black"/>
<path d="M46 10C46 11.1046 45.1046 12 44 12C42.8954 12 42 11.1046 42 10C42 8.89543 42.8954 8 44 8C45.1046 8 46 8.89543 46 10Z" fill="black"/>
</svg>
