<svg width="48" height="48" viewBox="0 0 48 48" fill="none" xmlns="http://www.w3.org/2000/svg">
<path fill-rule="evenodd" clip-rule="evenodd" d="M44.5 37.5C44.5 38.0523 44.0523 38.5 43.5 38.5H4.5C3.94771 38.5 3.5 38.0523 3.5 37.5V10.5C3.5 9.94772 3.94772 9.5 4.5 9.5H43.5C44.0523 9.5 44.5 9.94772 44.5 10.5V37.5ZM24.334 28.8115L24 29.1104L17.1943 23.0098L5.07129 37.5H42.9287L30.8047 23.0098L24.334 28.8115ZM4.5 36.6221L16.4551 22.334L4.5 11.1523V36.6221ZM31.5439 22.334L43.5 36.6221V11.1523L31.5439 22.334ZM17.4756 21.9199L24 27.7666L30.5234 21.9199L42.7334 10.5H5.2666L17.4756 21.9199Z" fill="black"/>
</svg>
