<svg width="48" height="48" viewBox="0 0 48 48" fill="none" xmlns="http://www.w3.org/2000/svg">
<path d="M27.5331 44.0754H21.3358V43.0754H27.5331V44.0754Z" fill="black"/>
<path d="M28.9315 41.2649H19.952V40.2649H28.9315V41.2649Z" fill="black"/>
<path d="M28.9315 38.4397H19.952V37.4397H28.9315V38.4397Z" fill="black"/>
<path fill-rule="evenodd" clip-rule="evenodd" d="M24.9374 13.304H24.9491C29.9723 13.572 33.9871 17.7402 33.9872 22.843C33.9871 25.4387 32.9984 27.7819 31.0731 29.7073C29.2913 31.4891 28.2935 32.9669 27.9218 35.1838C27.8814 35.4246 27.6727 35.6007 27.4286 35.6008H21.455C21.2114 35.6008 21.0029 35.4258 20.9618 35.1858C20.5902 33.0096 19.6772 31.7965 18.2762 30.2708C18.1305 30.1177 17.3283 29.2173 16.5448 27.9231C15.7308 26.5784 14.8964 24.7432 14.8964 22.843C14.8965 17.7534 18.8986 13.5859 23.9344 13.3186V13.2903H24.4344C24.6029 13.2903 24.771 13.2953 24.9374 13.304ZM24.4491 14.304C19.7254 14.304 15.8965 18.1345 15.8964 22.843C15.8964 24.4731 16.6221 26.119 17.4003 27.4045C17.7856 28.0411 18.1757 28.5758 18.4764 28.9583C18.6266 29.1492 18.7538 29.302 18.8466 29.4094C18.893 29.4632 18.9308 29.5055 18.9579 29.5354C18.9826 29.5627 18.9955 29.5758 18.9979 29.5784C19.0029 29.5833 19.0078 29.5889 19.0126 29.594C20.3801 31.0834 21.4035 32.4001 21.868 34.6008H27.0145C27.488 32.3302 28.6102 30.7561 30.3661 29.0002C32.1123 27.2539 32.9871 25.1617 32.9872 22.843C32.9871 18.281 29.4011 14.5523 24.912 14.304H24.4491Z" fill="black"/>
<path d="M29.746 20.8235L22.5712 27.9983L22.2177 27.6458L19.1239 24.5676L19.829 23.8586L22.5692 26.5842L29.0389 20.1165L29.746 20.8235Z" fill="black"/>
<path d="M15.8065 32.3616L10.9618 37.2063L10.2548 36.4993L15.0995 31.6545L15.8065 32.3616Z" fill="black"/>
<path d="M38.6288 36.4993L37.9218 37.2063L33.077 32.3616L33.7841 31.6545L38.6288 36.4993Z" fill="black"/>
<path d="M11.7303 23.5129H4.86902V22.5129H11.7303V23.5129Z" fill="black"/>
<path d="M44.0009 23.5129H37.1395V22.5129H44.0009V23.5129Z" fill="black"/>
<path d="M15.8065 13.677L15.0995 14.384L10.2548 9.53931L10.9618 8.83228L15.8065 13.677Z" fill="black"/>
<path d="M38.6288 9.53931L33.7841 14.384L33.077 13.677L37.9218 8.83228L38.6288 9.53931Z" fill="black"/>
<path d="M24.9344 10.3079H23.9344V3.46118H24.9344V10.3079Z" fill="black"/>
</svg>
