<svg width="48" height="48" viewBox="0 0 48 48" fill="none" xmlns="http://www.w3.org/2000/svg">
<path d="M7.5 40.5H42V41.5H6.5V8H7.5V40.5Z" fill="black"/>
<path d="M20.7363 16.5098C20.5493 16.7939 20.3766 17.0882 20.2188 17.3916L16.7295 14.1914L9.85352 21.0684L9.14648 20.3613L16.3613 13.1465L16.6992 12.8076L20.7363 16.5098Z" fill="black"/>
<path d="M41.9238 17.0576H40.9238V12.1914L37.0703 15.9688C36.868 15.7017 36.6513 15.4464 36.4238 15.2012L40.2002 11.5H35.3662V10.5H41.9238V17.0576Z" fill="black"/>
<path fill-rule="evenodd" clip-rule="evenodd" d="M29 13.7061C33.6944 13.7061 37.5 17.5116 37.5 22.2061C37.5 24.4953 36.5929 26.5714 35.1211 28.0996L36.8311 29.8096C37.3977 29.5093 38.1165 29.5983 38.5938 30.0752L42.3633 33.8447C42.9488 34.4305 42.9489 35.3801 42.3633 35.9658L42.2803 36.0488L42.166 36.1514C41.5769 36.6318 40.7084 36.5978 40.1592 36.0488L36.3896 32.2793C35.9127 31.8021 35.8237 31.0832 36.124 30.5166L34.3867 28.7793C32.9202 29.9825 31.045 30.7061 29 30.7061C24.3056 30.7061 20.5001 26.9004 20.5 22.2061C20.5 17.5116 24.3056 13.7061 29 13.7061ZM37.8867 30.7822C37.6915 30.5874 37.3748 30.5872 37.1797 30.7822L37.0967 30.8652C36.9016 31.0604 36.9018 31.377 37.0967 31.5723L40.8662 35.3418C41.0615 35.5368 41.3781 35.5369 41.5732 35.3418L41.6562 35.2588C41.8513 35.0636 41.8512 34.747 41.6562 34.5518L37.8867 30.7822ZM29 14.7061C24.8579 14.7061 21.5 18.0639 21.5 22.2061C21.5001 26.3481 24.8579 29.7061 29 29.7061C33.1421 29.7061 36.4999 26.3481 36.5 22.2061C36.5 18.0639 33.1421 14.7061 29 14.7061Z" fill="black"/>
<path d="M28.9793 24.9554C29.2199 24.9555 29.4459 25.0261 29.6141 25.2152C29.763 25.3829 29.8396 25.5781 29.8396 25.8158C29.8396 26.0535 29.763 26.2487 29.6141 26.4164C29.4459 26.6054 29.2199 26.6771 28.9793 26.6771C28.7386 26.6771 28.5127 26.6055 28.3445 26.4164C28.1955 26.2487 28.118 26.0536 28.118 25.8158C28.118 25.5781 28.1955 25.3829 28.3445 25.2152C28.5127 25.0263 28.7387 24.9554 28.9793 24.9554Z" fill="black"/>
<path d="M29.1287 17.6C29.5438 17.6 29.9003 17.6575 30.1922 17.765C30.4772 17.8701 30.7314 18.0249 30.9139 18.224C31.0729 18.3975 31.221 18.6047 31.2918 18.8568C31.3685 19.0869 31.4002 19.3038 31.4002 19.5189C31.4002 19.8253 31.3384 20.0925 31.2273 20.3304C31.1227 20.5546 30.9891 20.7637 30.826 20.9564C30.68 21.1289 30.522 21.3137 30.3357 21.4867C30.1718 21.6506 30.0171 21.807 29.8758 21.974C29.7366 22.1385 29.6279 22.2968 29.5447 22.475C29.4641 22.6479 29.4188 22.829 29.4187 23.0336V23.5824H28.3943L28.3543 23.3812C28.3394 23.3068 28.3221 23.207 28.3221 23.0883V22.8304C28.3221 22.5613 28.3667 22.2892 28.4842 22.0541C28.5828 21.8569 28.6993 21.6523 28.8338 21.473C28.9661 21.2966 29.1256 21.1218 29.2986 20.9633C29.4502 20.8243 29.5717 20.6773 29.7166 20.5179C29.8311 20.3919 29.9259 20.2396 29.9978 20.0717L30.0008 20.0658L30.0467 19.9515C30.088 19.833 30.1131 19.7027 30.1131 19.5599C30.1131 19.3883 30.0787 19.2509 30.0311 19.1556C29.987 19.0677 29.912 18.9894 29.8172 18.9261C29.7258 18.8653 29.6233 18.8237 29.4939 18.8021C29.3452 18.7774 29.1959 18.765 29.033 18.765H28.7732C28.4259 18.7975 28.1037 18.8919 27.824 19.0463L27.5633 19.1898L27.4666 18.9076L27.2 18.1244L27.366 18.0189C27.5492 17.9025 27.8122 17.813 28.0965 17.7318C28.4079 17.6429 28.7575 17.6 29.1287 17.6Z" fill="black"/>
</svg>
