<svg width="48" height="48" viewBox="0 0 48 48" fill="none" xmlns="http://www.w3.org/2000/svg">
<path d="M8 8H7V41.5H42.5V40.5H8V8Z" fill="black"/>
<path d="M35.83 15.2L41.42 9.7V14.56H42.42V8H35.86V9H40.7L35 14.6C35.28 14.78 35.56 14.98 35.82 15.19L35.83 15.2Z" fill="black"/>
<path d="M18.52 17.9L20.26 19.43C20.39 19.1 20.53 18.78 20.69 18.47L18.48 16.53L10.65 24.36L11.36 25.07L18.53 17.9H18.52Z" fill="black"/>
<path d="M43.27 35.61C43.21 35.32 43.07 35.06 42.86 34.84L39.09 31.07C38.94 30.92 38.78 30.81 38.59 30.74C38.23 30.59 37.83 30.59 37.47 30.74C37.43 30.75 37.41 30.79 37.37 30.81C37.37 30.81 37.36 30.82 37.35 30.82H37.34L36.63 30.1H36.62L35.93 29.4L35.62 29.09C35.74 28.97 35.85 28.85 35.96 28.72C37.23 27.23 38.01 25.31 38.01 23.2C38.01 20.42 36.67 17.96 34.6 16.41C34.33 16.21 34.04 16.02 33.75 15.84C32.5 15.12 31.06 14.7 29.51 14.7C26.15 14.7 23.25 16.66 21.87 19.49C21.72 19.81 21.58 20.13 21.47 20.47C21.18 21.33 21.01 22.25 21.01 23.2C21.01 27.89 24.82 31.7 29.51 31.7C31.37 31.7 33.09 31.09 34.49 30.07C34.63 29.97 34.76 29.87 34.89 29.77L36.65 31.53C36.65 31.53 36.64 31.54 36.64 31.55C36.36 32.11 36.44 32.81 36.9 33.27L40.66 37.03C40.95 37.32 41.34 37.47 41.72 37.47C42.1 37.47 42.49 37.32 42.78 37.03L42.86 36.95C43.14 36.67 43.3 36.29 43.3 35.89C43.3 35.79 43.3 35.69 43.27 35.6V35.61ZM29.5 30.71C25.36 30.71 22 27.35 22 23.21C22 22.51 22.1 21.84 22.28 21.2C22.38 20.85 22.5 20.51 22.64 20.19C23.81 17.56 26.44 15.71 29.5 15.71C30.76 15.71 31.95 16.03 33 16.58C33.3 16.74 33.59 16.93 33.87 17.13C35.76 18.49 37 20.71 37 23.21C37 27.35 33.64 30.71 29.5 30.71ZM42.16 36.26L42.08 36.34C41.88 36.54 41.57 36.53 41.37 36.34L37.6 32.57C37.41 32.38 37.4 32.06 37.6 31.86L37.68 31.78C37.87 31.59 38.2 31.59 38.39 31.78L42.16 35.55C42.25 35.64 42.31 35.77 42.31 35.9C42.31 36.03 42.26 36.16 42.16 36.25V36.26Z" fill="black"/>
<path d="M29.2682 26.3358C29.9114 26.3358 30.3624 26.2356 30.6213 26.0352C30.8802 25.8264 31.0097 25.5633 31.0097 25.2459C31.0097 25.012 30.9512 24.8115 30.8343 24.6445C30.7257 24.4775 30.5754 24.3313 30.3833 24.206C30.1995 24.0807 29.9823 23.968 29.7318 23.8677C29.4896 23.7675 29.239 23.6715 28.9801 23.5796C28.7295 23.4877 28.4789 23.3875 28.2284 23.2789C27.9861 23.162 27.769 23.0242 27.5769 22.8655C27.3848 22.6984 27.2261 22.5021 27.1008 22.2766C26.9839 22.0428 26.9254 21.7588 26.9254 21.4247C26.9254 20.8317 27.1008 20.3472 27.4516 19.9714C27.8107 19.5872 28.3286 19.345 29.0051 19.2447V17.804H30.045V19.2071C30.4125 19.2238 30.7549 19.2698 31.0723 19.345C31.3897 19.4201 31.6403 19.4911 31.824 19.5579L31.586 20.5352C31.3855 20.46 31.135 20.3848 30.8343 20.3096C30.5336 20.2261 30.1577 20.1844 29.7067 20.1844C29.2056 20.1844 28.8172 20.2804 28.5416 20.4725C28.2743 20.6646 28.1407 20.9361 28.1407 21.2869C28.1407 21.479 28.1782 21.6418 28.2534 21.7755C28.3369 21.9091 28.4539 22.0302 28.6042 22.1388C28.7546 22.239 28.93 22.3309 29.1304 22.4144C29.3392 22.498 29.5689 22.5857 29.8195 22.6775C30.1452 22.8028 30.4543 22.9323 30.7466 23.0659C31.0389 23.1996 31.2937 23.3624 31.5108 23.5545C31.7363 23.7383 31.9159 23.9596 32.0495 24.2185C32.1832 24.4775 32.25 24.7907 32.25 25.1582C32.25 25.7512 32.0704 26.2314 31.7113 26.5989C31.3521 26.9581 30.7967 27.1836 30.045 27.2755V28.8917H29.0051V27.3131C28.4205 27.2964 27.9444 27.2337 27.5769 27.1251C27.2094 27.0082 26.9338 26.8996 26.75 26.7994L27.0632 25.8598C27.3138 25.9767 27.6145 26.0853 27.9653 26.1855C28.3161 26.2857 28.7504 26.3358 29.2682 26.3358Z" fill="black"/>
</svg>
