<svg width="48" height="48" viewBox="0 0 48 48" fill="none" xmlns="http://www.w3.org/2000/svg">
<path fill-rule="evenodd" clip-rule="evenodd" d="M29.6385 18.4219C30.8462 18.4222 31.8258 19.4016 31.826 20.6094V21.1709H33.0135L33.1268 21.1826C33.3828 21.2352 33.576 21.4617 33.576 21.7334V26.7959C33.5759 27.0675 33.3828 27.2941 33.1268 27.3467L33.0135 27.3584H26.2635C25.9917 27.3584 25.7652 27.1654 25.7127 26.9092L25.701 26.7959V21.7334C25.701 21.4227 25.9528 21.1709 26.2635 21.1709H27.451V20.6094C27.4511 19.4014 28.4304 18.4219 29.6385 18.4219ZM26.701 26.3584H32.576V22.1709H26.701V26.3584ZM29.6385 19.4219C28.9827 19.4219 28.4511 19.9537 28.451 20.6094V21.1709H30.826V20.6094C30.8258 19.9539 30.2939 19.4222 29.6385 19.4219Z" fill="black"/>
<path d="M8 8H7V41.5H42.5V40.5H8V8Z" fill="black"/>
<path d="M35.83 15.2L41.42 9.7V14.56H42.42V8H35.86V9H40.7L35 14.6C35.28 14.78 35.56 14.98 35.82 15.19L35.83 15.2Z" fill="black"/>
<path d="M18.52 17.9L20.26 19.43C20.39 19.1 20.53 18.78 20.69 18.47L18.48 16.53L10.65 24.36L11.36 25.07L18.53 17.9H18.52Z" fill="black"/>
<path d="M43.27 35.61C43.21 35.32 43.07 35.06 42.86 34.84L39.09 31.07C38.94 30.92 38.78 30.81 38.59 30.74C38.23 30.59 37.83 30.59 37.47 30.74C37.43 30.75 37.41 30.79 37.37 30.81C37.37 30.81 37.36 30.82 37.35 30.82H37.34L36.63 30.1H36.62L35.93 29.4L35.62 29.09C35.74 28.97 35.85 28.85 35.96 28.72C37.23 27.23 38.01 25.31 38.01 23.2C38.01 20.42 36.67 17.96 34.6 16.41C34.33 16.21 34.04 16.02 33.75 15.84C32.5 15.12 31.06 14.7 29.51 14.7C26.15 14.7 23.25 16.66 21.87 19.49C21.72 19.81 21.58 20.13 21.47 20.47C21.18 21.33 21.01 22.25 21.01 23.2C21.01 27.89 24.82 31.7 29.51 31.7C31.37 31.7 33.09 31.09 34.49 30.07C34.63 29.97 34.76 29.87 34.89 29.77L36.65 31.53C36.65 31.53 36.64 31.54 36.64 31.55C36.36 32.11 36.44 32.81 36.9 33.27L40.66 37.03C40.95 37.32 41.34 37.47 41.72 37.47C42.1 37.47 42.49 37.32 42.78 37.03L42.86 36.95C43.14 36.67 43.3 36.29 43.3 35.89C43.3 35.79 43.3 35.69 43.27 35.6V35.61ZM29.5 30.71C25.36 30.71 22 27.35 22 23.21C22 22.51 22.1 21.84 22.28 21.2C22.38 20.85 22.5 20.51 22.64 20.19C23.81 17.56 26.44 15.71 29.5 15.71C30.76 15.71 31.95 16.03 33 16.58C33.3 16.74 33.59 16.93 33.87 17.13C35.76 18.49 37 20.71 37 23.21C37 27.35 33.64 30.71 29.5 30.71ZM42.16 36.26L42.08 36.34C41.88 36.54 41.57 36.53 41.37 36.34L37.6 32.57C37.41 32.38 37.4 32.06 37.6 31.86L37.68 31.78C37.87 31.59 38.2 31.59 38.39 31.78L42.16 35.55C42.25 35.64 42.31 35.77 42.31 35.9C42.31 36.03 42.26 36.16 42.16 36.25V36.26Z" fill="black"/>
</svg>
