<svg width="48" height="48" viewBox="0 0 48 48" fill="none" xmlns="http://www.w3.org/2000/svg">
<path d="M7.5 40.5H42V41.5H6.5V8H7.5V40.5Z" fill="black"/>
<path d="M20.7363 16.5098C20.5493 16.7939 20.3766 17.0882 20.2188 17.3916L16.7295 14.1914L9.85352 21.0684L9.14648 20.3613L16.3613 13.1465L16.6992 12.8076L20.7363 16.5098Z" fill="black"/>
<path d="M41.9238 17.0576H40.9238V12.1914L37.0703 15.9688C36.868 15.7017 36.6513 15.4464 36.4238 15.2012L40.2002 11.5H35.3662V10.5H41.9238V17.0576Z" fill="black"/>
<path fill-rule="evenodd" clip-rule="evenodd" d="M29 13.7061C33.6944 13.7061 37.5 17.5116 37.5 22.2061C37.5 24.4953 36.5929 26.5714 35.1211 28.0996L36.8311 29.8096C37.3977 29.5093 38.1165 29.5983 38.5938 30.0752L42.3633 33.8447C42.9488 34.4305 42.9489 35.3801 42.3633 35.9658L42.2803 36.0488L42.166 36.1514C41.5769 36.6318 40.7084 36.5978 40.1592 36.0488L36.3896 32.2793C35.9127 31.8021 35.8237 31.0832 36.124 30.5166L34.3867 28.7793C32.9202 29.9825 31.045 30.7061 29 30.7061C24.3056 30.7061 20.5001 26.9004 20.5 22.2061C20.5 17.5116 24.3056 13.7061 29 13.7061ZM37.8867 30.7822C37.6915 30.5874 37.3748 30.5872 37.1797 30.7822L37.0967 30.8652C36.9016 31.0604 36.9018 31.377 37.0967 31.5723L40.8662 35.3418C41.0615 35.5368 41.3781 35.5369 41.5732 35.3418L41.6562 35.2588C41.8513 35.0636 41.8512 34.747 41.6562 34.5518L37.8867 30.7822ZM29 14.7061C24.8579 14.7061 21.5 18.0639 21.5 22.2061C21.5001 26.3481 24.8579 29.7061 29 29.7061C33.1421 29.7061 36.4999 26.3481 36.5 22.2061C36.5 18.0639 33.1421 14.7061 29 14.7061Z" fill="black"/>
<path d="M32.791 19.5L33.1387 19.8584L28.1729 24.6855L25.0645 21.8701L25.7363 21.1299L28.1475 23.3145L32.4424 19.1416L32.791 19.5Z" fill="black"/>
</svg>
