<svg width="48" height="48" viewBox="0 0 48 48" fill="none" xmlns="http://www.w3.org/2000/svg">
<path d="M33.0312 16.2959L33.4336 16.5918L22.0576 32.0762L16 25.6387L16.7285 24.9531L21.9619 30.5156L32.6279 16L33.0312 16.2959Z" fill="black"/>
<path d="M40.1129 13.9308C42.5627 17.8514 43.4983 22.5315 42.7457 27.0929C41.9928 31.6546 39.6021 35.7854 36.0221 38.7111C32.4419 41.6367 27.9179 43.1573 23.2975 42.9865C18.9847 42.8269 14.8645 41.2039 11.6071 38.4005V42.3214H10.6071V36.3927H16.5358V37.3927H11.9752C15.104 40.2019 19.1223 41.8306 23.3346 41.9865C27.7116 42.1483 31.9976 40.7091 35.3893 37.9376C38.7809 35.166 41.046 31.2523 41.7594 26.9308C42.4725 22.6094 41.5852 18.1754 39.2643 14.4611L39.6881 14.1954L40.1129 13.9308ZM24.6227 5.00891C28.9617 5.15127 33.1136 6.77587 36.3922 9.5968V5.67786H37.3922V11.6066H31.4635V10.6066H36.026C32.8771 7.77905 28.8277 6.14794 24.5895 6.00891C20.2205 5.86576 15.9481 7.31751 12.5709 10.0929C9.19379 12.8684 6.94201 16.779 6.23596 21.0929C5.53021 25.4066 6.41891 29.8302 8.73499 33.5372L8.31116 33.8029L7.88635 34.0675C5.44151 30.1544 4.50357 25.4843 5.24866 20.9308C5.99396 16.3773 8.37141 12.2501 11.9362 9.32043C15.5011 6.39079 20.0109 4.85772 24.6227 5.00891Z" fill="black"/>
</svg>
