<svg width="48" height="48" viewBox="0 0 48 48" fill="none" xmlns="http://www.w3.org/2000/svg">
<path d="M24 28.5C24.8284 28.5 25.5 29.1716 25.5 30C25.5 30.5907 25.1574 31.0991 24.6611 31.3438L25.5 36H22.5L23.3379 31.3438C22.8421 31.099 22.5 30.5904 22.5 30C22.5 29.1716 23.1716 28.5 24 28.5Z" fill="black"/>
<path fill-rule="evenodd" clip-rule="evenodd" d="M24 4C28.9706 4 33 8.02944 33 13V20H37.5L37.6533 20.0078C38.4097 20.0846 39 20.7233 39 21.5V42.5C39 43.2767 38.4097 43.9154 37.6533 43.9922L37.5 44H10.5C9.67157 44 9 43.3284 9 42.5V21.5C9 20.6716 9.67157 20 10.5 20H15V13L15.0117 12.5371C15.2526 7.78166 19.1847 4 24 4ZM10.5 21C10.2239 21 10 21.2239 10 21.5V42.5C10 42.7761 10.2239 43 10.5 43H37.5C37.7761 43 38 42.7761 38 42.5V21.5C38 21.2239 37.7761 21 37.5 21H10.5ZM24 5C19.5817 5 16 8.58172 16 13V20H32V13C32 8.58172 28.4183 5 24 5Z" fill="black"/>
</svg>
