<svg width="48" height="48" viewBox="0 0 48 48" fill="none" xmlns="http://www.w3.org/2000/svg">
<path fill-rule="evenodd" clip-rule="evenodd" d="M37.8057 26.2095C38.8848 25.1408 40.5981 25.0632 41.7695 26.0298C43.0983 27.1262 43.215 29.1234 42.0137 30.3618C39.8715 32.5699 37.2736 35.2185 36.4365 35.936C34.5769 37.53 32.9118 38.7547 31.0693 39.5757C29.2187 40.4002 27.2146 40.8061 24.6875 40.8061C19.7185 40.8059 16.3141 38.2887 14.6396 36.6772H11.833V39.7778H5.5V25.5532H11.833V25.5561H18.417C19.9335 25.5561 21.1399 25.8225 22.1289 26.3237C23.0375 26.7843 23.7343 27.4301 24.3125 28.1948H30.7783C32.1357 28.1949 33.2698 29.1367 33.5713 30.4018L37.8057 26.2095ZM41.1338 26.8003C40.3584 26.1605 39.2241 26.2122 38.5098 26.9194L33.5469 31.8335C33.2119 33.0499 32.1012 33.9447 30.7783 33.9448H24.0605V32.9448H30.7783C31.8136 32.9447 32.6531 32.1051 32.6533 31.0698C32.6533 30.0344 31.8137 29.1949 30.7783 29.1948H23.8027L23.6523 28.9839C23.116 28.2273 22.492 27.6296 21.6768 27.2163C20.8592 26.8019 19.8159 26.5561 18.417 26.5561H11.833V35.6772H15.0469L15.1934 35.8218C16.7125 37.3259 19.9338 39.8059 24.6875 39.8061C27.0981 39.8061 28.9596 39.4201 30.6621 38.6616C32.3727 37.8994 33.9507 36.7486 35.7852 35.1762C36.5773 34.4973 39.1321 31.8958 41.2959 29.6655C42.0888 28.8481 42.0142 27.5268 41.1338 26.8003ZM6.5 38.7778H10.833V26.5532H6.5V38.7778Z" fill="black"/>
<path fill-rule="evenodd" clip-rule="evenodd" d="M24 12C25.3807 12 26.5 13.1193 26.5 14.5C26.5 15.8807 25.3807 17 24 17C22.6193 17 21.5 15.8807 21.5 14.5C21.5 13.1193 22.6193 12 24 12ZM24 13C23.1716 13 22.5 13.6716 22.5 14.5C22.5 15.3284 23.1716 16 24 16C24.8284 16 25.5 15.3284 25.5 14.5C25.5 13.6716 24.8284 13 24 13Z" fill="black"/>
<path fill-rule="evenodd" clip-rule="evenodd" d="M26.4854 7.75684L26.4863 7.75977C26.6244 8.18406 26.9099 8.53922 27.2852 8.75977C27.66 8.98001 28.1002 9.05235 28.5225 8.96484L28.5234 8.96387L30.3262 8.59277L32.2207 11.9238L31.752 12.459L31.0117 13.3008L31.0127 13.3018C30.7233 13.6328 30.5625 14.0628 30.5625 14.5098C30.5626 14.9561 30.7231 15.3851 31.0117 15.7158L32.2207 17.0947L30.3262 20.4258L28.5234 20.0547L28.5225 20.0537C28.1001 19.9662 27.6601 20.0394 27.2852 20.2598C26.91 20.4803 26.6244 20.8346 26.4863 21.2588L26.4834 21.2676L25.9033 23H22.0801L21.5322 21.2402C21.3942 20.8159 21.1086 20.4608 20.7334 20.2402C20.3585 20.02 19.9183 19.9477 19.4961 20.0352L19.4951 20.0361L17.6982 20.4062L15.7744 17.0898L16.9883 15.7061L16.9902 15.7041C17.2828 15.3724 17.4463 14.94 17.4463 14.4902C17.4462 14.0407 17.2827 13.6089 16.9902 13.2773L16.9883 13.2744L15.7773 11.8936L17.6768 8.58398L18.3857 8.72949L19.4766 8.95508C19.8988 9.04259 20.3399 8.97032 20.7148 8.75C21.0902 8.52941 21.3757 8.17442 21.5137 7.75L21.5156 7.74414L22.0947 6H25.9072L26.4854 7.75684ZM22.4648 8.05957C22.252 8.714 21.8097 9.2667 21.2217 9.6123L20.9961 9.73047C20.4605 9.98202 19.8571 10.0553 19.2744 9.93457L18.1836 9.70898L17 11.7715L17.7402 12.6152C18.1951 13.1308 18.4462 13.7986 18.4463 14.4902L18.4346 14.749C18.3802 15.347 18.138 15.9142 17.7402 16.3652L17 17.209L18.2021 19.2812L19.293 19.0566C19.959 18.9186 20.6521 19.0333 21.2402 19.3789C21.8282 19.7246 22.2706 20.2772 22.4834 20.9316L22.8164 22H25.1836L25.5352 20.9502C25.7214 20.3775 26.0829 19.8824 26.5645 19.5361L26.7783 19.3975C27.3664 19.0518 28.0596 18.9372 28.7256 19.0752L29.8164 19.2998L31 17.2188L30.2598 16.375C29.8663 15.9248 29.6269 15.3602 29.5732 14.7656L29.5625 14.5098C29.5625 13.8223 29.81 13.158 30.2598 12.6436L31 11.7998L29.8164 9.71875L28.7256 9.94336C28.0596 10.0814 27.3664 9.96673 26.7783 9.62109C26.1903 9.27545 25.748 8.72282 25.5352 8.06836L25.1836 7H22.8164L22.4648 8.05957Z" fill="black"/>
</svg>
