<svg width="48" height="48" viewBox="0 0 48 48" fill="none" xmlns="http://www.w3.org/2000/svg">
<path fill-rule="evenodd" clip-rule="evenodd" d="M45 28.5L40.1553 31.4102L45.6299 36.8848L41.3848 41.1299L35.9102 35.6553L33 40.5L27 22.5L45 28.5ZM33.2607 38.1221L35.7119 34.043L41.3848 39.7158L44.2158 36.8848L38.543 31.2119L42.6221 28.7607L28.5801 24.0801L33.2607 38.1221Z" fill="black"/>
<path d="M36.9541 6.26074C37.9628 6.363 38.75 7.21435 38.75 8.25V24H37.75V8.25C37.75 7.73232 37.3567 7.30621 36.8525 7.25488L36.75 7.25H8.25C7.69772 7.25 7.25 7.69772 7.25 8.25V27.75C7.25 28.3023 7.69772 28.75 8.25 28.75H13.25V34.793L19.293 28.75H27V29.75H19.707L12.25 37.207V29.75H8.25C7.14543 29.75 6.25 28.8546 6.25 27.75V8.25C6.25 7.14543 7.14543 6.25 8.25 6.25H36.75L36.9541 6.26074Z" fill="black"/>
</svg>
