<svg width="48" height="48" viewBox="0 0 48 48" fill="none" xmlns="http://www.w3.org/2000/svg">
<path d="M34.5 23.5C35.6046 23.5 36.5 24.3954 36.5 25.5V39H35.5V25.5C35.5 24.9477 35.0523 24.5 34.5 24.5H13.5C12.9477 24.5 12.5 24.9477 12.5 25.5V39H11.5V25.5C11.5 24.3954 12.3954 23.5 13.5 23.5H34.5Z" fill="black"/>
<path fill-rule="evenodd" clip-rule="evenodd" d="M40.5 6C41.3284 6 42 6.67157 42 7.5V40.5C42 41.3284 41.3284 42 40.5 42H7.5C6.67157 42 6 41.3284 6 40.5V13.9141C6.00004 13.682 6.08071 13.4582 6.22656 13.2803L6.29297 13.207L13.207 6.29297C13.3945 6.10547 13.6489 6.00004 13.9141 6H40.5ZM7 13.9141V40.5C7 40.7761 7.22386 41 7.5 41H40.5C40.7761 41 41 40.7761 41 40.5V7.5C41 7.22386 40.7761 7 40.5 7H36.5V15H35.5V7H30.5V15H29.5V7H24.5V15H23.5V7H18.5V15H17.5V7H13.9141L7 13.9141Z" fill="black"/>
</svg>
