<svg width="48" height="48" viewBox="0 0 48 48" fill="none" xmlns="http://www.w3.org/2000/svg">
<path fill-rule="evenodd" clip-rule="evenodd" d="M35 3C36.1046 3 37 3.89543 37 5V43C37 44.0357 36.2128 44.887 35.2041 44.9893L35 45H13L12.7959 44.9893C11.8543 44.8938 11.1062 44.1457 11.0107 43.2041L11 43V5C11 3.89543 11.8954 3 13 3H35ZM13 4C12.4477 4 12 4.44772 12 5V43C12 43.5523 12.4477 44 13 44H35C35.5523 44 36 43.5523 36 43V5C36 4.44772 35.5523 4 35 4H13Z" fill="black"/>
<path d="M24 40C24.5523 40 25 40.4477 25 41C25 41.5523 24.5523 42 24 42C23.4477 42 23 41.5523 23 41C23 40.4477 23.4477 40 24 40Z" fill="black"/>
<path d="M34.5 38.5H13.5V37.5H34.5V38.5Z" fill="black"/>
</svg>
