<svg width="48" height="48" viewBox="0 0 48 48" fill="none" xmlns="http://www.w3.org/2000/svg">
<path fill-rule="evenodd" clip-rule="evenodd" d="M21.9876 8.90512C22.3038 9.08185 22.4998 9.41579 22.4998 9.77806V16.9865C22.4998 17.3487 22.3038 17.6827 21.9876 17.8594L15.4876 21.492C15.1844 21.6614 14.8151 21.6614 14.5119 21.492L8.01191 17.8594C7.69568 17.6827 7.49976 17.3487 7.49976 16.9865V9.77806C7.49976 9.41579 7.69568 9.08185 8.01191 8.90512L14.5119 5.27257C14.8151 5.10315 15.1844 5.10315 15.4876 5.27257L21.9876 8.90512ZM8.49976 16.9853L14.4998 20.3378V13.7333L8.49976 10.3544V16.9853ZM15.4998 13.7333V20.3378L21.4998 16.9853V10.3544L15.4998 13.7333ZM12.3816 11.3925L14.9998 12.8671L20.991 9.49408L18.3621 8.02435L12.3816 11.3925ZM9.00757 9.49408L11.3611 10.8193L17.3396 7.45306L14.9998 6.14545L9.00757 9.49408Z" fill="black"/>
<path fill-rule="evenodd" clip-rule="evenodd" d="M39.4876 8.90512C39.8038 9.08185 39.9998 9.41579 39.9998 9.77806V16.9865C39.9998 17.3487 39.8038 17.6827 39.4876 17.8594L32.9876 21.492C32.6844 21.6614 32.3151 21.6614 32.0119 21.492L25.5119 17.8594C25.1957 17.6827 24.9998 17.3487 24.9998 16.9865V9.77806C24.9998 9.41579 25.1957 9.08185 25.5119 8.90512L32.0119 5.27257C32.3151 5.10315 32.6844 5.10315 32.9876 5.27257L39.4876 8.90512ZM25.9998 16.9853L31.9998 20.3378V13.7333L25.9998 10.3544V16.9853ZM32.9998 13.7333V20.3378L38.9998 16.9853V10.3544L32.9998 13.7333ZM29.8806 11.3925L32.4998 12.8671L38.491 9.49408L35.8621 8.02435L29.8806 11.3925ZM26.5076 9.49408L28.8611 10.8183L34.8386 7.45306L32.4998 6.14545L26.5076 9.49408Z" fill="black"/>
<path fill-rule="evenodd" clip-rule="evenodd" d="M30.9876 23.3465C31.3038 23.5233 31.4998 23.8572 31.4998 24.2195V31.4278C31.4998 31.7901 31.3038 32.1241 30.9875 32.3008L24.4998 35.9257V38.0497C25.4794 38.2485 26.2511 39.0203 26.45 39.9999H38.9998V40.9999H26.45C26.2183 42.1411 25.2093 42.9999 23.9998 42.9999C22.7903 42.9998 21.7811 42.1411 21.5496 40.9999H8.99976V39.9999H21.5496C21.7484 39.0204 22.5203 38.2486 23.4998 38.0497V35.9257L17.012 32.3008C16.6957 32.1241 16.4998 31.7901 16.4998 31.4278V24.2195C16.4998 23.8572 16.6957 23.5233 17.0119 23.3465L23.5119 19.714C23.8151 19.5446 24.1844 19.5446 24.4876 19.714L30.9876 23.3465ZM23.9998 38.9999C23.1715 39.0001 22.4998 39.6716 22.4998 40.4999C22.4998 41.3283 23.1714 41.9998 23.9998 41.9999C24.8282 41.9999 25.4998 41.3284 25.4998 40.4999C25.4997 39.6715 24.8282 38.9999 23.9998 38.9999ZM17.4998 31.4267L23.4998 34.7792V28.1738L17.4998 24.7949V31.4267ZM24.4998 28.1738V34.7792L30.4998 31.4267V24.7949L24.4998 28.1738ZM21.322 25.7997L23.9998 27.3076L29.99 23.9345L27.3015 22.4326L21.322 25.7997ZM18.0085 23.9345L20.4226 25.2929L26.3992 21.9277L23.9998 20.5869L18.0085 23.9345Z" fill="black"/>
</svg>
