<svg width="48" height="48" viewBox="0 0 48 48" fill="none" xmlns="http://www.w3.org/2000/svg">
<path d="M17.125 36C17.6773 36 18.125 36.4477 18.125 37C18.125 37.5523 17.6773 38 17.125 38C16.5727 38 16.125 37.5523 16.125 37C16.125 36.4477 16.5727 36 17.125 36Z" fill="black"/>
<path d="M37.125 36C37.6773 36 38.125 36.4477 38.125 37C38.125 37.5523 37.6773 38 37.125 38C36.5727 38 36.125 37.5523 36.125 37C36.125 36.4477 36.5727 36 37.125 36Z" fill="black"/>
<path d="M24.5 26.5H34.5C35.6046 26.5 36.5 27.3954 36.5 28.5V30.5996H35.5V28.5C35.5 27.9477 35.0523 27.5 34.5 27.5H13.5C12.9477 27.5 12.5 27.9477 12.5 28.5V30.5996H11.5V28.5C11.5 27.3954 12.3954 26.5 13.5 26.5H23.5V23.5H24.5V26.5Z" fill="black"/>
<path fill-rule="evenodd" clip-rule="evenodd" d="M20.5 32C21.3284 32 22 32.6716 22 33.5V40.5C22 41.3284 21.3284 42 20.5 42H7.5C6.72334 42 6.08461 41.4097 6.00781 40.6533L6 40.5V33.5C6 32.6716 6.67157 32 7.5 32H20.5ZM7.5 33C7.22386 33 7 33.2239 7 33.5V40.5C7 40.7761 7.22386 41 7.5 41H20.5C20.7761 41 21 40.7761 21 40.5V33.5C21 33.2239 20.7761 33 20.5 33H7.5Z" fill="black"/>
<path fill-rule="evenodd" clip-rule="evenodd" d="M40.5 32C41.3284 32 42 32.6716 42 33.5V40.5C42 41.3284 41.3284 42 40.5 42H27.5C26.7233 42 26.0846 41.4097 26.0078 40.6533L26 40.5V33.5C26 32.6716 26.6716 32 27.5 32H40.5ZM27.5 33C27.2239 33 27 33.2239 27 33.5V40.5C27 40.7761 27.2239 41 27.5 41H40.5C40.7761 41 41 40.7761 41 40.5V33.5C41 33.2239 40.7761 33 40.5 33H27.5Z" fill="black"/>
<path fill-rule="evenodd" clip-rule="evenodd" d="M37.6533 6.00781C38.4097 6.08461 39 6.72334 39 7.5V20.5C39 21.2767 38.4097 21.9154 37.6533 21.9922L37.5 22H10.5C9.67157 22 9 21.3284 9 20.5V7.5C9 6.67157 9.67157 6 10.5 6H37.5L37.6533 6.00781ZM10.5 7C10.2239 7 10 7.22386 10 7.5V20.5C10 20.7761 10.2239 21 10.5 21H37.5C37.7761 21 38 20.7761 38 20.5V7.5C38 7.22386 37.7761 7 37.5 7H10.5Z" fill="black"/>
</svg>
