<svg width="48" height="48" viewBox="0 0 48 48" fill="none" xmlns="http://www.w3.org/2000/svg">
<path d="M20.0322 40C20.0118 40.1638 20 40.3306 20 40.5C20 40.6694 20.0118 40.8362 20.0322 41H9V40H20.0322Z" fill="black"/>
<path d="M39 40V41H27.9678C27.9882 40.8362 28 40.6694 28 40.5C28 40.3306 27.9882 40.1638 27.9678 40H39Z" fill="black"/>
<path d="M24.5 36.5312C24.3362 36.5108 24.1693 36.5 24 36.5C23.8307 36.5 23.6638 36.5108 23.5 36.5312V32H24.5V36.5312Z" fill="black"/>
<path fill-rule="evenodd" clip-rule="evenodd" d="M24 38C25.3807 38 26.5 39.1193 26.5 40.5C26.5 41.8807 25.3807 43 24 43C22.6193 43 21.5 41.8807 21.5 40.5C21.5 39.1193 22.6193 38 24 38ZM24 39C23.1716 39 22.5 39.6716 22.5 40.5C22.5 41.3284 23.1716 42 24 42C24.8284 42 25.5 41.3284 25.5 40.5C25.5 39.6716 24.8284 39 24 39Z" fill="black"/>
<path fill-rule="evenodd" clip-rule="evenodd" d="M24 5.5C30.0019 5.5 35.088 9.41707 36.8438 14.834C36.8885 14.9047 36.9156 14.9865 36.9199 15.0752C37.2967 16.3172 37.5 17.6349 37.5 19C37.5 20.3651 37.2967 21.6828 36.9199 22.9248C36.9155 23.0132 36.8883 23.0945 36.8438 23.165C35.0882 28.5824 30.0022 32.5 24 32.5C17.9976 32.5 12.9107 28.5826 11.1553 23.165C11.1115 23.0954 11.0849 23.0148 11.0801 22.9277C10.7027 21.6849 10.5 20.3661 10.5 19C10.5 17.6336 10.7026 16.3144 11.0801 15.0713C11.085 14.9843 11.1114 14.9035 11.1553 14.834C12.911 9.41693 17.998 5.5 24 5.5ZM12.2988 23.3994C13.8797 27.6019 17.657 30.7276 22.2334 31.375C19.5017 29.4002 17.5593 26.576 16.6689 23.3994H12.2988ZM31.3311 23.3994C30.4406 26.5762 28.4977 29.4001 25.7656 31.375C30.3425 30.7279 34.1202 27.6022 35.7012 23.3994H31.3311ZM17.7109 23.3994C18.5969 26.3285 20.4466 28.9195 23.0215 30.7109L23.499 31.043V23.3994H17.7109ZM24.499 31.043L24.9775 30.7109C27.5525 28.9195 29.4021 26.3286 30.2881 23.3994H24.499V31.043ZM31.418 15.5996C31.7202 16.8376 31.8779 18.1184 31.8779 19.418C31.8779 20.4298 31.7727 21.4278 31.5723 22.3994H36.0312C36.3361 21.3185 36.5 20.1784 36.5 19C36.5 17.8213 36.3362 16.6808 36.0312 15.5996H31.418ZM24.499 22.3994H30.5508C30.766 21.4303 30.8779 20.4314 30.8779 19.418C30.8779 18.1159 30.7102 16.8338 30.3877 15.5996H24.499V22.3994ZM17.6133 15.5996C17.2908 16.8339 17.1211 18.1159 17.1211 19.418C17.1211 20.4314 17.234 21.4303 17.4492 22.3994H23.499V15.5996H17.6133ZM11.9688 15.5996C11.6638 16.6808 11.5 17.8213 11.5 19C11.5 20.1784 11.664 21.3185 11.9688 22.3994H16.4277C16.2273 21.4278 16.1211 20.4298 16.1211 19.418C16.1211 18.1183 16.2799 16.8376 16.582 15.5996H11.9688ZM25.9004 6.89453C28.3956 8.91296 30.2005 11.6047 31.1396 14.5996H35.7012C34.0927 10.3245 30.2108 7.16335 25.5273 6.59277L25.9004 6.89453ZM24.499 14.5996H30.0879C29.1827 11.9111 27.5283 9.49843 25.2715 7.67285L24.499 7.04688V14.5996ZM22.7266 7.67285C20.4701 9.49843 18.816 11.9112 17.9111 14.5996H23.499V7.04688L22.7266 7.67285ZM22.4697 6.59277C17.7876 7.16429 13.907 10.3253 12.2988 14.5996H16.8594C17.7982 11.6048 19.6026 8.91297 22.0977 6.89453L22.4697 6.59277Z" fill="black"/>
</svg>
