<svg width="48" height="48" viewBox="0 0 48 48" fill="none" xmlns="http://www.w3.org/2000/svg">
<path d="M20.0322 40C20.0118 40.1638 20 40.3306 20 40.5C20 40.6694 20.0118 40.8362 20.0322 41H9V40H20.0322Z" fill="black"/>
<path d="M39 40V41H27.9678C27.9882 40.8362 28 40.6694 28 40.5C28 40.3306 27.9882 40.1638 27.9678 40H39Z" fill="black"/>
<path d="M24.5 36.5312C24.3362 36.5108 24.1693 36.5 24 36.5C23.8307 36.5 23.6638 36.5108 23.5 36.5312V32H24.5V36.5312Z" fill="black"/>
<path fill-rule="evenodd" clip-rule="evenodd" d="M24 38C25.3807 38 26.5 39.1193 26.5 40.5C26.5 41.8807 25.3807 43 24 43C22.6193 43 21.5 41.8807 21.5 40.5C21.5 39.1193 22.6193 38 24 38ZM24 39C23.1716 39 22.5 39.6716 22.5 40.5C22.5 41.3284 23.1716 42 24 42C24.8284 42 25.5 41.3284 25.5 40.5C25.5 39.6716 24.8284 39 24 39Z" fill="black"/>
<path fill-rule="evenodd" clip-rule="evenodd" d="M24 3.5C27.5899 3.5 30.5 6.41015 30.5 10V15.2002H33L33.1533 15.208C33.9097 15.2848 34.5 15.9235 34.5 16.7002V30.5C34.4998 31.2765 33.9096 31.9154 33.1533 31.9922L33 32H15C14.1717 32 13.5002 31.3283 13.5 30.5V16.7002C13.5 15.8718 14.1716 15.2002 15 15.2002H17.5V10C17.5 6.41015 20.4101 3.5 24 3.5ZM15 16.2002C14.7239 16.2002 14.5 16.4241 14.5 16.7002V30.5C14.5002 30.776 14.724 31 15 31H33C33.276 31 33.4998 30.776 33.5 30.5V16.7002C33.5 16.4241 33.2761 16.2002 33 16.2002H15ZM24 4.5C20.9624 4.5 18.5 6.96243 18.5 10V15.2002H29.5V10C29.5 6.96243 27.0376 4.5 24 4.5Z" fill="black"/>
<path d="M23.9999 21.1497C24.5797 21.1497 25.0496 21.6197 25.0497 22.1995C25.0497 22.6131 24.8103 22.9697 24.4628 23.1409L25.0497 26.3997H22.9501L23.536 23.1399C23.1893 22.9684 22.9501 22.6125 22.9501 22.1995C22.9502 21.6197 23.4201 21.1498 23.9999 21.1497Z" fill="black"/>
</svg>
