<svg width="48" height="48" viewBox="0 0 48 48" fill="none" xmlns="http://www.w3.org/2000/svg">
<path fill-rule="evenodd" clip-rule="evenodd" d="M26.7305 5.5C31.289 5.5 34.9717 9.0873 34.9717 13.5293C34.9717 13.7237 34.9539 13.9217 34.9355 14.0947C39.1722 14.4239 42.4998 17.8423 42.5 22.0957C42.5 26.5377 38.8173 30.125 34.2588 30.125H28.4912L25.208 33.3564C25.0644 33.4978 24.8499 33.5388 24.6641 33.4609C24.4782 33.3831 24.3574 33.2015 24.3574 33V22.4531C24.3574 22.3192 24.4114 22.1907 24.5068 22.0967L27.0645 19.5781H21.9287V29.625C21.9287 29.7576 21.8759 29.8848 21.7822 29.9785C21.6885 30.0722 21.5612 30.125 21.4287 30.125L13.7412 30.123V30.125C13.6785 30.125 13.6151 30.1244 13.5527 30.123C9.08144 30.0261 5.5 26.4763 5.5 22.0957C5.5002 18.5152 7.87054 15.3713 11.3848 14.4082V13.5811C11.3848 10.6919 13.8001 8.40723 16.71 8.40723C17.8001 8.40725 18.8471 8.73813 19.7441 9.3584C21.2313 6.99538 23.8814 5.50001 26.7305 5.5ZM26.7305 6.5C24.0529 6.50001 21.571 8.00731 20.332 10.3369C20.2606 10.471 20.1318 10.5658 19.9824 10.5938C19.8332 10.6215 19.6794 10.5796 19.5645 10.4805C18.7527 9.77907 17.7547 9.40725 16.71 9.40723C14.318 9.40723 12.3848 11.2779 12.3848 13.5811V14.7988C12.3848 15.033 12.2227 15.2361 11.9941 15.2871C8.72461 16.0148 6.50021 18.8504 6.5 22.0957C6.5 25.9083 9.62281 29.0375 13.5752 29.123L20.9287 29.124V19.0781C20.9287 18.802 21.1526 18.5781 21.4287 18.5781H28.2861C28.4889 18.5783 28.6712 18.701 28.748 18.8887C28.825 19.0764 28.7813 19.2922 28.6367 19.4346L25.3574 22.6621V31.8057L27.9346 29.2686C28.0281 29.1765 28.1549 29.125 28.2861 29.125H34.2588C38.2894 29.125 41.5 25.9614 41.5 22.0957C41.4998 18.2291 38.3403 15.1162 34.3594 15.0674C34.2112 15.0656 34.0711 14.9977 33.9775 14.8828C33.8842 14.7681 33.846 14.6179 33.874 14.4727C33.8741 14.472 33.8748 14.4701 33.875 14.4688C33.8756 14.4655 33.8767 14.4601 33.8779 14.4531C33.8805 14.4391 33.8841 14.4177 33.8887 14.3906C33.8978 14.3362 33.9105 14.2583 33.9229 14.166C33.948 13.9778 33.9716 13.7425 33.9717 13.5293C33.9717 9.6636 30.761 6.5 26.7305 6.5Z" fill="black"/>
<path fill-rule="evenodd" clip-rule="evenodd" d="M22.3535 33.6465L21.6465 34.3535L20.5 33.207V40H10.9502C10.7186 41.1411 9.70949 42 8.5 42C7.11929 42 6 40.8807 6 39.5C6 38.1193 7.11929 37 8.5 37C9.70949 37 10.7186 37.8589 10.9502 39H19.5V33.207L18.3535 34.3535L17.6465 33.6465L20 31.293L22.3535 33.6465ZM8.5 38C7.67157 38 7 38.6716 7 39.5C7 40.3284 7.67157 41 8.5 41C9.32843 41 10 40.3284 10 39.5C10 38.6716 9.32843 38 8.5 38Z" fill="black"/>
<path d="M28.5 39H39.793L38.6465 37.8535L39.3535 37.1465L41.707 39.5L39.3535 41.8535L38.6465 41.1465L39.793 40H27.5V34.5H28.5V39Z" fill="black"/>
</svg>
