<svg width="48" height="48" viewBox="0 0 48 48" fill="none" xmlns="http://www.w3.org/2000/svg">
<path d="M42.22 24C42.22 27.54 41.19 30.96 39.25 33.91C37.3 36.86 34.56 39.15 31.31 40.55C28.06 41.94 24.51 42.34 21.03 41.72C17.73 41.13 14.7 39.63 12.22 37.4H16.76V36.4H10.83V42.33H11.83V38.4C14.4 40.62 17.49 42.11 20.85 42.71C21.97 42.91 23.11 43.01 24.24 43.01C26.79 43.01 29.33 42.49 31.71 41.47C35.14 40 38.04 37.58 40.09 34.47C42.14 31.36 43.23 27.74 43.23 24.01H42.23L42.22 24Z" fill="black"/>
<path d="M36.61 5.67998V9.60998C34.05 7.40998 30.97 5.91998 27.64 5.30998C23.97 4.63998 20.21 5.05998 16.77 6.51998C13.33 7.98998 10.43 10.41 8.37 13.52C6.31 16.64 5.22 20.27 5.22 24H6.22C6.22 20.46 7.25 17.03 9.2 14.08C11.15 11.13 13.9 8.82998 17.16 7.44998C20.42 6.06998 23.98 5.65998 27.46 6.29998C30.74 6.89998 33.76 8.38998 36.23 10.61H31.69V11.61H37.62V5.67998H36.62H36.61Z" fill="black"/>
<path d="M40.96 19.26C39.58 19.26 38.46 18.14 38.46 16.76C38.46 15.38 39.58 14.26 40.96 14.26C42.34 14.26 43.46 15.38 43.46 16.76C43.46 18.14 42.34 19.26 40.96 19.26ZM40.96 15.26C40.13 15.26 39.46 15.93 39.46 16.76C39.46 17.59 40.13 18.26 40.96 18.26C41.79 18.26 42.46 17.59 42.46 16.76C42.46 15.93 41.79 15.26 40.96 15.26Z" fill="black"/>
<path d="M7.03 34.1899C5.65 34.1899 4.53 33.0699 4.53 31.6899C4.53 30.3099 5.65 29.1899 7.03 29.1899C8.41 29.1899 9.53 30.3099 9.53 31.6899C9.53 33.0699 8.41 34.1899 7.03 34.1899ZM7.03 30.1899C6.2 30.1899 5.53 30.8599 5.53 31.6899C5.53 32.5199 6.2 33.1899 7.03 33.1899C7.86 33.1899 8.53 32.5199 8.53 31.6899C8.53 30.8599 7.86 30.1899 7.03 30.1899Z" fill="black"/>
<path d="M26.47 35H21.96L21.23 32.62C21.02 32.11 20.63 31.65 20.16 31.36C19.62 31.03 18.99 30.92 18.39 31.05L16.26 31.51L14.02 27.5L15.42 25.84C15.85 25.33 16.09 24.67 16.09 23.99C16.09 23.31 15.85 22.65 15.42 22.14L14.02 20.49L16.23 16.49L18.61 16.99C19.13 17.05 19.66 16.93 20.13 16.64C20.66 16.31 21.07 15.8 21.28 15.18L21.97 13.01H26.48L27.15 15.13C27.35 15.77 27.77 16.31 28.32 16.65C28.86 16.98 29.49 17.09 30.09 16.96L32.22 16.5L34.43 20.53L33.04 22.18C32.61 22.69 32.38 23.34 32.38 24.02C32.38 24.7 32.62 25.36 33.04 25.86L34.43 27.51L32.22 31.54L30.09 31.08C29.48 30.95 28.85 31.06 28.32 31.39C27.77 31.73 27.36 32.26 27.16 32.91L26.48 35.01L26.47 35ZM22.7 34H25.74L26.19 32.6C26.46 31.73 27.03 30.99 27.79 30.53C28.55 30.07 29.44 29.92 30.29 30.1L31.69 30.4L33.21 27.62L32.26 26.5C31.68 25.81 31.36 24.93 31.36 24.01C31.36 23.09 31.68 22.21 32.26 21.52L33.21 20.39L31.69 17.62L30.29 17.92C29.43 18.1 28.54 17.95 27.79 17.49C27.03 17.03 26.46 16.29 26.19 15.42L25.74 14H22.7L22.25 15.41C21.98 16.28 21.41 17.02 20.65 17.48C19.99 17.88 19.22 18.05 18.47 17.96L18.17 17.91L16.74 17.61L15.22 20.36L16.17 21.48C16.75 22.17 17.08 23.06 17.08 23.98C17.08 24.9 16.77 25.75 16.21 26.43L16.17 26.48L15.22 27.6L16.77 30.36L18.17 30.06C19.02 29.88 19.92 30.03 20.67 30.49C21.32 30.89 21.85 31.51 22.15 32.24L22.26 32.54L22.69 33.99L22.7 34Z" fill="black"/>
<path d="M24.22 28C22.01 28 20.22 26.21 20.22 24C20.22 21.79 22.01 20 24.22 20C26.43 20 28.22 21.79 28.22 24C28.22 26.21 26.43 28 24.22 28ZM24.22 21C22.57 21 21.22 22.35 21.22 24C21.22 25.65 22.57 27 24.22 27C25.87 27 27.22 25.65 27.22 24C27.22 22.35 25.87 21 24.22 21Z" fill="black"/>
</svg>
