<svg width="48" height="48" viewBox="0 0 48 48" fill="none" xmlns="http://www.w3.org/2000/svg">
<path d="M33.0005 9.0566L41.4847 13.7516C41.803 13.9278 42.0005 14.2628 42.0005 14.6266V33.3725C42.0005 33.7362 41.803 34.0713 41.4848 34.2474L24.4848 43.6568C24.1834 43.8236 23.8175 43.8236 23.5162 43.6568L6.51622 34.2474C6.19799 34.0713 6.00049 33.7362 6.00049 33.3725V14.6266C6.00049 14.2628 6.19802 13.9278 6.5163 13.7516L15.0005 9.0566L23.5162 4.34317C23.8175 4.1764 24.1834 4.1764 24.4848 4.34317L33.0005 9.0566ZM24.4995 24.4336V42.505L32.5161 38.0684L41.0005 33.3721V15.2304L24.4995 24.4336ZM7.00049 33.3721L15.4849 38.0684L23.4995 42.504V24.4336L15.5249 19.9853V25.583L14.5288 25.0274V19.4297L7.00049 15.2314V33.3721ZM15.9204 19.0605L23.9995 23.5664L40.5151 14.3574L32.5161 9.9316L32.4038 9.8691L15.9204 19.0605ZM15.4849 9.9316L7.48486 14.3574L14.8989 18.4912L31.3774 9.30171L24.0005 5.21772L15.4849 9.9316Z" fill="black"/>
</svg>
