<svg width="48" height="48" viewBox="0 0 48 48" fill="none" xmlns="http://www.w3.org/2000/svg">
<path d="M40.1129 13.9312C42.5628 17.8519 43.4984 22.5318 42.7457 27.0933C41.9928 31.6551 39.6022 35.7858 36.0221 38.7115C32.4419 41.6372 27.9179 43.1577 23.2975 42.9869C18.9844 42.8273 14.8646 41.2037 11.6071 38.4V42.3218H10.6071V36.3931H16.5358V37.3931H11.9752C15.104 40.2024 19.1222 41.8311 23.3346 41.9869C27.7116 42.1487 31.9976 40.7095 35.3893 37.9381C38.7809 35.1664 41.046 31.2528 41.7594 26.9312C42.4726 22.6097 41.5853 18.176 39.2643 14.4615L39.6881 14.1959L40.1129 13.9312Z" fill="black"/>
<path d="M24.6227 5.00935C28.9623 5.15173 33.1143 6.77665 36.3932 9.59822V5.6783H37.3932V11.607H31.4645V10.607H36.026C32.877 7.77941 28.8277 6.14838 24.5895 6.00935C20.2205 5.8662 15.9481 7.31787 12.5709 10.0933C9.19371 12.8689 6.94195 16.7793 6.23596 21.0933C5.53019 25.4071 6.4188 29.8306 8.73498 33.5377L8.31115 33.8033L7.88635 34.0679C5.4414 30.1548 4.50355 25.4848 5.24865 20.9312C5.9939 16.3776 8.37133 12.2506 11.9362 9.32087C15.5011 6.39114 20.0108 4.85816 24.6227 5.00935Z" fill="black"/>
<path fill-rule="evenodd" clip-rule="evenodd" d="M27.375 28.25C28.5845 28.25 29.5936 29.1089 29.8252 30.25H33V31.25H29.8252C29.5936 32.3911 28.5845 33.25 27.375 33.25C26.1174 33.25 25.079 32.3212 24.9033 31.1123C24.91 31.1585 24.9156 31.2047 24.9248 31.25H15V30.25H24.9248C25.1564 29.1089 26.1655 28.25 27.375 28.25ZM27.375 29.25C26.5466 29.25 25.875 29.9216 25.875 30.75C25.875 31.5784 26.5466 32.25 27.375 32.25C28.2034 32.25 28.875 31.5784 28.875 30.75C28.875 29.9216 28.2034 29.25 27.375 29.25Z" fill="black"/>
<path fill-rule="evenodd" clip-rule="evenodd" d="M19.5 21.5C20.7095 21.5 21.7186 22.3589 21.9502 23.5H33V24.5H21.9502C21.7186 25.6411 20.7095 26.5 19.5 26.5C18.2424 26.5 17.204 25.5712 17.0283 24.3623C17.035 24.4085 17.0406 24.4547 17.0498 24.5H15V23.5H17.0498C17.2814 22.3589 18.2905 21.5 19.5 21.5ZM19.5 22.5C18.6716 22.5 18 23.1716 18 24C18 24.8284 18.6716 25.5 19.5 25.5C20.3284 25.5 21 24.8284 21 24C21 23.1716 20.3284 22.5 19.5 22.5Z" fill="black"/>
<path fill-rule="evenodd" clip-rule="evenodd" d="M27.375 14.75C28.5845 14.75 29.5936 15.6089 29.8252 16.75H33V17.75H29.8252C29.5936 18.8911 28.5845 19.75 27.375 19.75C26.1174 19.75 25.079 18.8212 24.9033 17.6123C24.91 17.6585 24.9156 17.7047 24.9248 17.75H15V16.75H24.9248C25.1564 15.6089 26.1655 14.75 27.375 14.75ZM27.375 15.75C26.5466 15.75 25.875 16.4216 25.875 17.25C25.875 18.0784 26.5466 18.75 27.375 18.75C28.2034 18.75 28.875 18.0784 28.875 17.25C28.875 16.4216 28.2034 15.75 27.375 15.75Z" fill="black"/>
</svg>
