<svg width="48" height="48" viewBox="0 0 48 48" fill="none" xmlns="http://www.w3.org/2000/svg">
<path fill-rule="evenodd" clip-rule="evenodd" d="M40.6533 6.00781C41.4097 6.08461 42 6.72334 42 7.5V40.5L41.9922 40.6533C41.9205 41.3593 41.3593 41.9205 40.6533 41.9922L40.5 42H7.5C6.72334 42 6.08461 41.4097 6.00781 40.6533L6 40.5V7.5C6 6.67157 6.67157 6 7.5 6H40.5L40.6533 6.00781ZM23.1533 30.5537C22.958 30.7488 22.6415 30.7489 22.4463 30.5537L16.7998 24.9072L7 34.707V40.5C7 40.7761 7.22386 41 7.5 41H40.5C40.7761 41 41 40.7761 41 40.5V22.707L36 17.707L23.1533 30.5537ZM7.5 7C7.22386 7 7 7.22386 7 7.5V33.293L16.4463 23.8467L16.5244 23.7822C16.7185 23.6539 16.9824 23.6758 17.1533 23.8467L22.7998 29.4932L35.6465 16.6465L35.7246 16.582C35.9187 16.4539 36.1827 16.4756 36.3535 16.6465L41 21.293V7.5C41 7.22386 40.7761 7 40.5 7H7.5Z" fill="black"/>
<path fill-rule="evenodd" clip-rule="evenodd" d="M18 12C20.2091 12 22 13.7909 22 16C22 18.2091 20.2091 20 18 20C15.7909 20 14 18.2091 14 16C14 13.7909 15.7909 12 18 12ZM18 13C16.3431 13 15 14.3431 15 16C15 17.6569 16.3431 19 18 19C19.6569 19 21 17.6569 21 16C21 14.3431 19.6569 13 18 13Z" fill="black"/>
</svg>
