<svg width="48" height="48" viewBox="0 0 48 48" fill="none" xmlns="http://www.w3.org/2000/svg">
<path d="M21 4C25.9706 4 30 8.02944 30 13C30 13.5119 29.9551 14.0134 29.873 14.502L28.7178 15.1025C28.8999 14.4323 29 13.7279 29 13C29 8.58172 25.4183 5 21 5C16.5817 5 13 8.58172 13 13C13 15.1441 13.8446 17.09 15.2178 18.5264C14.8826 18.6461 14.5518 18.778 14.2275 18.9248C12.8414 17.3417 12 15.2695 12 13C12 8.02944 16.0294 4 21 4Z" fill="black"/>
<path d="M31.7158 26C32.2679 26.0003 32.7158 26.4479 32.7158 27C32.7158 27.5521 32.2679 27.9997 31.7158 28C31.1635 28 30.7158 27.5523 30.7158 27C30.7158 26.4477 31.1635 26 31.7158 26Z" fill="black"/>
<path fill-rule="evenodd" clip-rule="evenodd" d="M31.8858 15.1445C32.0406 15.064 32.2267 15.0697 32.376 15.1602C32.5253 15.2508 32.6171 15.4132 32.6172 15.5879V20.8135C33.7089 21.4476 34.6725 22.2489 35.4688 23.1807C36.8625 24.8116 38.4021 26.2747 40.3311 26.6699L41.1563 26.8398C41.3885 26.8878 41.5556 27.093 41.5557 27.3301V32.3115C41.5556 32.5489 41.3879 32.7532 41.1553 32.8008L40.3311 32.9697C38.3821 33.3697 36.6706 34.7529 35.3535 36.3838C35.255 36.5058 35.1595 36.623 35.0684 36.7324C34.581 37.3177 34.1691 37.9498 33.877 38.6309L32.5235 41.7852C32.4446 41.9687 32.2642 42.0877 32.0645 42.0879H25.8154C25.5395 42.0877 25.3154 41.8639 25.3154 41.5879V40.3848H21.1348V41.5879C21.1348 41.864 20.9108 42.0878 20.6348 42.0879H14.3867C14.1868 42.0879 14.0056 41.9689 13.9268 41.7852L13.836 41.5732C13.274 40.2629 12.5683 39.0165 11.8164 37.7705C11.0708 36.5348 10.2671 35.2789 9.54494 33.999C9.22768 33.4368 8.95483 32.8541 8.8174 32.3203C8.28075 30.2352 8.42745 28.0451 9.2383 26.042C10.0491 24.0393 11.484 22.3211 13.3467 21.1113C15.209 19.9019 17.4136 19.2556 19.669 19.2559H23.9912L31.8858 15.1445ZM24.3457 20.1992C24.2744 20.2363 24.1946 20.2558 24.1143 20.2559H19.669C17.6032 20.2556 15.5877 20.848 13.8906 21.9502C12.1941 23.0522 10.8972 24.6112 10.166 26.417C9.43504 28.2227 9.30211 30.1944 9.78517 32.0713C9.89098 32.4822 10.1166 32.9772 10.416 33.5078C11.1295 34.7721 11.9077 35.9859 12.6729 37.2539C13.4149 38.4837 14.1323 39.7476 14.7149 41.0879H20.1348V39.8848C20.135 39.6088 20.3588 39.3848 20.6348 39.3848H25.8154C26.0914 39.3848 26.3152 39.6089 26.3154 39.8848V41.0879H31.7344L32.957 38.2363C33.2949 37.4486 33.7645 36.7347 34.2998 36.0918C34.388 35.986 34.4811 35.8736 34.5762 35.7559C35.9649 34.0362 37.8602 32.4561 40.1299 31.9902L40.5557 31.9023V27.7363L40.1299 27.6494C37.842 27.1804 36.1109 25.4717 34.708 23.8301C33.9287 22.9182 32.9717 22.1397 31.877 21.542C31.7165 21.4543 31.6172 21.2854 31.6172 21.1025V16.4111L24.3457 20.1992Z" fill="black"/>
<path d="M20.52 15.13C20.04 15.0967 19.65 15.0333 19.35 14.94C19.0567 14.84 18.8367 14.75 18.69 14.67L19.03 13.72C19.2433 13.8267 19.5 13.9233 19.8 14.01C20.1067 14.0967 20.4533 14.14 20.84 14.14C21.3 14.14 21.6167 14.0733 21.79 13.94C21.97 13.8 22.06 13.6167 22.06 13.39C22.06 13.2367 22.0233 13.1033 21.95 12.99C21.8767 12.8767 21.7733 12.7767 21.64 12.69C21.5067 12.6033 21.3467 12.5233 21.16 12.45C20.98 12.3767 20.78 12.3 20.56 12.22C20.3533 12.1467 20.1467 12.0633 19.94 11.97C19.74 11.8767 19.5567 11.7633 19.39 11.63C19.23 11.49 19.1 11.3233 19 11.13C18.9 10.9367 18.85 10.7 18.85 10.42C18.85 9.96 18.9867 9.57 19.26 9.25C19.5333 8.92333 19.9533 8.71333 20.52 8.62V7.5H21.56V8.58C21.88 8.60667 22.1667 8.65333 22.42 8.72C22.6733 8.78 22.8733 8.84 23.02 8.9L22.77 9.89C22.5767 9.81667 22.3467 9.74667 22.08 9.68C21.82 9.61333 21.52 9.58 21.18 9.58C20.82 9.58 20.55 9.64667 20.37 9.78C20.19 9.90667 20.1 10.0833 20.1 10.31C20.1 10.4433 20.1267 10.5567 20.18 10.65C20.2333 10.7367 20.3133 10.8167 20.42 10.89C20.5267 10.9567 20.6567 11.0233 20.81 11.09C20.9633 11.15 21.1367 11.2133 21.33 11.28C21.6033 11.3867 21.86 11.5 22.1 11.62C22.3467 11.7333 22.56 11.87 22.74 12.03C22.92 12.1833 23.06 12.3667 23.16 12.58C23.2667 12.7933 23.32 13.0467 23.32 13.34C23.32 13.78 23.1833 14.16 22.91 14.48C22.6367 14.8 22.1867 15.0067 21.56 15.1V16.35H20.52V15.13Z" fill="black"/>
</svg>
