<svg width="48" height="48" viewBox="0 0 48 48" fill="none" xmlns="http://www.w3.org/2000/svg">
<path d="M12.03 38C7.05 38 3 34 3 29.08C3 24.9 5.82 21.35 9.87 20.43V18.99C9.87 15.94 12.4 13.45 15.5 13.45C16.87 13.45 18.16 13.94 19.21 14.87C20.76 11.92 23.89 10.01 27.19 10.01C32.17 10.01 36.22 14.01 36.22 18.93C36.22 19.21 36.19 19.52 36.16 19.76L36.1 20.16C41.09 20.22 45.01 24.14 45.01 29.08C45.01 34.02 40.96 38 35.98 38H12.03ZM15.5 14.45C12.95 14.45 10.87 16.49 10.87 18.99V21.23L10.09 21.41C6.51 22.22 4 25.38 4 29.08C4 33.45 7.6 37 12.03 37H35.97C40.4 37 44 33.45 44 29.08C44 24.71 40.52 21.21 36.08 21.16L34.89 21.14L35.17 19.63C35.2 19.42 35.22 19.16 35.22 18.93C35.22 14.56 31.62 11.01 27.19 11.01C24.26 11.01 21.47 12.71 20.1 15.34L19.51 16.47L18.55 15.63C17.68 14.87 16.63 14.46 15.5 14.46V14.45Z" fill="black"/>
<path d="M22 32.75C21.85 32.75 21.71 32.68 21.62 32.57C21.53 32.46 21.49 32.31 21.51 32.16L22.57 26.29C21.9 25.83 21.5 25.08 21.5 24.25C21.5 22.87 22.62 21.75 24 21.75C25.38 21.75 26.5 22.87 26.5 24.25C26.5 25.07 26.1 25.83 25.44 26.29L26.5 32.16C26.53 32.31 26.49 32.46 26.39 32.57C26.3 32.68 26.15 32.75 26.01 32.75H22ZM22.6 31.75H25.4L24.39 26.13C24.35 25.91 24.46 25.69 24.66 25.59C25.18 25.33 25.5 24.82 25.5 24.25C25.5 23.42 24.83 22.75 24 22.75C23.17 22.75 22.5 23.42 22.5 24.25C22.5 24.82 22.82 25.33 23.34 25.59C23.54 25.69 23.65 25.91 23.61 26.13L22.6 31.75Z" fill="black"/>
</svg>
