<svg width="48" height="48" viewBox="0 0 48 48" fill="none" xmlns="http://www.w3.org/2000/svg">
<path d="M36.1 19.15L36.16 18.75C36.19 18.51 36.22 18.2 36.22 17.92C36.22 13 32.17 9 27.19 9C23.89 9 20.76 10.91 19.21 13.86C18.16 12.93 16.87 12.44 15.5 12.44C12.4 12.44 9.87 14.92 9.87 17.98V19.42C5.82 20.34 3 23.9 3 28.08C3 33 7.05 37 12.03 37H16.05C16.03 36.84 16 36.67 16 36.5V36H12.03C7.6 36 4 32.45 4 28.08C4 24.37 6.5 21.22 10.09 20.41L10.87 20.23V17.99C10.87 15.49 12.95 13.45 15.5 13.45C16.63 13.45 17.68 13.85 18.55 14.62L19.51 15.46L20.1 14.33C21.48 11.7 24.26 10 27.19 10C31.62 10 35.22 13.55 35.22 17.92C35.22 18.16 35.19 18.42 35.17 18.62L34.89 20.13L36.08 20.15C40.52 20.2 44 23.69 44 28.07C44 32.45 40.4 35.99 35.97 35.99H32V36.49C32 36.66 31.97 36.83 31.95 36.99H35.97C40.95 36.99 45 32.99 45 28.07C45 23.15 41.09 19.21 36.1 19.15Z" fill="black"/>
<path d="M30 27.19C29.74 26.89 29.39 26.67 29 26.57C28.84 26.53 28.67 26.5 28.5 26.5V25C28.5 22.52 26.48 20.5 24 20.5C21.52 20.5 19.5 22.52 19.5 25V26.5C19.33 26.5 19.16 26.53 19 26.57C18.61 26.67 18.26 26.89 18 27.19C17.69 27.54 17.5 28 17.5 28.5V36.5C17.5 36.67 17.53 36.84 17.57 37C17.79 37.86 18.57 38.5 19.5 38.5H28.5C29.43 38.5 30.21 37.86 30.43 37C30.47 36.84 30.5 36.67 30.5 36.5V28.5C30.5 28 30.31 27.54 30 27.19ZM29.5 36.5C29.5 36.69 29.44 36.85 29.35 37C29.18 37.29 28.87 37.5 28.5 37.5H19.5C19.13 37.5 18.83 37.29 18.65 37C18.56 36.85 18.5 36.69 18.5 36.5V28.5C18.5 28.13 18.71 27.83 19 27.65C19.15 27.56 19.31 27.5 19.5 27.5H28.5C28.69 27.5 28.85 27.56 29 27.65C29.29 27.82 29.5 28.13 29.5 28.5V36.5ZM20.5 25C20.5 23.07 22.07 21.5 24 21.5C25.93 21.5 27.5 23.07 27.5 25V26.5H20.5V25Z" fill="black"/>
<path d="M25.21 30.75C25.21 30.75 25.21 30.72 25.21 30.71C25.21 30.06 24.7 29.55 24.06 29.51C24.05 29.51 24.04 29.51 24.03 29.51C24.02 29.51 24.01 29.51 24 29.51C23.33 29.51 22.79 30.05 22.79 30.72C22.79 30.79 22.81 30.85 22.82 30.92C22.88 31.3 23.12 31.62 23.45 31.8C23.45 31.8 23.46 31.81 23.47 31.82L23.43 32.03L23.15 33.59L23.02 34.3L22.86 35.21L22.79 35.57L22.86 35.58H25.22L25.06 34.67L24.86 33.58L24.58 32L24.55 31.82C24.55 31.82 24.58 31.78 24.6 31.77C24.96 31.57 25.21 31.19 25.22 30.76L25.21 30.75Z" fill="black"/>
</svg>
