<svg width="48" height="48" viewBox="0 0 48 48" fill="none" xmlns="http://www.w3.org/2000/svg">
<path d="M27.1855 9C32.1958 9 36.2166 12.9999 36.2168 17.9229L36.2109 18.1426C36.1873 18.656 36.0928 19.1543 36.0928 19.1543C41.0412 19.2158 45 23.1541 45 28.0771L44.9883 28.5361C44.7475 33.2464 40.8224 37 35.9688 37H30.5V36H35.9688C40.4361 36 43.9999 32.4386 44 28.0771C44 23.7134 40.4932 20.2092 36.0801 20.1543L34.8877 20.1387L35.1104 18.9668V18.9648C35.1109 18.9618 35.112 18.9565 35.1133 18.9492C35.116 18.9342 35.1209 18.9103 35.126 18.8799C35.1361 18.8188 35.1493 18.7305 35.1631 18.626C35.1914 18.4107 35.2168 18.151 35.2168 17.9229C35.2166 13.5615 31.6528 10 27.1855 10C24.2244 10 21.4689 11.6948 20.0918 14.3252L19.502 15.4521L18.5469 14.6133C17.674 13.847 16.608 13.4464 15.4951 13.4463C12.9354 13.4463 10.8664 15.479 10.8662 17.9844V20.2275L10.0869 20.4033C6.47194 21.2207 4 24.4093 4 28.0771C4.00008 32.4386 7.56393 36 12.0312 36H19V37H12.0312L11.5645 36.9883C6.92807 36.7568 3.24472 33.0945 3.01172 28.5361L3 28.0771C3 23.9541 5.78374 20.3518 9.86621 19.4287V17.9844C9.86638 14.9076 12.4024 12.4463 15.4951 12.4463L15.749 12.4521C17.0168 12.5096 18.2202 12.996 19.2061 13.8613C20.7525 10.9076 23.8454 9.00001 27.1855 9Z" fill="black"/>
<path d="M28.5342 23.5C28.7364 23.5 28.9197 23.6217 28.9971 23.8086C29.0744 23.9955 29.0307 24.2106 28.8877 24.3535L25.4766 27.7627V38.8232L28.7998 35.6143V37.0049L25.3242 40.3594C25.1799 40.4987 24.9659 40.5384 24.7812 40.46C24.5968 40.3815 24.4766 40.2005 24.4766 40V27.5557C24.4766 27.4232 24.5294 27.2959 24.623 27.2021L27.3271 24.5H21.5V37.0371H20.5V24C20.5 23.7239 20.7239 23.5 21 23.5H28.5342Z" fill="black"/>
</svg>
