<svg width="48" height="48" viewBox="0 0 48 48" fill="none" xmlns="http://www.w3.org/2000/svg">
<path fill-rule="evenodd" clip-rule="evenodd" d="M24 5.5C27.8843 5.5 30.3653 6.63834 31.8477 7.73438C33.3445 8.84258 33.7431 10.6525 33.7432 12.2812V14.7432H36.3691C38.0679 14.7432 39.9626 15.1135 41.1299 16.5283C42.2903 17.9367 43.5 20.3004 43.5 24C43.5 27.7008 42.2914 30.062 41.1289 31.4707C39.9636 32.8863 38.0678 33.2568 36.3672 33.2568H33.7432V35.7168C33.7431 37.3452 33.3451 39.1573 31.8477 40.2637C30.3651 41.3618 27.886 42.5 24 42.5C20.1157 42.5 17.6347 41.3617 16.1523 40.2656C14.6554 39.1574 14.2569 37.3454 14.2568 35.7188V33.2568H11.6309C9.92998 33.2568 8.03735 32.8864 6.87012 31.4717C5.70969 30.0633 4.5 27.6996 4.5 24C4.5 20.2984 5.70874 17.9367 6.86914 16.5283C8.03637 15.1136 9.92998 14.7432 11.6309 14.7432H14.2568V12.2812C14.2569 10.6525 14.6545 8.84258 16.1514 7.73438C17.6337 6.63836 20.1136 5.5 24 5.5ZM33.7432 20.1084C33.7431 21.282 33.2505 22.4014 32.3838 23.2227C31.5178 24.0431 30.3485 24.5 29.1348 24.5H18.8652C17.8998 24.5 16.9785 24.8636 16.3037 25.5029C15.6299 26.1413 15.2569 27.0012 15.2568 27.8916V35.7188C15.2569 37.2284 15.631 38.6349 16.7461 39.4609C18.0532 40.4275 20.3257 41.5 24 41.5C27.6764 41.5 29.947 40.4273 31.2539 39.459C32.3688 38.6351 32.7431 37.2288 32.7432 35.7168V33.2568H24V32.2568H36.3672C37.9818 32.2568 39.4851 31.8946 40.3574 30.835C41.376 29.6009 42.5 27.4632 42.5 24C42.5 20.5386 41.3753 18.3992 40.3584 17.165C39.4838 16.1054 37.981 15.7432 36.3691 15.7432H33.7432V20.1084ZM24 6.5C20.3238 6.5 18.0542 7.57247 16.7471 8.53906C15.6315 9.36503 15.2569 10.7695 15.2568 12.2812V14.7432H24V15.7432H11.6309C10.0168 15.7432 8.51518 16.1041 7.64062 17.1641L7.6416 17.165C6.62471 18.3993 5.5 20.5367 5.5 24C5.5 27.4614 6.62474 29.6008 7.6416 30.835C8.51613 31.8952 10.0166 32.2568 11.6309 32.2568H14.2568V27.8916C14.2569 26.718 14.7495 25.5986 15.6162 24.7773C16.4822 23.9569 17.6515 23.5 18.8652 23.5H29.1348C30.1002 23.5 31.0215 23.1364 31.6963 22.4971C32.3701 21.8587 32.7431 20.9988 32.7432 20.1084V12.2812C32.7431 10.7694 32.3686 9.36405 31.2529 8.53809C29.9457 7.57161 27.6738 6.5 24 6.5Z" fill="black"/>
<path d="M28.5 35.5C29.0523 35.5 29.5 35.9477 29.5 36.5C29.5 37.0523 29.0523 37.5 28.5 37.5C27.9477 37.5 27.5 37.0523 27.5 36.5C27.5 35.9477 27.9477 35.5 28.5 35.5Z" fill="black"/>
<path d="M19.5 10.5C20.0523 10.5 20.5 10.9477 20.5 11.5C20.5 12.0523 20.0523 12.5 19.5 12.5C18.9477 12.5 18.5 12.0523 18.5 11.5C18.5 10.9477 18.9477 10.5 19.5 10.5Z" fill="black"/>
</svg>
