<svg width="48" height="48" viewBox="0 0 48 48" fill="none" xmlns="http://www.w3.org/2000/svg">
<path fill-rule="evenodd" clip-rule="evenodd" d="M38.5 42H37.5V36H31.5V42H30.5V36H24.5V42H23.5V36H17.5V42H16.5V36H10.5V42H9.5V36H4.5L4.34668 35.9922C3.59028 35.9154 3 35.2767 3 34.5V13.5C3 12.6716 3.67157 12 4.5 12H9.5V6H10.5V12H16.5V6H17.5V12H23.5V6H24.5V12H30.5V6H31.5V12H37.5V6H38.5V12H43.5C44.3284 12 45 12.6716 45 13.5V34.5C45 35.2767 44.4097 35.9154 43.6533 35.9922L43.5 36H38.5V42ZM4.5 13C4.22386 13 4 13.2239 4 13.5V34.5C4 34.7761 4.22386 35 4.5 35H43.5C43.7761 35 44 34.7761 44 34.5V13.5C44 13.2239 43.7761 13 43.5 13H4.5Z" fill="black"/>
<path fill-rule="evenodd" clip-rule="evenodd" d="M15 30H9V18H15V30ZM10 29H14V19H10V29Z" fill="black"/>
<path fill-rule="evenodd" clip-rule="evenodd" d="M23 30H17V18H23V30ZM18 29H22V19H18V29Z" fill="black"/>
<path fill-rule="evenodd" clip-rule="evenodd" d="M31 30H25V18H31V30ZM26 29H30V19H26V29Z" fill="black"/>
<path fill-rule="evenodd" clip-rule="evenodd" d="M39 30H33V18H39V30ZM34 29H38V19H34V29Z" fill="black"/>
</svg>
