<svg width="48" height="48" viewBox="0 0 48 48" fill="none" xmlns="http://www.w3.org/2000/svg">
<path d="M35.4922 19.1299L33.6641 20.958H36.4795C36.6119 20.958 36.7393 21.01 36.833 21.1035L39.3799 23.6514L38.6729 24.3584L36.2725 21.957H32.957V25.2725L35.3584 27.6738L34.6504 28.3809L32.1035 25.833C32.01 25.7393 31.957 25.6119 31.957 25.4795V22.6641L30.1299 24.4922L29.4229 23.7852L31.75 21.457L29.6465 19.3535L30.3535 18.6465L32.457 20.75L34.7852 18.4229L35.4922 19.1299Z" fill="black"/>
<path fill-rule="evenodd" clip-rule="evenodd" d="M20 6C21.9403 6 23.5569 7.38177 23.9219 9.21484L30.8535 16.1465C31.0488 16.3417 31.0488 16.6583 30.8535 16.8535L28.3535 19.3535C28.1583 19.5488 27.8417 19.5488 27.6465 19.3535L21.8428 13.5498C21.2911 13.8368 20.6648 14 20 14C19.3349 14 18.7081 13.837 18.1562 13.5498L13.5498 18.1562C13.837 18.7081 14 19.3349 14 20C14 20.5307 13.8947 21.0366 13.707 21.5L23.707 31.5H26C26.2761 31.5 26.5 31.7239 26.5 32V36.5H37.5C37.6417 36.5 37.7773 36.5597 37.8721 36.665L42.3721 41.665C42.5041 41.8117 42.5372 42.0228 42.457 42.2031C42.3767 42.3835 42.1975 42.5 42 42.5H6C5.72386 42.5 5.5 42.2761 5.5 42V37C5.5 36.7239 5.72386 36.5 6 36.5H8.5V32C8.5 31.7239 8.72386 31.5 9 31.5H17.293L9.78711 23.9941C7.67695 23.8835 6 22.1377 6 20C6 18.0596 7.38167 16.442 9.21484 16.0771L16.0771 9.21484C16.442 7.38167 18.0596 6 20 6ZM6.5 41.5H40.876L37.2764 37.5H6.5V41.5ZM9.5 36.5H25.5V32.5H9.5V36.5ZM13.1963 22.4033C12.6719 23.0996 11.9259 23.6181 11.0625 23.8555L18.707 31.5H22.293L13.1963 22.4033ZM10 17C8.34315 17 7 18.3431 7 20C7 21.6569 8.34315 23 10 23C11.6569 23 13 21.6569 13 20C13 18.3431 11.6569 17 10 17ZM23.9453 10.6523C23.7953 11.5668 23.3364 12.3766 22.6777 12.9707L28 18.293L29.793 16.5L23.9453 10.6523ZM10.6523 16.0537C11.5666 16.2037 12.3766 16.6629 12.9707 17.3213L17.3213 12.9707C16.6629 12.3766 16.2037 11.5666 16.0537 10.6523L10.6523 16.0537ZM20 7C18.3431 7 17 8.34315 17 10C17 11.6569 18.3431 13 20 13C21.6569 13 23 11.6569 23 10C23 8.34315 21.6569 7 20 7Z" fill="black"/>
</svg>
