<svg width="48" height="48" viewBox="0 0 48 48" fill="none" xmlns="http://www.w3.org/2000/svg">
<path fill-rule="evenodd" clip-rule="evenodd" d="M22.7383 3.88186C23.4733 3.28426 24.5267 3.28425 25.2617 3.88186L27.3145 5.55178C27.5354 5.73139 27.8224 5.80778 28.1035 5.76272L30.7158 5.34377C31.6515 5.19345 32.5647 5.72003 32.9023 6.60549L33.8447 9.07717C33.9463 9.34341 34.1566 9.55377 34.4229 9.65529L36.8945 10.5977C37.78 10.9353 38.3066 11.8486 38.1563 12.7842L37.7373 15.3965C37.6923 15.6776 37.7686 15.9646 37.9482 16.1856L39.6182 18.2383C40.2157 18.9733 40.2158 20.0268 39.6182 20.7617L37.9482 22.8145C37.7686 23.0354 37.6922 23.3224 37.7373 23.6035L38.1563 26.2158C38.3066 27.1515 37.78 28.0647 36.8945 28.4024L34.4229 29.3447C34.1566 29.4463 33.9463 29.6566 33.8447 29.9229L32.9023 32.3946C32.6613 33.0266 32.1264 33.4734 31.5 33.624V44.791L24 41.2246L16.5 44.791V33.624C15.8736 33.4734 15.3387 33.0266 15.0977 32.3946L14.1553 29.9229C14.0538 29.6566 13.8434 29.4463 13.5772 29.3447L11.1055 28.4024C10.22 28.0647 9.69344 27.1515 9.84376 26.2158L10.2627 23.6035C10.3078 23.3224 10.2314 23.0354 10.0518 22.8145L8.38184 20.7617C7.78424 20.0267 7.78424 18.9733 8.38184 18.2383L10.0518 16.1856C10.2314 15.9646 10.3078 15.6776 10.2627 15.3965L9.84376 12.7842C9.69342 11.8485 10.22 10.9353 11.1055 10.5977L13.5772 9.65529C13.8434 9.55377 14.0538 9.34342 14.1553 9.07717L15.0977 6.60549C15.4353 5.72001 16.3485 5.19344 17.2842 5.34377L19.8965 5.76272C20.1776 5.80777 20.4646 5.7314 20.6856 5.55178L22.7383 3.88186ZM19.8965 33.2373L17.5 33.6211V43.208L23.7852 40.2197L24 40.1172L24.2148 40.2197L30.5 43.208V33.6211L28.1035 33.2373C27.8224 33.1923 27.5354 33.2686 27.3145 33.4483L25.2617 35.1182C24.5267 35.7158 23.4733 35.7158 22.7383 35.1182L20.6856 33.4483C20.4646 33.2686 20.1776 33.1923 19.8965 33.2373ZM24.6309 4.65822C24.2633 4.35921 23.7367 4.35922 23.3691 4.65822L21.3164 6.32717C20.8743 6.68673 20.2999 6.84138 19.7373 6.751L17.125 6.33108C16.6573 6.25613 16.201 6.51933 16.0322 6.96194L15.0898 9.43361C14.8868 9.96612 14.4661 10.3868 13.9336 10.5899L11.4619 11.5322C11.0193 11.701 10.7561 12.1573 10.8311 12.625L11.251 15.2373C11.3414 15.8 11.1867 16.3743 10.8272 16.8164L9.15821 18.8692C8.8592 19.2367 8.8592 19.7633 9.15821 20.1309L10.8272 22.1836C11.1867 22.6257 11.3414 23.2001 11.251 23.7627L10.8311 26.375C10.7561 26.8427 11.0193 27.299 11.4619 27.4678L13.9336 28.4102C14.4661 28.6132 14.8868 29.0339 15.0898 29.5664L16.0322 32.0381C16.201 32.4807 16.6573 32.7439 17.125 32.669L19.7373 32.249C20.2999 32.1587 20.8743 32.3133 21.3164 32.6729L23.3691 34.3418C23.7367 34.6408 24.2633 34.6408 24.6309 34.3418L26.6836 32.6729C27.1257 32.3133 27.7001 32.1586 28.2627 32.249L30.875 32.669C31.3427 32.7439 31.799 32.4807 31.9678 32.0381L32.9102 29.5664C33.1132 29.0339 33.5339 28.6132 34.0664 28.4102L36.5381 27.4678C36.9807 27.299 37.2439 26.8427 37.169 26.375L36.749 23.7627C36.6586 23.2001 36.8133 22.6257 37.1729 22.1836L38.8418 20.1309C39.1408 19.7633 39.1408 19.2367 38.8418 18.8692L37.1729 16.8164C36.8133 16.3743 36.6586 15.8 36.749 15.2373L37.169 12.625C37.2439 12.1573 36.9807 11.701 36.5381 11.5322L34.0664 10.5899C33.5339 10.3868 33.1132 9.96612 32.9102 9.43361L31.9678 6.96194C31.799 6.51934 31.3427 6.25614 30.875 6.33108L28.2627 6.751C27.7001 6.8414 27.1257 6.68671 26.6836 6.32717L24.6309 4.65822Z" fill="black"/>
<path d="M28.5 16.248L22.9775 23.4385L22.5254 23.0127L19.501 20.1709L20.2705 19.3506L22.8418 21.7676L27.6074 15.5625L28.5 16.248Z" fill="black"/>
<path fill-rule="evenodd" clip-rule="evenodd" d="M24 10.5C28.9706 10.5 33 14.5294 33 19.5C33 24.4706 28.9706 28.5 24 28.5C19.0294 28.5 15 24.4706 15 19.5C15 14.5294 19.0294 10.5 24 10.5ZM24 11.5C19.5817 11.5 16 15.0817 16 19.5C16 23.9183 19.5817 27.5 24 27.5C28.4183 27.5 32 23.9183 32 19.5C32 15.0817 28.4183 11.5 24 11.5Z" fill="black"/>
</svg>
