<svg width="48" height="48" viewBox="0 0 48 48" fill="none" xmlns="http://www.w3.org/2000/svg">
<path d="M12.6456 26.8291L12.0723 27.6484L9.18561 25.627C9.65622 29.226 11.0314 32.5564 13.3253 35.6309C16.16 39.4303 19.7128 41.8593 24.0001 42.9668C28.2886 41.8605 31.8415 39.4322 34.6749 35.6328C35.9511 33.9214 36.9419 32.1301 37.6524 30.2578L38.5245 30.7754C37.7855 32.6758 36.7702 34.4946 35.4756 36.2305L35.1905 36.6055C32.2198 40.4351 28.4898 42.9001 24.0001 44C19.5116 42.8988 15.7816 40.4332 12.8096 36.6035L12.5245 36.2285C10.1458 33.0403 8.70498 29.5751 8.20221 25.833L6.20709 28.6826L5.38873 28.1084L8.37701 23.8398L12.6456 26.8291Z" fill="black"/>
<path d="M40.0001 9.8457V22.7588C40.0001 23.8952 39.9171 25.0076 39.7569 26.0967L42.7725 23.9863L43.3458 24.8057L39.0772 27.7939L36.088 23.5254L36.9073 22.9521L38.8077 25.667C38.9343 24.7164 39.0001 23.7473 39.0001 22.7588V10.5449L24.0001 5.06445L9.00006 10.5449V21.0332H8.00006V9.8457L24.0001 4L40.0001 9.8457Z" fill="black"/>
<path d="M32.334 15.7502L32.7363 16.0461L21.3604 31.5305L15.3027 25.093L16.0312 24.4075L21.2646 29.97L31.9307 15.4543L32.334 15.7502Z" fill="black"/>
</svg>
