<svg width="48" height="48" viewBox="0 0 48 48" fill="none" xmlns="http://www.w3.org/2000/svg">
<path d="M29.918 30.9033C30.0998 30.9033 30.2622 30.9232 30.4043 30.9629C30.5462 31.0025 30.6634 31.0472 30.7559 31.0967L30.5977 31.5234C30.515 31.4805 30.4202 31.4438 30.3145 31.4141C30.2087 31.381 30.0861 31.3643 29.9473 31.3643C29.769 31.3643 29.6383 31.3921 29.5557 31.4482C29.4731 31.5044 29.4318 31.589 29.4316 31.7012C29.4316 31.7704 29.4533 31.832 29.4961 31.8848C29.5391 31.9343 29.6035 31.9814 29.6895 32.0244C29.7754 32.0641 29.8813 32.1071 30.0068 32.1533C30.2117 32.226 30.3773 32.3016 30.5029 32.3809C30.6319 32.4569 30.7282 32.5501 30.791 32.6592C30.8536 32.7682 30.8848 32.9069 30.8848 33.0752C30.8848 33.2504 30.8434 33.4007 30.7607 33.5264C30.6781 33.652 30.5524 33.7483 30.3838 33.8145C30.2185 33.8805 30.0099 33.9131 29.7588 33.9131C29.5507 33.9131 29.3675 33.8931 29.209 33.8535C29.0538 33.8106 28.9215 33.758 28.8125 33.6953L28.9658 33.2686C29.0616 33.3214 29.1739 33.366 29.3027 33.4023C29.4349 33.4354 29.5871 33.4521 29.7588 33.4521C29.9703 33.4521 30.1175 33.4171 30.2002 33.3477C30.2828 33.2782 30.3242 33.1876 30.3242 33.0752C30.3242 33.0058 30.3043 32.9445 30.2646 32.8916C30.2282 32.8388 30.1637 32.7878 30.0713 32.7383C29.9821 32.6888 29.8586 32.6368 29.7002 32.584C29.5515 32.5311 29.4137 32.4723 29.2881 32.4062C29.1658 32.3368 29.0663 32.2484 28.9902 32.1426C28.9177 32.0368 28.8818 31.9014 28.8818 31.7363C28.8818 31.5611 28.9232 31.4124 29.0059 31.29C29.0918 31.1645 29.2119 31.068 29.3672 31.002C29.5226 30.9358 29.7064 30.9033 29.918 30.9033Z" fill="black"/>
<path d="M17.9658 30.9629C18.0749 31.1976 18.188 31.4171 18.3037 31.6221C18.4194 31.827 18.541 32.034 18.6699 32.2422C18.7493 32.1166 18.8226 31.9987 18.8887 31.8896C18.9547 31.7807 19.0161 31.6746 19.0723 31.5723C19.1316 31.4668 19.1859 31.3645 19.2354 31.2656C19.2849 31.1664 19.3336 31.0654 19.3799 30.9629H19.9697C19.8706 31.1612 19.7663 31.3561 19.6572 31.5479C19.5514 31.7396 19.4368 31.9329 19.3145 32.1279C19.1955 32.3197 19.0666 32.5203 18.9277 32.7285V33.8584H18.3877V32.7383C18.2059 32.4672 18.0268 32.1823 17.8516 31.8848C17.6765 31.5875 17.5085 31.28 17.3467 30.9629H17.9658Z" fill="black"/>
<path d="M22.3428 31.4189H20.9844V32.123H22.1885V32.5693H20.9844V33.4023H22.4414V33.8584H20.4434V30.9629H22.3428V31.4189Z" fill="black"/>
<path fill-rule="evenodd" clip-rule="evenodd" d="M24.7637 31.5879C24.8562 31.796 24.9485 32.0158 25.041 32.2471C25.1369 32.4752 25.2348 32.7218 25.334 32.9863C25.4364 33.2473 25.5455 33.538 25.6611 33.8584H25.0859C25.076 33.8254 25.0608 33.7822 25.041 33.7295C25.0212 33.6735 24.998 33.6143 24.9717 33.5518C24.9486 33.489 24.9254 33.426 24.9023 33.3633C24.8792 33.2972 24.8577 33.2358 24.8379 33.1797H23.5879C23.5681 33.2424 23.5434 33.3134 23.5137 33.3926C23.4872 33.4686 23.4594 33.5482 23.4297 33.6309C23.4 33.71 23.3721 33.7859 23.3457 33.8584H22.7852C22.8909 33.571 22.9921 33.2987 23.0879 33.041C23.1871 32.7832 23.284 32.5365 23.3799 32.3018C23.4758 32.0637 23.5721 31.8354 23.668 31.6172C23.7638 31.3959 23.8624 31.1776 23.9648 30.9629H24.4756C24.5748 31.1712 24.6711 31.3796 24.7637 31.5879ZM24.0938 31.7959C24.0442 31.9215 23.987 32.0656 23.9209 32.2275C23.8548 32.3895 23.7862 32.5629 23.7168 32.748H24.709C24.6396 32.5695 24.5751 32.4056 24.5156 32.2568C24.4594 32.1081 24.4044 31.9729 24.3516 31.8506C24.302 31.725 24.2543 31.6103 24.208 31.5078C24.1849 31.5739 24.1466 31.6703 24.0938 31.7959Z" fill="black"/>
<path fill-rule="evenodd" clip-rule="evenodd" d="M26.9717 30.9326C27.4048 30.9326 27.7342 31.0091 27.959 31.1611C28.1836 31.3132 28.2959 31.548 28.2959 31.8652C28.2959 32.0701 28.245 32.2373 28.1426 32.3662C28.0434 32.4951 27.8977 32.5931 27.7061 32.6592C27.7952 32.7649 27.8845 32.8836 27.9736 33.0156C28.0629 33.1479 28.1504 33.2872 28.2363 33.4326C28.3222 33.5746 28.4019 33.7164 28.4746 33.8584H27.8691C27.7502 33.6569 27.6316 33.4602 27.5127 33.2686C27.397 33.0768 27.2728 32.9066 27.1406 32.7578C27.134 32.7611 27.1156 32.7627 27.0859 32.7627H26.6895V33.8584H26.1533V31.0078C26.2789 30.9814 26.4151 30.963 26.5605 30.9531C26.7058 30.9399 26.8429 30.9326 26.9717 30.9326ZM26.8574 31.3945C26.808 31.3978 26.752 31.4026 26.6895 31.4092V32.3418H26.9668C27.2409 32.3418 27.4376 32.3034 27.5566 32.2275C27.679 32.1515 27.7402 32.0305 27.7402 31.8652C27.7402 31.7033 27.6789 31.5838 27.5566 31.5078C27.4344 31.4287 27.2494 31.3897 27.002 31.3896C26.959 31.3896 26.9103 31.3912 26.8574 31.3945Z" fill="black"/>
<path d="M12.6456 26.8291L12.0723 27.6484L9.18561 25.627C9.65622 29.226 11.0314 32.5564 13.3253 35.6309C16.16 39.4303 19.7128 41.8593 24.0001 42.9668C28.2886 41.8605 31.8415 39.4322 34.6749 35.6328C35.9511 33.9214 36.9419 32.1301 37.6524 30.2578L38.5245 30.7754C37.7855 32.6758 36.7702 34.4946 35.4756 36.2305L35.1905 36.6055C32.2198 40.4351 28.4898 42.9001 24.0001 44C19.5116 42.8988 15.7816 40.4332 12.8096 36.6035L12.5245 36.2285C10.1458 33.0403 8.70498 29.5751 8.20221 25.833L6.20709 28.6826L5.38873 28.1084L8.37701 23.8398L12.6456 26.8291Z" fill="black"/>
<path d="M40.0001 9.8457V22.7588C40.0001 23.8952 39.9171 25.0076 39.7569 26.0967L42.7725 23.9863L43.3458 24.8057L39.0772 27.7939L36.088 23.5254L36.9073 22.9521L38.8077 25.667C38.9343 24.7164 39.0001 23.7473 39.0001 22.7588V10.5449L24.0001 5.06445L9.00006 10.5449V21.0332H8.00006V9.8457L24.0001 4L40.0001 9.8457Z" fill="black"/>
<path d="M26.7724 28.091C26.2939 28.091 25.8347 28.0522 25.395 27.9746C24.9682 27.897 24.5867 27.8 24.2504 27.6836C23.927 27.5672 23.6813 27.4638 23.5132 27.3732L23.8236 26.3256C24.0435 26.442 24.425 26.5843 24.9682 26.7524C25.5243 26.9206 26.1193 27.0046 26.753 27.0046C27.5937 27.0046 28.2662 26.8818 28.7706 26.636C29.275 26.3903 29.6371 26.0411 29.857 25.5884C30.0898 25.1358 30.2062 24.6184 30.2062 24.0364C30.2062 23.3251 30.0316 22.7237 29.6824 22.2322C29.3461 21.7408 28.7641 21.3657 27.9364 21.107C27.1216 20.8484 25.9899 20.719 24.5414 20.719C24.619 20.0336 24.6837 19.4128 24.7354 18.8566C24.7871 18.2876 24.8324 17.7573 24.8712 17.2658C24.91 16.7744 24.9359 16.2958 24.9488 15.8302C24.9747 15.3517 24.9941 14.8602 25.007 14.3558H31.0016V15.4228H26.0546C26.0417 15.6686 26.0223 15.979 25.9964 16.354C25.9835 16.7162 25.9576 17.1042 25.9188 17.518C25.8929 17.9319 25.8606 18.3328 25.8218 18.7208C25.783 19.1088 25.7507 19.4451 25.7248 19.7296C27.6519 19.7684 29.0875 20.1629 30.0316 20.913C30.9887 21.6502 31.4672 22.6849 31.4672 24.017C31.4672 24.8189 31.2926 25.5302 30.9434 26.151C30.6071 26.7589 30.0898 27.2374 29.3914 27.5866C28.693 27.9229 27.82 28.091 26.7724 28.091Z" fill="black"/>
<path d="M18.926 27.8V16.1794C18.732 16.3993 18.4669 16.6256 18.1306 16.8584C17.7943 17.0912 17.4193 17.3111 17.0054 17.518C16.6045 17.725 16.1906 17.8996 15.7638 18.0418L15.3952 17.1106C16.1583 16.839 16.8502 16.4898 17.471 16.063C18.1047 15.6362 18.7061 15.0672 19.2752 14.3558H20.1094V27.8H18.926Z" fill="black"/>
</svg>
