<svg width="48" height="48" viewBox="0 0 48 48" fill="none" xmlns="http://www.w3.org/2000/svg">
<path d="M26.25 42.6035L24 43.8496L21.749 42.6035L22.2344 41.7285L24 42.7061L25.7656 41.7285L26.25 42.6035ZM17.7344 39.2383L17.249 40.1133L15 38.8682L12.75 37.6221L13.2344 36.748L17.7344 39.2383ZM35.249 37.6221L33 38.8682L30.75 40.1133L30.2656 39.2383L34.7656 36.748L35.249 37.6221ZM7 33.2969L8.73438 34.2568L8.24902 35.1318L6 33.8867V31.3965H7V33.2969ZM42 33.8867L39.75 35.1318L39.2656 34.2568L41 33.2969V31.3965H42V33.8867ZM7 26.415H6V21.4336H7V26.415ZM42 26.415H41V21.4336H42V26.415ZM8.73438 13.5918L7 14.5508V16.4531H6V13.9619L8.25 12.7168L8.73438 13.5918ZM42 13.9619V16.4531H41V14.5508L39.2656 13.5918L39.75 12.7168L42 13.9619ZM17.25 7.73633L17.7344 8.61035L15.4844 9.85645L13.2344 11.1016L12.75 10.2266L15 8.98145L17.249 7.73535L17.25 7.73633ZM33 8.98145L35.25 10.2266L34.7656 11.1016L32.5156 9.85645L30.2656 8.61035L30.75 7.73633V7.73535L33 8.98145ZM26.249 5.24512L25.7656 6.12012L24 5.14258L22.2344 6.12012L21.75 5.24512L24 4L26.249 5.24512Z" fill="black"/>
<path d="M32 19.4707V28.4121L24 32.8828L16 28.4121V19.4707L24 15L32 19.4707ZM17 27.8242L20.4883 29.7744L23.5 31.4561V24.2969L17 20.6357V27.8242ZM24.5 24.2969V31.4561L27.5117 29.7744L31 27.8242V20.6357L24.5 24.2969ZM20.4883 18.1084L17.5068 19.7734L24 23.4297L30.4922 19.7734L27.5117 18.1084L24 16.1455L20.4883 18.1084Z" fill="black"/>
<path d="M24.5 37.293L25.5 36.293L26.207 37L24 39.207L21.793 37L22.5 36.293L23.5 37.293V34H24.5V37.293ZM11.707 22.5049L11.3516 22.8555L10.7188 23.4805H14V24.4805H10.6963L11.3555 25.1484L11.707 25.5049L10.9951 26.207L10.6445 25.8516L9.14453 24.332L8.79297 23.9756L9.14844 23.625L10.6484 22.1445L11.0049 21.793L11.707 22.5049ZM37.6973 22.1904L38.8926 23.7109L39.1396 24.0234L38.8887 24.334L37.6934 25.8145L37.3799 26.2031L36.6016 25.5752L36.916 25.1855L37.4541 24.5195H34V23.5195H37.4697L36.9111 22.8096L36.6025 22.416L37.3887 21.7979L37.6973 22.1904ZM26.207 11L25.5 11.707L24.5 10.707V14H23.5V10.707L22.5 11.707L21.793 11L24 8.79297L26.207 11Z" fill="black"/>
</svg>
