<svg width="48" height="48" viewBox="0 0 48 48" fill="none" xmlns="http://www.w3.org/2000/svg">
<path d="M42 17.4746H6V16.5254H42V17.4746Z" fill="black"/>
<path d="M42 13.5H18V12.5H42V13.5Z" fill="black"/>
<path fill-rule="evenodd" clip-rule="evenodd" d="M44.6006 9.00977C44.8286 9.05629 45 9.25829 45 9.5V38.5C45 38.7417 44.8286 38.9437 44.6006 38.9902L44.5 39H3.5C3.25829 39 3.05629 38.8286 3.00977 38.6006L3 38.5V9.5C3 9.22386 3.22386 9 3.5 9H44.5L44.6006 9.00977ZM4 38H44V10H4V38Z" fill="black"/>
<path d="M7.75 12C8.30228 12 8.75 12.4477 8.75 13C8.75 13.5523 8.30228 14 7.75 14C7.19772 14 6.75 13.5523 6.75 13C6.75 12.4477 7.19772 12 7.75 12Z" fill="black"/>
<path d="M12.25 12C12.8023 12 13.25 12.4477 13.25 13C13.25 13.5523 12.8023 14 12.25 14C11.6977 14 11.25 13.5523 11.25 13C11.25 12.4477 11.6977 12 12.25 12Z" fill="black"/>
<path d="M26.7246 20.1582L22.2246 33.6582L21.2754 33.3418L25.7754 19.8418L26.7246 20.1582Z" fill="black"/>
<path d="M18.3203 23.3838L14.2803 26.75L18.3203 30.1162L17.6797 30.8838L12.7188 26.75L17.6797 22.6162L18.3203 23.3838Z" fill="black"/>
<path d="M35.2812 26.75L30.3203 30.8838L29.6797 30.1162L33.7197 26.75L29.6797 23.3838L30.3203 22.6162L35.2812 26.75Z" fill="black"/>
</svg>
