<svg width="48" height="48" viewBox="0 0 48 48" fill="none" xmlns="http://www.w3.org/2000/svg">
<path d="M22.5 16.5H19.5V10.5H22.5V16.5Z" fill="black"/>
<path d="M28.5 16.5H25.5V10.5H28.5V16.5Z" fill="black"/>
<path d="M34.5 16.5H31.5V10.5H34.5V16.5Z" fill="black"/>
<path fill-rule="evenodd" clip-rule="evenodd" d="M37.5 4.5C38.3284 4.5 39 5.17157 39 6V42C39 42.8284 38.3284 43.5 37.5 43.5H12C11.1716 43.5 10.5 42.8284 10.5 42V26.1211C10.5001 25.7731 10.6212 25.4377 10.8398 25.1709L10.9395 25.0605L14.5605 21.4395C14.8066 21.1934 14.958 20.8706 14.9922 20.5273L15 20.3789V6C15 5.17157 15.6716 4.5 16.5 4.5H37.5ZM16.5 5.5C16.2239 5.5 16 5.72386 16 6V20.3789C15.9999 21.0419 15.7364 21.6777 15.2676 22.1465L11.6465 25.7676C11.5528 25.8613 11.5001 25.9886 11.5 26.1211V42C11.5 42.2761 11.7239 42.5 12 42.5H37.5C37.7761 42.5 38 42.2761 38 42V6C38 5.72386 37.7761 5.5 37.5 5.5H16.5Z" fill="black"/>
</svg>
