<svg width="48" height="48" viewBox="0 0 48 48" fill="none" xmlns="http://www.w3.org/2000/svg">
<path fill-rule="evenodd" clip-rule="evenodd" d="M40 9.7002V23.29L39.9951 23.7402C39.9038 28.3767 38.3973 32.605 35.4756 36.4248L35.1904 36.79C32.2197 40.524 28.4898 42.9275 24 44C19.5115 42.9263 15.7815 40.5222 12.8096 36.7881L12.5244 36.4229C9.60145 32.603 8.09407 28.3755 8.00391 23.7402L8 23.29V9.7002L24 4L40 9.7002ZM9 10.4043V23.29C8.99873 27.8749 10.43 32.0409 13.3184 35.8154C16.1513 39.5174 19.705 41.8884 24 42.9688C28.2964 41.8896 31.8501 39.5193 34.6816 35.8174C37.5687 32.0428 39 27.8764 39 23.29V10.4043L24 5.06152L9 10.4043Z" fill="black"/>
<path d="M32.334 15.7502L32.7363 16.0461L21.3604 31.5305L15.3018 25.093L16.0312 24.4075L21.2646 29.97L31.9307 15.4543L32.334 15.7502Z" fill="black"/>
</svg>
