<svg width="48" height="48" viewBox="0 0 48 48" fill="none" xmlns="http://www.w3.org/2000/svg">
<path d="M40.1129 13.9312C42.5628 17.8519 43.4984 22.5318 42.7457 27.0933C41.9928 31.6551 39.6022 35.7858 36.0221 38.7115C32.4419 41.6372 27.9179 43.1577 23.2975 42.9869C18.9844 42.8273 14.8646 41.2037 11.6071 38.4V42.3218H10.6071V36.3931H16.5358V37.3931H11.9752C15.104 40.2024 19.1222 41.8311 23.3346 41.9869C27.7116 42.1487 31.9976 40.7095 35.3893 37.9381C38.7809 35.1664 41.046 31.2528 41.7594 26.9312C42.4726 22.6097 41.5853 18.176 39.2643 14.4615L39.6881 14.1959L40.1129 13.9312Z" fill="black"/>
<path d="M24.6227 5.00935C28.9623 5.15173 33.1143 6.77665 36.3932 9.59822V5.6783H37.3932V11.607H31.4645V10.607H36.026C32.877 7.7794 28.8277 6.14838 24.5895 6.00935C20.2205 5.8662 15.9481 7.31787 12.5709 10.0933C9.19371 12.8689 6.94195 16.7793 6.23596 21.0933C5.53019 25.4071 6.4188 29.8306 8.73498 33.5377L8.31115 33.8033L7.88635 34.0679C5.4414 30.1548 4.50355 25.4848 5.24865 20.9312C5.9939 16.3776 8.37132 12.2506 11.9362 9.32087C15.5011 6.39114 20.0108 4.85816 24.6227 5.00935Z" fill="black"/>
<path fill-rule="evenodd" clip-rule="evenodd" d="M26 15.5C26.2761 15.5 26.5 15.7239 26.5 16V21.5H32C32.2761 21.5 32.5 21.7239 32.5 22V26C32.5 26.2761 32.2761 26.5 32 26.5H26.5V32C26.5 32.2761 26.2761 32.5 26 32.5H22C21.7239 32.5 21.5 32.2761 21.5 32V26.5H16C15.7239 26.5 15.5 26.2761 15.5 26V22C15.5 21.7239 15.7239 21.5 16 21.5H21.5V16C21.5 15.7239 21.7239 15.5 22 15.5H26ZM22.5 22C22.5 22.2761 22.2761 22.5 22 22.5H16.5V25.5H22C22.2761 25.5 22.5 25.7239 22.5 26V31.5H25.5V26C25.5 25.7239 25.7239 25.5 26 25.5H31.5V22.5H26C25.7239 22.5 25.5 22.2761 25.5 22V16.5H22.5V22Z" fill="black"/>
</svg>
