<svg width="48" height="48" viewBox="0 0 48 48" fill="none" xmlns="http://www.w3.org/2000/svg">
<path d="M39.5 30C40.6046 30 41.5 30.8954 41.5 32V37C41.5 38.1046 40.6046 39 39.5 39H24.5V40.4277C25.5716 40.6573 26.375 41.6099 26.375 42.75C26.375 44.0617 25.3117 45.125 24 45.125C22.6883 45.125 21.625 44.0617 21.625 42.75C21.625 41.6099 22.4284 40.6574 23.5 40.4277V39H8.5C7.39543 39 6.5 38.1046 6.5 37V32C6.5 30.8954 7.39543 30 8.5 30H39.5ZM24 41.375C23.2406 41.375 22.625 41.9906 22.625 42.75C22.625 43.5094 23.2406 44.125 24 44.125C24.7594 44.125 25.375 43.5094 25.375 42.75C25.375 41.9906 24.7594 41.375 24 41.375ZM8.5 31C7.94772 31 7.5 31.4477 7.5 32V37L7.50488 37.1025C7.55278 37.573 7.92703 37.9472 8.39746 37.9951L8.5 38H39.5L39.6025 37.9951C40.1067 37.9438 40.5 37.5177 40.5 37V32C40.5 31.4477 40.0523 31 39.5 31H8.5ZM12 33.501C12.5523 33.501 13 33.9487 13 34.501C13 35.0533 12.5523 35.501 12 35.501C11.4477 35.501 11 35.0533 11 34.501C11 33.9487 11.4477 33.501 12 33.501ZM39.5 19C40.6046 19 41.5 19.8954 41.5 21V26C41.5 27.1046 40.6046 28 39.5 28H8.5C7.39543 28 6.5 27.1046 6.5 26V21C6.5 19.8954 7.39543 19 8.5 19H39.5ZM8.5 20C7.94772 20 7.5 20.4477 7.5 21V26L7.50488 26.1025C7.55278 26.573 7.92703 26.9472 8.39746 26.9951L8.5 27H39.5L39.6025 26.9951C40.1067 26.9438 40.5 26.5177 40.5 26V21C40.5 20.4477 40.0523 20 39.5 20H8.5ZM12 22.501C12.5523 22.501 13 22.9487 13 23.501C13 24.0533 12.5523 24.501 12 24.501C11.4477 24.501 11 24.0533 11 23.501C11 22.9487 11.4477 22.501 12 22.501ZM39.5 8C40.6046 8 41.5 8.89543 41.5 10V15C41.5 16.1046 40.6046 17 39.5 17H8.5C7.39543 17 6.5 16.1046 6.5 15V10C6.5 8.89543 7.39543 8 8.5 8H39.5ZM8.5 9C7.94772 9 7.5 9.44772 7.5 10V15L7.50488 15.1025C7.55278 15.573 7.92703 15.9472 8.39746 15.9951L8.5 16H39.5L39.6025 15.9951C40.1067 15.9438 40.5 15.5177 40.5 15V10C40.5 9.44772 40.0523 9 39.5 9H8.5ZM12 11.501C12.5523 11.501 13 11.9487 13 12.501C13 13.0533 12.5523 13.501 12 13.501C11.4477 13.501 11 13.0533 11 12.501C11 11.9487 11.4477 11.501 12 11.501Z" fill="black"/>
<circle cx="16" cy="12.501" r="1" fill="black"/>
<circle cx="16" cy="23.501" r="1" fill="black"/>
<circle cx="16" cy="34.501" r="1" fill="black"/>
</svg>
