<svg width="48" height="48" viewBox="0 0 48 48" fill="none" xmlns="http://www.w3.org/2000/svg">
<path fill-rule="evenodd" clip-rule="evenodd" d="M40 9.7002V23.29L39.9951 23.7402C39.9038 28.3767 38.3973 32.605 35.4756 36.4248L35.1904 36.79C32.2197 40.524 28.4898 42.9275 24 44C19.5115 42.9263 15.7815 40.5222 12.8096 36.7881L12.5244 36.4229C9.60145 32.603 8.09407 28.3755 8.00391 23.7402L8 23.29V9.7002L24 4L40 9.7002ZM9 10.4043V23.29C8.99873 27.8749 10.43 32.0409 13.3184 35.8154C16.1513 39.5174 19.705 41.8884 24 42.9688C28.2964 41.8896 31.8501 39.5193 34.6816 35.8174C37.5687 32.0428 39 27.8764 39 23.29V10.4043L24 5.06152L9 10.4043Z" fill="black"/>
<path d="M24.0049 24.5C24.5569 24.5003 25.0049 24.9479 25.0049 25.5C25.0048 25.8936 24.7759 26.2324 24.4453 26.3955L25.0049 29.5H23.0049L23.5625 26.3955C23.2324 26.2322 23.005 25.8932 23.0049 25.5C23.0049 24.9477 23.4526 24.5 24.0049 24.5Z" fill="black"/>
<path fill-rule="evenodd" clip-rule="evenodd" d="M24 16C25.933 16 27.5 17.567 27.5 19.5V22H28.5C29.3284 22 30 22.6716 30 23.5V30.5C30 31.3284 29.3284 32 28.5 32H19.5C18.7233 32 18.0846 31.4097 18.0078 30.6533L18 30.5V23.5C18 22.6716 18.6716 22 19.5 22H20.5V19.5C20.5 17.567 22.067 16 24 16ZM19.5 23C19.2239 23 19 23.2239 19 23.5V30.5C19 30.7761 19.2239 31 19.5 31H28.5C28.7761 31 29 30.7761 29 30.5V23.5C29 23.2239 28.7761 23 28.5 23H19.5ZM24 17C22.6193 17 21.5 18.1193 21.5 19.5V22H26.5V19.5C26.5 18.1193 25.3807 17 24 17Z" fill="black"/>
</svg>
