<svg width="48" height="48" viewBox="0 0 48 48" fill="none" xmlns="http://www.w3.org/2000/svg">
<path fill-rule="evenodd" clip-rule="evenodd" d="M40 9.7002V23.29L39.9951 23.7402C39.9038 28.3767 38.3973 32.605 35.4756 36.4248L35.1904 36.79C32.2197 40.524 28.4898 42.9275 24 44C19.5115 42.9263 15.7815 40.5222 12.8096 36.7881L12.5244 36.4229C9.60145 32.603 8.09407 28.3755 8.00391 23.7402L8 23.29V9.7002L24 4L40 9.7002ZM9 10.4043V23.29C8.99873 27.8749 10.43 32.0409 13.3184 35.8154C16.1513 39.5174 19.705 41.8884 24 42.9688C28.2964 41.8896 31.8501 39.5193 34.6816 35.8174C37.5687 32.0428 39 27.8764 39 23.29V10.4043L24 5.06152L9 10.4043Z" fill="black"/>
<path d="M29.7592 33.9133C29.5509 33.9133 29.3674 33.8935 29.2088 33.8538C29.0534 33.8108 28.9211 33.7579 28.812 33.6951L28.9658 33.2686C29.0616 33.3215 29.174 33.3662 29.303 33.4025C29.4352 33.4356 29.5873 33.4521 29.7592 33.4521C29.9708 33.4521 30.1179 33.4174 30.2006 33.348C30.2832 33.2786 30.3245 33.1876 30.3245 33.0752C30.3245 33.0058 30.3047 32.9447 30.265 32.8918C30.2287 32.8389 30.1642 32.7876 30.0716 32.738C29.9824 32.6884 29.8584 32.6372 29.6997 32.5843C29.5509 32.5314 29.4137 32.4719 29.2881 32.4058C29.1658 32.3363 29.0666 32.2487 28.9906 32.1429C28.9178 32.0372 28.8815 31.9016 28.8815 31.7363C28.8815 31.5611 28.9228 31.4123 29.0054 31.29C29.0914 31.1644 29.2121 31.0685 29.3674 31.0024C29.5228 30.9363 29.7063 30.9032 29.9179 30.9032C30.0997 30.9032 30.2617 30.923 30.4039 30.9627C30.546 31.0024 30.6634 31.047 30.756 31.0966L30.5973 31.5231C30.5146 31.4801 30.4204 31.4437 30.3146 31.414C30.2088 31.3809 30.0865 31.3644 29.9476 31.3644C29.7691 31.3644 29.6385 31.3925 29.5559 31.4487C29.4732 31.5049 29.4319 31.5892 29.4319 31.7016C29.4319 31.771 29.4534 31.8322 29.4964 31.8851C29.5394 31.9347 29.6038 31.981 29.6898 32.0239C29.7757 32.0636 29.8815 32.1066 30.0072 32.1529C30.2121 32.2256 30.3774 32.3016 30.5031 32.381C30.632 32.457 30.7279 32.5496 30.7907 32.6587C30.8535 32.7678 30.8849 32.9066 30.8849 33.0752C30.8849 33.2505 30.8436 33.4009 30.7609 33.5265C30.6783 33.6521 30.5526 33.748 30.384 33.8141C30.2187 33.8802 30.0105 33.9133 29.7592 33.9133Z" fill="black"/>
<path d="M26.1536 33.8588V31.0074C26.2792 30.9809 26.4147 30.9627 26.5602 30.9528C26.7057 30.9396 26.8429 30.933 26.9718 30.933C27.4049 30.933 27.7338 31.009 27.9586 31.1611C28.1834 31.3132 28.2958 31.5479 28.2958 31.8653C28.2958 32.0702 28.2446 32.2372 28.1421 32.3661C28.0429 32.4951 27.8975 32.5926 27.7057 32.6587C27.795 32.7645 27.8842 32.8835 27.9735 33.0158C28.0628 33.148 28.1504 33.2869 28.2363 33.4323C28.3223 33.5745 28.4016 33.7166 28.4744 33.8588H27.8694C27.7504 33.6571 27.6313 33.4604 27.5123 33.2687C27.3966 33.0769 27.2726 32.9067 27.1404 32.7579C27.1338 32.7612 27.1156 32.7629 27.0858 32.7629C27.0594 32.7629 27.0313 32.7629 27.0015 32.7629C26.9751 32.7629 26.9553 32.7629 26.942 32.7629H26.6891V33.8588H26.1536ZM26.6891 32.3413H26.9668C27.2412 32.3413 27.4379 32.3033 27.557 32.2273C27.6793 32.1512 27.7404 32.0306 27.7404 31.8653C27.7404 31.7033 27.6793 31.5843 27.557 31.5082C27.4346 31.4289 27.2495 31.3892 27.0015 31.3892C26.9586 31.3892 26.9106 31.3909 26.8577 31.3942C26.8081 31.3975 26.7519 31.4024 26.6891 31.409V32.3413Z" fill="black"/>
<path d="M22.7849 33.8588C22.8907 33.5712 22.9915 33.2985 23.0874 33.0406C23.1866 32.7827 23.2841 32.5364 23.38 32.3017C23.4759 32.0637 23.5717 31.8356 23.6676 31.6174C23.7635 31.3959 23.8627 31.1777 23.9651 30.9628H24.4759C24.5751 31.171 24.671 31.3793 24.7635 31.5876C24.8561 31.7959 24.9487 32.0157 25.0412 32.2471C25.1371 32.4753 25.2346 32.7216 25.3338 32.986C25.4363 33.2472 25.5454 33.5381 25.6611 33.8588H25.0859C25.076 33.8258 25.0611 33.7828 25.0412 33.7299C25.0214 33.6737 24.9983 33.6142 24.9718 33.5514C24.9487 33.4886 24.9255 33.4257 24.9024 33.3629C24.8792 33.2968 24.8578 33.2356 24.8379 33.1794H23.5883C23.5684 33.2423 23.5436 33.3133 23.5139 33.3927C23.4874 33.4687 23.4593 33.5481 23.4296 33.6307C23.3998 33.7101 23.3717 33.7861 23.3453 33.8588H22.7849ZM23.7172 32.748H24.709C24.6396 32.5695 24.5751 32.4058 24.5156 32.2571C24.4594 32.1083 24.4048 31.9728 24.3519 31.8504C24.3024 31.7248 24.2544 31.6107 24.2081 31.5083C24.185 31.5744 24.147 31.6703 24.0941 31.7959C24.0445 31.9215 23.9866 32.0653 23.9205 32.2273C23.8544 32.3893 23.7866 32.5629 23.7172 32.748Z" fill="black"/>
<path d="M20.4433 33.8588V30.9628H22.3426V31.419H20.9839V32.1232H22.1889V32.5695H20.9839V33.4026H22.4418V33.8588H20.4433Z" fill="black"/>
<path d="M18.3876 33.8588V32.7381C18.2058 32.467 18.0272 32.1827 17.852 31.8851C17.6768 31.5876 17.5082 31.2801 17.3462 30.9628H17.9661C18.0752 31.1975 18.1876 31.4173 18.3033 31.6223C18.419 31.8273 18.5413 32.0339 18.6703 32.2422C18.7496 32.1166 18.8223 31.9992 18.8884 31.8901C18.9546 31.781 19.0157 31.6752 19.0719 31.5727C19.1314 31.4669 19.186 31.3644 19.2356 31.2653C19.2852 31.1661 19.3331 31.0653 19.3794 30.9628H19.9695C19.8703 31.1611 19.7662 31.3562 19.6571 31.5479C19.5513 31.7397 19.4372 31.9331 19.3149 32.1281C19.1959 32.3199 19.067 32.5199 18.9281 32.7282V33.8588H18.3876Z" fill="black"/>
<path d="M26.7724 28.091C26.2939 28.091 25.8347 28.0522 25.395 27.9746C24.9682 27.897 24.5867 27.8 24.2504 27.6836C23.927 27.5672 23.6813 27.4638 23.5132 27.3732L23.8236 26.3256C24.0435 26.442 24.425 26.5843 24.9682 26.7524C25.5243 26.9206 26.1193 27.0046 26.753 27.0046C27.5937 27.0046 28.2662 26.8818 28.7706 26.636C29.275 26.3903 29.6371 26.0411 29.857 25.5884C30.0898 25.1358 30.2062 24.6184 30.2062 24.0364C30.2062 23.3251 30.0316 22.7237 29.6824 22.2322C29.3461 21.7408 28.7641 21.3657 27.9364 21.107C27.1216 20.8484 25.9899 20.719 24.5414 20.719C24.619 20.0336 24.6837 19.4128 24.7354 18.8566C24.7871 18.2876 24.8324 17.7573 24.8712 17.2658C24.91 16.7744 24.9359 16.2958 24.9488 15.8302C24.9747 15.3517 24.9941 14.8602 25.007 14.3558H31.0016V15.4228H26.0546C26.0417 15.6686 26.0223 15.979 25.9964 16.354C25.9835 16.7162 25.9576 17.1042 25.9188 17.518C25.8929 17.9319 25.8606 18.3328 25.8218 18.7208C25.783 19.1088 25.7507 19.4451 25.7248 19.7296C27.6519 19.7684 29.0875 20.1629 30.0316 20.913C30.9887 21.6502 31.4672 22.6849 31.4672 24.017C31.4672 24.8189 31.2926 25.5302 30.9434 26.151C30.6071 26.7589 30.0898 27.2374 29.3914 27.5866C28.693 27.9229 27.82 28.091 26.7724 28.091Z" fill="black"/>
<path d="M18.926 27.8V16.1794C18.732 16.3993 18.4669 16.6256 18.1306 16.8584C17.7943 17.0912 17.4193 17.3111 17.0054 17.518C16.6045 17.725 16.1906 17.8996 15.7638 18.0418L15.3952 17.1106C16.1583 16.839 16.8502 16.4898 17.471 16.063C18.1047 15.6362 18.7061 15.0672 19.2752 14.3558H20.1094V27.8H18.926Z" fill="black"/>
</svg>
