<svg width="48" height="48" viewBox="0 0 48 48" fill="none" xmlns="http://www.w3.org/2000/svg">
<path fill-rule="evenodd" clip-rule="evenodd" d="M16.8652 34.8252C18.2893 34.8254 19.4449 35.9802 19.4453 37.4043L19.4316 37.668C19.2997 38.9686 18.2007 39.9842 16.8652 39.9844L16.6016 39.9707C15.301 39.8385 14.2861 38.7397 14.2861 37.4043C14.2865 35.9802 15.441 34.8253 16.8652 34.8252ZM16.8652 35.8252C15.9933 35.8253 15.2865 36.5325 15.2861 37.4043C15.2861 38.2765 15.9931 38.9842 16.8652 38.9844C17.7373 38.9841 18.4453 38.2764 18.4453 37.4043C18.4449 36.5325 17.7371 35.8254 16.8652 35.8252Z" fill="black"/>
<path fill-rule="evenodd" clip-rule="evenodd" d="M33.373 34.8252C34.7972 34.8254 35.9527 35.9802 35.9531 37.4043L35.9395 37.668C35.8075 38.9687 34.7085 39.9842 33.373 39.9844L33.1094 39.9707C31.8088 39.8385 30.7939 38.7397 30.7939 37.4043C30.7943 35.9802 31.9489 34.8253 33.373 34.8252ZM33.373 35.8252C32.5011 35.8253 31.7943 36.5325 31.7939 37.4043C31.7939 38.2765 32.5009 38.9842 33.373 38.9844C34.2452 38.9842 34.9531 38.2765 34.9531 37.4043C34.9527 36.5325 34.2449 35.8254 33.373 35.8252Z" fill="black"/>
<path d="M9.47363 7.5C9.70604 7.5 9.90816 7.66041 9.96094 7.88672L15.6328 32.2617H35.4365V33.2617H15.2354C15.003 33.2616 14.8017 33.1013 14.749 32.875L9.07715 8.5H5V7.5H9.47363Z" fill="black"/>
<path d="M40.0791 12.2168C40.2351 12.2168 40.382 12.29 40.4766 12.4141C40.5711 12.5382 40.602 12.6992 40.5605 12.8496L36.3242 28.1787C36.2643 28.3953 36.0675 28.5458 35.8428 28.5459H16.3086L16.0762 27.5459H35.4619L39.4219 13.2168H12.7412L12.5088 12.2168H40.0791Z" fill="black"/>
</svg>
