<svg width="48" height="48" viewBox="0 0 48 48" fill="none" xmlns="http://www.w3.org/2000/svg">
<path d="M33.1848 19.803L24.4993 24.6477V34.5657L24.0002 34.8518L23.4993 34.5647V24.6477L14.8147 19.804L15.2102 18.8792L23.9993 23.7805L32.7874 18.8792L33.1848 19.803Z" fill="black"/>
<path fill-rule="evenodd" clip-rule="evenodd" d="M41.4845 13.9658C41.8027 14.1419 42.0002 14.477 42.0002 14.8407V33.5866C42.0002 33.9503 41.8027 34.2853 41.4845 34.4615L24.4845 43.8709C24.1832 44.0377 23.8173 44.0377 23.516 43.8709L6.51598 34.4615C6.19774 34.2853 6.00024 33.9503 6.00024 33.5866V14.8407C6.00024 14.477 6.19776 14.1419 6.51602 13.9658L23.516 4.5573C23.8173 4.39055 24.1832 4.39055 24.4845 4.5573L41.4845 13.9658ZM7.47388 14.5657L14.1897 18.3108C13.9578 18.4437 13.8147 18.6905 13.8147 18.9578V19.2463L6.99048 15.4397V33.592L23.4993 42.7297V35.717L23.5032 35.72C23.8107 35.8958 24.189 35.896 24.4963 35.72L24.4993 35.718V42.7307L41.01 33.592V15.4397L34.1848 19.2454V18.96C34.1848 18.6914 34.041 18.4433 33.8079 18.3098L40.5237 14.5647L24.0002 5.42017L7.47388 14.5657Z" fill="black"/>
<path fill-rule="evenodd" clip-rule="evenodd" d="M32.682 18.8188C32.9935 18.9968 33.1858 19.3281 33.1858 19.687V29.0234C33.1858 29.3823 32.9935 29.7136 32.6819 29.8917L24.4973 34.5684C24.1899 34.744 23.8125 34.744 23.5051 34.5684L15.3187 29.8917C15.007 29.7136 14.8147 29.3823 14.8147 29.0234V19.687C14.8147 19.3282 15.007 18.9968 15.3186 18.8188L23.5051 14.1412C23.8125 13.9655 24.1899 13.9655 24.4974 14.1412L32.682 18.8188ZM15.8157 29.0227L23.5002 33.4133V24.6477L15.8157 20.3616V29.0227ZM24.5002 24.6477V33.4133L32.1858 29.0227V20.3616L24.5002 24.6477ZM16.2307 19.4495L23.9993 23.7815L31.7688 19.4485L24.0002 15.009L16.2307 19.4495Z" fill="black"/>
</svg>
