<svg width="48" height="48" viewBox="0 0 48 48" fill="none" xmlns="http://www.w3.org/2000/svg">
<path d="M20.6982 39.2422C20.5103 39.5164 20.3558 39.8152 20.2402 40.1328L11.5576 35.3271C11.7108 35.0294 11.8275 34.7103 11.9023 34.375L20.6982 39.2422Z" fill="black"/>
<path d="M36.0967 34.375C36.1715 34.7102 36.2883 35.0295 36.4414 35.3271L27.7588 40.1328C27.6432 39.8151 27.4888 39.5165 27.3008 39.2422L36.0967 34.375Z" fill="black"/>
<path d="M24.5 37.5312C24.3362 37.5108 24.1693 37.5 24 37.5C23.8307 37.5 23.6638 37.5108 23.5 37.5312V27.4678C23.6638 27.4882 23.8306 27.5 24 27.5C24.1694 27.5 24.3362 27.4882 24.5 27.4678V37.5312Z" fill="black"/>
<path d="M8.73926 29.5684C8.49966 29.5236 8.25258 29.5 8 29.5C7.91239 29.5 7.82547 29.5032 7.73926 29.5088V19.4902C7.82549 19.4958 7.91237 19.5 8 19.5C8.25264 19.5 8.49961 19.4755 8.73926 19.4307V29.5684Z" fill="black"/>
<path d="M39.2617 19.4307C39.5011 19.4753 39.7477 19.5 40 19.5C40.088 19.5 40.1752 19.4958 40.2617 19.4902V29.5088C40.1752 29.5032 40.0879 29.5 40 29.5C39.7477 29.5 39.501 29.5237 39.2617 29.5684V19.4307Z" fill="black"/>
<path d="M20.3975 21.7588C20.2509 22.0614 20.1418 22.3854 20.0752 22.7246L11.2637 17.8096C11.4557 17.5387 11.6148 17.2436 11.7354 16.9287L20.3975 21.7588Z" fill="black"/>
<path d="M36.2637 16.9287C36.3841 17.2435 36.5434 17.5388 36.7354 17.8096L27.9238 22.7246C27.8572 22.3853 27.7481 22.0614 27.6016 21.7588L36.2637 16.9287Z" fill="black"/>
<path d="M20.3848 8.21387C20.5294 8.51832 20.7115 8.80141 20.9248 9.05762L11.7588 14.1309C11.6433 13.8138 11.4884 13.516 11.3008 13.2422L20.3848 8.21387Z" fill="black"/>
<path d="M36.6982 13.2412C36.5105 13.5152 36.3558 13.8136 36.2402 14.1309L27.0742 9.05762C27.2876 8.80139 27.4696 8.51836 27.6143 8.21387L36.6982 13.2412Z" fill="black"/>
<path fill-rule="evenodd" clip-rule="evenodd" d="M24 39C25.3807 39 26.5 40.1193 26.5 41.5C26.5 42.8807 25.3807 44 24 44C22.6193 44 21.5 42.8807 21.5 41.5C21.5 40.1193 22.6193 39 24 39ZM24 40C23.1716 40 22.5 40.6716 22.5 41.5C22.5 42.3284 23.1716 43 24 43C24.8284 43 25.5 42.3284 25.5 41.5C25.5 40.6716 24.8284 40 24 40Z" fill="black"/>
<path fill-rule="evenodd" clip-rule="evenodd" d="M8 31C9.38071 31 10.5 32.1193 10.5 33.5C10.5 34.8807 9.38071 36 8 36C6.61929 36 5.5 34.8807 5.5 33.5C5.5 32.1193 6.61929 31 8 31ZM8 32C7.17157 32 6.5 32.6716 6.5 33.5C6.5 34.3284 7.17157 35 8 35C8.82843 35 9.5 34.3284 9.5 33.5C9.5 32.6716 8.82843 32 8 32Z" fill="black"/>
<path fill-rule="evenodd" clip-rule="evenodd" d="M40 31C41.3807 31 42.5 32.1193 42.5 33.5C42.5 34.8807 41.3807 36 40 36C38.6193 36 37.5 34.8807 37.5 33.5C37.5 32.1193 38.6193 31 40 31ZM40 32C39.1716 32 38.5 32.6716 38.5 33.5C38.5 34.3284 39.1716 35 40 35C40.8284 35 41.5 34.3284 41.5 33.5C41.5 32.6716 40.8284 32 40 32Z" fill="black"/>
<path fill-rule="evenodd" clip-rule="evenodd" d="M24 21C25.3807 21 26.5 22.1193 26.5 23.5C26.5 24.8807 25.3807 26 24 26C22.6193 26 21.5 24.8807 21.5 23.5C21.5 22.1193 22.6193 21 24 21ZM24 22C23.1716 22 22.5 22.6716 22.5 23.5C22.5 24.3284 23.1716 25 24 25C24.8284 25 25.5 24.3284 25.5 23.5C25.5 22.6716 24.8284 22 24 22Z" fill="black"/>
<path fill-rule="evenodd" clip-rule="evenodd" d="M8 13C9.38071 13 10.5 14.1193 10.5 15.5C10.5 16.8807 9.38071 18 8 18C6.61929 18 5.5 16.8807 5.5 15.5C5.5 14.1193 6.61929 13 8 13ZM8 14C7.17157 14 6.5 14.6716 6.5 15.5C6.5 16.3284 7.17157 17 8 17C8.82843 17 9.5 16.3284 9.5 15.5C9.5 14.6716 8.82843 14 8 14Z" fill="black"/>
<path fill-rule="evenodd" clip-rule="evenodd" d="M40 13C41.3807 13 42.5 14.1193 42.5 15.5C42.5 16.8807 41.3807 18 40 18C38.6193 18 37.5 16.8807 37.5 15.5C37.5 14.1193 38.6193 13 40 13ZM40 14C39.1716 14 38.5 14.6716 38.5 15.5C38.5 16.3284 39.1716 17 40 17C40.8284 17 41.5 16.3284 41.5 15.5C41.5 14.6716 40.8284 14 40 14Z" fill="black"/>
<path fill-rule="evenodd" clip-rule="evenodd" d="M24 4C25.3807 4 26.5 5.11929 26.5 6.5C26.5 7.88071 25.3807 9 24 9C22.6193 9 21.5 7.88071 21.5 6.5C21.5 5.11929 22.6193 4 24 4ZM24 5C23.1716 5 22.5 5.67157 22.5 6.5C22.5 7.32843 23.1716 8 24 8C24.8284 8 25.5 7.32843 25.5 6.5C25.5 5.67157 24.8284 5 24 5Z" fill="black"/>
</svg>
