<svg width="48" height="48" viewBox="0 0 48 48" fill="none" xmlns="http://www.w3.org/2000/svg">
<path fill-rule="evenodd" clip-rule="evenodd" d="M38.2432 19.3125C38.4017 19.4007 38.4999 19.5686 38.5 19.75C38.4999 19.9313 38.4015 20.0983 38.2432 20.1865L31.6045 23.874L38.2432 27.5625C38.4017 27.6507 38.4999 27.8186 38.5 28C38.4999 28.1813 38.4015 28.3483 38.2432 28.4365L31.6045 32.124L38.2432 35.8125C38.4017 35.9007 38.4999 36.0686 38.5 36.25C38.4999 36.4313 38.4015 36.5983 38.2432 36.6865L24.7432 44.1865C24.5922 44.2704 24.4078 44.2704 24.2568 44.1865L10.7568 36.6865C10.5985 36.5983 10.5001 36.4313 10.5 36.25C10.5001 36.0686 10.5983 35.9007 10.7568 35.8125L17.3955 32.124L10.7568 28.4365C10.5985 28.3483 10.5001 28.1813 10.5 28C10.5001 27.8186 10.5983 27.6507 10.7568 27.5625L17.3945 23.874L10.7568 20.1865C10.5985 20.0983 10.5001 19.9313 10.5 19.75C10.5001 19.5686 10.5983 19.4007 10.7568 19.3125L15.8496 16.4824L16.8799 17.0547L12.0293 19.749L24.5 26.6768L36.9697 19.749L32.1191 17.0547L33.1494 16.4824L38.2432 19.3125ZM24.7432 35.9365C24.5922 36.0204 24.4078 36.0204 24.2568 35.9365L18.4248 32.6963L12.0293 36.249L24.5 43.1768L36.9697 36.249L30.5742 32.6963L24.7432 35.9365ZM24.7432 27.6865C24.5922 27.7704 24.4078 27.7704 24.2568 27.6865L18.4248 24.4463L12.0293 27.999L24.5 34.9268L36.9697 27.999L30.5742 24.4463L24.7432 27.6865Z" fill="black"/>
<path fill-rule="evenodd" clip-rule="evenodd" d="M24.3154 3.53511C24.4537 3.48023 24.6112 3.48916 24.7432 3.56246L38.2432 11.0625C38.4018 11.1506 38.4999 11.3185 38.5 11.5C38.5 11.6815 38.4018 11.8492 38.2432 11.9375L24.7432 19.4375C24.5922 19.5214 24.4078 19.5214 24.2568 19.4375L10.7568 11.9375C10.5982 11.8492 10.5 11.6815 10.5 11.5C10.5001 11.3185 10.5982 11.1506 10.7568 11.0625L24.2568 3.56246L24.3154 3.53511ZM12.0303 11.5L24.5 18.4267L36.9688 11.5L24.5 4.57222L12.0303 11.5Z" fill="black"/>
</svg>
