<svg width="48" height="48" viewBox="0 0 48 48" fill="none" xmlns="http://www.w3.org/2000/svg">
<path fill-rule="evenodd" clip-rule="evenodd" d="M37.7432 27.6875C37.9017 27.7757 37.9999 27.9436 38 28.125C38 28.1394 37.9973 28.1538 37.9961 28.168C37.9968 28.1786 38 28.1894 38 28.2002V36.3789C37.9998 36.5859 37.8738 36.764 37.6943 36.8398L24.2432 44.3125C24.0922 44.3964 23.9078 44.3964 23.7568 44.3125L10.3057 36.8398C10.1262 36.764 10.0002 36.5859 10 36.3789V28.2002C10 28.1894 10.0023 28.1786 10.0029 28.168C10.0017 28.1538 10 28.1393 10 28.125C10.0001 27.9436 10.0983 27.7757 10.2568 27.6875L15.3496 24.8574L16.3799 25.4297L11.5293 28.124L24 35.0518L36.4697 28.124L31.6191 25.4297L32.6494 24.8574L37.7432 27.6875ZM11 36.0801L23.5 43.0234V35.918L11 28.9736V36.0801ZM24.5 35.918V43.0234L37 36.0801V28.9736L24.5 35.918Z" fill="black"/>
<path fill-rule="evenodd" clip-rule="evenodd" d="M23.8154 3.66011C23.9537 3.60523 24.1112 3.61416 24.2432 3.68746L37.7432 11.1875C37.9018 11.2756 37.9999 11.4435 38 11.625C38 11.6394 37.9973 11.6537 37.9961 11.6679C37.9968 11.6786 38 11.6893 38 11.7002V19.7998C38 20.001 37.8803 20.1726 37.709 20.2519L37.7432 20.3125L24.2432 27.8125C24.0922 27.8964 23.9078 27.8964 23.7568 27.8125L10.2568 20.3125L10.29 20.2519C10.1192 20.1724 10 20.0006 10 19.7998V11.7002C10 11.6893 10.0022 11.6786 10.0029 11.6679C10.0017 11.6538 10 11.6393 10 11.625C10.0001 11.4435 10.0982 11.2756 10.2568 11.1875L23.7568 3.68746L23.8154 3.66011ZM11 19.58L23.5 26.5234V19.5C23.5 19.474 23.503 19.4487 23.5068 19.4238L11 12.4746V19.58ZM24.4922 19.4238C24.496 19.4487 24.5 19.474 24.5 19.5V26.5234L37 19.58V12.4746L24.4922 19.4238ZM11.5303 11.625L24 18.5517L36.4688 11.625L24 4.69722L11.5303 11.625Z" fill="black"/>
</svg>
