<svg width="48" height="48" viewBox="0 0 48 48" fill="none" xmlns="http://www.w3.org/2000/svg">
<path fill-rule="evenodd" clip-rule="evenodd" d="M35.9878 11.6991C36.3041 11.8759 36.5 12.2098 36.5 12.5721V25.3693C36.5 25.7316 36.3041 26.0655 35.9878 26.2423L24 32.9414L12.0122 26.2423C11.6959 26.0655 11.5 25.7316 11.5 25.3693V12.5721C11.5 12.2098 11.6959 11.8759 12.0122 11.6991L23.5122 5.27261C23.8153 5.1032 24.1847 5.1032 24.4878 5.27261L35.9878 11.6991ZM12.5 25.3682L23.5 31.5146V19.3613L12.5 13.166V25.3682ZM24.5 19.3613V31.5146L35.5 25.3682V13.167L24.5 19.3613ZM12.9922 12.2969L24 18.4941L35.0068 12.2969L24 6.14551L12.9922 12.2969Z" fill="black"/>
<path d="M20.0322 40C20.0118 40.1638 20 40.3306 20 40.5C20 40.6694 20.0118 40.8362 20.0322 41H9V40H20.0322Z" fill="black"/>
<path d="M39 40V41H27.9678C27.9882 40.8362 28 40.6694 28 40.5C28 40.3306 27.9882 40.1638 27.9678 40H39Z" fill="black"/>
<path d="M24.5 36.5312C24.3362 36.5108 24.1693 36.5 24 36.5C23.8307 36.5 23.6638 36.5108 23.5 36.5312V32H24.5V36.5312Z" fill="black"/>
<path fill-rule="evenodd" clip-rule="evenodd" d="M24 38C25.3807 38 26.5 39.1193 26.5 40.5C26.5 41.8807 25.3807 43 24 43C22.6193 43 21.5 41.8807 21.5 40.5C21.5 39.1193 22.6193 38 24 38ZM24 39C23.1716 39 22.5 39.6716 22.5 40.5C22.5 41.3284 23.1716 42 24 42C24.8284 42 25.5 41.3284 25.5 40.5C25.5 39.6716 24.8284 39 24 39Z" fill="black"/>
</svg>
