<svg width="48" height="48" viewBox="0 0 48 48" fill="none" xmlns="http://www.w3.org/2000/svg">
<path fill-rule="evenodd" clip-rule="evenodd" d="M37.8057 26.2095C38.8848 25.1408 40.5981 25.0632 41.7695 26.0298C43.0983 27.1262 43.215 29.1234 42.0137 30.3618C39.8715 32.5699 37.2736 35.2185 36.4365 35.936C34.5769 37.53 32.9118 38.7547 31.0693 39.5757C29.2187 40.4002 27.2146 40.8061 24.6875 40.8061C19.7185 40.8059 16.3141 38.2887 14.6396 36.6772H11.833V39.7778H5.5V25.5532H11.833V25.5561H18.417C19.9335 25.5561 21.1399 25.8225 22.1289 26.3237C23.0375 26.7843 23.7343 27.4301 24.3125 28.1948H30.7783C32.1357 28.1949 33.2698 29.1367 33.5713 30.4018L37.8057 26.2095ZM41.1338 26.8003C40.3584 26.1605 39.2241 26.2122 38.5098 26.9194L33.5469 31.8335C33.2119 33.0499 32.1012 33.9447 30.7783 33.9448H24.0605V32.9448H30.7783C31.8136 32.9447 32.6531 32.1051 32.6533 31.0698C32.6533 30.0344 31.8137 29.1949 30.7783 29.1948H23.8027L23.6523 28.9839C23.116 28.2273 22.492 27.6296 21.6768 27.2163C20.8592 26.8019 19.8159 26.5561 18.417 26.5561H11.833V35.6772H15.0469L15.1934 35.8218C16.7125 37.3259 19.9338 39.8059 24.6875 39.8061C27.0981 39.8061 28.9596 39.4201 30.6621 38.6616C32.3727 37.8994 33.9507 36.7486 35.7852 35.1762C36.5773 34.4973 39.1321 31.8958 41.2959 29.6655C42.0888 28.8481 42.0142 27.5268 41.1338 26.8003ZM6.5 38.7778H10.833V26.5532H6.5V38.7778Z" fill="black"/>
<path d="M26.2578 24.5977H21.793V23.5977H26.2578V24.5977Z" fill="black"/>
<path d="M27.1904 22.5977H20.8711V21.5977H27.1904V22.5977Z" fill="black"/>
<path d="M27.8027 10.5791L22.7842 15.5977L20.25 13.0762L20.9551 12.3672L22.7822 14.1846L27.0957 9.87207L27.8027 10.5791Z" fill="black"/>
<path fill-rule="evenodd" clip-rule="evenodd" d="M24.374 5.39941H24.5352V5.41211C27.8976 5.67277 30.5604 8.4874 30.5605 11.9248C30.5605 13.7012 29.8824 15.3048 28.5693 16.6182C27.3948 17.7927 26.7546 18.7489 26.5146 20.1797C26.4742 20.4205 26.2657 20.5967 26.0215 20.5967H22.0391C21.7954 20.5967 21.5869 20.4209 21.5459 20.1807C21.3061 18.7769 20.7223 17.9971 19.7969 16.9893C19.6813 16.8671 19.1454 16.2603 18.623 15.3975C18.0745 14.4912 17.5 13.2364 17.5 11.9248C17.5002 8.49598 20.1551 5.681 23.5254 5.4209V5.38965H24.0254C24.1423 5.38965 24.2586 5.39332 24.374 5.39941ZM24.0352 6.39941C20.978 6.39941 18.5002 8.87811 18.5 11.9248C18.5 12.9665 18.9657 14.0327 19.4785 14.8799C19.7311 15.2971 19.9873 15.6476 20.1846 15.8984C20.283 16.0235 20.3665 16.1236 20.4268 16.1934L20.5186 16.2979L20.5342 16.3125C21.4269 17.2848 22.1158 18.1657 22.4473 19.5967H25.6123C25.9526 18.1107 26.7119 17.0606 27.8613 15.9111C28.9956 14.7767 29.5605 13.4244 29.5605 11.9248C29.5604 8.97708 27.2466 6.56667 24.3477 6.39941H24.0352Z" fill="black"/>
</svg>
