<svg width="48" height="48" viewBox="0 0 48 48" fill="none" xmlns="http://www.w3.org/2000/svg">
<path fill-rule="evenodd" clip-rule="evenodd" d="M33.1855 19.0439V29.541L24 34.7891L14.8154 29.541V19.0439L24 13.7949L33.1855 19.0439ZM15.8154 28.96L23.5 33.3506V24.5859L15.8154 20.2998V28.96ZM24.5 24.5859V33.3506L32.1855 28.96V20.2998L24.5 24.5859ZM16.2295 19.3867L23.999 23.7197L31.7695 19.3857L24 14.9463L16.2295 19.3867Z" fill="black"/>
<path d="M24.4951 42.0049H23.4951V36.0049H24.4951V42.0049Z" fill="black"/>
<path d="M9.5 38.5H13V39.5H8.5V35H9.5V38.5Z" fill="black"/>
<path d="M39.5 39.5H35V38.5H38.5V35H39.5V39.5Z" fill="black"/>
<path d="M12 24.5H6V23.5H12V24.5Z" fill="black"/>
<path d="M42 24.5H36V23.5H42V24.5Z" fill="black"/>
<path d="M13 9.5H9.5V13H8.5V8.5H13V9.5Z" fill="black"/>
<path d="M39.5 13H38.5V9.5H35V8.5H39.5V13Z" fill="black"/>
<path d="M24.4951 12.0049H23.4951V6.00488H24.4951V12.0049Z" fill="black"/>
</svg>
