<svg width="48" height="48" viewBox="0 0 48 48" fill="none" xmlns="http://www.w3.org/2000/svg">
<path fill-rule="evenodd" clip-rule="evenodd" d="M37.8057 26.2095C38.8848 25.1408 40.5981 25.0632 41.7695 26.0298C43.0983 27.1262 43.215 29.1234 42.0137 30.3618C39.8715 32.5699 37.2736 35.2185 36.4365 35.936C34.5769 37.53 32.9118 38.7547 31.0693 39.5757C29.2187 40.4002 27.2146 40.8061 24.6875 40.8061C19.7185 40.8059 16.3141 38.2887 14.6396 36.6772H11.833V39.7778H5.5V25.5532H11.833V25.5561H18.417C19.9335 25.5561 21.1399 25.8225 22.1289 26.3237C23.0375 26.7843 23.7343 27.4301 24.3125 28.1948H30.7783C32.1357 28.1949 33.2698 29.1367 33.5713 30.4018L37.8057 26.2095ZM41.1338 26.8003C40.3584 26.1605 39.2241 26.2122 38.5098 26.9194L33.5469 31.8335C33.2119 33.0499 32.1012 33.9447 30.7783 33.9448H24.0605V32.9448H30.7783C31.8136 32.9447 32.6531 32.1051 32.6533 31.0698C32.6533 30.0344 31.8137 29.1949 30.7783 29.1948H23.8027L23.6523 28.9839C23.116 28.2273 22.492 27.6296 21.6768 27.2163C20.8592 26.8019 19.8159 26.5561 18.417 26.5561H11.833V35.6772H15.0469L15.1934 35.8218C16.7125 37.3259 19.9338 39.8059 24.6875 39.8061C27.0981 39.8061 28.9596 39.4201 30.6621 38.6616C32.3727 37.8994 33.9507 36.7486 35.7852 35.1762C36.5773 34.4973 39.1321 31.8958 41.2959 29.6655C42.0888 28.8481 42.0142 27.5268 41.1338 26.8003ZM6.5 38.7778H10.833V26.5532H6.5V38.7778Z" fill="black"/>
<path d="M28.001 12.1094L23.0918 18.501L20.001 15.5957L20.6865 14.8672L22.9717 17.0146L27.208 11.5L28.001 12.1094Z" fill="black"/>
<path fill-rule="evenodd" clip-rule="evenodd" d="M24 7C28.4183 7 32 10.5817 32 15C32 19.4183 28.4183 23 24 23C19.5817 23 16 19.4183 16 15C16 10.5817 19.5817 7 24 7ZM24 8C20.134 8 17 11.134 17 15C17 18.866 20.134 22 24 22C27.866 22 31 18.866 31 15C31 11.134 27.866 8 24 8Z" fill="black"/>
</svg>
