<svg width="48" height="48" viewBox="0 0 48 48" fill="none" xmlns="http://www.w3.org/2000/svg">
<path fill-rule="evenodd" clip-rule="evenodd" d="M35.5 3C36.0523 3 36.5 3.44772 36.5 4V19.5H38.5C38.7761 19.5 39 19.7239 39 20V43C39 43.2417 38.8286 43.4437 38.6006 43.4902L38.5 43.5H9.5L9.39941 43.4902C9.20392 43.4503 9.04966 43.2961 9.00977 43.1006L9 43V20C9 19.7239 9.22386 19.5 9.5 19.5H11.5V4C11.5 3.44771 11.9477 3 12.5 3H35.5ZM10 42.5H38V20.5H10V42.5ZM12.5 19.5H35.5V4H12.5V19.5Z" fill="black"/>
<path d="M18 10.5H21V13.5H18V10.5Z" fill="black"/>
<path d="M27 10.5H30V13.5H27V10.5Z" fill="black"/>
</svg>
