<svg width="48" height="48" viewBox="0 0 48 48" fill="none" xmlns="http://www.w3.org/2000/svg">
<path fill-rule="evenodd" clip-rule="evenodd" d="M24 25.5C32.2846 25.5 39 29.7 39 34.875V40.5C39 41.0523 38.5523 41.5 38 41.5H10C9.44772 41.5 9 41.0523 9 40.5V34.875C9 29.7 15.7154 25.5 24 25.5ZM24 26.5C20.0155 26.5 16.4557 27.5121 13.9238 29.0947C11.3777 30.6864 10 32.7568 10 34.875V40.5H38V34.875C38 32.7568 36.6223 30.6864 34.0762 29.0947C31.5443 27.5121 27.9845 26.5 24 26.5Z" fill="black"/>
<path fill-rule="evenodd" clip-rule="evenodd" d="M24 6.5C28.4182 6.50009 32 10.0818 32 14.5C32 18.9182 28.4182 22.4999 24 22.5C19.5817 22.5 16 18.9183 16 14.5C16 10.0817 19.5817 6.5 24 6.5ZM24 7.5C20.134 7.5 17 10.634 17 14.5C17 18.366 20.134 21.5 24 21.5C27.8659 21.4999 31 18.3659 31 14.5C31 10.6341 27.8659 7.50009 24 7.5Z" fill="black"/>
</svg>
