<svg width="48" height="48" viewBox="0 0 48 48" fill="none" xmlns="http://www.w3.org/2000/svg">
<path fill-rule="evenodd" clip-rule="evenodd" d="M37.8057 26.2095C38.8848 25.1408 40.5981 25.0632 41.7695 26.0298C43.0983 27.1262 43.215 29.1234 42.0137 30.3618C39.8715 32.5699 37.2736 35.2185 36.4365 35.936C34.5769 37.53 32.9118 38.7547 31.0693 39.5757C29.2187 40.4002 27.2146 40.8061 24.6875 40.8061C19.7185 40.8059 16.3141 38.2887 14.6396 36.6772H11.833V39.7778H5.5V25.5532H11.833V25.5561H18.417C19.9335 25.5561 21.1399 25.8225 22.1289 26.3237C23.0375 26.7843 23.7343 27.4301 24.3125 28.1948H30.7783C32.1357 28.1949 33.2698 29.1367 33.5713 30.4018L37.8057 26.2095ZM41.1338 26.8003C40.3584 26.1605 39.2241 26.2122 38.5098 26.9194L33.5469 31.8335C33.2119 33.0499 32.1012 33.9447 30.7783 33.9448H24.0605V32.9448H30.7783C31.8136 32.9447 32.6531 32.1051 32.6533 31.0698C32.6533 30.0344 31.8137 29.1949 30.7783 29.1948H23.8027L23.6523 28.9839C23.116 28.2273 22.492 27.6296 21.6768 27.2163C20.8592 26.8019 19.8159 26.5561 18.417 26.5561H11.833V35.6772H15.0469L15.1934 35.8218C16.7125 37.3259 19.9338 39.8059 24.6875 39.8061C27.0981 39.8061 28.9596 39.4201 30.6621 38.6616C32.3727 37.8994 33.9507 36.7486 35.7852 35.1762C36.5773 34.4973 39.1321 31.8958 41.2959 29.6655C42.0888 28.8481 42.0142 27.5268 41.1338 26.8003ZM6.5 38.7778H10.833V26.5532H6.5V38.7778Z" fill="black"/>
<path fill-rule="evenodd" clip-rule="evenodd" d="M24 14.7998C27.8661 14.7998 30.9998 16.8474 31 19.3701V22.5L30.9902 22.6006C30.9436 22.8285 30.7416 23 30.5 23H17.5L17.3994 22.9893C17.2041 22.9493 17.0497 22.7959 17.0098 22.6006L17 22.5V19.3701C17.0002 16.8474 20.1339 14.7998 24 14.7998ZM24 15.7998C22.2328 15.7998 20.6786 16.27 19.5967 16.9766C18.506 17.689 18.0001 18.5572 18 19.3701V22H30V19.3701C29.9999 18.5572 29.494 17.689 28.4033 16.9766C27.3214 16.27 25.7672 15.7998 24 15.7998Z" fill="black"/>
<path fill-rule="evenodd" clip-rule="evenodd" d="M24 6C26.0711 6 27.75 7.67893 27.75 9.75C27.75 11.8211 26.0711 13.5 24 13.5C21.9289 13.5 20.25 11.8211 20.25 9.75C20.25 7.67893 21.9289 6 24 6ZM24 7C22.4812 7 21.25 8.23122 21.25 9.75C21.25 11.2688 22.4812 12.5 24 12.5C25.5188 12.5 26.75 11.2688 26.75 9.75C26.75 8.23122 25.5188 7 24 7Z" fill="black"/>
</svg>
