<svg width="48" height="48" viewBox="0 0 48 48" fill="none" xmlns="http://www.w3.org/2000/svg">
<path fill-rule="evenodd" clip-rule="evenodd" d="M40.6533 6.00781C41.4097 6.08461 42 6.72334 42 7.5V40.5L41.9922 40.6533C41.9205 41.3593 41.3593 41.9205 40.6533 41.9922L40.5 42H7.5C6.72334 42 6.08461 41.4097 6.00781 40.6533L6 40.5V7.5C6 6.67157 6.67157 6 7.5 6H40.5L40.6533 6.00781ZM7 40.5C7 40.7761 7.22386 41 7.5 41H40.5C40.7761 41 41 40.7761 41 40.5V16H7V40.5ZM7.5 7C7.22386 7 7 7.22386 7 7.5V15H16.7119L21.3301 7H7.5ZM27.3652 15H41V7.5C41 7.22386 40.7761 7 40.5 7H31.9844L27.3652 15ZM17.8652 15H26.2119L30.8301 7H22.4844L17.8652 15Z" fill="black"/>
<path fill-rule="evenodd" clip-rule="evenodd" d="M18.752 20.5653C18.9077 20.4764 19.0994 20.4781 19.2539 20.5692L30.2539 27.0692C30.4061 27.1591 30.5 27.3231 30.5 27.4999C30.5 27.6767 30.4061 27.8406 30.2539 27.9305L19.2539 34.4305C19.0994 34.5216 18.9077 34.5233 18.752 34.4344C18.5961 34.3454 18.5 34.1793 18.5 33.9999V20.9999C18.5 20.8204 18.5961 20.6542 18.752 20.5653ZM19.5 33.1229L29.0166 27.4999L19.5 21.8758V33.1229Z" fill="black"/>
</svg>
