<svg width="48" height="48" viewBox="0 0 48 48" fill="none" xmlns="http://www.w3.org/2000/svg">
<path d="M22.3066 30C22.0688 30.314 21.8578 30.6483 21.6777 31H7C6.44772 31 6 31.4477 6 32V37L6.00488 37.1025C6.05278 37.573 6.42703 37.9472 6.89746 37.9951L7 38H22.1172C22.3644 38.3601 22.6456 38.6948 22.9561 39H7C5.89543 39 5 38.1046 5 37V32C5 30.8954 5.89543 30 7 30H22.3066ZM10.5 33.501C11.0523 33.501 11.5 33.9487 11.5 34.501C11.5 35.0533 11.0523 35.501 10.5 35.501C9.94772 35.501 9.5 35.0533 9.5 34.501C9.5 33.9487 9.94772 33.501 10.5 33.501ZM14.5 33.501C15.0523 33.501 15.5 33.9487 15.5 34.501C15.5 35.0533 15.0523 35.501 14.5 35.501C13.9477 35.501 13.5 35.0533 13.5 34.501C13.5 33.9487 13.9477 33.501 14.5 33.501ZM38 19C39.1046 19 40 19.8954 40 21V23.5781C39.6902 23.307 39.3563 23.0626 39 22.8516V21C39 20.4477 38.5523 20 38 20H7C6.44772 20 6 20.4477 6 21V26L6.00488 26.1025C6.05278 26.573 6.42703 26.9472 6.89746 26.9951L7 27H24.8311C24.7126 27.3189 24.6274 27.6537 24.5762 28H7C5.89543 28 5 27.1046 5 26V21C5 19.8954 5.89543 19 7 19H38ZM10.5 22.501C11.0523 22.501 11.5 22.9487 11.5 23.501C11.5 24.0533 11.0523 24.501 10.5 24.501C9.94772 24.501 9.5 24.0533 9.5 23.501C9.5 22.9487 9.94772 22.501 10.5 22.501ZM14.5 22.501C15.0523 22.501 15.5 22.9487 15.5 23.501C15.5 24.0533 15.0523 24.501 14.5 24.501C13.9477 24.501 13.5 24.0533 13.5 23.501C13.5 22.9487 13.9477 22.501 14.5 22.501ZM38 8C39.1046 8 40 8.89543 40 10V15C40 16.1046 39.1046 17 38 17H7C5.89543 17 5 16.1046 5 15V10C5 8.89543 5.89543 8 7 8H38ZM7 9C6.44772 9 6 9.44772 6 10V15L6.00488 15.1025C6.05278 15.573 6.42703 15.9472 6.89746 15.9951L7 16H38L38.1025 15.9951C38.6067 15.9438 39 15.5177 39 15V10C39 9.44772 38.5523 9 38 9H7ZM10.5 11.501C11.0523 11.501 11.5 11.9487 11.5 12.501C11.5 13.0533 11.0523 13.501 10.5 13.501C9.94772 13.501 9.5 13.0533 9.5 12.501C9.5 11.9487 9.94772 11.501 10.5 11.501ZM14.5 11.501C15.0523 11.501 15.5 11.9487 15.5 12.501C15.5 13.0533 15.0523 13.501 14.5 13.501C13.9477 13.501 13.5 13.0533 13.5 12.501C13.5 11.9487 13.9477 11.501 14.5 11.501Z" fill="black"/>
<path d="M39.8223 28.7031C39.8223 26.3361 37.934 24.423 35.5918 24.4229C34.0376 24.4229 32.5845 25.3326 31.8564 26.7549C31.7858 26.8929 31.6554 26.9903 31.5029 27.0186C31.3505 27.0468 31.1936 27.0029 31.0781 26.8994C30.6161 26.4846 30.0533 26.2695 29.4678 26.2695C28.1249 26.2695 27.0195 27.3631 27.0195 28.7363V29.5098C27.0194 29.7424 26.8585 29.9447 26.6318 29.9971C24.733 30.4363 23.4229 32.1533 23.4229 34.1426C23.4229 36.5097 25.3109 38.4228 27.6533 38.4229H40.1924C42.5348 38.4228 44.4229 36.5097 44.4229 34.1426C44.4228 31.7746 42.5649 29.8918 40.251 29.8623C40.1036 29.8604 39.9647 29.7935 39.8711 29.6797C39.7776 29.5658 39.7388 29.4164 39.7656 29.2715V29.2695C39.7659 29.2678 39.7669 29.2649 39.7676 29.2607C39.769 29.2526 39.7708 29.2399 39.7734 29.2236C39.7788 29.1905 39.7867 29.1425 39.7939 29.0859C39.8089 28.9697 39.8223 28.8282 39.8223 28.7031ZM40.8135 28.8975C43.4206 29.2035 45.4228 31.4243 45.4229 34.1426C45.4229 37.0501 43.0989 39.4228 40.1924 39.4229H27.6533C24.7468 39.4228 22.4229 37.0501 22.4229 34.1426C22.4229 31.8486 23.8561 29.81 26.0195 29.1279V28.7363C26.0195 26.8128 27.5706 25.2695 29.4678 25.2695C30.1089 25.2695 30.7251 25.4517 31.2656 25.793C32.2233 24.3414 33.8429 23.4229 35.5918 23.4229C38.4982 23.423 40.8223 25.7957 40.8223 28.7031C40.8223 28.7684 40.8173 28.8339 40.8135 28.8975Z" fill="black"/>
</svg>
