<svg width="48" height="48" viewBox="0 0 48 48" fill="none" xmlns="http://www.w3.org/2000/svg">
<path d="M23.9893 27.4795C26.519 27.4818 28.9796 28.3074 31.002 29.832L30.7012 30.2314L30.4004 30.6299C28.5514 29.236 26.3021 28.482 23.9902 28.4795C21.6832 28.4925 19.4422 29.2543 17.6016 30.6514L16.9961 29.8545C19.0094 28.3264 21.4618 27.4934 23.9863 27.4795H23.9893Z" fill="black"/>
<path d="M23.9893 20.7373C28.3094 20.7396 32.4914 22.2665 35.8027 25.0508L35.4805 25.4336L35.1592 25.8164C32.0282 23.1838 28.0748 21.74 23.9912 21.7373C19.9195 21.7683 15.9869 23.2306 12.8779 25.8711L12.5547 25.4902L12.2305 25.1094C15.5183 22.3169 19.678 20.7697 23.9854 20.7373H23.9893Z" fill="black"/>
<path d="M23.9893 13.9951C30.0944 13.9979 35.9894 16.2314 40.5732 20.2783L39.9111 21.0283C35.5097 17.1424 29.8502 14.9979 23.9893 14.9951C18.1342 15.0114 12.4846 17.1646 8.09375 21.0537L7.76172 20.6797L7.43066 20.3057C12.0036 16.2552 17.888 14.0119 23.9873 13.9951H23.9893Z" fill="black"/>
<path d="M24.7275 7.26172C32.3515 7.44146 39.6675 10.3633 45.3359 15.5078L44.6641 16.248C38.9965 11.1043 31.6291 8.25543 23.9893 8.25293C16.3541 8.26679 8.99466 11.1231 3.33594 16.2695L2.66406 15.5293C8.50617 10.2162 16.1044 7.26706 23.9883 7.25293L24.7275 7.26172Z" fill="black"/>
<path fill-rule="evenodd" clip-rule="evenodd" d="M24 34.5498C25.3807 34.5498 26.4999 35.6691 26.5 37.0498C26.5 38.4305 25.3807 39.5498 24 39.5498C22.6193 39.5498 21.5 38.4305 21.5 37.0498C21.5001 35.6691 22.6193 34.5498 24 34.5498ZM24 35.5498C23.1716 35.5498 22.5001 36.2214 22.5 37.0498C22.5 37.8782 23.1716 38.5498 24 38.5498C24.8284 38.5498 25.5 37.8782 25.5 37.0498C25.4999 36.2214 24.8284 35.5498 24 35.5498Z" fill="black"/>
</svg>
