<svg width="48" height="48" viewBox="0 0 48 48" fill="none" xmlns="http://www.w3.org/2000/svg">
<path fill-rule="evenodd" clip-rule="evenodd" d="M12.789 7.83005C14.4743 7.08293 16.3386 6.83255 18.1611 7.10934C19.9836 7.38622 21.6898 8.17868 23.0771 9.39255C24.4644 10.6065 25.4758 12.1923 25.9922 13.9619C26.4804 15.6354 26.5049 17.4076 26.0693 19.0918L40.5361 33.5595C40.8331 33.8618 40.9999 34.2686 41 34.6924C40.9999 35.1161 40.8331 35.5229 40.5361 35.8252L35.8252 40.5361C35.5229 40.8331 35.1161 40.9999 34.6924 41C34.2686 40.9999 33.8618 40.8331 33.5595 40.5361L19.0918 26.0693C17.4076 26.5049 15.6354 26.4804 13.9619 25.9922C12.1923 25.4758 10.6065 24.4644 9.39255 23.0771C8.17868 21.6898 7.38622 19.9836 7.10934 18.1611C6.83255 16.3386 7.08293 14.4743 7.83005 12.789L8.12399 12.1259L13.8877 17.8466L17.8466 13.8877L12.1259 8.12399L12.789 7.83005ZM18.0107 8.0986C16.6207 7.88751 15.204 8.0185 13.8818 8.47458L19.2588 13.8906L13.8906 19.2588L8.47458 13.8818C8.0185 15.204 7.88751 16.6207 8.0986 18.0107C8.34684 19.6447 9.05717 21.1741 10.1455 22.4179C11.2339 23.6618 12.6555 24.5692 14.2422 25.0322C15.8287 25.495 17.5151 25.4945 19.1015 25.0312L19.3857 24.9482L19.5947 25.1582L34.2636 39.8261C34.3785 39.9374 34.5323 39.9999 34.6924 40C34.8538 39.9999 35.0088 39.9364 35.124 39.8232L39.8232 35.124C39.9364 35.0088 39.9999 34.8538 40 34.6924C39.9999 34.5323 39.9374 34.3785 39.8261 34.2636L25.1582 19.5947L24.9482 19.3857L25.0312 19.1015C25.4945 17.5151 25.495 15.8287 25.0322 14.2422C24.5692 12.6555 23.6618 11.2339 22.4179 10.1455C21.1741 9.05717 19.6447 8.34684 18.0107 8.0986Z" fill="black"/>
<path d="M35.5 34.5C35.5 35.0523 35.0523 35.5 34.5 35.5C33.9477 35.5 33.5 35.0523 33.5 34.5C33.5 33.9477 33.9477 33.5 34.5 33.5C35.0523 33.5 35.5 33.9477 35.5 34.5Z" fill="black"/>
</svg>
