<svg width="48" height="48" viewBox="0 0 48 48" fill="none" xmlns="http://www.w3.org/2000/svg">
<path d="M12.789 7.83005C14.4743 7.08293 16.3386 6.83255 18.1611 7.10934C19.9836 7.38622 21.6898 8.17868 23.0771 9.39255C24.4644 10.6065 25.4758 12.1923 25.9922 13.9619C26.5085 15.7315 26.508 17.6123 25.9912 19.3818L25.5117 19.2412L25.0312 19.1015C25.4945 17.5151 25.495 15.8287 25.0322 14.2422C24.5692 12.6555 23.6618 11.2339 22.4179 10.1455C21.1741 9.05717 19.6447 8.34684 18.0107 8.0986C16.6207 7.88751 15.204 8.0185 13.8818 8.47458L19.2588 13.8906L13.8906 19.2588L8.47458 13.8818C8.0185 15.204 7.88751 16.6207 8.0986 18.0107C8.34684 19.6447 9.05717 21.1741 10.1455 22.4179C11.2339 23.6618 12.6555 24.5692 14.2422 25.0322C15.8287 25.495 17.5151 25.4945 19.1015 25.0312L19.2412 25.5117L19.3818 25.9912C17.6123 26.508 15.7315 26.5085 13.9619 25.9922C12.1923 25.4758 10.6065 24.4644 9.39255 23.0771C8.17868 21.6898 7.38622 19.9836 7.10934 18.1611C6.83255 16.3386 7.08293 14.4743 7.83005 12.789L8.12399 12.1259L13.8877 17.8466L17.8466 13.8877L12.1259 8.12399L12.789 7.83005Z" fill="black"/>
<path d="M40.5898 34.6592L40.5957 34.665C40.8557 34.9327 41 35.2922 41 35.665C41 36.0379 40.8556 36.3974 40.5957 36.665L40.5928 36.668L36.7207 40.585L36.7178 40.5879C36.453 40.8512 36.0954 41 35.7217 41C35.3479 41 34.9904 40.8512 34.7256 40.5879L20.6777 26.6045L21.3828 25.8955L35.4307 39.8789C35.5093 39.9571 35.6139 40 35.7217 40C35.8294 40 35.934 39.9571 36.0127 39.8789L39.877 35.9678C39.9545 35.8879 40 35.7794 40 35.665C40 35.5507 39.9555 35.4422 39.8779 35.3623L25.8359 21.3848L26.1895 21.0303L26.542 20.6758L40.5898 34.6592Z" fill="black"/>
<path d="M33.3535 32.6465L32.6465 33.3535L25.8965 26.6035L26.6035 25.8965L33.3535 32.6465Z" fill="black"/>
</svg>
