<svg width="48" height="48" viewBox="0 0 48 48" fill="none" xmlns="http://www.w3.org/2000/svg">
<path d="M24 2.78613C28.1954 2.78613 32.2968 4.03061 35.7852 6.36133C39.2736 8.69226 41.9931 12.0066 43.5986 15.8828C45.204 19.7588 45.6241 24.024 44.8057 28.1387C43.9872 32.2533 41.9674 36.0334 39.001 39L38.2939 38.293C41.1205 35.4662 43.0443 31.8641 43.8242 27.9434C44.6041 24.0224 44.2037 19.9581 42.6738 16.2646C41.1439 12.5713 38.5534 9.41434 35.2295 7.19336C31.9055 4.97244 27.9977 3.78613 24 3.78613C20.0023 3.78616 16.0945 4.97243 12.7705 7.19336C9.4466 9.41435 6.85605 12.5713 5.32617 16.2646C3.7963 19.9581 3.39587 24.0224 4.17578 27.9434C4.95571 31.8642 6.88032 35.4662 9.70703 38.293L9 39C6.03343 36.0334 4.01285 32.2535 3.19433 28.1387C2.37585 24.0239 2.79692 19.7589 4.40234 15.8828C6.00791 12.0066 8.72635 8.69226 12.2148 6.36133C15.7032 4.03056 19.8046 2.78616 24 2.78613Z" fill="black"/>
<path d="M24 7.875C27.1892 7.875 30.3072 8.82094 32.959 10.5928C35.6105 12.3645 37.677 14.8829 38.8975 17.8291C40.1178 20.7754 40.4375 24.0178 39.8154 27.1455C39.1932 30.2734 37.6574 33.1473 35.4023 35.4023L34.6953 34.6953C36.8106 32.58 38.2514 29.8842 38.835 26.9502C39.4184 24.0164 39.1183 20.9755 37.9736 18.2119C36.8289 15.4482 34.8896 13.0858 32.4023 11.4238C29.9152 9.76213 26.9912 8.87402 24 8.87402C21.0088 8.87405 18.0848 9.76208 15.5977 11.4238C13.1104 13.0858 11.1711 15.4482 10.0264 18.2119C8.88169 20.9754 8.5816 24.0164 9.16503 26.9502C9.74863 29.8841 11.1894 32.58 13.3047 34.6953L12.5977 35.4023C10.3426 33.1473 8.80677 30.2734 8.18457 27.1455C7.56251 24.0178 7.88218 20.7754 9.10253 17.8291C10.3229 14.8829 12.3896 12.3646 15.041 10.5928C17.6927 8.82096 20.8108 7.87502 24 7.875Z" fill="black"/>
<path d="M24 13.5C26.0765 13.5 28.1064 14.116 29.833 15.2695C31.5596 16.4232 32.9064 18.063 33.7012 19.9814C34.4958 21.9 34.703 24.0121 34.2978 26.0488C33.8926 28.0854 32.8931 29.9565 31.4248 31.4248L30.7178 30.7178C32.0463 29.3892 32.9518 27.6963 33.3184 25.8535C33.6849 24.0107 33.4963 22.1001 32.7773 20.3643C32.0583 18.6285 30.8405 17.1444 29.2783 16.1006C27.7161 15.0568 25.8789 14.5 24 14.5C22.1213 14.5 20.2848 15.057 18.7227 16.1006C17.1604 17.1445 15.9417 18.6284 15.2227 20.3643C14.5036 22.1001 14.3151 24.0107 14.6816 25.8535C15.0482 27.6963 15.9537 29.3892 17.2822 30.7178L16.5752 31.4248C15.1069 29.9565 14.1073 28.0854 13.7021 26.0488C13.297 24.0121 13.5042 21.9 14.2988 19.9814C15.0935 18.063 16.4404 16.4232 18.167 15.2695C19.8936 14.116 21.9235 13.5 24 13.5Z" fill="black"/>
<path fill-rule="evenodd" clip-rule="evenodd" d="M24 21.5C25.3807 21.5 26.5 22.6193 26.5 24C26.5 25.2094 25.641 26.2175 24.5 26.4492V45H23.5V26.4492C22.359 26.2175 21.5 25.2094 21.5 24C21.5 22.6193 22.6193 21.5 24 21.5ZM24 22.5C23.1716 22.5 22.5 23.1716 22.5 24C22.5 24.8284 23.1716 25.5 24 25.5C24.8284 25.5 25.5 24.8284 25.5 24C25.5 23.1716 24.8284 22.5 24 22.5Z" fill="black"/>
</svg>
